<?xml version="1.0" encoding="utf-8" standalone="no"?>
<!DOCTYPE svg PUBLIC "-//W3C//DTD SVG 1.1//EN"
  "http://www.w3.org/Graphics/SVG/1.1/DTD/svg11.dtd">
<svg xmlns:xlink="http://www.w3.org/1999/xlink" width="720pt" height="432pt" viewBox="0 0 720 432" xmlns="http://www.w3.org/2000/svg" version="1.1">
 <metadata>
  <rdf:RDF xmlns:dc="http://purl.org/dc/elements/1.1/" xmlns:cc="http://creativecommons.org/ns#" xmlns:rdf="http://www.w3.org/1999/02/22-rdf-syntax-ns#">
   <cc:Work>
    <dc:type rdf:resource="http://purl.org/dc/dcmitype/StillImage"/>
    <dc:date>2025-09-24T22:32:18.416889</dc:date>
    <dc:format>image/svg+xml</dc:format>
    <dc:creator>
     <cc:Agent>
      <dc:title>Matplotlib v3.9.2, https://matplotlib.org/</dc:title>
     </cc:Agent>
    </dc:creator>
   </cc:Work>
  </rdf:RDF>
 </metadata>
 <defs>
  <style type="text/css">*{stroke-linejoin: round; stroke-linecap: butt}</style>
 </defs>
 <g id="figure_1">
  <g id="patch_1">
   <path d="M 0 432 
L 720 432 
L 720 0 
L 0 0 
z
" style="fill: #ffffff"/>
  </g>
  <g id="axes_1">
   <g id="patch_2">
    <path d="M 90 384.48 
L 648 384.48 
L 648 51.84 
L 90 51.84 
z
" style="fill: #ffffff"/>
   </g>
   <g id="patch_3">
    <path d="M 115.363636 384.48 
L 132.272727 384.48 
L 132.272727 67.68 
L 115.363636 67.68 
z
" clip-path="url(#p8499a1f378)" style="fill: #4878d0; fill-opacity: 0.75; stroke: #000000; stroke-width: 0.24; stroke-linejoin: miter"/>
   </g>
   <g id="patch_4">
    <path d="M 132.272727 384.48 
L 149.181818 384.48 
L 149.181818 166.467097 
L 132.272727 166.467097 
z
" clip-path="url(#p8499a1f378)" style="fill: #4878d0; fill-opacity: 0.75; stroke: #000000; stroke-width: 0.24; stroke-linejoin: miter"/>
   </g>
   <g id="patch_5">
    <path d="M 149.181818 384.48 
L 166.090909 384.48 
L 166.090909 183.499355 
L 149.181818 183.499355 
z
" clip-path="url(#p8499a1f378)" style="fill: #4878d0; fill-opacity: 0.75; stroke: #000000; stroke-width: 0.24; stroke-linejoin: miter"/>
   </g>
   <g id="patch_6">
    <path d="M 166.090909 384.48 
L 183 384.48 
L 183 200.531613 
L 166.090909 200.531613 
z
" clip-path="url(#p8499a1f378)" style="fill: #4878d0; fill-opacity: 0.75; stroke: #000000; stroke-width: 0.24; stroke-linejoin: miter"/>
   </g>
   <g id="patch_7">
    <path d="M 183 384.48 
L 199.909091 384.48 
L 199.909091 94.931613 
L 183 94.931613 
z
" clip-path="url(#p8499a1f378)" style="fill: #4878d0; fill-opacity: 0.75; stroke: #000000; stroke-width: 0.24; stroke-linejoin: miter"/>
   </g>
   <g id="patch_8">
    <path d="M 199.909091 384.48 
L 216.818182 384.48 
L 216.818182 231.189677 
L 199.909091 231.189677 
z
" clip-path="url(#p8499a1f378)" style="fill: #4878d0; fill-opacity: 0.75; stroke: #000000; stroke-width: 0.24; stroke-linejoin: miter"/>
   </g>
   <g id="patch_9">
    <path d="M 216.818182 384.48 
L 233.727273 384.48 
L 233.727273 275.473548 
L 216.818182 275.473548 
z
" clip-path="url(#p8499a1f378)" style="fill: #4878d0; fill-opacity: 0.75; stroke: #000000; stroke-width: 0.24; stroke-linejoin: miter"/>
   </g>
   <g id="patch_10">
    <path d="M 233.727273 384.48 
L 250.636364 384.48 
L 250.636364 323.163871 
L 233.727273 323.163871 
z
" clip-path="url(#p8499a1f378)" style="fill: #4878d0; fill-opacity: 0.75; stroke: #000000; stroke-width: 0.24; stroke-linejoin: miter"/>
   </g>
   <g id="patch_11">
    <path d="M 250.636364 384.48 
L 267.545455 384.48 
L 267.545455 323.163871 
L 250.636364 323.163871 
z
" clip-path="url(#p8499a1f378)" style="fill: #4878d0; fill-opacity: 0.75; stroke: #000000; stroke-width: 0.24; stroke-linejoin: miter"/>
   </g>
   <g id="patch_12">
    <path d="M 267.545455 384.48 
L 284.454545 384.48 
L 284.454545 350.415484 
L 267.545455 350.415484 
z
" clip-path="url(#p8499a1f378)" style="fill: #4878d0; fill-opacity: 0.75; stroke: #000000; stroke-width: 0.24; stroke-linejoin: miter"/>
   </g>
   <g id="patch_13">
    <path d="M 284.454545 384.48 
L 301.363636 384.48 
L 301.363636 360.634839 
L 284.454545 360.634839 
z
" clip-path="url(#p8499a1f378)" style="fill: #4878d0; fill-opacity: 0.75; stroke: #000000; stroke-width: 0.24; stroke-linejoin: miter"/>
   </g>
   <g id="patch_14">
    <path d="M 301.363636 384.48 
L 318.272727 384.48 
L 318.272727 364.04129 
L 301.363636 364.04129 
z
" clip-path="url(#p8499a1f378)" style="fill: #4878d0; fill-opacity: 0.75; stroke: #000000; stroke-width: 0.24; stroke-linejoin: miter"/>
   </g>
   <g id="patch_15">
    <path d="M 318.272727 384.48 
L 335.181818 384.48 
L 335.181818 353.821935 
L 318.272727 353.821935 
z
" clip-path="url(#p8499a1f378)" style="fill: #4878d0; fill-opacity: 0.75; stroke: #000000; stroke-width: 0.24; stroke-linejoin: miter"/>
   </g>
   <g id="patch_16">
    <path d="M 335.181818 384.48 
L 352.090909 384.48 
L 352.090909 374.260645 
L 335.181818 374.260645 
z
" clip-path="url(#p8499a1f378)" style="fill: #4878d0; fill-opacity: 0.75; stroke: #000000; stroke-width: 0.24; stroke-linejoin: miter"/>
   </g>
   <g id="patch_17">
    <path d="M 352.090909 384.48 
L 369 384.48 
L 369 370.854194 
L 352.090909 370.854194 
z
" clip-path="url(#p8499a1f378)" style="fill: #4878d0; fill-opacity: 0.75; stroke: #000000; stroke-width: 0.24; stroke-linejoin: miter"/>
   </g>
   <g id="patch_18">
    <path d="M 369 384.48 
L 385.909091 384.48 
L 385.909091 370.854194 
L 369 370.854194 
z
" clip-path="url(#p8499a1f378)" style="fill: #4878d0; fill-opacity: 0.75; stroke: #000000; stroke-width: 0.24; stroke-linejoin: miter"/>
   </g>
   <g id="patch_19">
    <path d="M 385.909091 384.48 
L 402.818182 384.48 
L 402.818182 377.667097 
L 385.909091 377.667097 
z
" clip-path="url(#p8499a1f378)" style="fill: #4878d0; fill-opacity: 0.75; stroke: #000000; stroke-width: 0.24; stroke-linejoin: miter"/>
   </g>
   <g id="patch_20">
    <path d="M 402.818182 384.48 
L 419.727273 384.48 
L 419.727273 374.260645 
L 402.818182 374.260645 
z
" clip-path="url(#p8499a1f378)" style="fill: #4878d0; fill-opacity: 0.75; stroke: #000000; stroke-width: 0.24; stroke-linejoin: miter"/>
   </g>
   <g id="patch_21">
    <path d="M 419.727273 384.48 
L 436.636364 384.48 
L 436.636364 374.260645 
L 419.727273 374.260645 
z
" clip-path="url(#p8499a1f378)" style="fill: #4878d0; fill-opacity: 0.75; stroke: #000000; stroke-width: 0.24; stroke-linejoin: miter"/>
   </g>
   <g id="patch_22">
    <path d="M 436.636364 384.48 
L 453.545455 384.48 
L 453.545455 377.667097 
L 436.636364 377.667097 
z
" clip-path="url(#p8499a1f378)" style="fill: #4878d0; fill-opacity: 0.75; stroke: #000000; stroke-width: 0.24; stroke-linejoin: miter"/>
   </g>
   <g id="patch_23">
    <path d="M 453.545455 384.48 
L 470.454545 384.48 
L 470.454545 384.48 
L 453.545455 384.48 
z
" clip-path="url(#p8499a1f378)" style="fill: #4878d0; fill-opacity: 0.75; stroke: #000000; stroke-width: 0.24; stroke-linejoin: miter"/>
   </g>
   <g id="patch_24">
    <path d="M 470.454545 384.48 
L 487.363636 384.48 
L 487.363636 384.48 
L 470.454545 384.48 
z
" clip-path="url(#p8499a1f378)" style="fill: #4878d0; fill-opacity: 0.75; stroke: #000000; stroke-width: 0.24; stroke-linejoin: miter"/>
   </g>
   <g id="patch_25">
    <path d="M 487.363636 384.48 
L 504.272727 384.48 
L 504.272727 381.073548 
L 487.363636 381.073548 
z
" clip-path="url(#p8499a1f378)" style="fill: #4878d0; fill-opacity: 0.75; stroke: #000000; stroke-width: 0.24; stroke-linejoin: miter"/>
   </g>
   <g id="patch_26">
    <path d="M 504.272727 384.48 
L 521.181818 384.48 
L 521.181818 370.854194 
L 504.272727 370.854194 
z
" clip-path="url(#p8499a1f378)" style="fill: #4878d0; fill-opacity: 0.75; stroke: #000000; stroke-width: 0.24; stroke-linejoin: miter"/>
   </g>
   <g id="patch_27">
    <path d="M 521.181818 384.48 
L 538.090909 384.48 
L 538.090909 381.073548 
L 521.181818 381.073548 
z
" clip-path="url(#p8499a1f378)" style="fill: #4878d0; fill-opacity: 0.75; stroke: #000000; stroke-width: 0.24; stroke-linejoin: miter"/>
   </g>
   <g id="patch_28">
    <path d="M 538.090909 384.48 
L 555 384.48 
L 555 381.073548 
L 538.090909 381.073548 
z
" clip-path="url(#p8499a1f378)" style="fill: #4878d0; fill-opacity: 0.75; stroke: #000000; stroke-width: 0.24; stroke-linejoin: miter"/>
   </g>
   <g id="patch_29">
    <path d="M 555 384.48 
L 571.909091 384.48 
L 571.909091 384.48 
L 555 384.48 
z
" clip-path="url(#p8499a1f378)" style="fill: #4878d0; fill-opacity: 0.75; stroke: #000000; stroke-width: 0.24; stroke-linejoin: miter"/>
   </g>
   <g id="patch_30">
    <path d="M 571.909091 384.48 
L 588.818182 384.48 
L 588.818182 384.48 
L 571.909091 384.48 
z
" clip-path="url(#p8499a1f378)" style="fill: #4878d0; fill-opacity: 0.75; stroke: #000000; stroke-width: 0.24; stroke-linejoin: miter"/>
   </g>
   <g id="patch_31">
    <path d="M 588.818182 384.48 
L 605.727273 384.48 
L 605.727273 384.48 
L 588.818182 384.48 
z
" clip-path="url(#p8499a1f378)" style="fill: #4878d0; fill-opacity: 0.75; stroke: #000000; stroke-width: 0.24; stroke-linejoin: miter"/>
   </g>
   <g id="patch_32">
    <path d="M 605.727273 384.48 
L 622.636364 384.48 
L 622.636364 381.073548 
L 605.727273 381.073548 
z
" clip-path="url(#p8499a1f378)" style="fill: #4878d0; fill-opacity: 0.75; stroke: #000000; stroke-width: 0.24; stroke-linejoin: miter"/>
   </g>
   <g id="matplotlib.axis_1">
    <g id="xtick_1">
     <g id="line2d_1">
      <defs>
       <path id="m01c3122fbd" d="M 0 0 
L 0 3.5 
" style="stroke: #000000; stroke-width: 0.8"/>
      </defs>
      <g>
       <use xlink:href="#m01c3122fbd" x="107.038885" y="384.48" style="stroke: #000000; stroke-width: 0.8"/>
      </g>
     </g>
     <g id="text_1">
      <!-- 0 -->
      <g transform="translate(102.90326 403.457969) scale(0.13 -0.13)">
       <defs>
        <path id="DejaVuSans-30" d="M 2034 4250 
Q 1547 4250 1301 3770 
Q 1056 3291 1056 2328 
Q 1056 1369 1301 889 
Q 1547 409 2034 409 
Q 2525 409 2770 889 
Q 3016 1369 3016 2328 
Q 3016 3291 2770 3770 
Q 2525 4250 2034 4250 
z
M 2034 4750 
Q 2819 4750 3233 4129 
Q 3647 3509 3647 2328 
Q 3647 1150 3233 529 
Q 2819 -91 2034 -91 
Q 1250 -91 836 529 
Q 422 1150 422 2328 
Q 422 3509 836 4129 
Q 1250 4750 2034 4750 
z
" transform="scale(0.015625)"/>
       </defs>
       <use xlink:href="#DejaVuSans-30"/>
      </g>
     </g>
    </g>
    <g id="xtick_2">
     <g id="line2d_2">
      <g>
       <use xlink:href="#m01c3122fbd" x="174.173974" y="384.48" style="stroke: #000000; stroke-width: 0.8"/>
      </g>
     </g>
     <g id="text_2">
      <!-- 250 -->
      <g transform="translate(161.767099 403.457969) scale(0.13 -0.13)">
       <defs>
        <path id="DejaVuSans-32" d="M 1228 531 
L 3431 531 
L 3431 0 
L 469 0 
L 469 531 
Q 828 903 1448 1529 
Q 2069 2156 2228 2338 
Q 2531 2678 2651 2914 
Q 2772 3150 2772 3378 
Q 2772 3750 2511 3984 
Q 2250 4219 1831 4219 
Q 1534 4219 1204 4116 
Q 875 4013 500 3803 
L 500 4441 
Q 881 4594 1212 4672 
Q 1544 4750 1819 4750 
Q 2544 4750 2975 4387 
Q 3406 4025 3406 3419 
Q 3406 3131 3298 2873 
Q 3191 2616 2906 2266 
Q 2828 2175 2409 1742 
Q 1991 1309 1228 531 
z
" transform="scale(0.015625)"/>
        <path id="DejaVuSans-35" d="M 691 4666 
L 3169 4666 
L 3169 4134 
L 1269 4134 
L 1269 2991 
Q 1406 3038 1543 3061 
Q 1681 3084 1819 3084 
Q 2600 3084 3056 2656 
Q 3513 2228 3513 1497 
Q 3513 744 3044 326 
Q 2575 -91 1722 -91 
Q 1428 -91 1123 -41 
Q 819 9 494 109 
L 494 744 
Q 775 591 1075 516 
Q 1375 441 1709 441 
Q 2250 441 2565 725 
Q 2881 1009 2881 1497 
Q 2881 1984 2565 2268 
Q 2250 2553 1709 2553 
Q 1456 2553 1204 2497 
Q 953 2441 691 2322 
L 691 4666 
z
" transform="scale(0.015625)"/>
       </defs>
       <use xlink:href="#DejaVuSans-32"/>
       <use xlink:href="#DejaVuSans-35" x="63.623047"/>
       <use xlink:href="#DejaVuSans-30" x="127.246094"/>
      </g>
     </g>
    </g>
    <g id="xtick_3">
     <g id="line2d_3">
      <g>
       <use xlink:href="#m01c3122fbd" x="241.309062" y="384.48" style="stroke: #000000; stroke-width: 0.8"/>
      </g>
     </g>
     <g id="text_3">
      <!-- 500 -->
      <g transform="translate(228.902187 403.457969) scale(0.13 -0.13)">
       <use xlink:href="#DejaVuSans-35"/>
       <use xlink:href="#DejaVuSans-30" x="63.623047"/>
       <use xlink:href="#DejaVuSans-30" x="127.246094"/>
      </g>
     </g>
    </g>
    <g id="xtick_4">
     <g id="line2d_4">
      <g>
       <use xlink:href="#m01c3122fbd" x="308.44415" y="384.48" style="stroke: #000000; stroke-width: 0.8"/>
      </g>
     </g>
     <g id="text_4">
      <!-- 750 -->
      <g transform="translate(296.037275 403.457969) scale(0.13 -0.13)">
       <defs>
        <path id="DejaVuSans-37" d="M 525 4666 
L 3525 4666 
L 3525 4397 
L 1831 0 
L 1172 0 
L 2766 4134 
L 525 4134 
L 525 4666 
z
" transform="scale(0.015625)"/>
       </defs>
       <use xlink:href="#DejaVuSans-37"/>
       <use xlink:href="#DejaVuSans-35" x="63.623047"/>
       <use xlink:href="#DejaVuSans-30" x="127.246094"/>
      </g>
     </g>
    </g>
    <g id="xtick_5">
     <g id="line2d_5">
      <g>
       <use xlink:href="#m01c3122fbd" x="375.579239" y="384.48" style="stroke: #000000; stroke-width: 0.8"/>
      </g>
     </g>
     <g id="text_5">
      <!-- 1000 -->
      <g transform="translate(359.036739 403.457969) scale(0.13 -0.13)">
       <defs>
        <path id="DejaVuSans-31" d="M 794 531 
L 1825 531 
L 1825 4091 
L 703 3866 
L 703 4441 
L 1819 4666 
L 2450 4666 
L 2450 531 
L 3481 531 
L 3481 0 
L 794 0 
L 794 531 
z
" transform="scale(0.015625)"/>
       </defs>
       <use xlink:href="#DejaVuSans-31"/>
       <use xlink:href="#DejaVuSans-30" x="63.623047"/>
       <use xlink:href="#DejaVuSans-30" x="127.246094"/>
       <use xlink:href="#DejaVuSans-30" x="190.869141"/>
      </g>
     </g>
    </g>
    <g id="xtick_6">
     <g id="line2d_6">
      <g>
       <use xlink:href="#m01c3122fbd" x="442.714327" y="384.48" style="stroke: #000000; stroke-width: 0.8"/>
      </g>
     </g>
     <g id="text_6">
      <!-- 1250 -->
      <g transform="translate(426.171827 403.457969) scale(0.13 -0.13)">
       <use xlink:href="#DejaVuSans-31"/>
       <use xlink:href="#DejaVuSans-32" x="63.623047"/>
       <use xlink:href="#DejaVuSans-35" x="127.246094"/>
       <use xlink:href="#DejaVuSans-30" x="190.869141"/>
      </g>
     </g>
    </g>
    <g id="xtick_7">
     <g id="line2d_7">
      <g>
       <use xlink:href="#m01c3122fbd" x="509.849415" y="384.48" style="stroke: #000000; stroke-width: 0.8"/>
      </g>
     </g>
     <g id="text_7">
      <!-- 1500 -->
      <g transform="translate(493.306915 403.457969) scale(0.13 -0.13)">
       <use xlink:href="#DejaVuSans-31"/>
       <use xlink:href="#DejaVuSans-35" x="63.623047"/>
       <use xlink:href="#DejaVuSans-30" x="127.246094"/>
       <use xlink:href="#DejaVuSans-30" x="190.869141"/>
      </g>
     </g>
    </g>
    <g id="xtick_8">
     <g id="line2d_8">
      <g>
       <use xlink:href="#m01c3122fbd" x="576.984504" y="384.48" style="stroke: #000000; stroke-width: 0.8"/>
      </g>
     </g>
     <g id="text_8">
      <!-- 1750 -->
      <g transform="translate(560.442004 403.457969) scale(0.13 -0.13)">
       <use xlink:href="#DejaVuSans-31"/>
       <use xlink:href="#DejaVuSans-37" x="63.623047"/>
       <use xlink:href="#DejaVuSans-35" x="127.246094"/>
       <use xlink:href="#DejaVuSans-30" x="190.869141"/>
      </g>
     </g>
    </g>
    <g id="xtick_9">
     <g id="line2d_9">
      <g>
       <use xlink:href="#m01c3122fbd" x="644.119592" y="384.48" style="stroke: #000000; stroke-width: 0.8"/>
      </g>
     </g>
     <g id="text_9">
      <!-- 2000 -->
      <g transform="translate(627.577092 403.457969) scale(0.13 -0.13)">
       <use xlink:href="#DejaVuSans-32"/>
       <use xlink:href="#DejaVuSans-30" x="63.623047"/>
       <use xlink:href="#DejaVuSans-30" x="127.246094"/>
       <use xlink:href="#DejaVuSans-30" x="190.869141"/>
      </g>
     </g>
    </g>
    <g id="text_10">
     <!-- Extension Length (amino acids) -->
     <g transform="translate(250.508203 421.559219) scale(0.15 -0.15)">
      <defs>
       <path id="DejaVuSans-45" d="M 628 4666 
L 3578 4666 
L 3578 4134 
L 1259 4134 
L 1259 2753 
L 3481 2753 
L 3481 2222 
L 1259 2222 
L 1259 531 
L 3634 531 
L 3634 0 
L 628 0 
L 628 4666 
z
" transform="scale(0.015625)"/>
       <path id="DejaVuSans-78" d="M 3513 3500 
L 2247 1797 
L 3578 0 
L 2900 0 
L 1881 1375 
L 863 0 
L 184 0 
L 1544 1831 
L 300 3500 
L 978 3500 
L 1906 2253 
L 2834 3500 
L 3513 3500 
z
" transform="scale(0.015625)"/>
       <path id="DejaVuSans-74" d="M 1172 4494 
L 1172 3500 
L 2356 3500 
L 2356 3053 
L 1172 3053 
L 1172 1153 
Q 1172 725 1289 603 
Q 1406 481 1766 481 
L 2356 481 
L 2356 0 
L 1766 0 
Q 1100 0 847 248 
Q 594 497 594 1153 
L 594 3053 
L 172 3053 
L 172 3500 
L 594 3500 
L 594 4494 
L 1172 4494 
z
" transform="scale(0.015625)"/>
       <path id="DejaVuSans-65" d="M 3597 1894 
L 3597 1613 
L 953 1613 
Q 991 1019 1311 708 
Q 1631 397 2203 397 
Q 2534 397 2845 478 
Q 3156 559 3463 722 
L 3463 178 
Q 3153 47 2828 -22 
Q 2503 -91 2169 -91 
Q 1331 -91 842 396 
Q 353 884 353 1716 
Q 353 2575 817 3079 
Q 1281 3584 2069 3584 
Q 2775 3584 3186 3129 
Q 3597 2675 3597 1894 
z
M 3022 2063 
Q 3016 2534 2758 2815 
Q 2500 3097 2075 3097 
Q 1594 3097 1305 2825 
Q 1016 2553 972 2059 
L 3022 2063 
z
" transform="scale(0.015625)"/>
       <path id="DejaVuSans-6e" d="M 3513 2113 
L 3513 0 
L 2938 0 
L 2938 2094 
Q 2938 2591 2744 2837 
Q 2550 3084 2163 3084 
Q 1697 3084 1428 2787 
Q 1159 2491 1159 1978 
L 1159 0 
L 581 0 
L 581 3500 
L 1159 3500 
L 1159 2956 
Q 1366 3272 1645 3428 
Q 1925 3584 2291 3584 
Q 2894 3584 3203 3211 
Q 3513 2838 3513 2113 
z
" transform="scale(0.015625)"/>
       <path id="DejaVuSans-73" d="M 2834 3397 
L 2834 2853 
Q 2591 2978 2328 3040 
Q 2066 3103 1784 3103 
Q 1356 3103 1142 2972 
Q 928 2841 928 2578 
Q 928 2378 1081 2264 
Q 1234 2150 1697 2047 
L 1894 2003 
Q 2506 1872 2764 1633 
Q 3022 1394 3022 966 
Q 3022 478 2636 193 
Q 2250 -91 1575 -91 
Q 1294 -91 989 -36 
Q 684 19 347 128 
L 347 722 
Q 666 556 975 473 
Q 1284 391 1588 391 
Q 1994 391 2212 530 
Q 2431 669 2431 922 
Q 2431 1156 2273 1281 
Q 2116 1406 1581 1522 
L 1381 1569 
Q 847 1681 609 1914 
Q 372 2147 372 2553 
Q 372 3047 722 3315 
Q 1072 3584 1716 3584 
Q 2034 3584 2315 3537 
Q 2597 3491 2834 3397 
z
" transform="scale(0.015625)"/>
       <path id="DejaVuSans-69" d="M 603 3500 
L 1178 3500 
L 1178 0 
L 603 0 
L 603 3500 
z
M 603 4863 
L 1178 4863 
L 1178 4134 
L 603 4134 
L 603 4863 
z
" transform="scale(0.015625)"/>
       <path id="DejaVuSans-6f" d="M 1959 3097 
Q 1497 3097 1228 2736 
Q 959 2375 959 1747 
Q 959 1119 1226 758 
Q 1494 397 1959 397 
Q 2419 397 2687 759 
Q 2956 1122 2956 1747 
Q 2956 2369 2687 2733 
Q 2419 3097 1959 3097 
z
M 1959 3584 
Q 2709 3584 3137 3096 
Q 3566 2609 3566 1747 
Q 3566 888 3137 398 
Q 2709 -91 1959 -91 
Q 1206 -91 779 398 
Q 353 888 353 1747 
Q 353 2609 779 3096 
Q 1206 3584 1959 3584 
z
" transform="scale(0.015625)"/>
       <path id="DejaVuSans-20" transform="scale(0.015625)"/>
       <path id="DejaVuSans-4c" d="M 628 4666 
L 1259 4666 
L 1259 531 
L 3531 531 
L 3531 0 
L 628 0 
L 628 4666 
z
" transform="scale(0.015625)"/>
       <path id="DejaVuSans-67" d="M 2906 1791 
Q 2906 2416 2648 2759 
Q 2391 3103 1925 3103 
Q 1463 3103 1205 2759 
Q 947 2416 947 1791 
Q 947 1169 1205 825 
Q 1463 481 1925 481 
Q 2391 481 2648 825 
Q 2906 1169 2906 1791 
z
M 3481 434 
Q 3481 -459 3084 -895 
Q 2688 -1331 1869 -1331 
Q 1566 -1331 1297 -1286 
Q 1028 -1241 775 -1147 
L 775 -588 
Q 1028 -725 1275 -790 
Q 1522 -856 1778 -856 
Q 2344 -856 2625 -561 
Q 2906 -266 2906 331 
L 2906 616 
Q 2728 306 2450 153 
Q 2172 0 1784 0 
Q 1141 0 747 490 
Q 353 981 353 1791 
Q 353 2603 747 3093 
Q 1141 3584 1784 3584 
Q 2172 3584 2450 3431 
Q 2728 3278 2906 2969 
L 2906 3500 
L 3481 3500 
L 3481 434 
z
" transform="scale(0.015625)"/>
       <path id="DejaVuSans-68" d="M 3513 2113 
L 3513 0 
L 2938 0 
L 2938 2094 
Q 2938 2591 2744 2837 
Q 2550 3084 2163 3084 
Q 1697 3084 1428 2787 
Q 1159 2491 1159 1978 
L 1159 0 
L 581 0 
L 581 4863 
L 1159 4863 
L 1159 2956 
Q 1366 3272 1645 3428 
Q 1925 3584 2291 3584 
Q 2894 3584 3203 3211 
Q 3513 2838 3513 2113 
z
" transform="scale(0.015625)"/>
       <path id="DejaVuSans-28" d="M 1984 4856 
Q 1566 4138 1362 3434 
Q 1159 2731 1159 2009 
Q 1159 1288 1364 580 
Q 1569 -128 1984 -844 
L 1484 -844 
Q 1016 -109 783 600 
Q 550 1309 550 2009 
Q 550 2706 781 3412 
Q 1013 4119 1484 4856 
L 1984 4856 
z
" transform="scale(0.015625)"/>
       <path id="DejaVuSans-61" d="M 2194 1759 
Q 1497 1759 1228 1600 
Q 959 1441 959 1056 
Q 959 750 1161 570 
Q 1363 391 1709 391 
Q 2188 391 2477 730 
Q 2766 1069 2766 1631 
L 2766 1759 
L 2194 1759 
z
M 3341 1997 
L 3341 0 
L 2766 0 
L 2766 531 
Q 2569 213 2275 61 
Q 1981 -91 1556 -91 
Q 1019 -91 701 211 
Q 384 513 384 1019 
Q 384 1609 779 1909 
Q 1175 2209 1959 2209 
L 2766 2209 
L 2766 2266 
Q 2766 2663 2505 2880 
Q 2244 3097 1772 3097 
Q 1472 3097 1187 3025 
Q 903 2953 641 2809 
L 641 3341 
Q 956 3463 1253 3523 
Q 1550 3584 1831 3584 
Q 2591 3584 2966 3190 
Q 3341 2797 3341 1997 
z
" transform="scale(0.015625)"/>
       <path id="DejaVuSans-6d" d="M 3328 2828 
Q 3544 3216 3844 3400 
Q 4144 3584 4550 3584 
Q 5097 3584 5394 3201 
Q 5691 2819 5691 2113 
L 5691 0 
L 5113 0 
L 5113 2094 
Q 5113 2597 4934 2840 
Q 4756 3084 4391 3084 
Q 3944 3084 3684 2787 
Q 3425 2491 3425 1978 
L 3425 0 
L 2847 0 
L 2847 2094 
Q 2847 2600 2669 2842 
Q 2491 3084 2119 3084 
Q 1678 3084 1418 2786 
Q 1159 2488 1159 1978 
L 1159 0 
L 581 0 
L 581 3500 
L 1159 3500 
L 1159 2956 
Q 1356 3278 1631 3431 
Q 1906 3584 2284 3584 
Q 2666 3584 2933 3390 
Q 3200 3197 3328 2828 
z
" transform="scale(0.015625)"/>
       <path id="DejaVuSans-63" d="M 3122 3366 
L 3122 2828 
Q 2878 2963 2633 3030 
Q 2388 3097 2138 3097 
Q 1578 3097 1268 2742 
Q 959 2388 959 1747 
Q 959 1106 1268 751 
Q 1578 397 2138 397 
Q 2388 397 2633 464 
Q 2878 531 3122 666 
L 3122 134 
Q 2881 22 2623 -34 
Q 2366 -91 2075 -91 
Q 1284 -91 818 406 
Q 353 903 353 1747 
Q 353 2603 823 3093 
Q 1294 3584 2113 3584 
Q 2378 3584 2631 3529 
Q 2884 3475 3122 3366 
z
" transform="scale(0.015625)"/>
       <path id="DejaVuSans-64" d="M 2906 2969 
L 2906 4863 
L 3481 4863 
L 3481 0 
L 2906 0 
L 2906 525 
Q 2725 213 2448 61 
Q 2172 -91 1784 -91 
Q 1150 -91 751 415 
Q 353 922 353 1747 
Q 353 2572 751 3078 
Q 1150 3584 1784 3584 
Q 2172 3584 2448 3432 
Q 2725 3281 2906 2969 
z
M 947 1747 
Q 947 1113 1208 752 
Q 1469 391 1925 391 
Q 2381 391 2643 752 
Q 2906 1113 2906 1747 
Q 2906 2381 2643 2742 
Q 2381 3103 1925 3103 
Q 1469 3103 1208 2742 
Q 947 2381 947 1747 
z
" transform="scale(0.015625)"/>
       <path id="DejaVuSans-29" d="M 513 4856 
L 1013 4856 
Q 1481 4119 1714 3412 
Q 1947 2706 1947 2009 
Q 1947 1309 1714 600 
Q 1481 -109 1013 -844 
L 513 -844 
Q 928 -128 1133 580 
Q 1338 1288 1338 2009 
Q 1338 2731 1133 3434 
Q 928 4138 513 4856 
z
" transform="scale(0.015625)"/>
      </defs>
      <use xlink:href="#DejaVuSans-45"/>
      <use xlink:href="#DejaVuSans-78" x="63.183594"/>
      <use xlink:href="#DejaVuSans-74" x="122.363281"/>
      <use xlink:href="#DejaVuSans-65" x="161.572266"/>
      <use xlink:href="#DejaVuSans-6e" x="223.095703"/>
      <use xlink:href="#DejaVuSans-73" x="286.474609"/>
      <use xlink:href="#DejaVuSans-69" x="338.574219"/>
      <use xlink:href="#DejaVuSans-6f" x="366.357422"/>
      <use xlink:href="#DejaVuSans-6e" x="427.539062"/>
      <use xlink:href="#DejaVuSans-20" x="490.917969"/>
      <use xlink:href="#DejaVuSans-4c" x="522.705078"/>
      <use xlink:href="#DejaVuSans-65" x="576.667969"/>
      <use xlink:href="#DejaVuSans-6e" x="638.191406"/>
      <use xlink:href="#DejaVuSans-67" x="701.570312"/>
      <use xlink:href="#DejaVuSans-74" x="765.046875"/>
      <use xlink:href="#DejaVuSans-68" x="804.255859"/>
      <use xlink:href="#DejaVuSans-20" x="867.634766"/>
      <use xlink:href="#DejaVuSans-28" x="899.421875"/>
      <use xlink:href="#DejaVuSans-61" x="938.435547"/>
      <use xlink:href="#DejaVuSans-6d" x="999.714844"/>
      <use xlink:href="#DejaVuSans-69" x="1097.126953"/>
      <use xlink:href="#DejaVuSans-6e" x="1124.910156"/>
      <use xlink:href="#DejaVuSans-6f" x="1188.289062"/>
      <use xlink:href="#DejaVuSans-20" x="1249.470703"/>
      <use xlink:href="#DejaVuSans-61" x="1281.257812"/>
      <use xlink:href="#DejaVuSans-63" x="1342.537109"/>
      <use xlink:href="#DejaVuSans-69" x="1397.517578"/>
      <use xlink:href="#DejaVuSans-64" x="1425.300781"/>
      <use xlink:href="#DejaVuSans-73" x="1488.777344"/>
      <use xlink:href="#DejaVuSans-29" x="1540.876953"/>
     </g>
    </g>
   </g>
   <g id="matplotlib.axis_2">
    <g id="ytick_1">
     <g id="line2d_10">
      <defs>
       <path id="mcf25fd14f8" d="M 0 0 
L -3.5 0 
" style="stroke: #000000; stroke-width: 0.8"/>
      </defs>
      <g>
       <use xlink:href="#mcf25fd14f8" x="90" y="384.48" style="stroke: #000000; stroke-width: 0.8"/>
      </g>
     </g>
     <g id="text_11">
      <!-- 0 -->
      <g transform="translate(72.62875 389.418984) scale(0.13 -0.13)">
       <use xlink:href="#DejaVuSans-30"/>
      </g>
     </g>
    </g>
    <g id="ytick_2">
     <g id="line2d_11">
      <g>
       <use xlink:href="#mcf25fd14f8" x="90" y="316.350968" style="stroke: #000000; stroke-width: 0.8"/>
      </g>
     </g>
     <g id="text_12">
      <!-- 20 -->
      <g transform="translate(64.3575 321.289952) scale(0.13 -0.13)">
       <use xlink:href="#DejaVuSans-32"/>
       <use xlink:href="#DejaVuSans-30" x="63.623047"/>
      </g>
     </g>
    </g>
    <g id="ytick_3">
     <g id="line2d_12">
      <g>
       <use xlink:href="#mcf25fd14f8" x="90" y="248.221935" style="stroke: #000000; stroke-width: 0.8"/>
      </g>
     </g>
     <g id="text_13">
      <!-- 40 -->
      <g transform="translate(64.3575 253.16092) scale(0.13 -0.13)">
       <defs>
        <path id="DejaVuSans-34" d="M 2419 4116 
L 825 1625 
L 2419 1625 
L 2419 4116 
z
M 2253 4666 
L 3047 4666 
L 3047 1625 
L 3713 1625 
L 3713 1100 
L 3047 1100 
L 3047 0 
L 2419 0 
L 2419 1100 
L 313 1100 
L 313 1709 
L 2253 4666 
z
" transform="scale(0.015625)"/>
       </defs>
       <use xlink:href="#DejaVuSans-34"/>
       <use xlink:href="#DejaVuSans-30" x="63.623047"/>
      </g>
     </g>
    </g>
    <g id="ytick_4">
     <g id="line2d_13">
      <g>
       <use xlink:href="#mcf25fd14f8" x="90" y="180.092903" style="stroke: #000000; stroke-width: 0.8"/>
      </g>
     </g>
     <g id="text_14">
      <!-- 60 -->
      <g transform="translate(64.3575 185.031888) scale(0.13 -0.13)">
       <defs>
        <path id="DejaVuSans-36" d="M 2113 2584 
Q 1688 2584 1439 2293 
Q 1191 2003 1191 1497 
Q 1191 994 1439 701 
Q 1688 409 2113 409 
Q 2538 409 2786 701 
Q 3034 994 3034 1497 
Q 3034 2003 2786 2293 
Q 2538 2584 2113 2584 
z
M 3366 4563 
L 3366 3988 
Q 3128 4100 2886 4159 
Q 2644 4219 2406 4219 
Q 1781 4219 1451 3797 
Q 1122 3375 1075 2522 
Q 1259 2794 1537 2939 
Q 1816 3084 2150 3084 
Q 2853 3084 3261 2657 
Q 3669 2231 3669 1497 
Q 3669 778 3244 343 
Q 2819 -91 2113 -91 
Q 1303 -91 875 529 
Q 447 1150 447 2328 
Q 447 3434 972 4092 
Q 1497 4750 2381 4750 
Q 2619 4750 2861 4703 
Q 3103 4656 3366 4563 
z
" transform="scale(0.015625)"/>
       </defs>
       <use xlink:href="#DejaVuSans-36"/>
       <use xlink:href="#DejaVuSans-30" x="63.623047"/>
      </g>
     </g>
    </g>
    <g id="ytick_5">
     <g id="line2d_14">
      <g>
       <use xlink:href="#mcf25fd14f8" x="90" y="111.963871" style="stroke: #000000; stroke-width: 0.8"/>
      </g>
     </g>
     <g id="text_15">
      <!-- 80 -->
      <g transform="translate(64.3575 116.902855) scale(0.13 -0.13)">
       <defs>
        <path id="DejaVuSans-38" d="M 2034 2216 
Q 1584 2216 1326 1975 
Q 1069 1734 1069 1313 
Q 1069 891 1326 650 
Q 1584 409 2034 409 
Q 2484 409 2743 651 
Q 3003 894 3003 1313 
Q 3003 1734 2745 1975 
Q 2488 2216 2034 2216 
z
M 1403 2484 
Q 997 2584 770 2862 
Q 544 3141 544 3541 
Q 544 4100 942 4425 
Q 1341 4750 2034 4750 
Q 2731 4750 3128 4425 
Q 3525 4100 3525 3541 
Q 3525 3141 3298 2862 
Q 3072 2584 2669 2484 
Q 3125 2378 3379 2068 
Q 3634 1759 3634 1313 
Q 3634 634 3220 271 
Q 2806 -91 2034 -91 
Q 1263 -91 848 271 
Q 434 634 434 1313 
Q 434 1759 690 2068 
Q 947 2378 1403 2484 
z
M 1172 3481 
Q 1172 3119 1398 2916 
Q 1625 2713 2034 2713 
Q 2441 2713 2670 2916 
Q 2900 3119 2900 3481 
Q 2900 3844 2670 4047 
Q 2441 4250 2034 4250 
Q 1625 4250 1398 4047 
Q 1172 3844 1172 3481 
z
" transform="scale(0.015625)"/>
       </defs>
       <use xlink:href="#DejaVuSans-38"/>
       <use xlink:href="#DejaVuSans-30" x="63.623047"/>
      </g>
     </g>
    </g>
   </g>
   <g id="patch_33">
    <path d="M 90 384.48 
L 90 51.84 
" style="fill: none; stroke: #000000; stroke-width: 0.8; stroke-linejoin: miter; stroke-linecap: square"/>
   </g>
   <g id="patch_34">
    <path d="M 90 384.48 
L 648 384.48 
" style="fill: none; stroke: #000000; stroke-width: 0.8; stroke-linejoin: miter; stroke-linecap: square"/>
   </g>
   <g id="legend_1">
    <g id="patch_35">
     <path d="M 633.7 68.74 
L 638.9 68.74 
Q 641.5 68.74 641.5 66.14 
L 641.5 60.94 
Q 641.5 58.34 638.9 58.34 
L 633.7 58.34 
Q 631.1 58.34 631.1 60.94 
L 631.1 66.14 
Q 631.1 68.74 633.7 68.74 
z
" style="fill: #ffffff; opacity: 0.8; stroke: #cccccc; stroke-width: 0.24; stroke-linejoin: miter"/>
    </g>
   </g>
  </g>
 </g>
 <defs>
  <clipPath id="p8499a1f378">
   <rect x="90" y="51.84" width="558" height="332.64"/>
  </clipPath>
 </defs>
</svg>
