<?xml version="1.0" encoding="utf-8" standalone="no"?>
<!DOCTYPE svg PUBLIC "-//W3C//DTD SVG 1.1//EN"
  "http://www.w3.org/Graphics/SVG/1.1/DTD/svg11.dtd">
<svg xmlns:xlink="http://www.w3.org/1999/xlink" width="856.825625pt" height="352.954375pt" viewBox="0 0 856.825625 352.954375" xmlns="http://www.w3.org/2000/svg" version="1.1">
 <metadata>
  <rdf:RDF xmlns:dc="http://purl.org/dc/elements/1.1/" xmlns:cc="http://creativecommons.org/ns#" xmlns:rdf="http://www.w3.org/1999/02/22-rdf-syntax-ns#">
   <cc:Work>
    <dc:type rdf:resource="http://purl.org/dc/dcmitype/StillImage"/>
    <dc:date>2026-01-13T17:05:56.516978</dc:date>
    <dc:format>image/svg+xml</dc:format>
    <dc:creator>
     <cc:Agent>
      <dc:title>Matplotlib v3.9.2, https://matplotlib.org/</dc:title>
     </cc:Agent>
    </dc:creator>
   </cc:Work>
  </rdf:RDF>
 </metadata>
 <defs>
  <style type="text/css">*{stroke-linejoin: round; stroke-linecap: butt}</style>
 </defs>
 <g id="figure_1">
  <g id="patch_1">
   <path d="M -0 352.954375 
L 856.825625 352.954375 
L 856.825625 0 
L -0 0 
z
" style="fill: #ffffff"/>
  </g>
  <g id="axes_1">
   <g id="patch_2">
    <path d="M 46.965625 315.398125 
L 429.385625 315.398125 
L 429.385625 22.318125 
L 46.965625 22.318125 
z
" style="fill: #ffffff"/>
   </g>
   <g id="patch_3">
    <path d="M 64.348352 315.398125 
L 109.414682 315.398125 
L 109.414682 36.274315 
L 64.348352 36.274315 
z
" clip-path="url(#p6b79c3847a)" style="fill: #95a5a6"/>
   </g>
   <g id="patch_4">
    <path d="M 193.109295 315.398125 
L 238.175625 315.398125 
L 238.175625 40.704852 
L 193.109295 40.704852 
z
" clip-path="url(#p6b79c3847a)" style="fill: #95a5a6"/>
   </g>
   <g id="patch_5">
    <path d="M 321.870238 315.398125 
L 366.936568 315.398125 
L 366.936568 36.274315 
L 321.870238 36.274315 
z
" clip-path="url(#p6b79c3847a)" style="fill: #95a5a6"/>
   </g>
   <g id="patch_6">
    <path d="M 109.414682 315.398125 
L 154.481012 315.398125 
L 154.481012 315.398125 
L 109.414682 315.398125 
z
" clip-path="url(#p6b79c3847a)" style="fill: #e74c3c"/>
   </g>
   <g id="patch_7">
    <path d="M 238.175625 315.398125 
L 283.241955 315.398125 
L 283.241955 315.398125 
L 238.175625 315.398125 
z
" clip-path="url(#p6b79c3847a)" style="fill: #e74c3c"/>
   </g>
   <g id="patch_8">
    <path d="M 366.936568 315.398125 
L 412.002898 315.398125 
L 412.002898 311.410642 
L 366.936568 311.410642 
z
" clip-path="url(#p6b79c3847a)" style="fill: #e74c3c"/>
   </g>
   <g id="matplotlib.axis_1">
    <g id="xtick_1">
     <g id="line2d_1">
      <defs>
       <path id="m410adc7fb0" d="M 0 0 
L 0 3.5 
" style="stroke: #000000; stroke-width: 0.8"/>
      </defs>
      <g>
       <use xlink:href="#m410adc7fb0" x="109.414682" y="315.398125" style="stroke: #000000; stroke-width: 0.8"/>
      </g>
     </g>
     <g id="text_1">
      <!-- all -->
      <g transform="translate(103.572495 329.996562) scale(0.1 -0.1)">
       <defs>
        <path id="DejaVuSans-61" d="M 2194 1759 
Q 1497 1759 1228 1600 
Q 959 1441 959 1056 
Q 959 750 1161 570 
Q 1363 391 1709 391 
Q 2188 391 2477 730 
Q 2766 1069 2766 1631 
L 2766 1759 
L 2194 1759 
z
M 3341 1997 
L 3341 0 
L 2766 0 
L 2766 531 
Q 2569 213 2275 61 
Q 1981 -91 1556 -91 
Q 1019 -91 701 211 
Q 384 513 384 1019 
Q 384 1609 779 1909 
Q 1175 2209 1959 2209 
L 2766 2209 
L 2766 2266 
Q 2766 2663 2505 2880 
Q 2244 3097 1772 3097 
Q 1472 3097 1187 3025 
Q 903 2953 641 2809 
L 641 3341 
Q 956 3463 1253 3523 
Q 1550 3584 1831 3584 
Q 2591 3584 2966 3190 
Q 3341 2797 3341 1997 
z
" transform="scale(0.015625)"/>
        <path id="DejaVuSans-6c" d="M 603 4863 
L 1178 4863 
L 1178 0 
L 603 0 
L 603 4863 
z
" transform="scale(0.015625)"/>
       </defs>
       <use xlink:href="#DejaVuSans-61"/>
       <use xlink:href="#DejaVuSans-6c" x="61.279297"/>
       <use xlink:href="#DejaVuSans-6c" x="89.0625"/>
      </g>
     </g>
    </g>
    <g id="xtick_2">
     <g id="line2d_2">
      <g>
       <use xlink:href="#m410adc7fb0" x="238.175625" y="315.398125" style="stroke: #000000; stroke-width: 0.8"/>
      </g>
     </g>
     <g id="text_2">
      <!-- experimental -->
      <g transform="translate(205.002969 329.996562) scale(0.1 -0.1)">
       <defs>
        <path id="DejaVuSans-65" d="M 3597 1894 
L 3597 1613 
L 953 1613 
Q 991 1019 1311 708 
Q 1631 397 2203 397 
Q 2534 397 2845 478 
Q 3156 559 3463 722 
L 3463 178 
Q 3153 47 2828 -22 
Q 2503 -91 2169 -91 
Q 1331 -91 842 396 
Q 353 884 353 1716 
Q 353 2575 817 3079 
Q 1281 3584 2069 3584 
Q 2775 3584 3186 3129 
Q 3597 2675 3597 1894 
z
M 3022 2063 
Q 3016 2534 2758 2815 
Q 2500 3097 2075 3097 
Q 1594 3097 1305 2825 
Q 1016 2553 972 2059 
L 3022 2063 
z
" transform="scale(0.015625)"/>
        <path id="DejaVuSans-78" d="M 3513 3500 
L 2247 1797 
L 3578 0 
L 2900 0 
L 1881 1375 
L 863 0 
L 184 0 
L 1544 1831 
L 300 3500 
L 978 3500 
L 1906 2253 
L 2834 3500 
L 3513 3500 
z
" transform="scale(0.015625)"/>
        <path id="DejaVuSans-70" d="M 1159 525 
L 1159 -1331 
L 581 -1331 
L 581 3500 
L 1159 3500 
L 1159 2969 
Q 1341 3281 1617 3432 
Q 1894 3584 2278 3584 
Q 2916 3584 3314 3078 
Q 3713 2572 3713 1747 
Q 3713 922 3314 415 
Q 2916 -91 2278 -91 
Q 1894 -91 1617 61 
Q 1341 213 1159 525 
z
M 3116 1747 
Q 3116 2381 2855 2742 
Q 2594 3103 2138 3103 
Q 1681 3103 1420 2742 
Q 1159 2381 1159 1747 
Q 1159 1113 1420 752 
Q 1681 391 2138 391 
Q 2594 391 2855 752 
Q 3116 1113 3116 1747 
z
" transform="scale(0.015625)"/>
        <path id="DejaVuSans-72" d="M 2631 2963 
Q 2534 3019 2420 3045 
Q 2306 3072 2169 3072 
Q 1681 3072 1420 2755 
Q 1159 2438 1159 1844 
L 1159 0 
L 581 0 
L 581 3500 
L 1159 3500 
L 1159 2956 
Q 1341 3275 1631 3429 
Q 1922 3584 2338 3584 
Q 2397 3584 2469 3576 
Q 2541 3569 2628 3553 
L 2631 2963 
z
" transform="scale(0.015625)"/>
        <path id="DejaVuSans-69" d="M 603 3500 
L 1178 3500 
L 1178 0 
L 603 0 
L 603 3500 
z
M 603 4863 
L 1178 4863 
L 1178 4134 
L 603 4134 
L 603 4863 
z
" transform="scale(0.015625)"/>
        <path id="DejaVuSans-6d" d="M 3328 2828 
Q 3544 3216 3844 3400 
Q 4144 3584 4550 3584 
Q 5097 3584 5394 3201 
Q 5691 2819 5691 2113 
L 5691 0 
L 5113 0 
L 5113 2094 
Q 5113 2597 4934 2840 
Q 4756 3084 4391 3084 
Q 3944 3084 3684 2787 
Q 3425 2491 3425 1978 
L 3425 0 
L 2847 0 
L 2847 2094 
Q 2847 2600 2669 2842 
Q 2491 3084 2119 3084 
Q 1678 3084 1418 2786 
Q 1159 2488 1159 1978 
L 1159 0 
L 581 0 
L 581 3500 
L 1159 3500 
L 1159 2956 
Q 1356 3278 1631 3431 
Q 1906 3584 2284 3584 
Q 2666 3584 2933 3390 
Q 3200 3197 3328 2828 
z
" transform="scale(0.015625)"/>
        <path id="DejaVuSans-6e" d="M 3513 2113 
L 3513 0 
L 2938 0 
L 2938 2094 
Q 2938 2591 2744 2837 
Q 2550 3084 2163 3084 
Q 1697 3084 1428 2787 
Q 1159 2491 1159 1978 
L 1159 0 
L 581 0 
L 581 3500 
L 1159 3500 
L 1159 2956 
Q 1366 3272 1645 3428 
Q 1925 3584 2291 3584 
Q 2894 3584 3203 3211 
Q 3513 2838 3513 2113 
z
" transform="scale(0.015625)"/>
        <path id="DejaVuSans-74" d="M 1172 4494 
L 1172 3500 
L 2356 3500 
L 2356 3053 
L 1172 3053 
L 1172 1153 
Q 1172 725 1289 603 
Q 1406 481 1766 481 
L 2356 481 
L 2356 0 
L 1766 0 
Q 1100 0 847 248 
Q 594 497 594 1153 
L 594 3053 
L 172 3053 
L 172 3500 
L 594 3500 
L 594 4494 
L 1172 4494 
z
" transform="scale(0.015625)"/>
       </defs>
       <use xlink:href="#DejaVuSans-65"/>
       <use xlink:href="#DejaVuSans-78" x="59.773438"/>
       <use xlink:href="#DejaVuSans-70" x="118.953125"/>
       <use xlink:href="#DejaVuSans-65" x="182.429688"/>
       <use xlink:href="#DejaVuSans-72" x="243.953125"/>
       <use xlink:href="#DejaVuSans-69" x="285.066406"/>
       <use xlink:href="#DejaVuSans-6d" x="312.849609"/>
       <use xlink:href="#DejaVuSans-65" x="410.261719"/>
       <use xlink:href="#DejaVuSans-6e" x="471.785156"/>
       <use xlink:href="#DejaVuSans-74" x="535.164062"/>
       <use xlink:href="#DejaVuSans-61" x="574.373047"/>
       <use xlink:href="#DejaVuSans-6c" x="635.652344"/>
      </g>
     </g>
    </g>
    <g id="xtick_3">
     <g id="line2d_3">
      <g>
       <use xlink:href="#m410adc7fb0" x="366.936568" y="315.398125" style="stroke: #000000; stroke-width: 0.8"/>
      </g>
     </g>
     <g id="text_3">
      <!-- hmm_only -->
      <g transform="translate(340.95063 329.996562) scale(0.1 -0.1)">
       <defs>
        <path id="DejaVuSans-68" d="M 3513 2113 
L 3513 0 
L 2938 0 
L 2938 2094 
Q 2938 2591 2744 2837 
Q 2550 3084 2163 3084 
Q 1697 3084 1428 2787 
Q 1159 2491 1159 1978 
L 1159 0 
L 581 0 
L 581 4863 
L 1159 4863 
L 1159 2956 
Q 1366 3272 1645 3428 
Q 1925 3584 2291 3584 
Q 2894 3584 3203 3211 
Q 3513 2838 3513 2113 
z
" transform="scale(0.015625)"/>
        <path id="DejaVuSans-5f" d="M 3263 -1063 
L 3263 -1509 
L -63 -1509 
L -63 -1063 
L 3263 -1063 
z
" transform="scale(0.015625)"/>
        <path id="DejaVuSans-6f" d="M 1959 3097 
Q 1497 3097 1228 2736 
Q 959 2375 959 1747 
Q 959 1119 1226 758 
Q 1494 397 1959 397 
Q 2419 397 2687 759 
Q 2956 1122 2956 1747 
Q 2956 2369 2687 2733 
Q 2419 3097 1959 3097 
z
M 1959 3584 
Q 2709 3584 3137 3096 
Q 3566 2609 3566 1747 
Q 3566 888 3137 398 
Q 2709 -91 1959 -91 
Q 1206 -91 779 398 
Q 353 888 353 1747 
Q 353 2609 779 3096 
Q 1206 3584 1959 3584 
z
" transform="scale(0.015625)"/>
        <path id="DejaVuSans-79" d="M 2059 -325 
Q 1816 -950 1584 -1140 
Q 1353 -1331 966 -1331 
L 506 -1331 
L 506 -850 
L 844 -850 
Q 1081 -850 1212 -737 
Q 1344 -625 1503 -206 
L 1606 56 
L 191 3500 
L 800 3500 
L 1894 763 
L 2988 3500 
L 3597 3500 
L 2059 -325 
z
" transform="scale(0.015625)"/>
       </defs>
       <use xlink:href="#DejaVuSans-68"/>
       <use xlink:href="#DejaVuSans-6d" x="63.378906"/>
       <use xlink:href="#DejaVuSans-6d" x="160.791016"/>
       <use xlink:href="#DejaVuSans-5f" x="258.203125"/>
       <use xlink:href="#DejaVuSans-6f" x="308.203125"/>
       <use xlink:href="#DejaVuSans-6e" x="369.384766"/>
       <use xlink:href="#DejaVuSans-6c" x="432.763672"/>
       <use xlink:href="#DejaVuSans-79" x="460.546875"/>
      </g>
     </g>
    </g>
   </g>
   <g id="matplotlib.axis_2">
    <g id="ytick_1">
     <g id="line2d_4">
      <defs>
       <path id="m4e1b259f53" d="M 0 0 
L -3.5 0 
" style="stroke: #000000; stroke-width: 0.8"/>
      </defs>
      <g>
       <use xlink:href="#m4e1b259f53" x="46.965625" y="315.398125" style="stroke: #000000; stroke-width: 0.8"/>
      </g>
     </g>
     <g id="text_4">
      <!-- 0 -->
      <g transform="translate(33.603125 319.197344) scale(0.1 -0.1)">
       <defs>
        <path id="DejaVuSans-30" d="M 2034 4250 
Q 1547 4250 1301 3770 
Q 1056 3291 1056 2328 
Q 1056 1369 1301 889 
Q 1547 409 2034 409 
Q 2525 409 2770 889 
Q 3016 1369 3016 2328 
Q 3016 3291 2770 3770 
Q 2525 4250 2034 4250 
z
M 2034 4750 
Q 2819 4750 3233 4129 
Q 3647 3509 3647 2328 
Q 3647 1150 3233 529 
Q 2819 -91 2034 -91 
Q 1250 -91 836 529 
Q 422 1150 422 2328 
Q 422 3509 836 4129 
Q 1250 4750 2034 4750 
z
" transform="scale(0.015625)"/>
       </defs>
       <use xlink:href="#DejaVuSans-30"/>
      </g>
     </g>
    </g>
    <g id="ytick_2">
     <g id="line2d_5">
      <g>
       <use xlink:href="#m4e1b259f53" x="46.965625" y="271.092758" style="stroke: #000000; stroke-width: 0.8"/>
      </g>
     </g>
     <g id="text_5">
      <!-- 100 -->
      <g transform="translate(20.878125 274.891977) scale(0.1 -0.1)">
       <defs>
        <path id="DejaVuSans-31" d="M 794 531 
L 1825 531 
L 1825 4091 
L 703 3866 
L 703 4441 
L 1819 4666 
L 2450 4666 
L 2450 531 
L 3481 531 
L 3481 0 
L 794 0 
L 794 531 
z
" transform="scale(0.015625)"/>
       </defs>
       <use xlink:href="#DejaVuSans-31"/>
       <use xlink:href="#DejaVuSans-30" x="63.623047"/>
       <use xlink:href="#DejaVuSans-30" x="127.246094"/>
      </g>
     </g>
    </g>
    <g id="ytick_3">
     <g id="line2d_6">
      <g>
       <use xlink:href="#m4e1b259f53" x="46.965625" y="226.787392" style="stroke: #000000; stroke-width: 0.8"/>
      </g>
     </g>
     <g id="text_6">
      <!-- 200 -->
      <g transform="translate(20.878125 230.586611) scale(0.1 -0.1)">
       <defs>
        <path id="DejaVuSans-32" d="M 1228 531 
L 3431 531 
L 3431 0 
L 469 0 
L 469 531 
Q 828 903 1448 1529 
Q 2069 2156 2228 2338 
Q 2531 2678 2651 2914 
Q 2772 3150 2772 3378 
Q 2772 3750 2511 3984 
Q 2250 4219 1831 4219 
Q 1534 4219 1204 4116 
Q 875 4013 500 3803 
L 500 4441 
Q 881 4594 1212 4672 
Q 1544 4750 1819 4750 
Q 2544 4750 2975 4387 
Q 3406 4025 3406 3419 
Q 3406 3131 3298 2873 
Q 3191 2616 2906 2266 
Q 2828 2175 2409 1742 
Q 1991 1309 1228 531 
z
" transform="scale(0.015625)"/>
       </defs>
       <use xlink:href="#DejaVuSans-32"/>
       <use xlink:href="#DejaVuSans-30" x="63.623047"/>
       <use xlink:href="#DejaVuSans-30" x="127.246094"/>
      </g>
     </g>
    </g>
    <g id="ytick_4">
     <g id="line2d_7">
      <g>
       <use xlink:href="#m4e1b259f53" x="46.965625" y="182.482025" style="stroke: #000000; stroke-width: 0.8"/>
      </g>
     </g>
     <g id="text_7">
      <!-- 300 -->
      <g transform="translate(20.878125 186.281244) scale(0.1 -0.1)">
       <defs>
        <path id="DejaVuSans-33" d="M 2597 2516 
Q 3050 2419 3304 2112 
Q 3559 1806 3559 1356 
Q 3559 666 3084 287 
Q 2609 -91 1734 -91 
Q 1441 -91 1130 -33 
Q 819 25 488 141 
L 488 750 
Q 750 597 1062 519 
Q 1375 441 1716 441 
Q 2309 441 2620 675 
Q 2931 909 2931 1356 
Q 2931 1769 2642 2001 
Q 2353 2234 1838 2234 
L 1294 2234 
L 1294 2753 
L 1863 2753 
Q 2328 2753 2575 2939 
Q 2822 3125 2822 3475 
Q 2822 3834 2567 4026 
Q 2313 4219 1838 4219 
Q 1578 4219 1281 4162 
Q 984 4106 628 3988 
L 628 4550 
Q 988 4650 1302 4700 
Q 1616 4750 1894 4750 
Q 2613 4750 3031 4423 
Q 3450 4097 3450 3541 
Q 3450 3153 3228 2886 
Q 3006 2619 2597 2516 
z
" transform="scale(0.015625)"/>
       </defs>
       <use xlink:href="#DejaVuSans-33"/>
       <use xlink:href="#DejaVuSans-30" x="63.623047"/>
       <use xlink:href="#DejaVuSans-30" x="127.246094"/>
      </g>
     </g>
    </g>
    <g id="ytick_5">
     <g id="line2d_8">
      <g>
       <use xlink:href="#m4e1b259f53" x="46.965625" y="138.176659" style="stroke: #000000; stroke-width: 0.8"/>
      </g>
     </g>
     <g id="text_8">
      <!-- 400 -->
      <g transform="translate(20.878125 141.975877) scale(0.1 -0.1)">
       <defs>
        <path id="DejaVuSans-34" d="M 2419 4116 
L 825 1625 
L 2419 1625 
L 2419 4116 
z
M 2253 4666 
L 3047 4666 
L 3047 1625 
L 3713 1625 
L 3713 1100 
L 3047 1100 
L 3047 0 
L 2419 0 
L 2419 1100 
L 313 1100 
L 313 1709 
L 2253 4666 
z
" transform="scale(0.015625)"/>
       </defs>
       <use xlink:href="#DejaVuSans-34"/>
       <use xlink:href="#DejaVuSans-30" x="63.623047"/>
       <use xlink:href="#DejaVuSans-30" x="127.246094"/>
      </g>
     </g>
    </g>
    <g id="ytick_6">
     <g id="line2d_9">
      <g>
       <use xlink:href="#m4e1b259f53" x="46.965625" y="93.871292" style="stroke: #000000; stroke-width: 0.8"/>
      </g>
     </g>
     <g id="text_9">
      <!-- 500 -->
      <g transform="translate(20.878125 97.670511) scale(0.1 -0.1)">
       <defs>
        <path id="DejaVuSans-35" d="M 691 4666 
L 3169 4666 
L 3169 4134 
L 1269 4134 
L 1269 2991 
Q 1406 3038 1543 3061 
Q 1681 3084 1819 3084 
Q 2600 3084 3056 2656 
Q 3513 2228 3513 1497 
Q 3513 744 3044 326 
Q 2575 -91 1722 -91 
Q 1428 -91 1123 -41 
Q 819 9 494 109 
L 494 744 
Q 775 591 1075 516 
Q 1375 441 1709 441 
Q 2250 441 2565 725 
Q 2881 1009 2881 1497 
Q 2881 1984 2565 2268 
Q 2250 2553 1709 2553 
Q 1456 2553 1204 2497 
Q 953 2441 691 2322 
L 691 4666 
z
" transform="scale(0.015625)"/>
       </defs>
       <use xlink:href="#DejaVuSans-35"/>
       <use xlink:href="#DejaVuSans-30" x="63.623047"/>
       <use xlink:href="#DejaVuSans-30" x="127.246094"/>
      </g>
     </g>
    </g>
    <g id="ytick_7">
     <g id="line2d_10">
      <g>
       <use xlink:href="#m4e1b259f53" x="46.965625" y="49.565925" style="stroke: #000000; stroke-width: 0.8"/>
      </g>
     </g>
     <g id="text_10">
      <!-- 600 -->
      <g transform="translate(20.878125 53.365144) scale(0.1 -0.1)">
       <defs>
        <path id="DejaVuSans-36" d="M 2113 2584 
Q 1688 2584 1439 2293 
Q 1191 2003 1191 1497 
Q 1191 994 1439 701 
Q 1688 409 2113 409 
Q 2538 409 2786 701 
Q 3034 994 3034 1497 
Q 3034 2003 2786 2293 
Q 2538 2584 2113 2584 
z
M 3366 4563 
L 3366 3988 
Q 3128 4100 2886 4159 
Q 2644 4219 2406 4219 
Q 1781 4219 1451 3797 
Q 1122 3375 1075 2522 
Q 1259 2794 1537 2939 
Q 1816 3084 2150 3084 
Q 2853 3084 3261 2657 
Q 3669 2231 3669 1497 
Q 3669 778 3244 343 
Q 2819 -91 2113 -91 
Q 1303 -91 875 529 
Q 447 1150 447 2328 
Q 447 3434 972 4092 
Q 1497 4750 2381 4750 
Q 2619 4750 2861 4703 
Q 3103 4656 3366 4563 
z
" transform="scale(0.015625)"/>
       </defs>
       <use xlink:href="#DejaVuSans-36"/>
       <use xlink:href="#DejaVuSans-30" x="63.623047"/>
       <use xlink:href="#DejaVuSans-30" x="127.246094"/>
      </g>
     </g>
    </g>
    <g id="text_11">
     <!-- Count -->
     <g transform="translate(14.798437 183.706562) rotate(-90) scale(0.1 -0.1)">
      <defs>
       <path id="DejaVuSans-43" d="M 4122 4306 
L 4122 3641 
Q 3803 3938 3442 4084 
Q 3081 4231 2675 4231 
Q 1875 4231 1450 3742 
Q 1025 3253 1025 2328 
Q 1025 1406 1450 917 
Q 1875 428 2675 428 
Q 3081 428 3442 575 
Q 3803 722 4122 1019 
L 4122 359 
Q 3791 134 3420 21 
Q 3050 -91 2638 -91 
Q 1578 -91 968 557 
Q 359 1206 359 2328 
Q 359 3453 968 4101 
Q 1578 4750 2638 4750 
Q 3056 4750 3426 4639 
Q 3797 4528 4122 4306 
z
" transform="scale(0.015625)"/>
       <path id="DejaVuSans-75" d="M 544 1381 
L 544 3500 
L 1119 3500 
L 1119 1403 
Q 1119 906 1312 657 
Q 1506 409 1894 409 
Q 2359 409 2629 706 
Q 2900 1003 2900 1516 
L 2900 3500 
L 3475 3500 
L 3475 0 
L 2900 0 
L 2900 538 
Q 2691 219 2414 64 
Q 2138 -91 1772 -91 
Q 1169 -91 856 284 
Q 544 659 544 1381 
z
M 1991 3584 
L 1991 3584 
z
" transform="scale(0.015625)"/>
      </defs>
      <use xlink:href="#DejaVuSans-43"/>
      <use xlink:href="#DejaVuSans-6f" x="69.824219"/>
      <use xlink:href="#DejaVuSans-75" x="131.005859"/>
      <use xlink:href="#DejaVuSans-6e" x="194.384766"/>
      <use xlink:href="#DejaVuSans-74" x="257.763672"/>
     </g>
    </g>
   </g>
   <g id="patch_9">
    <path d="M 46.965625 315.398125 
L 46.965625 22.318125 
" style="fill: none; stroke: #000000; stroke-linejoin: miter; stroke-linecap: square"/>
   </g>
   <g id="patch_10">
    <path d="M 429.385625 315.398125 
L 429.385625 22.318125 
" style="fill: none; stroke: #000000; stroke-linejoin: miter; stroke-linecap: square"/>
   </g>
   <g id="patch_11">
    <path d="M 46.965625 315.398125 
L 429.385625 315.398125 
" style="fill: none; stroke: #000000; stroke-linejoin: miter; stroke-linecap: square"/>
   </g>
   <g id="patch_12">
    <path d="M 46.965625 22.318125 
L 429.385625 22.318125 
" style="fill: none; stroke: #000000; stroke-linejoin: miter; stroke-linecap: square"/>
   </g>
   <g id="text_12">
    <!-- 0.0% -->
    <g transform="translate(120.515738 313.083353) scale(0.09 -0.09)">
     <defs>
      <path id="DejaVuSans-2e" d="M 684 794 
L 1344 794 
L 1344 0 
L 684 0 
L 684 794 
z
" transform="scale(0.015625)"/>
      <path id="DejaVuSans-25" d="M 4653 2053 
Q 4381 2053 4226 1822 
Q 4072 1591 4072 1178 
Q 4072 772 4226 539 
Q 4381 306 4653 306 
Q 4919 306 5073 539 
Q 5228 772 5228 1178 
Q 5228 1588 5073 1820 
Q 4919 2053 4653 2053 
z
M 4653 2450 
Q 5147 2450 5437 2106 
Q 5728 1763 5728 1178 
Q 5728 594 5436 251 
Q 5144 -91 4653 -91 
Q 4153 -91 3862 251 
Q 3572 594 3572 1178 
Q 3572 1766 3864 2108 
Q 4156 2450 4653 2450 
z
M 1428 4353 
Q 1159 4353 1004 4120 
Q 850 3888 850 3481 
Q 850 3069 1003 2837 
Q 1156 2606 1428 2606 
Q 1700 2606 1854 2837 
Q 2009 3069 2009 3481 
Q 2009 3884 1853 4118 
Q 1697 4353 1428 4353 
z
M 4250 4750 
L 4750 4750 
L 1831 -91 
L 1331 -91 
L 4250 4750 
z
M 1428 4750 
Q 1922 4750 2215 4408 
Q 2509 4066 2509 3481 
Q 2509 2891 2217 2550 
Q 1925 2209 1428 2209 
Q 931 2209 642 2551 
Q 353 2894 353 3481 
Q 353 4063 643 4406 
Q 934 4750 1428 4750 
z
" transform="scale(0.015625)"/>
     </defs>
     <use xlink:href="#DejaVuSans-30"/>
     <use xlink:href="#DejaVuSans-2e" x="63.623047"/>
     <use xlink:href="#DejaVuSans-30" x="95.410156"/>
     <use xlink:href="#DejaVuSans-25" x="159.033203"/>
    </g>
   </g>
   <g id="text_13">
    <!-- 0.0% -->
    <g transform="translate(249.276681 313.083353) scale(0.09 -0.09)">
     <use xlink:href="#DejaVuSans-30"/>
     <use xlink:href="#DejaVuSans-2e" x="63.623047"/>
     <use xlink:href="#DejaVuSans-30" x="95.410156"/>
     <use xlink:href="#DejaVuSans-25" x="159.033203"/>
    </g>
   </g>
   <g id="text_14">
    <!-- 1.4% -->
    <g transform="translate(378.037623 309.09587) scale(0.09 -0.09)">
     <use xlink:href="#DejaVuSans-31"/>
     <use xlink:href="#DejaVuSans-2e" x="63.623047"/>
     <use xlink:href="#DejaVuSans-34" x="95.410156"/>
     <use xlink:href="#DejaVuSans-25" x="159.033203"/>
    </g>
   </g>
   <g id="text_15">
    <!-- Significant Correlations by Subset -->
    <g transform="translate(136.632187 16.318125) scale(0.12 -0.12)">
     <defs>
      <path id="DejaVuSans-53" d="M 3425 4513 
L 3425 3897 
Q 3066 4069 2747 4153 
Q 2428 4238 2131 4238 
Q 1616 4238 1336 4038 
Q 1056 3838 1056 3469 
Q 1056 3159 1242 3001 
Q 1428 2844 1947 2747 
L 2328 2669 
Q 3034 2534 3370 2195 
Q 3706 1856 3706 1288 
Q 3706 609 3251 259 
Q 2797 -91 1919 -91 
Q 1588 -91 1214 -16 
Q 841 59 441 206 
L 441 856 
Q 825 641 1194 531 
Q 1563 422 1919 422 
Q 2459 422 2753 634 
Q 3047 847 3047 1241 
Q 3047 1584 2836 1778 
Q 2625 1972 2144 2069 
L 1759 2144 
Q 1053 2284 737 2584 
Q 422 2884 422 3419 
Q 422 4038 858 4394 
Q 1294 4750 2059 4750 
Q 2388 4750 2728 4690 
Q 3069 4631 3425 4513 
z
" transform="scale(0.015625)"/>
      <path id="DejaVuSans-67" d="M 2906 1791 
Q 2906 2416 2648 2759 
Q 2391 3103 1925 3103 
Q 1463 3103 1205 2759 
Q 947 2416 947 1791 
Q 947 1169 1205 825 
Q 1463 481 1925 481 
Q 2391 481 2648 825 
Q 2906 1169 2906 1791 
z
M 3481 434 
Q 3481 -459 3084 -895 
Q 2688 -1331 1869 -1331 
Q 1566 -1331 1297 -1286 
Q 1028 -1241 775 -1147 
L 775 -588 
Q 1028 -725 1275 -790 
Q 1522 -856 1778 -856 
Q 2344 -856 2625 -561 
Q 2906 -266 2906 331 
L 2906 616 
Q 2728 306 2450 153 
Q 2172 0 1784 0 
Q 1141 0 747 490 
Q 353 981 353 1791 
Q 353 2603 747 3093 
Q 1141 3584 1784 3584 
Q 2172 3584 2450 3431 
Q 2728 3278 2906 2969 
L 2906 3500 
L 3481 3500 
L 3481 434 
z
" transform="scale(0.015625)"/>
      <path id="DejaVuSans-66" d="M 2375 4863 
L 2375 4384 
L 1825 4384 
Q 1516 4384 1395 4259 
Q 1275 4134 1275 3809 
L 1275 3500 
L 2222 3500 
L 2222 3053 
L 1275 3053 
L 1275 0 
L 697 0 
L 697 3053 
L 147 3053 
L 147 3500 
L 697 3500 
L 697 3744 
Q 697 4328 969 4595 
Q 1241 4863 1831 4863 
L 2375 4863 
z
" transform="scale(0.015625)"/>
      <path id="DejaVuSans-63" d="M 3122 3366 
L 3122 2828 
Q 2878 2963 2633 3030 
Q 2388 3097 2138 3097 
Q 1578 3097 1268 2742 
Q 959 2388 959 1747 
Q 959 1106 1268 751 
Q 1578 397 2138 397 
Q 2388 397 2633 464 
Q 2878 531 3122 666 
L 3122 134 
Q 2881 22 2623 -34 
Q 2366 -91 2075 -91 
Q 1284 -91 818 406 
Q 353 903 353 1747 
Q 353 2603 823 3093 
Q 1294 3584 2113 3584 
Q 2378 3584 2631 3529 
Q 2884 3475 3122 3366 
z
" transform="scale(0.015625)"/>
      <path id="DejaVuSans-20" transform="scale(0.015625)"/>
      <path id="DejaVuSans-73" d="M 2834 3397 
L 2834 2853 
Q 2591 2978 2328 3040 
Q 2066 3103 1784 3103 
Q 1356 3103 1142 2972 
Q 928 2841 928 2578 
Q 928 2378 1081 2264 
Q 1234 2150 1697 2047 
L 1894 2003 
Q 2506 1872 2764 1633 
Q 3022 1394 3022 966 
Q 3022 478 2636 193 
Q 2250 -91 1575 -91 
Q 1294 -91 989 -36 
Q 684 19 347 128 
L 347 722 
Q 666 556 975 473 
Q 1284 391 1588 391 
Q 1994 391 2212 530 
Q 2431 669 2431 922 
Q 2431 1156 2273 1281 
Q 2116 1406 1581 1522 
L 1381 1569 
Q 847 1681 609 1914 
Q 372 2147 372 2553 
Q 372 3047 722 3315 
Q 1072 3584 1716 3584 
Q 2034 3584 2315 3537 
Q 2597 3491 2834 3397 
z
" transform="scale(0.015625)"/>
      <path id="DejaVuSans-62" d="M 3116 1747 
Q 3116 2381 2855 2742 
Q 2594 3103 2138 3103 
Q 1681 3103 1420 2742 
Q 1159 2381 1159 1747 
Q 1159 1113 1420 752 
Q 1681 391 2138 391 
Q 2594 391 2855 752 
Q 3116 1113 3116 1747 
z
M 1159 2969 
Q 1341 3281 1617 3432 
Q 1894 3584 2278 3584 
Q 2916 3584 3314 3078 
Q 3713 2572 3713 1747 
Q 3713 922 3314 415 
Q 2916 -91 2278 -91 
Q 1894 -91 1617 61 
Q 1341 213 1159 525 
L 1159 0 
L 581 0 
L 581 4863 
L 1159 4863 
L 1159 2969 
z
" transform="scale(0.015625)"/>
     </defs>
     <use xlink:href="#DejaVuSans-53"/>
     <use xlink:href="#DejaVuSans-69" x="63.476562"/>
     <use xlink:href="#DejaVuSans-67" x="91.259766"/>
     <use xlink:href="#DejaVuSans-6e" x="154.736328"/>
     <use xlink:href="#DejaVuSans-69" x="218.115234"/>
     <use xlink:href="#DejaVuSans-66" x="245.898438"/>
     <use xlink:href="#DejaVuSans-69" x="281.103516"/>
     <use xlink:href="#DejaVuSans-63" x="308.886719"/>
     <use xlink:href="#DejaVuSans-61" x="363.867188"/>
     <use xlink:href="#DejaVuSans-6e" x="425.146484"/>
     <use xlink:href="#DejaVuSans-74" x="488.525391"/>
     <use xlink:href="#DejaVuSans-20" x="527.734375"/>
     <use xlink:href="#DejaVuSans-43" x="559.521484"/>
     <use xlink:href="#DejaVuSans-6f" x="629.345703"/>
     <use xlink:href="#DejaVuSans-72" x="690.527344"/>
     <use xlink:href="#DejaVuSans-72" x="729.890625"/>
     <use xlink:href="#DejaVuSans-65" x="768.753906"/>
     <use xlink:href="#DejaVuSans-6c" x="830.277344"/>
     <use xlink:href="#DejaVuSans-61" x="858.060547"/>
     <use xlink:href="#DejaVuSans-74" x="919.339844"/>
     <use xlink:href="#DejaVuSans-69" x="958.548828"/>
     <use xlink:href="#DejaVuSans-6f" x="986.332031"/>
     <use xlink:href="#DejaVuSans-6e" x="1047.513672"/>
     <use xlink:href="#DejaVuSans-73" x="1110.892578"/>
     <use xlink:href="#DejaVuSans-20" x="1162.992188"/>
     <use xlink:href="#DejaVuSans-62" x="1194.779297"/>
     <use xlink:href="#DejaVuSans-79" x="1258.255859"/>
     <use xlink:href="#DejaVuSans-20" x="1317.435547"/>
     <use xlink:href="#DejaVuSans-53" x="1349.222656"/>
     <use xlink:href="#DejaVuSans-75" x="1412.699219"/>
     <use xlink:href="#DejaVuSans-62" x="1476.078125"/>
     <use xlink:href="#DejaVuSans-73" x="1539.554688"/>
     <use xlink:href="#DejaVuSans-65" x="1591.654297"/>
     <use xlink:href="#DejaVuSans-74" x="1653.177734"/>
    </g>
   </g>
   <g id="legend_1">
    <g id="patch_13">
     <path d="M 275.585625 59.674375 
L 422.385625 59.674375 
Q 424.385625 59.674375 424.385625 57.674375 
L 424.385625 29.318125 
Q 424.385625 27.318125 422.385625 27.318125 
L 275.585625 27.318125 
Q 273.585625 27.318125 273.585625 29.318125 
L 273.585625 57.674375 
Q 273.585625 59.674375 275.585625 59.674375 
z
" style="fill: #ffffff; opacity: 0.8; stroke: #cccccc; stroke-linejoin: miter"/>
    </g>
    <g id="patch_14">
     <path d="M 277.585625 38.916562 
L 297.585625 38.916562 
L 297.585625 31.916562 
L 277.585625 31.916562 
z
" style="fill: #95a5a6"/>
    </g>
    <g id="text_16">
     <!-- Total tests -->
     <g transform="translate(305.585625 38.916562) scale(0.1 -0.1)">
      <defs>
       <path id="DejaVuSans-54" d="M -19 4666 
L 3928 4666 
L 3928 4134 
L 2272 4134 
L 2272 0 
L 1638 0 
L 1638 4134 
L -19 4134 
L -19 4666 
z
" transform="scale(0.015625)"/>
      </defs>
      <use xlink:href="#DejaVuSans-54"/>
      <use xlink:href="#DejaVuSans-6f" x="44.083984"/>
      <use xlink:href="#DejaVuSans-74" x="105.265625"/>
      <use xlink:href="#DejaVuSans-61" x="144.474609"/>
      <use xlink:href="#DejaVuSans-6c" x="205.753906"/>
      <use xlink:href="#DejaVuSans-20" x="233.537109"/>
      <use xlink:href="#DejaVuSans-74" x="265.324219"/>
      <use xlink:href="#DejaVuSans-65" x="304.533203"/>
      <use xlink:href="#DejaVuSans-73" x="366.056641"/>
      <use xlink:href="#DejaVuSans-74" x="418.15625"/>
      <use xlink:href="#DejaVuSans-73" x="457.365234"/>
     </g>
    </g>
    <g id="patch_15">
     <path d="M 277.585625 53.594687 
L 297.585625 53.594687 
L 297.585625 46.594687 
L 277.585625 46.594687 
z
" style="fill: #e74c3c"/>
    </g>
    <g id="text_17">
     <!-- Significant (FDR&lt;0.05) -->
     <g transform="translate(305.585625 53.594687) scale(0.1 -0.1)">
      <defs>
       <path id="DejaVuSans-28" d="M 1984 4856 
Q 1566 4138 1362 3434 
Q 1159 2731 1159 2009 
Q 1159 1288 1364 580 
Q 1569 -128 1984 -844 
L 1484 -844 
Q 1016 -109 783 600 
Q 550 1309 550 2009 
Q 550 2706 781 3412 
Q 1013 4119 1484 4856 
L 1984 4856 
z
" transform="scale(0.015625)"/>
       <path id="DejaVuSans-46" d="M 628 4666 
L 3309 4666 
L 3309 4134 
L 1259 4134 
L 1259 2759 
L 3109 2759 
L 3109 2228 
L 1259 2228 
L 1259 0 
L 628 0 
L 628 4666 
z
" transform="scale(0.015625)"/>
       <path id="DejaVuSans-44" d="M 1259 4147 
L 1259 519 
L 2022 519 
Q 2988 519 3436 956 
Q 3884 1394 3884 2338 
Q 3884 3275 3436 3711 
Q 2988 4147 2022 4147 
L 1259 4147 
z
M 628 4666 
L 1925 4666 
Q 3281 4666 3915 4102 
Q 4550 3538 4550 2338 
Q 4550 1131 3912 565 
Q 3275 0 1925 0 
L 628 0 
L 628 4666 
z
" transform="scale(0.015625)"/>
       <path id="DejaVuSans-52" d="M 2841 2188 
Q 3044 2119 3236 1894 
Q 3428 1669 3622 1275 
L 4263 0 
L 3584 0 
L 2988 1197 
Q 2756 1666 2539 1819 
Q 2322 1972 1947 1972 
L 1259 1972 
L 1259 0 
L 628 0 
L 628 4666 
L 2053 4666 
Q 2853 4666 3247 4331 
Q 3641 3997 3641 3322 
Q 3641 2881 3436 2590 
Q 3231 2300 2841 2188 
z
M 1259 4147 
L 1259 2491 
L 2053 2491 
Q 2509 2491 2742 2702 
Q 2975 2913 2975 3322 
Q 2975 3731 2742 3939 
Q 2509 4147 2053 4147 
L 1259 4147 
z
" transform="scale(0.015625)"/>
       <path id="DejaVuSans-3c" d="M 4684 3150 
L 1459 2003 
L 4684 863 
L 4684 294 
L 678 1747 
L 678 2266 
L 4684 3719 
L 4684 3150 
z
" transform="scale(0.015625)"/>
       <path id="DejaVuSans-29" d="M 513 4856 
L 1013 4856 
Q 1481 4119 1714 3412 
Q 1947 2706 1947 2009 
Q 1947 1309 1714 600 
Q 1481 -109 1013 -844 
L 513 -844 
Q 928 -128 1133 580 
Q 1338 1288 1338 2009 
Q 1338 2731 1133 3434 
Q 928 4138 513 4856 
z
" transform="scale(0.015625)"/>
      </defs>
      <use xlink:href="#DejaVuSans-53"/>
      <use xlink:href="#DejaVuSans-69" x="63.476562"/>
      <use xlink:href="#DejaVuSans-67" x="91.259766"/>
      <use xlink:href="#DejaVuSans-6e" x="154.736328"/>
      <use xlink:href="#DejaVuSans-69" x="218.115234"/>
      <use xlink:href="#DejaVuSans-66" x="245.898438"/>
      <use xlink:href="#DejaVuSans-69" x="281.103516"/>
      <use xlink:href="#DejaVuSans-63" x="308.886719"/>
      <use xlink:href="#DejaVuSans-61" x="363.867188"/>
      <use xlink:href="#DejaVuSans-6e" x="425.146484"/>
      <use xlink:href="#DejaVuSans-74" x="488.525391"/>
      <use xlink:href="#DejaVuSans-20" x="527.734375"/>
      <use xlink:href="#DejaVuSans-28" x="559.521484"/>
      <use xlink:href="#DejaVuSans-46" x="598.535156"/>
      <use xlink:href="#DejaVuSans-44" x="656.054688"/>
      <use xlink:href="#DejaVuSans-52" x="733.056641"/>
      <use xlink:href="#DejaVuSans-3c" x="802.539062"/>
      <use xlink:href="#DejaVuSans-30" x="886.328125"/>
      <use xlink:href="#DejaVuSans-2e" x="949.951172"/>
      <use xlink:href="#DejaVuSans-30" x="981.738281"/>
      <use xlink:href="#DejaVuSans-35" x="1045.361328"/>
      <use xlink:href="#DejaVuSans-29" x="1108.984375"/>
     </g>
    </g>
   </g>
  </g>
  <g id="axes_2">
   <g id="patch_16">
    <path d="M 467.205625 315.398125 
L 849.625625 315.398125 
L 849.625625 22.318125 
L 467.205625 22.318125 
z
" style="fill: #ffffff"/>
   </g>
   <g id="PolyCollection_1">
    <defs>
     <path id="m559d759a68" d="M 531.376754 -37.57201 
L 531.376754 -37.55625 
L 532.570817 -37.55625 
L 533.764881 -37.55625 
L 534.958945 -37.55625 
L 536.153008 -37.55625 
L 537.347072 -37.55625 
L 538.541136 -37.55625 
L 539.735199 -37.55625 
L 540.929263 -37.55625 
L 542.123327 -37.55625 
L 543.317391 -37.55625 
L 544.511454 -37.55625 
L 545.705518 -37.55625 
L 546.899582 -37.55625 
L 548.093645 -37.55625 
L 549.287709 -37.55625 
L 550.481773 -37.55625 
L 551.675836 -37.55625 
L 552.8699 -37.55625 
L 554.063964 -37.55625 
L 555.258027 -37.55625 
L 556.452091 -37.55625 
L 557.646155 -37.55625 
L 558.840218 -37.55625 
L 560.034282 -37.55625 
L 561.228346 -37.55625 
L 562.42241 -37.55625 
L 563.616473 -37.55625 
L 564.810537 -37.55625 
L 566.004601 -37.55625 
L 567.198664 -37.55625 
L 568.392728 -37.55625 
L 569.586792 -37.55625 
L 570.780855 -37.55625 
L 571.974919 -37.55625 
L 573.168983 -37.55625 
L 574.363046 -37.55625 
L 575.55711 -37.55625 
L 576.751174 -37.55625 
L 577.945237 -37.55625 
L 579.139301 -37.55625 
L 580.333365 -37.55625 
L 581.527429 -37.55625 
L 582.721492 -37.55625 
L 583.915556 -37.55625 
L 585.10962 -37.55625 
L 586.303683 -37.55625 
L 587.497747 -37.55625 
L 588.691811 -37.55625 
L 589.885874 -37.55625 
L 591.079938 -37.55625 
L 592.274002 -37.55625 
L 593.468065 -37.55625 
L 594.662129 -37.55625 
L 595.856193 -37.55625 
L 597.050257 -37.55625 
L 598.24432 -37.55625 
L 599.438384 -37.55625 
L 600.632448 -37.55625 
L 601.826511 -37.55625 
L 603.020575 -37.55625 
L 604.214639 -37.55625 
L 605.408702 -37.55625 
L 606.602766 -37.55625 
L 607.79683 -37.55625 
L 608.990893 -37.55625 
L 610.184957 -37.55625 
L 611.379021 -37.55625 
L 612.573084 -37.55625 
L 613.767148 -37.55625 
L 614.961212 -37.55625 
L 616.155276 -37.55625 
L 617.349339 -37.55625 
L 618.543403 -37.55625 
L 619.737467 -37.55625 
L 620.93153 -37.55625 
L 622.125594 -37.55625 
L 623.319658 -37.55625 
L 624.513721 -37.55625 
L 625.707785 -37.55625 
L 626.901849 -37.55625 
L 628.095912 -37.55625 
L 629.289976 -37.55625 
L 630.48404 -37.55625 
L 631.678104 -37.55625 
L 632.872167 -37.55625 
L 634.066231 -37.55625 
L 635.260295 -37.55625 
L 636.454358 -37.55625 
L 637.648422 -37.55625 
L 638.842486 -37.55625 
L 640.036549 -37.55625 
L 641.230613 -37.55625 
L 642.424677 -37.55625 
L 643.61874 -37.55625 
L 644.812804 -37.55625 
L 646.006868 -37.55625 
L 647.200931 -37.55625 
L 648.394995 -37.55625 
L 649.589059 -37.55625 
L 650.783123 -37.55625 
L 651.977186 -37.55625 
L 653.17125 -37.55625 
L 654.365314 -37.55625 
L 655.559377 -37.55625 
L 656.753441 -37.55625 
L 657.947505 -37.55625 
L 659.141568 -37.55625 
L 660.335632 -37.55625 
L 661.529696 -37.55625 
L 662.723759 -37.55625 
L 663.917823 -37.55625 
L 665.111887 -37.55625 
L 666.30595 -37.55625 
L 667.500014 -37.55625 
L 668.694078 -37.55625 
L 669.888142 -37.55625 
L 671.082205 -37.55625 
L 672.276269 -37.55625 
L 673.470333 -37.55625 
L 674.664396 -37.55625 
L 675.85846 -37.55625 
L 677.052524 -37.55625 
L 678.246587 -37.55625 
L 679.440651 -37.55625 
L 680.634715 -37.55625 
L 681.828778 -37.55625 
L 683.022842 -37.55625 
L 684.216906 -37.55625 
L 685.41097 -37.55625 
L 686.605033 -37.55625 
L 687.799097 -37.55625 
L 688.993161 -37.55625 
L 690.187224 -37.55625 
L 691.381288 -37.55625 
L 692.575352 -37.55625 
L 693.769415 -37.55625 
L 694.963479 -37.55625 
L 696.157543 -37.55625 
L 697.351606 -37.55625 
L 698.54567 -37.55625 
L 699.739734 -37.55625 
L 700.933797 -37.55625 
L 702.127861 -37.55625 
L 703.321925 -37.55625 
L 704.515989 -37.55625 
L 705.710052 -37.55625 
L 706.904116 -37.55625 
L 708.09818 -37.55625 
L 709.292243 -37.55625 
L 710.486307 -37.55625 
L 711.680371 -37.55625 
L 712.874434 -37.55625 
L 714.068498 -37.55625 
L 715.262562 -37.55625 
L 716.456625 -37.55625 
L 717.650689 -37.55625 
L 718.844753 -37.55625 
L 720.038817 -37.55625 
L 721.23288 -37.55625 
L 722.426944 -37.55625 
L 723.621008 -37.55625 
L 724.815071 -37.55625 
L 726.009135 -37.55625 
L 727.203199 -37.55625 
L 728.397262 -37.55625 
L 729.591326 -37.55625 
L 730.78539 -37.55625 
L 731.979453 -37.55625 
L 733.173517 -37.55625 
L 734.367581 -37.55625 
L 735.561644 -37.55625 
L 736.755708 -37.55625 
L 737.949772 -37.55625 
L 739.143836 -37.55625 
L 740.337899 -37.55625 
L 741.531963 -37.55625 
L 742.726027 -37.55625 
L 743.92009 -37.55625 
L 745.114154 -37.55625 
L 746.308218 -37.55625 
L 747.502281 -37.55625 
L 748.696345 -37.55625 
L 749.890409 -37.55625 
L 751.084472 -37.55625 
L 752.278536 -37.55625 
L 753.4726 -37.55625 
L 754.666663 -37.55625 
L 755.860727 -37.55625 
L 757.054791 -37.55625 
L 758.248855 -37.55625 
L 759.442918 -37.55625 
L 760.636982 -37.55625 
L 761.831046 -37.55625 
L 763.025109 -37.55625 
L 764.219173 -37.55625 
L 765.413237 -37.55625 
L 766.6073 -37.55625 
L 767.801364 -37.55625 
L 768.995428 -37.55625 
L 768.995428 -37.572009 
L 768.995428 -37.572009 
L 767.801364 -37.581538 
L 766.6073 -37.595777 
L 765.413237 -37.616432 
L 764.219173 -37.645508 
L 763.025109 -37.685202 
L 761.831046 -37.737724 
L 760.636982 -37.805024 
L 759.442918 -37.888453 
L 758.248855 -37.988376 
L 757.054791 -38.103812 
L 755.860727 -38.232147 
L 754.666663 -38.36902 
L 753.4726 -38.508434 
L 752.278536 -38.643137 
L 751.084472 -38.765268 
L 749.890409 -38.867222 
L 748.696345 -38.942629 
L 747.502281 -38.987328 
L 746.308218 -39.000209 
L 745.114154 -38.983795 
L 743.92009 -38.944515 
L 742.726027 -38.892637 
L 741.531963 -38.841897 
L 740.337899 -38.808915 
L 739.143836 -38.812445 
L 737.949772 -38.872568 
L 736.755708 -39.00984 
L 735.561644 -39.244396 
L 734.367581 -39.594993 
L 733.173517 -40.077921 
L 731.979453 -40.705775 
L 730.78539 -41.486077 
L 729.591326 -42.419852 
L 728.397262 -43.500298 
L 727.203199 -44.711784 
L 726.009135 -46.029472 
L 724.815071 -47.419815 
L 723.621008 -48.842184 
L 722.426944 -50.251711 
L 721.23288 -51.60329 
L 720.038817 -52.856429 
L 718.844753 -53.980494 
L 717.650689 -54.959679 
L 716.456625 -55.796986 
L 715.262562 -56.516567 
L 714.068498 -57.163919 
L 712.874434 -57.803708 
L 711.680371 -58.515332 
L 710.486307 -59.386615 
L 709.292243 -60.506335 
L 708.09818 -61.956409 
L 706.904116 -63.804619 
L 705.710052 -66.09867 
L 704.515989 -68.862212 
L 703.321925 -72.093158 
L 702.127861 -75.764434 
L 700.933797 -79.826938 
L 699.739734 -84.214345 
L 698.54567 -88.849191 
L 697.351606 -93.649624 
L 696.157543 -98.53621 
L 694.963479 -103.438298 
L 693.769415 -108.299515 
L 692.575352 -113.082162 
L 691.381288 -117.770306 
L 690.187224 -122.371481 
L 688.993161 -126.916836 
L 687.799097 -131.459601 
L 686.605033 -136.071678 
L 685.41097 -140.838249 
L 684.216906 -145.85043 
L 683.022842 -151.196291 
L 681.828778 -156.950891 
L 680.634715 -163.166357 
L 679.440651 -169.863314 
L 678.246587 -177.025073 
L 677.052524 -184.595852 
L 675.85846 -192.483857 
L 674.664396 -200.569404 
L 673.470333 -208.717416 
L 672.276269 -216.79281 
L 671.082205 -224.676584 
L 669.888142 -232.280094 
L 668.694078 -239.555011 
L 667.500014 -246.497052 
L 666.30595 -253.142428 
L 665.111887 -259.557197 
L 663.917823 -265.820914 
L 662.723759 -272.006968 
L 661.529696 -278.162693 
L 660.335632 -284.292399 
L 659.141568 -290.346065 
L 657.947505 -296.215566 
L 656.753441 -301.739102 
L 655.559377 -306.713275 
L 654.365314 -310.911152 
L 653.17125 -314.103851 
L 651.977186 -316.082821 
L 650.783123 -316.68006 
L 649.589059 -315.783947 
L 648.394995 -313.349126 
L 647.200931 -309.399692 
L 646.006868 -304.025826 
L 644.812804 -297.374716 
L 643.61874 -289.637188 
L 642.424677 -281.031742 
L 641.230613 -271.787832 
L 640.036549 -262.130151 
L 638.842486 -252.265419 
L 637.648422 -242.372842 
L 636.454358 -232.598894 
L 635.260295 -223.056527 
L 634.066231 -213.828308 
L 632.872167 -204.972451 
L 631.678104 -196.530289 
L 630.48404 -188.533554 
L 629.289976 -181.009968 
L 628.095912 -173.985996 
L 626.901849 -167.48628 
L 625.707785 -161.529974 
L 624.513721 -156.124892 
L 623.319658 -151.260918 
L 622.125594 -146.904319 
L 620.93153 -142.994496 
L 619.737467 -139.44429 
L 618.543403 -136.144285 
L 617.349339 -132.970801 
L 616.155276 -129.796602 
L 614.961212 -126.5028 
L 613.767148 -122.990287 
L 612.573084 -119.189067 
L 611.379021 -115.064309 
L 610.184957 -110.618469 
L 608.990893 -105.889479 
L 607.79683 -100.945572 
L 606.602766 -95.877678 
L 605.408702 -90.79055 
L 604.214639 -85.793731 
L 603.020575 -80.993262 
L 601.826511 -76.4848 
L 600.632448 -72.34844 
L 599.438384 -68.645323 
L 598.24432 -65.415861 
L 597.050257 -62.679346 
L 595.856193 -60.434636 
L 594.662129 -58.661666 
L 593.468065 -57.323598 
L 592.274002 -56.36948 
L 591.079938 -55.737371 
L 589.885874 -55.357872 
L 588.691811 -55.157979 
L 587.497747 -55.065106 
L 586.303683 -55.011022 
L 585.10962 -54.935378 
L 583.915556 -54.788511 
L 582.721492 -54.533242 
L 581.527429 -54.145558 
L 580.333365 -53.614194 
L 579.139301 -52.939333 
L 577.945237 -52.130724 
L 576.751174 -51.205575 
L 575.55711 -50.186494 
L 574.363046 -49.099678 
L 573.168983 -47.973395 
L 571.974919 -46.836709 
L 570.780855 -45.718332 
L 569.586792 -44.645496 
L 568.392728 -43.642788 
L 567.198664 -42.730968 
L 566.004601 -41.925857 
L 564.810537 -41.237433 
L 563.616473 -40.669278 
L 562.42241 -40.218498 
L 561.228346 -39.876166 
L 560.034282 -39.628274 
L 558.840218 -39.457124 
L 557.646155 -39.343001 
L 556.452091 -39.265957 
L 555.258027 -39.207499 
L 554.063964 -39.152019 
L 552.8699 -39.087787 
L 551.675836 -39.007454 
L 550.481773 -38.908014 
L 549.287709 -38.790298 
L 548.093645 -38.658113 
L 546.899582 -38.517172 
L 545.705518 -38.373991 
L 544.511454 -38.234904 
L 543.317391 -38.105303 
L 542.123327 -37.989162 
L 540.929263 -37.888857 
L 539.735199 -37.805227 
L 538.541136 -37.737823 
L 537.347072 -37.685249 
L 536.153008 -37.64553 
L 534.958945 -37.616442 
L 533.764881 -37.595781 
L 532.570817 -37.58154 
L 531.376754 -37.57201 
z
" style="stroke: #2ecc71"/>
    </defs>
    <g clip-path="url(#pc17fc82fa5)">
     <use xlink:href="#m559d759a68" x="0" y="352.954375" style="fill: #2ecc71; fill-opacity: 0.3; stroke: #2ecc71"/>
    </g>
   </g>
   <g id="PolyCollection_2">
    <defs>
     <path id="mc1d065b814" d="M 513.112733 -37.579279 
L 513.112733 -37.55625 
L 514.640911 -37.55625 
L 516.16909 -37.55625 
L 517.697268 -37.55625 
L 519.225447 -37.55625 
L 520.753625 -37.55625 
L 522.281804 -37.55625 
L 523.809982 -37.55625 
L 525.338161 -37.55625 
L 526.86634 -37.55625 
L 528.394518 -37.55625 
L 529.922697 -37.55625 
L 531.450875 -37.55625 
L 532.979054 -37.55625 
L 534.507232 -37.55625 
L 536.035411 -37.55625 
L 537.563589 -37.55625 
L 539.091768 -37.55625 
L 540.619947 -37.55625 
L 542.148125 -37.55625 
L 543.676304 -37.55625 
L 545.204482 -37.55625 
L 546.732661 -37.55625 
L 548.260839 -37.55625 
L 549.789018 -37.55625 
L 551.317196 -37.55625 
L 552.845375 -37.55625 
L 554.373553 -37.55625 
L 555.901732 -37.55625 
L 557.429911 -37.55625 
L 558.958089 -37.55625 
L 560.486268 -37.55625 
L 562.014446 -37.55625 
L 563.542625 -37.55625 
L 565.070803 -37.55625 
L 566.598982 -37.55625 
L 568.12716 -37.55625 
L 569.655339 -37.55625 
L 571.183518 -37.55625 
L 572.711696 -37.55625 
L 574.239875 -37.55625 
L 575.768053 -37.55625 
L 577.296232 -37.55625 
L 578.82441 -37.55625 
L 580.352589 -37.55625 
L 581.880767 -37.55625 
L 583.408946 -37.55625 
L 584.937124 -37.55625 
L 586.465303 -37.55625 
L 587.993482 -37.55625 
L 589.52166 -37.55625 
L 591.049839 -37.55625 
L 592.578017 -37.55625 
L 594.106196 -37.55625 
L 595.634374 -37.55625 
L 597.162553 -37.55625 
L 598.690731 -37.55625 
L 600.21891 -37.55625 
L 601.747089 -37.55625 
L 603.275267 -37.55625 
L 604.803446 -37.55625 
L 606.331624 -37.55625 
L 607.859803 -37.55625 
L 609.387981 -37.55625 
L 610.91616 -37.55625 
L 612.444338 -37.55625 
L 613.972517 -37.55625 
L 615.500696 -37.55625 
L 617.028874 -37.55625 
L 618.557053 -37.55625 
L 620.085231 -37.55625 
L 621.61341 -37.55625 
L 623.141588 -37.55625 
L 624.669767 -37.55625 
L 626.197945 -37.55625 
L 627.726124 -37.55625 
L 629.254302 -37.55625 
L 630.782481 -37.55625 
L 632.31066 -37.55625 
L 633.838838 -37.55625 
L 635.367017 -37.55625 
L 636.895195 -37.55625 
L 638.423374 -37.55625 
L 639.951552 -37.55625 
L 641.479731 -37.55625 
L 643.007909 -37.55625 
L 644.536088 -37.55625 
L 646.064267 -37.55625 
L 647.592445 -37.55625 
L 649.120624 -37.55625 
L 650.648802 -37.55625 
L 652.176981 -37.55625 
L 653.705159 -37.55625 
L 655.233338 -37.55625 
L 656.761516 -37.55625 
L 658.289695 -37.55625 
L 659.817873 -37.55625 
L 661.346052 -37.55625 
L 662.874231 -37.55625 
L 664.402409 -37.55625 
L 665.930588 -37.55625 
L 667.458766 -37.55625 
L 668.986945 -37.55625 
L 670.515123 -37.55625 
L 672.043302 -37.55625 
L 673.57148 -37.55625 
L 675.099659 -37.55625 
L 676.627838 -37.55625 
L 678.156016 -37.55625 
L 679.684195 -37.55625 
L 681.212373 -37.55625 
L 682.740552 -37.55625 
L 684.26873 -37.55625 
L 685.796909 -37.55625 
L 687.325087 -37.55625 
L 688.853266 -37.55625 
L 690.381445 -37.55625 
L 691.909623 -37.55625 
L 693.437802 -37.55625 
L 694.96598 -37.55625 
L 696.494159 -37.55625 
L 698.022337 -37.55625 
L 699.550516 -37.55625 
L 701.078694 -37.55625 
L 702.606873 -37.55625 
L 704.135051 -37.55625 
L 705.66323 -37.55625 
L 707.191409 -37.55625 
L 708.719587 -37.55625 
L 710.247766 -37.55625 
L 711.775944 -37.55625 
L 713.304123 -37.55625 
L 714.832301 -37.55625 
L 716.36048 -37.55625 
L 717.888658 -37.55625 
L 719.416837 -37.55625 
L 720.945016 -37.55625 
L 722.473194 -37.55625 
L 724.001373 -37.55625 
L 725.529551 -37.55625 
L 727.05773 -37.55625 
L 728.585908 -37.55625 
L 730.114087 -37.55625 
L 731.642265 -37.55625 
L 733.170444 -37.55625 
L 734.698622 -37.55625 
L 736.226801 -37.55625 
L 737.75498 -37.55625 
L 739.283158 -37.55625 
L 740.811337 -37.55625 
L 742.339515 -37.55625 
L 743.867694 -37.55625 
L 745.395872 -37.55625 
L 746.924051 -37.55625 
L 748.452229 -37.55625 
L 749.980408 -37.55625 
L 751.508587 -37.55625 
L 753.036765 -37.55625 
L 754.564944 -37.55625 
L 756.093122 -37.55625 
L 757.621301 -37.55625 
L 759.149479 -37.55625 
L 760.677658 -37.55625 
L 762.205836 -37.55625 
L 763.734015 -37.55625 
L 765.262194 -37.55625 
L 766.790372 -37.55625 
L 768.318551 -37.55625 
L 769.846729 -37.55625 
L 771.374908 -37.55625 
L 772.903086 -37.55625 
L 774.431265 -37.55625 
L 775.959443 -37.55625 
L 777.487622 -37.55625 
L 779.0158 -37.55625 
L 780.543979 -37.55625 
L 782.072158 -37.55625 
L 783.600336 -37.55625 
L 785.128515 -37.55625 
L 786.656693 -37.55625 
L 788.184872 -37.55625 
L 789.71305 -37.55625 
L 791.241229 -37.55625 
L 792.769407 -37.55625 
L 794.297586 -37.55625 
L 795.825765 -37.55625 
L 797.353943 -37.55625 
L 798.882122 -37.55625 
L 800.4103 -37.55625 
L 801.938479 -37.55625 
L 803.466657 -37.55625 
L 804.994836 -37.55625 
L 806.523014 -37.55625 
L 808.051193 -37.55625 
L 809.579371 -37.55625 
L 811.10755 -37.55625 
L 812.635729 -37.55625 
L 814.163907 -37.55625 
L 815.692086 -37.55625 
L 817.220264 -37.55625 
L 817.220264 -37.567444 
L 817.220264 -37.567444 
L 815.692086 -37.57336 
L 814.163907 -37.581859 
L 812.635729 -37.593783 
L 811.10755 -37.610115 
L 809.579371 -37.631949 
L 808.051193 -37.660422 
L 806.523014 -37.696626 
L 804.994836 -37.741483 
L 803.466657 -37.795598 
L 801.938479 -37.859102 
L 800.4103 -37.931508 
L 798.882122 -38.01159 
L 797.353943 -38.097338 
L 795.825765 -38.185972 
L 794.297586 -38.274079 
L 792.769407 -38.35783 
L 791.241229 -38.433299 
L 789.71305 -38.496854 
L 788.184872 -38.545568 
L 786.656693 -38.577628 
L 785.128515 -38.592682 
L 783.600336 -38.592096 
L 782.072158 -38.57908 
L 780.543979 -38.55869 
L 779.0158 -38.537695 
L 777.487622 -38.524325 
L 775.959443 -38.527938 
L 774.431265 -38.558618 
L 772.903086 -38.626733 
L 771.374908 -38.742478 
L 769.846729 -38.91541 
L 768.318551 -39.153993 
L 766.790372 -39.465155 
L 765.262194 -39.853892 
L 763.734015 -40.322928 
L 762.205836 -40.872468 
L 760.677658 -41.500085 
L 759.149479 -42.20077 
L 757.621301 -42.967163 
L 756.093122 -43.789987 
L 754.564944 -44.65865 
L 753.036765 -45.561998 
L 751.508587 -46.489154 
L 749.980408 -47.430364 
L 748.452229 -48.3778 
L 746.924051 -49.326222 
L 745.395872 -50.273467 
L 743.867694 -51.220698 
L 742.339515 -52.172418 
L 740.811337 -53.136224 
L 739.283158 -54.122328 
L 737.75498 -55.142881 
L 736.226801 -56.211135 
L 734.698622 -57.340538 
L 733.170444 -58.543807 
L 731.642265 -59.832113 
L 730.114087 -61.214446 
L 728.585908 -62.697259 
L 727.05773 -64.284479 
L 725.529551 -65.977894 
L 724.001373 -67.777925 
L 722.473194 -69.684691 
L 720.945016 -71.699253 
L 719.416837 -73.824841 
L 717.888658 -76.067849 
L 716.36048 -78.438388 
L 714.832301 -80.950196 
L 713.304123 -83.61981 
L 711.775944 -86.464984 
L 710.247766 -89.502483 
L 708.719587 -92.745509 
L 707.191409 -96.20114 
L 705.66323 -99.868189 
L 704.135051 -103.735934 
L 702.606873 -107.784037 
L 701.078694 -111.983818 
L 699.550516 -116.300846 
L 698.022337 -120.698551 
L 696.494159 -125.142372 
L 694.96598 -129.603797 
L 693.437802 -134.063637 
L 691.909623 -138.513939 
L 690.381445 -142.958147 
L 688.853266 -147.409372 
L 687.325087 -151.886958 
L 685.796909 -156.41177 
L 684.26873 -161.000889 
L 682.740552 -165.662471 
L 681.212373 -170.391503 
L 679.684195 -175.167091 
L 678.156016 -179.951627 
L 676.627838 -184.691953 
L 675.099659 -189.322297 
L 673.57148 -193.768566 
L 672.043302 -197.953362 
L 670.515123 -201.801086 
L 668.986945 -205.242512 
L 667.458766 -208.218364 
L 665.930588 -210.681671 
L 664.402409 -212.598845 
L 662.874231 -213.949678 
L 661.346052 -214.726555 
L 659.817873 -214.933268 
L 658.289695 -214.58376 
L 656.761516 -213.701045 
L 655.233338 -212.316417 
L 653.705159 -210.468906 
L 652.176981 -208.204818 
L 650.648802 -205.577157 
L 649.120624 -202.644698 
L 647.592445 -199.470575 
L 646.064267 -196.120345 
L 644.536088 -192.659621 
L 643.007909 -189.151481 
L 641.479731 -185.653964 
L 639.951552 -182.217913 
L 638.423374 -178.885457 
L 636.895195 -175.689232 
L 635.367017 -172.652352 
L 633.838838 -169.788972 
L 632.31066 -167.10519 
L 630.782481 -164.599992 
L 629.254302 -162.265968 
L 627.726124 -160.089663 
L 626.197945 -158.051546 
L 624.669767 -156.12577 
L 623.141588 -154.280004 
L 621.61341 -152.47567 
L 620.085231 -150.668893 
L 618.557053 -148.81232 
L 617.028874 -146.857795 
L 615.500696 -144.759651 
L 613.972517 -142.478231 
L 612.444338 -139.983131 
L 610.91616 -137.255696 
L 609.387981 -134.290374 
L 607.859803 -131.094766 
L 606.331624 -127.688401 
L 604.803446 -124.100465 
L 603.275267 -120.36688 
L 601.747089 -116.527172 
L 600.21891 -112.621528 
L 598.690731 -108.688359 
L 597.162553 -104.762548 
L 595.634374 -100.874405 
L 594.106196 -97.049294 
L 592.578017 -93.307767 
L 591.049839 -89.66609 
L 589.52166 -86.136992 
L 587.993482 -82.73055 
L 586.465303 -79.455099 
L 584.937124 -76.318081 
L 583.408946 -73.326764 
L 581.880767 -70.488725 
L 580.352589 -67.812031 
L 578.82441 -65.305071 
L 577.296232 -62.976011 
L 575.768053 -60.831964 
L 574.239875 -58.87795 
L 572.711696 -57.115845 
L 571.183518 -55.543481 
L 569.655339 -54.154069 
L 568.12716 -52.936072 
L 566.598982 -51.873561 
L 565.070803 -50.947047 
L 563.542625 -50.134661 
L 562.014446 -49.413538 
L 560.486268 -48.761225 
L 558.958089 -48.156955 
L 557.429911 -47.582645 
L 555.901732 -47.023555 
L 554.373553 -46.468601 
L 552.845375 -45.910346 
L 551.317196 -45.344743 
L 549.789018 -44.770729 
L 548.260839 -44.189733 
L 546.732661 -43.60517 
L 545.204482 -43.02195 
L 543.676304 -42.446023 
L 542.148125 -41.883942 
L 540.619947 -41.342454 
L 539.091768 -40.828097 
L 537.563589 -40.346822 
L 536.035411 -39.903642 
L 534.507232 -39.502353 
L 532.979054 -39.145334 
L 531.450875 -38.833455 
L 529.922697 -38.56611 
L 528.394518 -38.341345 
L 526.86634 -38.156096 
L 525.338161 -38.006477 
L 523.809982 -37.888093 
L 522.281804 -37.796354 
L 520.753625 -37.726742 
L 519.225447 -37.675026 
L 517.697268 -37.637418 
L 516.16909 -37.610647 
L 514.640911 -37.591996 
L 513.112733 -37.579279 
z
" style="stroke: #3498db"/>
    </defs>
    <g clip-path="url(#pc17fc82fa5)">
     <use xlink:href="#mc1d065b814" x="0" y="352.954375" style="fill: #3498db; fill-opacity: 0.3; stroke: #3498db"/>
    </g>
   </g>
   <g id="PolyCollection_3">
    <defs>
     <path id="m7fe79d26da" d="M 484.588352 -37.567336 
L 484.588352 -37.55625 
L 486.33536 -37.55625 
L 488.082368 -37.55625 
L 489.829376 -37.55625 
L 491.576383 -37.55625 
L 493.323391 -37.55625 
L 495.070399 -37.55625 
L 496.817407 -37.55625 
L 498.564414 -37.55625 
L 500.311422 -37.55625 
L 502.05843 -37.55625 
L 503.805438 -37.55625 
L 505.552445 -37.55625 
L 507.299453 -37.55625 
L 509.046461 -37.55625 
L 510.793469 -37.55625 
L 512.540477 -37.55625 
L 514.287484 -37.55625 
L 516.034492 -37.55625 
L 517.7815 -37.55625 
L 519.528508 -37.55625 
L 521.275515 -37.55625 
L 523.022523 -37.55625 
L 524.769531 -37.55625 
L 526.516539 -37.55625 
L 528.263546 -37.55625 
L 530.010554 -37.55625 
L 531.757562 -37.55625 
L 533.50457 -37.55625 
L 535.251577 -37.55625 
L 536.998585 -37.55625 
L 538.745593 -37.55625 
L 540.492601 -37.55625 
L 542.239609 -37.55625 
L 543.986616 -37.55625 
L 545.733624 -37.55625 
L 547.480632 -37.55625 
L 549.22764 -37.55625 
L 550.974647 -37.55625 
L 552.721655 -37.55625 
L 554.468663 -37.55625 
L 556.215671 -37.55625 
L 557.962678 -37.55625 
L 559.709686 -37.55625 
L 561.456694 -37.55625 
L 563.203702 -37.55625 
L 564.95071 -37.55625 
L 566.697717 -37.55625 
L 568.444725 -37.55625 
L 570.191733 -37.55625 
L 571.938741 -37.55625 
L 573.685748 -37.55625 
L 575.432756 -37.55625 
L 577.179764 -37.55625 
L 578.926772 -37.55625 
L 580.673779 -37.55625 
L 582.420787 -37.55625 
L 584.167795 -37.55625 
L 585.914803 -37.55625 
L 587.66181 -37.55625 
L 589.408818 -37.55625 
L 591.155826 -37.55625 
L 592.902834 -37.55625 
L 594.649842 -37.55625 
L 596.396849 -37.55625 
L 598.143857 -37.55625 
L 599.890865 -37.55625 
L 601.637873 -37.55625 
L 603.38488 -37.55625 
L 605.131888 -37.55625 
L 606.878896 -37.55625 
L 608.625904 -37.55625 
L 610.372911 -37.55625 
L 612.119919 -37.55625 
L 613.866927 -37.55625 
L 615.613935 -37.55625 
L 617.360942 -37.55625 
L 619.10795 -37.55625 
L 620.854958 -37.55625 
L 622.601966 -37.55625 
L 624.348974 -37.55625 
L 626.095981 -37.55625 
L 627.842989 -37.55625 
L 629.589997 -37.55625 
L 631.337005 -37.55625 
L 633.084012 -37.55625 
L 634.83102 -37.55625 
L 636.578028 -37.55625 
L 638.325036 -37.55625 
L 640.072043 -37.55625 
L 641.819051 -37.55625 
L 643.566059 -37.55625 
L 645.313067 -37.55625 
L 647.060075 -37.55625 
L 648.807082 -37.55625 
L 650.55409 -37.55625 
L 652.301098 -37.55625 
L 654.048106 -37.55625 
L 655.795113 -37.55625 
L 657.542121 -37.55625 
L 659.289129 -37.55625 
L 661.036137 -37.55625 
L 662.783144 -37.55625 
L 664.530152 -37.55625 
L 666.27716 -37.55625 
L 668.024168 -37.55625 
L 669.771175 -37.55625 
L 671.518183 -37.55625 
L 673.265191 -37.55625 
L 675.012199 -37.55625 
L 676.759207 -37.55625 
L 678.506214 -37.55625 
L 680.253222 -37.55625 
L 682.00023 -37.55625 
L 683.747238 -37.55625 
L 685.494245 -37.55625 
L 687.241253 -37.55625 
L 688.988261 -37.55625 
L 690.735269 -37.55625 
L 692.482276 -37.55625 
L 694.229284 -37.55625 
L 695.976292 -37.55625 
L 697.7233 -37.55625 
L 699.470308 -37.55625 
L 701.217315 -37.55625 
L 702.964323 -37.55625 
L 704.711331 -37.55625 
L 706.458339 -37.55625 
L 708.205346 -37.55625 
L 709.952354 -37.55625 
L 711.699362 -37.55625 
L 713.44637 -37.55625 
L 715.193377 -37.55625 
L 716.940385 -37.55625 
L 718.687393 -37.55625 
L 720.434401 -37.55625 
L 722.181408 -37.55625 
L 723.928416 -37.55625 
L 725.675424 -37.55625 
L 727.422432 -37.55625 
L 729.16944 -37.55625 
L 730.916447 -37.55625 
L 732.663455 -37.55625 
L 734.410463 -37.55625 
L 736.157471 -37.55625 
L 737.904478 -37.55625 
L 739.651486 -37.55625 
L 741.398494 -37.55625 
L 743.145502 -37.55625 
L 744.892509 -37.55625 
L 746.639517 -37.55625 
L 748.386525 -37.55625 
L 750.133533 -37.55625 
L 751.88054 -37.55625 
L 753.627548 -37.55625 
L 755.374556 -37.55625 
L 757.121564 -37.55625 
L 758.868572 -37.55625 
L 760.615579 -37.55625 
L 762.362587 -37.55625 
L 764.109595 -37.55625 
L 765.856603 -37.55625 
L 767.60361 -37.55625 
L 769.350618 -37.55625 
L 771.097626 -37.55625 
L 772.844634 -37.55625 
L 774.591641 -37.55625 
L 776.338649 -37.55625 
L 778.085657 -37.55625 
L 779.832665 -37.55625 
L 781.579673 -37.55625 
L 783.32668 -37.55625 
L 785.073688 -37.55625 
L 786.820696 -37.55625 
L 788.567704 -37.55625 
L 790.314711 -37.55625 
L 792.061719 -37.55625 
L 793.808727 -37.55625 
L 795.555735 -37.55625 
L 797.302742 -37.55625 
L 799.04975 -37.55625 
L 800.796758 -37.55625 
L 802.543766 -37.55625 
L 804.290773 -37.55625 
L 806.037781 -37.55625 
L 807.784789 -37.55625 
L 809.531797 -37.55625 
L 811.278805 -37.55625 
L 813.025812 -37.55625 
L 814.77282 -37.55625 
L 816.519828 -37.55625 
L 818.266836 -37.55625 
L 820.013843 -37.55625 
L 821.760851 -37.55625 
L 823.507859 -37.55625 
L 825.254867 -37.55625 
L 827.001874 -37.55625 
L 828.748882 -37.55625 
L 830.49589 -37.55625 
L 832.242898 -37.55625 
L 832.242898 -37.575309 
L 832.242898 -37.575309 
L 830.49589 -37.584341 
L 828.748882 -37.597018 
L 827.001874 -37.614511 
L 825.254867 -37.638247 
L 823.507859 -37.669914 
L 821.760851 -37.711456 
L 820.013843 -37.765038 
L 818.266836 -37.832995 
L 816.519828 -37.917739 
L 814.77282 -38.021648 
L 813.025812 -38.146925 
L 811.278805 -38.295437 
L 809.531797 -38.468554 
L 807.784789 -38.666989 
L 806.037781 -38.890669 
L 804.290773 -39.138649 
L 802.543766 -39.409085 
L 800.796758 -39.699282 
L 799.04975 -40.005825 
L 797.302742 -40.324792 
L 795.555735 -40.652041 
L 793.808727 -40.983556 
L 792.061719 -41.315825 
L 790.314711 -41.646223 
L 788.567704 -41.97337 
L 786.820696 -42.297422 
L 785.073688 -42.620277 
L 783.32668 -42.945667 
L 781.579673 -43.279126 
L 779.832665 -43.627835 
L 778.085657 -44.000339 
L 776.338649 -44.406171 
L 774.591641 -44.855395 
L 772.844634 -45.358107 
L 771.097626 -45.923914 
L 769.350618 -46.561441 
L 767.60361 -47.277891 
L 765.856603 -48.078687 
L 764.109595 -48.967228 
L 762.362587 -49.944779 
L 760.615579 -51.010521 
L 758.868572 -52.161761 
L 757.121564 -53.394307 
L 755.374556 -54.702982 
L 753.627548 -56.082255 
L 751.88054 -57.526916 
L 750.133533 -59.032741 
L 748.386525 -60.597047 
L 746.639517 -62.219059 
L 744.892509 -63.90002 
L 743.145502 -65.642975 
L 741.398494 -67.452232 
L 739.651486 -69.33251 
L 737.904478 -71.287875 
L 736.157471 -73.32055 
L 734.410463 -75.429785 
L 732.663455 -77.610917 
L 730.916447 -79.854804 
L 729.16944 -82.147726 
L 727.422432 -84.471853 
L 725.675424 -86.806267 
L 723.928416 -89.128491 
L 722.181408 -91.416394 
L 720.434401 -93.650274 
L 718.687393 -95.814937 
L 716.940385 -97.901498 
L 715.193377 -99.90872 
L 713.44637 -101.8437 
L 711.699362 -103.721779 
L 709.952354 -105.565633 
L 708.205346 -107.4036 
L 706.458339 -109.267347 
L 704.711331 -111.189098 
L 702.964323 -113.198683 
L 701.217315 -115.320696 
L 699.470308 -117.572067 
L 697.7233 -119.960304 
L 695.976292 -122.4826 
L 694.229284 -125.1259 
L 692.482276 -127.867913 
L 690.735269 -130.678937 
L 688.988261 -133.524252 
L 687.241253 -136.3668 
L 685.494245 -139.169795 
L 683.747238 -141.898956 
L 682.00023 -144.524123 
L 680.253222 -147.020092 
L 678.506214 -149.366663 
L 676.759207 -151.548004 
L 675.012199 -153.551534 
L 673.265191 -155.366628 
L 671.518183 -156.983433 
L 669.771175 -158.392082 
L 668.024168 -159.582487 
L 666.27716 -160.544805 
L 664.530152 -161.270524 
L 662.783144 -161.753993 
L 661.036137 -161.994132 
L 659.289129 -161.996008 
L 657.542121 -161.771951 
L 655.795113 -161.341949 
L 654.048106 -160.733146 
L 652.301098 -159.978408 
L 650.55409 -159.114064 
L 648.807082 -158.177034 
L 647.060075 -157.201692 
L 645.313067 -156.216846 
L 643.566059 -155.243217 
L 641.819051 -154.291774 
L 640.072043 -153.363145 
L 638.325036 -152.448215 
L 636.578028 -151.529861 
L 634.83102 -150.585615 
L 633.084012 -149.590933 
L 631.337005 -148.52266 
L 629.589997 -147.362248 
L 627.842989 -146.098329 
L 626.095981 -144.728306 
L 624.348974 -143.258795 
L 622.601966 -141.704856 
L 620.854958 -140.088166 
L 619.10795 -138.434379 
L 617.360942 -136.770046 
L 615.613935 -135.119518 
L 613.866927 -133.502205 
L 612.119919 -131.930553 
L 610.372911 -130.408919 
L 608.625904 -128.933453 
L 606.878896 -127.492897 
L 605.131888 -126.070136 
L 603.38488 -124.644204 
L 601.637873 -123.192467 
L 599.890865 -121.692661 
L 598.143857 -120.124572 
L 596.396849 -118.471189 
L 594.649842 -116.719303 
L 592.902834 -114.859588 
L 591.155826 -112.886291 
L 589.408818 -110.7967 
L 587.66181 -108.590561 
L 585.914803 -106.269582 
L 584.167795 -103.837143 
L 582.420787 -101.298224 
L 580.673779 -98.659554 
L 578.926772 -95.929887 
L 577.179764 -93.120338 
L 575.432756 -90.244651 
L 573.685748 -87.319321 
L 571.938741 -84.363507 
L 570.191733 -81.398715 
L 568.444725 -78.448239 
L 566.697717 -75.536425 
L 564.95071 -72.687785 
L 563.203702 -69.926059 
L 561.456694 -67.273263 
L 559.709686 -64.748823 
L 557.962678 -62.368819 
L 556.215671 -60.145411 
L 554.468663 -58.086461 
L 552.721655 -56.195386 
L 550.974647 -54.471238 
L 549.22764 -52.909012 
L 547.480632 -51.500155 
L 545.733624 -50.233245 
L 543.986616 -49.094787 
L 542.239609 -48.070073 
L 540.492601 -47.144036 
L 538.745593 -46.302055 
L 536.998585 -45.530635 
L 535.251577 -44.817938 
L 533.50457 -44.154134 
L 531.757562 -43.531565 
L 530.010554 -42.944732 
L 528.263546 -42.390128 
L 526.516539 -41.865952 
L 524.769531 -41.371749 
L 523.022523 -40.908008 
L 521.275515 -40.47576 
L 519.528508 -40.076218 
L 517.7815 -39.710467 
L 516.034492 -39.379225 
L 514.287484 -39.082686 
L 512.540477 -38.820441 
L 510.793469 -38.591457 
L 509.046461 -38.394127 
L 507.299453 -38.226352 
L 505.552445 -38.085653 
L 503.805438 -37.9693 
L 502.05843 -37.874437 
L 500.311422 -37.798198 
L 498.564414 -37.737812 
L 496.817407 -37.690681 
L 495.070399 -37.654438 
L 493.323391 -37.626982 
L 491.576383 -37.606495 
L 489.829376 -37.59144 
L 488.082368 -37.580545 
L 486.33536 -37.572782 
L 484.588352 -37.567336 
z
" style="stroke: #e67e22"/>
    </defs>
    <g clip-path="url(#pc17fc82fa5)">
     <use xlink:href="#m7fe79d26da" x="0" y="352.954375" style="fill: #e67e22; fill-opacity: 0.3; stroke: #e67e22"/>
    </g>
   </g>
   <g id="matplotlib.axis_3">
    <g id="xtick_4">
     <g id="line2d_11">
      <g>
       <use xlink:href="#m410adc7fb0" x="479.460195" y="315.398125" style="stroke: #000000; stroke-width: 0.8"/>
      </g>
     </g>
     <g id="text_18">
      <!-- 0.4 -->
      <g transform="translate(467.318789 329.996562) scale(0.1 -0.1)">
       <defs>
        <path id="DejaVuSans-2212" d="M 678 2272 
L 4684 2272 
L 4684 1741 
L 678 1741 
L 678 2272 
z
" transform="scale(0.015625)"/>
       </defs>
       <use xlink:href="#DejaVuSans-2212"/>
       <use xlink:href="#DejaVuSans-30" x="83.789062"/>
       <use xlink:href="#DejaVuSans-2e" x="147.412109"/>
       <use xlink:href="#DejaVuSans-34" x="179.199219"/>
      </g>
     </g>
    </g>
    <g id="xtick_5">
     <g id="line2d_12">
      <g>
       <use xlink:href="#m410adc7fb0" x="522.113027" y="315.398125" style="stroke: #000000; stroke-width: 0.8"/>
      </g>
     </g>
     <g id="text_19">
      <!-- 0.3 -->
      <g transform="translate(509.971621 329.996562) scale(0.1 -0.1)">
       <use xlink:href="#DejaVuSans-2212"/>
       <use xlink:href="#DejaVuSans-30" x="83.789062"/>
       <use xlink:href="#DejaVuSans-2e" x="147.412109"/>
       <use xlink:href="#DejaVuSans-33" x="179.199219"/>
      </g>
     </g>
    </g>
    <g id="xtick_6">
     <g id="line2d_13">
      <g>
       <use xlink:href="#m410adc7fb0" x="564.765859" y="315.398125" style="stroke: #000000; stroke-width: 0.8"/>
      </g>
     </g>
     <g id="text_20">
      <!-- 0.2 -->
      <g transform="translate(552.624453 329.996562) scale(0.1 -0.1)">
       <use xlink:href="#DejaVuSans-2212"/>
       <use xlink:href="#DejaVuSans-30" x="83.789062"/>
       <use xlink:href="#DejaVuSans-2e" x="147.412109"/>
       <use xlink:href="#DejaVuSans-32" x="179.199219"/>
      </g>
     </g>
    </g>
    <g id="xtick_7">
     <g id="line2d_14">
      <g>
       <use xlink:href="#m410adc7fb0" x="607.418691" y="315.398125" style="stroke: #000000; stroke-width: 0.8"/>
      </g>
     </g>
     <g id="text_21">
      <!-- 0.1 -->
      <g transform="translate(595.277285 329.996562) scale(0.1 -0.1)">
       <use xlink:href="#DejaVuSans-2212"/>
       <use xlink:href="#DejaVuSans-30" x="83.789062"/>
       <use xlink:href="#DejaVuSans-2e" x="147.412109"/>
       <use xlink:href="#DejaVuSans-31" x="179.199219"/>
      </g>
     </g>
    </g>
    <g id="xtick_8">
     <g id="line2d_15">
      <g>
       <use xlink:href="#m410adc7fb0" x="650.071523" y="315.398125" style="stroke: #000000; stroke-width: 0.8"/>
      </g>
     </g>
     <g id="text_22">
      <!-- 0.0 -->
      <g transform="translate(642.119961 329.996562) scale(0.1 -0.1)">
       <use xlink:href="#DejaVuSans-30"/>
       <use xlink:href="#DejaVuSans-2e" x="63.623047"/>
       <use xlink:href="#DejaVuSans-30" x="95.410156"/>
      </g>
     </g>
    </g>
    <g id="xtick_9">
     <g id="line2d_16">
      <g>
       <use xlink:href="#m410adc7fb0" x="692.724355" y="315.398125" style="stroke: #000000; stroke-width: 0.8"/>
      </g>
     </g>
     <g id="text_23">
      <!-- 0.1 -->
      <g transform="translate(684.772793 329.996562) scale(0.1 -0.1)">
       <use xlink:href="#DejaVuSans-30"/>
       <use xlink:href="#DejaVuSans-2e" x="63.623047"/>
       <use xlink:href="#DejaVuSans-31" x="95.410156"/>
      </g>
     </g>
    </g>
    <g id="xtick_10">
     <g id="line2d_17">
      <g>
       <use xlink:href="#m410adc7fb0" x="735.377187" y="315.398125" style="stroke: #000000; stroke-width: 0.8"/>
      </g>
     </g>
     <g id="text_24">
      <!-- 0.2 -->
      <g transform="translate(727.425625 329.996562) scale(0.1 -0.1)">
       <use xlink:href="#DejaVuSans-30"/>
       <use xlink:href="#DejaVuSans-2e" x="63.623047"/>
       <use xlink:href="#DejaVuSans-32" x="95.410156"/>
      </g>
     </g>
    </g>
    <g id="xtick_11">
     <g id="line2d_18">
      <g>
       <use xlink:href="#m410adc7fb0" x="778.030019" y="315.398125" style="stroke: #000000; stroke-width: 0.8"/>
      </g>
     </g>
     <g id="text_25">
      <!-- 0.3 -->
      <g transform="translate(770.078457 329.996562) scale(0.1 -0.1)">
       <use xlink:href="#DejaVuSans-30"/>
       <use xlink:href="#DejaVuSans-2e" x="63.623047"/>
       <use xlink:href="#DejaVuSans-33" x="95.410156"/>
      </g>
     </g>
    </g>
    <g id="xtick_12">
     <g id="line2d_19">
      <g>
       <use xlink:href="#m410adc7fb0" x="820.682851" y="315.398125" style="stroke: #000000; stroke-width: 0.8"/>
      </g>
     </g>
     <g id="text_26">
      <!-- 0.4 -->
      <g transform="translate(812.731289 329.996562) scale(0.1 -0.1)">
       <use xlink:href="#DejaVuSans-30"/>
       <use xlink:href="#DejaVuSans-2e" x="63.623047"/>
       <use xlink:href="#DejaVuSans-34" x="95.410156"/>
      </g>
     </g>
    </g>
    <g id="text_27">
     <!-- Spearman  -->
     <g transform="translate(628.092188 343.674687) scale(0.1 -0.1)">
      <defs>
       <path id="DejaVuSans-3c1" d="M 863 2875 
Q 1053 3194 1525 3475 
Q 1709 3584 2278 3584 
Q 2916 3584 3314 3078 
Q 3713 2572 3713 1747 
Q 3713 922 3314 415 
Q 2916 -91 2278 -91 
Q 1894 -91 1617 61 
Q 1341 213 1159 525 
L 1159 -1331 
L 581 -1331 
L 581 1716 
Q 581 2438 863 2875 
z
M 3116 1747 
Q 3116 2381 2855 2742 
Q 2594 3103 2138 3103 
Q 1681 3103 1420 2742 
Q 1159 2381 1159 1747 
Q 1159 1113 1420 752 
Q 1681 391 2138 391 
Q 2594 391 2855 752 
Q 3116 1113 3116 1747 
z
" transform="scale(0.015625)"/>
      </defs>
      <use xlink:href="#DejaVuSans-53"/>
      <use xlink:href="#DejaVuSans-70" x="63.476562"/>
      <use xlink:href="#DejaVuSans-65" x="126.953125"/>
      <use xlink:href="#DejaVuSans-61" x="188.476562"/>
      <use xlink:href="#DejaVuSans-72" x="249.755859"/>
      <use xlink:href="#DejaVuSans-6d" x="289.119141"/>
      <use xlink:href="#DejaVuSans-61" x="386.53125"/>
      <use xlink:href="#DejaVuSans-6e" x="447.810547"/>
      <use xlink:href="#DejaVuSans-20" x="511.189453"/>
      <use xlink:href="#DejaVuSans-3c1" x="542.976562"/>
     </g>
    </g>
   </g>
   <g id="matplotlib.axis_4">
    <g id="ytick_8">
     <g id="line2d_20">
      <g>
       <use xlink:href="#m4e1b259f53" x="467.205625" y="315.398125" style="stroke: #000000; stroke-width: 0.8"/>
      </g>
     </g>
     <g id="text_28">
      <!-- 0 -->
      <g transform="translate(453.843125 319.197344) scale(0.1 -0.1)">
       <use xlink:href="#DejaVuSans-30"/>
      </g>
     </g>
    </g>
    <g id="ytick_9">
     <g id="line2d_21">
      <g>
       <use xlink:href="#m4e1b259f53" x="467.205625" y="276.685718" style="stroke: #000000; stroke-width: 0.8"/>
      </g>
     </g>
     <g id="text_29">
      <!-- 1 -->
      <g transform="translate(453.843125 280.484936) scale(0.1 -0.1)">
       <use xlink:href="#DejaVuSans-31"/>
      </g>
     </g>
    </g>
    <g id="ytick_10">
     <g id="line2d_22">
      <g>
       <use xlink:href="#m4e1b259f53" x="467.205625" y="237.97331" style="stroke: #000000; stroke-width: 0.8"/>
      </g>
     </g>
     <g id="text_30">
      <!-- 2 -->
      <g transform="translate(453.843125 241.772529) scale(0.1 -0.1)">
       <use xlink:href="#DejaVuSans-32"/>
      </g>
     </g>
    </g>
    <g id="ytick_11">
     <g id="line2d_23">
      <g>
       <use xlink:href="#m4e1b259f53" x="467.205625" y="199.260903" style="stroke: #000000; stroke-width: 0.8"/>
      </g>
     </g>
     <g id="text_31">
      <!-- 3 -->
      <g transform="translate(453.843125 203.060121) scale(0.1 -0.1)">
       <use xlink:href="#DejaVuSans-33"/>
      </g>
     </g>
    </g>
    <g id="ytick_12">
     <g id="line2d_24">
      <g>
       <use xlink:href="#m4e1b259f53" x="467.205625" y="160.548495" style="stroke: #000000; stroke-width: 0.8"/>
      </g>
     </g>
     <g id="text_32">
      <!-- 4 -->
      <g transform="translate(453.843125 164.347714) scale(0.1 -0.1)">
       <use xlink:href="#DejaVuSans-34"/>
      </g>
     </g>
    </g>
    <g id="ytick_13">
     <g id="line2d_25">
      <g>
       <use xlink:href="#m4e1b259f53" x="467.205625" y="121.836088" style="stroke: #000000; stroke-width: 0.8"/>
      </g>
     </g>
     <g id="text_33">
      <!-- 5 -->
      <g transform="translate(453.843125 125.635306) scale(0.1 -0.1)">
       <use xlink:href="#DejaVuSans-35"/>
      </g>
     </g>
    </g>
    <g id="ytick_14">
     <g id="line2d_26">
      <g>
       <use xlink:href="#m4e1b259f53" x="467.205625" y="83.12368" style="stroke: #000000; stroke-width: 0.8"/>
      </g>
     </g>
     <g id="text_34">
      <!-- 6 -->
      <g transform="translate(453.843125 86.922899) scale(0.1 -0.1)">
       <use xlink:href="#DejaVuSans-36"/>
      </g>
     </g>
    </g>
    <g id="ytick_15">
     <g id="line2d_27">
      <g>
       <use xlink:href="#m4e1b259f53" x="467.205625" y="44.411273" style="stroke: #000000; stroke-width: 0.8"/>
      </g>
     </g>
     <g id="text_35">
      <!-- 7 -->
      <g transform="translate(453.843125 48.210491) scale(0.1 -0.1)">
       <defs>
        <path id="DejaVuSans-37" d="M 525 4666 
L 3525 4666 
L 3525 4397 
L 1831 0 
L 1172 0 
L 2766 4134 
L 525 4134 
L 525 4666 
z
" transform="scale(0.015625)"/>
       </defs>
       <use xlink:href="#DejaVuSans-37"/>
      </g>
     </g>
    </g>
    <g id="text_36">
     <!-- Density -->
     <g transform="translate(447.763438 187.866719) rotate(-90) scale(0.1 -0.1)">
      <use xlink:href="#DejaVuSans-44"/>
      <use xlink:href="#DejaVuSans-65" x="77.001953"/>
      <use xlink:href="#DejaVuSans-6e" x="138.525391"/>
      <use xlink:href="#DejaVuSans-73" x="201.904297"/>
      <use xlink:href="#DejaVuSans-69" x="254.003906"/>
      <use xlink:href="#DejaVuSans-74" x="281.787109"/>
      <use xlink:href="#DejaVuSans-79" x="320.996094"/>
     </g>
    </g>
   </g>
   <g id="line2d_28">
    <path d="M 650.071523 315.398125 
L 650.071523 22.318125 
" clip-path="url(#pc17fc82fa5)" style="fill: none; stroke-dasharray: 3.7,1.6; stroke-dashoffset: 0; stroke: #808080"/>
   </g>
   <g id="patch_17">
    <path d="M 467.205625 315.398125 
L 467.205625 22.318125 
" style="fill: none; stroke: #000000; stroke-linejoin: miter; stroke-linecap: square"/>
   </g>
   <g id="patch_18">
    <path d="M 849.625625 315.398125 
L 849.625625 22.318125 
" style="fill: none; stroke: #000000; stroke-linejoin: miter; stroke-linecap: square"/>
   </g>
   <g id="patch_19">
    <path d="M 467.205625 315.398125 
L 849.625625 315.398125 
" style="fill: none; stroke: #000000; stroke-linejoin: miter; stroke-linecap: square"/>
   </g>
   <g id="patch_20">
    <path d="M 467.205625 22.318125 
L 849.625625 22.318125 
" style="fill: none; stroke: #000000; stroke-linejoin: miter; stroke-linecap: square"/>
   </g>
   <g id="text_37">
    <!-- Distribution of Correlation Coefficients -->
    <g transform="translate(543.444375 16.318125) scale(0.12 -0.12)">
     <use xlink:href="#DejaVuSans-44"/>
     <use xlink:href="#DejaVuSans-69" x="77.001953"/>
     <use xlink:href="#DejaVuSans-73" x="104.785156"/>
     <use xlink:href="#DejaVuSans-74" x="156.884766"/>
     <use xlink:href="#DejaVuSans-72" x="196.09375"/>
     <use xlink:href="#DejaVuSans-69" x="237.207031"/>
     <use xlink:href="#DejaVuSans-62" x="264.990234"/>
     <use xlink:href="#DejaVuSans-75" x="328.466797"/>
     <use xlink:href="#DejaVuSans-74" x="391.845703"/>
     <use xlink:href="#DejaVuSans-69" x="431.054688"/>
     <use xlink:href="#DejaVuSans-6f" x="458.837891"/>
     <use xlink:href="#DejaVuSans-6e" x="520.019531"/>
     <use xlink:href="#DejaVuSans-20" x="583.398438"/>
     <use xlink:href="#DejaVuSans-6f" x="615.185547"/>
     <use xlink:href="#DejaVuSans-66" x="676.367188"/>
     <use xlink:href="#DejaVuSans-20" x="711.572266"/>
     <use xlink:href="#DejaVuSans-43" x="743.359375"/>
     <use xlink:href="#DejaVuSans-6f" x="813.183594"/>
     <use xlink:href="#DejaVuSans-72" x="874.365234"/>
     <use xlink:href="#DejaVuSans-72" x="913.728516"/>
     <use xlink:href="#DejaVuSans-65" x="952.591797"/>
     <use xlink:href="#DejaVuSans-6c" x="1014.115234"/>
     <use xlink:href="#DejaVuSans-61" x="1041.898438"/>
     <use xlink:href="#DejaVuSans-74" x="1103.177734"/>
     <use xlink:href="#DejaVuSans-69" x="1142.386719"/>
     <use xlink:href="#DejaVuSans-6f" x="1170.169922"/>
     <use xlink:href="#DejaVuSans-6e" x="1231.351562"/>
     <use xlink:href="#DejaVuSans-20" x="1294.730469"/>
     <use xlink:href="#DejaVuSans-43" x="1326.517578"/>
     <use xlink:href="#DejaVuSans-6f" x="1396.341797"/>
     <use xlink:href="#DejaVuSans-65" x="1457.523438"/>
     <use xlink:href="#DejaVuSans-66" x="1519.046875"/>
     <use xlink:href="#DejaVuSans-66" x="1554.251953"/>
     <use xlink:href="#DejaVuSans-69" x="1589.457031"/>
     <use xlink:href="#DejaVuSans-63" x="1617.240234"/>
     <use xlink:href="#DejaVuSans-69" x="1672.220703"/>
     <use xlink:href="#DejaVuSans-65" x="1700.003906"/>
     <use xlink:href="#DejaVuSans-6e" x="1761.527344"/>
     <use xlink:href="#DejaVuSans-74" x="1824.90625"/>
     <use xlink:href="#DejaVuSans-73" x="1864.115234"/>
    </g>
   </g>
   <g id="legend_2">
    <g id="patch_21">
     <path d="M 744.280313 74.630625 
L 842.625625 74.630625 
Q 844.625625 74.630625 844.625625 72.630625 
L 844.625625 29.318125 
Q 844.625625 27.318125 842.625625 27.318125 
L 744.280313 27.318125 
Q 742.280313 27.318125 742.280313 29.318125 
L 742.280313 72.630625 
Q 742.280313 74.630625 744.280313 74.630625 
z
" style="fill: #ffffff; opacity: 0.8; stroke: #cccccc; stroke-linejoin: miter"/>
    </g>
    <g id="patch_22">
     <path d="M 746.280313 38.916562 
L 766.280313 38.916562 
L 766.280313 31.916562 
L 746.280313 31.916562 
z
" style="fill: #2ecc71; fill-opacity: 0.3; stroke: #2ecc71; stroke-linejoin: miter"/>
    </g>
    <g id="text_38">
     <!-- all -->
     <g transform="translate(774.280313 38.916562) scale(0.1 -0.1)">
      <use xlink:href="#DejaVuSans-61"/>
      <use xlink:href="#DejaVuSans-6c" x="61.279297"/>
      <use xlink:href="#DejaVuSans-6c" x="89.0625"/>
     </g>
    </g>
    <g id="patch_23">
     <path d="M 746.280313 53.594687 
L 766.280313 53.594687 
L 766.280313 46.594687 
L 746.280313 46.594687 
z
" style="fill: #3498db; fill-opacity: 0.3; stroke: #3498db; stroke-linejoin: miter"/>
    </g>
    <g id="text_39">
     <!-- experimental -->
     <g transform="translate(774.280313 53.594687) scale(0.1 -0.1)">
      <use xlink:href="#DejaVuSans-65"/>
      <use xlink:href="#DejaVuSans-78" x="59.773438"/>
      <use xlink:href="#DejaVuSans-70" x="118.953125"/>
      <use xlink:href="#DejaVuSans-65" x="182.429688"/>
      <use xlink:href="#DejaVuSans-72" x="243.953125"/>
      <use xlink:href="#DejaVuSans-69" x="285.066406"/>
      <use xlink:href="#DejaVuSans-6d" x="312.849609"/>
      <use xlink:href="#DejaVuSans-65" x="410.261719"/>
      <use xlink:href="#DejaVuSans-6e" x="471.785156"/>
      <use xlink:href="#DejaVuSans-74" x="535.164062"/>
      <use xlink:href="#DejaVuSans-61" x="574.373047"/>
      <use xlink:href="#DejaVuSans-6c" x="635.652344"/>
     </g>
    </g>
    <g id="patch_24">
     <path d="M 746.280313 68.272812 
L 766.280313 68.272812 
L 766.280313 61.272812 
L 746.280313 61.272812 
z
" style="fill: #e67e22; fill-opacity: 0.3; stroke: #e67e22; stroke-linejoin: miter"/>
    </g>
    <g id="text_40">
     <!-- hmm_only -->
     <g transform="translate(774.280313 68.272812) scale(0.1 -0.1)">
      <use xlink:href="#DejaVuSans-68"/>
      <use xlink:href="#DejaVuSans-6d" x="63.378906"/>
      <use xlink:href="#DejaVuSans-6d" x="160.791016"/>
      <use xlink:href="#DejaVuSans-5f" x="258.203125"/>
      <use xlink:href="#DejaVuSans-6f" x="308.203125"/>
      <use xlink:href="#DejaVuSans-6e" x="369.384766"/>
      <use xlink:href="#DejaVuSans-6c" x="432.763672"/>
      <use xlink:href="#DejaVuSans-79" x="460.546875"/>
     </g>
    </g>
   </g>
  </g>
 </g>
 <defs>
  <clipPath id="p6b79c3847a">
   <rect x="46.965625" y="22.318125" width="382.42" height="293.08"/>
  </clipPath>
  <clipPath id="pc17fc82fa5">
   <rect x="467.205625" y="22.318125" width="382.42" height="293.08"/>
  </clipPath>
 </defs>
</svg>
