<?xml version="1.0" encoding="utf-8" standalone="no"?>
<!DOCTYPE svg PUBLIC "-//W3C//DTD SVG 1.1//EN"
  "http://www.w3.org/Graphics/SVG/1.1/DTD/svg11.dtd">
<svg xmlns:xlink="http://www.w3.org/1999/xlink" width="710.935407pt" height="422.889687pt" viewBox="0 0 710.935407 422.889687" xmlns="http://www.w3.org/2000/svg" version="1.1">
 <metadata>
  <rdf:RDF xmlns:dc="http://purl.org/dc/elements/1.1/" xmlns:cc="http://creativecommons.org/ns#" xmlns:rdf="http://www.w3.org/1999/02/22-rdf-syntax-ns#">
   <cc:Work>
    <dc:type rdf:resource="http://purl.org/dc/dcmitype/StillImage"/>
    <dc:date>2026-01-13T16:56:14.795554</dc:date>
    <dc:format>image/svg+xml</dc:format>
    <dc:creator>
     <cc:Agent>
      <dc:title>Matplotlib v3.10.8, https://matplotlib.org/</dc:title>
     </cc:Agent>
    </dc:creator>
   </cc:Work>
  </rdf:RDF>
 </metadata>
 <defs>
  <style type="text/css">*{stroke-linejoin: round; stroke-linecap: butt}</style>
 </defs>
 <g id="figure_1">
  <g id="patch_1">
   <path d="M 0 422.889687 
L 710.935407 422.889687 
L 710.935407 0 
L 0 0 
z
" style="fill: #ffffff"/>
  </g>
  <g id="axes_1">
   <g id="patch_2">
    <path d="M 48.90125 383.397812 
L 691.526541 383.397812 
L 691.526541 23.837812 
L 48.90125 23.837812 
z
" style="fill: #ffffff"/>
   </g>
   <g id="patch_3">
    <path d="M 164.78151 383.397812 
L 181.366003 383.397812 
L 181.366003 345.349135 
L 164.78151 345.349135 
z
" clip-path="url(#p695eb05dd6)" style="fill: #3498db; opacity: 0.7; stroke: #ffffff; stroke-linejoin: miter"/>
   </g>
   <g id="patch_4">
    <path d="M 181.366003 383.397812 
L 197.950496 383.397812 
L 197.950496 345.349135 
L 181.366003 345.349135 
z
" clip-path="url(#p695eb05dd6)" style="fill: #3498db; opacity: 0.7; stroke: #ffffff; stroke-linejoin: miter"/>
   </g>
   <g id="patch_5">
    <path d="M 197.950496 383.397812 
L 214.534989 383.397812 
L 214.534989 269.251781 
L 197.950496 269.251781 
z
" clip-path="url(#p695eb05dd6)" style="fill: #3498db; opacity: 0.7; stroke: #ffffff; stroke-linejoin: miter"/>
   </g>
   <g id="patch_6">
    <path d="M 214.534989 383.397812 
L 231.119482 383.397812 
L 231.119482 269.251781 
L 214.534989 269.251781 
z
" clip-path="url(#p695eb05dd6)" style="fill: #3498db; opacity: 0.7; stroke: #ffffff; stroke-linejoin: miter"/>
   </g>
   <g id="patch_7">
    <path d="M 231.119482 383.397812 
L 247.703975 383.397812 
L 247.703975 307.300458 
L 231.119482 307.300458 
z
" clip-path="url(#p695eb05dd6)" style="fill: #3498db; opacity: 0.7; stroke: #ffffff; stroke-linejoin: miter"/>
   </g>
   <g id="patch_8">
    <path d="M 247.703975 383.397812 
L 264.288468 383.397812 
L 264.288468 231.203104 
L 247.703975 231.203104 
z
" clip-path="url(#p695eb05dd6)" style="fill: #3498db; opacity: 0.7; stroke: #ffffff; stroke-linejoin: miter"/>
   </g>
   <g id="patch_9">
    <path d="M 264.288468 383.397812 
L 280.872961 383.397812 
L 280.872961 117.057072 
L 264.288468 117.057072 
z
" clip-path="url(#p695eb05dd6)" style="fill: #3498db; opacity: 0.7; stroke: #ffffff; stroke-linejoin: miter"/>
   </g>
   <g id="patch_10">
    <path d="M 280.872961 383.397812 
L 297.457454 383.397812 
L 297.457454 269.251781 
L 280.872961 269.251781 
z
" clip-path="url(#p695eb05dd6)" style="fill: #3498db; opacity: 0.7; stroke: #ffffff; stroke-linejoin: miter"/>
   </g>
   <g id="patch_11">
    <path d="M 297.457454 383.397812 
L 314.041947 383.397812 
L 314.041947 117.057072 
L 297.457454 117.057072 
z
" clip-path="url(#p695eb05dd6)" style="fill: #3498db; opacity: 0.7; stroke: #ffffff; stroke-linejoin: miter"/>
   </g>
   <g id="patch_12">
    <path d="M 314.041947 383.397812 
L 330.62644 383.397812 
L 330.62644 40.959717 
L 314.041947 40.959717 
z
" clip-path="url(#p695eb05dd6)" style="fill: #3498db; opacity: 0.7; stroke: #ffffff; stroke-linejoin: miter"/>
   </g>
   <g id="patch_13">
    <path d="M 330.62644 383.397812 
L 347.210933 383.397812 
L 347.210933 231.203104 
L 330.62644 231.203104 
z
" clip-path="url(#p695eb05dd6)" style="fill: #3498db; opacity: 0.7; stroke: #ffffff; stroke-linejoin: miter"/>
   </g>
   <g id="patch_14">
    <path d="M 347.210933 383.397812 
L 363.795426 383.397812 
L 363.795426 155.105749 
L 347.210933 155.105749 
z
" clip-path="url(#p695eb05dd6)" style="fill: #3498db; opacity: 0.7; stroke: #ffffff; stroke-linejoin: miter"/>
   </g>
   <g id="patch_15">
    <path d="M 363.795426 383.397812 
L 380.379919 383.397812 
L 380.379919 307.300458 
L 363.795426 307.300458 
z
" clip-path="url(#p695eb05dd6)" style="fill: #3498db; opacity: 0.7; stroke: #ffffff; stroke-linejoin: miter"/>
   </g>
   <g id="patch_16">
    <path d="M 380.379919 383.397812 
L 396.964412 383.397812 
L 396.964412 40.959717 
L 380.379919 40.959717 
z
" clip-path="url(#p695eb05dd6)" style="fill: #3498db; opacity: 0.7; stroke: #ffffff; stroke-linejoin: miter"/>
   </g>
   <g id="patch_17">
    <path d="M 396.964412 383.397812 
L 413.548905 383.397812 
L 413.548905 231.203104 
L 396.964412 231.203104 
z
" clip-path="url(#p695eb05dd6)" style="fill: #3498db; opacity: 0.7; stroke: #ffffff; stroke-linejoin: miter"/>
   </g>
   <g id="patch_18">
    <path d="M 413.548905 383.397812 
L 430.133398 383.397812 
L 430.133398 193.154426 
L 413.548905 193.154426 
z
" clip-path="url(#p695eb05dd6)" style="fill: #3498db; opacity: 0.7; stroke: #ffffff; stroke-linejoin: miter"/>
   </g>
   <g id="patch_19">
    <path d="M 430.133398 383.397812 
L 446.717891 383.397812 
L 446.717891 193.154426 
L 430.133398 193.154426 
z
" clip-path="url(#p695eb05dd6)" style="fill: #3498db; opacity: 0.7; stroke: #ffffff; stroke-linejoin: miter"/>
   </g>
   <g id="patch_20">
    <path d="M 446.717891 383.397812 
L 463.302384 383.397812 
L 463.302384 307.300458 
L 446.717891 307.300458 
z
" clip-path="url(#p695eb05dd6)" style="fill: #3498db; opacity: 0.7; stroke: #ffffff; stroke-linejoin: miter"/>
   </g>
   <g id="patch_21">
    <path d="M 463.302384 383.397812 
L 479.886877 383.397812 
L 479.886877 269.251781 
L 463.302384 269.251781 
z
" clip-path="url(#p695eb05dd6)" style="fill: #3498db; opacity: 0.7; stroke: #ffffff; stroke-linejoin: miter"/>
   </g>
   <g id="patch_22">
    <path d="M 479.886877 383.397812 
L 496.47137 383.397812 
L 496.47137 383.397812 
L 479.886877 383.397812 
z
" clip-path="url(#p695eb05dd6)" style="fill: #3498db; opacity: 0.7; stroke: #ffffff; stroke-linejoin: miter"/>
   </g>
   <g id="patch_23">
    <path d="M 496.47137 383.397812 
L 513.055863 383.397812 
L 513.055863 117.057072 
L 496.47137 117.057072 
z
" clip-path="url(#p695eb05dd6)" style="fill: #3498db; opacity: 0.7; stroke: #ffffff; stroke-linejoin: miter"/>
   </g>
   <g id="patch_24">
    <path d="M 513.055863 383.397812 
L 529.640356 383.397812 
L 529.640356 307.300458 
L 513.055863 307.300458 
z
" clip-path="url(#p695eb05dd6)" style="fill: #3498db; opacity: 0.7; stroke: #ffffff; stroke-linejoin: miter"/>
   </g>
   <g id="patch_25">
    <path d="M 529.640356 383.397812 
L 546.224849 383.397812 
L 546.224849 383.397812 
L 529.640356 383.397812 
z
" clip-path="url(#p695eb05dd6)" style="fill: #3498db; opacity: 0.7; stroke: #ffffff; stroke-linejoin: miter"/>
   </g>
   <g id="patch_26">
    <path d="M 546.224849 383.397812 
L 562.809342 383.397812 
L 562.809342 193.154426 
L 546.224849 193.154426 
z
" clip-path="url(#p695eb05dd6)" style="fill: #3498db; opacity: 0.7; stroke: #ffffff; stroke-linejoin: miter"/>
   </g>
   <g id="patch_27">
    <path d="M 562.809342 383.397812 
L 579.393835 383.397812 
L 579.393835 345.349135 
L 562.809342 345.349135 
z
" clip-path="url(#p695eb05dd6)" style="fill: #3498db; opacity: 0.7; stroke: #ffffff; stroke-linejoin: miter"/>
   </g>
   <g id="patch_28">
    <path d="M 579.393835 383.397812 
L 595.978328 383.397812 
L 595.978328 307.300458 
L 579.393835 307.300458 
z
" clip-path="url(#p695eb05dd6)" style="fill: #3498db; opacity: 0.7; stroke: #ffffff; stroke-linejoin: miter"/>
   </g>
   <g id="patch_29">
    <path d="M 595.978328 383.397812 
L 612.562821 383.397812 
L 612.562821 383.397812 
L 595.978328 383.397812 
z
" clip-path="url(#p695eb05dd6)" style="fill: #3498db; opacity: 0.7; stroke: #ffffff; stroke-linejoin: miter"/>
   </g>
   <g id="patch_30">
    <path d="M 612.562821 383.397812 
L 629.147314 383.397812 
L 629.147314 345.349135 
L 612.562821 345.349135 
z
" clip-path="url(#p695eb05dd6)" style="fill: #3498db; opacity: 0.7; stroke: #ffffff; stroke-linejoin: miter"/>
   </g>
   <g id="patch_31">
    <path d="M 629.147314 383.397812 
L 645.731807 383.397812 
L 645.731807 383.397812 
L 629.147314 383.397812 
z
" clip-path="url(#p695eb05dd6)" style="fill: #3498db; opacity: 0.7; stroke: #ffffff; stroke-linejoin: miter"/>
   </g>
   <g id="patch_32">
    <path d="M 645.731807 383.397812 
L 662.3163 383.397812 
L 662.3163 307.300458 
L 645.731807 307.300458 
z
" clip-path="url(#p695eb05dd6)" style="fill: #3498db; opacity: 0.7; stroke: #ffffff; stroke-linejoin: miter"/>
   </g>
   <g id="matplotlib.axis_1">
    <g id="xtick_1">
     <g id="line2d_1">
      <defs>
       <path id="me559b0b927" d="M 0 0 
L 0 3.5 
" style="stroke: #000000; stroke-width: 0.8"/>
      </defs>
      <g>
       <use xlink:href="#me559b0b927" x="102.014635" y="383.397812" style="stroke: #000000; stroke-width: 0.8"/>
      </g>
     </g>
     <g id="text_1">
      <!-- 0.2125 -->
      <g transform="translate(84.519322 397.99625) scale(0.1 -0.1)">
       <defs>
        <path id="DejaVuSans-30" d="M 2034 4250 
Q 1547 4250 1301 3770 
Q 1056 3291 1056 2328 
Q 1056 1369 1301 889 
Q 1547 409 2034 409 
Q 2525 409 2770 889 
Q 3016 1369 3016 2328 
Q 3016 3291 2770 3770 
Q 2525 4250 2034 4250 
z
M 2034 4750 
Q 2819 4750 3233 4129 
Q 3647 3509 3647 2328 
Q 3647 1150 3233 529 
Q 2819 -91 2034 -91 
Q 1250 -91 836 529 
Q 422 1150 422 2328 
Q 422 3509 836 4129 
Q 1250 4750 2034 4750 
z
" transform="scale(0.015625)"/>
        <path id="DejaVuSans-2e" d="M 684 794 
L 1344 794 
L 1344 0 
L 684 0 
L 684 794 
z
" transform="scale(0.015625)"/>
        <path id="DejaVuSans-32" d="M 1228 531 
L 3431 531 
L 3431 0 
L 469 0 
L 469 531 
Q 828 903 1448 1529 
Q 2069 2156 2228 2338 
Q 2531 2678 2651 2914 
Q 2772 3150 2772 3378 
Q 2772 3750 2511 3984 
Q 2250 4219 1831 4219 
Q 1534 4219 1204 4116 
Q 875 4013 500 3803 
L 500 4441 
Q 881 4594 1212 4672 
Q 1544 4750 1819 4750 
Q 2544 4750 2975 4387 
Q 3406 4025 3406 3419 
Q 3406 3131 3298 2873 
Q 3191 2616 2906 2266 
Q 2828 2175 2409 1742 
Q 1991 1309 1228 531 
z
" transform="scale(0.015625)"/>
        <path id="DejaVuSans-31" d="M 794 531 
L 1825 531 
L 1825 4091 
L 703 3866 
L 703 4441 
L 1819 4666 
L 2450 4666 
L 2450 531 
L 3481 531 
L 3481 0 
L 794 0 
L 794 531 
z
" transform="scale(0.015625)"/>
        <path id="DejaVuSans-35" d="M 691 4666 
L 3169 4666 
L 3169 4134 
L 1269 4134 
L 1269 2991 
Q 1406 3038 1543 3061 
Q 1681 3084 1819 3084 
Q 2600 3084 3056 2656 
Q 3513 2228 3513 1497 
Q 3513 744 3044 326 
Q 2575 -91 1722 -91 
Q 1428 -91 1123 -41 
Q 819 9 494 109 
L 494 744 
Q 775 591 1075 516 
Q 1375 441 1709 441 
Q 2250 441 2565 725 
Q 2881 1009 2881 1497 
Q 2881 1984 2565 2268 
Q 2250 2553 1709 2553 
Q 1456 2553 1204 2497 
Q 953 2441 691 2322 
L 691 4666 
z
" transform="scale(0.015625)"/>
       </defs>
       <use xlink:href="#DejaVuSans-30"/>
       <use xlink:href="#DejaVuSans-2e" transform="translate(63.623047 0)"/>
       <use xlink:href="#DejaVuSans-32" transform="translate(95.410156 0)"/>
       <use xlink:href="#DejaVuSans-31" transform="translate(159.033203 0)"/>
       <use xlink:href="#DejaVuSans-32" transform="translate(222.65625 0)"/>
       <use xlink:href="#DejaVuSans-35" transform="translate(286.279297 0)"/>
      </g>
     </g>
    </g>
    <g id="xtick_2">
     <g id="line2d_2">
      <g>
       <use xlink:href="#me559b0b927" x="175.042817" y="383.397812" style="stroke: #000000; stroke-width: 0.8"/>
      </g>
     </g>
     <g id="text_2">
      <!-- 0.2150 -->
      <g transform="translate(157.547505 397.99625) scale(0.1 -0.1)">
       <use xlink:href="#DejaVuSans-30"/>
       <use xlink:href="#DejaVuSans-2e" transform="translate(63.623047 0)"/>
       <use xlink:href="#DejaVuSans-32" transform="translate(95.410156 0)"/>
       <use xlink:href="#DejaVuSans-31" transform="translate(159.033203 0)"/>
       <use xlink:href="#DejaVuSans-35" transform="translate(222.65625 0)"/>
       <use xlink:href="#DejaVuSans-30" transform="translate(286.279297 0)"/>
      </g>
     </g>
    </g>
    <g id="xtick_3">
     <g id="line2d_3">
      <g>
       <use xlink:href="#me559b0b927" x="248.071" y="383.397812" style="stroke: #000000; stroke-width: 0.8"/>
      </g>
     </g>
     <g id="text_3">
      <!-- 0.2175 -->
      <g transform="translate(230.575687 397.99625) scale(0.1 -0.1)">
       <defs>
        <path id="DejaVuSans-37" d="M 525 4666 
L 3525 4666 
L 3525 4397 
L 1831 0 
L 1172 0 
L 2766 4134 
L 525 4134 
L 525 4666 
z
" transform="scale(0.015625)"/>
       </defs>
       <use xlink:href="#DejaVuSans-30"/>
       <use xlink:href="#DejaVuSans-2e" transform="translate(63.623047 0)"/>
       <use xlink:href="#DejaVuSans-32" transform="translate(95.410156 0)"/>
       <use xlink:href="#DejaVuSans-31" transform="translate(159.033203 0)"/>
       <use xlink:href="#DejaVuSans-37" transform="translate(222.65625 0)"/>
       <use xlink:href="#DejaVuSans-35" transform="translate(286.279297 0)"/>
      </g>
     </g>
    </g>
    <g id="xtick_4">
     <g id="line2d_4">
      <g>
       <use xlink:href="#me559b0b927" x="321.099182" y="383.397812" style="stroke: #000000; stroke-width: 0.8"/>
      </g>
     </g>
     <g id="text_4">
      <!-- 0.2200 -->
      <g transform="translate(303.60387 397.99625) scale(0.1 -0.1)">
       <use xlink:href="#DejaVuSans-30"/>
       <use xlink:href="#DejaVuSans-2e" transform="translate(63.623047 0)"/>
       <use xlink:href="#DejaVuSans-32" transform="translate(95.410156 0)"/>
       <use xlink:href="#DejaVuSans-32" transform="translate(159.033203 0)"/>
       <use xlink:href="#DejaVuSans-30" transform="translate(222.65625 0)"/>
       <use xlink:href="#DejaVuSans-30" transform="translate(286.279297 0)"/>
      </g>
     </g>
    </g>
    <g id="xtick_5">
     <g id="line2d_5">
      <g>
       <use xlink:href="#me559b0b927" x="394.127365" y="383.397812" style="stroke: #000000; stroke-width: 0.8"/>
      </g>
     </g>
     <g id="text_5">
      <!-- 0.2225 -->
      <g transform="translate(376.632052 397.99625) scale(0.1 -0.1)">
       <use xlink:href="#DejaVuSans-30"/>
       <use xlink:href="#DejaVuSans-2e" transform="translate(63.623047 0)"/>
       <use xlink:href="#DejaVuSans-32" transform="translate(95.410156 0)"/>
       <use xlink:href="#DejaVuSans-32" transform="translate(159.033203 0)"/>
       <use xlink:href="#DejaVuSans-32" transform="translate(222.65625 0)"/>
       <use xlink:href="#DejaVuSans-35" transform="translate(286.279297 0)"/>
      </g>
     </g>
    </g>
    <g id="xtick_6">
     <g id="line2d_6">
      <g>
       <use xlink:href="#me559b0b927" x="467.155547" y="383.397812" style="stroke: #000000; stroke-width: 0.8"/>
      </g>
     </g>
     <g id="text_6">
      <!-- 0.2250 -->
      <g transform="translate(449.660235 397.99625) scale(0.1 -0.1)">
       <use xlink:href="#DejaVuSans-30"/>
       <use xlink:href="#DejaVuSans-2e" transform="translate(63.623047 0)"/>
       <use xlink:href="#DejaVuSans-32" transform="translate(95.410156 0)"/>
       <use xlink:href="#DejaVuSans-32" transform="translate(159.033203 0)"/>
       <use xlink:href="#DejaVuSans-35" transform="translate(222.65625 0)"/>
       <use xlink:href="#DejaVuSans-30" transform="translate(286.279297 0)"/>
      </g>
     </g>
    </g>
    <g id="xtick_7">
     <g id="line2d_7">
      <g>
       <use xlink:href="#me559b0b927" x="540.18373" y="383.397812" style="stroke: #000000; stroke-width: 0.8"/>
      </g>
     </g>
     <g id="text_7">
      <!-- 0.2275 -->
      <g transform="translate(522.688417 397.99625) scale(0.1 -0.1)">
       <use xlink:href="#DejaVuSans-30"/>
       <use xlink:href="#DejaVuSans-2e" transform="translate(63.623047 0)"/>
       <use xlink:href="#DejaVuSans-32" transform="translate(95.410156 0)"/>
       <use xlink:href="#DejaVuSans-32" transform="translate(159.033203 0)"/>
       <use xlink:href="#DejaVuSans-37" transform="translate(222.65625 0)"/>
       <use xlink:href="#DejaVuSans-35" transform="translate(286.279297 0)"/>
      </g>
     </g>
    </g>
    <g id="xtick_8">
     <g id="line2d_8">
      <g>
       <use xlink:href="#me559b0b927" x="613.211912" y="383.397812" style="stroke: #000000; stroke-width: 0.8"/>
      </g>
     </g>
     <g id="text_8">
      <!-- 0.2300 -->
      <g transform="translate(595.7166 397.99625) scale(0.1 -0.1)">
       <defs>
        <path id="DejaVuSans-33" d="M 2597 2516 
Q 3050 2419 3304 2112 
Q 3559 1806 3559 1356 
Q 3559 666 3084 287 
Q 2609 -91 1734 -91 
Q 1441 -91 1130 -33 
Q 819 25 488 141 
L 488 750 
Q 750 597 1062 519 
Q 1375 441 1716 441 
Q 2309 441 2620 675 
Q 2931 909 2931 1356 
Q 2931 1769 2642 2001 
Q 2353 2234 1838 2234 
L 1294 2234 
L 1294 2753 
L 1863 2753 
Q 2328 2753 2575 2939 
Q 2822 3125 2822 3475 
Q 2822 3834 2567 4026 
Q 2313 4219 1838 4219 
Q 1578 4219 1281 4162 
Q 984 4106 628 3988 
L 628 4550 
Q 988 4650 1302 4700 
Q 1616 4750 1894 4750 
Q 2613 4750 3031 4423 
Q 3450 4097 3450 3541 
Q 3450 3153 3228 2886 
Q 3006 2619 2597 2516 
z
" transform="scale(0.015625)"/>
       </defs>
       <use xlink:href="#DejaVuSans-30"/>
       <use xlink:href="#DejaVuSans-2e" transform="translate(63.623047 0)"/>
       <use xlink:href="#DejaVuSans-32" transform="translate(95.410156 0)"/>
       <use xlink:href="#DejaVuSans-33" transform="translate(159.033203 0)"/>
       <use xlink:href="#DejaVuSans-30" transform="translate(222.65625 0)"/>
       <use xlink:href="#DejaVuSans-30" transform="translate(286.279297 0)"/>
      </g>
     </g>
    </g>
    <g id="xtick_9">
     <g id="line2d_9">
      <g>
       <use xlink:href="#me559b0b927" x="686.240095" y="383.397812" style="stroke: #000000; stroke-width: 0.8"/>
      </g>
     </g>
     <g id="text_9">
      <!-- 0.2325 -->
      <g transform="translate(668.744782 397.99625) scale(0.1 -0.1)">
       <use xlink:href="#DejaVuSans-30"/>
       <use xlink:href="#DejaVuSans-2e" transform="translate(63.623047 0)"/>
       <use xlink:href="#DejaVuSans-32" transform="translate(95.410156 0)"/>
       <use xlink:href="#DejaVuSans-33" transform="translate(159.033203 0)"/>
       <use xlink:href="#DejaVuSans-32" transform="translate(222.65625 0)"/>
       <use xlink:href="#DejaVuSans-35" transform="translate(286.279297 0)"/>
      </g>
     </g>
    </g>
    <g id="text_10">
     <!-- Hopkins Statistic -->
     <g transform="translate(319.944208 413.194062) scale(0.12 -0.12)">
      <defs>
       <path id="DejaVuSans-48" d="M 628 4666 
L 1259 4666 
L 1259 2753 
L 3553 2753 
L 3553 4666 
L 4184 4666 
L 4184 0 
L 3553 0 
L 3553 2222 
L 1259 2222 
L 1259 0 
L 628 0 
L 628 4666 
z
" transform="scale(0.015625)"/>
       <path id="DejaVuSans-6f" d="M 1959 3097 
Q 1497 3097 1228 2736 
Q 959 2375 959 1747 
Q 959 1119 1226 758 
Q 1494 397 1959 397 
Q 2419 397 2687 759 
Q 2956 1122 2956 1747 
Q 2956 2369 2687 2733 
Q 2419 3097 1959 3097 
z
M 1959 3584 
Q 2709 3584 3137 3096 
Q 3566 2609 3566 1747 
Q 3566 888 3137 398 
Q 2709 -91 1959 -91 
Q 1206 -91 779 398 
Q 353 888 353 1747 
Q 353 2609 779 3096 
Q 1206 3584 1959 3584 
z
" transform="scale(0.015625)"/>
       <path id="DejaVuSans-70" d="M 1159 525 
L 1159 -1331 
L 581 -1331 
L 581 3500 
L 1159 3500 
L 1159 2969 
Q 1341 3281 1617 3432 
Q 1894 3584 2278 3584 
Q 2916 3584 3314 3078 
Q 3713 2572 3713 1747 
Q 3713 922 3314 415 
Q 2916 -91 2278 -91 
Q 1894 -91 1617 61 
Q 1341 213 1159 525 
z
M 3116 1747 
Q 3116 2381 2855 2742 
Q 2594 3103 2138 3103 
Q 1681 3103 1420 2742 
Q 1159 2381 1159 1747 
Q 1159 1113 1420 752 
Q 1681 391 2138 391 
Q 2594 391 2855 752 
Q 3116 1113 3116 1747 
z
" transform="scale(0.015625)"/>
       <path id="DejaVuSans-6b" d="M 581 4863 
L 1159 4863 
L 1159 1991 
L 2875 3500 
L 3609 3500 
L 1753 1863 
L 3688 0 
L 2938 0 
L 1159 1709 
L 1159 0 
L 581 0 
L 581 4863 
z
" transform="scale(0.015625)"/>
       <path id="DejaVuSans-69" d="M 603 3500 
L 1178 3500 
L 1178 0 
L 603 0 
L 603 3500 
z
M 603 4863 
L 1178 4863 
L 1178 4134 
L 603 4134 
L 603 4863 
z
" transform="scale(0.015625)"/>
       <path id="DejaVuSans-6e" d="M 3513 2113 
L 3513 0 
L 2938 0 
L 2938 2094 
Q 2938 2591 2744 2837 
Q 2550 3084 2163 3084 
Q 1697 3084 1428 2787 
Q 1159 2491 1159 1978 
L 1159 0 
L 581 0 
L 581 3500 
L 1159 3500 
L 1159 2956 
Q 1366 3272 1645 3428 
Q 1925 3584 2291 3584 
Q 2894 3584 3203 3211 
Q 3513 2838 3513 2113 
z
" transform="scale(0.015625)"/>
       <path id="DejaVuSans-73" d="M 2834 3397 
L 2834 2853 
Q 2591 2978 2328 3040 
Q 2066 3103 1784 3103 
Q 1356 3103 1142 2972 
Q 928 2841 928 2578 
Q 928 2378 1081 2264 
Q 1234 2150 1697 2047 
L 1894 2003 
Q 2506 1872 2764 1633 
Q 3022 1394 3022 966 
Q 3022 478 2636 193 
Q 2250 -91 1575 -91 
Q 1294 -91 989 -36 
Q 684 19 347 128 
L 347 722 
Q 666 556 975 473 
Q 1284 391 1588 391 
Q 1994 391 2212 530 
Q 2431 669 2431 922 
Q 2431 1156 2273 1281 
Q 2116 1406 1581 1522 
L 1381 1569 
Q 847 1681 609 1914 
Q 372 2147 372 2553 
Q 372 3047 722 3315 
Q 1072 3584 1716 3584 
Q 2034 3584 2315 3537 
Q 2597 3491 2834 3397 
z
" transform="scale(0.015625)"/>
       <path id="DejaVuSans-20" transform="scale(0.015625)"/>
       <path id="DejaVuSans-53" d="M 3425 4513 
L 3425 3897 
Q 3066 4069 2747 4153 
Q 2428 4238 2131 4238 
Q 1616 4238 1336 4038 
Q 1056 3838 1056 3469 
Q 1056 3159 1242 3001 
Q 1428 2844 1947 2747 
L 2328 2669 
Q 3034 2534 3370 2195 
Q 3706 1856 3706 1288 
Q 3706 609 3251 259 
Q 2797 -91 1919 -91 
Q 1588 -91 1214 -16 
Q 841 59 441 206 
L 441 856 
Q 825 641 1194 531 
Q 1563 422 1919 422 
Q 2459 422 2753 634 
Q 3047 847 3047 1241 
Q 3047 1584 2836 1778 
Q 2625 1972 2144 2069 
L 1759 2144 
Q 1053 2284 737 2584 
Q 422 2884 422 3419 
Q 422 4038 858 4394 
Q 1294 4750 2059 4750 
Q 2388 4750 2728 4690 
Q 3069 4631 3425 4513 
z
" transform="scale(0.015625)"/>
       <path id="DejaVuSans-74" d="M 1172 4494 
L 1172 3500 
L 2356 3500 
L 2356 3053 
L 1172 3053 
L 1172 1153 
Q 1172 725 1289 603 
Q 1406 481 1766 481 
L 2356 481 
L 2356 0 
L 1766 0 
Q 1100 0 847 248 
Q 594 497 594 1153 
L 594 3053 
L 172 3053 
L 172 3500 
L 594 3500 
L 594 4494 
L 1172 4494 
z
" transform="scale(0.015625)"/>
       <path id="DejaVuSans-61" d="M 2194 1759 
Q 1497 1759 1228 1600 
Q 959 1441 959 1056 
Q 959 750 1161 570 
Q 1363 391 1709 391 
Q 2188 391 2477 730 
Q 2766 1069 2766 1631 
L 2766 1759 
L 2194 1759 
z
M 3341 1997 
L 3341 0 
L 2766 0 
L 2766 531 
Q 2569 213 2275 61 
Q 1981 -91 1556 -91 
Q 1019 -91 701 211 
Q 384 513 384 1019 
Q 384 1609 779 1909 
Q 1175 2209 1959 2209 
L 2766 2209 
L 2766 2266 
Q 2766 2663 2505 2880 
Q 2244 3097 1772 3097 
Q 1472 3097 1187 3025 
Q 903 2953 641 2809 
L 641 3341 
Q 956 3463 1253 3523 
Q 1550 3584 1831 3584 
Q 2591 3584 2966 3190 
Q 3341 2797 3341 1997 
z
" transform="scale(0.015625)"/>
       <path id="DejaVuSans-63" d="M 3122 3366 
L 3122 2828 
Q 2878 2963 2633 3030 
Q 2388 3097 2138 3097 
Q 1578 3097 1268 2742 
Q 959 2388 959 1747 
Q 959 1106 1268 751 
Q 1578 397 2138 397 
Q 2388 397 2633 464 
Q 2878 531 3122 666 
L 3122 134 
Q 2881 22 2623 -34 
Q 2366 -91 2075 -91 
Q 1284 -91 818 406 
Q 353 903 353 1747 
Q 353 2603 823 3093 
Q 1294 3584 2113 3584 
Q 2378 3584 2631 3529 
Q 2884 3475 3122 3366 
z
" transform="scale(0.015625)"/>
      </defs>
      <use xlink:href="#DejaVuSans-48"/>
      <use xlink:href="#DejaVuSans-6f" transform="translate(75.195312 0)"/>
      <use xlink:href="#DejaVuSans-70" transform="translate(136.376953 0)"/>
      <use xlink:href="#DejaVuSans-6b" transform="translate(199.853516 0)"/>
      <use xlink:href="#DejaVuSans-69" transform="translate(257.763672 0)"/>
      <use xlink:href="#DejaVuSans-6e" transform="translate(285.546875 0)"/>
      <use xlink:href="#DejaVuSans-73" transform="translate(348.925781 0)"/>
      <use xlink:href="#DejaVuSans-20" transform="translate(401.025391 0)"/>
      <use xlink:href="#DejaVuSans-53" transform="translate(432.8125 0)"/>
      <use xlink:href="#DejaVuSans-74" transform="translate(496.289062 0)"/>
      <use xlink:href="#DejaVuSans-61" transform="translate(535.498047 0)"/>
      <use xlink:href="#DejaVuSans-74" transform="translate(596.777344 0)"/>
      <use xlink:href="#DejaVuSans-69" transform="translate(635.986328 0)"/>
      <use xlink:href="#DejaVuSans-73" transform="translate(663.769531 0)"/>
      <use xlink:href="#DejaVuSans-74" transform="translate(715.869141 0)"/>
      <use xlink:href="#DejaVuSans-69" transform="translate(755.078125 0)"/>
      <use xlink:href="#DejaVuSans-63" transform="translate(782.861328 0)"/>
     </g>
    </g>
   </g>
   <g id="matplotlib.axis_2">
    <g id="ytick_1">
     <g id="line2d_10">
      <defs>
       <path id="md2ef0fee2e" d="M 0 0 
L -3.5 0 
" style="stroke: #000000; stroke-width: 0.8"/>
      </defs>
      <g>
       <use xlink:href="#md2ef0fee2e" x="48.90125" y="383.397812" style="stroke: #000000; stroke-width: 0.8"/>
      </g>
     </g>
     <g id="text_11">
      <!-- 0 -->
      <g transform="translate(35.53875 387.197031) scale(0.1 -0.1)">
       <use xlink:href="#DejaVuSans-30"/>
      </g>
     </g>
    </g>
    <g id="ytick_2">
     <g id="line2d_11">
      <g>
       <use xlink:href="#md2ef0fee2e" x="48.90125" y="340.194079" style="stroke: #000000; stroke-width: 0.8"/>
      </g>
     </g>
     <g id="text_12">
      <!-- 20 -->
      <g transform="translate(29.17625 343.993298) scale(0.1 -0.1)">
       <use xlink:href="#DejaVuSans-32"/>
       <use xlink:href="#DejaVuSans-30" transform="translate(63.623047 0)"/>
      </g>
     </g>
    </g>
    <g id="ytick_3">
     <g id="line2d_12">
      <g>
       <use xlink:href="#md2ef0fee2e" x="48.90125" y="296.990346" style="stroke: #000000; stroke-width: 0.8"/>
      </g>
     </g>
     <g id="text_13">
      <!-- 40 -->
      <g transform="translate(29.17625 300.789565) scale(0.1 -0.1)">
       <defs>
        <path id="DejaVuSans-34" d="M 2419 4116 
L 825 1625 
L 2419 1625 
L 2419 4116 
z
M 2253 4666 
L 3047 4666 
L 3047 1625 
L 3713 1625 
L 3713 1100 
L 3047 1100 
L 3047 0 
L 2419 0 
L 2419 1100 
L 313 1100 
L 313 1709 
L 2253 4666 
z
" transform="scale(0.015625)"/>
       </defs>
       <use xlink:href="#DejaVuSans-34"/>
       <use xlink:href="#DejaVuSans-30" transform="translate(63.623047 0)"/>
      </g>
     </g>
    </g>
    <g id="ytick_4">
     <g id="line2d_13">
      <g>
       <use xlink:href="#md2ef0fee2e" x="48.90125" y="253.786613" style="stroke: #000000; stroke-width: 0.8"/>
      </g>
     </g>
     <g id="text_14">
      <!-- 60 -->
      <g transform="translate(29.17625 257.585832) scale(0.1 -0.1)">
       <defs>
        <path id="DejaVuSans-36" d="M 2113 2584 
Q 1688 2584 1439 2293 
Q 1191 2003 1191 1497 
Q 1191 994 1439 701 
Q 1688 409 2113 409 
Q 2538 409 2786 701 
Q 3034 994 3034 1497 
Q 3034 2003 2786 2293 
Q 2538 2584 2113 2584 
z
M 3366 4563 
L 3366 3988 
Q 3128 4100 2886 4159 
Q 2644 4219 2406 4219 
Q 1781 4219 1451 3797 
Q 1122 3375 1075 2522 
Q 1259 2794 1537 2939 
Q 1816 3084 2150 3084 
Q 2853 3084 3261 2657 
Q 3669 2231 3669 1497 
Q 3669 778 3244 343 
Q 2819 -91 2113 -91 
Q 1303 -91 875 529 
Q 447 1150 447 2328 
Q 447 3434 972 4092 
Q 1497 4750 2381 4750 
Q 2619 4750 2861 4703 
Q 3103 4656 3366 4563 
z
" transform="scale(0.015625)"/>
       </defs>
       <use xlink:href="#DejaVuSans-36"/>
       <use xlink:href="#DejaVuSans-30" transform="translate(63.623047 0)"/>
      </g>
     </g>
    </g>
    <g id="ytick_5">
     <g id="line2d_14">
      <g>
       <use xlink:href="#md2ef0fee2e" x="48.90125" y="210.58288" style="stroke: #000000; stroke-width: 0.8"/>
      </g>
     </g>
     <g id="text_15">
      <!-- 80 -->
      <g transform="translate(29.17625 214.382099) scale(0.1 -0.1)">
       <defs>
        <path id="DejaVuSans-38" d="M 2034 2216 
Q 1584 2216 1326 1975 
Q 1069 1734 1069 1313 
Q 1069 891 1326 650 
Q 1584 409 2034 409 
Q 2484 409 2743 651 
Q 3003 894 3003 1313 
Q 3003 1734 2745 1975 
Q 2488 2216 2034 2216 
z
M 1403 2484 
Q 997 2584 770 2862 
Q 544 3141 544 3541 
Q 544 4100 942 4425 
Q 1341 4750 2034 4750 
Q 2731 4750 3128 4425 
Q 3525 4100 3525 3541 
Q 3525 3141 3298 2862 
Q 3072 2584 2669 2484 
Q 3125 2378 3379 2068 
Q 3634 1759 3634 1313 
Q 3634 634 3220 271 
Q 2806 -91 2034 -91 
Q 1263 -91 848 271 
Q 434 634 434 1313 
Q 434 1759 690 2068 
Q 947 2378 1403 2484 
z
M 1172 3481 
Q 1172 3119 1398 2916 
Q 1625 2713 2034 2713 
Q 2441 2713 2670 2916 
Q 2900 3119 2900 3481 
Q 2900 3844 2670 4047 
Q 2441 4250 2034 4250 
Q 1625 4250 1398 4047 
Q 1172 3844 1172 3481 
z
" transform="scale(0.015625)"/>
       </defs>
       <use xlink:href="#DejaVuSans-38"/>
       <use xlink:href="#DejaVuSans-30" transform="translate(63.623047 0)"/>
      </g>
     </g>
    </g>
    <g id="ytick_6">
     <g id="line2d_15">
      <g>
       <use xlink:href="#md2ef0fee2e" x="48.90125" y="167.379147" style="stroke: #000000; stroke-width: 0.8"/>
      </g>
     </g>
     <g id="text_16">
      <!-- 100 -->
      <g transform="translate(22.81375 171.178366) scale(0.1 -0.1)">
       <use xlink:href="#DejaVuSans-31"/>
       <use xlink:href="#DejaVuSans-30" transform="translate(63.623047 0)"/>
       <use xlink:href="#DejaVuSans-30" transform="translate(127.246094 0)"/>
      </g>
     </g>
    </g>
    <g id="ytick_7">
     <g id="line2d_16">
      <g>
       <use xlink:href="#md2ef0fee2e" x="48.90125" y="124.175414" style="stroke: #000000; stroke-width: 0.8"/>
      </g>
     </g>
     <g id="text_17">
      <!-- 120 -->
      <g transform="translate(22.81375 127.974633) scale(0.1 -0.1)">
       <use xlink:href="#DejaVuSans-31"/>
       <use xlink:href="#DejaVuSans-32" transform="translate(63.623047 0)"/>
       <use xlink:href="#DejaVuSans-30" transform="translate(127.246094 0)"/>
      </g>
     </g>
    </g>
    <g id="ytick_8">
     <g id="line2d_17">
      <g>
       <use xlink:href="#md2ef0fee2e" x="48.90125" y="80.971681" style="stroke: #000000; stroke-width: 0.8"/>
      </g>
     </g>
     <g id="text_18">
      <!-- 140 -->
      <g transform="translate(22.81375 84.770899) scale(0.1 -0.1)">
       <use xlink:href="#DejaVuSans-31"/>
       <use xlink:href="#DejaVuSans-34" transform="translate(63.623047 0)"/>
       <use xlink:href="#DejaVuSans-30" transform="translate(127.246094 0)"/>
      </g>
     </g>
    </g>
    <g id="ytick_9">
     <g id="line2d_18">
      <g>
       <use xlink:href="#md2ef0fee2e" x="48.90125" y="37.767948" style="stroke: #000000; stroke-width: 0.8"/>
      </g>
     </g>
     <g id="text_19">
      <!-- 160 -->
      <g transform="translate(22.81375 41.567166) scale(0.1 -0.1)">
       <use xlink:href="#DejaVuSans-31"/>
       <use xlink:href="#DejaVuSans-36" transform="translate(63.623047 0)"/>
       <use xlink:href="#DejaVuSans-30" transform="translate(127.246094 0)"/>
      </g>
     </g>
    </g>
    <g id="text_20">
     <!-- Density -->
     <g transform="translate(16.318125 226.428125) rotate(-90) scale(0.12 -0.12)">
      <defs>
       <path id="DejaVuSans-44" d="M 1259 4147 
L 1259 519 
L 2022 519 
Q 2988 519 3436 956 
Q 3884 1394 3884 2338 
Q 3884 3275 3436 3711 
Q 2988 4147 2022 4147 
L 1259 4147 
z
M 628 4666 
L 1925 4666 
Q 3281 4666 3915 4102 
Q 4550 3538 4550 2338 
Q 4550 1131 3912 565 
Q 3275 0 1925 0 
L 628 0 
L 628 4666 
z
" transform="scale(0.015625)"/>
       <path id="DejaVuSans-65" d="M 3597 1894 
L 3597 1613 
L 953 1613 
Q 991 1019 1311 708 
Q 1631 397 2203 397 
Q 2534 397 2845 478 
Q 3156 559 3463 722 
L 3463 178 
Q 3153 47 2828 -22 
Q 2503 -91 2169 -91 
Q 1331 -91 842 396 
Q 353 884 353 1716 
Q 353 2575 817 3079 
Q 1281 3584 2069 3584 
Q 2775 3584 3186 3129 
Q 3597 2675 3597 1894 
z
M 3022 2063 
Q 3016 2534 2758 2815 
Q 2500 3097 2075 3097 
Q 1594 3097 1305 2825 
Q 1016 2553 972 2059 
L 3022 2063 
z
" transform="scale(0.015625)"/>
       <path id="DejaVuSans-79" d="M 2059 -325 
Q 1816 -950 1584 -1140 
Q 1353 -1331 966 -1331 
L 506 -1331 
L 506 -850 
L 844 -850 
Q 1081 -850 1212 -737 
Q 1344 -625 1503 -206 
L 1606 56 
L 191 3500 
L 800 3500 
L 1894 763 
L 2988 3500 
L 3597 3500 
L 2059 -325 
z
" transform="scale(0.015625)"/>
      </defs>
      <use xlink:href="#DejaVuSans-44"/>
      <use xlink:href="#DejaVuSans-65" transform="translate(77.001953 0)"/>
      <use xlink:href="#DejaVuSans-6e" transform="translate(138.525391 0)"/>
      <use xlink:href="#DejaVuSans-73" transform="translate(201.904297 0)"/>
      <use xlink:href="#DejaVuSans-69" transform="translate(254.003906 0)"/>
      <use xlink:href="#DejaVuSans-74" transform="translate(281.787109 0)"/>
      <use xlink:href="#DejaVuSans-79" transform="translate(320.996094 0)"/>
     </g>
    </g>
   </g>
   <g id="line2d_19">
    <path d="M 78.11149 383.397812 
L 78.11149 23.837812 
" clip-path="url(#p695eb05dd6)" style="fill: none; stroke: #e74c3c; stroke-width: 2.5; stroke-linecap: square"/>
   </g>
   <g id="line2d_20">
    <path d="M 380.173739 383.397812 
L 380.173739 23.837812 
" clip-path="url(#p695eb05dd6)" style="fill: none; stroke-dasharray: 7.4,3.2; stroke-dashoffset: 0; stroke: #2ecc71; stroke-width: 2"/>
   </g>
   <g id="patch_33">
    <path d="M 48.90125 383.397812 
L 48.90125 23.837812 
" style="fill: none; stroke: #000000; stroke-width: 0.8; stroke-linejoin: miter; stroke-linecap: square"/>
   </g>
   <g id="patch_34">
    <path d="M 691.526541 383.397812 
L 691.526541 23.837812 
" style="fill: none; stroke: #000000; stroke-width: 0.8; stroke-linejoin: miter; stroke-linecap: square"/>
   </g>
   <g id="patch_35">
    <path d="M 48.90125 383.397812 
L 691.526541 383.397812 
" style="fill: none; stroke: #000000; stroke-width: 0.8; stroke-linejoin: miter; stroke-linecap: square"/>
   </g>
   <g id="patch_36">
    <path d="M 48.90125 23.837812 
L 691.526541 23.837812 
" style="fill: none; stroke: #000000; stroke-width: 0.8; stroke-linejoin: miter; stroke-linecap: square"/>
   </g>
   <g id="text_21">
    <g id="patch_37">
     <path d="M 61.753756 69.610137 
L 287.150631 69.610137 
Q 290.450631 69.610137 290.450631 66.310137 
L 290.450631 31.029012 
Q 290.450631 27.729012 287.150631 27.729012 
L 61.753756 27.729012 
Q 58.453756 27.729012 58.453756 31.029012 
L 58.453756 66.310137 
Q 58.453756 69.610137 61.753756 69.610137 
z
" style="fill: #ffffff; opacity: 0.9; stroke: #000000; stroke-linejoin: miter"/>
    </g>
    <!-- Effect size: -2.72σ -->
    <g transform="translate(61.753756 39.387294) scale(0.11 -0.11)">
     <defs>
      <path id="DejaVuSans-45" d="M 628 4666 
L 3578 4666 
L 3578 4134 
L 1259 4134 
L 1259 2753 
L 3481 2753 
L 3481 2222 
L 1259 2222 
L 1259 531 
L 3634 531 
L 3634 0 
L 628 0 
L 628 4666 
z
" transform="scale(0.015625)"/>
      <path id="DejaVuSans-66" d="M 2375 4863 
L 2375 4384 
L 1825 4384 
Q 1516 4384 1395 4259 
Q 1275 4134 1275 3809 
L 1275 3500 
L 2222 3500 
L 2222 3053 
L 1275 3053 
L 1275 0 
L 697 0 
L 697 3053 
L 147 3053 
L 147 3500 
L 697 3500 
L 697 3744 
Q 697 4328 969 4595 
Q 1241 4863 1831 4863 
L 2375 4863 
z
" transform="scale(0.015625)"/>
      <path id="DejaVuSans-7a" d="M 353 3500 
L 3084 3500 
L 3084 2975 
L 922 459 
L 3084 459 
L 3084 0 
L 275 0 
L 275 525 
L 2438 3041 
L 353 3041 
L 353 3500 
z
" transform="scale(0.015625)"/>
      <path id="DejaVuSans-3a" d="M 750 794 
L 1409 794 
L 1409 0 
L 750 0 
L 750 794 
z
M 750 3309 
L 1409 3309 
L 1409 2516 
L 750 2516 
L 750 3309 
z
" transform="scale(0.015625)"/>
      <path id="DejaVuSans-2d" d="M 313 2009 
L 1997 2009 
L 1997 1497 
L 313 1497 
L 313 2009 
z
" transform="scale(0.015625)"/>
      <path id="DejaVuSans-3c3" d="M 1959 3044 
Q 1484 3044 1228 2700 
Q 959 2341 959 1747 
Q 959 1119 1226 758 
Q 1494 397 1959 397 
Q 2419 397 2687 759 
Q 2956 1122 2956 1747 
Q 2956 2319 2688 2700 
Q 2441 3044 1959 3044 
z
M 1959 3500 
L 3869 3500 
L 3869 2925 
L 3225 2925 
Q 3566 2438 3566 1747 
Q 3566 888 3138 400 
Q 2709 -91 1959 -91 
Q 1206 -91 781 400 
Q 353 888 353 1747 
Q 353 2613 781 3097 
Q 1134 3500 1959 3500 
z
" transform="scale(0.015625)"/>
     </defs>
     <use xlink:href="#DejaVuSans-45"/>
     <use xlink:href="#DejaVuSans-66" transform="translate(63.183594 0)"/>
     <use xlink:href="#DejaVuSans-66" transform="translate(98.388672 0)"/>
     <use xlink:href="#DejaVuSans-65" transform="translate(133.59375 0)"/>
     <use xlink:href="#DejaVuSans-63" transform="translate(195.117188 0)"/>
     <use xlink:href="#DejaVuSans-74" transform="translate(250.097656 0)"/>
     <use xlink:href="#DejaVuSans-20" transform="translate(289.306641 0)"/>
     <use xlink:href="#DejaVuSans-73" transform="translate(321.09375 0)"/>
     <use xlink:href="#DejaVuSans-69" transform="translate(373.193359 0)"/>
     <use xlink:href="#DejaVuSans-7a" transform="translate(400.976562 0)"/>
     <use xlink:href="#DejaVuSans-65" transform="translate(453.466797 0)"/>
     <use xlink:href="#DejaVuSans-3a" transform="translate(514.990234 0)"/>
     <use xlink:href="#DejaVuSans-20" transform="translate(548.681641 0)"/>
     <use xlink:href="#DejaVuSans-2d" transform="translate(580.46875 0)"/>
     <use xlink:href="#DejaVuSans-32" transform="translate(616.552734 0)"/>
     <use xlink:href="#DejaVuSans-2e" transform="translate(680.175781 0)"/>
     <use xlink:href="#DejaVuSans-37" transform="translate(711.962891 0)"/>
     <use xlink:href="#DejaVuSans-32" transform="translate(775.585938 0)"/>
     <use xlink:href="#DejaVuSans-3c3" transform="translate(839.208984 0)"/>
    </g>
    <!-- p-value (LESS structured): 0.0000 *** -->
    <g transform="translate(61.753756 51.704887) scale(0.11 -0.11)">
     <defs>
      <path id="DejaVuSans-76" d="M 191 3500 
L 800 3500 
L 1894 563 
L 2988 3500 
L 3597 3500 
L 2284 0 
L 1503 0 
L 191 3500 
z
" transform="scale(0.015625)"/>
      <path id="DejaVuSans-6c" d="M 603 4863 
L 1178 4863 
L 1178 0 
L 603 0 
L 603 4863 
z
" transform="scale(0.015625)"/>
      <path id="DejaVuSans-75" d="M 544 1381 
L 544 3500 
L 1119 3500 
L 1119 1403 
Q 1119 906 1312 657 
Q 1506 409 1894 409 
Q 2359 409 2629 706 
Q 2900 1003 2900 1516 
L 2900 3500 
L 3475 3500 
L 3475 0 
L 2900 0 
L 2900 538 
Q 2691 219 2414 64 
Q 2138 -91 1772 -91 
Q 1169 -91 856 284 
Q 544 659 544 1381 
z
M 1991 3584 
L 1991 3584 
z
" transform="scale(0.015625)"/>
      <path id="DejaVuSans-28" d="M 1984 4856 
Q 1566 4138 1362 3434 
Q 1159 2731 1159 2009 
Q 1159 1288 1364 580 
Q 1569 -128 1984 -844 
L 1484 -844 
Q 1016 -109 783 600 
Q 550 1309 550 2009 
Q 550 2706 781 3412 
Q 1013 4119 1484 4856 
L 1984 4856 
z
" transform="scale(0.015625)"/>
      <path id="DejaVuSans-4c" d="M 628 4666 
L 1259 4666 
L 1259 531 
L 3531 531 
L 3531 0 
L 628 0 
L 628 4666 
z
" transform="scale(0.015625)"/>
      <path id="DejaVuSans-72" d="M 2631 2963 
Q 2534 3019 2420 3045 
Q 2306 3072 2169 3072 
Q 1681 3072 1420 2755 
Q 1159 2438 1159 1844 
L 1159 0 
L 581 0 
L 581 3500 
L 1159 3500 
L 1159 2956 
Q 1341 3275 1631 3429 
Q 1922 3584 2338 3584 
Q 2397 3584 2469 3576 
Q 2541 3569 2628 3553 
L 2631 2963 
z
" transform="scale(0.015625)"/>
      <path id="DejaVuSans-64" d="M 2906 2969 
L 2906 4863 
L 3481 4863 
L 3481 0 
L 2906 0 
L 2906 525 
Q 2725 213 2448 61 
Q 2172 -91 1784 -91 
Q 1150 -91 751 415 
Q 353 922 353 1747 
Q 353 2572 751 3078 
Q 1150 3584 1784 3584 
Q 2172 3584 2448 3432 
Q 2725 3281 2906 2969 
z
M 947 1747 
Q 947 1113 1208 752 
Q 1469 391 1925 391 
Q 2381 391 2643 752 
Q 2906 1113 2906 1747 
Q 2906 2381 2643 2742 
Q 2381 3103 1925 3103 
Q 1469 3103 1208 2742 
Q 947 2381 947 1747 
z
" transform="scale(0.015625)"/>
      <path id="DejaVuSans-29" d="M 513 4856 
L 1013 4856 
Q 1481 4119 1714 3412 
Q 1947 2706 1947 2009 
Q 1947 1309 1714 600 
Q 1481 -109 1013 -844 
L 513 -844 
Q 928 -128 1133 580 
Q 1338 1288 1338 2009 
Q 1338 2731 1133 3434 
Q 928 4138 513 4856 
z
" transform="scale(0.015625)"/>
      <path id="DejaVuSans-2a" d="M 3009 3897 
L 1888 3291 
L 3009 2681 
L 2828 2375 
L 1778 3009 
L 1778 1831 
L 1422 1831 
L 1422 3009 
L 372 2375 
L 191 2681 
L 1313 3291 
L 191 3897 
L 372 4206 
L 1422 3572 
L 1422 4750 
L 1778 4750 
L 1778 3572 
L 2828 4206 
L 3009 3897 
z
" transform="scale(0.015625)"/>
     </defs>
     <use xlink:href="#DejaVuSans-70"/>
     <use xlink:href="#DejaVuSans-2d" transform="translate(63.476562 0)"/>
     <use xlink:href="#DejaVuSans-76" transform="translate(96.935547 0)"/>
     <use xlink:href="#DejaVuSans-61" transform="translate(156.115234 0)"/>
     <use xlink:href="#DejaVuSans-6c" transform="translate(217.394531 0)"/>
     <use xlink:href="#DejaVuSans-75" transform="translate(245.177734 0)"/>
     <use xlink:href="#DejaVuSans-65" transform="translate(308.556641 0)"/>
     <use xlink:href="#DejaVuSans-20" transform="translate(370.080078 0)"/>
     <use xlink:href="#DejaVuSans-28" transform="translate(401.867188 0)"/>
     <use xlink:href="#DejaVuSans-4c" transform="translate(440.880859 0)"/>
     <use xlink:href="#DejaVuSans-45" transform="translate(496.59375 0)"/>
     <use xlink:href="#DejaVuSans-53" transform="translate(559.777344 0)"/>
     <use xlink:href="#DejaVuSans-53" transform="translate(623.253906 0)"/>
     <use xlink:href="#DejaVuSans-20" transform="translate(686.730469 0)"/>
     <use xlink:href="#DejaVuSans-73" transform="translate(718.517578 0)"/>
     <use xlink:href="#DejaVuSans-74" transform="translate(770.617188 0)"/>
     <use xlink:href="#DejaVuSans-72" transform="translate(809.826172 0)"/>
     <use xlink:href="#DejaVuSans-75" transform="translate(850.939453 0)"/>
     <use xlink:href="#DejaVuSans-63" transform="translate(914.318359 0)"/>
     <use xlink:href="#DejaVuSans-74" transform="translate(969.298828 0)"/>
     <use xlink:href="#DejaVuSans-75" transform="translate(1008.507812 0)"/>
     <use xlink:href="#DejaVuSans-72" transform="translate(1071.886719 0)"/>
     <use xlink:href="#DejaVuSans-65" transform="translate(1110.75 0)"/>
     <use xlink:href="#DejaVuSans-64" transform="translate(1172.273438 0)"/>
     <use xlink:href="#DejaVuSans-29" transform="translate(1235.75 0)"/>
     <use xlink:href="#DejaVuSans-3a" transform="translate(1274.763672 0)"/>
     <use xlink:href="#DejaVuSans-20" transform="translate(1308.455078 0)"/>
     <use xlink:href="#DejaVuSans-30" transform="translate(1340.242188 0)"/>
     <use xlink:href="#DejaVuSans-2e" transform="translate(1403.865234 0)"/>
     <use xlink:href="#DejaVuSans-30" transform="translate(1435.652344 0)"/>
     <use xlink:href="#DejaVuSans-30" transform="translate(1499.275391 0)"/>
     <use xlink:href="#DejaVuSans-30" transform="translate(1562.898438 0)"/>
     <use xlink:href="#DejaVuSans-30" transform="translate(1626.521484 0)"/>
     <use xlink:href="#DejaVuSans-20" transform="translate(1690.144531 0)"/>
     <use xlink:href="#DejaVuSans-2a" transform="translate(1721.931641 0)"/>
     <use xlink:href="#DejaVuSans-2a" transform="translate(1771.931641 0)"/>
     <use xlink:href="#DejaVuSans-2a" transform="translate(1821.931641 0)"/>
    </g>
    <!-- Real uTP is LESS structured than random -->
    <g transform="translate(61.753756 64.022481) scale(0.11 -0.11)">
     <defs>
      <path id="DejaVuSans-52" d="M 2841 2188 
Q 3044 2119 3236 1894 
Q 3428 1669 3622 1275 
L 4263 0 
L 3584 0 
L 2988 1197 
Q 2756 1666 2539 1819 
Q 2322 1972 1947 1972 
L 1259 1972 
L 1259 0 
L 628 0 
L 628 4666 
L 2053 4666 
Q 2853 4666 3247 4331 
Q 3641 3997 3641 3322 
Q 3641 2881 3436 2590 
Q 3231 2300 2841 2188 
z
M 1259 4147 
L 1259 2491 
L 2053 2491 
Q 2509 2491 2742 2702 
Q 2975 2913 2975 3322 
Q 2975 3731 2742 3939 
Q 2509 4147 2053 4147 
L 1259 4147 
z
" transform="scale(0.015625)"/>
      <path id="DejaVuSans-54" d="M -19 4666 
L 3928 4666 
L 3928 4134 
L 2272 4134 
L 2272 0 
L 1638 0 
L 1638 4134 
L -19 4134 
L -19 4666 
z
" transform="scale(0.015625)"/>
      <path id="DejaVuSans-50" d="M 1259 4147 
L 1259 2394 
L 2053 2394 
Q 2494 2394 2734 2622 
Q 2975 2850 2975 3272 
Q 2975 3691 2734 3919 
Q 2494 4147 2053 4147 
L 1259 4147 
z
M 628 4666 
L 2053 4666 
Q 2838 4666 3239 4311 
Q 3641 3956 3641 3272 
Q 3641 2581 3239 2228 
Q 2838 1875 2053 1875 
L 1259 1875 
L 1259 0 
L 628 0 
L 628 4666 
z
" transform="scale(0.015625)"/>
      <path id="DejaVuSans-68" d="M 3513 2113 
L 3513 0 
L 2938 0 
L 2938 2094 
Q 2938 2591 2744 2837 
Q 2550 3084 2163 3084 
Q 1697 3084 1428 2787 
Q 1159 2491 1159 1978 
L 1159 0 
L 581 0 
L 581 4863 
L 1159 4863 
L 1159 2956 
Q 1366 3272 1645 3428 
Q 1925 3584 2291 3584 
Q 2894 3584 3203 3211 
Q 3513 2838 3513 2113 
z
" transform="scale(0.015625)"/>
      <path id="DejaVuSans-6d" d="M 3328 2828 
Q 3544 3216 3844 3400 
Q 4144 3584 4550 3584 
Q 5097 3584 5394 3201 
Q 5691 2819 5691 2113 
L 5691 0 
L 5113 0 
L 5113 2094 
Q 5113 2597 4934 2840 
Q 4756 3084 4391 3084 
Q 3944 3084 3684 2787 
Q 3425 2491 3425 1978 
L 3425 0 
L 2847 0 
L 2847 2094 
Q 2847 2600 2669 2842 
Q 2491 3084 2119 3084 
Q 1678 3084 1418 2786 
Q 1159 2488 1159 1978 
L 1159 0 
L 581 0 
L 581 3500 
L 1159 3500 
L 1159 2956 
Q 1356 3278 1631 3431 
Q 1906 3584 2284 3584 
Q 2666 3584 2933 3390 
Q 3200 3197 3328 2828 
z
" transform="scale(0.015625)"/>
     </defs>
     <use xlink:href="#DejaVuSans-52"/>
     <use xlink:href="#DejaVuSans-65" transform="translate(64.982422 0)"/>
     <use xlink:href="#DejaVuSans-61" transform="translate(126.505859 0)"/>
     <use xlink:href="#DejaVuSans-6c" transform="translate(187.785156 0)"/>
     <use xlink:href="#DejaVuSans-20" transform="translate(215.568359 0)"/>
     <use xlink:href="#DejaVuSans-75" transform="translate(247.355469 0)"/>
     <use xlink:href="#DejaVuSans-54" transform="translate(310.734375 0)"/>
     <use xlink:href="#DejaVuSans-50" transform="translate(371.818359 0)"/>
     <use xlink:href="#DejaVuSans-20" transform="translate(432.121094 0)"/>
     <use xlink:href="#DejaVuSans-69" transform="translate(463.908203 0)"/>
     <use xlink:href="#DejaVuSans-73" transform="translate(491.691406 0)"/>
     <use xlink:href="#DejaVuSans-20" transform="translate(543.791016 0)"/>
     <use xlink:href="#DejaVuSans-4c" transform="translate(575.578125 0)"/>
     <use xlink:href="#DejaVuSans-45" transform="translate(631.291016 0)"/>
     <use xlink:href="#DejaVuSans-53" transform="translate(694.474609 0)"/>
     <use xlink:href="#DejaVuSans-53" transform="translate(757.951172 0)"/>
     <use xlink:href="#DejaVuSans-20" transform="translate(821.427734 0)"/>
     <use xlink:href="#DejaVuSans-73" transform="translate(853.214844 0)"/>
     <use xlink:href="#DejaVuSans-74" transform="translate(905.314453 0)"/>
     <use xlink:href="#DejaVuSans-72" transform="translate(944.523438 0)"/>
     <use xlink:href="#DejaVuSans-75" transform="translate(985.636719 0)"/>
     <use xlink:href="#DejaVuSans-63" transform="translate(1049.015625 0)"/>
     <use xlink:href="#DejaVuSans-74" transform="translate(1103.996094 0)"/>
     <use xlink:href="#DejaVuSans-75" transform="translate(1143.205078 0)"/>
     <use xlink:href="#DejaVuSans-72" transform="translate(1206.583984 0)"/>
     <use xlink:href="#DejaVuSans-65" transform="translate(1245.447266 0)"/>
     <use xlink:href="#DejaVuSans-64" transform="translate(1306.970703 0)"/>
     <use xlink:href="#DejaVuSans-20" transform="translate(1370.447266 0)"/>
     <use xlink:href="#DejaVuSans-74" transform="translate(1402.234375 0)"/>
     <use xlink:href="#DejaVuSans-68" transform="translate(1441.443359 0)"/>
     <use xlink:href="#DejaVuSans-61" transform="translate(1504.822266 0)"/>
     <use xlink:href="#DejaVuSans-6e" transform="translate(1566.101562 0)"/>
     <use xlink:href="#DejaVuSans-20" transform="translate(1629.480469 0)"/>
     <use xlink:href="#DejaVuSans-72" transform="translate(1661.267578 0)"/>
     <use xlink:href="#DejaVuSans-61" transform="translate(1702.380859 0)"/>
     <use xlink:href="#DejaVuSans-6e" transform="translate(1763.660156 0)"/>
     <use xlink:href="#DejaVuSans-64" transform="translate(1827.039062 0)"/>
     <use xlink:href="#DejaVuSans-6f" transform="translate(1890.515625 0)"/>
     <use xlink:href="#DejaVuSans-6d" transform="translate(1951.697266 0)"/>
    </g>
   </g>
   <g id="text_22">
    <!-- HMM-predicted: Real vs Null Hopkins Statistic -->
    <g transform="translate(210.79327 17.837812) scale(0.14 -0.14)">
     <defs>
      <path id="DejaVuSans-4d" d="M 628 4666 
L 1569 4666 
L 2759 1491 
L 3956 4666 
L 4897 4666 
L 4897 0 
L 4281 0 
L 4281 4097 
L 3078 897 
L 2444 897 
L 1241 4097 
L 1241 0 
L 628 0 
L 628 4666 
z
" transform="scale(0.015625)"/>
      <path id="DejaVuSans-4e" d="M 628 4666 
L 1478 4666 
L 3547 763 
L 3547 4666 
L 4159 4666 
L 4159 0 
L 3309 0 
L 1241 3903 
L 1241 0 
L 628 0 
L 628 4666 
z
" transform="scale(0.015625)"/>
     </defs>
     <use xlink:href="#DejaVuSans-48"/>
     <use xlink:href="#DejaVuSans-4d" transform="translate(75.195312 0)"/>
     <use xlink:href="#DejaVuSans-4d" transform="translate(161.474609 0)"/>
     <use xlink:href="#DejaVuSans-2d" transform="translate(247.753906 0)"/>
     <use xlink:href="#DejaVuSans-70" transform="translate(283.837891 0)"/>
     <use xlink:href="#DejaVuSans-72" transform="translate(347.314453 0)"/>
     <use xlink:href="#DejaVuSans-65" transform="translate(386.177734 0)"/>
     <use xlink:href="#DejaVuSans-64" transform="translate(447.701172 0)"/>
     <use xlink:href="#DejaVuSans-69" transform="translate(511.177734 0)"/>
     <use xlink:href="#DejaVuSans-63" transform="translate(538.960938 0)"/>
     <use xlink:href="#DejaVuSans-74" transform="translate(593.941406 0)"/>
     <use xlink:href="#DejaVuSans-65" transform="translate(633.150391 0)"/>
     <use xlink:href="#DejaVuSans-64" transform="translate(694.673828 0)"/>
     <use xlink:href="#DejaVuSans-3a" transform="translate(758.150391 0)"/>
     <use xlink:href="#DejaVuSans-20" transform="translate(791.841797 0)"/>
     <use xlink:href="#DejaVuSans-52" transform="translate(823.628906 0)"/>
     <use xlink:href="#DejaVuSans-65" transform="translate(888.611328 0)"/>
     <use xlink:href="#DejaVuSans-61" transform="translate(950.134766 0)"/>
     <use xlink:href="#DejaVuSans-6c" transform="translate(1011.414062 0)"/>
     <use xlink:href="#DejaVuSans-20" transform="translate(1039.197266 0)"/>
     <use xlink:href="#DejaVuSans-76" transform="translate(1070.984375 0)"/>
     <use xlink:href="#DejaVuSans-73" transform="translate(1130.164062 0)"/>
     <use xlink:href="#DejaVuSans-20" transform="translate(1182.263672 0)"/>
     <use xlink:href="#DejaVuSans-4e" transform="translate(1214.050781 0)"/>
     <use xlink:href="#DejaVuSans-75" transform="translate(1288.855469 0)"/>
     <use xlink:href="#DejaVuSans-6c" transform="translate(1352.234375 0)"/>
     <use xlink:href="#DejaVuSans-6c" transform="translate(1380.017578 0)"/>
     <use xlink:href="#DejaVuSans-20" transform="translate(1407.800781 0)"/>
     <use xlink:href="#DejaVuSans-48" transform="translate(1439.587891 0)"/>
     <use xlink:href="#DejaVuSans-6f" transform="translate(1514.783203 0)"/>
     <use xlink:href="#DejaVuSans-70" transform="translate(1575.964844 0)"/>
     <use xlink:href="#DejaVuSans-6b" transform="translate(1639.441406 0)"/>
     <use xlink:href="#DejaVuSans-69" transform="translate(1697.351562 0)"/>
     <use xlink:href="#DejaVuSans-6e" transform="translate(1725.134766 0)"/>
     <use xlink:href="#DejaVuSans-73" transform="translate(1788.513672 0)"/>
     <use xlink:href="#DejaVuSans-20" transform="translate(1840.613281 0)"/>
     <use xlink:href="#DejaVuSans-53" transform="translate(1872.400391 0)"/>
     <use xlink:href="#DejaVuSans-74" transform="translate(1935.876953 0)"/>
     <use xlink:href="#DejaVuSans-61" transform="translate(1975.085938 0)"/>
     <use xlink:href="#DejaVuSans-74" transform="translate(2036.365234 0)"/>
     <use xlink:href="#DejaVuSans-69" transform="translate(2075.574219 0)"/>
     <use xlink:href="#DejaVuSans-73" transform="translate(2103.357422 0)"/>
     <use xlink:href="#DejaVuSans-74" transform="translate(2155.457031 0)"/>
     <use xlink:href="#DejaVuSans-69" transform="translate(2194.666016 0)"/>
     <use xlink:href="#DejaVuSans-63" transform="translate(2222.449219 0)"/>
    </g>
   </g>
   <g id="legend_1">
    <g id="patch_38">
     <path d="M 528.201541 75.872187 
L 684.526541 75.872187 
Q 686.526541 75.872187 686.526541 73.872187 
L 686.526541 30.837812 
Q 686.526541 28.837812 684.526541 28.837812 
L 528.201541 28.837812 
Q 526.201541 28.837812 526.201541 30.837812 
L 526.201541 73.872187 
Q 526.201541 75.872187 528.201541 75.872187 
z
" style="fill: #ffffff; opacity: 0.8; stroke: #cccccc; stroke-linejoin: miter"/>
    </g>
    <g id="patch_39">
     <path d="M 530.201541 40.43625 
L 550.201541 40.43625 
L 550.201541 33.43625 
L 530.201541 33.43625 
z
" style="fill: #3498db; opacity: 0.7; stroke: #ffffff; stroke-linejoin: miter"/>
    </g>
    <g id="text_23">
     <!-- Null distribution (n=100) -->
     <g transform="translate(558.201541 40.43625) scale(0.1 -0.1)">
      <defs>
       <path id="DejaVuSans-62" d="M 3116 1747 
Q 3116 2381 2855 2742 
Q 2594 3103 2138 3103 
Q 1681 3103 1420 2742 
Q 1159 2381 1159 1747 
Q 1159 1113 1420 752 
Q 1681 391 2138 391 
Q 2594 391 2855 752 
Q 3116 1113 3116 1747 
z
M 1159 2969 
Q 1341 3281 1617 3432 
Q 1894 3584 2278 3584 
Q 2916 3584 3314 3078 
Q 3713 2572 3713 1747 
Q 3713 922 3314 415 
Q 2916 -91 2278 -91 
Q 1894 -91 1617 61 
Q 1341 213 1159 525 
L 1159 0 
L 581 0 
L 581 4863 
L 1159 4863 
L 1159 2969 
z
" transform="scale(0.015625)"/>
       <path id="DejaVuSans-3d" d="M 678 2906 
L 4684 2906 
L 4684 2381 
L 678 2381 
L 678 2906 
z
M 678 1631 
L 4684 1631 
L 4684 1100 
L 678 1100 
L 678 1631 
z
" transform="scale(0.015625)"/>
      </defs>
      <use xlink:href="#DejaVuSans-4e"/>
      <use xlink:href="#DejaVuSans-75" transform="translate(74.804688 0)"/>
      <use xlink:href="#DejaVuSans-6c" transform="translate(138.183594 0)"/>
      <use xlink:href="#DejaVuSans-6c" transform="translate(165.966797 0)"/>
      <use xlink:href="#DejaVuSans-20" transform="translate(193.75 0)"/>
      <use xlink:href="#DejaVuSans-64" transform="translate(225.537109 0)"/>
      <use xlink:href="#DejaVuSans-69" transform="translate(289.013672 0)"/>
      <use xlink:href="#DejaVuSans-73" transform="translate(316.796875 0)"/>
      <use xlink:href="#DejaVuSans-74" transform="translate(368.896484 0)"/>
      <use xlink:href="#DejaVuSans-72" transform="translate(408.105469 0)"/>
      <use xlink:href="#DejaVuSans-69" transform="translate(449.21875 0)"/>
      <use xlink:href="#DejaVuSans-62" transform="translate(477.001953 0)"/>
      <use xlink:href="#DejaVuSans-75" transform="translate(540.478516 0)"/>
      <use xlink:href="#DejaVuSans-74" transform="translate(603.857422 0)"/>
      <use xlink:href="#DejaVuSans-69" transform="translate(643.066406 0)"/>
      <use xlink:href="#DejaVuSans-6f" transform="translate(670.849609 0)"/>
      <use xlink:href="#DejaVuSans-6e" transform="translate(732.03125 0)"/>
      <use xlink:href="#DejaVuSans-20" transform="translate(795.410156 0)"/>
      <use xlink:href="#DejaVuSans-28" transform="translate(827.197266 0)"/>
      <use xlink:href="#DejaVuSans-6e" transform="translate(866.210938 0)"/>
      <use xlink:href="#DejaVuSans-3d" transform="translate(929.589844 0)"/>
      <use xlink:href="#DejaVuSans-31" transform="translate(1013.378906 0)"/>
      <use xlink:href="#DejaVuSans-30" transform="translate(1077.001953 0)"/>
      <use xlink:href="#DejaVuSans-30" transform="translate(1140.625 0)"/>
      <use xlink:href="#DejaVuSans-29" transform="translate(1204.248047 0)"/>
     </g>
    </g>
    <g id="line2d_21">
     <path d="M 530.201541 51.614375 
L 540.201541 51.614375 
L 550.201541 51.614375 
" style="fill: none; stroke: #e74c3c; stroke-width: 2.5; stroke-linecap: square"/>
    </g>
    <g id="text_24">
     <!-- Observed: 0.212 -->
     <g transform="translate(558.201541 55.114375) scale(0.1 -0.1)">
      <defs>
       <path id="DejaVuSans-4f" d="M 2522 4238 
Q 1834 4238 1429 3725 
Q 1025 3213 1025 2328 
Q 1025 1447 1429 934 
Q 1834 422 2522 422 
Q 3209 422 3611 934 
Q 4013 1447 4013 2328 
Q 4013 3213 3611 3725 
Q 3209 4238 2522 4238 
z
M 2522 4750 
Q 3503 4750 4090 4092 
Q 4678 3434 4678 2328 
Q 4678 1225 4090 567 
Q 3503 -91 2522 -91 
Q 1538 -91 948 565 
Q 359 1222 359 2328 
Q 359 3434 948 4092 
Q 1538 4750 2522 4750 
z
" transform="scale(0.015625)"/>
      </defs>
      <use xlink:href="#DejaVuSans-4f"/>
      <use xlink:href="#DejaVuSans-62" transform="translate(78.710938 0)"/>
      <use xlink:href="#DejaVuSans-73" transform="translate(142.1875 0)"/>
      <use xlink:href="#DejaVuSans-65" transform="translate(194.287109 0)"/>
      <use xlink:href="#DejaVuSans-72" transform="translate(255.810547 0)"/>
      <use xlink:href="#DejaVuSans-76" transform="translate(296.923828 0)"/>
      <use xlink:href="#DejaVuSans-65" transform="translate(356.103516 0)"/>
      <use xlink:href="#DejaVuSans-64" transform="translate(417.626953 0)"/>
      <use xlink:href="#DejaVuSans-3a" transform="translate(481.103516 0)"/>
      <use xlink:href="#DejaVuSans-20" transform="translate(514.794922 0)"/>
      <use xlink:href="#DejaVuSans-30" transform="translate(546.582031 0)"/>
      <use xlink:href="#DejaVuSans-2e" transform="translate(610.205078 0)"/>
      <use xlink:href="#DejaVuSans-32" transform="translate(641.992188 0)"/>
      <use xlink:href="#DejaVuSans-31" transform="translate(705.615234 0)"/>
      <use xlink:href="#DejaVuSans-32" transform="translate(769.238281 0)"/>
     </g>
    </g>
    <g id="line2d_22">
     <path d="M 530.201541 66.2925 
L 540.201541 66.2925 
L 550.201541 66.2925 
" style="fill: none; stroke-dasharray: 7.4,3.2; stroke-dashoffset: 0; stroke: #2ecc71; stroke-width: 2"/>
    </g>
    <g id="text_25">
     <!-- Null mean: 0.222 -->
     <g transform="translate(558.201541 69.7925) scale(0.1 -0.1)">
      <use xlink:href="#DejaVuSans-4e"/>
      <use xlink:href="#DejaVuSans-75" transform="translate(74.804688 0)"/>
      <use xlink:href="#DejaVuSans-6c" transform="translate(138.183594 0)"/>
      <use xlink:href="#DejaVuSans-6c" transform="translate(165.966797 0)"/>
      <use xlink:href="#DejaVuSans-20" transform="translate(193.75 0)"/>
      <use xlink:href="#DejaVuSans-6d" transform="translate(225.537109 0)"/>
      <use xlink:href="#DejaVuSans-65" transform="translate(322.949219 0)"/>
      <use xlink:href="#DejaVuSans-61" transform="translate(384.472656 0)"/>
      <use xlink:href="#DejaVuSans-6e" transform="translate(445.751953 0)"/>
      <use xlink:href="#DejaVuSans-3a" transform="translate(509.130859 0)"/>
      <use xlink:href="#DejaVuSans-20" transform="translate(542.822266 0)"/>
      <use xlink:href="#DejaVuSans-30" transform="translate(574.609375 0)"/>
      <use xlink:href="#DejaVuSans-2e" transform="translate(638.232422 0)"/>
      <use xlink:href="#DejaVuSans-32" transform="translate(670.019531 0)"/>
      <use xlink:href="#DejaVuSans-32" transform="translate(733.642578 0)"/>
      <use xlink:href="#DejaVuSans-32" transform="translate(797.265625 0)"/>
     </g>
    </g>
   </g>
  </g>
 </g>
 <defs>
  <clipPath id="p695eb05dd6">
   <rect x="48.90125" y="23.837812" width="642.625291" height="359.56"/>
  </clipPath>
 </defs>
</svg>
