<?xml version="1.0" encoding="utf-8" standalone="no"?>
<!DOCTYPE svg PUBLIC "-//W3C//DTD SVG 1.1//EN"
  "http://www.w3.org/Graphics/SVG/1.1/DTD/svg11.dtd">
<svg xmlns:xlink="http://www.w3.org/1999/xlink" width="711.548437pt" height="566.889688pt" viewBox="0 0 711.548437 566.889688" xmlns="http://www.w3.org/2000/svg" version="1.1">
 <metadata>
  <rdf:RDF xmlns:dc="http://purl.org/dc/elements/1.1/" xmlns:cc="http://creativecommons.org/ns#" xmlns:rdf="http://www.w3.org/1999/02/22-rdf-syntax-ns#">
   <cc:Work>
    <dc:type rdf:resource="http://purl.org/dc/dcmitype/StillImage"/>
    <dc:date>2026-01-13T11:14:51.801240</dc:date>
    <dc:format>image/svg+xml</dc:format>
    <dc:creator>
     <cc:Agent>
      <dc:title>Matplotlib v3.9.2, https://matplotlib.org/</dc:title>
     </cc:Agent>
    </dc:creator>
   </cc:Work>
  </rdf:RDF>
 </metadata>
 <defs>
  <style type="text/css">*{stroke-linejoin: round; stroke-linecap: butt}</style>
 </defs>
 <g id="figure_1">
  <g id="patch_1">
   <path d="M 0 566.889688 
L 711.548437 566.889688 
L 711.548437 0 
L 0 0 
z
" style="fill: #ffffff"/>
  </g>
  <g id="axes_1">
   <g id="patch_2">
    <path d="M 45.716875 527.397812 
L 696.396875 527.397812 
L 696.396875 23.837812 
L 45.716875 23.837812 
z
" style="fill: #ffffff"/>
   </g>
   <g id="matplotlib.axis_1">
    <g id="xtick_1">
     <g id="line2d_1">
      <defs>
       <path id="m432d8e378f" d="M 0 0 
L 0 3.5 
" style="stroke: #000000; stroke-width: 0.8"/>
      </defs>
      <g>
       <use xlink:href="#m432d8e378f" x="45.716875" y="527.397812" style="stroke: #000000; stroke-width: 0.8"/>
      </g>
     </g>
     <g id="text_1">
      <!-- 0.0 -->
      <g transform="translate(37.765313 541.99625) scale(0.1 -0.1)">
       <defs>
        <path id="DejaVuSans-30" d="M 2034 4250 
Q 1547 4250 1301 3770 
Q 1056 3291 1056 2328 
Q 1056 1369 1301 889 
Q 1547 409 2034 409 
Q 2525 409 2770 889 
Q 3016 1369 3016 2328 
Q 3016 3291 2770 3770 
Q 2525 4250 2034 4250 
z
M 2034 4750 
Q 2819 4750 3233 4129 
Q 3647 3509 3647 2328 
Q 3647 1150 3233 529 
Q 2819 -91 2034 -91 
Q 1250 -91 836 529 
Q 422 1150 422 2328 
Q 422 3509 836 4129 
Q 1250 4750 2034 4750 
z
" transform="scale(0.015625)"/>
        <path id="DejaVuSans-2e" d="M 684 794 
L 1344 794 
L 1344 0 
L 684 0 
L 684 794 
z
" transform="scale(0.015625)"/>
       </defs>
       <use xlink:href="#DejaVuSans-30"/>
       <use xlink:href="#DejaVuSans-2e" x="63.623047"/>
       <use xlink:href="#DejaVuSans-30" x="95.410156"/>
      </g>
     </g>
    </g>
    <g id="xtick_2">
     <g id="line2d_2">
      <g>
       <use xlink:href="#m432d8e378f" x="175.852875" y="527.397812" style="stroke: #000000; stroke-width: 0.8"/>
      </g>
     </g>
     <g id="text_2">
      <!-- 0.2 -->
      <g transform="translate(167.901313 541.99625) scale(0.1 -0.1)">
       <defs>
        <path id="DejaVuSans-32" d="M 1228 531 
L 3431 531 
L 3431 0 
L 469 0 
L 469 531 
Q 828 903 1448 1529 
Q 2069 2156 2228 2338 
Q 2531 2678 2651 2914 
Q 2772 3150 2772 3378 
Q 2772 3750 2511 3984 
Q 2250 4219 1831 4219 
Q 1534 4219 1204 4116 
Q 875 4013 500 3803 
L 500 4441 
Q 881 4594 1212 4672 
Q 1544 4750 1819 4750 
Q 2544 4750 2975 4387 
Q 3406 4025 3406 3419 
Q 3406 3131 3298 2873 
Q 3191 2616 2906 2266 
Q 2828 2175 2409 1742 
Q 1991 1309 1228 531 
z
" transform="scale(0.015625)"/>
       </defs>
       <use xlink:href="#DejaVuSans-30"/>
       <use xlink:href="#DejaVuSans-2e" x="63.623047"/>
       <use xlink:href="#DejaVuSans-32" x="95.410156"/>
      </g>
     </g>
    </g>
    <g id="xtick_3">
     <g id="line2d_3">
      <g>
       <use xlink:href="#m432d8e378f" x="305.988875" y="527.397812" style="stroke: #000000; stroke-width: 0.8"/>
      </g>
     </g>
     <g id="text_3">
      <!-- 0.4 -->
      <g transform="translate(298.037313 541.99625) scale(0.1 -0.1)">
       <defs>
        <path id="DejaVuSans-34" d="M 2419 4116 
L 825 1625 
L 2419 1625 
L 2419 4116 
z
M 2253 4666 
L 3047 4666 
L 3047 1625 
L 3713 1625 
L 3713 1100 
L 3047 1100 
L 3047 0 
L 2419 0 
L 2419 1100 
L 313 1100 
L 313 1709 
L 2253 4666 
z
" transform="scale(0.015625)"/>
       </defs>
       <use xlink:href="#DejaVuSans-30"/>
       <use xlink:href="#DejaVuSans-2e" x="63.623047"/>
       <use xlink:href="#DejaVuSans-34" x="95.410156"/>
      </g>
     </g>
    </g>
    <g id="xtick_4">
     <g id="line2d_4">
      <g>
       <use xlink:href="#m432d8e378f" x="436.124875" y="527.397812" style="stroke: #000000; stroke-width: 0.8"/>
      </g>
     </g>
     <g id="text_4">
      <!-- 0.6 -->
      <g transform="translate(428.173313 541.99625) scale(0.1 -0.1)">
       <defs>
        <path id="DejaVuSans-36" d="M 2113 2584 
Q 1688 2584 1439 2293 
Q 1191 2003 1191 1497 
Q 1191 994 1439 701 
Q 1688 409 2113 409 
Q 2538 409 2786 701 
Q 3034 994 3034 1497 
Q 3034 2003 2786 2293 
Q 2538 2584 2113 2584 
z
M 3366 4563 
L 3366 3988 
Q 3128 4100 2886 4159 
Q 2644 4219 2406 4219 
Q 1781 4219 1451 3797 
Q 1122 3375 1075 2522 
Q 1259 2794 1537 2939 
Q 1816 3084 2150 3084 
Q 2853 3084 3261 2657 
Q 3669 2231 3669 1497 
Q 3669 778 3244 343 
Q 2819 -91 2113 -91 
Q 1303 -91 875 529 
Q 447 1150 447 2328 
Q 447 3434 972 4092 
Q 1497 4750 2381 4750 
Q 2619 4750 2861 4703 
Q 3103 4656 3366 4563 
z
" transform="scale(0.015625)"/>
       </defs>
       <use xlink:href="#DejaVuSans-30"/>
       <use xlink:href="#DejaVuSans-2e" x="63.623047"/>
       <use xlink:href="#DejaVuSans-36" x="95.410156"/>
      </g>
     </g>
    </g>
    <g id="xtick_5">
     <g id="line2d_5">
      <g>
       <use xlink:href="#m432d8e378f" x="566.260875" y="527.397812" style="stroke: #000000; stroke-width: 0.8"/>
      </g>
     </g>
     <g id="text_5">
      <!-- 0.8 -->
      <g transform="translate(558.309313 541.99625) scale(0.1 -0.1)">
       <defs>
        <path id="DejaVuSans-38" d="M 2034 2216 
Q 1584 2216 1326 1975 
Q 1069 1734 1069 1313 
Q 1069 891 1326 650 
Q 1584 409 2034 409 
Q 2484 409 2743 651 
Q 3003 894 3003 1313 
Q 3003 1734 2745 1975 
Q 2488 2216 2034 2216 
z
M 1403 2484 
Q 997 2584 770 2862 
Q 544 3141 544 3541 
Q 544 4100 942 4425 
Q 1341 4750 2034 4750 
Q 2731 4750 3128 4425 
Q 3525 4100 3525 3541 
Q 3525 3141 3298 2862 
Q 3072 2584 2669 2484 
Q 3125 2378 3379 2068 
Q 3634 1759 3634 1313 
Q 3634 634 3220 271 
Q 2806 -91 2034 -91 
Q 1263 -91 848 271 
Q 434 634 434 1313 
Q 434 1759 690 2068 
Q 947 2378 1403 2484 
z
M 1172 3481 
Q 1172 3119 1398 2916 
Q 1625 2713 2034 2713 
Q 2441 2713 2670 2916 
Q 2900 3119 2900 3481 
Q 2900 3844 2670 4047 
Q 2441 4250 2034 4250 
Q 1625 4250 1398 4047 
Q 1172 3844 1172 3481 
z
" transform="scale(0.015625)"/>
       </defs>
       <use xlink:href="#DejaVuSans-30"/>
       <use xlink:href="#DejaVuSans-2e" x="63.623047"/>
       <use xlink:href="#DejaVuSans-38" x="95.410156"/>
      </g>
     </g>
    </g>
    <g id="xtick_6">
     <g id="line2d_6">
      <g>
       <use xlink:href="#m432d8e378f" x="696.396875" y="527.397812" style="stroke: #000000; stroke-width: 0.8"/>
      </g>
     </g>
     <g id="text_6">
      <!-- 1.0 -->
      <g transform="translate(688.445312 541.99625) scale(0.1 -0.1)">
       <defs>
        <path id="DejaVuSans-31" d="M 794 531 
L 1825 531 
L 1825 4091 
L 703 3866 
L 703 4441 
L 1819 4666 
L 2450 4666 
L 2450 531 
L 3481 531 
L 3481 0 
L 794 0 
L 794 531 
z
" transform="scale(0.015625)"/>
       </defs>
       <use xlink:href="#DejaVuSans-31"/>
       <use xlink:href="#DejaVuSans-2e" x="63.623047"/>
       <use xlink:href="#DejaVuSans-30" x="95.410156"/>
      </g>
     </g>
    </g>
    <g id="text_7">
     <!-- Recall -->
     <g transform="translate(353.15625 557.194063) scale(0.12 -0.12)">
      <defs>
       <path id="DejaVuSans-52" d="M 2841 2188 
Q 3044 2119 3236 1894 
Q 3428 1669 3622 1275 
L 4263 0 
L 3584 0 
L 2988 1197 
Q 2756 1666 2539 1819 
Q 2322 1972 1947 1972 
L 1259 1972 
L 1259 0 
L 628 0 
L 628 4666 
L 2053 4666 
Q 2853 4666 3247 4331 
Q 3641 3997 3641 3322 
Q 3641 2881 3436 2590 
Q 3231 2300 2841 2188 
z
M 1259 4147 
L 1259 2491 
L 2053 2491 
Q 2509 2491 2742 2702 
Q 2975 2913 2975 3322 
Q 2975 3731 2742 3939 
Q 2509 4147 2053 4147 
L 1259 4147 
z
" transform="scale(0.015625)"/>
       <path id="DejaVuSans-65" d="M 3597 1894 
L 3597 1613 
L 953 1613 
Q 991 1019 1311 708 
Q 1631 397 2203 397 
Q 2534 397 2845 478 
Q 3156 559 3463 722 
L 3463 178 
Q 3153 47 2828 -22 
Q 2503 -91 2169 -91 
Q 1331 -91 842 396 
Q 353 884 353 1716 
Q 353 2575 817 3079 
Q 1281 3584 2069 3584 
Q 2775 3584 3186 3129 
Q 3597 2675 3597 1894 
z
M 3022 2063 
Q 3016 2534 2758 2815 
Q 2500 3097 2075 3097 
Q 1594 3097 1305 2825 
Q 1016 2553 972 2059 
L 3022 2063 
z
" transform="scale(0.015625)"/>
       <path id="DejaVuSans-63" d="M 3122 3366 
L 3122 2828 
Q 2878 2963 2633 3030 
Q 2388 3097 2138 3097 
Q 1578 3097 1268 2742 
Q 959 2388 959 1747 
Q 959 1106 1268 751 
Q 1578 397 2138 397 
Q 2388 397 2633 464 
Q 2878 531 3122 666 
L 3122 134 
Q 2881 22 2623 -34 
Q 2366 -91 2075 -91 
Q 1284 -91 818 406 
Q 353 903 353 1747 
Q 353 2603 823 3093 
Q 1294 3584 2113 3584 
Q 2378 3584 2631 3529 
Q 2884 3475 3122 3366 
z
" transform="scale(0.015625)"/>
       <path id="DejaVuSans-61" d="M 2194 1759 
Q 1497 1759 1228 1600 
Q 959 1441 959 1056 
Q 959 750 1161 570 
Q 1363 391 1709 391 
Q 2188 391 2477 730 
Q 2766 1069 2766 1631 
L 2766 1759 
L 2194 1759 
z
M 3341 1997 
L 3341 0 
L 2766 0 
L 2766 531 
Q 2569 213 2275 61 
Q 1981 -91 1556 -91 
Q 1019 -91 701 211 
Q 384 513 384 1019 
Q 384 1609 779 1909 
Q 1175 2209 1959 2209 
L 2766 2209 
L 2766 2266 
Q 2766 2663 2505 2880 
Q 2244 3097 1772 3097 
Q 1472 3097 1187 3025 
Q 903 2953 641 2809 
L 641 3341 
Q 956 3463 1253 3523 
Q 1550 3584 1831 3584 
Q 2591 3584 2966 3190 
Q 3341 2797 3341 1997 
z
" transform="scale(0.015625)"/>
       <path id="DejaVuSans-6c" d="M 603 4863 
L 1178 4863 
L 1178 0 
L 603 0 
L 603 4863 
z
" transform="scale(0.015625)"/>
      </defs>
      <use xlink:href="#DejaVuSans-52"/>
      <use xlink:href="#DejaVuSans-65" x="64.982422"/>
      <use xlink:href="#DejaVuSans-63" x="126.505859"/>
      <use xlink:href="#DejaVuSans-61" x="181.486328"/>
      <use xlink:href="#DejaVuSans-6c" x="242.765625"/>
      <use xlink:href="#DejaVuSans-6c" x="270.548828"/>
     </g>
    </g>
   </g>
   <g id="matplotlib.axis_2">
    <g id="ytick_1">
     <g id="line2d_7">
      <defs>
       <path id="mb1c496cbe0" d="M 0 0 
L -3.5 0 
" style="stroke: #000000; stroke-width: 0.8"/>
      </defs>
      <g>
       <use xlink:href="#mb1c496cbe0" x="45.716875" y="527.397812" style="stroke: #000000; stroke-width: 0.8"/>
      </g>
     </g>
     <g id="text_8">
      <!-- 0.0 -->
      <g transform="translate(22.81375 531.197031) scale(0.1 -0.1)">
       <use xlink:href="#DejaVuSans-30"/>
       <use xlink:href="#DejaVuSans-2e" x="63.623047"/>
       <use xlink:href="#DejaVuSans-30" x="95.410156"/>
      </g>
     </g>
    </g>
    <g id="ytick_2">
     <g id="line2d_8">
      <g>
       <use xlink:href="#mb1c496cbe0" x="45.716875" y="431.481622" style="stroke: #000000; stroke-width: 0.8"/>
      </g>
     </g>
     <g id="text_9">
      <!-- 0.2 -->
      <g transform="translate(22.81375 435.280841) scale(0.1 -0.1)">
       <use xlink:href="#DejaVuSans-30"/>
       <use xlink:href="#DejaVuSans-2e" x="63.623047"/>
       <use xlink:href="#DejaVuSans-32" x="95.410156"/>
      </g>
     </g>
    </g>
    <g id="ytick_3">
     <g id="line2d_9">
      <g>
       <use xlink:href="#mb1c496cbe0" x="45.716875" y="335.565432" style="stroke: #000000; stroke-width: 0.8"/>
      </g>
     </g>
     <g id="text_10">
      <!-- 0.4 -->
      <g transform="translate(22.81375 339.36465) scale(0.1 -0.1)">
       <use xlink:href="#DejaVuSans-30"/>
       <use xlink:href="#DejaVuSans-2e" x="63.623047"/>
       <use xlink:href="#DejaVuSans-34" x="95.410156"/>
      </g>
     </g>
    </g>
    <g id="ytick_4">
     <g id="line2d_10">
      <g>
       <use xlink:href="#mb1c496cbe0" x="45.716875" y="239.649241" style="stroke: #000000; stroke-width: 0.8"/>
      </g>
     </g>
     <g id="text_11">
      <!-- 0.6 -->
      <g transform="translate(22.81375 243.44846) scale(0.1 -0.1)">
       <use xlink:href="#DejaVuSans-30"/>
       <use xlink:href="#DejaVuSans-2e" x="63.623047"/>
       <use xlink:href="#DejaVuSans-36" x="95.410156"/>
      </g>
     </g>
    </g>
    <g id="ytick_5">
     <g id="line2d_11">
      <g>
       <use xlink:href="#mb1c496cbe0" x="45.716875" y="143.733051" style="stroke: #000000; stroke-width: 0.8"/>
      </g>
     </g>
     <g id="text_12">
      <!-- 0.8 -->
      <g transform="translate(22.81375 147.532269) scale(0.1 -0.1)">
       <use xlink:href="#DejaVuSans-30"/>
       <use xlink:href="#DejaVuSans-2e" x="63.623047"/>
       <use xlink:href="#DejaVuSans-38" x="95.410156"/>
      </g>
     </g>
    </g>
    <g id="ytick_6">
     <g id="line2d_12">
      <g>
       <use xlink:href="#mb1c496cbe0" x="45.716875" y="47.81686" style="stroke: #000000; stroke-width: 0.8"/>
      </g>
     </g>
     <g id="text_13">
      <!-- 1.0 -->
      <g transform="translate(22.81375 51.616079) scale(0.1 -0.1)">
       <use xlink:href="#DejaVuSans-31"/>
       <use xlink:href="#DejaVuSans-2e" x="63.623047"/>
       <use xlink:href="#DejaVuSans-30" x="95.410156"/>
      </g>
     </g>
    </g>
    <g id="text_14">
     <!-- Precision -->
     <g transform="translate(16.318125 302.38625) rotate(-90) scale(0.12 -0.12)">
      <defs>
       <path id="DejaVuSans-50" d="M 1259 4147 
L 1259 2394 
L 2053 2394 
Q 2494 2394 2734 2622 
Q 2975 2850 2975 3272 
Q 2975 3691 2734 3919 
Q 2494 4147 2053 4147 
L 1259 4147 
z
M 628 4666 
L 2053 4666 
Q 2838 4666 3239 4311 
Q 3641 3956 3641 3272 
Q 3641 2581 3239 2228 
Q 2838 1875 2053 1875 
L 1259 1875 
L 1259 0 
L 628 0 
L 628 4666 
z
" transform="scale(0.015625)"/>
       <path id="DejaVuSans-72" d="M 2631 2963 
Q 2534 3019 2420 3045 
Q 2306 3072 2169 3072 
Q 1681 3072 1420 2755 
Q 1159 2438 1159 1844 
L 1159 0 
L 581 0 
L 581 3500 
L 1159 3500 
L 1159 2956 
Q 1341 3275 1631 3429 
Q 1922 3584 2338 3584 
Q 2397 3584 2469 3576 
Q 2541 3569 2628 3553 
L 2631 2963 
z
" transform="scale(0.015625)"/>
       <path id="DejaVuSans-69" d="M 603 3500 
L 1178 3500 
L 1178 0 
L 603 0 
L 603 3500 
z
M 603 4863 
L 1178 4863 
L 1178 4134 
L 603 4134 
L 603 4863 
z
" transform="scale(0.015625)"/>
       <path id="DejaVuSans-73" d="M 2834 3397 
L 2834 2853 
Q 2591 2978 2328 3040 
Q 2066 3103 1784 3103 
Q 1356 3103 1142 2972 
Q 928 2841 928 2578 
Q 928 2378 1081 2264 
Q 1234 2150 1697 2047 
L 1894 2003 
Q 2506 1872 2764 1633 
Q 3022 1394 3022 966 
Q 3022 478 2636 193 
Q 2250 -91 1575 -91 
Q 1294 -91 989 -36 
Q 684 19 347 128 
L 347 722 
Q 666 556 975 473 
Q 1284 391 1588 391 
Q 1994 391 2212 530 
Q 2431 669 2431 922 
Q 2431 1156 2273 1281 
Q 2116 1406 1581 1522 
L 1381 1569 
Q 847 1681 609 1914 
Q 372 2147 372 2553 
Q 372 3047 722 3315 
Q 1072 3584 1716 3584 
Q 2034 3584 2315 3537 
Q 2597 3491 2834 3397 
z
" transform="scale(0.015625)"/>
       <path id="DejaVuSans-6f" d="M 1959 3097 
Q 1497 3097 1228 2736 
Q 959 2375 959 1747 
Q 959 1119 1226 758 
Q 1494 397 1959 397 
Q 2419 397 2687 759 
Q 2956 1122 2956 1747 
Q 2956 2369 2687 2733 
Q 2419 3097 1959 3097 
z
M 1959 3584 
Q 2709 3584 3137 3096 
Q 3566 2609 3566 1747 
Q 3566 888 3137 398 
Q 2709 -91 1959 -91 
Q 1206 -91 779 398 
Q 353 888 353 1747 
Q 353 2609 779 3096 
Q 1206 3584 1959 3584 
z
" transform="scale(0.015625)"/>
       <path id="DejaVuSans-6e" d="M 3513 2113 
L 3513 0 
L 2938 0 
L 2938 2094 
Q 2938 2591 2744 2837 
Q 2550 3084 2163 3084 
Q 1697 3084 1428 2787 
Q 1159 2491 1159 1978 
L 1159 0 
L 581 0 
L 581 3500 
L 1159 3500 
L 1159 2956 
Q 1366 3272 1645 3428 
Q 1925 3584 2291 3584 
Q 2894 3584 3203 3211 
Q 3513 2838 3513 2113 
z
" transform="scale(0.015625)"/>
      </defs>
      <use xlink:href="#DejaVuSans-50"/>
      <use xlink:href="#DejaVuSans-72" x="58.552734"/>
      <use xlink:href="#DejaVuSans-65" x="97.416016"/>
      <use xlink:href="#DejaVuSans-63" x="158.939453"/>
      <use xlink:href="#DejaVuSans-69" x="213.919922"/>
      <use xlink:href="#DejaVuSans-73" x="241.703125"/>
      <use xlink:href="#DejaVuSans-69" x="293.802734"/>
      <use xlink:href="#DejaVuSans-6f" x="321.585938"/>
      <use xlink:href="#DejaVuSans-6e" x="382.767578"/>
     </g>
    </g>
   </g>
   <g id="line2d_13">
    <path d="M 696.396875 472.995087 
L 696.396875 472.419396 
L 676.375952 473.922414 
L 676.375952 473.8276 
L 676.375952 465.484698 
L 666.36549 466.342332 
L 666.36549 466.216703 
L 656.355029 467.079383 
L 656.355029 464.349455 
L 646.344567 465.249093 
L 646.344567 465.114572 
L 636.334106 466.019773 
L 636.334106 464.097418 
L 626.323644 465.030783 
L 626.323644 461.794758 
L 616.313183 462.773429 
L 616.313183 461.527658 
L 606.302721 462.526959 
L 606.302721 462.212052 
L 596.29226 463.220313 
L 596.29226 463.063782 
L 586.281798 464.079056 
L 586.281798 463.136345 
L 576.271337 464.169478 
L 576.271337 461.888043 
L 556.250413 464.03349 
L 556.250413 461.293411 
L 546.239952 462.413944 
L 546.239952 460.973858 
L 536.22949 462.121516 
L 536.22949 461.939688 
L 516.208567 464.259704 
L 516.208567 463.544258 
L 506.198106 464.725302 
L 506.198106 457.585395 
L 496.187644 458.886248 
L 496.187644 456.407211 
L 486.177183 457.755694 
L 486.177183 457.292956 
L 476.166721 458.657876 
L 476.166721 456.77459 
L 466.15626 458.179943 
L 466.15626 456.223254 
L 456.145798 457.671504 
L 456.145798 456.668248 
L 446.135337 458.144245 
L 446.135337 457.893327 
L 426.114413 460.886586 
L 426.114413 460.397532 
L 416.103952 461.91997 
L 416.103952 458.886248 
L 406.09349 460.47954 
L 406.09349 456.639967 
L 386.072567 460.01867 
L 386.072567 453.616128 
L 376.062106 455.46067 
L 376.062106 453.096538 
L 366.051644 455.008235 
L 366.051644 452.8998 
L 356.041183 454.875815 
L 356.041183 439.944815 
L 336.02026 444.613005 
L 336.02026 430.140137 
L 326.009798 432.832554 
L 326.009798 427.929171 
L 315.999337 430.76583 
L 315.999337 423.808327 
L 305.988875 426.840516 
L 305.988875 418.019701 
L 295.978413 421.295832 
L 295.978413 415.346188 
L 285.967952 418.813446 
L 285.967952 412.298384 
L 275.95749 415.980015 
L 275.95749 410.053537 
L 265.947029 413.948555 
L 265.947029 408.849712 
L 255.936567 412.952358 
L 255.936567 404.5783 
L 245.926106 408.982763 
L 245.926106 405.984913 
L 235.915644 410.576811 
L 235.915644 395.339289 
L 225.905183 400.449913 
L 225.905183 394.59078 
L 215.894721 400.009122 
L 205.88426 405.599475 
L 205.88426 379.834443 
L 195.873798 386.344591 
L 195.873798 360.102131 
L 185.863337 367.537495 
L 185.863337 359.544479 
L 175.852875 367.537495 
L 175.852875 338.471983 
L 165.842413 347.554955 
L 165.842413 341.753573 
L 155.831952 351.551463 
L 155.831952 338.99101 
L 145.82149 349.775238 
L 135.811029 361.389021 
L 135.811029 347.554955 
L 125.800567 360.587046 
L 125.800567 325.46899 
L 115.790106 340.894109 
L 115.790106 317.581146 
L 105.779644 335.565432 
L 105.779644 239.649241 
L 95.769183 260.96395 
L 95.769183 227.659717 
L 85.758721 253.351554 
L 85.758721 47.81686 
L 45.716875 47.81686 
L 45.716875 47.81686 
" clip-path="url(#ped27f6d5bb)" style="fill: none; stroke: #66c2a5; stroke-width: 2; stroke-linecap: square"/>
   </g>
   <g id="line2d_14">
    <path d="M 696.396875 469.647227 
L 696.396875 467.341396 
L 677.536585 468.762915 
L 677.536585 468.331776 
L 668.10644 469.106205 
L 668.10644 468.998656 
L 668.10644 467.336441 
L 658.676295 468.134007 
L 658.676295 467.218735 
L 649.24615 468.029958 
L 649.24615 467.450193 
L 639.816005 468.271394 
L 639.816005 467.568902 
L 630.385861 468.401743 
L 630.385861 467.8106 
L 620.955716 468.653961 
L 620.955716 467.816472 
L 611.525571 468.673614 
L 611.525571 467.325042 
L 602.095426 468.202674 
L 602.095426 465.210392 
L 592.665281 466.129761 
L 592.665281 463.158332 
L 583.235136 464.11977 
L 583.235136 463.677266 
L 573.804991 464.648903 
L 573.804991 456.908224 
L 564.374846 457.98478 
L 564.374846 452.035091 
L 554.944701 453.19331 
L 554.944701 452.765618 
L 545.514556 453.93599 
L 545.514556 453.723057 
L 536.084411 454.903017 
L 536.084411 454.691662 
L 526.654266 455.881355 
L 526.654266 451.439339 
L 517.224121 452.69673 
L 517.224121 452.228384 
L 507.793976 453.500119 
L 507.793976 451.347759 
L 498.363832 452.657924 
L 498.363832 452.169428 
L 488.933687 453.495174 
L 488.933687 444.223256 
L 479.503542 445.691428 
L 479.503542 432.716594 
L 470.073397 434.375645 
L 470.073397 424.630466 
L 460.643252 426.433401 
L 460.643252 422.414917 
L 451.213107 424.287908 
L 451.213107 423.246394 
L 441.782962 425.152127 
L 441.782962 424.630466 
L 432.352817 426.562843 
L 432.352817 425.517921 
L 422.922672 427.485114 
L 422.922672 412.528123 
L 413.492527 414.725179 
L 413.492527 406.729057 
L 404.062382 409.059655 
L 404.062382 405.903971 
L 394.632237 408.30724 
L 394.632237 403.310433 
L 375.771947 408.352895 
L 375.771947 393.115146 
L 366.341803 395.899809 
L 366.341803 392.639528 
L 356.911658 395.513051 
L 356.911658 387.343198 
L 347.481513 390.374683 
L 347.481513 381.239808 
L 338.051368 384.445798 
L 338.051368 348.277216 
L 328.621223 351.941367 
L 328.621223 342.9436 
L 319.191078 346.776415 
L 319.191078 295.600352 
L 309.760933 299.800072 
L 309.760933 291.814187 
L 300.330788 296.171282 
L 290.900643 300.686817 
L 290.900643 292.131685 
L 281.470498 296.830047 
L 281.470498 292.30911 
L 272.040353 297.198955 
L 262.610208 302.288386 
L 253.180063 307.589876 
L 253.180063 287.607336 
L 243.749918 293.183859 
L 243.749918 275.617812 
L 234.319774 281.458863 
L 224.889629 287.607336 
L 215.459484 294.08816 
L 215.459484 280.75618 
L 206.029339 287.607336 
L 196.599194 294.873714 
L 196.599194 287.607336 
L 187.169049 295.342513 
L 187.169049 279.338699 
L 177.738904 287.607336 
L 177.738904 258.832479 
L 168.308759 267.624797 
L 168.308759 244.009068 
L 158.878614 253.351554 
L 158.878614 167.712098 
L 149.448469 175.705114 
L 149.448469 150.584207 
L 140.018324 158.489388 
L 130.588179 167.712098 
L 121.158034 178.611665 
L 111.727889 191.691146 
L 111.727889 107.764479 
L 102.297745 116.328425 
L 92.8676 127.747019 
L 92.8676 47.81686 
L 45.716875 47.81686 
L 45.716875 47.81686 
" clip-path="url(#ped27f6d5bb)" style="fill: none; stroke: #a6d854; stroke-width: 2; stroke-linecap: square"/>
   </g>
   <g id="line2d_15">
    <path d="M 696.396875 159.970172 
L 696.396875 155.426014 
L 694.914688 155.616472 
L 694.914688 154.295757 
L 686.021567 155.442747 
L 686.021567 154.102368 
L 683.057194 154.486765 
L 683.057194 149.012841 
L 681.575007 149.198863 
L 681.575007 148.502364 
L 678.610634 148.874584 
L 678.610634 147.470045 
L 674.164073 148.027805 
L 674.164073 146.606944 
L 672.681886 146.792291 
L 672.681886 145.358749 
L 669.717513 145.727527 
L 669.717513 143.5507 
L 668.235326 143.733051 
L 668.235326 143.000866 
L 662.306579 143.733051 
L 662.306579 142.993812 
L 660.824392 143.177551 
L 660.824392 141.688326 
L 657.860019 142.053584 
L 657.860019 140.548333 
L 651.931271 141.278502 
L 651.931271 140.516926 
L 650.449085 140.700128 
L 650.449085 139.93439 
L 646.002524 140.484893 
L 646.002524 139.712611 
L 644.520337 139.896403 
L 644.520337 139.119847 
L 643.038151 139.303186 
L 643.038151 138.522312 
L 637.109403 139.258259 
L 637.109403 138.469357 
L 634.14503 138.839367 
L 634.14503 136.445784 
L 632.662843 136.628148 
L 632.662843 133.385246 
L 631.180656 133.563143 
L 631.180656 132.742654 
L 629.69847 132.919952 
L 629.69847 132.094684 
L 625.251909 132.626965 
L 625.251909 131.794115 
L 623.769722 131.971657 
L 623.769722 131.13389 
L 619.323162 131.666835 
L 619.323162 130.821256 
L 616.358788 131.177498 
L 616.358788 130.325411 
L 607.465668 131.403954 
L 607.465668 130.539339 
L 605.983481 130.720351 
L 605.983481 129.850444 
L 600.054734 130.576405 
L 600.054734 128.812754 
L 595.608173 129.356351 
L 595.608173 127.567401 
L 592.6438 127.927448 
L 592.6438 126.115791 
L 589.679426 126.472506 
L 589.679426 125.557151 
L 588.197239 125.735047 
L 588.197239 124.813802 
L 585.232866 125.168627 
L 585.232866 124.239691 
L 583.750679 124.416596 
L 583.750679 123.481604 
L 577.821932 124.190408 
L 577.821932 122.292961 
L 571.893185 123.000572 
L 571.893185 122.037722 
L 548.178196 124.977162 
L 543.731636 125.554421 
L 543.731636 124.549812 
L 528.909768 126.517324 
L 528.909768 125.486783 
L 520.016647 126.703544 
L 520.016647 125.654606 
L 518.53446 125.858905 
L 518.53446 124.802224 
L 514.0879 125.414839 
L 514.0879 124.345735 
L 506.676966 125.377122 
L 506.676966 124.29058 
L 505.194779 124.497825 
L 505.194779 123.402988 
L 487.408538 125.950836 
L 487.408538 124.819999 
L 485.926351 125.037522 
L 485.926351 123.897691 
L 482.961978 124.3312 
L 482.961978 123.179581 
L 475.551044 124.271795 
L 475.551044 123.099917 
L 469.622296 123.9856 
L 469.622296 122.795593 
L 460.729176 124.146561 
L 460.729176 122.931949 
L 457.764802 123.387192 
L 457.764802 122.159196 
L 448.871681 123.540168 
L 448.871681 122.285952 
L 442.942934 123.22267 
L 442.942934 121.94767 
L 441.460747 122.182261 
L 441.460747 119.60127 
L 439.978561 119.830613 
L 439.978561 117.209602 
L 437.014187 117.658746 
L 437.014187 116.328425 
L 435.532 116.551589 
L 435.532 115.208955 
L 423.674506 117.018138 
L 423.674506 115.636389 
L 420.710132 116.096182 
L 420.710132 114.697197 
L 417.745759 115.155282 
L 417.745759 113.738641 
L 411.817012 114.657411 
L 411.817012 111.760987 
L 398.477331 113.846122 
L 398.477331 112.342297 
L 392.548583 113.294702 
L 392.548583 111.760987 
L 385.137649 112.96748 
L 385.137649 111.397668 
L 383.655463 111.63942 
L 383.655463 110.052556 
L 382.173276 110.291007 
L 382.173276 108.68675 
L 373.280155 110.124622 
L 373.280155 108.47532 
L 368.833595 109.203222 
L 368.833595 107.523726 
L 354.011727 110.021921 
L 340.672046 112.456032 
L 340.672046 110.644059 
L 339.189859 110.919617 
L 339.189859 109.084911 
L 330.296738 110.748297 
L 330.296738 106.943279 
L 318.439244 109.185039 
L 318.439244 105.183003 
L 305.099563 107.764479 
L 302.135189 108.370011 
L 302.135189 106.242966 
L 296.206442 107.45387 
L 296.206442 105.266662 
L 284.348948 107.764479 
L 272.491454 110.489371 
L 266.562706 111.946871 
L 266.562706 109.517334 
L 256.187399 112.15089 
L 248.776465 114.173973 
L 248.776465 108.909975 
L 244.329905 110.100101 
L 244.329905 107.372665 
L 236.918971 109.384685 
L 236.918971 106.541058 
L 228.02585 109.03996 
L 219.132729 111.760987 
L 211.721795 114.220377 
L 211.721795 111.017451 
L 204.310861 113.565862 
L 196.899927 116.328425 
L 189.488993 119.333318 
L 182.07806 122.613889 
L 176.149312 125.4633 
L 170.220565 128.538407 
L 170.220565 124.549812 
L 165.774005 126.922997 
L 165.774005 122.751384 
L 159.845258 126.009407 
L 159.845258 121.598545 
L 153.916511 124.990806 
L 147.987763 128.710033 
L 146.505577 129.696535 
L 146.505577 124.786643 
L 142.059016 127.747019 
L 139.094643 129.850444 
L 139.094643 124.549812 
L 134.648082 127.747019 
L 133.165896 128.872796 
L 133.165896 123.179581 
L 128.719335 126.554031 
L 124.272775 130.244836 
L 119.826214 134.298671 
L 115.379654 138.771868 
L 112.41528 142.020261 
L 109.450907 145.509276 
L 106.486533 149.266677 
L 103.52216 153.32467 
L 102.039973 155.47789 
L 102.039973 147.729559 
L 99.075599 152.073589 
L 96.111226 156.812531 
L 93.146852 162.002801 
L 90.182479 167.712098 
L 87.218105 174.022374 
L 84.253731 181.033791 
L 82.771545 184.839989 
L 82.771545 174.764759 
L 79.807171 182.699003 
L 76.842798 191.691146 
L 73.878424 201.967881 
L 73.878424 189.91492 
L 72.396237 195.38023 
L 70.91405 201.282765 
L 69.431864 207.677178 
L 69.431864 178.611665 
L 67.949677 184.839989 
L 66.46749 191.691146 
L 64.985303 199.263477 
L 63.503116 207.677178 
L 63.503116 167.712098 
L 62.02093 175.705114 
L 62.02093 150.584207 
L 60.538743 158.489388 
L 60.538743 127.747019 
L 59.056556 135.013397 
L 57.574369 143.733051 
L 56.092183 154.390405 
L 54.609996 167.712098 
L 53.127809 184.839989 
L 51.645622 207.677178 
L 50.163435 239.649241 
L 50.163435 167.712098 
L 48.681249 207.677178 
L 47.199062 287.607336 
L 47.199062 47.81686 
L 45.716875 47.81686 
L 45.716875 47.81686 
" clip-path="url(#ped27f6d5bb)" style="fill: none; stroke: #b3b3b3; stroke-width: 2; stroke-linecap: square"/>
   </g>
   <g id="patch_3">
    <path d="M 45.716875 527.397812 
L 45.716875 23.837812 
" style="fill: none; stroke: #000000; stroke-width: 0.8; stroke-linejoin: miter; stroke-linecap: square"/>
   </g>
   <g id="patch_4">
    <path d="M 696.396875 527.397812 
L 696.396875 23.837812 
" style="fill: none; stroke: #000000; stroke-width: 0.8; stroke-linejoin: miter; stroke-linecap: square"/>
   </g>
   <g id="patch_5">
    <path d="M 45.716875 527.397812 
L 696.396875 527.397812 
" style="fill: none; stroke: #000000; stroke-width: 0.8; stroke-linejoin: miter; stroke-linecap: square"/>
   </g>
   <g id="patch_6">
    <path d="M 45.716875 23.837812 
L 696.396875 23.837812 
" style="fill: none; stroke: #000000; stroke-width: 0.8; stroke-linejoin: miter; stroke-linecap: square"/>
   </g>
   <g id="text_15">
    <!-- Precision-Recall Curves (One-vs-Rest) -->
    <g transform="translate(240.049688 17.837812) scale(0.14 -0.14)">
     <defs>
      <path id="DejaVuSans-2d" d="M 313 2009 
L 1997 2009 
L 1997 1497 
L 313 1497 
L 313 2009 
z
" transform="scale(0.015625)"/>
      <path id="DejaVuSans-20" transform="scale(0.015625)"/>
      <path id="DejaVuSans-43" d="M 4122 4306 
L 4122 3641 
Q 3803 3938 3442 4084 
Q 3081 4231 2675 4231 
Q 1875 4231 1450 3742 
Q 1025 3253 1025 2328 
Q 1025 1406 1450 917 
Q 1875 428 2675 428 
Q 3081 428 3442 575 
Q 3803 722 4122 1019 
L 4122 359 
Q 3791 134 3420 21 
Q 3050 -91 2638 -91 
Q 1578 -91 968 557 
Q 359 1206 359 2328 
Q 359 3453 968 4101 
Q 1578 4750 2638 4750 
Q 3056 4750 3426 4639 
Q 3797 4528 4122 4306 
z
" transform="scale(0.015625)"/>
      <path id="DejaVuSans-75" d="M 544 1381 
L 544 3500 
L 1119 3500 
L 1119 1403 
Q 1119 906 1312 657 
Q 1506 409 1894 409 
Q 2359 409 2629 706 
Q 2900 1003 2900 1516 
L 2900 3500 
L 3475 3500 
L 3475 0 
L 2900 0 
L 2900 538 
Q 2691 219 2414 64 
Q 2138 -91 1772 -91 
Q 1169 -91 856 284 
Q 544 659 544 1381 
z
M 1991 3584 
L 1991 3584 
z
" transform="scale(0.015625)"/>
      <path id="DejaVuSans-76" d="M 191 3500 
L 800 3500 
L 1894 563 
L 2988 3500 
L 3597 3500 
L 2284 0 
L 1503 0 
L 191 3500 
z
" transform="scale(0.015625)"/>
      <path id="DejaVuSans-28" d="M 1984 4856 
Q 1566 4138 1362 3434 
Q 1159 2731 1159 2009 
Q 1159 1288 1364 580 
Q 1569 -128 1984 -844 
L 1484 -844 
Q 1016 -109 783 600 
Q 550 1309 550 2009 
Q 550 2706 781 3412 
Q 1013 4119 1484 4856 
L 1984 4856 
z
" transform="scale(0.015625)"/>
      <path id="DejaVuSans-4f" d="M 2522 4238 
Q 1834 4238 1429 3725 
Q 1025 3213 1025 2328 
Q 1025 1447 1429 934 
Q 1834 422 2522 422 
Q 3209 422 3611 934 
Q 4013 1447 4013 2328 
Q 4013 3213 3611 3725 
Q 3209 4238 2522 4238 
z
M 2522 4750 
Q 3503 4750 4090 4092 
Q 4678 3434 4678 2328 
Q 4678 1225 4090 567 
Q 3503 -91 2522 -91 
Q 1538 -91 948 565 
Q 359 1222 359 2328 
Q 359 3434 948 4092 
Q 1538 4750 2522 4750 
z
" transform="scale(0.015625)"/>
      <path id="DejaVuSans-74" d="M 1172 4494 
L 1172 3500 
L 2356 3500 
L 2356 3053 
L 1172 3053 
L 1172 1153 
Q 1172 725 1289 603 
Q 1406 481 1766 481 
L 2356 481 
L 2356 0 
L 1766 0 
Q 1100 0 847 248 
Q 594 497 594 1153 
L 594 3053 
L 172 3053 
L 172 3500 
L 594 3500 
L 594 4494 
L 1172 4494 
z
" transform="scale(0.015625)"/>
      <path id="DejaVuSans-29" d="M 513 4856 
L 1013 4856 
Q 1481 4119 1714 3412 
Q 1947 2706 1947 2009 
Q 1947 1309 1714 600 
Q 1481 -109 1013 -844 
L 513 -844 
Q 928 -128 1133 580 
Q 1338 1288 1338 2009 
Q 1338 2731 1133 3434 
Q 928 4138 513 4856 
z
" transform="scale(0.015625)"/>
     </defs>
     <use xlink:href="#DejaVuSans-50"/>
     <use xlink:href="#DejaVuSans-72" x="58.552734"/>
     <use xlink:href="#DejaVuSans-65" x="97.416016"/>
     <use xlink:href="#DejaVuSans-63" x="158.939453"/>
     <use xlink:href="#DejaVuSans-69" x="213.919922"/>
     <use xlink:href="#DejaVuSans-73" x="241.703125"/>
     <use xlink:href="#DejaVuSans-69" x="293.802734"/>
     <use xlink:href="#DejaVuSans-6f" x="321.585938"/>
     <use xlink:href="#DejaVuSans-6e" x="382.767578"/>
     <use xlink:href="#DejaVuSans-2d" x="446.146484"/>
     <use xlink:href="#DejaVuSans-52" x="482.230469"/>
     <use xlink:href="#DejaVuSans-65" x="547.212891"/>
     <use xlink:href="#DejaVuSans-63" x="608.736328"/>
     <use xlink:href="#DejaVuSans-61" x="663.716797"/>
     <use xlink:href="#DejaVuSans-6c" x="724.996094"/>
     <use xlink:href="#DejaVuSans-6c" x="752.779297"/>
     <use xlink:href="#DejaVuSans-20" x="780.5625"/>
     <use xlink:href="#DejaVuSans-43" x="812.349609"/>
     <use xlink:href="#DejaVuSans-75" x="882.173828"/>
     <use xlink:href="#DejaVuSans-72" x="945.552734"/>
     <use xlink:href="#DejaVuSans-76" x="986.666016"/>
     <use xlink:href="#DejaVuSans-65" x="1045.845703"/>
     <use xlink:href="#DejaVuSans-73" x="1107.369141"/>
     <use xlink:href="#DejaVuSans-20" x="1159.46875"/>
     <use xlink:href="#DejaVuSans-28" x="1191.255859"/>
     <use xlink:href="#DejaVuSans-4f" x="1230.269531"/>
     <use xlink:href="#DejaVuSans-6e" x="1308.980469"/>
     <use xlink:href="#DejaVuSans-65" x="1372.359375"/>
     <use xlink:href="#DejaVuSans-2d" x="1433.882812"/>
     <use xlink:href="#DejaVuSans-76" x="1467.341797"/>
     <use xlink:href="#DejaVuSans-73" x="1526.521484"/>
     <use xlink:href="#DejaVuSans-2d" x="1578.621094"/>
     <use xlink:href="#DejaVuSans-52" x="1614.705078"/>
     <use xlink:href="#DejaVuSans-65" x="1679.6875"/>
     <use xlink:href="#DejaVuSans-73" x="1741.210938"/>
     <use xlink:href="#DejaVuSans-74" x="1793.310547"/>
     <use xlink:href="#DejaVuSans-29" x="1832.519531"/>
    </g>
   </g>
   <g id="legend_1">
    <g id="patch_7">
     <path d="M 52.716875 522.397812 
L 166.312187 522.397812 
Q 168.312187 522.397812 168.312187 520.397812 
L 168.312187 477.363438 
Q 168.312187 475.363438 166.312187 475.363438 
L 52.716875 475.363438 
Q 50.716875 475.363438 50.716875 477.363438 
L 50.716875 520.397812 
Q 50.716875 522.397812 52.716875 522.397812 
z
" style="fill: #ffffff; opacity: 0.8; stroke: #cccccc; stroke-linejoin: miter"/>
    </g>
    <g id="line2d_16">
     <path d="M 54.716875 483.461875 
L 64.716875 483.461875 
L 74.716875 483.461875 
" style="fill: none; stroke: #66c2a5; stroke-width: 2; stroke-linecap: square"/>
    </g>
    <g id="text_16">
     <!-- T4 (AUC = 0.26) -->
     <g transform="translate(82.716875 486.961875) scale(0.1 -0.1)">
      <defs>
       <path id="DejaVuSans-54" d="M -19 4666 
L 3928 4666 
L 3928 4134 
L 2272 4134 
L 2272 0 
L 1638 0 
L 1638 4134 
L -19 4134 
L -19 4666 
z
" transform="scale(0.015625)"/>
       <path id="DejaVuSans-41" d="M 2188 4044 
L 1331 1722 
L 3047 1722 
L 2188 4044 
z
M 1831 4666 
L 2547 4666 
L 4325 0 
L 3669 0 
L 3244 1197 
L 1141 1197 
L 716 0 
L 50 0 
L 1831 4666 
z
" transform="scale(0.015625)"/>
       <path id="DejaVuSans-55" d="M 556 4666 
L 1191 4666 
L 1191 1831 
Q 1191 1081 1462 751 
Q 1734 422 2344 422 
Q 2950 422 3222 751 
Q 3494 1081 3494 1831 
L 3494 4666 
L 4128 4666 
L 4128 1753 
Q 4128 841 3676 375 
Q 3225 -91 2344 -91 
Q 1459 -91 1007 375 
Q 556 841 556 1753 
L 556 4666 
z
" transform="scale(0.015625)"/>
       <path id="DejaVuSans-3d" d="M 678 2906 
L 4684 2906 
L 4684 2381 
L 678 2381 
L 678 2906 
z
M 678 1631 
L 4684 1631 
L 4684 1100 
L 678 1100 
L 678 1631 
z
" transform="scale(0.015625)"/>
      </defs>
      <use xlink:href="#DejaVuSans-54"/>
      <use xlink:href="#DejaVuSans-34" x="61.083984"/>
      <use xlink:href="#DejaVuSans-20" x="124.707031"/>
      <use xlink:href="#DejaVuSans-28" x="156.494141"/>
      <use xlink:href="#DejaVuSans-41" x="195.507812"/>
      <use xlink:href="#DejaVuSans-55" x="263.916016"/>
      <use xlink:href="#DejaVuSans-43" x="337.109375"/>
      <use xlink:href="#DejaVuSans-20" x="406.933594"/>
      <use xlink:href="#DejaVuSans-3d" x="438.720703"/>
      <use xlink:href="#DejaVuSans-20" x="522.509766"/>
      <use xlink:href="#DejaVuSans-30" x="554.296875"/>
      <use xlink:href="#DejaVuSans-2e" x="617.919922"/>
      <use xlink:href="#DejaVuSans-32" x="649.707031"/>
      <use xlink:href="#DejaVuSans-36" x="713.330078"/>
      <use xlink:href="#DejaVuSans-29" x="776.953125"/>
     </g>
    </g>
    <g id="line2d_17">
     <path d="M 54.716875 498.14 
L 64.716875 498.14 
L 74.716875 498.14 
" style="fill: none; stroke: #a6d854; stroke-width: 2; stroke-linecap: square"/>
    </g>
    <g id="text_17">
     <!-- T5 (AUC = 0.38) -->
     <g transform="translate(82.716875 501.64) scale(0.1 -0.1)">
      <defs>
       <path id="DejaVuSans-35" d="M 691 4666 
L 3169 4666 
L 3169 4134 
L 1269 4134 
L 1269 2991 
Q 1406 3038 1543 3061 
Q 1681 3084 1819 3084 
Q 2600 3084 3056 2656 
Q 3513 2228 3513 1497 
Q 3513 744 3044 326 
Q 2575 -91 1722 -91 
Q 1428 -91 1123 -41 
Q 819 9 494 109 
L 494 744 
Q 775 591 1075 516 
Q 1375 441 1709 441 
Q 2250 441 2565 725 
Q 2881 1009 2881 1497 
Q 2881 1984 2565 2268 
Q 2250 2553 1709 2553 
Q 1456 2553 1204 2497 
Q 953 2441 691 2322 
L 691 4666 
z
" transform="scale(0.015625)"/>
       <path id="DejaVuSans-33" d="M 2597 2516 
Q 3050 2419 3304 2112 
Q 3559 1806 3559 1356 
Q 3559 666 3084 287 
Q 2609 -91 1734 -91 
Q 1441 -91 1130 -33 
Q 819 25 488 141 
L 488 750 
Q 750 597 1062 519 
Q 1375 441 1716 441 
Q 2309 441 2620 675 
Q 2931 909 2931 1356 
Q 2931 1769 2642 2001 
Q 2353 2234 1838 2234 
L 1294 2234 
L 1294 2753 
L 1863 2753 
Q 2328 2753 2575 2939 
Q 2822 3125 2822 3475 
Q 2822 3834 2567 4026 
Q 2313 4219 1838 4219 
Q 1578 4219 1281 4162 
Q 984 4106 628 3988 
L 628 4550 
Q 988 4650 1302 4700 
Q 1616 4750 1894 4750 
Q 2613 4750 3031 4423 
Q 3450 4097 3450 3541 
Q 3450 3153 3228 2886 
Q 3006 2619 2597 2516 
z
" transform="scale(0.015625)"/>
      </defs>
      <use xlink:href="#DejaVuSans-54"/>
      <use xlink:href="#DejaVuSans-35" x="61.083984"/>
      <use xlink:href="#DejaVuSans-20" x="124.707031"/>
      <use xlink:href="#DejaVuSans-28" x="156.494141"/>
      <use xlink:href="#DejaVuSans-41" x="195.507812"/>
      <use xlink:href="#DejaVuSans-55" x="263.916016"/>
      <use xlink:href="#DejaVuSans-43" x="337.109375"/>
      <use xlink:href="#DejaVuSans-20" x="406.933594"/>
      <use xlink:href="#DejaVuSans-3d" x="438.720703"/>
      <use xlink:href="#DejaVuSans-20" x="522.509766"/>
      <use xlink:href="#DejaVuSans-30" x="554.296875"/>
      <use xlink:href="#DejaVuSans-2e" x="617.919922"/>
      <use xlink:href="#DejaVuSans-33" x="649.707031"/>
      <use xlink:href="#DejaVuSans-38" x="713.330078"/>
      <use xlink:href="#DejaVuSans-29" x="776.953125"/>
     </g>
    </g>
    <g id="line2d_18">
     <path d="M 54.716875 512.818125 
L 64.716875 512.818125 
L 74.716875 512.818125 
" style="fill: none; stroke: #b3b3b3; stroke-width: 2; stroke-linecap: square"/>
    </g>
    <g id="text_18">
     <!-- T7 (AUC = 0.84) -->
     <g transform="translate(82.716875 516.318125) scale(0.1 -0.1)">
      <defs>
       <path id="DejaVuSans-37" d="M 525 4666 
L 3525 4666 
L 3525 4397 
L 1831 0 
L 1172 0 
L 2766 4134 
L 525 4134 
L 525 4666 
z
" transform="scale(0.015625)"/>
      </defs>
      <use xlink:href="#DejaVuSans-54"/>
      <use xlink:href="#DejaVuSans-37" x="61.083984"/>
      <use xlink:href="#DejaVuSans-20" x="124.707031"/>
      <use xlink:href="#DejaVuSans-28" x="156.494141"/>
      <use xlink:href="#DejaVuSans-41" x="195.507812"/>
      <use xlink:href="#DejaVuSans-55" x="263.916016"/>
      <use xlink:href="#DejaVuSans-43" x="337.109375"/>
      <use xlink:href="#DejaVuSans-20" x="406.933594"/>
      <use xlink:href="#DejaVuSans-3d" x="438.720703"/>
      <use xlink:href="#DejaVuSans-20" x="522.509766"/>
      <use xlink:href="#DejaVuSans-30" x="554.296875"/>
      <use xlink:href="#DejaVuSans-2e" x="617.919922"/>
      <use xlink:href="#DejaVuSans-38" x="649.707031"/>
      <use xlink:href="#DejaVuSans-34" x="713.330078"/>
      <use xlink:href="#DejaVuSans-29" x="776.953125"/>
     </g>
    </g>
   </g>
  </g>
 </g>
 <defs>
  <clipPath id="ped27f6d5bb">
   <rect x="45.716875" y="23.837812" width="650.68" height="503.56"/>
  </clipPath>
 </defs>
</svg>
