<?xml version="1.0" encoding="utf-8" standalone="no"?>
<!DOCTYPE svg PUBLIC "-//W3C//DTD SVG 1.1//EN"
  "http://www.w3.org/Graphics/SVG/1.1/DTD/svg11.dtd">
<svg xmlns:xlink="http://www.w3.org/1999/xlink" width="711.548437pt" height="566.726625pt" viewBox="0 0 711.548437 566.726625" xmlns="http://www.w3.org/2000/svg" version="1.1">
 <metadata>
  <rdf:RDF xmlns:dc="http://purl.org/dc/elements/1.1/" xmlns:cc="http://creativecommons.org/ns#" xmlns:rdf="http://www.w3.org/1999/02/22-rdf-syntax-ns#">
   <cc:Work>
    <dc:type rdf:resource="http://purl.org/dc/dcmitype/StillImage"/>
    <dc:date>2026-01-13T11:14:51.759133</dc:date>
    <dc:format>image/svg+xml</dc:format>
    <dc:creator>
     <cc:Agent>
      <dc:title>Matplotlib v3.9.2, https://matplotlib.org/</dc:title>
     </cc:Agent>
    </dc:creator>
   </cc:Work>
  </rdf:RDF>
 </metadata>
 <defs>
  <style type="text/css">*{stroke-linejoin: round; stroke-linecap: butt}</style>
 </defs>
 <g id="figure_1">
  <g id="patch_1">
   <path d="M 0 566.726625 
L 711.548437 566.726625 
L 711.548437 0 
L 0 0 
z
" style="fill: #ffffff"/>
  </g>
  <g id="axes_1">
   <g id="patch_2">
    <path d="M 45.716875 527.23475 
L 696.396875 527.23475 
L 696.396875 39.51475 
L 45.716875 39.51475 
z
" style="fill: #ffffff"/>
   </g>
   <g id="matplotlib.axis_1">
    <g id="xtick_1">
     <g id="line2d_1">
      <defs>
       <path id="mdf839bc817" d="M 0 0 
L 0 3.5 
" style="stroke: #000000; stroke-width: 0.8"/>
      </defs>
      <g>
       <use xlink:href="#mdf839bc817" x="45.716875" y="527.23475" style="stroke: #000000; stroke-width: 0.8"/>
      </g>
     </g>
     <g id="text_1">
      <!-- 0.0 -->
      <g transform="translate(37.765313 541.833187) scale(0.1 -0.1)">
       <defs>
        <path id="DejaVuSans-30" d="M 2034 4250 
Q 1547 4250 1301 3770 
Q 1056 3291 1056 2328 
Q 1056 1369 1301 889 
Q 1547 409 2034 409 
Q 2525 409 2770 889 
Q 3016 1369 3016 2328 
Q 3016 3291 2770 3770 
Q 2525 4250 2034 4250 
z
M 2034 4750 
Q 2819 4750 3233 4129 
Q 3647 3509 3647 2328 
Q 3647 1150 3233 529 
Q 2819 -91 2034 -91 
Q 1250 -91 836 529 
Q 422 1150 422 2328 
Q 422 3509 836 4129 
Q 1250 4750 2034 4750 
z
" transform="scale(0.015625)"/>
        <path id="DejaVuSans-2e" d="M 684 794 
L 1344 794 
L 1344 0 
L 684 0 
L 684 794 
z
" transform="scale(0.015625)"/>
       </defs>
       <use xlink:href="#DejaVuSans-30"/>
       <use xlink:href="#DejaVuSans-2e" x="63.623047"/>
       <use xlink:href="#DejaVuSans-30" x="95.410156"/>
      </g>
     </g>
    </g>
    <g id="xtick_2">
     <g id="line2d_2">
      <g>
       <use xlink:href="#mdf839bc817" x="175.852875" y="527.23475" style="stroke: #000000; stroke-width: 0.8"/>
      </g>
     </g>
     <g id="text_2">
      <!-- 0.2 -->
      <g transform="translate(167.901313 541.833187) scale(0.1 -0.1)">
       <defs>
        <path id="DejaVuSans-32" d="M 1228 531 
L 3431 531 
L 3431 0 
L 469 0 
L 469 531 
Q 828 903 1448 1529 
Q 2069 2156 2228 2338 
Q 2531 2678 2651 2914 
Q 2772 3150 2772 3378 
Q 2772 3750 2511 3984 
Q 2250 4219 1831 4219 
Q 1534 4219 1204 4116 
Q 875 4013 500 3803 
L 500 4441 
Q 881 4594 1212 4672 
Q 1544 4750 1819 4750 
Q 2544 4750 2975 4387 
Q 3406 4025 3406 3419 
Q 3406 3131 3298 2873 
Q 3191 2616 2906 2266 
Q 2828 2175 2409 1742 
Q 1991 1309 1228 531 
z
" transform="scale(0.015625)"/>
       </defs>
       <use xlink:href="#DejaVuSans-30"/>
       <use xlink:href="#DejaVuSans-2e" x="63.623047"/>
       <use xlink:href="#DejaVuSans-32" x="95.410156"/>
      </g>
     </g>
    </g>
    <g id="xtick_3">
     <g id="line2d_3">
      <g>
       <use xlink:href="#mdf839bc817" x="305.988875" y="527.23475" style="stroke: #000000; stroke-width: 0.8"/>
      </g>
     </g>
     <g id="text_3">
      <!-- 0.4 -->
      <g transform="translate(298.037313 541.833187) scale(0.1 -0.1)">
       <defs>
        <path id="DejaVuSans-34" d="M 2419 4116 
L 825 1625 
L 2419 1625 
L 2419 4116 
z
M 2253 4666 
L 3047 4666 
L 3047 1625 
L 3713 1625 
L 3713 1100 
L 3047 1100 
L 3047 0 
L 2419 0 
L 2419 1100 
L 313 1100 
L 313 1709 
L 2253 4666 
z
" transform="scale(0.015625)"/>
       </defs>
       <use xlink:href="#DejaVuSans-30"/>
       <use xlink:href="#DejaVuSans-2e" x="63.623047"/>
       <use xlink:href="#DejaVuSans-34" x="95.410156"/>
      </g>
     </g>
    </g>
    <g id="xtick_4">
     <g id="line2d_4">
      <g>
       <use xlink:href="#mdf839bc817" x="436.124875" y="527.23475" style="stroke: #000000; stroke-width: 0.8"/>
      </g>
     </g>
     <g id="text_4">
      <!-- 0.6 -->
      <g transform="translate(428.173313 541.833187) scale(0.1 -0.1)">
       <defs>
        <path id="DejaVuSans-36" d="M 2113 2584 
Q 1688 2584 1439 2293 
Q 1191 2003 1191 1497 
Q 1191 994 1439 701 
Q 1688 409 2113 409 
Q 2538 409 2786 701 
Q 3034 994 3034 1497 
Q 3034 2003 2786 2293 
Q 2538 2584 2113 2584 
z
M 3366 4563 
L 3366 3988 
Q 3128 4100 2886 4159 
Q 2644 4219 2406 4219 
Q 1781 4219 1451 3797 
Q 1122 3375 1075 2522 
Q 1259 2794 1537 2939 
Q 1816 3084 2150 3084 
Q 2853 3084 3261 2657 
Q 3669 2231 3669 1497 
Q 3669 778 3244 343 
Q 2819 -91 2113 -91 
Q 1303 -91 875 529 
Q 447 1150 447 2328 
Q 447 3434 972 4092 
Q 1497 4750 2381 4750 
Q 2619 4750 2861 4703 
Q 3103 4656 3366 4563 
z
" transform="scale(0.015625)"/>
       </defs>
       <use xlink:href="#DejaVuSans-30"/>
       <use xlink:href="#DejaVuSans-2e" x="63.623047"/>
       <use xlink:href="#DejaVuSans-36" x="95.410156"/>
      </g>
     </g>
    </g>
    <g id="xtick_5">
     <g id="line2d_5">
      <g>
       <use xlink:href="#mdf839bc817" x="566.260875" y="527.23475" style="stroke: #000000; stroke-width: 0.8"/>
      </g>
     </g>
     <g id="text_5">
      <!-- 0.8 -->
      <g transform="translate(558.309313 541.833187) scale(0.1 -0.1)">
       <defs>
        <path id="DejaVuSans-38" d="M 2034 2216 
Q 1584 2216 1326 1975 
Q 1069 1734 1069 1313 
Q 1069 891 1326 650 
Q 1584 409 2034 409 
Q 2484 409 2743 651 
Q 3003 894 3003 1313 
Q 3003 1734 2745 1975 
Q 2488 2216 2034 2216 
z
M 1403 2484 
Q 997 2584 770 2862 
Q 544 3141 544 3541 
Q 544 4100 942 4425 
Q 1341 4750 2034 4750 
Q 2731 4750 3128 4425 
Q 3525 4100 3525 3541 
Q 3525 3141 3298 2862 
Q 3072 2584 2669 2484 
Q 3125 2378 3379 2068 
Q 3634 1759 3634 1313 
Q 3634 634 3220 271 
Q 2806 -91 2034 -91 
Q 1263 -91 848 271 
Q 434 634 434 1313 
Q 434 1759 690 2068 
Q 947 2378 1403 2484 
z
M 1172 3481 
Q 1172 3119 1398 2916 
Q 1625 2713 2034 2713 
Q 2441 2713 2670 2916 
Q 2900 3119 2900 3481 
Q 2900 3844 2670 4047 
Q 2441 4250 2034 4250 
Q 1625 4250 1398 4047 
Q 1172 3844 1172 3481 
z
" transform="scale(0.015625)"/>
       </defs>
       <use xlink:href="#DejaVuSans-30"/>
       <use xlink:href="#DejaVuSans-2e" x="63.623047"/>
       <use xlink:href="#DejaVuSans-38" x="95.410156"/>
      </g>
     </g>
    </g>
    <g id="xtick_6">
     <g id="line2d_6">
      <g>
       <use xlink:href="#mdf839bc817" x="696.396875" y="527.23475" style="stroke: #000000; stroke-width: 0.8"/>
      </g>
     </g>
     <g id="text_6">
      <!-- 1.0 -->
      <g transform="translate(688.445312 541.833187) scale(0.1 -0.1)">
       <defs>
        <path id="DejaVuSans-31" d="M 794 531 
L 1825 531 
L 1825 4091 
L 703 3866 
L 703 4441 
L 1819 4666 
L 2450 4666 
L 2450 531 
L 3481 531 
L 3481 0 
L 794 0 
L 794 531 
z
" transform="scale(0.015625)"/>
       </defs>
       <use xlink:href="#DejaVuSans-31"/>
       <use xlink:href="#DejaVuSans-2e" x="63.623047"/>
       <use xlink:href="#DejaVuSans-30" x="95.410156"/>
      </g>
     </g>
    </g>
    <g id="text_7">
     <!-- False Positive Rate -->
     <g transform="translate(315.297188 557.031) scale(0.12 -0.12)">
      <defs>
       <path id="DejaVuSans-46" d="M 628 4666 
L 3309 4666 
L 3309 4134 
L 1259 4134 
L 1259 2759 
L 3109 2759 
L 3109 2228 
L 1259 2228 
L 1259 0 
L 628 0 
L 628 4666 
z
" transform="scale(0.015625)"/>
       <path id="DejaVuSans-61" d="M 2194 1759 
Q 1497 1759 1228 1600 
Q 959 1441 959 1056 
Q 959 750 1161 570 
Q 1363 391 1709 391 
Q 2188 391 2477 730 
Q 2766 1069 2766 1631 
L 2766 1759 
L 2194 1759 
z
M 3341 1997 
L 3341 0 
L 2766 0 
L 2766 531 
Q 2569 213 2275 61 
Q 1981 -91 1556 -91 
Q 1019 -91 701 211 
Q 384 513 384 1019 
Q 384 1609 779 1909 
Q 1175 2209 1959 2209 
L 2766 2209 
L 2766 2266 
Q 2766 2663 2505 2880 
Q 2244 3097 1772 3097 
Q 1472 3097 1187 3025 
Q 903 2953 641 2809 
L 641 3341 
Q 956 3463 1253 3523 
Q 1550 3584 1831 3584 
Q 2591 3584 2966 3190 
Q 3341 2797 3341 1997 
z
" transform="scale(0.015625)"/>
       <path id="DejaVuSans-6c" d="M 603 4863 
L 1178 4863 
L 1178 0 
L 603 0 
L 603 4863 
z
" transform="scale(0.015625)"/>
       <path id="DejaVuSans-73" d="M 2834 3397 
L 2834 2853 
Q 2591 2978 2328 3040 
Q 2066 3103 1784 3103 
Q 1356 3103 1142 2972 
Q 928 2841 928 2578 
Q 928 2378 1081 2264 
Q 1234 2150 1697 2047 
L 1894 2003 
Q 2506 1872 2764 1633 
Q 3022 1394 3022 966 
Q 3022 478 2636 193 
Q 2250 -91 1575 -91 
Q 1294 -91 989 -36 
Q 684 19 347 128 
L 347 722 
Q 666 556 975 473 
Q 1284 391 1588 391 
Q 1994 391 2212 530 
Q 2431 669 2431 922 
Q 2431 1156 2273 1281 
Q 2116 1406 1581 1522 
L 1381 1569 
Q 847 1681 609 1914 
Q 372 2147 372 2553 
Q 372 3047 722 3315 
Q 1072 3584 1716 3584 
Q 2034 3584 2315 3537 
Q 2597 3491 2834 3397 
z
" transform="scale(0.015625)"/>
       <path id="DejaVuSans-65" d="M 3597 1894 
L 3597 1613 
L 953 1613 
Q 991 1019 1311 708 
Q 1631 397 2203 397 
Q 2534 397 2845 478 
Q 3156 559 3463 722 
L 3463 178 
Q 3153 47 2828 -22 
Q 2503 -91 2169 -91 
Q 1331 -91 842 396 
Q 353 884 353 1716 
Q 353 2575 817 3079 
Q 1281 3584 2069 3584 
Q 2775 3584 3186 3129 
Q 3597 2675 3597 1894 
z
M 3022 2063 
Q 3016 2534 2758 2815 
Q 2500 3097 2075 3097 
Q 1594 3097 1305 2825 
Q 1016 2553 972 2059 
L 3022 2063 
z
" transform="scale(0.015625)"/>
       <path id="DejaVuSans-20" transform="scale(0.015625)"/>
       <path id="DejaVuSans-50" d="M 1259 4147 
L 1259 2394 
L 2053 2394 
Q 2494 2394 2734 2622 
Q 2975 2850 2975 3272 
Q 2975 3691 2734 3919 
Q 2494 4147 2053 4147 
L 1259 4147 
z
M 628 4666 
L 2053 4666 
Q 2838 4666 3239 4311 
Q 3641 3956 3641 3272 
Q 3641 2581 3239 2228 
Q 2838 1875 2053 1875 
L 1259 1875 
L 1259 0 
L 628 0 
L 628 4666 
z
" transform="scale(0.015625)"/>
       <path id="DejaVuSans-6f" d="M 1959 3097 
Q 1497 3097 1228 2736 
Q 959 2375 959 1747 
Q 959 1119 1226 758 
Q 1494 397 1959 397 
Q 2419 397 2687 759 
Q 2956 1122 2956 1747 
Q 2956 2369 2687 2733 
Q 2419 3097 1959 3097 
z
M 1959 3584 
Q 2709 3584 3137 3096 
Q 3566 2609 3566 1747 
Q 3566 888 3137 398 
Q 2709 -91 1959 -91 
Q 1206 -91 779 398 
Q 353 888 353 1747 
Q 353 2609 779 3096 
Q 1206 3584 1959 3584 
z
" transform="scale(0.015625)"/>
       <path id="DejaVuSans-69" d="M 603 3500 
L 1178 3500 
L 1178 0 
L 603 0 
L 603 3500 
z
M 603 4863 
L 1178 4863 
L 1178 4134 
L 603 4134 
L 603 4863 
z
" transform="scale(0.015625)"/>
       <path id="DejaVuSans-74" d="M 1172 4494 
L 1172 3500 
L 2356 3500 
L 2356 3053 
L 1172 3053 
L 1172 1153 
Q 1172 725 1289 603 
Q 1406 481 1766 481 
L 2356 481 
L 2356 0 
L 1766 0 
Q 1100 0 847 248 
Q 594 497 594 1153 
L 594 3053 
L 172 3053 
L 172 3500 
L 594 3500 
L 594 4494 
L 1172 4494 
z
" transform="scale(0.015625)"/>
       <path id="DejaVuSans-76" d="M 191 3500 
L 800 3500 
L 1894 563 
L 2988 3500 
L 3597 3500 
L 2284 0 
L 1503 0 
L 191 3500 
z
" transform="scale(0.015625)"/>
       <path id="DejaVuSans-52" d="M 2841 2188 
Q 3044 2119 3236 1894 
Q 3428 1669 3622 1275 
L 4263 0 
L 3584 0 
L 2988 1197 
Q 2756 1666 2539 1819 
Q 2322 1972 1947 1972 
L 1259 1972 
L 1259 0 
L 628 0 
L 628 4666 
L 2053 4666 
Q 2853 4666 3247 4331 
Q 3641 3997 3641 3322 
Q 3641 2881 3436 2590 
Q 3231 2300 2841 2188 
z
M 1259 4147 
L 1259 2491 
L 2053 2491 
Q 2509 2491 2742 2702 
Q 2975 2913 2975 3322 
Q 2975 3731 2742 3939 
Q 2509 4147 2053 4147 
L 1259 4147 
z
" transform="scale(0.015625)"/>
      </defs>
      <use xlink:href="#DejaVuSans-46"/>
      <use xlink:href="#DejaVuSans-61" x="48.394531"/>
      <use xlink:href="#DejaVuSans-6c" x="109.673828"/>
      <use xlink:href="#DejaVuSans-73" x="137.457031"/>
      <use xlink:href="#DejaVuSans-65" x="189.556641"/>
      <use xlink:href="#DejaVuSans-20" x="251.080078"/>
      <use xlink:href="#DejaVuSans-50" x="282.867188"/>
      <use xlink:href="#DejaVuSans-6f" x="339.544922"/>
      <use xlink:href="#DejaVuSans-73" x="400.726562"/>
      <use xlink:href="#DejaVuSans-69" x="452.826172"/>
      <use xlink:href="#DejaVuSans-74" x="480.609375"/>
      <use xlink:href="#DejaVuSans-69" x="519.818359"/>
      <use xlink:href="#DejaVuSans-76" x="547.601562"/>
      <use xlink:href="#DejaVuSans-65" x="606.78125"/>
      <use xlink:href="#DejaVuSans-20" x="668.304688"/>
      <use xlink:href="#DejaVuSans-52" x="700.091797"/>
      <use xlink:href="#DejaVuSans-61" x="767.324219"/>
      <use xlink:href="#DejaVuSans-74" x="828.603516"/>
      <use xlink:href="#DejaVuSans-65" x="867.8125"/>
     </g>
    </g>
   </g>
   <g id="matplotlib.axis_2">
    <g id="ytick_1">
     <g id="line2d_7">
      <defs>
       <path id="mdc29c057cd" d="M 0 0 
L -3.5 0 
" style="stroke: #000000; stroke-width: 0.8"/>
      </defs>
      <g>
       <use xlink:href="#mdc29c057cd" x="45.716875" y="527.23475" style="stroke: #000000; stroke-width: 0.8"/>
      </g>
     </g>
     <g id="text_8">
      <!-- 0.0 -->
      <g transform="translate(22.81375 531.033969) scale(0.1 -0.1)">
       <use xlink:href="#DejaVuSans-30"/>
       <use xlink:href="#DejaVuSans-2e" x="63.623047"/>
       <use xlink:href="#DejaVuSans-30" x="95.410156"/>
      </g>
     </g>
    </g>
    <g id="ytick_2">
     <g id="line2d_8">
      <g>
       <use xlink:href="#mdc29c057cd" x="45.716875" y="434.335702" style="stroke: #000000; stroke-width: 0.8"/>
      </g>
     </g>
     <g id="text_9">
      <!-- 0.2 -->
      <g transform="translate(22.81375 438.134921) scale(0.1 -0.1)">
       <use xlink:href="#DejaVuSans-30"/>
       <use xlink:href="#DejaVuSans-2e" x="63.623047"/>
       <use xlink:href="#DejaVuSans-32" x="95.410156"/>
      </g>
     </g>
    </g>
    <g id="ytick_3">
     <g id="line2d_9">
      <g>
       <use xlink:href="#mdc29c057cd" x="45.716875" y="341.436655" style="stroke: #000000; stroke-width: 0.8"/>
      </g>
     </g>
     <g id="text_10">
      <!-- 0.4 -->
      <g transform="translate(22.81375 345.235874) scale(0.1 -0.1)">
       <use xlink:href="#DejaVuSans-30"/>
       <use xlink:href="#DejaVuSans-2e" x="63.623047"/>
       <use xlink:href="#DejaVuSans-34" x="95.410156"/>
      </g>
     </g>
    </g>
    <g id="ytick_4">
     <g id="line2d_10">
      <g>
       <use xlink:href="#mdc29c057cd" x="45.716875" y="248.537607" style="stroke: #000000; stroke-width: 0.8"/>
      </g>
     </g>
     <g id="text_11">
      <!-- 0.6 -->
      <g transform="translate(22.81375 252.336826) scale(0.1 -0.1)">
       <use xlink:href="#DejaVuSans-30"/>
       <use xlink:href="#DejaVuSans-2e" x="63.623047"/>
       <use xlink:href="#DejaVuSans-36" x="95.410156"/>
      </g>
     </g>
    </g>
    <g id="ytick_5">
     <g id="line2d_11">
      <g>
       <use xlink:href="#mdc29c057cd" x="45.716875" y="155.63856" style="stroke: #000000; stroke-width: 0.8"/>
      </g>
     </g>
     <g id="text_12">
      <!-- 0.8 -->
      <g transform="translate(22.81375 159.437778) scale(0.1 -0.1)">
       <use xlink:href="#DejaVuSans-30"/>
       <use xlink:href="#DejaVuSans-2e" x="63.623047"/>
       <use xlink:href="#DejaVuSans-38" x="95.410156"/>
      </g>
     </g>
    </g>
    <g id="ytick_6">
     <g id="line2d_12">
      <g>
       <use xlink:href="#mdc29c057cd" x="45.716875" y="62.739512" style="stroke: #000000; stroke-width: 0.8"/>
      </g>
     </g>
     <g id="text_13">
      <!-- 1.0 -->
      <g transform="translate(22.81375 66.538731) scale(0.1 -0.1)">
       <use xlink:href="#DejaVuSans-31"/>
       <use xlink:href="#DejaVuSans-2e" x="63.623047"/>
       <use xlink:href="#DejaVuSans-30" x="95.410156"/>
      </g>
     </g>
    </g>
    <g id="text_14">
     <!-- True Positive Rate -->
     <g transform="translate(16.318125 336.810375) rotate(-90) scale(0.12 -0.12)">
      <defs>
       <path id="DejaVuSans-54" d="M -19 4666 
L 3928 4666 
L 3928 4134 
L 2272 4134 
L 2272 0 
L 1638 0 
L 1638 4134 
L -19 4134 
L -19 4666 
z
" transform="scale(0.015625)"/>
       <path id="DejaVuSans-72" d="M 2631 2963 
Q 2534 3019 2420 3045 
Q 2306 3072 2169 3072 
Q 1681 3072 1420 2755 
Q 1159 2438 1159 1844 
L 1159 0 
L 581 0 
L 581 3500 
L 1159 3500 
L 1159 2956 
Q 1341 3275 1631 3429 
Q 1922 3584 2338 3584 
Q 2397 3584 2469 3576 
Q 2541 3569 2628 3553 
L 2631 2963 
z
" transform="scale(0.015625)"/>
       <path id="DejaVuSans-75" d="M 544 1381 
L 544 3500 
L 1119 3500 
L 1119 1403 
Q 1119 906 1312 657 
Q 1506 409 1894 409 
Q 2359 409 2629 706 
Q 2900 1003 2900 1516 
L 2900 3500 
L 3475 3500 
L 3475 0 
L 2900 0 
L 2900 538 
Q 2691 219 2414 64 
Q 2138 -91 1772 -91 
Q 1169 -91 856 284 
Q 544 659 544 1381 
z
M 1991 3584 
L 1991 3584 
z
" transform="scale(0.015625)"/>
      </defs>
      <use xlink:href="#DejaVuSans-54"/>
      <use xlink:href="#DejaVuSans-72" x="46.333984"/>
      <use xlink:href="#DejaVuSans-75" x="87.447266"/>
      <use xlink:href="#DejaVuSans-65" x="150.826172"/>
      <use xlink:href="#DejaVuSans-20" x="212.349609"/>
      <use xlink:href="#DejaVuSans-50" x="244.136719"/>
      <use xlink:href="#DejaVuSans-6f" x="300.814453"/>
      <use xlink:href="#DejaVuSans-73" x="361.996094"/>
      <use xlink:href="#DejaVuSans-69" x="414.095703"/>
      <use xlink:href="#DejaVuSans-74" x="441.878906"/>
      <use xlink:href="#DejaVuSans-69" x="481.087891"/>
      <use xlink:href="#DejaVuSans-76" x="508.871094"/>
      <use xlink:href="#DejaVuSans-65" x="568.050781"/>
      <use xlink:href="#DejaVuSans-20" x="629.574219"/>
      <use xlink:href="#DejaVuSans-52" x="661.361328"/>
      <use xlink:href="#DejaVuSans-61" x="728.59375"/>
      <use xlink:href="#DejaVuSans-74" x="789.873047"/>
      <use xlink:href="#DejaVuSans-65" x="829.082031"/>
     </g>
    </g>
   </g>
   <g id="line2d_13">
    <path d="M 45.716875 527.23475 
L 45.716875 520.088669 
L 45.716875 498.650428 
L 49.559473 498.650428 
L 49.559473 491.504347 
L 50.84034 491.504347 
L 50.84034 484.358266 
L 57.24467 484.358266 
L 57.24467 477.212186 
L 59.806403 477.212186 
L 59.806403 470.066105 
L 64.929867 470.066105 
L 64.929867 462.920025 
L 67.491599 462.920025 
L 67.491599 448.627864 
L 70.053332 448.627864 
L 70.053332 441.481783 
L 71.334198 441.481783 
L 71.334198 434.335702 
L 79.019395 434.335702 
L 79.019395 427.189622 
L 81.581127 427.189622 
L 81.581127 420.043541 
L 91.828056 420.043541 
L 91.828056 412.897461 
L 105.917584 412.897461 
L 105.917584 398.605299 
L 109.760182 398.605299 
L 109.760182 391.459219 
L 121.287977 391.459219 
L 121.287977 384.313138 
L 123.84971 384.313138 
L 123.84971 377.167058 
L 131.534906 377.167058 
L 131.534906 370.020977 
L 136.658371 370.020977 
L 136.658371 362.874897 
L 143.062702 362.874897 
L 143.062702 355.728816 
L 150.747899 355.728816 
L 150.747899 348.582735 
L 158.433095 348.582735 
L 158.433095 341.436655 
L 171.241757 341.436655 
L 171.241757 334.290574 
L 182.769552 334.290574 
L 182.769552 327.144494 
L 191.735615 327.144494 
L 191.735615 319.998413 
L 223.757269 319.998413 
L 223.757269 305.706252 
L 268.587584 305.706252 
L 268.587584 298.560171 
L 276.272781 298.560171 
L 276.272781 291.414091 
L 285.238844 291.414091 
L 285.238844 284.26801 
L 312.137032 284.26801 
L 312.137032 269.975849 
L 330.069158 269.975849 
L 330.069158 262.829768 
L 345.439552 262.829768 
L 345.439552 255.683688 
L 348.001284 255.683688 
L 348.001284 241.391527 
L 349.282151 241.391527 
L 349.282151 234.245446 
L 354.405615 234.245446 
L 354.405615 227.099365 
L 364.652544 227.099365 
L 364.652544 219.953285 
L 374.899473 219.953285 
L 374.899473 212.807204 
L 377.461206 212.807204 
L 377.461206 205.661124 
L 391.550733 205.661124 
L 391.550733 198.515043 
L 429.976718 198.515043 
L 432.53845 198.515043 
L 437.661914 198.515043 
L 437.661914 191.368962 
L 442.785379 191.368962 
L 442.785379 177.076801 
L 444.066245 177.076801 
L 444.066245 169.930721 
L 454.313174 169.930721 
L 454.313174 162.78464 
L 474.807032 162.78464 
L 474.807032 148.492479 
L 492.739158 148.492479 
L 492.739158 141.346398 
L 500.424355 141.346398 
L 500.424355 134.200318 
L 501.705221 134.200318 
L 501.705221 127.054237 
L 504.266954 127.054237 
L 504.266954 119.908157 
L 514.513883 119.908157 
L 514.513883 112.762076 
L 542.692938 112.762076 
L 542.692938 105.615995 
L 560.625064 105.615995 
L 560.625064 98.469915 
L 561.90593 98.469915 
L 561.90593 91.323834 
L 588.804119 91.323834 
L 588.804119 84.177754 
L 590.084985 84.177754 
L 590.084985 77.031673 
L 688.711678 77.031673 
L 688.711678 62.739512 
L 696.396875 62.739512 
" clip-path="url(#p64881dcce5)" style="fill: none; stroke: #66c2a5; stroke-width: 2; stroke-linecap: square"/>
   </g>
   <g id="line2d_14">
    <path d="M 45.716875 527.23475 
L 45.716875 520.502935 
L 45.716875 493.575675 
L 47.007907 493.575675 
L 47.007907 480.112045 
L 49.58997 480.112045 
L 49.58997 453.184785 
L 50.881002 453.184785 
L 50.881002 446.452969 
L 57.336161 446.452969 
L 57.336161 439.721154 
L 59.918224 439.721154 
L 59.918224 432.989339 
L 63.791319 432.989339 
L 63.791319 426.257524 
L 66.373383 426.257524 
L 66.373383 419.525709 
L 67.664415 419.525709 
L 67.664415 406.062079 
L 70.246478 406.062079 
L 70.246478 385.866634 
L 74.119573 385.866634 
L 74.119573 379.134819 
L 79.2837 379.134819 
L 79.2837 358.939374 
L 80.574732 358.939374 
L 80.574732 352.207559 
L 83.156796 352.207559 
L 83.156796 338.743929 
L 85.738859 338.743929 
L 85.738859 332.012114 
L 107.686399 332.012114 
L 107.686399 325.280299 
L 112.850526 325.280299 
L 112.850526 318.548484 
L 139.962192 318.548484 
L 139.962192 311.816669 
L 148.999415 311.816669 
L 148.999415 305.084854 
L 158.036637 305.084854 
L 158.036637 298.353038 
L 161.909732 298.353038 
L 161.909732 291.621223 
L 182.56624 291.621223 
L 182.56624 278.157593 
L 190.312431 278.157593 
L 190.312431 271.425778 
L 195.476558 271.425778 
L 195.476558 264.693963 
L 209.677907 264.693963 
L 209.677907 257.962148 
L 241.9537 257.962148 
L 241.9537 251.230333 
L 244.535764 251.230333 
L 244.535764 244.498518 
L 245.826796 244.498518 
L 245.826796 237.766703 
L 248.408859 237.766703 
L 248.408859 231.034888 
L 258.737113 231.034888 
L 258.737113 224.303073 
L 287.139812 224.303073 
L 287.139812 217.571258 
L 289.721875 217.571258 
L 292.303938 217.571258 
L 334.907986 217.571258 
L 334.907986 210.839443 
L 378.803065 210.839443 
L 378.803065 204.107628 
L 381.385129 204.107628 
L 381.385129 197.375813 
L 393.004415 197.375813 
L 393.004415 190.643998 
L 395.586478 190.643998 
L 395.586478 183.912183 
L 421.407113 183.912183 
L 421.407113 177.180368 
L 422.698145 177.180368 
L 422.698145 170.448553 
L 423.989177 170.448553 
L 423.989177 163.716738 
L 426.57124 163.716738 
L 426.57124 156.984923 
L 465.302192 156.984923 
L 465.302192 150.253107 
L 525.980685 150.253107 
L 525.980685 143.521292 
L 529.85378 143.521292 
L 529.85378 136.789477 
L 556.965446 136.789477 
L 556.965446 130.057662 
L 586.659177 130.057662 
L 586.659177 123.325847 
L 600.860526 123.325847 
L 600.860526 116.594032 
L 609.897748 116.594032 
L 609.897748 109.862217 
L 616.352907 109.862217 
L 616.352907 103.130402 
L 624.099097 103.130402 
L 624.099097 96.398587 
L 630.554256 96.398587 
L 630.554256 89.666772 
L 640.88251 89.666772 
L 640.88251 82.934957 
L 661.539018 82.934957 
L 661.539018 76.203142 
L 666.703145 76.203142 
L 666.703145 69.471327 
L 667.994177 69.471327 
L 667.994177 62.739512 
L 696.396875 62.739512 
" clip-path="url(#p64881dcce5)" style="fill: none; stroke: #a6d854; stroke-width: 2; stroke-linecap: square"/>
   </g>
   <g id="line2d_15">
    <path d="M 45.716875 527.23475 
L 45.716875 526.176674 
L 50.572696 526.176674 
L 50.572696 524.060523 
L 55.428517 524.060523 
L 55.428517 516.653993 
L 60.284338 516.653993 
L 60.284338 515.595917 
L 65.140159 515.595917 
L 65.140159 514.537841 
L 74.8518 514.537841 
L 74.8518 510.305539 
L 84.563442 510.305539 
L 84.563442 507.131311 
L 89.419263 507.131311 
L 89.419263 500.782857 
L 94.275084 500.782857 
L 94.275084 487.027873 
L 99.130905 487.027873 
L 99.130905 464.808283 
L 103.986726 464.808283 
L 103.986726 460.57598 
L 108.842547 460.57598 
L 108.842547 455.285602 
L 113.698368 455.285602 
L 113.698368 445.76292 
L 118.554188 445.76292 
L 118.554188 441.530617 
L 123.410009 441.530617 
L 123.410009 438.35639 
L 128.26583 438.35639 
L 128.26583 408.73027 
L 133.121651 408.73027 
L 133.121651 390.742983 
L 137.977472 390.742983 
L 137.977472 385.452604 
L 142.833293 385.452604 
L 142.833293 382.278377 
L 152.544935 382.278377 
L 152.544935 369.581469 
L 157.400756 369.581469 
L 157.400756 348.419954 
L 162.256576 348.419954 
L 162.256576 344.187652 
L 167.112397 344.187652 
L 167.112397 332.548819 
L 176.824039 332.548819 
L 176.824039 324.084213 
L 186.535681 324.084213 
L 186.535681 317.735759 
L 191.391502 317.735759 
L 191.391502 316.677683 
L 196.247323 316.677683 
L 196.247323 296.574245 
L 201.103144 296.574245 
L 201.103144 293.400017 
L 205.958965 293.400017 
L 205.958965 287.051563 
L 210.814785 287.051563 
L 210.814785 285.993487 
L 215.670606 285.993487 
L 215.670606 284.935412 
L 220.526427 284.935412 
L 220.526427 279.645033 
L 225.382248 279.645033 
L 225.382248 275.41273 
L 230.238069 275.41273 
L 230.238069 265.890049 
L 239.949711 265.890049 
L 239.949711 261.657746 
L 244.805532 261.657746 
L 244.805532 259.541595 
L 249.661353 259.541595 
L 249.661353 257.425443 
L 254.517174 257.425443 
L 254.517174 248.960837 
L 259.372994 248.960837 
L 259.372994 247.902762 
L 264.228815 247.902762 
L 264.228815 245.78661 
L 273.940457 245.78661 
L 273.940457 244.728535 
L 283.652099 244.728535 
L 283.652099 243.670459 
L 288.50792 243.670459 
L 288.50792 239.438156 
L 293.363741 239.438156 
L 293.363741 233.089702 
L 298.219562 233.089702 
L 298.219562 230.97355 
L 303.075382 230.97355 
L 303.075382 224.625096 
L 307.931203 224.625096 
L 307.931203 220.392793 
L 312.787024 220.392793 
L 312.787024 215.102415 
L 317.642845 215.102415 
L 317.642845 212.986263 
L 322.498666 212.986263 
L 322.498666 211.928187 
L 327.354487 211.928187 
L 327.354487 199.231279 
L 332.210308 199.231279 
L 332.210308 198.173203 
L 337.066129 198.173203 
L 337.066129 192.882825 
L 341.92195 192.882825 
L 341.92195 189.708597 
L 346.777771 189.708597 
L 346.777771 188.650522 
L 351.633591 188.650522 
L 351.633591 182.302067 
L 356.489412 182.302067 
L 356.489412 171.72131 
L 361.345233 171.72131 
L 361.345233 151.617872 
L 366.201054 151.617872 
L 366.201054 147.385569 
L 375.912696 147.385569 
L 375.912696 143.153266 
L 380.768517 143.153266 
L 380.768517 142.09519 
L 385.624338 142.09519 
L 385.624338 139.979039 
L 390.480159 139.979039 
L 390.480159 138.920963 
L 395.335979 138.920963 
L 395.335979 136.804812 
L 405.047621 136.804812 
L 405.047621 134.68866 
L 414.759263 134.68866 
L 414.759263 131.514433 
L 424.470905 131.514433 
L 424.470905 127.28213 
L 429.326726 127.28213 
L 429.326726 126.224055 
L 434.182547 126.224055 
L 434.182547 119.8756 
L 439.038368 119.8756 
L 439.038368 117.759449 
L 443.894188 117.759449 
L 443.894188 114.585222 
L 448.750009 114.585222 
L 448.750009 113.527146 
L 453.60583 113.527146 
L 453.60583 110.352919 
L 458.461651 110.352919 
L 458.461651 109.294843 
L 463.317472 109.294843 
L 463.317472 108.236768 
L 482.740756 108.236768 
L 482.740756 107.178692 
L 497.308218 107.178692 
L 497.308218 105.06254 
L 502.164039 105.06254 
L 502.164039 100.830238 
L 507.01986 100.830238 
L 507.01986 99.772162 
L 511.875681 99.772162 
L 511.875681 98.714086 
L 516.731502 98.714086 
L 516.731502 95.539859 
L 521.587323 95.539859 
L 521.587323 94.481783 
L 526.443144 94.481783 
L 526.443144 90.24948 
L 536.154785 90.24948 
L 536.154785 88.133329 
L 545.866427 88.133329 
L 545.866427 87.075253 
L 550.722248 87.075253 
L 550.722248 82.84295 
L 555.578069 82.84295 
L 555.578069 81.784875 
L 570.145532 81.784875 
L 570.145532 79.668723 
L 579.857174 79.668723 
L 579.857174 78.610648 
L 589.568815 78.610648 
L 589.568815 75.43642 
L 599.280457 75.43642 
L 599.280457 73.320269 
L 604.136278 73.320269 
L 604.136278 72.262193 
L 642.982845 72.262193 
L 642.982845 70.146042 
L 652.694487 70.146042 
L 652.694487 63.797588 
L 662.406129 63.797588 
L 662.406129 62.739512 
L 696.396875 62.739512 
L 696.396875 62.739512 
" clip-path="url(#p64881dcce5)" style="fill: none; stroke: #b3b3b3; stroke-width: 2; stroke-linecap: square"/>
   </g>
   <g id="line2d_16">
    <path d="M 45.716875 527.23475 
L 696.396875 62.739512 
" clip-path="url(#p64881dcce5)" style="fill: none; stroke-dasharray: 3.7,1.6; stroke-dashoffset: 0; stroke: #000000"/>
   </g>
   <g id="patch_3">
    <path d="M 45.716875 527.23475 
L 45.716875 39.51475 
" style="fill: none; stroke: #000000; stroke-width: 0.8; stroke-linejoin: miter; stroke-linecap: square"/>
   </g>
   <g id="patch_4">
    <path d="M 696.396875 527.23475 
L 696.396875 39.51475 
" style="fill: none; stroke: #000000; stroke-width: 0.8; stroke-linejoin: miter; stroke-linecap: square"/>
   </g>
   <g id="patch_5">
    <path d="M 45.716875 527.23475 
L 696.396875 527.23475 
" style="fill: none; stroke: #000000; stroke-width: 0.8; stroke-linejoin: miter; stroke-linecap: square"/>
   </g>
   <g id="patch_6">
    <path d="M 45.716875 39.51475 
L 696.396875 39.51475 
" style="fill: none; stroke: #000000; stroke-width: 0.8; stroke-linejoin: miter; stroke-linecap: square"/>
   </g>
   <g id="text_15">
    <!-- ROC Curves (One-vs-Rest) -->
    <g transform="translate(279.426875 17.837812) scale(0.14 -0.14)">
     <defs>
      <path id="DejaVuSans-4f" d="M 2522 4238 
Q 1834 4238 1429 3725 
Q 1025 3213 1025 2328 
Q 1025 1447 1429 934 
Q 1834 422 2522 422 
Q 3209 422 3611 934 
Q 4013 1447 4013 2328 
Q 4013 3213 3611 3725 
Q 3209 4238 2522 4238 
z
M 2522 4750 
Q 3503 4750 4090 4092 
Q 4678 3434 4678 2328 
Q 4678 1225 4090 567 
Q 3503 -91 2522 -91 
Q 1538 -91 948 565 
Q 359 1222 359 2328 
Q 359 3434 948 4092 
Q 1538 4750 2522 4750 
z
" transform="scale(0.015625)"/>
      <path id="DejaVuSans-43" d="M 4122 4306 
L 4122 3641 
Q 3803 3938 3442 4084 
Q 3081 4231 2675 4231 
Q 1875 4231 1450 3742 
Q 1025 3253 1025 2328 
Q 1025 1406 1450 917 
Q 1875 428 2675 428 
Q 3081 428 3442 575 
Q 3803 722 4122 1019 
L 4122 359 
Q 3791 134 3420 21 
Q 3050 -91 2638 -91 
Q 1578 -91 968 557 
Q 359 1206 359 2328 
Q 359 3453 968 4101 
Q 1578 4750 2638 4750 
Q 3056 4750 3426 4639 
Q 3797 4528 4122 4306 
z
" transform="scale(0.015625)"/>
      <path id="DejaVuSans-28" d="M 1984 4856 
Q 1566 4138 1362 3434 
Q 1159 2731 1159 2009 
Q 1159 1288 1364 580 
Q 1569 -128 1984 -844 
L 1484 -844 
Q 1016 -109 783 600 
Q 550 1309 550 2009 
Q 550 2706 781 3412 
Q 1013 4119 1484 4856 
L 1984 4856 
z
" transform="scale(0.015625)"/>
      <path id="DejaVuSans-6e" d="M 3513 2113 
L 3513 0 
L 2938 0 
L 2938 2094 
Q 2938 2591 2744 2837 
Q 2550 3084 2163 3084 
Q 1697 3084 1428 2787 
Q 1159 2491 1159 1978 
L 1159 0 
L 581 0 
L 581 3500 
L 1159 3500 
L 1159 2956 
Q 1366 3272 1645 3428 
Q 1925 3584 2291 3584 
Q 2894 3584 3203 3211 
Q 3513 2838 3513 2113 
z
" transform="scale(0.015625)"/>
      <path id="DejaVuSans-2d" d="M 313 2009 
L 1997 2009 
L 1997 1497 
L 313 1497 
L 313 2009 
z
" transform="scale(0.015625)"/>
      <path id="DejaVuSans-29" d="M 513 4856 
L 1013 4856 
Q 1481 4119 1714 3412 
Q 1947 2706 1947 2009 
Q 1947 1309 1714 600 
Q 1481 -109 1013 -844 
L 513 -844 
Q 928 -128 1133 580 
Q 1338 1288 1338 2009 
Q 1338 2731 1133 3434 
Q 928 4138 513 4856 
z
" transform="scale(0.015625)"/>
     </defs>
     <use xlink:href="#DejaVuSans-52"/>
     <use xlink:href="#DejaVuSans-4f" x="69.482422"/>
     <use xlink:href="#DejaVuSans-43" x="148.193359"/>
     <use xlink:href="#DejaVuSans-20" x="218.017578"/>
     <use xlink:href="#DejaVuSans-43" x="249.804688"/>
     <use xlink:href="#DejaVuSans-75" x="319.628906"/>
     <use xlink:href="#DejaVuSans-72" x="383.007812"/>
     <use xlink:href="#DejaVuSans-76" x="424.121094"/>
     <use xlink:href="#DejaVuSans-65" x="483.300781"/>
     <use xlink:href="#DejaVuSans-73" x="544.824219"/>
     <use xlink:href="#DejaVuSans-20" x="596.923828"/>
     <use xlink:href="#DejaVuSans-28" x="628.710938"/>
     <use xlink:href="#DejaVuSans-4f" x="667.724609"/>
     <use xlink:href="#DejaVuSans-6e" x="746.435547"/>
     <use xlink:href="#DejaVuSans-65" x="809.814453"/>
     <use xlink:href="#DejaVuSans-2d" x="871.337891"/>
     <use xlink:href="#DejaVuSans-76" x="904.796875"/>
     <use xlink:href="#DejaVuSans-73" x="963.976562"/>
     <use xlink:href="#DejaVuSans-2d" x="1016.076172"/>
     <use xlink:href="#DejaVuSans-52" x="1052.160156"/>
     <use xlink:href="#DejaVuSans-65" x="1117.142578"/>
     <use xlink:href="#DejaVuSans-73" x="1178.666016"/>
     <use xlink:href="#DejaVuSans-74" x="1230.765625"/>
     <use xlink:href="#DejaVuSans-29" x="1269.974609"/>
    </g>
    <!-- Mean AUC = 0.671 -->
    <g transform="translate(304.605 33.51475) scale(0.14 -0.14)">
     <defs>
      <path id="DejaVuSans-4d" d="M 628 4666 
L 1569 4666 
L 2759 1491 
L 3956 4666 
L 4897 4666 
L 4897 0 
L 4281 0 
L 4281 4097 
L 3078 897 
L 2444 897 
L 1241 4097 
L 1241 0 
L 628 0 
L 628 4666 
z
" transform="scale(0.015625)"/>
      <path id="DejaVuSans-41" d="M 2188 4044 
L 1331 1722 
L 3047 1722 
L 2188 4044 
z
M 1831 4666 
L 2547 4666 
L 4325 0 
L 3669 0 
L 3244 1197 
L 1141 1197 
L 716 0 
L 50 0 
L 1831 4666 
z
" transform="scale(0.015625)"/>
      <path id="DejaVuSans-55" d="M 556 4666 
L 1191 4666 
L 1191 1831 
Q 1191 1081 1462 751 
Q 1734 422 2344 422 
Q 2950 422 3222 751 
Q 3494 1081 3494 1831 
L 3494 4666 
L 4128 4666 
L 4128 1753 
Q 4128 841 3676 375 
Q 3225 -91 2344 -91 
Q 1459 -91 1007 375 
Q 556 841 556 1753 
L 556 4666 
z
" transform="scale(0.015625)"/>
      <path id="DejaVuSans-3d" d="M 678 2906 
L 4684 2906 
L 4684 2381 
L 678 2381 
L 678 2906 
z
M 678 1631 
L 4684 1631 
L 4684 1100 
L 678 1100 
L 678 1631 
z
" transform="scale(0.015625)"/>
      <path id="DejaVuSans-37" d="M 525 4666 
L 3525 4666 
L 3525 4397 
L 1831 0 
L 1172 0 
L 2766 4134 
L 525 4134 
L 525 4666 
z
" transform="scale(0.015625)"/>
     </defs>
     <use xlink:href="#DejaVuSans-4d"/>
     <use xlink:href="#DejaVuSans-65" x="86.279297"/>
     <use xlink:href="#DejaVuSans-61" x="147.802734"/>
     <use xlink:href="#DejaVuSans-6e" x="209.082031"/>
     <use xlink:href="#DejaVuSans-20" x="272.460938"/>
     <use xlink:href="#DejaVuSans-41" x="304.248047"/>
     <use xlink:href="#DejaVuSans-55" x="372.65625"/>
     <use xlink:href="#DejaVuSans-43" x="445.849609"/>
     <use xlink:href="#DejaVuSans-20" x="515.673828"/>
     <use xlink:href="#DejaVuSans-3d" x="547.460938"/>
     <use xlink:href="#DejaVuSans-20" x="631.25"/>
     <use xlink:href="#DejaVuSans-30" x="663.037109"/>
     <use xlink:href="#DejaVuSans-2e" x="726.660156"/>
     <use xlink:href="#DejaVuSans-36" x="758.447266"/>
     <use xlink:href="#DejaVuSans-37" x="822.070312"/>
     <use xlink:href="#DejaVuSans-31" x="885.693359"/>
    </g>
   </g>
   <g id="legend_1">
    <g id="patch_7">
     <path d="M 575.801563 522.23475 
L 689.396875 522.23475 
Q 691.396875 522.23475 691.396875 520.23475 
L 691.396875 462.52225 
Q 691.396875 460.52225 689.396875 460.52225 
L 575.801563 460.52225 
Q 573.801563 460.52225 573.801563 462.52225 
L 573.801563 520.23475 
Q 573.801563 522.23475 575.801563 522.23475 
z
" style="fill: #ffffff; opacity: 0.8; stroke: #cccccc; stroke-linejoin: miter"/>
    </g>
    <g id="line2d_17">
     <path d="M 577.801563 468.620687 
L 587.801563 468.620687 
L 597.801563 468.620687 
" style="fill: none; stroke: #66c2a5; stroke-width: 2; stroke-linecap: square"/>
    </g>
    <g id="text_16">
     <!-- T4 (AUC = 0.64) -->
     <g transform="translate(605.801563 472.120687) scale(0.1 -0.1)">
      <use xlink:href="#DejaVuSans-54"/>
      <use xlink:href="#DejaVuSans-34" x="61.083984"/>
      <use xlink:href="#DejaVuSans-20" x="124.707031"/>
      <use xlink:href="#DejaVuSans-28" x="156.494141"/>
      <use xlink:href="#DejaVuSans-41" x="195.507812"/>
      <use xlink:href="#DejaVuSans-55" x="263.916016"/>
      <use xlink:href="#DejaVuSans-43" x="337.109375"/>
      <use xlink:href="#DejaVuSans-20" x="406.933594"/>
      <use xlink:href="#DejaVuSans-3d" x="438.720703"/>
      <use xlink:href="#DejaVuSans-20" x="522.509766"/>
      <use xlink:href="#DejaVuSans-30" x="554.296875"/>
      <use xlink:href="#DejaVuSans-2e" x="617.919922"/>
      <use xlink:href="#DejaVuSans-36" x="649.707031"/>
      <use xlink:href="#DejaVuSans-34" x="713.330078"/>
      <use xlink:href="#DejaVuSans-29" x="776.953125"/>
     </g>
    </g>
    <g id="line2d_18">
     <path d="M 577.801563 483.298812 
L 587.801563 483.298812 
L 597.801563 483.298812 
" style="fill: none; stroke: #a6d854; stroke-width: 2; stroke-linecap: square"/>
    </g>
    <g id="text_17">
     <!-- T5 (AUC = 0.69) -->
     <g transform="translate(605.801563 486.798812) scale(0.1 -0.1)">
      <defs>
       <path id="DejaVuSans-35" d="M 691 4666 
L 3169 4666 
L 3169 4134 
L 1269 4134 
L 1269 2991 
Q 1406 3038 1543 3061 
Q 1681 3084 1819 3084 
Q 2600 3084 3056 2656 
Q 3513 2228 3513 1497 
Q 3513 744 3044 326 
Q 2575 -91 1722 -91 
Q 1428 -91 1123 -41 
Q 819 9 494 109 
L 494 744 
Q 775 591 1075 516 
Q 1375 441 1709 441 
Q 2250 441 2565 725 
Q 2881 1009 2881 1497 
Q 2881 1984 2565 2268 
Q 2250 2553 1709 2553 
Q 1456 2553 1204 2497 
Q 953 2441 691 2322 
L 691 4666 
z
" transform="scale(0.015625)"/>
       <path id="DejaVuSans-39" d="M 703 97 
L 703 672 
Q 941 559 1184 500 
Q 1428 441 1663 441 
Q 2288 441 2617 861 
Q 2947 1281 2994 2138 
Q 2813 1869 2534 1725 
Q 2256 1581 1919 1581 
Q 1219 1581 811 2004 
Q 403 2428 403 3163 
Q 403 3881 828 4315 
Q 1253 4750 1959 4750 
Q 2769 4750 3195 4129 
Q 3622 3509 3622 2328 
Q 3622 1225 3098 567 
Q 2575 -91 1691 -91 
Q 1453 -91 1209 -44 
Q 966 3 703 97 
z
M 1959 2075 
Q 2384 2075 2632 2365 
Q 2881 2656 2881 3163 
Q 2881 3666 2632 3958 
Q 2384 4250 1959 4250 
Q 1534 4250 1286 3958 
Q 1038 3666 1038 3163 
Q 1038 2656 1286 2365 
Q 1534 2075 1959 2075 
z
" transform="scale(0.015625)"/>
      </defs>
      <use xlink:href="#DejaVuSans-54"/>
      <use xlink:href="#DejaVuSans-35" x="61.083984"/>
      <use xlink:href="#DejaVuSans-20" x="124.707031"/>
      <use xlink:href="#DejaVuSans-28" x="156.494141"/>
      <use xlink:href="#DejaVuSans-41" x="195.507812"/>
      <use xlink:href="#DejaVuSans-55" x="263.916016"/>
      <use xlink:href="#DejaVuSans-43" x="337.109375"/>
      <use xlink:href="#DejaVuSans-20" x="406.933594"/>
      <use xlink:href="#DejaVuSans-3d" x="438.720703"/>
      <use xlink:href="#DejaVuSans-20" x="522.509766"/>
      <use xlink:href="#DejaVuSans-30" x="554.296875"/>
      <use xlink:href="#DejaVuSans-2e" x="617.919922"/>
      <use xlink:href="#DejaVuSans-36" x="649.707031"/>
      <use xlink:href="#DejaVuSans-39" x="713.330078"/>
      <use xlink:href="#DejaVuSans-29" x="776.953125"/>
     </g>
    </g>
    <g id="line2d_19">
     <path d="M 577.801563 497.976937 
L 587.801563 497.976937 
L 597.801563 497.976937 
" style="fill: none; stroke: #b3b3b3; stroke-width: 2; stroke-linecap: square"/>
    </g>
    <g id="text_18">
     <!-- T7 (AUC = 0.68) -->
     <g transform="translate(605.801563 501.476937) scale(0.1 -0.1)">
      <use xlink:href="#DejaVuSans-54"/>
      <use xlink:href="#DejaVuSans-37" x="61.083984"/>
      <use xlink:href="#DejaVuSans-20" x="124.707031"/>
      <use xlink:href="#DejaVuSans-28" x="156.494141"/>
      <use xlink:href="#DejaVuSans-41" x="195.507812"/>
      <use xlink:href="#DejaVuSans-55" x="263.916016"/>
      <use xlink:href="#DejaVuSans-43" x="337.109375"/>
      <use xlink:href="#DejaVuSans-20" x="406.933594"/>
      <use xlink:href="#DejaVuSans-3d" x="438.720703"/>
      <use xlink:href="#DejaVuSans-20" x="522.509766"/>
      <use xlink:href="#DejaVuSans-30" x="554.296875"/>
      <use xlink:href="#DejaVuSans-2e" x="617.919922"/>
      <use xlink:href="#DejaVuSans-36" x="649.707031"/>
      <use xlink:href="#DejaVuSans-38" x="713.330078"/>
      <use xlink:href="#DejaVuSans-29" x="776.953125"/>
     </g>
    </g>
    <g id="line2d_20">
     <path d="M 577.801563 512.655062 
L 587.801563 512.655062 
L 597.801563 512.655062 
" style="fill: none; stroke-dasharray: 3.7,1.6; stroke-dashoffset: 0; stroke: #000000"/>
    </g>
    <g id="text_19">
     <!-- Random -->
     <g transform="translate(605.801563 516.155062) scale(0.1 -0.1)">
      <defs>
       <path id="DejaVuSans-64" d="M 2906 2969 
L 2906 4863 
L 3481 4863 
L 3481 0 
L 2906 0 
L 2906 525 
Q 2725 213 2448 61 
Q 2172 -91 1784 -91 
Q 1150 -91 751 415 
Q 353 922 353 1747 
Q 353 2572 751 3078 
Q 1150 3584 1784 3584 
Q 2172 3584 2448 3432 
Q 2725 3281 2906 2969 
z
M 947 1747 
Q 947 1113 1208 752 
Q 1469 391 1925 391 
Q 2381 391 2643 752 
Q 2906 1113 2906 1747 
Q 2906 2381 2643 2742 
Q 2381 3103 1925 3103 
Q 1469 3103 1208 2742 
Q 947 2381 947 1747 
z
" transform="scale(0.015625)"/>
       <path id="DejaVuSans-6d" d="M 3328 2828 
Q 3544 3216 3844 3400 
Q 4144 3584 4550 3584 
Q 5097 3584 5394 3201 
Q 5691 2819 5691 2113 
L 5691 0 
L 5113 0 
L 5113 2094 
Q 5113 2597 4934 2840 
Q 4756 3084 4391 3084 
Q 3944 3084 3684 2787 
Q 3425 2491 3425 1978 
L 3425 0 
L 2847 0 
L 2847 2094 
Q 2847 2600 2669 2842 
Q 2491 3084 2119 3084 
Q 1678 3084 1418 2786 
Q 1159 2488 1159 1978 
L 1159 0 
L 581 0 
L 581 3500 
L 1159 3500 
L 1159 2956 
Q 1356 3278 1631 3431 
Q 1906 3584 2284 3584 
Q 2666 3584 2933 3390 
Q 3200 3197 3328 2828 
z
" transform="scale(0.015625)"/>
      </defs>
      <use xlink:href="#DejaVuSans-52"/>
      <use xlink:href="#DejaVuSans-61" x="67.232422"/>
      <use xlink:href="#DejaVuSans-6e" x="128.511719"/>
      <use xlink:href="#DejaVuSans-64" x="191.890625"/>
      <use xlink:href="#DejaVuSans-6f" x="255.367188"/>
      <use xlink:href="#DejaVuSans-6d" x="316.548828"/>
     </g>
    </g>
   </g>
  </g>
 </g>
 <defs>
  <clipPath id="p64881dcce5">
   <rect x="45.716875" y="39.51475" width="650.68" height="487.72"/>
  </clipPath>
 </defs>
</svg>
