<?xml version="1.0" encoding="utf-8" standalone="no"?>
<!DOCTYPE svg PUBLIC "-//W3C//DTD SVG 1.1//EN"
  "http://www.w3.org/Graphics/SVG/1.1/DTD/svg11.dtd">
<svg xmlns:xlink="http://www.w3.org/1999/xlink" width="714.300413pt" height="247.454375pt" viewBox="0 0 714.300413 247.454375" xmlns="http://www.w3.org/2000/svg" version="1.1">
 <metadata>
  <rdf:RDF xmlns:dc="http://purl.org/dc/elements/1.1/" xmlns:cc="http://creativecommons.org/ns#" xmlns:rdf="http://www.w3.org/1999/02/22-rdf-syntax-ns#">
   <cc:Work>
    <dc:type rdf:resource="http://purl.org/dc/dcmitype/StillImage"/>
    <dc:date>2026-01-13T16:23:56.617317</dc:date>
    <dc:format>image/svg+xml</dc:format>
    <dc:creator>
     <cc:Agent>
      <dc:title>Matplotlib v3.9.2, https://matplotlib.org/</dc:title>
     </cc:Agent>
    </dc:creator>
   </cc:Work>
  </rdf:RDF>
 </metadata>
 <defs>
  <style type="text/css">*{stroke-linejoin: round; stroke-linecap: butt}</style>
 </defs>
 <g id="figure_1">
  <g id="patch_1">
   <path d="M 0 247.454375 
L 714.300413 247.454375 
L 714.300413 0 
L 0 0 
z
" style="fill: #ffffff"/>
  </g>
  <g id="axes_1">
   <g id="patch_2">
    <path d="M 45.656875 212.354688 
L 233.580413 212.354688 
L 233.580413 21.054688 
L 45.656875 21.054688 
z
" style="fill: #ffffff"/>
   </g>
   <g id="PolyCollection_1">
    <defs>
     <path id="m941459c68a" d="M 45.656875 -134.508456 
L 45.656875 -43.795142 
L 47.976919 -43.795142 
L 50.296962 -43.795142 
L 52.617006 -43.795142 
L 54.93705 -43.795142 
L 57.257093 -43.795142 
L 59.577137 -43.795142 
L 61.897181 -43.795142 
L 64.217224 -43.795142 
L 66.537268 -43.795142 
L 68.857312 -43.795142 
L 71.177355 -43.795142 
L 73.497399 -43.795142 
L 75.817443 -43.795142 
L 78.137486 -43.795142 
L 80.45753 -43.795142 
L 82.777574 -43.795142 
L 85.097617 -43.795142 
L 87.417661 -43.795142 
L 89.737705 -43.795142 
L 92.057748 -43.795142 
L 94.377792 -43.795142 
L 96.697836 -43.795142 
L 99.017879 -43.795142 
L 101.337923 -43.795142 
L 103.657967 -43.795142 
L 105.978011 -43.795142 
L 108.298054 -43.795142 
L 110.618098 -43.795142 
L 112.938142 -43.795142 
L 115.258185 -43.795142 
L 117.578229 -43.795142 
L 119.898273 -43.795142 
L 122.218316 -43.795142 
L 124.53836 -43.795142 
L 126.858404 -43.795142 
L 129.178447 -43.795142 
L 131.498491 -43.795142 
L 133.818535 -43.795142 
L 136.138578 -43.795142 
L 138.458622 -43.795142 
L 140.778666 -43.795142 
L 143.098709 -43.795142 
L 145.418753 -43.795142 
L 147.738797 -43.795142 
L 150.05884 -43.795142 
L 152.378884 -43.795142 
L 154.698928 -43.795142 
L 157.018971 -43.795142 
L 159.339015 -43.795142 
L 161.659059 -43.795142 
L 163.979102 -43.795142 
L 166.299146 -43.795142 
L 168.61919 -43.795142 
L 170.939233 -43.795142 
L 173.259277 -43.795142 
L 175.579321 -43.795142 
L 177.899364 -43.795142 
L 180.219408 -43.795142 
L 182.539452 -43.795142 
L 184.859495 -43.795142 
L 187.179539 -43.795142 
L 189.499583 -43.795142 
L 191.819626 -43.795142 
L 194.13967 -43.795142 
L 196.459714 -43.795142 
L 198.779757 -43.795142 
L 201.099801 -43.795142 
L 203.419845 -43.795142 
L 205.739888 -43.795142 
L 208.059932 -43.795142 
L 210.379976 -43.795142 
L 212.70002 -43.795142 
L 215.020063 -43.795142 
L 217.340107 -43.795142 
L 219.660151 -43.795142 
L 221.980194 -43.795142 
L 224.300238 -43.795142 
L 226.620282 -43.795142 
L 228.940325 -43.795142 
L 231.260369 -43.795142 
L 233.580413 -43.795142 
L 233.580413 -138.069863 
L 233.580413 -138.069863 
L 231.260369 -137.250645 
L 228.940325 -137.599248 
L 226.620282 -172.261677 
L 224.300238 -136.505535 
L 221.980194 -152.642118 
L 219.660151 -129.812292 
L 217.340107 -149.406804 
L 215.020063 -119.615258 
L 212.70002 -123.136252 
L 210.379976 -143.327503 
L 208.059932 -120.074126 
L 205.739888 -118.309131 
L 203.419845 -142.124464 
L 201.099801 -125.664458 
L 198.779757 -128.147928 
L 196.459714 -153.239811 
L 194.13967 -217.704233 
L 191.819626 -130.538123 
L 189.499583 -181.08389 
L 187.179539 -106.887078 
L 184.859495 -130.254233 
L 182.539452 -118.733874 
L 180.219408 -114.135612 
L 177.899364 -132.34887 
L 175.579321 -135.045938 
L 173.259277 -154.867688 
L 170.939233 -119.466598 
L 168.61919 -115.121907 
L 166.299146 -115.056313 
L 163.979102 -155.425309 
L 161.659059 -140.43115 
L 159.339015 -150.648974 
L 157.018971 -157.258575 
L 154.698928 -132.043478 
L 152.378884 -145.390091 
L 150.05884 -137.296836 
L 147.738797 -112.6348 
L 145.418753 -129.51411 
L 143.098709 -115.649027 
L 140.778666 -119.856372 
L 138.458622 -128.431448 
L 136.138578 -110.181241 
L 133.818535 -80.55982 
L 131.498491 -110.176267 
L 129.178447 -109.082981 
L 126.858404 -106.315368 
L 124.53836 -102.981105 
L 122.218316 -92.406036 
L 119.898273 -135.662108 
L 117.578229 -147.8336 
L 115.258185 -105.712947 
L 112.938142 -122.551299 
L 110.618098 -136.490858 
L 108.298054 -92.431673 
L 105.978011 -114.621274 
L 103.657967 -106.28192 
L 101.337923 -107.569671 
L 99.017879 -92.167999 
L 96.697836 -115.872634 
L 94.377792 -127.335207 
L 92.057748 -105.593355 
L 89.737705 -99.179445 
L 87.417661 -119.205929 
L 85.097617 -132.158623 
L 82.777574 -101.317372 
L 80.45753 -92.557354 
L 78.137486 -107.135919 
L 75.817443 -123.429085 
L 73.497399 -112.781667 
L 71.177355 -105.537585 
L 68.857312 -123.019275 
L 66.537268 -118.36876 
L 64.217224 -94.941317 
L 61.897181 -127.868905 
L 59.577137 -117.435205 
L 57.257093 -127.517982 
L 54.93705 -107.737641 
L 52.617006 -111.715684 
L 50.296962 -125.932042 
L 47.976919 -112.096729 
L 45.656875 -134.508456 
z
" style="stroke: #e85d04; stroke-opacity: 0.3"/>
    </defs>
    <g clip-path="url(#p6d52cd0a57)">
     <use xlink:href="#m941459c68a" x="0" y="247.454375" style="fill: #e85d04; fill-opacity: 0.3; stroke: #e85d04; stroke-opacity: 0.3"/>
    </g>
   </g>
   <g id="matplotlib.axis_1">
    <g id="xtick_1">
     <g id="line2d_1">
      <defs>
       <path id="mee04687767" d="M 0 0 
L 0 4 
" style="stroke: #000000"/>
      </defs>
      <g>
       <use xlink:href="#mee04687767" x="89.737705" y="212.354688" style="stroke: #000000"/>
      </g>
     </g>
     <g id="text_1">
      <!-- 20 -->
      <g transform="translate(85.290205 225.567187) scale(0.08 -0.08)">
       <defs>
        <path id="HelveticaNeue-32" d="M 282 2931 
L 826 2931 
Q 819 3136 867 3337 
Q 915 3539 1024 3699 
Q 1133 3859 1302 3958 
Q 1472 4058 1709 4058 
Q 1888 4058 2048 4000 
Q 2208 3942 2326 3833 
Q 2445 3725 2515 3574 
Q 2586 3424 2586 3238 
Q 2586 3002 2512 2822 
Q 2438 2643 2294 2489 
Q 2150 2336 1932 2185 
Q 1715 2035 1427 1856 
Q 1190 1715 972 1555 
Q 755 1395 582 1184 
Q 410 973 298 688 
Q 186 403 154 0 
L 3117 0 
L 3117 480 
L 787 480 
Q 826 691 950 854 
Q 1075 1018 1251 1158 
Q 1427 1299 1638 1424 
Q 1850 1549 2061 1677 
Q 2272 1811 2470 1958 
Q 2669 2106 2822 2288 
Q 2976 2470 3069 2700 
Q 3162 2931 3162 3232 
Q 3162 3552 3050 3795 
Q 2938 4038 2746 4201 
Q 2554 4365 2294 4451 
Q 2035 4538 1741 4538 
Q 1382 4538 1100 4416 
Q 819 4294 630 4080 
Q 442 3866 352 3571 
Q 262 3277 282 2931 
z
" transform="scale(0.015625)"/>
        <path id="HelveticaNeue-30" d="M 845 2234 
Q 845 2400 848 2601 
Q 851 2803 880 3004 
Q 909 3206 963 3398 
Q 1018 3590 1123 3734 
Q 1229 3878 1389 3968 
Q 1549 4058 1779 4058 
Q 2010 4058 2170 3968 
Q 2330 3878 2435 3734 
Q 2541 3590 2595 3398 
Q 2650 3206 2678 3004 
Q 2707 2803 2710 2601 
Q 2714 2400 2714 2234 
Q 2714 1978 2698 1661 
Q 2682 1344 2595 1065 
Q 2509 787 2317 595 
Q 2125 403 1779 403 
Q 1434 403 1242 595 
Q 1050 787 963 1065 
Q 877 1344 861 1661 
Q 845 1978 845 2234 
z
M 269 2227 
Q 269 1978 281 1709 
Q 294 1440 345 1184 
Q 397 928 493 701 
Q 589 474 755 301 
Q 922 128 1174 29 
Q 1427 -70 1779 -70 
Q 2138 -70 2387 29 
Q 2637 128 2803 301 
Q 2970 474 3066 701 
Q 3162 928 3213 1184 
Q 3264 1440 3277 1709 
Q 3290 1978 3290 2227 
Q 3290 2477 3277 2745 
Q 3264 3014 3213 3270 
Q 3162 3526 3066 3756 
Q 2970 3987 2803 4160 
Q 2637 4333 2384 4435 
Q 2131 4538 1779 4538 
Q 1427 4538 1174 4435 
Q 922 4333 755 4160 
Q 589 3987 493 3756 
Q 397 3526 345 3270 
Q 294 3014 281 2745 
Q 269 2477 269 2227 
z
" transform="scale(0.015625)"/>
       </defs>
       <use xlink:href="#HelveticaNeue-32"/>
       <use xlink:href="#HelveticaNeue-30" x="55.599991"/>
      </g>
     </g>
    </g>
    <g id="xtick_2">
     <g id="line2d_2">
      <g>
       <use xlink:href="#mee04687767" x="136.138578" y="212.354688" style="stroke: #000000"/>
      </g>
     </g>
     <g id="text_2">
      <!-- 40 -->
      <g transform="translate(131.691078 225.567187) scale(0.08 -0.08)">
       <defs>
        <path id="HelveticaNeue-34" d="M 2170 1542 
L 646 1542 
L 2157 3763 
L 2170 3763 
L 2170 1542 
z
M 2682 1542 
L 2682 4538 
L 2246 4538 
L 179 1587 
L 179 1062 
L 2170 1062 
L 2170 0 
L 2682 0 
L 2682 1062 
L 3296 1062 
L 3296 1542 
L 2682 1542 
z
" transform="scale(0.015625)"/>
       </defs>
       <use xlink:href="#HelveticaNeue-34"/>
       <use xlink:href="#HelveticaNeue-30" x="55.599991"/>
      </g>
     </g>
    </g>
    <g id="xtick_3">
     <g id="line2d_3">
      <g>
       <use xlink:href="#mee04687767" x="182.539452" y="212.354688" style="stroke: #000000"/>
      </g>
     </g>
     <g id="text_3">
      <!-- 60 -->
      <g transform="translate(178.091952 225.567187) scale(0.08 -0.08)">
       <defs>
        <path id="HelveticaNeue-36" d="M 2650 3379 
L 3194 3379 
Q 3142 3942 2809 4240 
Q 2477 4538 1914 4538 
Q 1427 4538 1107 4333 
Q 787 4128 595 3789 
Q 403 3450 323 3011 
Q 243 2573 243 2106 
Q 243 1747 297 1363 
Q 352 979 518 659 
Q 685 339 992 134 
Q 1299 -70 1805 -70 
Q 2234 -70 2525 74 
Q 2816 218 2992 438 
Q 3168 659 3245 928 
Q 3322 1197 3322 1446 
Q 3322 1760 3226 2029 
Q 3130 2298 2954 2496 
Q 2778 2694 2518 2806 
Q 2259 2918 1933 2918 
Q 1562 2918 1277 2777 
Q 992 2637 800 2323 
L 787 2336 
Q 794 2598 838 2899 
Q 883 3200 1001 3459 
Q 1120 3718 1331 3888 
Q 1542 4058 1888 4058 
Q 2214 4058 2412 3872 
Q 2611 3686 2650 3379 
z
M 1830 2438 
Q 2061 2438 2233 2355 
Q 2406 2272 2521 2134 
Q 2637 1997 2691 1808 
Q 2746 1619 2746 1408 
Q 2746 1210 2685 1027 
Q 2624 845 2509 704 
Q 2394 563 2224 483 
Q 2054 403 1830 403 
Q 1606 403 1430 483 
Q 1254 563 1136 697 
Q 1018 832 954 1017 
Q 890 1203 890 1414 
Q 890 1626 950 1814 
Q 1011 2003 1132 2140 
Q 1254 2278 1427 2358 
Q 1600 2438 1830 2438 
z
" transform="scale(0.015625)"/>
       </defs>
       <use xlink:href="#HelveticaNeue-36"/>
       <use xlink:href="#HelveticaNeue-30" x="55.599991"/>
      </g>
     </g>
    </g>
    <g id="xtick_4">
     <g id="line2d_4">
      <g>
       <use xlink:href="#mee04687767" x="228.940325" y="212.354688" style="stroke: #000000"/>
      </g>
     </g>
     <g id="text_4">
      <!-- 80 -->
      <g transform="translate(224.492825 225.567187) scale(0.08 -0.08)">
       <defs>
        <path id="HelveticaNeue-38" d="M 992 3360 
Q 992 3533 1056 3661 
Q 1120 3789 1225 3878 
Q 1331 3968 1478 4013 
Q 1626 4058 1786 4058 
Q 2118 4058 2332 3882 
Q 2547 3706 2547 3360 
Q 2547 3014 2336 2822 
Q 2125 2630 1798 2630 
Q 1632 2630 1485 2675 
Q 1338 2720 1229 2809 
Q 1120 2899 1056 3036 
Q 992 3174 992 3360 
z
M 416 3379 
Q 416 3072 589 2813 
Q 762 2554 1050 2438 
Q 666 2304 461 2006 
Q 256 1709 256 1306 
Q 256 960 374 701 
Q 493 442 701 269 
Q 909 96 1190 13 
Q 1472 -70 1798 -70 
Q 2112 -70 2387 19 
Q 2662 109 2864 285 
Q 3066 461 3184 717 
Q 3302 973 3302 1306 
Q 3302 1728 3104 2019 
Q 2906 2310 2496 2438 
Q 2784 2566 2953 2819 
Q 3123 3072 3123 3379 
Q 3123 3597 3046 3805 
Q 2970 4013 2806 4176 
Q 2643 4339 2380 4438 
Q 2118 4538 1747 4538 
Q 1485 4538 1245 4461 
Q 1005 4384 819 4237 
Q 634 4090 525 3875 
Q 416 3661 416 3379 
z
M 832 1280 
Q 832 1478 905 1638 
Q 979 1798 1110 1913 
Q 1242 2029 1418 2089 
Q 1594 2150 1792 2150 
Q 1984 2150 2153 2083 
Q 2323 2016 2451 1901 
Q 2579 1786 2652 1629 
Q 2726 1472 2726 1286 
Q 2726 1094 2659 934 
Q 2592 774 2467 656 
Q 2342 538 2172 470 
Q 2003 403 1798 403 
Q 1376 403 1104 636 
Q 832 870 832 1280 
z
" transform="scale(0.015625)"/>
       </defs>
       <use xlink:href="#HelveticaNeue-38"/>
       <use xlink:href="#HelveticaNeue-30" x="55.599991"/>
      </g>
     </g>
    </g>
    <g id="text_5">
     <!-- Residue position -->
     <g transform="translate(102.298331 238.284063) scale(0.1 -0.1)">
      <defs>
       <path id="HelveticaNeue-52" d="M 499 4570 
L 499 0 
L 1107 0 
L 1107 1952 
L 2592 1952 
Q 2816 1952 2950 1885 
Q 3085 1818 3168 1706 
Q 3251 1594 3289 1443 
Q 3328 1293 3354 1126 
Q 3386 960 3392 787 
Q 3398 614 3404 464 
Q 3411 314 3433 192 
Q 3456 70 3520 0 
L 4198 0 
Q 4102 115 4054 265 
Q 4006 416 3980 582 
Q 3955 749 3948 921 
Q 3942 1094 3930 1261 
Q 3910 1427 3875 1580 
Q 3840 1734 3766 1859 
Q 3693 1984 3568 2073 
Q 3443 2163 3245 2202 
L 3245 2214 
Q 3661 2330 3849 2643 
Q 4038 2957 4038 3373 
Q 4038 3930 3670 4250 
Q 3302 4570 2650 4570 
L 499 4570 
z
M 2374 2464 
L 1107 2464 
L 1107 4058 
L 2618 4058 
Q 3046 4058 3238 3840 
Q 3430 3622 3430 3277 
Q 3430 3027 3344 2870 
Q 3258 2714 3114 2621 
Q 2970 2528 2778 2496 
Q 2586 2464 2374 2464 
z
" transform="scale(0.015625)"/>
       <path id="HelveticaNeue-65" d="M 2707 1971 
L 806 1971 
Q 819 2163 889 2332 
Q 960 2502 1081 2630 
Q 1203 2758 1372 2832 
Q 1542 2906 1754 2906 
Q 1958 2906 2128 2832 
Q 2298 2758 2422 2633 
Q 2547 2509 2620 2336 
Q 2694 2163 2707 1971 
z
M 3232 1050 
L 2694 1050 
Q 2624 723 2403 563 
Q 2182 403 1837 403 
Q 1568 403 1369 492 
Q 1171 582 1043 732 
Q 915 883 857 1078 
Q 800 1274 806 1491 
L 3283 1491 
Q 3296 1792 3229 2125 
Q 3162 2458 2986 2739 
Q 2810 3021 2518 3203 
Q 2227 3386 1786 3386 
Q 1446 3386 1161 3258 
Q 877 3130 669 2899 
Q 461 2669 345 2355 
Q 230 2042 230 1664 
Q 243 1286 342 966 
Q 442 646 640 416 
Q 838 186 1129 58 
Q 1421 -70 1818 -70 
Q 2381 -70 2752 211 
Q 3123 493 3232 1050 
z
" transform="scale(0.015625)"/>
       <path id="HelveticaNeue-73" d="M 742 1043 
L 198 1043 
Q 211 736 326 521 
Q 442 307 634 176 
Q 826 45 1075 -12 
Q 1325 -70 1600 -70 
Q 1850 -70 2102 -22 
Q 2355 26 2556 147 
Q 2758 269 2883 467 
Q 3008 666 3008 966 
Q 3008 1203 2915 1363 
Q 2822 1523 2672 1628 
Q 2522 1734 2326 1798 
Q 2131 1862 1926 1907 
Q 1734 1952 1542 1993 
Q 1350 2035 1196 2096 
Q 1043 2157 944 2249 
Q 845 2342 845 2483 
Q 845 2611 909 2691 
Q 973 2771 1075 2819 
Q 1178 2867 1302 2886 
Q 1427 2906 1549 2906 
Q 1683 2906 1814 2877 
Q 1946 2848 2054 2784 
Q 2163 2720 2233 2614 
Q 2304 2509 2317 2349 
L 2861 2349 
Q 2842 2650 2733 2851 
Q 2624 3053 2441 3171 
Q 2259 3290 2022 3338 
Q 1786 3386 1504 3386 
Q 1286 3386 1065 3331 
Q 845 3277 669 3165 
Q 493 3053 381 2873 
Q 269 2694 269 2445 
Q 269 2125 429 1945 
Q 589 1766 829 1667 
Q 1069 1568 1350 1513 
Q 1632 1459 1872 1392 
Q 2112 1325 2272 1216 
Q 2432 1107 2432 896 
Q 2432 742 2355 643 
Q 2278 544 2160 493 
Q 2042 442 1901 422 
Q 1760 403 1632 403 
Q 1466 403 1309 435 
Q 1152 467 1027 540 
Q 902 614 825 739 
Q 749 864 742 1043 
z
" transform="scale(0.015625)"/>
       <path id="HelveticaNeue-69" d="M 986 3904 
L 986 4570 
L 442 4570 
L 442 3904 
L 986 3904 
z
M 442 3309 
L 442 0 
L 986 0 
L 986 3309 
L 442 3309 
z
" transform="scale(0.015625)"/>
       <path id="HelveticaNeue-64" d="M 806 1626 
Q 806 1869 857 2099 
Q 909 2330 1024 2509 
Q 1139 2688 1331 2797 
Q 1523 2906 1798 2906 
Q 2080 2906 2278 2800 
Q 2477 2694 2601 2521 
Q 2726 2349 2784 2121 
Q 2842 1894 2842 1651 
Q 2842 1421 2787 1197 
Q 2733 973 2611 797 
Q 2490 621 2298 512 
Q 2106 403 1830 403 
Q 1568 403 1373 505 
Q 1178 608 1053 781 
Q 928 954 867 1174 
Q 806 1395 806 1626 
z
M 3366 0 
L 3366 4570 
L 2822 4570 
L 2822 2867 
L 2810 2867 
Q 2720 3014 2589 3113 
Q 2458 3213 2310 3273 
Q 2163 3334 2016 3360 
Q 1869 3386 1741 3386 
Q 1363 3386 1078 3248 
Q 794 3110 605 2876 
Q 416 2643 323 2329 
Q 230 2016 230 1664 
Q 230 1312 326 998 
Q 422 685 611 448 
Q 800 211 1085 70 
Q 1370 -70 1754 -70 
Q 2099 -70 2387 51 
Q 2675 173 2810 448 
L 2822 448 
L 2822 0 
L 3366 0 
z
" transform="scale(0.015625)"/>
       <path id="HelveticaNeue-75" d="M 3149 0 
L 3149 3309 
L 2605 3309 
L 2605 1440 
Q 2605 1216 2544 1027 
Q 2483 838 2361 697 
Q 2240 557 2057 480 
Q 1875 403 1626 403 
Q 1312 403 1133 582 
Q 954 762 954 1069 
L 954 3309 
L 410 3309 
L 410 1133 
Q 410 864 464 643 
Q 518 422 652 262 
Q 787 102 1004 16 
Q 1222 -70 1549 -70 
Q 1914 -70 2182 74 
Q 2451 218 2624 525 
L 2637 525 
L 2637 0 
L 3149 0 
z
" transform="scale(0.015625)"/>
       <path id="HelveticaNeue-20" transform="scale(0.015625)"/>
       <path id="HelveticaNeue-70" d="M 429 3309 
L 429 -1261 
L 973 -1261 
L 973 442 
L 986 442 
Q 1075 294 1206 195 
Q 1338 96 1485 38 
Q 1632 -19 1782 -44 
Q 1933 -70 2054 -70 
Q 2432 -70 2717 64 
Q 3002 198 3190 432 
Q 3379 666 3472 979 
Q 3565 1293 3565 1645 
Q 3565 1997 3469 2310 
Q 3373 2624 3184 2864 
Q 2995 3104 2710 3245 
Q 2426 3386 2042 3386 
Q 1696 3386 1408 3261 
Q 1120 3136 986 2861 
L 973 2861 
L 973 3309 
L 429 3309 
z
M 2989 1683 
Q 2989 1440 2937 1209 
Q 2886 979 2771 800 
Q 2656 621 2467 512 
Q 2278 403 1997 403 
Q 1715 403 1516 508 
Q 1318 614 1193 787 
Q 1069 960 1011 1187 
Q 954 1414 954 1658 
Q 954 1888 1008 2112 
Q 1062 2336 1184 2512 
Q 1306 2688 1498 2797 
Q 1690 2906 1965 2906 
Q 2227 2906 2422 2803 
Q 2618 2701 2742 2528 
Q 2867 2355 2928 2134 
Q 2989 1914 2989 1683 
z
" transform="scale(0.015625)"/>
       <path id="HelveticaNeue-6f" d="M 806 1651 
Q 806 1952 886 2185 
Q 966 2419 1107 2579 
Q 1248 2739 1437 2822 
Q 1626 2906 1837 2906 
Q 2048 2906 2237 2822 
Q 2426 2739 2566 2579 
Q 2707 2419 2787 2185 
Q 2867 1952 2867 1651 
Q 2867 1350 2787 1116 
Q 2707 883 2566 726 
Q 2426 570 2237 486 
Q 2048 403 1837 403 
Q 1626 403 1437 486 
Q 1248 570 1107 726 
Q 966 883 886 1116 
Q 806 1350 806 1651 
z
M 230 1651 
Q 230 1286 332 972 
Q 435 659 640 425 
Q 845 192 1145 61 
Q 1446 -70 1837 -70 
Q 2234 -70 2531 61 
Q 2829 192 3033 425 
Q 3238 659 3340 972 
Q 3443 1286 3443 1651 
Q 3443 2016 3340 2333 
Q 3238 2650 3033 2883 
Q 2829 3117 2531 3251 
Q 2234 3386 1837 3386 
Q 1446 3386 1145 3251 
Q 845 3117 640 2883 
Q 435 2650 332 2333 
Q 230 2016 230 1651 
z
" transform="scale(0.015625)"/>
       <path id="HelveticaNeue-74" d="M 1165 3309 
L 1165 4301 
L 621 4301 
L 621 3309 
L 58 3309 
L 58 2829 
L 621 2829 
L 621 723 
Q 621 493 665 352 
Q 710 211 803 134 
Q 896 58 1046 29 
Q 1197 0 1408 0 
L 1824 0 
L 1824 480 
L 1574 480 
Q 1446 480 1366 489 
Q 1286 499 1241 531 
Q 1197 563 1181 620 
Q 1165 678 1165 774 
L 1165 2829 
L 1824 2829 
L 1824 3309 
L 1165 3309 
z
" transform="scale(0.015625)"/>
       <path id="HelveticaNeue-6e" d="M 410 3309 
L 410 0 
L 954 0 
L 954 1869 
Q 954 2093 1014 2281 
Q 1075 2470 1196 2611 
Q 1318 2752 1500 2829 
Q 1683 2906 1933 2906 
Q 2246 2906 2425 2726 
Q 2605 2547 2605 2240 
L 2605 0 
L 3149 0 
L 3149 2176 
Q 3149 2445 3094 2665 
Q 3040 2886 2905 3046 
Q 2771 3206 2553 3296 
Q 2336 3386 2010 3386 
Q 1274 3386 934 2784 
L 922 2784 
L 922 3309 
L 410 3309 
z
" transform="scale(0.015625)"/>
      </defs>
      <use xlink:href="#HelveticaNeue-52"/>
      <use xlink:href="#HelveticaNeue-65" x="68.499985"/>
      <use xlink:href="#HelveticaNeue-73" x="122.199982"/>
      <use xlink:href="#HelveticaNeue-69" x="172.199966"/>
      <use xlink:href="#HelveticaNeue-64" x="194.399963"/>
      <use xlink:href="#HelveticaNeue-75" x="253.699951"/>
      <use xlink:href="#HelveticaNeue-65" x="309.299942"/>
      <use xlink:href="#HelveticaNeue-20" x="362.999939"/>
      <use xlink:href="#HelveticaNeue-70" x="390.799927"/>
      <use xlink:href="#HelveticaNeue-6f" x="450.099915"/>
      <use xlink:href="#HelveticaNeue-73" x="507.499908"/>
      <use xlink:href="#HelveticaNeue-69" x="557.499893"/>
      <use xlink:href="#HelveticaNeue-74" x="579.69989"/>
      <use xlink:href="#HelveticaNeue-69" x="611.199875"/>
      <use xlink:href="#HelveticaNeue-6f" x="633.399872"/>
      <use xlink:href="#HelveticaNeue-6e" x="690.799866"/>
     </g>
    </g>
   </g>
   <g id="matplotlib.axis_2">
    <g id="ytick_1">
     <g id="line2d_5">
      <defs>
       <path id="m19b1bd3dc3" d="M 0 0 
L -4 0 
" style="stroke: #000000"/>
      </defs>
      <g>
       <use xlink:href="#m19b1bd3dc3" x="45.656875" y="203.659233" style="stroke: #000000"/>
      </g>
     </g>
     <g id="text_6">
      <!-- 0.00 -->
      <g transform="translate(22.590625 206.515483) scale(0.08 -0.08)">
       <defs>
        <path id="HelveticaNeue-2e" d="M 531 710 
L 531 0 
L 1242 0 
L 1242 710 
L 531 710 
z
" transform="scale(0.015625)"/>
       </defs>
       <use xlink:href="#HelveticaNeue-30"/>
       <use xlink:href="#HelveticaNeue-2e" x="55.599991"/>
       <use xlink:href="#HelveticaNeue-30" x="83.399979"/>
       <use xlink:href="#HelveticaNeue-30" x="138.999969"/>
      </g>
     </g>
    </g>
    <g id="ytick_2">
     <g id="line2d_6">
      <g>
       <use xlink:href="#m19b1bd3dc3" x="45.656875" y="179.925795" style="stroke: #000000"/>
      </g>
     </g>
     <g id="text_7">
      <!-- 0.25 -->
      <g transform="translate(22.590625 182.782045) scale(0.08 -0.08)">
       <defs>
        <path id="HelveticaNeue-35" d="M 3008 3981 
L 3008 4461 
L 768 4461 
L 346 2106 
L 813 2080 
Q 973 2272 1181 2390 
Q 1389 2509 1658 2509 
Q 1888 2509 2077 2432 
Q 2266 2355 2400 2217 
Q 2534 2080 2608 1891 
Q 2682 1702 2682 1478 
Q 2682 1210 2605 1008 
Q 2528 806 2397 672 
Q 2266 538 2090 470 
Q 1914 403 1722 403 
Q 1517 403 1347 464 
Q 1178 525 1053 637 
Q 928 749 854 899 
Q 781 1050 768 1222 
L 224 1222 
Q 230 915 345 672 
Q 461 429 659 265 
Q 858 102 1117 16 
Q 1376 -70 1670 -70 
Q 2067 -70 2364 54 
Q 2662 179 2860 390 
Q 3059 602 3158 874 
Q 3258 1146 3258 1434 
Q 3258 1824 3142 2115 
Q 3027 2406 2828 2601 
Q 2630 2797 2361 2893 
Q 2093 2989 1792 2989 
Q 1562 2989 1328 2909 
Q 1094 2829 947 2662 
L 934 2675 
L 1178 3981 
L 3008 3981 
z
" transform="scale(0.015625)"/>
       </defs>
       <use xlink:href="#HelveticaNeue-30"/>
       <use xlink:href="#HelveticaNeue-2e" x="55.599991"/>
       <use xlink:href="#HelveticaNeue-32" x="83.399979"/>
       <use xlink:href="#HelveticaNeue-35" x="138.999969"/>
      </g>
     </g>
    </g>
    <g id="ytick_3">
     <g id="line2d_7">
      <g>
       <use xlink:href="#m19b1bd3dc3" x="45.656875" y="156.192357" style="stroke: #000000"/>
      </g>
     </g>
     <g id="text_8">
      <!-- 0.50 -->
      <g transform="translate(22.590625 159.048607) scale(0.08 -0.08)">
       <use xlink:href="#HelveticaNeue-30"/>
       <use xlink:href="#HelveticaNeue-2e" x="55.599991"/>
       <use xlink:href="#HelveticaNeue-35" x="83.399979"/>
       <use xlink:href="#HelveticaNeue-30" x="138.999969"/>
      </g>
     </g>
    </g>
    <g id="ytick_4">
     <g id="line2d_8">
      <g>
       <use xlink:href="#m19b1bd3dc3" x="45.656875" y="132.45892" style="stroke: #000000"/>
      </g>
     </g>
     <g id="text_9">
      <!-- 0.75 -->
      <g transform="translate(22.590625 135.31517) scale(0.08 -0.08)">
       <defs>
        <path id="HelveticaNeue-37" d="M 3258 3994 
L 3258 4461 
L 320 4461 
L 320 3949 
L 2701 3949 
Q 2342 3571 2032 3123 
Q 1722 2675 1485 2172 
Q 1248 1670 1097 1123 
Q 947 576 909 0 
L 1517 0 
Q 1549 531 1696 1094 
Q 1843 1658 2076 2189 
Q 2310 2720 2611 3187 
Q 2912 3654 3258 3994 
z
" transform="scale(0.015625)"/>
       </defs>
       <use xlink:href="#HelveticaNeue-30"/>
       <use xlink:href="#HelveticaNeue-2e" x="55.599991"/>
       <use xlink:href="#HelveticaNeue-37" x="83.399979"/>
       <use xlink:href="#HelveticaNeue-35" x="138.999969"/>
      </g>
     </g>
    </g>
    <g id="ytick_5">
     <g id="line2d_9">
      <g>
       <use xlink:href="#m19b1bd3dc3" x="45.656875" y="108.725482" style="stroke: #000000"/>
      </g>
     </g>
     <g id="text_10">
      <!-- 1.00 -->
      <g transform="translate(22.590625 111.581732) scale(0.08 -0.08)">
       <defs>
        <path id="HelveticaNeue-31" d="M 2278 0 
L 2278 4538 
L 1862 4538 
Q 1818 4282 1696 4115 
Q 1574 3949 1398 3853 
Q 1222 3757 1004 3721 
Q 787 3686 557 3686 
L 557 3251 
L 1734 3251 
L 1734 0 
L 2278 0 
z
" transform="scale(0.015625)"/>
       </defs>
       <use xlink:href="#HelveticaNeue-31"/>
       <use xlink:href="#HelveticaNeue-2e" x="55.599991"/>
       <use xlink:href="#HelveticaNeue-30" x="83.399979"/>
       <use xlink:href="#HelveticaNeue-30" x="138.999969"/>
      </g>
     </g>
    </g>
    <g id="ytick_6">
     <g id="line2d_10">
      <g>
       <use xlink:href="#m19b1bd3dc3" x="45.656875" y="84.992044" style="stroke: #000000"/>
      </g>
     </g>
     <g id="text_11">
      <!-- 1.25 -->
      <g transform="translate(22.590625 87.848294) scale(0.08 -0.08)">
       <use xlink:href="#HelveticaNeue-31"/>
       <use xlink:href="#HelveticaNeue-2e" x="55.599991"/>
       <use xlink:href="#HelveticaNeue-32" x="83.399979"/>
       <use xlink:href="#HelveticaNeue-35" x="138.999969"/>
      </g>
     </g>
    </g>
    <g id="ytick_7">
     <g id="line2d_11">
      <g>
       <use xlink:href="#m19b1bd3dc3" x="45.656875" y="61.258607" style="stroke: #000000"/>
      </g>
     </g>
     <g id="text_12">
      <!-- 1.50 -->
      <g transform="translate(22.590625 64.114857) scale(0.08 -0.08)">
       <use xlink:href="#HelveticaNeue-31"/>
       <use xlink:href="#HelveticaNeue-2e" x="55.599991"/>
       <use xlink:href="#HelveticaNeue-35" x="83.399979"/>
       <use xlink:href="#HelveticaNeue-30" x="138.999969"/>
      </g>
     </g>
    </g>
    <g id="ytick_8">
     <g id="line2d_12">
      <g>
       <use xlink:href="#m19b1bd3dc3" x="45.656875" y="37.525169" style="stroke: #000000"/>
      </g>
     </g>
     <g id="text_13">
      <!-- 1.75 -->
      <g transform="translate(22.590625 40.381419) scale(0.08 -0.08)">
       <use xlink:href="#HelveticaNeue-31"/>
       <use xlink:href="#HelveticaNeue-2e" x="55.599991"/>
       <use xlink:href="#HelveticaNeue-37" x="83.399979"/>
       <use xlink:href="#HelveticaNeue-35" x="138.999969"/>
      </g>
     </g>
    </g>
    <g id="text_14">
     <!-- Std dev (Å) -->
     <g transform="translate(16.620312 141.244531) rotate(-90) scale(0.1 -0.1)">
      <defs>
       <path id="HelveticaNeue-53" d="M 3142 3232 
L 3718 3232 
Q 3706 3610 3574 3882 
Q 3443 4154 3216 4333 
Q 2989 4512 2688 4595 
Q 2387 4678 2035 4678 
Q 1722 4678 1424 4598 
Q 1126 4518 892 4355 
Q 659 4192 518 3939 
Q 378 3686 378 3341 
Q 378 3027 502 2819 
Q 627 2611 835 2480 
Q 1043 2349 1305 2269 
Q 1568 2189 1840 2128 
Q 2112 2067 2374 2009 
Q 2637 1952 2845 1859 
Q 3053 1766 3177 1619 
Q 3302 1472 3302 1235 
Q 3302 986 3200 826 
Q 3098 666 2931 573 
Q 2765 480 2557 441 
Q 2349 403 2144 403 
Q 1888 403 1645 467 
Q 1402 531 1219 665 
Q 1037 800 925 1008 
Q 813 1216 813 1504 
L 237 1504 
Q 237 1088 387 784 
Q 538 480 797 285 
Q 1056 90 1398 -6 
Q 1741 -102 2125 -102 
Q 2438 -102 2755 -28 
Q 3072 45 3328 208 
Q 3584 371 3747 630 
Q 3910 890 3910 1254 
Q 3910 1594 3785 1818 
Q 3661 2042 3453 2189 
Q 3245 2336 2982 2422 
Q 2720 2509 2448 2573 
Q 2176 2637 1913 2691 
Q 1651 2746 1443 2829 
Q 1235 2912 1110 3043 
Q 986 3174 986 3386 
Q 986 3610 1072 3760 
Q 1158 3910 1302 4000 
Q 1446 4090 1632 4128 
Q 1818 4166 2010 4166 
Q 2483 4166 2787 3945 
Q 3091 3725 3142 3232 
z
" transform="scale(0.015625)"/>
       <path id="HelveticaNeue-76" d="M 1901 0 
L 3110 3309 
L 2541 3309 
L 1638 550 
L 1626 550 
L 698 3309 
L 90 3309 
L 1318 0 
L 1901 0 
z
" transform="scale(0.015625)"/>
       <path id="HelveticaNeue-28" d="M 1306 -1261 
L 1722 -1261 
Q 1267 -525 1072 198 
Q 877 922 877 1728 
Q 877 2515 1069 3232 
Q 1261 3949 1722 4678 
L 1306 4678 
Q 806 4019 553 3251 
Q 301 2483 301 1728 
Q 301 1306 371 922 
Q 442 538 573 173 
Q 704 -192 889 -547 
Q 1075 -902 1306 -1261 
z
" transform="scale(0.015625)"/>
       <path id="HelveticaNeue-c5" d="M 1350 5306 
Q 1350 5453 1408 5584 
Q 1466 5715 1565 5814 
Q 1664 5914 1795 5971 
Q 1926 6029 2074 6029 
Q 2221 6029 2352 5971 
Q 2483 5914 2582 5814 
Q 2682 5715 2739 5584 
Q 2797 5453 2797 5306 
Q 2797 5158 2739 5027 
Q 2682 4896 2582 4797 
Q 2483 4698 2352 4640 
Q 2221 4582 2074 4582 
Q 1926 4582 1795 4640 
Q 1664 4698 1565 4797 
Q 1466 4896 1408 5027 
Q 1350 5158 1350 5306 
z
M 1638 5306 
Q 1638 5120 1763 4995 
Q 1888 4870 2074 4870 
Q 2259 4870 2384 4995 
Q 2509 5120 2509 5306 
Q 2509 5491 2384 5616 
Q 2259 5741 2074 5741 
Q 1888 5741 1763 5616 
Q 1638 5491 1638 5306 
z
M 2835 1888 
L 2074 4019 
L 2061 4019 
L 1286 1888 
L 2835 1888 
z
M 2413 4570 
L 4198 0 
L 3526 0 
L 3027 1376 
L 1094 1376 
L 582 0 
L -38 0 
L 1741 4570 
L 2413 4570 
z
" transform="scale(0.015625)"/>
       <path id="HelveticaNeue-29" d="M -58 -1261 
L 352 -1261 
Q 851 -602 1104 163 
Q 1357 928 1357 1683 
Q 1357 2106 1286 2490 
Q 1216 2874 1085 3242 
Q 954 3610 768 3965 
Q 582 4320 352 4678 
L -58 4678 
Q 390 3942 585 3216 
Q 781 2490 781 1683 
Q 781 902 589 182 
Q 397 -538 -58 -1261 
z
" transform="scale(0.015625)"/>
      </defs>
      <use xlink:href="#HelveticaNeue-53"/>
      <use xlink:href="#HelveticaNeue-74" x="64.799988"/>
      <use xlink:href="#HelveticaNeue-64" x="96.299973"/>
      <use xlink:href="#HelveticaNeue-20" x="155.59996"/>
      <use xlink:href="#HelveticaNeue-64" x="183.399948"/>
      <use xlink:href="#HelveticaNeue-65" x="242.699936"/>
      <use xlink:href="#HelveticaNeue-76" x="296.399933"/>
      <use xlink:href="#HelveticaNeue-20" x="346.399918"/>
      <use xlink:href="#HelveticaNeue-28" x="374.199905"/>
      <use xlink:href="#HelveticaNeue-c5" x="400.099899"/>
      <use xlink:href="#HelveticaNeue-29" x="464.899887"/>
     </g>
    </g>
   </g>
   <g id="line2d_13">
    <path d="M 45.656875 112.945919 
L 47.976919 135.357646 
L 50.296962 121.522333 
L 52.617006 135.738691 
L 54.93705 139.716734 
L 57.257093 119.936393 
L 59.577137 130.01917 
L 61.897181 119.58547 
L 64.217224 152.513058 
L 66.537268 129.085615 
L 68.857312 124.4351 
L 71.177355 141.91679 
L 73.497399 134.672708 
L 75.817443 124.02529 
L 78.137486 140.318456 
L 80.45753 154.897021 
L 82.777574 146.137003 
L 85.097617 115.295752 
L 87.417661 128.248446 
L 89.737705 148.27493 
L 92.057748 141.86102 
L 94.377792 120.119168 
L 96.697836 131.581741 
L 99.017879 155.286376 
L 101.337923 139.884704 
L 103.657967 141.172455 
L 105.978011 132.833101 
L 108.298054 155.022702 
L 110.618098 110.963517 
L 112.938142 124.903076 
L 115.258185 141.741428 
L 117.578229 99.620775 
L 119.898273 111.792267 
L 122.218316 155.048339 
L 124.53836 144.47327 
L 126.858404 141.139007 
L 129.178447 138.371394 
L 131.498491 137.278108 
L 133.818535 166.894555 
L 136.138578 137.273134 
L 138.458622 119.022927 
L 140.778666 127.598003 
L 143.098709 131.805348 
L 145.418753 117.940265 
L 147.738797 134.819575 
L 150.05884 110.157539 
L 152.378884 102.064284 
L 154.698928 115.410897 
L 157.018971 90.1958 
L 159.339015 96.805401 
L 161.659059 107.023225 
L 163.979102 92.029066 
L 166.299146 132.398062 
L 168.61919 132.332468 
L 170.939233 127.987777 
L 173.259277 92.586687 
L 175.579321 112.408437 
L 177.899364 115.105505 
L 180.219408 133.318763 
L 182.539452 128.720501 
L 184.859495 117.200142 
L 187.179539 140.567297 
L 189.499583 66.370485 
L 191.819626 116.916252 
L 194.13967 29.750142 
L 196.459714 94.214564 
L 198.779757 119.306447 
L 201.099801 121.789917 
L 203.419845 105.329911 
L 205.739888 129.145244 
L 208.059932 127.380249 
L 210.379976 104.126872 
L 212.70002 124.318123 
L 215.020063 127.839117 
L 217.340107 98.047571 
L 219.660151 117.642083 
L 221.980194 94.812257 
L 224.300238 110.94884 
L 226.620282 75.192698 
L 228.940325 109.855127 
L 231.260369 110.20373 
L 233.580413 109.384512 
" clip-path="url(#p6d52cd0a57)" style="fill: none; stroke: #e85d04; stroke-width: 1.5; stroke-linecap: square"/>
   </g>
   <g id="line2d_14">
    <path d="M 45.656875 122.585058 
L 233.580413 122.585058 
" clip-path="url(#p6d52cd0a57)" style="fill: none; stroke-dasharray: 5.55,2.4; stroke-dashoffset: 0; stroke: #e85d04; stroke-opacity: 0.7; stroke-width: 1.5"/>
   </g>
   <g id="patch_3">
    <path d="M 45.656875 212.354687 
L 45.656875 21.054688 
" style="fill: none; stroke: #212529; stroke-linejoin: miter; stroke-linecap: square"/>
   </g>
   <g id="patch_4">
    <path d="M 45.656875 212.354688 
L 233.580413 212.354688 
" style="fill: none; stroke: #212529; stroke-linejoin: miter; stroke-linecap: square"/>
   </g>
   <g id="text_15">
    <!-- X dimension -->
    <g transform="translate(109.358331 15.054687) scale(0.11 -0.11)">
     <defs>
      <path id="HelveticaNeue-58" d="M 1587 2349 
L 0 0 
L 678 0 
L 1946 1888 
L 3174 0 
L 3917 0 
L 2310 2349 
L 3821 4570 
L 3142 4570 
L 1952 2784 
L 813 4570 
L 83 4570 
L 1587 2349 
z
" transform="scale(0.015625)"/>
      <path id="HelveticaNeue-6d" d="M 410 3309 
L 410 0 
L 954 0 
L 954 2061 
Q 954 2157 1002 2301 
Q 1050 2445 1155 2579 
Q 1261 2714 1430 2810 
Q 1600 2906 1837 2906 
Q 2022 2906 2140 2851 
Q 2259 2797 2329 2697 
Q 2400 2598 2429 2464 
Q 2458 2330 2458 2170 
L 2458 0 
L 3002 0 
L 3002 2061 
Q 3002 2445 3232 2675 
Q 3462 2906 3866 2906 
Q 4064 2906 4189 2848 
Q 4314 2790 4384 2691 
Q 4454 2592 4480 2457 
Q 4506 2323 4506 2170 
L 4506 0 
L 5050 0 
L 5050 2426 
Q 5050 2682 4970 2864 
Q 4890 3046 4746 3161 
Q 4602 3277 4400 3331 
Q 4198 3386 3949 3386 
Q 3622 3386 3350 3238 
Q 3078 3091 2912 2822 
Q 2810 3130 2560 3258 
Q 2310 3386 2003 3386 
Q 1306 3386 934 2822 
L 922 2822 
L 922 3309 
L 410 3309 
z
" transform="scale(0.015625)"/>
     </defs>
     <use xlink:href="#HelveticaNeue-58"/>
     <use xlink:href="#HelveticaNeue-20" x="61.099991"/>
     <use xlink:href="#HelveticaNeue-64" x="88.899979"/>
     <use xlink:href="#HelveticaNeue-69" x="148.199966"/>
     <use xlink:href="#HelveticaNeue-6d" x="170.399963"/>
     <use xlink:href="#HelveticaNeue-65" x="255.699951"/>
     <use xlink:href="#HelveticaNeue-6e" x="309.399948"/>
     <use xlink:href="#HelveticaNeue-73" x="364.999939"/>
     <use xlink:href="#HelveticaNeue-69" x="414.999924"/>
     <use xlink:href="#HelveticaNeue-6f" x="437.199921"/>
     <use xlink:href="#HelveticaNeue-6e" x="494.599915"/>
    </g>
   </g>
  </g>
  <g id="axes_2">
   <g id="patch_5">
    <path d="M 282.416875 212.354688 
L 470.340413 212.354688 
L 470.340413 21.054688 
L 282.416875 21.054688 
z
" style="fill: #ffffff"/>
   </g>
   <g id="PolyCollection_2">
    <defs>
     <path id="ma39b46a33f" d="M 282.416875 -149.899876 
L 282.416875 -43.795142 
L 284.736919 -43.795142 
L 287.056962 -43.795142 
L 289.377006 -43.795142 
L 291.69705 -43.795142 
L 294.017093 -43.795142 
L 296.337137 -43.795142 
L 298.657181 -43.795142 
L 300.977224 -43.795142 
L 303.297268 -43.795142 
L 305.617312 -43.795142 
L 307.937355 -43.795142 
L 310.257399 -43.795142 
L 312.577443 -43.795142 
L 314.897486 -43.795142 
L 317.21753 -43.795142 
L 319.537574 -43.795142 
L 321.857617 -43.795142 
L 324.177661 -43.795142 
L 326.497705 -43.795142 
L 328.817748 -43.795142 
L 331.137792 -43.795142 
L 333.457836 -43.795142 
L 335.777879 -43.795142 
L 338.097923 -43.795142 
L 340.417967 -43.795142 
L 342.738011 -43.795142 
L 345.058054 -43.795142 
L 347.378098 -43.795142 
L 349.698142 -43.795142 
L 352.018185 -43.795142 
L 354.338229 -43.795142 
L 356.658273 -43.795142 
L 358.978316 -43.795142 
L 361.29836 -43.795142 
L 363.618404 -43.795142 
L 365.938447 -43.795142 
L 368.258491 -43.795142 
L 370.578535 -43.795142 
L 372.898578 -43.795142 
L 375.218622 -43.795142 
L 377.538666 -43.795142 
L 379.858709 -43.795142 
L 382.178753 -43.795142 
L 384.498797 -43.795142 
L 386.81884 -43.795142 
L 389.138884 -43.795142 
L 391.458928 -43.795142 
L 393.778971 -43.795142 
L 396.099015 -43.795142 
L 398.419059 -43.795142 
L 400.739102 -43.795142 
L 403.059146 -43.795142 
L 405.37919 -43.795142 
L 407.699233 -43.795142 
L 410.019277 -43.795142 
L 412.339321 -43.795142 
L 414.659364 -43.795142 
L 416.979408 -43.795142 
L 419.299452 -43.795142 
L 421.619495 -43.795142 
L 423.939539 -43.795142 
L 426.259583 -43.795142 
L 428.579626 -43.795142 
L 430.89967 -43.795142 
L 433.219714 -43.795142 
L 435.539757 -43.795142 
L 437.859801 -43.795142 
L 440.179845 -43.795142 
L 442.499888 -43.795142 
L 444.819932 -43.795142 
L 447.139976 -43.795142 
L 449.46002 -43.795142 
L 451.780063 -43.795142 
L 454.100107 -43.795142 
L 456.420151 -43.795142 
L 458.740194 -43.795142 
L 461.060238 -43.795142 
L 463.380282 -43.795142 
L 465.700325 -43.795142 
L 468.020369 -43.795142 
L 470.340413 -43.795142 
L 470.340413 -217.704233 
L 470.340413 -217.704233 
L 468.020369 -174.060974 
L 465.700325 -166.158039 
L 463.380282 -155.717236 
L 461.060238 -150.277223 
L 458.740194 -191.856576 
L 456.420151 -149.323531 
L 454.100107 -128.495821 
L 451.780063 -112.22788 
L 449.46002 -123.227206 
L 447.139976 -144.799577 
L 444.819932 -119.266707 
L 442.499888 -106.460999 
L 440.179845 -135.602928 
L 437.859801 -117.799231 
L 435.539757 -147.006885 
L 433.219714 -139.64629 
L 430.89967 -161.421127 
L 428.579626 -132.462805 
L 426.259583 -148.478116 
L 423.939539 -106.073482 
L 421.619495 -109.179084 
L 419.299452 -136.073229 
L 416.979408 -130.732547 
L 414.659364 -130.980578 
L 412.339321 -158.082888 
L 410.019277 -120.686191 
L 407.699233 -158.579848 
L 405.37919 -176.368306 
L 403.059146 -188.357932 
L 400.739102 -197.673788 
L 398.419059 -160.5566 
L 396.099015 -169.463838 
L 393.778971 -146.820025 
L 391.458928 -161.362629 
L 389.138884 -128.661869 
L 386.81884 -133.476032 
L 384.498797 -132.732498 
L 382.178753 -147.299407 
L 379.858709 -131.892906 
L 377.538666 -119.518083 
L 375.218622 -144.354606 
L 372.898578 -132.946378 
L 370.578535 -108.121095 
L 368.258491 -135.191412 
L 365.938447 -137.828219 
L 363.618404 -124.793428 
L 361.29836 -111.918758 
L 358.978316 -118.218205 
L 356.658273 -122.277472 
L 354.338229 -119.651329 
L 352.018185 -104.435841 
L 349.698142 -115.96275 
L 347.378098 -117.883506 
L 345.058054 -108.862172 
L 342.738011 -135.493682 
L 340.417967 -152.431273 
L 338.097923 -137.432614 
L 335.777879 -142.524338 
L 333.457836 -132.080761 
L 331.137792 -154.653433 
L 328.817748 -128.393899 
L 326.497705 -122.832859 
L 324.177661 -110.204696 
L 321.857617 -129.333706 
L 319.537574 -118.820183 
L 317.21753 -108.515438 
L 314.897486 -127.168387 
L 312.577443 -152.432175 
L 310.257399 -111.921935 
L 307.937355 -111.762263 
L 305.617312 -140.17231 
L 303.297268 -130.043341 
L 300.977224 -100.882236 
L 298.657181 -144.878001 
L 296.337137 -128.507815 
L 294.017093 -146.614289 
L 291.69705 -120.40097 
L 289.377006 -120.427769 
L 287.056962 -140.042072 
L 284.736919 -118.362606 
L 282.416875 -149.899876 
z
" style="stroke: #90be6d; stroke-opacity: 0.3"/>
    </defs>
    <g clip-path="url(#p2b8eff5e46)">
     <use xlink:href="#ma39b46a33f" x="0" y="247.454375" style="fill: #90be6d; fill-opacity: 0.3; stroke: #90be6d; stroke-opacity: 0.3"/>
    </g>
   </g>
   <g id="matplotlib.axis_3">
    <g id="xtick_5">
     <g id="line2d_15">
      <g>
       <use xlink:href="#mee04687767" x="326.497705" y="212.354688" style="stroke: #000000"/>
      </g>
     </g>
     <g id="text_16">
      <!-- 20 -->
      <g transform="translate(322.050205 225.567187) scale(0.08 -0.08)">
       <use xlink:href="#HelveticaNeue-32"/>
       <use xlink:href="#HelveticaNeue-30" x="55.599991"/>
      </g>
     </g>
    </g>
    <g id="xtick_6">
     <g id="line2d_16">
      <g>
       <use xlink:href="#mee04687767" x="372.898578" y="212.354688" style="stroke: #000000"/>
      </g>
     </g>
     <g id="text_17">
      <!-- 40 -->
      <g transform="translate(368.451078 225.567187) scale(0.08 -0.08)">
       <use xlink:href="#HelveticaNeue-34"/>
       <use xlink:href="#HelveticaNeue-30" x="55.599991"/>
      </g>
     </g>
    </g>
    <g id="xtick_7">
     <g id="line2d_17">
      <g>
       <use xlink:href="#mee04687767" x="419.299452" y="212.354688" style="stroke: #000000"/>
      </g>
     </g>
     <g id="text_18">
      <!-- 60 -->
      <g transform="translate(414.851952 225.567187) scale(0.08 -0.08)">
       <use xlink:href="#HelveticaNeue-36"/>
       <use xlink:href="#HelveticaNeue-30" x="55.599991"/>
      </g>
     </g>
    </g>
    <g id="xtick_8">
     <g id="line2d_18">
      <g>
       <use xlink:href="#mee04687767" x="465.700325" y="212.354688" style="stroke: #000000"/>
      </g>
     </g>
     <g id="text_19">
      <!-- 80 -->
      <g transform="translate(461.252825 225.567187) scale(0.08 -0.08)">
       <use xlink:href="#HelveticaNeue-38"/>
       <use xlink:href="#HelveticaNeue-30" x="55.599991"/>
      </g>
     </g>
    </g>
    <g id="text_20">
     <!-- Residue position -->
     <g transform="translate(339.058331 238.284063) scale(0.1 -0.1)">
      <use xlink:href="#HelveticaNeue-52"/>
      <use xlink:href="#HelveticaNeue-65" x="68.499985"/>
      <use xlink:href="#HelveticaNeue-73" x="122.199982"/>
      <use xlink:href="#HelveticaNeue-69" x="172.199966"/>
      <use xlink:href="#HelveticaNeue-64" x="194.399963"/>
      <use xlink:href="#HelveticaNeue-75" x="253.699951"/>
      <use xlink:href="#HelveticaNeue-65" x="309.299942"/>
      <use xlink:href="#HelveticaNeue-20" x="362.999939"/>
      <use xlink:href="#HelveticaNeue-70" x="390.799927"/>
      <use xlink:href="#HelveticaNeue-6f" x="450.099915"/>
      <use xlink:href="#HelveticaNeue-73" x="507.499908"/>
      <use xlink:href="#HelveticaNeue-69" x="557.499893"/>
      <use xlink:href="#HelveticaNeue-74" x="579.69989"/>
      <use xlink:href="#HelveticaNeue-69" x="611.199875"/>
      <use xlink:href="#HelveticaNeue-6f" x="633.399872"/>
      <use xlink:href="#HelveticaNeue-6e" x="690.799866"/>
     </g>
    </g>
   </g>
   <g id="matplotlib.axis_4">
    <g id="ytick_9">
     <g id="line2d_19">
      <g>
       <use xlink:href="#m19b1bd3dc3" x="282.416875" y="203.659233" style="stroke: #000000"/>
      </g>
     </g>
     <g id="text_21">
      <!-- 0.00 -->
      <g transform="translate(259.350625 206.515483) scale(0.08 -0.08)">
       <use xlink:href="#HelveticaNeue-30"/>
       <use xlink:href="#HelveticaNeue-2e" x="55.599991"/>
       <use xlink:href="#HelveticaNeue-30" x="83.399979"/>
       <use xlink:href="#HelveticaNeue-30" x="138.999969"/>
      </g>
     </g>
    </g>
    <g id="ytick_10">
     <g id="line2d_20">
      <g>
       <use xlink:href="#m19b1bd3dc3" x="282.416875" y="178.888527" style="stroke: #000000"/>
      </g>
     </g>
     <g id="text_22">
      <!-- 0.25 -->
      <g transform="translate(259.350625 181.744777) scale(0.08 -0.08)">
       <use xlink:href="#HelveticaNeue-30"/>
       <use xlink:href="#HelveticaNeue-2e" x="55.599991"/>
       <use xlink:href="#HelveticaNeue-32" x="83.399979"/>
       <use xlink:href="#HelveticaNeue-35" x="138.999969"/>
      </g>
     </g>
    </g>
    <g id="ytick_11">
     <g id="line2d_21">
      <g>
       <use xlink:href="#m19b1bd3dc3" x="282.416875" y="154.117821" style="stroke: #000000"/>
      </g>
     </g>
     <g id="text_23">
      <!-- 0.50 -->
      <g transform="translate(259.350625 156.974071) scale(0.08 -0.08)">
       <use xlink:href="#HelveticaNeue-30"/>
       <use xlink:href="#HelveticaNeue-2e" x="55.599991"/>
       <use xlink:href="#HelveticaNeue-35" x="83.399979"/>
       <use xlink:href="#HelveticaNeue-30" x="138.999969"/>
      </g>
     </g>
    </g>
    <g id="ytick_12">
     <g id="line2d_22">
      <g>
       <use xlink:href="#m19b1bd3dc3" x="282.416875" y="129.347116" style="stroke: #000000"/>
      </g>
     </g>
     <g id="text_24">
      <!-- 0.75 -->
      <g transform="translate(259.350625 132.203366) scale(0.08 -0.08)">
       <use xlink:href="#HelveticaNeue-30"/>
       <use xlink:href="#HelveticaNeue-2e" x="55.599991"/>
       <use xlink:href="#HelveticaNeue-37" x="83.399979"/>
       <use xlink:href="#HelveticaNeue-35" x="138.999969"/>
      </g>
     </g>
    </g>
    <g id="ytick_13">
     <g id="line2d_23">
      <g>
       <use xlink:href="#m19b1bd3dc3" x="282.416875" y="104.57641" style="stroke: #000000"/>
      </g>
     </g>
     <g id="text_25">
      <!-- 1.00 -->
      <g transform="translate(259.350625 107.43266) scale(0.08 -0.08)">
       <use xlink:href="#HelveticaNeue-31"/>
       <use xlink:href="#HelveticaNeue-2e" x="55.599991"/>
       <use xlink:href="#HelveticaNeue-30" x="83.399979"/>
       <use xlink:href="#HelveticaNeue-30" x="138.999969"/>
      </g>
     </g>
    </g>
    <g id="ytick_14">
     <g id="line2d_24">
      <g>
       <use xlink:href="#m19b1bd3dc3" x="282.416875" y="79.805704" style="stroke: #000000"/>
      </g>
     </g>
     <g id="text_26">
      <!-- 1.25 -->
      <g transform="translate(259.350625 82.661954) scale(0.08 -0.08)">
       <use xlink:href="#HelveticaNeue-31"/>
       <use xlink:href="#HelveticaNeue-2e" x="55.599991"/>
       <use xlink:href="#HelveticaNeue-32" x="83.399979"/>
       <use xlink:href="#HelveticaNeue-35" x="138.999969"/>
      </g>
     </g>
    </g>
    <g id="ytick_15">
     <g id="line2d_25">
      <g>
       <use xlink:href="#m19b1bd3dc3" x="282.416875" y="55.034998" style="stroke: #000000"/>
      </g>
     </g>
     <g id="text_27">
      <!-- 1.50 -->
      <g transform="translate(259.350625 57.891248) scale(0.08 -0.08)">
       <use xlink:href="#HelveticaNeue-31"/>
       <use xlink:href="#HelveticaNeue-2e" x="55.599991"/>
       <use xlink:href="#HelveticaNeue-35" x="83.399979"/>
       <use xlink:href="#HelveticaNeue-30" x="138.999969"/>
      </g>
     </g>
    </g>
    <g id="ytick_16">
     <g id="line2d_26">
      <g>
       <use xlink:href="#m19b1bd3dc3" x="282.416875" y="30.264293" style="stroke: #000000"/>
      </g>
     </g>
     <g id="text_28">
      <!-- 1.75 -->
      <g transform="translate(259.350625 33.120543) scale(0.08 -0.08)">
       <use xlink:href="#HelveticaNeue-31"/>
       <use xlink:href="#HelveticaNeue-2e" x="55.599991"/>
       <use xlink:href="#HelveticaNeue-37" x="83.399979"/>
       <use xlink:href="#HelveticaNeue-35" x="138.999969"/>
      </g>
     </g>
    </g>
    <g id="text_29">
     <!-- Std dev (Å) -->
     <g transform="translate(253.380312 141.244531) rotate(-90) scale(0.1 -0.1)">
      <use xlink:href="#HelveticaNeue-53"/>
      <use xlink:href="#HelveticaNeue-74" x="64.799988"/>
      <use xlink:href="#HelveticaNeue-64" x="96.299973"/>
      <use xlink:href="#HelveticaNeue-20" x="155.59996"/>
      <use xlink:href="#HelveticaNeue-64" x="183.399948"/>
      <use xlink:href="#HelveticaNeue-65" x="242.699936"/>
      <use xlink:href="#HelveticaNeue-76" x="296.399933"/>
      <use xlink:href="#HelveticaNeue-20" x="346.399918"/>
      <use xlink:href="#HelveticaNeue-28" x="374.199905"/>
      <use xlink:href="#HelveticaNeue-c5" x="400.099899"/>
      <use xlink:href="#HelveticaNeue-29" x="464.899887"/>
     </g>
    </g>
   </g>
   <g id="line2d_27">
    <path d="M 282.416875 97.554499 
L 284.736919 129.091769 
L 287.056962 107.412303 
L 289.377006 127.026606 
L 291.69705 127.053405 
L 294.017093 100.840086 
L 296.337137 118.94656 
L 298.657181 102.576374 
L 300.977224 146.572139 
L 303.297268 117.411034 
L 305.617312 107.282065 
L 307.937355 135.692112 
L 310.257399 135.53244 
L 312.577443 95.0222 
L 314.897486 120.285988 
L 317.21753 138.938937 
L 319.537574 128.634192 
L 321.857617 118.120669 
L 324.177661 137.249679 
L 326.497705 124.621516 
L 328.817748 119.060476 
L 331.137792 92.800942 
L 333.457836 115.373614 
L 335.777879 104.930037 
L 338.097923 110.021761 
L 340.417967 95.023102 
L 342.738011 111.960693 
L 345.058054 138.592203 
L 347.378098 129.570869 
L 349.698142 131.491625 
L 352.018185 143.018534 
L 354.338229 127.803046 
L 356.658273 125.176903 
L 358.978316 129.23617 
L 361.29836 135.535617 
L 363.618404 122.660947 
L 365.938447 109.626156 
L 368.258491 112.262963 
L 370.578535 139.33328 
L 372.898578 114.507997 
L 375.218622 103.099769 
L 377.538666 127.936292 
L 379.858709 115.561469 
L 382.178753 100.154968 
L 384.498797 114.721877 
L 386.81884 113.978343 
L 389.138884 118.792506 
L 391.458928 86.091746 
L 393.778971 100.63435 
L 396.099015 77.990537 
L 398.419059 86.897775 
L 400.739102 49.780587 
L 403.059146 59.096443 
L 405.37919 71.086069 
L 407.699233 88.874527 
L 410.019277 126.768184 
L 412.339321 89.371487 
L 414.659364 116.473797 
L 416.979408 116.721828 
L 419.299452 111.381146 
L 421.619495 138.275291 
L 423.939539 141.380893 
L 426.259583 98.976259 
L 428.579626 114.99157 
L 430.89967 86.033248 
L 433.219714 107.808085 
L 435.539757 100.44749 
L 437.859801 129.655144 
L 440.179845 111.851447 
L 442.499888 140.993376 
L 444.819932 128.187668 
L 447.139976 102.654798 
L 449.46002 124.227169 
L 451.780063 135.226495 
L 454.100107 118.958554 
L 456.420151 98.130844 
L 458.740194 55.597799 
L 461.060238 97.177152 
L 463.380282 91.737139 
L 465.700325 81.296336 
L 468.020369 73.393401 
L 470.340413 29.750142 
" clip-path="url(#p2b8eff5e46)" style="fill: none; stroke: #90be6d; stroke-width: 1.5; stroke-linecap: square"/>
   </g>
   <g id="line2d_28">
    <path d="M 282.416875 111.04897 
L 470.340413 111.04897 
" clip-path="url(#p2b8eff5e46)" style="fill: none; stroke-dasharray: 5.55,2.4; stroke-dashoffset: 0; stroke: #90be6d; stroke-opacity: 0.7; stroke-width: 1.5"/>
   </g>
   <g id="patch_6">
    <path d="M 282.416875 212.354687 
L 282.416875 21.054688 
" style="fill: none; stroke: #212529; stroke-linejoin: miter; stroke-linecap: square"/>
   </g>
   <g id="patch_7">
    <path d="M 282.416875 212.354688 
L 470.340413 212.354688 
" style="fill: none; stroke: #212529; stroke-linejoin: miter; stroke-linecap: square"/>
   </g>
   <g id="text_30">
    <!-- Y dimension -->
    <g transform="translate(345.914659 15.054687) scale(0.11 -0.11)">
     <defs>
      <path id="HelveticaNeue-59" d="M 2387 1869 
L 4134 4570 
L 3443 4570 
L 2106 2394 
L 736 4570 
L 13 4570 
L 1779 1869 
L 1779 0 
L 2387 0 
L 2387 1869 
z
" transform="scale(0.015625)"/>
     </defs>
     <use xlink:href="#HelveticaNeue-59"/>
     <use xlink:href="#HelveticaNeue-20" x="64.799988"/>
     <use xlink:href="#HelveticaNeue-64" x="92.599976"/>
     <use xlink:href="#HelveticaNeue-69" x="151.899963"/>
     <use xlink:href="#HelveticaNeue-6d" x="174.09996"/>
     <use xlink:href="#HelveticaNeue-65" x="259.399948"/>
     <use xlink:href="#HelveticaNeue-6e" x="313.099945"/>
     <use xlink:href="#HelveticaNeue-73" x="368.699936"/>
     <use xlink:href="#HelveticaNeue-69" x="418.699921"/>
     <use xlink:href="#HelveticaNeue-6f" x="440.899918"/>
     <use xlink:href="#HelveticaNeue-6e" x="498.299911"/>
    </g>
   </g>
  </g>
  <g id="axes_3">
   <g id="patch_8">
    <path d="M 519.176875 212.354688 
L 707.100413 212.354688 
L 707.100413 21.054688 
L 519.176875 21.054688 
z
" style="fill: #ffffff"/>
   </g>
   <g id="PolyCollection_3">
    <defs>
     <path id="m7b30a84bec" d="M 519.176875 -167.341113 
L 519.176875 -43.795142 
L 521.496919 -43.795142 
L 523.816962 -43.795142 
L 526.137006 -43.795142 
L 528.45705 -43.795142 
L 530.777093 -43.795142 
L 533.097137 -43.795142 
L 535.417181 -43.795142 
L 537.737224 -43.795142 
L 540.057268 -43.795142 
L 542.377312 -43.795142 
L 544.697355 -43.795142 
L 547.017399 -43.795142 
L 549.337443 -43.795142 
L 551.657486 -43.795142 
L 553.97753 -43.795142 
L 556.297574 -43.795142 
L 558.617617 -43.795142 
L 560.937661 -43.795142 
L 563.257705 -43.795142 
L 565.577748 -43.795142 
L 567.897792 -43.795142 
L 570.217836 -43.795142 
L 572.537879 -43.795142 
L 574.857923 -43.795142 
L 577.177967 -43.795142 
L 579.498011 -43.795142 
L 581.818054 -43.795142 
L 584.138098 -43.795142 
L 586.458142 -43.795142 
L 588.778185 -43.795142 
L 591.098229 -43.795142 
L 593.418273 -43.795142 
L 595.738316 -43.795142 
L 598.05836 -43.795142 
L 600.378404 -43.795142 
L 602.698447 -43.795142 
L 605.018491 -43.795142 
L 607.338535 -43.795142 
L 609.658578 -43.795142 
L 611.978622 -43.795142 
L 614.298666 -43.795142 
L 616.618709 -43.795142 
L 618.938753 -43.795142 
L 621.258797 -43.795142 
L 623.57884 -43.795142 
L 625.898884 -43.795142 
L 628.218928 -43.795142 
L 630.538971 -43.795142 
L 632.859015 -43.795142 
L 635.179059 -43.795142 
L 637.499102 -43.795142 
L 639.819146 -43.795142 
L 642.13919 -43.795142 
L 644.459233 -43.795142 
L 646.779277 -43.795142 
L 649.099321 -43.795142 
L 651.419364 -43.795142 
L 653.739408 -43.795142 
L 656.059452 -43.795142 
L 658.379495 -43.795142 
L 660.699539 -43.795142 
L 663.019583 -43.795142 
L 665.339626 -43.795142 
L 667.65967 -43.795142 
L 669.979714 -43.795142 
L 672.299757 -43.795142 
L 674.619801 -43.795142 
L 676.939845 -43.795142 
L 679.259888 -43.795142 
L 681.579932 -43.795142 
L 683.899976 -43.795142 
L 686.22002 -43.795142 
L 688.540063 -43.795142 
L 690.860107 -43.795142 
L 693.180151 -43.795142 
L 695.500194 -43.795142 
L 697.820238 -43.795142 
L 700.140282 -43.795142 
L 702.460325 -43.795142 
L 704.780369 -43.795142 
L 707.100413 -43.795142 
L 707.100413 -132.087082 
L 707.100413 -132.087082 
L 704.780369 -217.704233 
L 702.460325 -167.115171 
L 700.140282 -180.401671 
L 697.820238 -177.39938 
L 695.500194 -121.639869 
L 693.180151 -145.022539 
L 690.860107 -122.120762 
L 688.540063 -107.482931 
L 686.22002 -124.788006 
L 683.899976 -126.127474 
L 681.579932 -124.234501 
L 679.259888 -134.139299 
L 676.939845 -142.709668 
L 674.619801 -155.977805 
L 672.299757 -164.388868 
L 669.979714 -160.903883 
L 667.65967 -155.855717 
L 665.339626 -137.348043 
L 663.019583 -163.399162 
L 660.699539 -124.185388 
L 658.379495 -125.821038 
L 656.059452 -120.076649 
L 653.739408 -114.856148 
L 651.419364 -132.821622 
L 649.099321 -153.719397 
L 646.779277 -133.207729 
L 644.459233 -136.666842 
L 642.13919 -156.913078 
L 639.819146 -144.938775 
L 637.499102 -158.903071 
L 635.179059 -162.544735 
L 632.859015 -167.217208 
L 630.538971 -128.304766 
L 628.218928 -109.308082 
L 625.898884 -166.976705 
L 623.57884 -139.372472 
L 621.258797 -178.193209 
L 618.938753 -122.664222 
L 616.618709 -136.344391 
L 614.298666 -145.405915 
L 611.978622 -136.67783 
L 609.658578 -117.10148 
L 607.338535 -132.918485 
L 605.018491 -122.73711 
L 602.698447 -124.307416 
L 600.378404 -131.354832 
L 598.05836 -120.058941 
L 595.738316 -114.738467 
L 593.418273 -119.303926 
L 591.098229 -125.647554 
L 588.778185 -133.586852 
L 586.458142 -185.859268 
L 584.138098 -143.863934 
L 581.818054 -144.856559 
L 579.498011 -135.308639 
L 577.177967 -136.975526 
L 574.857923 -105.521769 
L 572.537879 -120.971041 
L 570.217836 -108.889961 
L 567.897792 -134.088752 
L 565.577748 -85.924108 
L 563.257705 -99.776486 
L 560.937661 -102.830167 
L 558.617617 -115.636291 
L 556.297574 -114.483855 
L 553.97753 -108.061495 
L 551.657486 -102.77893 
L 549.337443 -139.525887 
L 547.017399 -103.955917 
L 544.697355 -113.7529 
L 542.377312 -126.260237 
L 540.057268 -127.996073 
L 537.737224 -117.01046 
L 535.417181 -123.535381 
L 533.097137 -122.033447 
L 530.777093 -124.110879 
L 528.45705 -114.249953 
L 526.137006 -143.994658 
L 523.816962 -121.249362 
L 521.496919 -119.202771 
L 519.176875 -167.341113 
z
" style="stroke: #048a81; stroke-opacity: 0.3"/>
    </defs>
    <g clip-path="url(#pc0e1eaa6e4)">
     <use xlink:href="#m7b30a84bec" x="0" y="247.454375" style="fill: #048a81; fill-opacity: 0.3; stroke: #048a81; stroke-opacity: 0.3"/>
    </g>
   </g>
   <g id="matplotlib.axis_5">
    <g id="xtick_9">
     <g id="line2d_29">
      <g>
       <use xlink:href="#mee04687767" x="563.257705" y="212.354688" style="stroke: #000000"/>
      </g>
     </g>
     <g id="text_31">
      <!-- 20 -->
      <g transform="translate(558.810205 225.567187) scale(0.08 -0.08)">
       <use xlink:href="#HelveticaNeue-32"/>
       <use xlink:href="#HelveticaNeue-30" x="55.599991"/>
      </g>
     </g>
    </g>
    <g id="xtick_10">
     <g id="line2d_30">
      <g>
       <use xlink:href="#mee04687767" x="609.658578" y="212.354688" style="stroke: #000000"/>
      </g>
     </g>
     <g id="text_32">
      <!-- 40 -->
      <g transform="translate(605.211078 225.567187) scale(0.08 -0.08)">
       <use xlink:href="#HelveticaNeue-34"/>
       <use xlink:href="#HelveticaNeue-30" x="55.599991"/>
      </g>
     </g>
    </g>
    <g id="xtick_11">
     <g id="line2d_31">
      <g>
       <use xlink:href="#mee04687767" x="656.059452" y="212.354688" style="stroke: #000000"/>
      </g>
     </g>
     <g id="text_33">
      <!-- 60 -->
      <g transform="translate(651.611952 225.567187) scale(0.08 -0.08)">
       <use xlink:href="#HelveticaNeue-36"/>
       <use xlink:href="#HelveticaNeue-30" x="55.599991"/>
      </g>
     </g>
    </g>
    <g id="xtick_12">
     <g id="line2d_32">
      <g>
       <use xlink:href="#mee04687767" x="702.460325" y="212.354688" style="stroke: #000000"/>
      </g>
     </g>
     <g id="text_34">
      <!-- 80 -->
      <g transform="translate(698.012825 225.567187) scale(0.08 -0.08)">
       <use xlink:href="#HelveticaNeue-38"/>
       <use xlink:href="#HelveticaNeue-30" x="55.599991"/>
      </g>
     </g>
    </g>
    <g id="text_35">
     <!-- Residue position -->
     <g transform="translate(575.818331 238.284063) scale(0.1 -0.1)">
      <use xlink:href="#HelveticaNeue-52"/>
      <use xlink:href="#HelveticaNeue-65" x="68.499985"/>
      <use xlink:href="#HelveticaNeue-73" x="122.199982"/>
      <use xlink:href="#HelveticaNeue-69" x="172.199966"/>
      <use xlink:href="#HelveticaNeue-64" x="194.399963"/>
      <use xlink:href="#HelveticaNeue-75" x="253.699951"/>
      <use xlink:href="#HelveticaNeue-65" x="309.299942"/>
      <use xlink:href="#HelveticaNeue-20" x="362.999939"/>
      <use xlink:href="#HelveticaNeue-70" x="390.799927"/>
      <use xlink:href="#HelveticaNeue-6f" x="450.099915"/>
      <use xlink:href="#HelveticaNeue-73" x="507.499908"/>
      <use xlink:href="#HelveticaNeue-69" x="557.499893"/>
      <use xlink:href="#HelveticaNeue-74" x="579.69989"/>
      <use xlink:href="#HelveticaNeue-69" x="611.199875"/>
      <use xlink:href="#HelveticaNeue-6f" x="633.399872"/>
      <use xlink:href="#HelveticaNeue-6e" x="690.799866"/>
     </g>
    </g>
   </g>
   <g id="matplotlib.axis_6">
    <g id="ytick_17">
     <g id="line2d_33">
      <g>
       <use xlink:href="#m19b1bd3dc3" x="519.176875" y="203.659233" style="stroke: #000000"/>
      </g>
     </g>
     <g id="text_36">
      <!-- 0.00 -->
      <g transform="translate(496.110625 206.515483) scale(0.08 -0.08)">
       <use xlink:href="#HelveticaNeue-30"/>
       <use xlink:href="#HelveticaNeue-2e" x="55.599991"/>
       <use xlink:href="#HelveticaNeue-30" x="83.399979"/>
       <use xlink:href="#HelveticaNeue-30" x="138.999969"/>
      </g>
     </g>
    </g>
    <g id="ytick_18">
     <g id="line2d_34">
      <g>
       <use xlink:href="#m19b1bd3dc3" x="519.176875" y="178.844616" style="stroke: #000000"/>
      </g>
     </g>
     <g id="text_37">
      <!-- 0.25 -->
      <g transform="translate(496.110625 181.700866) scale(0.08 -0.08)">
       <use xlink:href="#HelveticaNeue-30"/>
       <use xlink:href="#HelveticaNeue-2e" x="55.599991"/>
       <use xlink:href="#HelveticaNeue-32" x="83.399979"/>
       <use xlink:href="#HelveticaNeue-35" x="138.999969"/>
      </g>
     </g>
    </g>
    <g id="ytick_19">
     <g id="line2d_35">
      <g>
       <use xlink:href="#m19b1bd3dc3" x="519.176875" y="154.03" style="stroke: #000000"/>
      </g>
     </g>
     <g id="text_38">
      <!-- 0.50 -->
      <g transform="translate(496.110625 156.88625) scale(0.08 -0.08)">
       <use xlink:href="#HelveticaNeue-30"/>
       <use xlink:href="#HelveticaNeue-2e" x="55.599991"/>
       <use xlink:href="#HelveticaNeue-35" x="83.399979"/>
       <use xlink:href="#HelveticaNeue-30" x="138.999969"/>
      </g>
     </g>
    </g>
    <g id="ytick_20">
     <g id="line2d_36">
      <g>
       <use xlink:href="#m19b1bd3dc3" x="519.176875" y="129.215383" style="stroke: #000000"/>
      </g>
     </g>
     <g id="text_39">
      <!-- 0.75 -->
      <g transform="translate(496.110625 132.071633) scale(0.08 -0.08)">
       <use xlink:href="#HelveticaNeue-30"/>
       <use xlink:href="#HelveticaNeue-2e" x="55.599991"/>
       <use xlink:href="#HelveticaNeue-37" x="83.399979"/>
       <use xlink:href="#HelveticaNeue-35" x="138.999969"/>
      </g>
     </g>
    </g>
    <g id="ytick_21">
     <g id="line2d_37">
      <g>
       <use xlink:href="#m19b1bd3dc3" x="519.176875" y="104.400767" style="stroke: #000000"/>
      </g>
     </g>
     <g id="text_40">
      <!-- 1.00 -->
      <g transform="translate(496.110625 107.257017) scale(0.08 -0.08)">
       <use xlink:href="#HelveticaNeue-31"/>
       <use xlink:href="#HelveticaNeue-2e" x="55.599991"/>
       <use xlink:href="#HelveticaNeue-30" x="83.399979"/>
       <use xlink:href="#HelveticaNeue-30" x="138.999969"/>
      </g>
     </g>
    </g>
    <g id="ytick_22">
     <g id="line2d_38">
      <g>
       <use xlink:href="#m19b1bd3dc3" x="519.176875" y="79.58615" style="stroke: #000000"/>
      </g>
     </g>
     <g id="text_41">
      <!-- 1.25 -->
      <g transform="translate(496.110625 82.4424) scale(0.08 -0.08)">
       <use xlink:href="#HelveticaNeue-31"/>
       <use xlink:href="#HelveticaNeue-2e" x="55.599991"/>
       <use xlink:href="#HelveticaNeue-32" x="83.399979"/>
       <use xlink:href="#HelveticaNeue-35" x="138.999969"/>
      </g>
     </g>
    </g>
    <g id="ytick_23">
     <g id="line2d_39">
      <g>
       <use xlink:href="#m19b1bd3dc3" x="519.176875" y="54.771534" style="stroke: #000000"/>
      </g>
     </g>
     <g id="text_42">
      <!-- 1.50 -->
      <g transform="translate(496.110625 57.627784) scale(0.08 -0.08)">
       <use xlink:href="#HelveticaNeue-31"/>
       <use xlink:href="#HelveticaNeue-2e" x="55.599991"/>
       <use xlink:href="#HelveticaNeue-35" x="83.399979"/>
       <use xlink:href="#HelveticaNeue-30" x="138.999969"/>
      </g>
     </g>
    </g>
    <g id="ytick_24">
     <g id="line2d_40">
      <g>
       <use xlink:href="#m19b1bd3dc3" x="519.176875" y="29.956917" style="stroke: #000000"/>
      </g>
     </g>
     <g id="text_43">
      <!-- 1.75 -->
      <g transform="translate(496.110625 32.813167) scale(0.08 -0.08)">
       <use xlink:href="#HelveticaNeue-31"/>
       <use xlink:href="#HelveticaNeue-2e" x="55.599991"/>
       <use xlink:href="#HelveticaNeue-37" x="83.399979"/>
       <use xlink:href="#HelveticaNeue-35" x="138.999969"/>
      </g>
     </g>
    </g>
    <g id="text_44">
     <!-- Std dev (Å) -->
     <g transform="translate(490.140313 141.244531) rotate(-90) scale(0.1 -0.1)">
      <use xlink:href="#HelveticaNeue-53"/>
      <use xlink:href="#HelveticaNeue-74" x="64.799988"/>
      <use xlink:href="#HelveticaNeue-64" x="96.299973"/>
      <use xlink:href="#HelveticaNeue-20" x="155.59996"/>
      <use xlink:href="#HelveticaNeue-64" x="183.399948"/>
      <use xlink:href="#HelveticaNeue-65" x="242.699936"/>
      <use xlink:href="#HelveticaNeue-76" x="296.399933"/>
      <use xlink:href="#HelveticaNeue-20" x="346.399918"/>
      <use xlink:href="#HelveticaNeue-28" x="374.199905"/>
      <use xlink:href="#HelveticaNeue-c5" x="400.099899"/>
      <use xlink:href="#HelveticaNeue-29" x="464.899887"/>
     </g>
    </g>
   </g>
   <g id="line2d_41">
    <path d="M 519.176875 80.113262 
L 521.496919 128.251604 
L 523.816962 126.205013 
L 526.137006 103.459717 
L 528.45705 133.204422 
L 530.777093 123.343496 
L 533.097137 125.420928 
L 535.417181 123.918994 
L 537.737224 130.443915 
L 540.057268 119.458302 
L 542.377312 121.194138 
L 544.697355 133.701475 
L 547.017399 143.498458 
L 549.337443 107.928488 
L 551.657486 144.675445 
L 553.97753 139.39288 
L 556.297574 132.97052 
L 558.617617 131.818084 
L 560.937661 144.624208 
L 563.257705 147.677889 
L 565.577748 161.530267 
L 567.897792 113.365623 
L 570.217836 138.564414 
L 572.537879 126.483334 
L 574.857923 141.932606 
L 577.177967 110.478849 
L 579.498011 112.145736 
L 581.818054 102.597816 
L 584.138098 103.590441 
L 586.458142 61.595107 
L 588.778185 113.867523 
L 591.098229 121.806821 
L 593.418273 128.150449 
L 595.738316 132.715908 
L 598.05836 127.395434 
L 600.378404 116.099543 
L 602.698447 123.146959 
L 605.018491 124.717265 
L 607.338535 114.53589 
L 609.658578 130.352895 
L 611.978622 110.776545 
L 614.298666 102.04846 
L 616.618709 111.109984 
L 618.938753 124.790153 
L 621.258797 69.261166 
L 623.57884 108.081903 
L 625.898884 80.47767 
L 628.218928 138.146293 
L 630.538971 119.149609 
L 632.859015 80.237167 
L 635.179059 84.90964 
L 637.499102 88.551304 
L 639.819146 102.5156 
L 642.13919 90.541297 
L 644.459233 110.787533 
L 646.779277 114.246646 
L 649.099321 93.734978 
L 651.419364 114.632753 
L 653.739408 132.598227 
L 656.059452 127.377726 
L 658.379495 121.633337 
L 660.699539 123.268987 
L 663.019583 84.055213 
L 665.339626 110.106332 
L 667.65967 91.598658 
L 669.979714 86.550492 
L 672.299757 83.065507 
L 674.619801 91.47657 
L 676.939845 104.744707 
L 679.259888 113.315076 
L 681.579932 123.219874 
L 683.899976 121.326901 
L 686.22002 122.666369 
L 688.540063 139.971444 
L 690.860107 125.333613 
L 693.180151 102.431836 
L 695.500194 125.814506 
L 697.820238 70.054995 
L 700.140282 67.052704 
L 702.460325 80.339204 
L 704.780369 29.750142 
L 707.100413 115.367293 
" clip-path="url(#pc0e1eaa6e4)" style="fill: none; stroke: #048a81; stroke-width: 1.5; stroke-linecap: square"/>
   </g>
   <g id="line2d_42">
    <path d="M 519.176875 113.213324 
L 707.100413 113.213324 
" clip-path="url(#pc0e1eaa6e4)" style="fill: none; stroke-dasharray: 5.55,2.4; stroke-dashoffset: 0; stroke: #048a81; stroke-opacity: 0.7; stroke-width: 1.5"/>
   </g>
   <g id="patch_9">
    <path d="M 519.176875 212.354687 
L 519.176875 21.054688 
" style="fill: none; stroke: #212529; stroke-linejoin: miter; stroke-linecap: square"/>
   </g>
   <g id="patch_10">
    <path d="M 519.176875 212.354688 
L 707.100413 212.354688 
" style="fill: none; stroke: #212529; stroke-linejoin: miter; stroke-linecap: square"/>
   </g>
   <g id="text_45">
    <!-- Z dimension -->
    <g transform="translate(582.878331 15.054687) scale(0.11 -0.11)">
     <defs>
      <path id="HelveticaNeue-5a" d="M 141 512 
L 141 0 
L 3776 0 
L 3776 512 
L 864 512 
L 3699 4058 
L 3699 4570 
L 358 4570 
L 358 4058 
L 2982 4058 
L 141 512 
z
" transform="scale(0.015625)"/>
     </defs>
     <use xlink:href="#HelveticaNeue-5a"/>
     <use xlink:href="#HelveticaNeue-20" x="61.099991"/>
     <use xlink:href="#HelveticaNeue-64" x="88.899979"/>
     <use xlink:href="#HelveticaNeue-69" x="148.199966"/>
     <use xlink:href="#HelveticaNeue-6d" x="170.399963"/>
     <use xlink:href="#HelveticaNeue-65" x="255.699951"/>
     <use xlink:href="#HelveticaNeue-6e" x="309.399948"/>
     <use xlink:href="#HelveticaNeue-73" x="364.999939"/>
     <use xlink:href="#HelveticaNeue-69" x="414.999924"/>
     <use xlink:href="#HelveticaNeue-6f" x="437.199921"/>
     <use xlink:href="#HelveticaNeue-6e" x="494.599915"/>
    </g>
   </g>
  </g>
 </g>
 <defs>
  <clipPath id="p6d52cd0a57">
   <rect x="45.656875" y="21.054687" width="187.923538" height="191.3"/>
  </clipPath>
  <clipPath id="p2b8eff5e46">
   <rect x="282.416875" y="21.054687" width="187.923538" height="191.3"/>
  </clipPath>
  <clipPath id="pc0e1eaa6e4">
   <rect x="519.176875" y="21.054687" width="187.923538" height="191.3"/>
  </clipPath>
 </defs>
</svg>
