<?xml version="1.0" encoding="utf-8" standalone="no"?>
<!DOCTYPE svg PUBLIC "-//W3C//DTD SVG 1.1//EN"
  "http://www.w3.org/Graphics/SVG/1.1/DTD/svg11.dtd">
<svg xmlns:xlink="http://www.w3.org/1999/xlink" width="605.142134pt" height="438.636709pt" viewBox="0 0 605.142134 438.636709" xmlns="http://www.w3.org/2000/svg" version="1.1">
 <metadata>
  <rdf:RDF xmlns:dc="http://purl.org/dc/elements/1.1/" xmlns:cc="http://creativecommons.org/ns#" xmlns:rdf="http://www.w3.org/1999/02/22-rdf-syntax-ns#">
   <cc:Work>
    <dc:type rdf:resource="http://purl.org/dc/dcmitype/StillImage"/>
    <dc:date>2026-01-13T16:23:55.304683</dc:date>
    <dc:format>image/svg+xml</dc:format>
    <dc:creator>
     <cc:Agent>
      <dc:title>Matplotlib v3.9.2, https://matplotlib.org/</dc:title>
     </cc:Agent>
    </dc:creator>
   </cc:Work>
  </rdf:RDF>
 </metadata>
 <defs>
  <style type="text/css">*{stroke-linejoin: round; stroke-linecap: butt}</style>
 </defs>
 <g id="figure_1">
  <g id="patch_1">
   <path d="M 0 438.636709 
L 605.142134 438.636709 
L 605.142134 0 
L 0 0 
z
" style="fill: #ffffff"/>
  </g>
  <g id="axes_1">
   <g id="line2d_1">
    <path d="M 106.85049 59.004937 
L 110.519231 59.084502 
L 114.14496 59.322265 
L 117.685167 59.715439 
L 121.098348 60.259413 
L 124.344486 60.94781 
L 127.385523 61.77256 
L 130.185805 62.723993 
L 132.712502 63.790953 
L 134.935991 64.960933 
L 136.830203 66.220215 
L 138.37293 67.554035 
L 139.546085 68.946755 
L 140.335914 70.382047 
L 140.733157 71.843084 
L 140.733157 73.312736 
L 140.335914 74.773772 
L 139.546085 76.209065 
L 138.37293 77.601785 
L 136.830203 78.935605 
L 134.935991 80.194887 
L 132.712502 81.364866 
L 130.185805 82.431827 
L 127.385523 83.383259 
L 124.344486 84.208009 
L 121.098348 84.896406 
L 117.685167 85.440381 
L 114.14496 85.833554 
L 110.519231 86.071317 
L 106.85049 86.150883 
" clip-path="url(#p8c831f8c06)" style="fill: none; stroke: #90be6d; stroke-width: 6; stroke-linecap: round"/>
   </g>
   <g id="line2d_2">
    <path d="M 72.918057 131.959666 
L 72.918057 130.747794 
L 72.918057 129.535921 
L 72.918057 128.324049 
L 72.918057 127.112176 
L 72.918057 125.900304 
L 72.918057 124.688431 
L 72.918057 123.476558 
L 72.918057 122.264686 
L 72.918057 121.052813 
L 72.918057 119.840941 
L 72.918057 118.629068 
L 72.918057 117.417195 
L 72.918057 116.205323 
L 72.918057 114.99345 
L 72.918057 113.781578 
L 72.918057 112.569705 
L 72.918057 111.357832 
L 72.918057 110.14596 
L 72.918057 108.934087 
L 72.918057 107.722215 
L 72.918057 106.510342 
L 72.918057 105.29847 
L 72.918057 104.086597 
L 72.918057 102.874724 
L 72.918057 101.662852 
L 72.918057 100.450979 
L 72.918057 99.239107 
L 72.918057 98.027234 
L 72.918057 96.815361 
L 72.918057 95.603489 
L 72.918057 94.391616 
L 72.918057 93.179744 
L 72.918057 91.967871 
L 72.918057 90.755999 
L 72.918057 89.544126 
L 72.918057 88.332253 
L 72.918057 87.120381 
L 72.918057 85.908508 
L 72.918057 84.696636 
L 72.918057 83.484763 
L 72.918057 82.27289 
L 72.918057 81.061018 
L 72.918057 79.849145 
L 72.918057 78.637273 
L 72.918057 77.4254 
L 72.918057 76.213527 
L 72.918057 75.001655 
L 72.918057 73.789782 
L 72.918057 72.57791 
" clip-path="url(#p8c831f8c06)" style="fill: none; stroke: #048a81; stroke-width: 8; stroke-linecap: round"/>
   </g>
   <g id="line2d_3">
    <path d="M 140.782922 72.57791 
L 140.782922 73.789782 
L 140.782922 75.001655 
L 140.782922 76.213527 
L 140.782922 77.4254 
L 140.782922 78.637273 
L 140.782922 79.849145 
L 140.782922 81.061018 
L 140.782922 82.27289 
L 140.782922 83.484763 
L 140.782922 84.696636 
L 140.782922 85.908508 
L 140.782922 87.120381 
L 140.782922 88.332253 
L 140.782922 89.544126 
L 140.782922 90.755999 
L 140.782922 91.967871 
L 140.782922 93.179744 
L 140.782922 94.391616 
L 140.782922 95.603489 
L 140.782922 96.815361 
L 140.782922 98.027234 
L 140.782922 99.239107 
L 140.782922 100.450979 
L 140.782922 101.662852 
L 140.782922 102.874724 
L 140.782922 104.086597 
L 140.782922 105.29847 
L 140.782922 106.510342 
L 140.782922 107.722215 
L 140.782922 108.934087 
L 140.782922 110.14596 
L 140.782922 111.357832 
L 140.782922 112.569705 
L 140.782922 113.781578 
L 140.782922 114.99345 
L 140.782922 116.205323 
L 140.782922 117.417195 
L 140.782922 118.629068 
L 140.782922 119.840941 
L 140.782922 121.052813 
L 140.782922 122.264686 
L 140.782922 123.476558 
L 140.782922 124.688431 
L 140.782922 125.900304 
L 140.782922 127.112176 
L 140.782922 128.324049 
L 140.782922 129.535921 
L 140.782922 130.747794 
L 140.782922 131.959666 
" clip-path="url(#p8c831f8c06)" style="fill: none; stroke: #048a81; stroke-width: 8; stroke-linecap: round"/>
   </g>
   <g id="text_1">
    <!-- N -->
    <g transform="translate(69.307901 147.5834) scale(0.1 -0.1)">
     <defs>
      <path id="HelveticaNeue-4e" d="M 493 4570 
L 493 0 
L 1069 0 
L 1069 3667 
L 1082 3667 
L 3469 0 
L 4134 0 
L 4134 4570 
L 3558 4570 
L 3558 864 
L 3546 864 
L 1139 4570 
L 493 4570 
z
" transform="scale(0.015625)"/>
     </defs>
     <use xlink:href="#HelveticaNeue-4e"/>
    </g>
   </g>
   <g id="text_2">
    <!-- C -->
    <g transform="translate(137.172766 147.5834) scale(0.1 -0.1)">
     <defs>
      <path id="HelveticaNeue-43" d="M 3712 3194 
L 4320 3194 
Q 4269 3558 4102 3836 
Q 3936 4115 3686 4300 
Q 3437 4486 3117 4582 
Q 2797 4678 2438 4678 
Q 1914 4678 1507 4489 
Q 1101 4301 829 3974 
Q 557 3648 416 3209 
Q 275 2771 275 2272 
Q 275 1773 406 1337 
Q 538 902 800 582 
Q 1062 262 1459 80 
Q 1856 -102 2387 -102 
Q 3264 -102 3769 378 
Q 4275 858 4365 1722 
L 3757 1722 
Q 3738 1440 3642 1197 
Q 3546 954 3376 778 
Q 3206 602 2972 502 
Q 2739 403 2438 403 
Q 2029 403 1734 556 
Q 1440 710 1251 969 
Q 1062 1229 972 1577 
Q 883 1926 883 2317 
Q 883 2675 972 3008 
Q 1062 3341 1251 3600 
Q 1440 3859 1731 4012 
Q 2022 4166 2432 4166 
Q 2912 4166 3261 3923 
Q 3610 3680 3712 3194 
z
" transform="scale(0.015625)"/>
     </defs>
     <use xlink:href="#HelveticaNeue-43"/>
    </g>
   </g>
   <g id="text_3">
    <!-- Turn -->
    <g style="fill: #90be6d" transform="translate(99.074865 54.035444) scale(0.08 -0.08)">
     <defs>
      <path id="HelveticaNeue-54" d="M 1536 4058 
L 1536 0 
L 2144 0 
L 2144 4058 
L 3667 4058 
L 3667 4570 
L 13 4570 
L 13 4058 
L 1536 4058 
z
" transform="scale(0.015625)"/>
      <path id="HelveticaNeue-75" d="M 3149 0 
L 3149 3309 
L 2605 3309 
L 2605 1440 
Q 2605 1216 2544 1027 
Q 2483 838 2361 697 
Q 2240 557 2057 480 
Q 1875 403 1626 403 
Q 1312 403 1133 582 
Q 954 762 954 1069 
L 954 3309 
L 410 3309 
L 410 1133 
Q 410 864 464 643 
Q 518 422 652 262 
Q 787 102 1004 16 
Q 1222 -70 1549 -70 
Q 1914 -70 2182 74 
Q 2451 218 2624 525 
L 2637 525 
L 2637 0 
L 3149 0 
z
" transform="scale(0.015625)"/>
      <path id="HelveticaNeue-72" d="M 390 3309 
L 390 0 
L 934 0 
L 934 1472 
Q 934 1792 998 2038 
Q 1062 2285 1203 2457 
Q 1344 2630 1574 2720 
Q 1805 2810 2131 2810 
L 2131 3386 
Q 1690 3398 1402 3206 
Q 1114 3014 915 2611 
L 902 2611 
L 902 3309 
L 390 3309 
z
" transform="scale(0.015625)"/>
      <path id="HelveticaNeue-6e" d="M 410 3309 
L 410 0 
L 954 0 
L 954 1869 
Q 954 2093 1014 2281 
Q 1075 2470 1196 2611 
Q 1318 2752 1500 2829 
Q 1683 2906 1933 2906 
Q 2246 2906 2425 2726 
Q 2605 2547 2605 2240 
L 2605 0 
L 3149 0 
L 3149 2176 
Q 3149 2445 3094 2665 
Q 3040 2886 2905 3046 
Q 2771 3206 2553 3296 
Q 2336 3386 2010 3386 
Q 1274 3386 934 2784 
L 922 2784 
L 922 3309 
L 410 3309 
z
" transform="scale(0.015625)"/>
     </defs>
     <use xlink:href="#HelveticaNeue-54"/>
     <use xlink:href="#HelveticaNeue-75" x="48.149994"/>
     <use xlink:href="#HelveticaNeue-72" x="103.749985"/>
     <use xlink:href="#HelveticaNeue-6e" x="138.799973"/>
    </g>
   </g>
   <g id="patch_2">
    <path d="M 64.434949 112.995902 
Q 64.434949 102.270551 64.434949 93.22225 
" style="fill: none; stroke: #212529; stroke-width: 1.5; stroke-linecap: round"/>
    <path d="M 62.634949 96.82225 
L 64.434949 93.22225 
L 66.234949 96.82225 
" style="fill: none; stroke: #212529; stroke-width: 1.5; stroke-linecap: round"/>
   </g>
   <g id="patch_3">
    <path d="M 149.26603 91.541674 
Q 149.26603 102.267026 149.26603 111.315326 
" style="fill: none; stroke: #212529; stroke-width: 1.5; stroke-linecap: round"/>
    <path d="M 151.06603 107.715326 
L 149.26603 111.315326 
L 147.46603 107.715326 
" style="fill: none; stroke: #212529; stroke-width: 1.5; stroke-linecap: round"/>
   </g>
   <g id="text_4">
    <!-- α1 -->
    <g transform="translate(45.665122 103.117099) scale(0.09 -0.09)">
     <defs>
      <path id="HelveticaNeue-3b1" d="M 3258 723 
Q 3258 550 3318 473 
Q 3379 397 3462 397 
Q 3514 397 3571 403 
Q 3629 410 3674 422 
L 3674 0 
Q 3520 -77 3296 -77 
Q 3046 -77 2899 64 
Q 2752 205 2726 486 
L 2714 486 
Q 2560 179 2288 51 
Q 2016 -77 1670 -77 
Q 1306 -77 1037 70 
Q 768 218 589 461 
Q 410 704 320 1017 
Q 230 1331 230 1664 
Q 230 1997 320 2310 
Q 410 2624 598 2861 
Q 787 3098 1072 3242 
Q 1357 3386 1747 3386 
Q 2048 3386 2304 3245 
Q 2560 3104 2701 2867 
L 2714 2867 
L 2714 3309 
L 3258 3309 
L 3258 723 
z
M 806 1626 
Q 806 1408 860 1190 
Q 915 973 1027 797 
Q 1139 621 1318 512 
Q 1498 403 1747 403 
Q 2022 403 2211 512 
Q 2400 621 2515 797 
Q 2630 973 2681 1197 
Q 2733 1421 2733 1651 
Q 2733 1894 2675 2121 
Q 2618 2349 2499 2521 
Q 2381 2694 2201 2800 
Q 2022 2906 1786 2906 
Q 1498 2906 1309 2790 
Q 1120 2675 1008 2492 
Q 896 2310 851 2080 
Q 806 1850 806 1626 
z
" transform="scale(0.015625)"/>
      <path id="HelveticaNeue-31" d="M 2278 0 
L 2278 4538 
L 1862 4538 
Q 1818 4282 1696 4115 
Q 1574 3949 1398 3853 
Q 1222 3757 1004 3721 
Q 787 3686 557 3686 
L 557 3251 
L 1734 3251 
L 1734 0 
L 2278 0 
z
" transform="scale(0.015625)"/>
     </defs>
     <use xlink:href="#HelveticaNeue-3b1"/>
     <use xlink:href="#HelveticaNeue-31" x="58.699997"/>
    </g>
   </g>
   <g id="text_5">
    <!-- α2 -->
    <g transform="translate(157.749139 103.117099) scale(0.09 -0.09)">
     <defs>
      <path id="HelveticaNeue-32" d="M 282 2931 
L 826 2931 
Q 819 3136 867 3337 
Q 915 3539 1024 3699 
Q 1133 3859 1302 3958 
Q 1472 4058 1709 4058 
Q 1888 4058 2048 4000 
Q 2208 3942 2326 3833 
Q 2445 3725 2515 3574 
Q 2586 3424 2586 3238 
Q 2586 3002 2512 2822 
Q 2438 2643 2294 2489 
Q 2150 2336 1932 2185 
Q 1715 2035 1427 1856 
Q 1190 1715 972 1555 
Q 755 1395 582 1184 
Q 410 973 298 688 
Q 186 403 154 0 
L 3117 0 
L 3117 480 
L 787 480 
Q 826 691 950 854 
Q 1075 1018 1251 1158 
Q 1427 1299 1638 1424 
Q 1850 1549 2061 1677 
Q 2272 1811 2470 1958 
Q 2669 2106 2822 2288 
Q 2976 2470 3069 2700 
Q 3162 2931 3162 3232 
Q 3162 3552 3050 3795 
Q 2938 4038 2746 4201 
Q 2554 4365 2294 4451 
Q 2035 4538 1741 4538 
Q 1382 4538 1100 4416 
Q 819 4294 630 4080 
Q 442 3866 352 3571 
Q 262 3277 282 2931 
z
" transform="scale(0.015625)"/>
     </defs>
     <use xlink:href="#HelveticaNeue-3b1"/>
     <use xlink:href="#HelveticaNeue-32" x="58.699997"/>
    </g>
   </g>
   <g id="text_6">
    <!-- A -->
    <g transform="translate(30.502517 46.945731) scale(0.14 -0.14)">
     <defs>
      <path id="HelveticaNeue-41" d="M 1286 1888 
L 2061 4019 
L 2074 4019 
L 2835 1888 
L 1286 1888 
z
M 1741 4570 
L -38 0 
L 582 0 
L 1094 1376 
L 3027 1376 
L 3526 0 
L 4198 0 
L 2413 4570 
L 1741 4570 
z
" transform="scale(0.015625)"/>
     </defs>
     <use xlink:href="#HelveticaNeue-41"/>
    </g>
   </g>
   <g id="text_7">
    <!-- Conserved U-bend fold -->
    <g transform="translate(71.401862 37.128585) scale(0.1 -0.1)">
     <defs>
      <path id="HelveticaNeue-6f" d="M 806 1651 
Q 806 1952 886 2185 
Q 966 2419 1107 2579 
Q 1248 2739 1437 2822 
Q 1626 2906 1837 2906 
Q 2048 2906 2237 2822 
Q 2426 2739 2566 2579 
Q 2707 2419 2787 2185 
Q 2867 1952 2867 1651 
Q 2867 1350 2787 1116 
Q 2707 883 2566 726 
Q 2426 570 2237 486 
Q 2048 403 1837 403 
Q 1626 403 1437 486 
Q 1248 570 1107 726 
Q 966 883 886 1116 
Q 806 1350 806 1651 
z
M 230 1651 
Q 230 1286 332 972 
Q 435 659 640 425 
Q 845 192 1145 61 
Q 1446 -70 1837 -70 
Q 2234 -70 2531 61 
Q 2829 192 3033 425 
Q 3238 659 3340 972 
Q 3443 1286 3443 1651 
Q 3443 2016 3340 2333 
Q 3238 2650 3033 2883 
Q 2829 3117 2531 3251 
Q 2234 3386 1837 3386 
Q 1446 3386 1145 3251 
Q 845 3117 640 2883 
Q 435 2650 332 2333 
Q 230 2016 230 1651 
z
" transform="scale(0.015625)"/>
      <path id="HelveticaNeue-73" d="M 742 1043 
L 198 1043 
Q 211 736 326 521 
Q 442 307 634 176 
Q 826 45 1075 -12 
Q 1325 -70 1600 -70 
Q 1850 -70 2102 -22 
Q 2355 26 2556 147 
Q 2758 269 2883 467 
Q 3008 666 3008 966 
Q 3008 1203 2915 1363 
Q 2822 1523 2672 1628 
Q 2522 1734 2326 1798 
Q 2131 1862 1926 1907 
Q 1734 1952 1542 1993 
Q 1350 2035 1196 2096 
Q 1043 2157 944 2249 
Q 845 2342 845 2483 
Q 845 2611 909 2691 
Q 973 2771 1075 2819 
Q 1178 2867 1302 2886 
Q 1427 2906 1549 2906 
Q 1683 2906 1814 2877 
Q 1946 2848 2054 2784 
Q 2163 2720 2233 2614 
Q 2304 2509 2317 2349 
L 2861 2349 
Q 2842 2650 2733 2851 
Q 2624 3053 2441 3171 
Q 2259 3290 2022 3338 
Q 1786 3386 1504 3386 
Q 1286 3386 1065 3331 
Q 845 3277 669 3165 
Q 493 3053 381 2873 
Q 269 2694 269 2445 
Q 269 2125 429 1945 
Q 589 1766 829 1667 
Q 1069 1568 1350 1513 
Q 1632 1459 1872 1392 
Q 2112 1325 2272 1216 
Q 2432 1107 2432 896 
Q 2432 742 2355 643 
Q 2278 544 2160 493 
Q 2042 442 1901 422 
Q 1760 403 1632 403 
Q 1466 403 1309 435 
Q 1152 467 1027 540 
Q 902 614 825 739 
Q 749 864 742 1043 
z
" transform="scale(0.015625)"/>
      <path id="HelveticaNeue-65" d="M 2707 1971 
L 806 1971 
Q 819 2163 889 2332 
Q 960 2502 1081 2630 
Q 1203 2758 1372 2832 
Q 1542 2906 1754 2906 
Q 1958 2906 2128 2832 
Q 2298 2758 2422 2633 
Q 2547 2509 2620 2336 
Q 2694 2163 2707 1971 
z
M 3232 1050 
L 2694 1050 
Q 2624 723 2403 563 
Q 2182 403 1837 403 
Q 1568 403 1369 492 
Q 1171 582 1043 732 
Q 915 883 857 1078 
Q 800 1274 806 1491 
L 3283 1491 
Q 3296 1792 3229 2125 
Q 3162 2458 2986 2739 
Q 2810 3021 2518 3203 
Q 2227 3386 1786 3386 
Q 1446 3386 1161 3258 
Q 877 3130 669 2899 
Q 461 2669 345 2355 
Q 230 2042 230 1664 
Q 243 1286 342 966 
Q 442 646 640 416 
Q 838 186 1129 58 
Q 1421 -70 1818 -70 
Q 2381 -70 2752 211 
Q 3123 493 3232 1050 
z
" transform="scale(0.015625)"/>
      <path id="HelveticaNeue-76" d="M 1901 0 
L 3110 3309 
L 2541 3309 
L 1638 550 
L 1626 550 
L 698 3309 
L 90 3309 
L 1318 0 
L 1901 0 
z
" transform="scale(0.015625)"/>
      <path id="HelveticaNeue-64" d="M 806 1626 
Q 806 1869 857 2099 
Q 909 2330 1024 2509 
Q 1139 2688 1331 2797 
Q 1523 2906 1798 2906 
Q 2080 2906 2278 2800 
Q 2477 2694 2601 2521 
Q 2726 2349 2784 2121 
Q 2842 1894 2842 1651 
Q 2842 1421 2787 1197 
Q 2733 973 2611 797 
Q 2490 621 2298 512 
Q 2106 403 1830 403 
Q 1568 403 1373 505 
Q 1178 608 1053 781 
Q 928 954 867 1174 
Q 806 1395 806 1626 
z
M 3366 0 
L 3366 4570 
L 2822 4570 
L 2822 2867 
L 2810 2867 
Q 2720 3014 2589 3113 
Q 2458 3213 2310 3273 
Q 2163 3334 2016 3360 
Q 1869 3386 1741 3386 
Q 1363 3386 1078 3248 
Q 794 3110 605 2876 
Q 416 2643 323 2329 
Q 230 2016 230 1664 
Q 230 1312 326 998 
Q 422 685 611 448 
Q 800 211 1085 70 
Q 1370 -70 1754 -70 
Q 2099 -70 2387 51 
Q 2675 173 2810 448 
L 2822 448 
L 2822 0 
L 3366 0 
z
" transform="scale(0.015625)"/>
      <path id="HelveticaNeue-20" transform="scale(0.015625)"/>
      <path id="HelveticaNeue-55" d="M 4147 1651 
L 4147 4570 
L 3539 4570 
L 3539 1651 
Q 3539 1037 3235 720 
Q 2931 403 2349 403 
Q 1734 403 1408 720 
Q 1082 1037 1082 1651 
L 1082 4570 
L 474 4570 
L 474 1651 
Q 474 736 970 317 
Q 1466 -102 2349 -102 
Q 3213 -102 3680 336 
Q 4147 774 4147 1651 
z
" transform="scale(0.015625)"/>
      <path id="HelveticaNeue-2d" d="M 320 2035 
L 320 1523 
L 2170 1523 
L 2170 2035 
L 320 2035 
z
" transform="scale(0.015625)"/>
      <path id="HelveticaNeue-62" d="M 429 4570 
L 429 0 
L 973 0 
L 973 442 
L 986 442 
Q 1075 294 1206 195 
Q 1338 96 1485 38 
Q 1632 -19 1782 -44 
Q 1933 -70 2054 -70 
Q 2432 -70 2717 64 
Q 3002 198 3190 432 
Q 3379 666 3472 979 
Q 3565 1293 3565 1645 
Q 3565 1997 3469 2310 
Q 3373 2624 3184 2864 
Q 2995 3104 2710 3245 
Q 2426 3386 2042 3386 
Q 1696 3386 1408 3261 
Q 1120 3136 986 2861 
L 973 2861 
L 973 4570 
L 429 4570 
z
M 2989 1683 
Q 2989 1440 2937 1209 
Q 2886 979 2771 800 
Q 2656 621 2467 512 
Q 2278 403 1997 403 
Q 1715 403 1516 508 
Q 1318 614 1193 787 
Q 1069 960 1011 1187 
Q 954 1414 954 1658 
Q 954 1888 1008 2112 
Q 1062 2336 1184 2512 
Q 1306 2688 1498 2797 
Q 1690 2906 1965 2906 
Q 2227 2906 2422 2803 
Q 2618 2701 2742 2528 
Q 2867 2355 2928 2134 
Q 2989 1914 2989 1683 
z
" transform="scale(0.015625)"/>
      <path id="HelveticaNeue-66" d="M 634 2829 
L 634 0 
L 1178 0 
L 1178 2829 
L 1818 2829 
L 1818 3309 
L 1178 3309 
L 1178 3770 
Q 1178 3987 1286 4064 
Q 1395 4141 1594 4141 
Q 1664 4141 1747 4131 
Q 1830 4122 1901 4096 
L 1901 4570 
Q 1824 4595 1725 4608 
Q 1626 4621 1549 4621 
Q 1101 4621 867 4413 
Q 634 4205 634 3802 
L 634 3309 
L 77 3309 
L 77 2829 
L 634 2829 
z
" transform="scale(0.015625)"/>
      <path id="HelveticaNeue-6c" d="M 442 4570 
L 442 0 
L 986 0 
L 986 4570 
L 442 4570 
z
" transform="scale(0.015625)"/>
     </defs>
     <use xlink:href="#HelveticaNeue-43"/>
     <use xlink:href="#HelveticaNeue-6f" x="72.199982"/>
     <use xlink:href="#HelveticaNeue-6e" x="129.599976"/>
     <use xlink:href="#HelveticaNeue-73" x="185.199966"/>
     <use xlink:href="#HelveticaNeue-65" x="235.199951"/>
     <use xlink:href="#HelveticaNeue-72" x="288.899948"/>
     <use xlink:href="#HelveticaNeue-76" x="322.199936"/>
     <use xlink:href="#HelveticaNeue-65" x="372.199921"/>
     <use xlink:href="#HelveticaNeue-64" x="425.899918"/>
     <use xlink:href="#HelveticaNeue-20" x="485.199905"/>
     <use xlink:href="#HelveticaNeue-55" x="512.999893"/>
     <use xlink:href="#HelveticaNeue-2d" x="585.199875"/>
     <use xlink:href="#HelveticaNeue-62" x="624.099869"/>
     <use xlink:href="#HelveticaNeue-65" x="683.399857"/>
     <use xlink:href="#HelveticaNeue-6e" x="737.099854"/>
     <use xlink:href="#HelveticaNeue-64" x="792.699844"/>
     <use xlink:href="#HelveticaNeue-20" x="851.999832"/>
     <use xlink:href="#HelveticaNeue-66" x="879.79982"/>
     <use xlink:href="#HelveticaNeue-6f" x="909.399811"/>
     <use xlink:href="#HelveticaNeue-6c" x="966.799805"/>
     <use xlink:href="#HelveticaNeue-64" x="988.999802"/>
    </g>
   </g>
  </g>
  <g id="axes_2">
   <g id="patch_4">
    <path d="M 261.431571 180.597447 
L 596.985625 180.597447 
L 596.985625 15.457021 
L 261.431571 15.457021 
z
" style="fill: #ffffff"/>
   </g>
   <g id="patch_5">
    <path d="M 276.684028 180.597447 
L 288.885994 180.597447 
L 288.885994 174.306383 
L 276.684028 174.306383 
z
" clip-path="url(#pe24af7ab4e)" style="fill: #048a81; opacity: 0.85; stroke: #ffffff; stroke-width: 0.5; stroke-linejoin: miter"/>
   </g>
   <g id="patch_6">
    <path d="M 288.885994 180.597447 
L 301.087959 180.597447 
L 301.087959 154.384681 
L 288.885994 154.384681 
z
" clip-path="url(#pe24af7ab4e)" style="fill: #048a81; opacity: 0.85; stroke: #ffffff; stroke-width: 0.5; stroke-linejoin: miter"/>
   </g>
   <g id="patch_7">
    <path d="M 301.087959 180.597447 
L 313.289925 180.597447 
L 313.289925 151.239149 
L 301.087959 151.239149 
z
" clip-path="url(#pe24af7ab4e)" style="fill: #048a81; opacity: 0.85; stroke: #ffffff; stroke-width: 0.5; stroke-linejoin: miter"/>
   </g>
   <g id="patch_8">
    <path d="M 313.289925 180.597447 
L 325.49189 180.597447 
L 325.49189 140.754043 
L 313.289925 140.754043 
z
" clip-path="url(#pe24af7ab4e)" style="fill: #048a81; opacity: 0.85; stroke: #ffffff; stroke-width: 0.5; stroke-linejoin: miter"/>
   </g>
   <g id="patch_9">
    <path d="M 325.49189 180.597447 
L 337.693856 180.597447 
L 337.693856 112.444255 
L 325.49189 112.444255 
z
" clip-path="url(#pe24af7ab4e)" style="fill: #048a81; opacity: 0.85; stroke: #ffffff; stroke-width: 0.5; stroke-linejoin: miter"/>
   </g>
   <g id="patch_10">
    <path d="M 337.693856 180.597447 
L 349.895822 180.597447 
L 349.895822 107.201702 
L 337.693856 107.201702 
z
" clip-path="url(#pe24af7ab4e)" style="fill: #048a81; opacity: 0.85; stroke: #ffffff; stroke-width: 0.5; stroke-linejoin: miter"/>
   </g>
   <g id="patch_11">
    <path d="M 349.895822 180.597447 
L 362.097787 180.597447 
L 362.097787 77.843404 
L 349.895822 77.843404 
z
" clip-path="url(#pe24af7ab4e)" style="fill: #048a81; opacity: 0.85; stroke: #ffffff; stroke-width: 0.5; stroke-linejoin: miter"/>
   </g>
   <g id="patch_12">
    <path d="M 362.097787 180.597447 
L 374.299753 180.597447 
L 374.299753 39.048511 
L 362.097787 39.048511 
z
" clip-path="url(#pe24af7ab4e)" style="fill: #048a81; opacity: 0.85; stroke: #ffffff; stroke-width: 0.5; stroke-linejoin: miter"/>
   </g>
   <g id="patch_13">
    <path d="M 374.299753 180.597447 
L 386.501718 180.597447 
L 386.501718 23.320851 
L 374.299753 23.320851 
z
" clip-path="url(#pe24af7ab4e)" style="fill: #048a81; opacity: 0.85; stroke: #ffffff; stroke-width: 0.5; stroke-linejoin: miter"/>
   </g>
   <g id="patch_14">
    <path d="M 386.501718 180.597447 
L 398.703684 180.597447 
L 398.703684 26.466383 
L 386.501718 26.466383 
z
" clip-path="url(#pe24af7ab4e)" style="fill: #048a81; opacity: 0.85; stroke: #ffffff; stroke-width: 0.5; stroke-linejoin: miter"/>
   </g>
   <g id="patch_15">
    <path d="M 398.703684 180.597447 
L 410.90565 180.597447 
L 410.90565 69.455319 
L 398.703684 69.455319 
z
" clip-path="url(#pe24af7ab4e)" style="fill: #048a81; opacity: 0.85; stroke: #ffffff; stroke-width: 0.5; stroke-linejoin: miter"/>
   </g>
   <g id="patch_16">
    <path d="M 410.90565 180.597447 
L 423.107615 180.597447 
L 423.107615 84.134468 
L 410.90565 84.134468 
z
" clip-path="url(#pe24af7ab4e)" style="fill: #048a81; opacity: 0.85; stroke: #ffffff; stroke-width: 0.5; stroke-linejoin: miter"/>
   </g>
   <g id="patch_17">
    <path d="M 423.107615 180.597447 
L 435.309581 180.597447 
L 435.309581 127.123404 
L 423.107615 127.123404 
z
" clip-path="url(#pe24af7ab4e)" style="fill: #048a81; opacity: 0.85; stroke: #ffffff; stroke-width: 0.5; stroke-linejoin: miter"/>
   </g>
   <g id="patch_18">
    <path d="M 435.309581 180.597447 
L 447.511546 180.597447 
L 447.511546 141.802553 
L 435.309581 141.802553 
z
" clip-path="url(#pe24af7ab4e)" style="fill: #048a81; opacity: 0.85; stroke: #ffffff; stroke-width: 0.5; stroke-linejoin: miter"/>
   </g>
   <g id="patch_19">
    <path d="M 447.511546 180.597447 
L 459.713512 180.597447 
L 459.713512 161.724255 
L 447.511546 161.724255 
z
" clip-path="url(#pe24af7ab4e)" style="fill: #048a81; opacity: 0.85; stroke: #ffffff; stroke-width: 0.5; stroke-linejoin: miter"/>
   </g>
   <g id="patch_20">
    <path d="M 459.713512 180.597447 
L 471.915478 180.597447 
L 471.915478 171.160851 
L 459.713512 171.160851 
z
" clip-path="url(#pe24af7ab4e)" style="fill: #048a81; opacity: 0.85; stroke: #ffffff; stroke-width: 0.5; stroke-linejoin: miter"/>
   </g>
   <g id="patch_21">
    <path d="M 471.915478 180.597447 
L 484.117443 180.597447 
L 484.117443 178.500426 
L 471.915478 178.500426 
z
" clip-path="url(#pe24af7ab4e)" style="fill: #048a81; opacity: 0.85; stroke: #ffffff; stroke-width: 0.5; stroke-linejoin: miter"/>
   </g>
   <g id="patch_22">
    <path d="M 484.117443 180.597447 
L 496.319409 180.597447 
L 496.319409 178.500426 
L 484.117443 178.500426 
z
" clip-path="url(#pe24af7ab4e)" style="fill: #048a81; opacity: 0.85; stroke: #ffffff; stroke-width: 0.5; stroke-linejoin: miter"/>
   </g>
   <g id="patch_23">
    <path d="M 496.319409 180.597447 
L 508.521374 180.597447 
L 508.521374 180.597447 
L 496.319409 180.597447 
z
" clip-path="url(#pe24af7ab4e)" style="fill: #048a81; opacity: 0.85; stroke: #ffffff; stroke-width: 0.5; stroke-linejoin: miter"/>
   </g>
   <g id="patch_24">
    <path d="M 508.521374 180.597447 
L 520.72334 180.597447 
L 520.72334 180.597447 
L 508.521374 180.597447 
z
" clip-path="url(#pe24af7ab4e)" style="fill: #048a81; opacity: 0.85; stroke: #ffffff; stroke-width: 0.5; stroke-linejoin: miter"/>
   </g>
   <g id="patch_25">
    <path d="M 520.72334 180.597447 
L 532.925306 180.597447 
L 532.925306 180.597447 
L 520.72334 180.597447 
z
" clip-path="url(#pe24af7ab4e)" style="fill: #048a81; opacity: 0.85; stroke: #ffffff; stroke-width: 0.5; stroke-linejoin: miter"/>
   </g>
   <g id="patch_26">
    <path d="M 532.925306 180.597447 
L 545.127271 180.597447 
L 545.127271 179.548936 
L 532.925306 179.548936 
z
" clip-path="url(#pe24af7ab4e)" style="fill: #048a81; opacity: 0.85; stroke: #ffffff; stroke-width: 0.5; stroke-linejoin: miter"/>
   </g>
   <g id="patch_27">
    <path d="M 545.127271 180.597447 
L 557.329237 180.597447 
L 557.329237 180.597447 
L 545.127271 180.597447 
z
" clip-path="url(#pe24af7ab4e)" style="fill: #048a81; opacity: 0.85; stroke: #ffffff; stroke-width: 0.5; stroke-linejoin: miter"/>
   </g>
   <g id="patch_28">
    <path d="M 557.329237 180.597447 
L 569.531202 180.597447 
L 569.531202 180.597447 
L 557.329237 180.597447 
z
" clip-path="url(#pe24af7ab4e)" style="fill: #048a81; opacity: 0.85; stroke: #ffffff; stroke-width: 0.5; stroke-linejoin: miter"/>
   </g>
   <g id="patch_29">
    <path d="M 569.531202 180.597447 
L 581.733168 180.597447 
L 581.733168 179.548936 
L 569.531202 179.548936 
z
" clip-path="url(#pe24af7ab4e)" style="fill: #048a81; opacity: 0.85; stroke: #ffffff; stroke-width: 0.5; stroke-linejoin: miter"/>
   </g>
   <g id="patch_30">
    <path d="M 340.636205 180.597447 
L 417.446393 180.597447 
L 417.446393 15.457021 
L 340.636205 15.457021 
z
" clip-path="url(#pe24af7ab4e)" style="fill: #e85d04; opacity: 0.15; stroke: #e85d04; stroke-linejoin: miter"/>
   </g>
   <g id="matplotlib.axis_1">
    <g id="xtick_1">
     <g id="line2d_4">
      <defs>
       <path id="md6bd22ce94" d="M 0 0 
L 0 4 
" style="stroke: #000000"/>
      </defs>
      <g>
       <use xlink:href="#md6bd22ce94" x="270.872845" y="180.597447" style="stroke: #000000"/>
      </g>
     </g>
     <g id="text_8">
      <!-- 5 -->
      <g transform="translate(268.649095 193.809947) scale(0.08 -0.08)">
       <defs>
        <path id="HelveticaNeue-35" d="M 3008 3981 
L 3008 4461 
L 768 4461 
L 346 2106 
L 813 2080 
Q 973 2272 1181 2390 
Q 1389 2509 1658 2509 
Q 1888 2509 2077 2432 
Q 2266 2355 2400 2217 
Q 2534 2080 2608 1891 
Q 2682 1702 2682 1478 
Q 2682 1210 2605 1008 
Q 2528 806 2397 672 
Q 2266 538 2090 470 
Q 1914 403 1722 403 
Q 1517 403 1347 464 
Q 1178 525 1053 637 
Q 928 749 854 899 
Q 781 1050 768 1222 
L 224 1222 
Q 230 915 345 672 
Q 461 429 659 265 
Q 858 102 1117 16 
Q 1376 -70 1670 -70 
Q 2067 -70 2364 54 
Q 2662 179 2860 390 
Q 3059 602 3158 874 
Q 3258 1146 3258 1434 
Q 3258 1824 3142 2115 
Q 3027 2406 2828 2601 
Q 2630 2797 2361 2893 
Q 2093 2989 1792 2989 
Q 1562 2989 1328 2909 
Q 1094 2829 947 2662 
L 934 2675 
L 1178 3981 
L 3008 3981 
z
" transform="scale(0.015625)"/>
       </defs>
       <use xlink:href="#HelveticaNeue-35"/>
      </g>
     </g>
    </g>
    <g id="xtick_2">
     <g id="line2d_5">
      <g>
       <use xlink:href="#md6bd22ce94" x="308.712181" y="180.597447" style="stroke: #000000"/>
      </g>
     </g>
     <g id="text_9">
      <!-- 10 -->
      <g transform="translate(304.264681 193.809947) scale(0.08 -0.08)">
       <defs>
        <path id="HelveticaNeue-30" d="M 845 2234 
Q 845 2400 848 2601 
Q 851 2803 880 3004 
Q 909 3206 963 3398 
Q 1018 3590 1123 3734 
Q 1229 3878 1389 3968 
Q 1549 4058 1779 4058 
Q 2010 4058 2170 3968 
Q 2330 3878 2435 3734 
Q 2541 3590 2595 3398 
Q 2650 3206 2678 3004 
Q 2707 2803 2710 2601 
Q 2714 2400 2714 2234 
Q 2714 1978 2698 1661 
Q 2682 1344 2595 1065 
Q 2509 787 2317 595 
Q 2125 403 1779 403 
Q 1434 403 1242 595 
Q 1050 787 963 1065 
Q 877 1344 861 1661 
Q 845 1978 845 2234 
z
M 269 2227 
Q 269 1978 281 1709 
Q 294 1440 345 1184 
Q 397 928 493 701 
Q 589 474 755 301 
Q 922 128 1174 29 
Q 1427 -70 1779 -70 
Q 2138 -70 2387 29 
Q 2637 128 2803 301 
Q 2970 474 3066 701 
Q 3162 928 3213 1184 
Q 3264 1440 3277 1709 
Q 3290 1978 3290 2227 
Q 3290 2477 3277 2745 
Q 3264 3014 3213 3270 
Q 3162 3526 3066 3756 
Q 2970 3987 2803 4160 
Q 2637 4333 2384 4435 
Q 2131 4538 1779 4538 
Q 1427 4538 1174 4435 
Q 922 4333 755 4160 
Q 589 3987 493 3756 
Q 397 3526 345 3270 
Q 294 3014 281 2745 
Q 269 2477 269 2227 
z
" transform="scale(0.015625)"/>
       </defs>
       <use xlink:href="#HelveticaNeue-31"/>
       <use xlink:href="#HelveticaNeue-30" x="55.599991"/>
      </g>
     </g>
    </g>
    <g id="xtick_3">
     <g id="line2d_6">
      <g>
       <use xlink:href="#md6bd22ce94" x="346.551516" y="180.597447" style="stroke: #000000"/>
      </g>
     </g>
     <g id="text_10">
      <!-- 15 -->
      <g transform="translate(342.104016 193.809947) scale(0.08 -0.08)">
       <use xlink:href="#HelveticaNeue-31"/>
       <use xlink:href="#HelveticaNeue-35" x="55.599991"/>
      </g>
     </g>
    </g>
    <g id="xtick_4">
     <g id="line2d_7">
      <g>
       <use xlink:href="#md6bd22ce94" x="384.390851" y="180.597447" style="stroke: #000000"/>
      </g>
     </g>
     <g id="text_11">
      <!-- 20 -->
      <g transform="translate(379.943351 193.809947) scale(0.08 -0.08)">
       <use xlink:href="#HelveticaNeue-32"/>
       <use xlink:href="#HelveticaNeue-30" x="55.599991"/>
      </g>
     </g>
    </g>
    <g id="xtick_5">
     <g id="line2d_8">
      <g>
       <use xlink:href="#md6bd22ce94" x="422.230187" y="180.597447" style="stroke: #000000"/>
      </g>
     </g>
     <g id="text_12">
      <!-- 25 -->
      <g transform="translate(417.782687 193.809947) scale(0.08 -0.08)">
       <use xlink:href="#HelveticaNeue-32"/>
       <use xlink:href="#HelveticaNeue-35" x="55.599991"/>
      </g>
     </g>
    </g>
    <g id="xtick_6">
     <g id="line2d_9">
      <g>
       <use xlink:href="#md6bd22ce94" x="460.069522" y="180.597447" style="stroke: #000000"/>
      </g>
     </g>
     <g id="text_13">
      <!-- 30 -->
      <g transform="translate(455.622022 193.809947) scale(0.08 -0.08)">
       <defs>
        <path id="HelveticaNeue-33" d="M 1395 2592 
L 1395 2131 
Q 1549 2150 1722 2150 
Q 1926 2150 2102 2096 
Q 2278 2042 2406 1930 
Q 2534 1818 2611 1654 
Q 2688 1491 2688 1280 
Q 2688 1075 2608 912 
Q 2528 749 2393 637 
Q 2259 525 2080 464 
Q 1901 403 1702 403 
Q 1235 403 992 681 
Q 749 960 736 1402 
L 192 1402 
Q 186 1050 291 774 
Q 397 499 595 310 
Q 794 122 1075 26 
Q 1357 -70 1702 -70 
Q 2022 -70 2307 16 
Q 2592 102 2803 275 
Q 3014 448 3139 707 
Q 3264 966 3264 1306 
Q 3264 1715 3062 2016 
Q 2861 2317 2445 2406 
L 2445 2419 
Q 2714 2541 2893 2777 
Q 3072 3014 3072 3322 
Q 3072 3635 2966 3865 
Q 2861 4096 2675 4243 
Q 2490 4390 2237 4464 
Q 1984 4538 1690 4538 
Q 1350 4538 1091 4429 
Q 832 4320 659 4128 
Q 486 3936 393 3667 
Q 301 3398 288 3072 
L 832 3072 
Q 832 3270 883 3449 
Q 934 3629 1040 3763 
Q 1146 3898 1309 3978 
Q 1472 4058 1690 4058 
Q 2035 4058 2265 3875 
Q 2496 3693 2496 3328 
Q 2496 3149 2425 3008 
Q 2355 2867 2236 2774 
Q 2118 2682 1961 2634 
Q 1805 2586 1632 2586 
L 1517 2586 
Q 1485 2586 1453 2586 
Q 1427 2586 1395 2592 
z
" transform="scale(0.015625)"/>
       </defs>
       <use xlink:href="#HelveticaNeue-33"/>
       <use xlink:href="#HelveticaNeue-30" x="55.599991"/>
      </g>
     </g>
    </g>
    <g id="xtick_7">
     <g id="line2d_10">
      <g>
       <use xlink:href="#md6bd22ce94" x="497.908857" y="180.597447" style="stroke: #000000"/>
      </g>
     </g>
     <g id="text_14">
      <!-- 35 -->
      <g transform="translate(493.461357 193.809947) scale(0.08 -0.08)">
       <use xlink:href="#HelveticaNeue-33"/>
       <use xlink:href="#HelveticaNeue-35" x="55.599991"/>
      </g>
     </g>
    </g>
    <g id="xtick_8">
     <g id="line2d_11">
      <g>
       <use xlink:href="#md6bd22ce94" x="535.748192" y="180.597447" style="stroke: #000000"/>
      </g>
     </g>
     <g id="text_15">
      <!-- 40 -->
      <g transform="translate(531.300692 193.809947) scale(0.08 -0.08)">
       <defs>
        <path id="HelveticaNeue-34" d="M 2170 1542 
L 646 1542 
L 2157 3763 
L 2170 3763 
L 2170 1542 
z
M 2682 1542 
L 2682 4538 
L 2246 4538 
L 179 1587 
L 179 1062 
L 2170 1062 
L 2170 0 
L 2682 0 
L 2682 1062 
L 3296 1062 
L 3296 1542 
L 2682 1542 
z
" transform="scale(0.015625)"/>
       </defs>
       <use xlink:href="#HelveticaNeue-34"/>
       <use xlink:href="#HelveticaNeue-30" x="55.599991"/>
      </g>
     </g>
    </g>
    <g id="xtick_9">
     <g id="line2d_12">
      <g>
       <use xlink:href="#md6bd22ce94" x="573.587528" y="180.597447" style="stroke: #000000"/>
      </g>
     </g>
     <g id="text_16">
      <!-- 45 -->
      <g transform="translate(569.140028 193.809947) scale(0.08 -0.08)">
       <use xlink:href="#HelveticaNeue-34"/>
       <use xlink:href="#HelveticaNeue-35" x="55.599991"/>
      </g>
     </g>
    </g>
    <g id="text_17">
     <!-- RMSD (Å) -->
     <g transform="translate(407.448442 208.806509) scale(0.1 -0.1)">
      <defs>
       <path id="HelveticaNeue-52" d="M 499 4570 
L 499 0 
L 1107 0 
L 1107 1952 
L 2592 1952 
Q 2816 1952 2950 1885 
Q 3085 1818 3168 1706 
Q 3251 1594 3289 1443 
Q 3328 1293 3354 1126 
Q 3386 960 3392 787 
Q 3398 614 3404 464 
Q 3411 314 3433 192 
Q 3456 70 3520 0 
L 4198 0 
Q 4102 115 4054 265 
Q 4006 416 3980 582 
Q 3955 749 3948 921 
Q 3942 1094 3930 1261 
Q 3910 1427 3875 1580 
Q 3840 1734 3766 1859 
Q 3693 1984 3568 2073 
Q 3443 2163 3245 2202 
L 3245 2214 
Q 3661 2330 3849 2643 
Q 4038 2957 4038 3373 
Q 4038 3930 3670 4250 
Q 3302 4570 2650 4570 
L 499 4570 
z
M 2374 2464 
L 1107 2464 
L 1107 4058 
L 2618 4058 
Q 3046 4058 3238 3840 
Q 3430 3622 3430 3277 
Q 3430 3027 3344 2870 
Q 3258 2714 3114 2621 
Q 2970 2528 2778 2496 
Q 2586 2464 2374 2464 
z
" transform="scale(0.015625)"/>
       <path id="HelveticaNeue-4d" d="M 512 4570 
L 512 0 
L 1088 0 
L 1088 3802 
L 1101 3802 
L 2528 0 
L 3046 0 
L 4474 3802 
L 4486 3802 
L 4486 0 
L 5062 0 
L 5062 4570 
L 4230 4570 
L 2784 730 
L 1344 4570 
L 512 4570 
z
" transform="scale(0.015625)"/>
       <path id="HelveticaNeue-53" d="M 3142 3232 
L 3718 3232 
Q 3706 3610 3574 3882 
Q 3443 4154 3216 4333 
Q 2989 4512 2688 4595 
Q 2387 4678 2035 4678 
Q 1722 4678 1424 4598 
Q 1126 4518 892 4355 
Q 659 4192 518 3939 
Q 378 3686 378 3341 
Q 378 3027 502 2819 
Q 627 2611 835 2480 
Q 1043 2349 1305 2269 
Q 1568 2189 1840 2128 
Q 2112 2067 2374 2009 
Q 2637 1952 2845 1859 
Q 3053 1766 3177 1619 
Q 3302 1472 3302 1235 
Q 3302 986 3200 826 
Q 3098 666 2931 573 
Q 2765 480 2557 441 
Q 2349 403 2144 403 
Q 1888 403 1645 467 
Q 1402 531 1219 665 
Q 1037 800 925 1008 
Q 813 1216 813 1504 
L 237 1504 
Q 237 1088 387 784 
Q 538 480 797 285 
Q 1056 90 1398 -6 
Q 1741 -102 2125 -102 
Q 2438 -102 2755 -28 
Q 3072 45 3328 208 
Q 3584 371 3747 630 
Q 3910 890 3910 1254 
Q 3910 1594 3785 1818 
Q 3661 2042 3453 2189 
Q 3245 2336 2982 2422 
Q 2720 2509 2448 2573 
Q 2176 2637 1913 2691 
Q 1651 2746 1443 2829 
Q 1235 2912 1110 3043 
Q 986 3174 986 3386 
Q 986 3610 1072 3760 
Q 1158 3910 1302 4000 
Q 1446 4090 1632 4128 
Q 1818 4166 2010 4166 
Q 2483 4166 2787 3945 
Q 3091 3725 3142 3232 
z
" transform="scale(0.015625)"/>
       <path id="HelveticaNeue-44" d="M 1107 512 
L 1107 4058 
L 2131 4058 
Q 2554 4058 2842 3939 
Q 3130 3821 3312 3593 
Q 3494 3366 3574 3043 
Q 3654 2720 3654 2310 
Q 3654 1888 3568 1590 
Q 3482 1293 3347 1094 
Q 3213 896 3043 781 
Q 2874 666 2701 605 
Q 2528 544 2374 528 
Q 2221 512 2118 512 
L 1107 512 
z
M 499 4570 
L 499 0 
L 2067 0 
Q 2637 0 3053 160 
Q 3469 320 3737 624 
Q 4006 928 4134 1373 
Q 4262 1818 4262 2394 
Q 4262 3494 3692 4032 
Q 3123 4570 2067 4570 
L 499 4570 
z
" transform="scale(0.015625)"/>
       <path id="HelveticaNeue-28" d="M 1306 -1261 
L 1722 -1261 
Q 1267 -525 1072 198 
Q 877 922 877 1728 
Q 877 2515 1069 3232 
Q 1261 3949 1722 4678 
L 1306 4678 
Q 806 4019 553 3251 
Q 301 2483 301 1728 
Q 301 1306 371 922 
Q 442 538 573 173 
Q 704 -192 889 -547 
Q 1075 -902 1306 -1261 
z
" transform="scale(0.015625)"/>
       <path id="HelveticaNeue-c5" d="M 1350 5306 
Q 1350 5453 1408 5584 
Q 1466 5715 1565 5814 
Q 1664 5914 1795 5971 
Q 1926 6029 2074 6029 
Q 2221 6029 2352 5971 
Q 2483 5914 2582 5814 
Q 2682 5715 2739 5584 
Q 2797 5453 2797 5306 
Q 2797 5158 2739 5027 
Q 2682 4896 2582 4797 
Q 2483 4698 2352 4640 
Q 2221 4582 2074 4582 
Q 1926 4582 1795 4640 
Q 1664 4698 1565 4797 
Q 1466 4896 1408 5027 
Q 1350 5158 1350 5306 
z
M 1638 5306 
Q 1638 5120 1763 4995 
Q 1888 4870 2074 4870 
Q 2259 4870 2384 4995 
Q 2509 5120 2509 5306 
Q 2509 5491 2384 5616 
Q 2259 5741 2074 5741 
Q 1888 5741 1763 5616 
Q 1638 5491 1638 5306 
z
M 2835 1888 
L 2074 4019 
L 2061 4019 
L 1286 1888 
L 2835 1888 
z
M 2413 4570 
L 4198 0 
L 3526 0 
L 3027 1376 
L 1094 1376 
L 582 0 
L -38 0 
L 1741 4570 
L 2413 4570 
z
" transform="scale(0.015625)"/>
       <path id="HelveticaNeue-29" d="M -58 -1261 
L 352 -1261 
Q 851 -602 1104 163 
Q 1357 928 1357 1683 
Q 1357 2106 1286 2490 
Q 1216 2874 1085 3242 
Q 954 3610 768 3965 
Q 582 4320 352 4678 
L -58 4678 
Q 390 3942 585 3216 
Q 781 2490 781 1683 
Q 781 902 589 182 
Q 397 -538 -58 -1261 
z
" transform="scale(0.015625)"/>
      </defs>
      <use xlink:href="#HelveticaNeue-52"/>
      <use xlink:href="#HelveticaNeue-4d" x="68.499985"/>
      <use xlink:href="#HelveticaNeue-53" x="155.599976"/>
      <use xlink:href="#HelveticaNeue-44" x="220.399963"/>
      <use xlink:href="#HelveticaNeue-20" x="290.799957"/>
      <use xlink:href="#HelveticaNeue-28" x="318.599945"/>
      <use xlink:href="#HelveticaNeue-c5" x="344.499939"/>
      <use xlink:href="#HelveticaNeue-29" x="409.299927"/>
     </g>
    </g>
   </g>
   <g id="matplotlib.axis_2">
    <g id="ytick_1">
     <g id="line2d_13">
      <defs>
       <path id="mfcea77be06" d="M 0 0 
L -4 0 
" style="stroke: #000000"/>
      </defs>
      <g>
       <use xlink:href="#mfcea77be06" x="261.431571" y="180.597447" style="stroke: #000000"/>
      </g>
     </g>
     <g id="text_18">
      <!-- 0 -->
      <g transform="translate(249.484071 183.453697) scale(0.08 -0.08)">
       <use xlink:href="#HelveticaNeue-30"/>
      </g>
     </g>
    </g>
    <g id="ytick_2">
     <g id="line2d_14">
      <g>
       <use xlink:href="#mfcea77be06" x="261.431571" y="159.627234" style="stroke: #000000"/>
      </g>
     </g>
     <g id="text_19">
      <!-- 20 -->
      <g transform="translate(245.036571 162.483484) scale(0.08 -0.08)">
       <use xlink:href="#HelveticaNeue-32"/>
       <use xlink:href="#HelveticaNeue-30" x="55.599991"/>
      </g>
     </g>
    </g>
    <g id="ytick_3">
     <g id="line2d_15">
      <g>
       <use xlink:href="#mfcea77be06" x="261.431571" y="138.657021" style="stroke: #000000"/>
      </g>
     </g>
     <g id="text_20">
      <!-- 40 -->
      <g transform="translate(245.036571 141.513271) scale(0.08 -0.08)">
       <use xlink:href="#HelveticaNeue-34"/>
       <use xlink:href="#HelveticaNeue-30" x="55.599991"/>
      </g>
     </g>
    </g>
    <g id="ytick_4">
     <g id="line2d_16">
      <g>
       <use xlink:href="#mfcea77be06" x="261.431571" y="117.686809" style="stroke: #000000"/>
      </g>
     </g>
     <g id="text_21">
      <!-- 60 -->
      <g transform="translate(245.036571 120.543059) scale(0.08 -0.08)">
       <defs>
        <path id="HelveticaNeue-36" d="M 2650 3379 
L 3194 3379 
Q 3142 3942 2809 4240 
Q 2477 4538 1914 4538 
Q 1427 4538 1107 4333 
Q 787 4128 595 3789 
Q 403 3450 323 3011 
Q 243 2573 243 2106 
Q 243 1747 297 1363 
Q 352 979 518 659 
Q 685 339 992 134 
Q 1299 -70 1805 -70 
Q 2234 -70 2525 74 
Q 2816 218 2992 438 
Q 3168 659 3245 928 
Q 3322 1197 3322 1446 
Q 3322 1760 3226 2029 
Q 3130 2298 2954 2496 
Q 2778 2694 2518 2806 
Q 2259 2918 1933 2918 
Q 1562 2918 1277 2777 
Q 992 2637 800 2323 
L 787 2336 
Q 794 2598 838 2899 
Q 883 3200 1001 3459 
Q 1120 3718 1331 3888 
Q 1542 4058 1888 4058 
Q 2214 4058 2412 3872 
Q 2611 3686 2650 3379 
z
M 1830 2438 
Q 2061 2438 2233 2355 
Q 2406 2272 2521 2134 
Q 2637 1997 2691 1808 
Q 2746 1619 2746 1408 
Q 2746 1210 2685 1027 
Q 2624 845 2509 704 
Q 2394 563 2224 483 
Q 2054 403 1830 403 
Q 1606 403 1430 483 
Q 1254 563 1136 697 
Q 1018 832 954 1017 
Q 890 1203 890 1414 
Q 890 1626 950 1814 
Q 1011 2003 1132 2140 
Q 1254 2278 1427 2358 
Q 1600 2438 1830 2438 
z
" transform="scale(0.015625)"/>
       </defs>
       <use xlink:href="#HelveticaNeue-36"/>
       <use xlink:href="#HelveticaNeue-30" x="55.599991"/>
      </g>
     </g>
    </g>
    <g id="ytick_5">
     <g id="line2d_17">
      <g>
       <use xlink:href="#mfcea77be06" x="261.431571" y="96.716596" style="stroke: #000000"/>
      </g>
     </g>
     <g id="text_22">
      <!-- 80 -->
      <g transform="translate(245.036571 99.572846) scale(0.08 -0.08)">
       <defs>
        <path id="HelveticaNeue-38" d="M 992 3360 
Q 992 3533 1056 3661 
Q 1120 3789 1225 3878 
Q 1331 3968 1478 4013 
Q 1626 4058 1786 4058 
Q 2118 4058 2332 3882 
Q 2547 3706 2547 3360 
Q 2547 3014 2336 2822 
Q 2125 2630 1798 2630 
Q 1632 2630 1485 2675 
Q 1338 2720 1229 2809 
Q 1120 2899 1056 3036 
Q 992 3174 992 3360 
z
M 416 3379 
Q 416 3072 589 2813 
Q 762 2554 1050 2438 
Q 666 2304 461 2006 
Q 256 1709 256 1306 
Q 256 960 374 701 
Q 493 442 701 269 
Q 909 96 1190 13 
Q 1472 -70 1798 -70 
Q 2112 -70 2387 19 
Q 2662 109 2864 285 
Q 3066 461 3184 717 
Q 3302 973 3302 1306 
Q 3302 1728 3104 2019 
Q 2906 2310 2496 2438 
Q 2784 2566 2953 2819 
Q 3123 3072 3123 3379 
Q 3123 3597 3046 3805 
Q 2970 4013 2806 4176 
Q 2643 4339 2380 4438 
Q 2118 4538 1747 4538 
Q 1485 4538 1245 4461 
Q 1005 4384 819 4237 
Q 634 4090 525 3875 
Q 416 3661 416 3379 
z
M 832 1280 
Q 832 1478 905 1638 
Q 979 1798 1110 1913 
Q 1242 2029 1418 2089 
Q 1594 2150 1792 2150 
Q 1984 2150 2153 2083 
Q 2323 2016 2451 1901 
Q 2579 1786 2652 1629 
Q 2726 1472 2726 1286 
Q 2726 1094 2659 934 
Q 2592 774 2467 656 
Q 2342 538 2172 470 
Q 2003 403 1798 403 
Q 1376 403 1104 636 
Q 832 870 832 1280 
z
" transform="scale(0.015625)"/>
       </defs>
       <use xlink:href="#HelveticaNeue-38"/>
       <use xlink:href="#HelveticaNeue-30" x="55.599991"/>
      </g>
     </g>
    </g>
    <g id="ytick_6">
     <g id="line2d_18">
      <g>
       <use xlink:href="#mfcea77be06" x="261.431571" y="75.746383" style="stroke: #000000"/>
      </g>
     </g>
     <g id="text_23">
      <!-- 100 -->
      <g transform="translate(240.589071 78.602633) scale(0.08 -0.08)">
       <use xlink:href="#HelveticaNeue-31"/>
       <use xlink:href="#HelveticaNeue-30" x="55.599991"/>
       <use xlink:href="#HelveticaNeue-30" x="111.199982"/>
      </g>
     </g>
    </g>
    <g id="ytick_7">
     <g id="line2d_19">
      <g>
       <use xlink:href="#mfcea77be06" x="261.431571" y="54.77617" style="stroke: #000000"/>
      </g>
     </g>
     <g id="text_24">
      <!-- 120 -->
      <g transform="translate(240.589071 57.63242) scale(0.08 -0.08)">
       <use xlink:href="#HelveticaNeue-31"/>
       <use xlink:href="#HelveticaNeue-32" x="55.599991"/>
       <use xlink:href="#HelveticaNeue-30" x="111.199982"/>
      </g>
     </g>
    </g>
    <g id="ytick_8">
     <g id="line2d_20">
      <g>
       <use xlink:href="#mfcea77be06" x="261.431571" y="33.805957" style="stroke: #000000"/>
      </g>
     </g>
     <g id="text_25">
      <!-- 140 -->
      <g transform="translate(240.589071 36.662207) scale(0.08 -0.08)">
       <use xlink:href="#HelveticaNeue-31"/>
       <use xlink:href="#HelveticaNeue-34" x="55.599991"/>
       <use xlink:href="#HelveticaNeue-30" x="111.199982"/>
      </g>
     </g>
    </g>
    <g id="text_26">
     <!-- Structure pairs -->
     <g transform="translate(234.618758 130.903797) rotate(-90) scale(0.1 -0.1)">
      <defs>
       <path id="HelveticaNeue-74" d="M 1165 3309 
L 1165 4301 
L 621 4301 
L 621 3309 
L 58 3309 
L 58 2829 
L 621 2829 
L 621 723 
Q 621 493 665 352 
Q 710 211 803 134 
Q 896 58 1046 29 
Q 1197 0 1408 0 
L 1824 0 
L 1824 480 
L 1574 480 
Q 1446 480 1366 489 
Q 1286 499 1241 531 
Q 1197 563 1181 620 
Q 1165 678 1165 774 
L 1165 2829 
L 1824 2829 
L 1824 3309 
L 1165 3309 
z
" transform="scale(0.015625)"/>
       <path id="HelveticaNeue-63" d="M 2656 2246 
L 3219 2246 
Q 3187 2541 3065 2755 
Q 2944 2970 2755 3110 
Q 2566 3251 2320 3318 
Q 2074 3386 1792 3386 
Q 1402 3386 1107 3248 
Q 813 3110 617 2870 
Q 422 2630 326 2307 
Q 230 1984 230 1613 
Q 230 1242 329 931 
Q 429 621 624 397 
Q 819 173 1110 51 
Q 1402 -70 1779 -70 
Q 2413 -70 2781 262 
Q 3149 595 3238 1210 
L 2682 1210 
Q 2630 826 2403 614 
Q 2176 403 1773 403 
Q 1517 403 1331 505 
Q 1146 608 1030 777 
Q 915 947 860 1164 
Q 806 1382 806 1613 
Q 806 1862 857 2096 
Q 909 2330 1027 2509 
Q 1146 2688 1344 2797 
Q 1542 2906 1837 2906 
Q 2182 2906 2387 2733 
Q 2592 2560 2656 2246 
z
" transform="scale(0.015625)"/>
       <path id="HelveticaNeue-70" d="M 429 3309 
L 429 -1261 
L 973 -1261 
L 973 442 
L 986 442 
Q 1075 294 1206 195 
Q 1338 96 1485 38 
Q 1632 -19 1782 -44 
Q 1933 -70 2054 -70 
Q 2432 -70 2717 64 
Q 3002 198 3190 432 
Q 3379 666 3472 979 
Q 3565 1293 3565 1645 
Q 3565 1997 3469 2310 
Q 3373 2624 3184 2864 
Q 2995 3104 2710 3245 
Q 2426 3386 2042 3386 
Q 1696 3386 1408 3261 
Q 1120 3136 986 2861 
L 973 2861 
L 973 3309 
L 429 3309 
z
M 2989 1683 
Q 2989 1440 2937 1209 
Q 2886 979 2771 800 
Q 2656 621 2467 512 
Q 2278 403 1997 403 
Q 1715 403 1516 508 
Q 1318 614 1193 787 
Q 1069 960 1011 1187 
Q 954 1414 954 1658 
Q 954 1888 1008 2112 
Q 1062 2336 1184 2512 
Q 1306 2688 1498 2797 
Q 1690 2906 1965 2906 
Q 2227 2906 2422 2803 
Q 2618 2701 2742 2528 
Q 2867 2355 2928 2134 
Q 2989 1914 2989 1683 
z
" transform="scale(0.015625)"/>
       <path id="HelveticaNeue-61" d="M 3341 13 
Q 3200 -70 2950 -70 
Q 2739 -70 2614 48 
Q 2490 166 2490 435 
Q 2266 166 1968 48 
Q 1670 -70 1325 -70 
Q 1101 -70 899 -19 
Q 698 32 550 141 
Q 403 250 316 426 
Q 230 602 230 851 
Q 230 1133 326 1312 
Q 422 1491 579 1603 
Q 736 1715 937 1772 
Q 1139 1830 1350 1869 
Q 1574 1914 1776 1936 
Q 1978 1958 2131 2000 
Q 2285 2042 2374 2122 
Q 2464 2202 2464 2355 
Q 2464 2534 2397 2643 
Q 2330 2752 2224 2809 
Q 2118 2867 1987 2886 
Q 1856 2906 1728 2906 
Q 1382 2906 1152 2774 
Q 922 2643 902 2278 
L 358 2278 
Q 371 2586 486 2797 
Q 602 3008 794 3139 
Q 986 3270 1232 3328 
Q 1478 3386 1760 3386 
Q 1984 3386 2205 3354 
Q 2426 3322 2605 3222 
Q 2784 3123 2893 2944 
Q 3002 2765 3002 2477 
L 3002 774 
Q 3002 582 3024 492 
Q 3046 403 3174 403 
Q 3245 403 3341 435 
L 3341 13 
z
M 2458 1709 
Q 2355 1632 2188 1597 
Q 2022 1562 1840 1539 
Q 1658 1517 1472 1488 
Q 1286 1459 1139 1395 
Q 992 1331 899 1212 
Q 806 1094 806 890 
Q 806 755 860 662 
Q 915 570 1001 512 
Q 1088 454 1203 428 
Q 1318 403 1446 403 
Q 1715 403 1907 476 
Q 2099 550 2220 662 
Q 2342 774 2400 905 
Q 2458 1037 2458 1152 
L 2458 1709 
z
" transform="scale(0.015625)"/>
       <path id="HelveticaNeue-69" d="M 986 3904 
L 986 4570 
L 442 4570 
L 442 3904 
L 986 3904 
z
M 442 3309 
L 442 0 
L 986 0 
L 986 3309 
L 442 3309 
z
" transform="scale(0.015625)"/>
      </defs>
      <use xlink:href="#HelveticaNeue-53"/>
      <use xlink:href="#HelveticaNeue-74" x="64.799988"/>
      <use xlink:href="#HelveticaNeue-72" x="96.299973"/>
      <use xlink:href="#HelveticaNeue-75" x="129.59996"/>
      <use xlink:href="#HelveticaNeue-63" x="185.199951"/>
      <use xlink:href="#HelveticaNeue-74" x="238.899948"/>
      <use xlink:href="#HelveticaNeue-75" x="270.399933"/>
      <use xlink:href="#HelveticaNeue-72" x="325.999924"/>
      <use xlink:href="#HelveticaNeue-65" x="357.549911"/>
      <use xlink:href="#HelveticaNeue-20" x="411.249908"/>
      <use xlink:href="#HelveticaNeue-70" x="439.049896"/>
      <use xlink:href="#HelveticaNeue-61" x="498.349884"/>
      <use xlink:href="#HelveticaNeue-69" x="552.049881"/>
      <use xlink:href="#HelveticaNeue-72" x="574.249878"/>
      <use xlink:href="#HelveticaNeue-73" x="607.549866"/>
     </g>
    </g>
   </g>
   <g id="line2d_21">
    <path d="M 379.041299 180.597447 
L 379.041299 15.457021 
" clip-path="url(#pe24af7ab4e)" style="fill: none; stroke: #e85d04; stroke-width: 2; stroke-linecap: square"/>
   </g>
   <g id="patch_31">
    <path d="M 261.431571 180.597447 
L 261.431571 15.457021 
" style="fill: none; stroke: #212529; stroke-linejoin: miter; stroke-linecap: square"/>
   </g>
   <g id="patch_32">
    <path d="M 261.431571 180.597447 
L 596.985625 180.597447 
" style="fill: none; stroke: #212529; stroke-linejoin: miter; stroke-linecap: square"/>
   </g>
   <g id="text_27">
    <g id="patch_33">
     <path d="M 523.172922 43.665293 
L 580.207922 43.665293 
Q 582.607922 43.665293 582.607922 41.265293 
L 582.607922 23.706543 
Q 582.607922 21.306543 580.207922 21.306543 
L 523.172922 21.306543 
Q 520.772922 21.306543 520.772922 23.706543 
L 520.772922 41.265293 
Q 520.772922 43.665293 523.172922 43.665293 
z
" style="fill: #ffffff; opacity: 0.8"/>
    </g>
    <!-- μ = 19.3 ± 5.1 Å -->
    <g transform="translate(523.172922 31.250293) scale(0.08 -0.08)">
     <defs>
      <path id="HelveticaNeue-3bc" d="M 3149 0 
L 2637 0 
L 2637 525 
L 2624 525 
Q 2438 218 2179 70 
Q 1920 -77 1619 -77 
Q 1421 -77 1257 -19 
Q 1094 38 986 147 
L 973 147 
L 973 -1267 
L 429 -1267 
L 429 3309 
L 973 3309 
L 973 1069 
Q 973 762 1149 582 
Q 1325 403 1632 403 
Q 1875 403 2057 480 
Q 2240 557 2361 697 
Q 2483 838 2544 1027 
Q 2605 1216 2605 1440 
L 2605 3309 
L 3149 3309 
L 3149 0 
z
" transform="scale(0.015625)"/>
      <path id="HelveticaNeue-3d" d="M 307 1190 
L 307 755 
L 3533 755 
L 3533 1190 
L 307 1190 
z
M 3533 2048 
L 3533 2483 
L 307 2483 
L 307 2048 
L 3533 2048 
z
" transform="scale(0.015625)"/>
      <path id="HelveticaNeue-39" d="M 858 1094 
L 314 1094 
Q 365 506 742 218 
Q 1120 -70 1690 -70 
Q 2515 -70 2889 560 
Q 3264 1190 3264 2368 
Q 3264 3014 3139 3433 
Q 3014 3853 2803 4096 
Q 2592 4339 2310 4438 
Q 2029 4538 1709 4538 
Q 1382 4538 1107 4429 
Q 832 4320 633 4125 
Q 435 3930 326 3658 
Q 218 3386 218 3059 
Q 218 2726 310 2444 
Q 403 2163 585 1964 
Q 768 1766 1037 1654 
Q 1306 1542 1651 1542 
Q 1984 1542 2265 1712 
Q 2547 1882 2701 2170 
L 2714 2157 
Q 2688 1267 2438 835 
Q 2189 403 1690 403 
Q 1363 403 1126 582 
Q 890 762 858 1094 
z
M 2618 3021 
Q 2618 2822 2554 2640 
Q 2490 2458 2368 2320 
Q 2246 2182 2073 2102 
Q 1901 2022 1690 2022 
Q 1491 2022 1328 2102 
Q 1165 2182 1046 2316 
Q 928 2451 861 2624 
Q 794 2797 794 2982 
Q 794 3194 842 3386 
Q 890 3578 995 3728 
Q 1101 3878 1270 3968 
Q 1440 4058 1683 4058 
Q 1914 4058 2086 3974 
Q 2259 3891 2377 3747 
Q 2496 3603 2557 3417 
Q 2618 3232 2618 3021 
z
" transform="scale(0.015625)"/>
      <path id="HelveticaNeue-2e" d="M 531 710 
L 531 0 
L 1242 0 
L 1242 710 
L 531 710 
z
" transform="scale(0.015625)"/>
      <path id="HelveticaNeue-b1" d="M 307 435 
L 307 0 
L 3533 0 
L 3533 435 
L 307 435 
z
M 307 2170 
L 307 1734 
L 1702 1734 
L 1702 666 
L 2138 666 
L 2138 1734 
L 3533 1734 
L 3533 2170 
L 2138 2170 
L 2138 3232 
L 1702 3232 
L 1702 2170 
L 307 2170 
z
" transform="scale(0.015625)"/>
     </defs>
     <use xlink:href="#HelveticaNeue-3bc"/>
     <use xlink:href="#HelveticaNeue-20" x="55.599991"/>
     <use xlink:href="#HelveticaNeue-3d" x="83.399979"/>
     <use xlink:href="#HelveticaNeue-20" x="143.399963"/>
     <use xlink:href="#HelveticaNeue-31" x="171.199951"/>
     <use xlink:href="#HelveticaNeue-39" x="226.799942"/>
     <use xlink:href="#HelveticaNeue-2e" x="282.399933"/>
     <use xlink:href="#HelveticaNeue-33" x="310.199921"/>
     <use xlink:href="#HelveticaNeue-20" x="365.799911"/>
     <use xlink:href="#HelveticaNeue-b1" x="393.599899"/>
     <use xlink:href="#HelveticaNeue-20" x="453.599884"/>
     <use xlink:href="#HelveticaNeue-35" x="481.399872"/>
     <use xlink:href="#HelveticaNeue-2e" x="536.999863"/>
     <use xlink:href="#HelveticaNeue-31" x="564.79985"/>
     <use xlink:href="#HelveticaNeue-20" x="620.399841"/>
     <use xlink:href="#HelveticaNeue-c5" x="648.199829"/>
    </g>
    <!-- n = 1081 -->
    <g transform="translate(548.722922 39.689043) scale(0.08 -0.08)">
     <use xlink:href="#HelveticaNeue-6e"/>
     <use xlink:href="#HelveticaNeue-20" x="55.599991"/>
     <use xlink:href="#HelveticaNeue-3d" x="83.399979"/>
     <use xlink:href="#HelveticaNeue-20" x="143.399963"/>
     <use xlink:href="#HelveticaNeue-31" x="171.199951"/>
     <use xlink:href="#HelveticaNeue-30" x="226.799942"/>
     <use xlink:href="#HelveticaNeue-38" x="282.399933"/>
     <use xlink:href="#HelveticaNeue-31" x="337.999924"/>
    </g>
   </g>
   <g id="text_28">
    <!-- B -->
    <g transform="translate(234.587247 17.196875) scale(0.14 -0.14)">
     <defs>
      <path id="HelveticaNeue-42" d="M 1107 2605 
L 1107 4058 
L 2323 4058 
Q 2522 4058 2698 4035 
Q 2874 4013 3008 3936 
Q 3142 3859 3219 3718 
Q 3296 3578 3296 3334 
Q 3296 2970 3069 2787 
Q 2842 2605 2323 2605 
L 1107 2605 
z
M 499 4570 
L 499 0 
L 2707 0 
Q 3046 0 3305 112 
Q 3565 224 3741 406 
Q 3917 589 4006 825 
Q 4096 1062 4096 1312 
Q 4096 1734 3872 2028 
Q 3648 2323 3226 2413 
L 3226 2426 
Q 3552 2554 3728 2819 
Q 3904 3085 3904 3450 
Q 3904 3795 3747 4032 
Q 3590 4269 3366 4403 
Q 3264 4467 3120 4499 
Q 2976 4531 2809 4547 
Q 2643 4563 2473 4566 
Q 2304 4570 2157 4570 
L 499 4570 
z
M 1107 512 
L 1107 2093 
L 2496 2093 
Q 2688 2093 2867 2057 
Q 3046 2022 3184 1936 
Q 3322 1850 3405 1702 
Q 3488 1555 3488 1331 
Q 3488 947 3261 729 
Q 3034 512 2630 512 
L 1107 512 
z
" transform="scale(0.015625)"/>
     </defs>
     <use xlink:href="#HelveticaNeue-42"/>
    </g>
   </g>
  </g>
  <g id="axes_3">
   <g id="patch_34">
    <path d="M 38.985625 403.537021 
L 402.816706 403.537021 
L 402.816706 238.396596 
L 38.985625 238.396596 
z
" style="fill: #ffffff"/>
   </g>
   <g id="matplotlib.axis_3">
    <g id="xtick_10"/>
    <g id="xtick_11"/>
    <g id="xtick_12"/>
    <g id="xtick_13"/>
    <g id="xtick_14"/>
    <g id="xtick_15"/>
    <g id="xtick_16"/>
    <g id="xtick_17"/>
    <g id="xtick_18"/>
    <g id="xtick_19"/>
    <g id="xtick_20"/>
    <g id="xtick_21"/>
    <g id="xtick_22"/>
    <g id="xtick_23"/>
    <g id="xtick_24"/>
    <g id="xtick_25"/>
    <g id="xtick_26"/>
    <g id="xtick_27"/>
    <g id="xtick_28"/>
    <g id="xtick_29"/>
    <g id="xtick_30"/>
    <g id="xtick_31"/>
    <g id="xtick_32"/>
    <g id="xtick_33"/>
    <g id="xtick_34"/>
    <g id="xtick_35"/>
    <g id="xtick_36"/>
    <g id="xtick_37"/>
    <g id="xtick_38"/>
    <g id="xtick_39"/>
    <g id="xtick_40"/>
    <g id="xtick_41"/>
    <g id="xtick_42"/>
    <g id="xtick_43"/>
    <g id="xtick_44"/>
    <g id="xtick_45"/>
    <g id="xtick_46"/>
    <g id="xtick_47"/>
    <g id="xtick_48"/>
    <g id="xtick_49"/>
    <g id="xtick_50"/>
    <g id="xtick_51"/>
    <g id="xtick_52"/>
    <g id="xtick_53"/>
    <g id="xtick_54"/>
    <g id="xtick_55"/>
    <g id="xtick_56"/>
    <g id="text_29">
     <!-- Structure -->
     <g transform="translate(200.339447 422.177646) scale(0.1 -0.1)">
      <use xlink:href="#HelveticaNeue-53"/>
      <use xlink:href="#HelveticaNeue-74" x="64.799988"/>
      <use xlink:href="#HelveticaNeue-72" x="96.299973"/>
      <use xlink:href="#HelveticaNeue-75" x="129.59996"/>
      <use xlink:href="#HelveticaNeue-63" x="185.199951"/>
      <use xlink:href="#HelveticaNeue-74" x="238.899948"/>
      <use xlink:href="#HelveticaNeue-75" x="270.399933"/>
      <use xlink:href="#HelveticaNeue-72" x="325.999924"/>
      <use xlink:href="#HelveticaNeue-65" x="357.549911"/>
     </g>
    </g>
   </g>
   <g id="matplotlib.axis_4">
    <g id="ytick_9">
     <g id="line2d_22">
      <g>
       <use xlink:href="#mfcea77be06" x="38.985625" y="403.537021" style="stroke: #000000"/>
      </g>
     </g>
     <g id="text_30">
      <!-- 0 -->
      <g transform="translate(27.038125 406.393271) scale(0.08 -0.08)">
       <use xlink:href="#HelveticaNeue-30"/>
      </g>
     </g>
    </g>
    <g id="ytick_10">
     <g id="line2d_23">
      <g>
       <use xlink:href="#mfcea77be06" x="38.985625" y="366.97182" style="stroke: #000000"/>
      </g>
     </g>
     <g id="text_31">
      <!-- 5 -->
      <g transform="translate(27.038125 369.82807) scale(0.08 -0.08)">
       <use xlink:href="#HelveticaNeue-35"/>
      </g>
     </g>
    </g>
    <g id="ytick_11">
     <g id="line2d_24">
      <g>
       <use xlink:href="#mfcea77be06" x="38.985625" y="330.406618" style="stroke: #000000"/>
      </g>
     </g>
     <g id="text_32">
      <!-- 10 -->
      <g transform="translate(22.590625 333.262868) scale(0.08 -0.08)">
       <use xlink:href="#HelveticaNeue-31"/>
       <use xlink:href="#HelveticaNeue-30" x="55.599991"/>
      </g>
     </g>
    </g>
    <g id="ytick_12">
     <g id="line2d_25">
      <g>
       <use xlink:href="#mfcea77be06" x="38.985625" y="293.841416" style="stroke: #000000"/>
      </g>
     </g>
     <g id="text_33">
      <!-- 15 -->
      <g transform="translate(22.590625 296.697666) scale(0.08 -0.08)">
       <use xlink:href="#HelveticaNeue-31"/>
       <use xlink:href="#HelveticaNeue-35" x="55.599991"/>
      </g>
     </g>
    </g>
    <g id="ytick_13">
     <g id="line2d_26">
      <g>
       <use xlink:href="#mfcea77be06" x="38.985625" y="257.276214" style="stroke: #000000"/>
      </g>
     </g>
     <g id="text_34">
      <!-- 20 -->
      <g transform="translate(22.590625 260.132464) scale(0.08 -0.08)">
       <use xlink:href="#HelveticaNeue-32"/>
       <use xlink:href="#HelveticaNeue-30" x="55.599991"/>
      </g>
     </g>
    </g>
    <g id="text_35">
     <!-- RMSD (Å) -->
     <g transform="translate(16.620312 342.726965) rotate(-90) scale(0.1 -0.1)">
      <use xlink:href="#HelveticaNeue-52"/>
      <use xlink:href="#HelveticaNeue-4d" x="68.499985"/>
      <use xlink:href="#HelveticaNeue-53" x="155.599976"/>
      <use xlink:href="#HelveticaNeue-44" x="220.399963"/>
      <use xlink:href="#HelveticaNeue-20" x="290.799957"/>
      <use xlink:href="#HelveticaNeue-28" x="318.599945"/>
      <use xlink:href="#HelveticaNeue-c5" x="344.499939"/>
      <use xlink:href="#HelveticaNeue-29" x="409.299927"/>
     </g>
    </g>
   </g>
   <g id="LineCollection_1">
    <path d="M 50.597255 403.537021 
L 50.597255 303.496343 
L 58.338342 303.496343 
L 58.338342 403.537021 
" clip-path="url(#p578e9bc9f0)" style="fill: none; stroke: #ff7f0e; stroke-width: 1.5"/>
   </g>
   <g id="LineCollection_2">
    <path d="M 81.561603 403.537021 
L 81.561603 349.159275 
L 89.302689 349.159275 
L 89.302689 403.537021 
" clip-path="url(#p578e9bc9f0)" style="fill: none; stroke: #2ca02c; stroke-width: 1.5"/>
    <path d="M 112.52595 403.537021 
L 112.52595 361.356312 
L 120.267037 361.356312 
L 120.267037 403.537021 
" clip-path="url(#p578e9bc9f0)" style="fill: none; stroke: #2ca02c; stroke-width: 1.5"/>
    <path d="M 104.784863 403.537021 
L 104.784863 349.664643 
L 116.396493 349.664643 
L 116.396493 361.356312 
" clip-path="url(#p578e9bc9f0)" style="fill: none; stroke: #2ca02c; stroke-width: 1.5"/>
    <path d="M 97.043776 403.537021 
L 97.043776 339.472072 
L 110.590678 339.472072 
L 110.590678 349.664643 
" clip-path="url(#p578e9bc9f0)" style="fill: none; stroke: #2ca02c; stroke-width: 1.5"/>
    <path d="M 85.432146 349.159275 
L 85.432146 322.864636 
L 103.817227 322.864636 
L 103.817227 339.472072 
" clip-path="url(#p578e9bc9f0)" style="fill: none; stroke: #2ca02c; stroke-width: 1.5"/>
    <path d="M 128.008124 403.537021 
L 128.008124 317.922269 
L 135.74921 317.922269 
L 135.74921 403.537021 
" clip-path="url(#p578e9bc9f0)" style="fill: none; stroke: #2ca02c; stroke-width: 1.5"/>
    <path d="M 94.624687 322.864636 
L 94.624687 299.810414 
L 131.878667 299.810414 
L 131.878667 317.922269 
" clip-path="url(#p578e9bc9f0)" style="fill: none; stroke: #2ca02c; stroke-width: 1.5"/>
   </g>
   <g id="LineCollection_3">
    <path d="M 158.972471 403.537021 
L 158.972471 306.412785 
L 166.713558 306.412785 
L 166.713558 403.537021 
" clip-path="url(#p578e9bc9f0)" style="fill: none; stroke: #d62728; stroke-width: 1.5"/>
    <path d="M 151.231384 403.537021 
L 151.231384 295.129035 
L 162.843014 295.129035 
L 162.843014 306.412785 
" clip-path="url(#p578e9bc9f0)" style="fill: none; stroke: #d62728; stroke-width: 1.5"/>
   </g>
   <g id="LineCollection_4">
    <path d="M 189.936818 403.537021 
L 189.936818 349.795978 
L 197.677905 349.795978 
L 197.677905 403.537021 
" clip-path="url(#p578e9bc9f0)" style="fill: none; stroke: #9467bd; stroke-width: 1.5"/>
    <path d="M 182.195731 403.537021 
L 182.195731 317.848611 
L 193.807362 317.848611 
L 193.807362 349.795978 
" clip-path="url(#p578e9bc9f0)" style="fill: none; stroke: #9467bd; stroke-width: 1.5"/>
   </g>
   <g id="LineCollection_5">
    <path d="M 213.160079 403.537021 
L 213.160079 327.157931 
L 220.901166 327.157931 
L 220.901166 403.537021 
" clip-path="url(#p578e9bc9f0)" style="fill: none; stroke: #8c564b; stroke-width: 1.5"/>
    <path d="M 205.418992 403.537021 
L 205.418992 298.290185 
L 217.030622 298.290185 
L 217.030622 327.157931 
" clip-path="url(#p578e9bc9f0)" style="fill: none; stroke: #8c564b; stroke-width: 1.5"/>
   </g>
   <g id="LineCollection_6">
    <path d="M 236.383339 403.537021 
L 236.383339 300.897878 
L 244.124426 300.897878 
L 244.124426 403.537021 
" clip-path="url(#p578e9bc9f0)" style="fill: none; stroke: #e377c2; stroke-width: 1.5"/>
   </g>
   <g id="LineCollection_7">
    <path d="M 267.347687 403.537021 
L 267.347687 323.629938 
L 275.088773 323.629938 
L 275.088773 403.537021 
" clip-path="url(#p578e9bc9f0)" style="fill: none; stroke: #7f7f7f; stroke-width: 1.5"/>
   </g>
   <g id="LineCollection_8">
    <path d="M 282.82986 403.537021 
L 282.82986 349.926191 
L 290.570947 349.926191 
L 290.570947 403.537021 
" clip-path="url(#p578e9bc9f0)" style="fill: none; stroke: #bcbd22; stroke-width: 1.5"/>
    <path d="M 298.312034 403.537021 
L 298.312034 347.263228 
L 306.053121 347.263228 
L 306.053121 403.537021 
" clip-path="url(#p578e9bc9f0)" style="fill: none; stroke: #bcbd22; stroke-width: 1.5"/>
    <path d="M 286.700404 349.926191 
L 286.700404 318.921874 
L 302.182577 318.921874 
L 302.182577 347.263228 
" clip-path="url(#p578e9bc9f0)" style="fill: none; stroke: #bcbd22; stroke-width: 1.5"/>
   </g>
   <g id="LineCollection_9">
    <path d="M 321.535294 403.537021 
L 321.535294 353.742802 
L 329.276381 353.742802 
L 329.276381 403.537021 
" clip-path="url(#p578e9bc9f0)" style="fill: none; stroke: #17becf; stroke-width: 1.5"/>
    <path d="M 313.794208 403.537021 
L 313.794208 335.075569 
L 325.405838 335.075569 
L 325.405838 353.742802 
" clip-path="url(#p578e9bc9f0)" style="fill: none; stroke: #17becf; stroke-width: 1.5"/>
    <path d="M 337.017468 403.537021 
L 337.017468 342.233657 
L 344.758555 342.233657 
L 344.758555 403.537021 
" clip-path="url(#p578e9bc9f0)" style="fill: none; stroke: #17becf; stroke-width: 1.5"/>
    <path d="M 352.499642 403.537021 
L 352.499642 338.44918 
L 360.240729 338.44918 
L 360.240729 403.537021 
" clip-path="url(#p578e9bc9f0)" style="fill: none; stroke: #17becf; stroke-width: 1.5"/>
    <path d="M 340.888011 342.233657 
L 340.888011 320.667549 
L 356.370185 320.667549 
L 356.370185 338.44918 
" clip-path="url(#p578e9bc9f0)" style="fill: none; stroke: #17becf; stroke-width: 1.5"/>
    <path d="M 319.600023 335.075569 
L 319.600023 316.106892 
L 348.629098 316.106892 
L 348.629098 320.667549 
" clip-path="url(#p578e9bc9f0)" style="fill: none; stroke: #17becf; stroke-width: 1.5"/>
    <path d="M 375.722902 403.537021 
L 375.722902 350.798674 
L 383.463989 350.798674 
L 383.463989 403.537021 
" clip-path="url(#p578e9bc9f0)" style="fill: none; stroke: #17becf; stroke-width: 1.5"/>
    <path d="M 367.981815 403.537021 
L 367.981815 338.078002 
L 379.593446 338.078002 
L 379.593446 350.798674 
" clip-path="url(#p578e9bc9f0)" style="fill: none; stroke: #17becf; stroke-width: 1.5"/>
    <path d="M 391.205076 403.537021 
L 391.205076 326.705232 
L 398.946163 326.705232 
L 398.946163 403.537021 
" clip-path="url(#p578e9bc9f0)" style="fill: none; stroke: #17becf; stroke-width: 1.5"/>
    <path d="M 373.78763 338.078002 
L 373.78763 305.48036 
L 395.075619 305.48036 
L 395.075619 326.705232 
" clip-path="url(#p578e9bc9f0)" style="fill: none; stroke: #17becf; stroke-width: 1.5"/>
    <path d="M 334.11456 316.106892 
L 334.11456 301.024393 
L 384.431625 301.024393 
L 384.431625 305.48036 
" clip-path="url(#p578e9bc9f0)" style="fill: none; stroke: #17becf; stroke-width: 1.5"/>
   </g>
   <g id="LineCollection_10">
    <path d="M 42.856168 403.537021 
L 42.856168 292.840454 
L 54.467799 292.840454 
L 54.467799 303.496343 
" clip-path="url(#p578e9bc9f0)" style="fill: none; stroke: #2e4057; stroke-width: 1.5"/>
    <path d="M 73.820516 403.537021 
L 73.820516 290.943069 
L 113.251677 290.943069 
L 113.251677 299.810414 
" clip-path="url(#p578e9bc9f0)" style="fill: none; stroke: #2e4057; stroke-width: 1.5"/>
    <path d="M 66.079429 403.537021 
L 66.079429 275.235716 
L 93.536096 275.235716 
L 93.536096 290.943069 
" clip-path="url(#p578e9bc9f0)" style="fill: none; stroke: #2e4057; stroke-width: 1.5"/>
    <path d="M 48.661984 292.840454 
L 48.661984 270.195233 
L 79.807763 270.195233 
L 79.807763 275.235716 
" clip-path="url(#p578e9bc9f0)" style="fill: none; stroke: #2e4057; stroke-width: 1.5"/>
    <path d="M 143.490297 403.537021 
L 143.490297 268.90393 
L 157.037199 268.90393 
L 157.037199 295.129035 
" clip-path="url(#p578e9bc9f0)" style="fill: none; stroke: #2e4057; stroke-width: 1.5"/>
    <path d="M 64.234873 270.195233 
L 64.234873 259.938827 
L 150.263748 259.938827 
L 150.263748 268.90393 
" clip-path="url(#p578e9bc9f0)" style="fill: none; stroke: #2e4057; stroke-width: 1.5"/>
    <path d="M 174.454645 403.537021 
L 174.454645 273.504579 
L 188.001547 273.504579 
L 188.001547 317.848611 
" clip-path="url(#p578e9bc9f0)" style="fill: none; stroke: #2e4057; stroke-width: 1.5"/>
    <path d="M 228.642252 403.537021 
L 228.642252 284.007917 
L 240.253883 284.007917 
L 240.253883 300.897878 
" clip-path="url(#p578e9bc9f0)" style="fill: none; stroke: #2e4057; stroke-width: 1.5"/>
    <path d="M 211.224807 298.290185 
L 211.224807 275.634555 
L 234.448067 275.634555 
L 234.448067 284.007917 
" clip-path="url(#p578e9bc9f0)" style="fill: none; stroke: #2e4057; stroke-width: 1.5"/>
    <path d="M 251.865513 403.537021 
L 251.865513 288.447188 
L 259.6066 288.447188 
L 259.6066 403.537021 
" clip-path="url(#p578e9bc9f0)" style="fill: none; stroke: #2e4057; stroke-width: 1.5"/>
    <path d="M 294.44149 318.921874 
L 294.44149 291.511558 
L 359.273093 291.511558 
L 359.273093 301.024393 
" clip-path="url(#p578e9bc9f0)" style="fill: none; stroke: #2e4057; stroke-width: 1.5"/>
    <path d="M 271.21823 323.629938 
L 271.21823 285.173959 
L 326.857292 285.173959 
L 326.857292 291.511558 
" clip-path="url(#p578e9bc9f0)" style="fill: none; stroke: #2e4057; stroke-width: 1.5"/>
    <path d="M 255.736056 288.447188 
L 255.736056 271.086324 
L 299.037761 271.086324 
L 299.037761 285.173959 
" clip-path="url(#p578e9bc9f0)" style="fill: none; stroke: #2e4057; stroke-width: 1.5"/>
    <path d="M 222.836437 275.634555 
L 222.836437 262.396435 
L 277.386909 262.396435 
L 277.386909 271.086324 
" clip-path="url(#p578e9bc9f0)" style="fill: none; stroke: #2e4057; stroke-width: 1.5"/>
    <path d="M 181.228096 273.504579 
L 181.228096 256.07824 
L 250.111673 256.07824 
L 250.111673 262.396435 
" clip-path="url(#p578e9bc9f0)" style="fill: none; stroke: #2e4057; stroke-width: 1.5"/>
    <path d="M 107.249311 259.938827 
L 107.249311 246.260426 
L 215.669884 246.260426 
L 215.669884 256.07824 
" clip-path="url(#p578e9bc9f0)" style="fill: none; stroke: #2e4057; stroke-width: 1.5"/>
   </g>
   <g id="patch_35">
    <path d="M 38.985625 403.537021 
L 38.985625 238.396596 
" style="fill: none; stroke: #212529; stroke-linejoin: miter; stroke-linecap: square"/>
   </g>
   <g id="patch_36">
    <path d="M 38.985625 403.537021 
L 402.816706 403.537021 
" style="fill: none; stroke: #212529; stroke-linejoin: miter; stroke-linecap: square"/>
   </g>
   <g id="text_36">
    <!-- C -->
    <g transform="translate(20.794071 240.136449) scale(0.14 -0.14)">
     <use xlink:href="#HelveticaNeue-43"/>
    </g>
   </g>
  </g>
  <g id="axes_4">
   <g id="patch_37">
    <path d="M 455.60049 403.537021 
L 596.985625 403.537021 
L 596.985625 238.396596 
L 455.60049 238.396596 
z
" style="fill: #ffffff"/>
   </g>
   <g id="PolyCollection_1">
    <defs>
     <path id="m35e10a872c" d="M 455.60049 -148.341878 
L 455.60049 -35.099688 
L 457.345985 -35.099688 
L 459.091481 -35.099688 
L 460.836976 -35.099688 
L 462.582472 -35.099688 
L 464.327967 -35.099688 
L 466.073463 -35.099688 
L 467.818958 -35.099688 
L 469.564454 -35.099688 
L 471.309949 -35.099688 
L 473.055445 -35.099688 
L 474.80094 -35.099688 
L 476.546436 -35.099688 
L 478.291931 -35.099688 
L 480.037427 -35.099688 
L 481.782922 -35.099688 
L 483.528418 -35.099688 
L 485.273913 -35.099688 
L 487.019409 -35.099688 
L 488.764904 -35.099688 
L 490.5104 -35.099688 
L 492.255895 -35.099688 
L 494.001391 -35.099688 
L 495.746886 -35.099688 
L 497.492382 -35.099688 
L 499.237877 -35.099688 
L 500.983373 -35.099688 
L 502.728868 -35.099688 
L 504.474364 -35.099688 
L 506.219859 -35.099688 
L 507.965355 -35.099688 
L 509.71085 -35.099688 
L 511.456346 -35.099688 
L 513.201841 -35.099688 
L 514.947337 -35.099688 
L 516.692832 -35.099688 
L 518.438328 -35.099688 
L 520.183823 -35.099688 
L 521.929319 -35.099688 
L 523.674814 -35.099688 
L 525.42031 -35.099688 
L 527.165805 -35.099688 
L 528.911301 -35.099688 
L 530.656796 -35.099688 
L 532.402292 -35.099688 
L 534.147787 -35.099688 
L 535.893283 -35.099688 
L 537.638778 -35.099688 
L 539.384274 -35.099688 
L 541.129769 -35.099688 
L 542.875265 -35.099688 
L 544.62076 -35.099688 
L 546.366256 -35.099688 
L 548.111751 -35.099688 
L 549.857247 -35.099688 
L 551.602742 -35.099688 
L 553.348238 -35.099688 
L 555.093733 -35.099688 
L 556.839229 -35.099688 
L 558.584724 -35.099688 
L 560.33022 -35.099688 
L 562.075715 -35.099688 
L 563.821211 -35.099688 
L 565.566706 -35.099688 
L 567.312202 -35.099688 
L 569.057697 -35.099688 
L 570.803193 -35.099688 
L 572.548688 -35.099688 
L 574.294184 -35.099688 
L 576.039679 -35.099688 
L 577.785175 -35.099688 
L 579.53067 -35.099688 
L 581.276166 -35.099688 
L 583.021661 -35.099688 
L 584.767157 -35.099688 
L 586.512652 -35.099688 
L 588.258148 -35.099688 
L 590.003643 -35.099688 
L 591.749139 -35.099688 
L 593.494634 -35.099688 
L 595.24013 -35.099688 
L 596.985625 -35.099688 
L 596.985625 -161.035292 
L 596.985625 -161.035292 
L 595.24013 -175.349057 
L 593.494634 -155.070687 
L 591.749139 -168.696902 
L 590.003643 -152.710068 
L 588.258148 -153.674516 
L 586.512652 -138.643799 
L 584.767157 -130.524549 
L 583.021661 -108.871378 
L 581.276166 -120.034057 
L 579.53067 -135.401528 
L 577.785175 -117.340583 
L 576.039679 -115.677266 
L 574.294184 -137.533037 
L 572.548688 -129.937754 
L 570.803193 -143.981953 
L 569.057697 -149.344844 
L 567.312202 -178.700058 
L 565.566706 -130.340762 
L 563.821211 -163.454675 
L 562.075715 -107.904967 
L 560.33022 -118.081695 
L 558.584724 -121.273784 
L 556.839229 -115.910172 
L 555.093733 -128.904489 
L 553.348238 -146.646049 
L 551.602742 -133.654168 
L 549.857247 -135.190928 
L 548.111751 -146.883161 
L 546.366256 -146.871998 
L 544.62076 -169.718459 
L 542.875265 -152.552212 
L 541.129769 -161.020075 
L 539.384274 -141.947016 
L 537.638778 -131.207479 
L 535.893283 -144.76249 
L 534.147787 -133.865513 
L 532.402292 -138.152099 
L 530.656796 -130.0298 
L 528.911301 -124.362067 
L 527.165805 -124.733086 
L 525.42031 -133.493706 
L 523.674814 -116.024771 
L 521.929319 -102.065668 
L 520.183823 -118.772932 
L 518.438328 -119.843219 
L 516.692832 -116.737657 
L 514.947337 -107.083698 
L 513.201841 -103.572682 
L 511.456346 -122.357245 
L 509.71085 -128.090703 
L 507.965355 -110.183626 
L 506.219859 -138.582778 
L 504.474364 -129.690176 
L 502.728868 -110.817555 
L 500.983373 -124.884127 
L 499.237877 -128.342329 
L 497.492382 -112.601163 
L 495.746886 -114.152075 
L 494.001391 -114.933797 
L 492.255895 -135.789289 
L 490.5104 -101.887201 
L 488.764904 -102.436657 
L 487.019409 -106.392448 
L 485.273913 -122.265873 
L 483.528418 -106.943855 
L 481.782922 -97.909003 
L 480.037427 -107.90009 
L 478.291931 -135.485112 
L 476.546436 -105.042376 
L 474.80094 -105.761881 
L 473.055445 -126.425401 
L 471.309949 -121.795937 
L 469.564454 -99.232537 
L 467.818958 -128.887666 
L 466.073463 -118.839378 
L 464.327967 -129.567066 
L 462.582472 -109.755838 
L 460.836976 -121.590093 
L 459.091481 -125.694406 
L 457.345985 -112.360675 
L 455.60049 -148.341878 
z
" style="stroke: #048a81; stroke-opacity: 0.25"/>
    </defs>
    <g clip-path="url(#pd9b024e3fb)">
     <use xlink:href="#m35e10a872c" x="0" y="438.636709" style="fill: #048a81; fill-opacity: 0.25; stroke: #048a81; stroke-opacity: 0.25"/>
    </g>
   </g>
   <g id="matplotlib.axis_5">
    <g id="xtick_57">
     <g id="line2d_27">
      <g>
       <use xlink:href="#md6bd22ce94" x="488.764904" y="403.537021" style="stroke: #000000"/>
      </g>
     </g>
     <g id="text_37">
      <!-- 20 -->
      <g transform="translate(484.317404 416.749521) scale(0.08 -0.08)">
       <use xlink:href="#HelveticaNeue-32"/>
       <use xlink:href="#HelveticaNeue-30" x="55.599991"/>
      </g>
     </g>
    </g>
    <g id="xtick_58">
     <g id="line2d_28">
      <g>
       <use xlink:href="#md6bd22ce94" x="523.674814" y="403.537021" style="stroke: #000000"/>
      </g>
     </g>
     <g id="text_38">
      <!-- 40 -->
      <g transform="translate(519.227314 416.749521) scale(0.08 -0.08)">
       <use xlink:href="#HelveticaNeue-34"/>
       <use xlink:href="#HelveticaNeue-30" x="55.599991"/>
      </g>
     </g>
    </g>
    <g id="xtick_59">
     <g id="line2d_29">
      <g>
       <use xlink:href="#md6bd22ce94" x="558.584724" y="403.537021" style="stroke: #000000"/>
      </g>
     </g>
     <g id="text_39">
      <!-- 60 -->
      <g transform="translate(554.137224 416.749521) scale(0.08 -0.08)">
       <use xlink:href="#HelveticaNeue-36"/>
       <use xlink:href="#HelveticaNeue-30" x="55.599991"/>
      </g>
     </g>
    </g>
    <g id="xtick_60">
     <g id="line2d_30">
      <g>
       <use xlink:href="#md6bd22ce94" x="593.494634" y="403.537021" style="stroke: #000000"/>
      </g>
     </g>
     <g id="text_40">
      <!-- 80 -->
      <g transform="translate(589.047134 416.749521) scale(0.08 -0.08)">
       <use xlink:href="#HelveticaNeue-38"/>
       <use xlink:href="#HelveticaNeue-30" x="55.599991"/>
      </g>
     </g>
    </g>
    <g id="text_41">
     <!-- Residue position -->
     <g transform="translate(488.972745 429.466396) scale(0.1 -0.1)">
      <use xlink:href="#HelveticaNeue-52"/>
      <use xlink:href="#HelveticaNeue-65" x="68.499985"/>
      <use xlink:href="#HelveticaNeue-73" x="122.199982"/>
      <use xlink:href="#HelveticaNeue-69" x="172.199966"/>
      <use xlink:href="#HelveticaNeue-64" x="194.399963"/>
      <use xlink:href="#HelveticaNeue-75" x="253.699951"/>
      <use xlink:href="#HelveticaNeue-65" x="309.299942"/>
      <use xlink:href="#HelveticaNeue-20" x="362.999939"/>
      <use xlink:href="#HelveticaNeue-70" x="390.799927"/>
      <use xlink:href="#HelveticaNeue-6f" x="450.099915"/>
      <use xlink:href="#HelveticaNeue-73" x="507.499908"/>
      <use xlink:href="#HelveticaNeue-69" x="557.499893"/>
      <use xlink:href="#HelveticaNeue-74" x="579.69989"/>
      <use xlink:href="#HelveticaNeue-69" x="611.199875"/>
      <use xlink:href="#HelveticaNeue-6f" x="633.399872"/>
      <use xlink:href="#HelveticaNeue-6e" x="690.799866"/>
     </g>
    </g>
   </g>
   <g id="matplotlib.axis_6">
    <g id="ytick_14">
     <g id="line2d_31">
      <g>
       <use xlink:href="#mfcea77be06" x="455.60049" y="403.537021" style="stroke: #000000"/>
      </g>
     </g>
     <g id="text_42">
      <!-- 0.0 -->
      <g transform="translate(436.98174 406.393271) scale(0.08 -0.08)">
       <use xlink:href="#HelveticaNeue-30"/>
       <use xlink:href="#HelveticaNeue-2e" x="55.599991"/>
       <use xlink:href="#HelveticaNeue-30" x="83.399979"/>
      </g>
     </g>
    </g>
    <g id="ytick_15">
     <g id="line2d_32">
      <g>
       <use xlink:href="#mfcea77be06" x="455.60049" y="382.765637" style="stroke: #000000"/>
      </g>
     </g>
     <g id="text_43">
      <!-- 0.2 -->
      <g transform="translate(436.98174 385.621887) scale(0.08 -0.08)">
       <use xlink:href="#HelveticaNeue-30"/>
       <use xlink:href="#HelveticaNeue-2e" x="55.599991"/>
       <use xlink:href="#HelveticaNeue-32" x="83.399979"/>
      </g>
     </g>
    </g>
    <g id="ytick_16">
     <g id="line2d_33">
      <g>
       <use xlink:href="#mfcea77be06" x="455.60049" y="361.994253" style="stroke: #000000"/>
      </g>
     </g>
     <g id="text_44">
      <!-- 0.4 -->
      <g transform="translate(436.98174 364.850503) scale(0.08 -0.08)">
       <use xlink:href="#HelveticaNeue-30"/>
       <use xlink:href="#HelveticaNeue-2e" x="55.599991"/>
       <use xlink:href="#HelveticaNeue-34" x="83.399979"/>
      </g>
     </g>
    </g>
    <g id="ytick_17">
     <g id="line2d_34">
      <g>
       <use xlink:href="#mfcea77be06" x="455.60049" y="341.222869" style="stroke: #000000"/>
      </g>
     </g>
     <g id="text_45">
      <!-- 0.6 -->
      <g transform="translate(436.98174 344.079119) scale(0.08 -0.08)">
       <use xlink:href="#HelveticaNeue-30"/>
       <use xlink:href="#HelveticaNeue-2e" x="55.599991"/>
       <use xlink:href="#HelveticaNeue-36" x="83.399979"/>
      </g>
     </g>
    </g>
    <g id="ytick_18">
     <g id="line2d_35">
      <g>
       <use xlink:href="#mfcea77be06" x="455.60049" y="320.451485" style="stroke: #000000"/>
      </g>
     </g>
     <g id="text_46">
      <!-- 0.8 -->
      <g transform="translate(436.98174 323.307735) scale(0.08 -0.08)">
       <use xlink:href="#HelveticaNeue-30"/>
       <use xlink:href="#HelveticaNeue-2e" x="55.599991"/>
       <use xlink:href="#HelveticaNeue-38" x="83.399979"/>
      </g>
     </g>
    </g>
    <g id="ytick_19">
     <g id="line2d_36">
      <g>
       <use xlink:href="#mfcea77be06" x="455.60049" y="299.680101" style="stroke: #000000"/>
      </g>
     </g>
     <g id="text_47">
      <!-- 1.0 -->
      <g transform="translate(436.98174 302.536351) scale(0.08 -0.08)">
       <use xlink:href="#HelveticaNeue-31"/>
       <use xlink:href="#HelveticaNeue-2e" x="55.599991"/>
       <use xlink:href="#HelveticaNeue-30" x="83.399979"/>
      </g>
     </g>
    </g>
    <g id="ytick_20">
     <g id="line2d_37">
      <g>
       <use xlink:href="#mfcea77be06" x="455.60049" y="278.908718" style="stroke: #000000"/>
      </g>
     </g>
     <g id="text_48">
      <!-- 1.2 -->
      <g transform="translate(436.98174 281.764968) scale(0.08 -0.08)">
       <use xlink:href="#HelveticaNeue-31"/>
       <use xlink:href="#HelveticaNeue-2e" x="55.599991"/>
       <use xlink:href="#HelveticaNeue-32" x="83.399979"/>
      </g>
     </g>
    </g>
    <g id="ytick_21">
     <g id="line2d_38">
      <g>
       <use xlink:href="#mfcea77be06" x="455.60049" y="258.137334" style="stroke: #000000"/>
      </g>
     </g>
     <g id="text_49">
      <!-- 1.4 -->
      <g transform="translate(436.98174 260.993584) scale(0.08 -0.08)">
       <use xlink:href="#HelveticaNeue-31"/>
       <use xlink:href="#HelveticaNeue-2e" x="55.599991"/>
       <use xlink:href="#HelveticaNeue-34" x="83.399979"/>
      </g>
     </g>
    </g>
    <g id="text_50">
     <!-- Positional variance (Å) -->
     <g transform="translate(431.011427 370.223059) rotate(-90) scale(0.1 -0.1)">
      <defs>
       <path id="HelveticaNeue-50" d="M 1107 2381 
L 1107 4058 
L 2298 4058 
Q 2816 4058 3056 3843 
Q 3296 3629 3296 3219 
Q 3296 2810 3056 2592 
Q 2816 2374 2298 2381 
L 1107 2381 
z
M 499 4570 
L 499 0 
L 1107 0 
L 1107 1869 
L 2502 1869 
Q 3194 1862 3549 2220 
Q 3904 2579 3904 3219 
Q 3904 3859 3549 4214 
Q 3194 4570 2502 4570 
L 499 4570 
z
" transform="scale(0.015625)"/>
      </defs>
      <use xlink:href="#HelveticaNeue-50"/>
      <use xlink:href="#HelveticaNeue-6f" x="64.799988"/>
      <use xlink:href="#HelveticaNeue-73" x="122.199982"/>
      <use xlink:href="#HelveticaNeue-69" x="172.199966"/>
      <use xlink:href="#HelveticaNeue-74" x="194.399963"/>
      <use xlink:href="#HelveticaNeue-69" x="225.899948"/>
      <use xlink:href="#HelveticaNeue-6f" x="248.099945"/>
      <use xlink:href="#HelveticaNeue-6e" x="305.499939"/>
      <use xlink:href="#HelveticaNeue-61" x="361.09993"/>
      <use xlink:href="#HelveticaNeue-6c" x="414.799927"/>
      <use xlink:href="#HelveticaNeue-20" x="436.999924"/>
      <use xlink:href="#HelveticaNeue-76" x="464.799911"/>
      <use xlink:href="#HelveticaNeue-61" x="514.799896"/>
      <use xlink:href="#HelveticaNeue-72" x="568.499893"/>
      <use xlink:href="#HelveticaNeue-69" x="601.799881"/>
      <use xlink:href="#HelveticaNeue-61" x="623.999878"/>
      <use xlink:href="#HelveticaNeue-6e" x="677.699875"/>
      <use xlink:href="#HelveticaNeue-63" x="733.299866"/>
      <use xlink:href="#HelveticaNeue-65" x="786.999863"/>
      <use xlink:href="#HelveticaNeue-20" x="840.69986"/>
      <use xlink:href="#HelveticaNeue-28" x="868.499847"/>
      <use xlink:href="#HelveticaNeue-c5" x="894.399841"/>
      <use xlink:href="#HelveticaNeue-29" x="959.199829"/>
     </g>
    </g>
   </g>
   <g id="line2d_39">
    <path d="M 455.60049 290.294831 
L 457.345985 326.276034 
L 459.091481 312.942303 
L 460.836976 317.046616 
L 462.582472 328.880871 
L 464.327967 309.069643 
L 466.073463 319.797331 
L 467.818958 309.749043 
L 469.564454 339.404172 
L 471.309949 316.840772 
L 473.055445 312.211308 
L 474.80094 332.874828 
L 476.546436 333.594333 
L 478.291931 303.151597 
L 480.037427 330.736618 
L 481.782922 340.727706 
L 483.528418 331.692854 
L 485.273913 316.370836 
L 487.019409 332.24426 
L 488.764904 336.200051 
L 490.5104 336.749507 
L 492.255895 302.84742 
L 494.001391 323.702912 
L 495.746886 324.484634 
L 497.492382 326.035546 
L 499.237877 310.29438 
L 500.983373 313.752582 
L 502.728868 327.819154 
L 504.474364 308.946532 
L 506.219859 300.053931 
L 507.965355 328.453083 
L 509.71085 310.546006 
L 511.456346 316.279464 
L 513.201841 335.064027 
L 514.947337 331.553011 
L 516.692832 321.899052 
L 518.438328 318.793489 
L 520.183823 319.863777 
L 521.929319 336.57104 
L 523.674814 322.611938 
L 525.42031 305.143003 
L 527.165805 313.903622 
L 528.911301 314.274642 
L 530.656796 308.606908 
L 532.402292 300.48461 
L 534.147787 304.771196 
L 535.893283 293.874219 
L 537.638778 307.42923 
L 539.384274 296.689693 
L 541.129769 277.616634 
L 542.875265 286.084497 
L 544.62076 268.91825 
L 546.366256 291.76471 
L 548.111751 291.753548 
L 549.857247 303.44578 
L 551.602742 304.982541 
L 553.348238 291.99066 
L 555.093733 309.73222 
L 556.839229 322.726537 
L 558.584724 317.362924 
L 560.33022 320.555013 
L 562.075715 330.731742 
L 563.821211 275.182034 
L 565.566706 308.295947 
L 567.312202 259.936651 
L 569.057697 289.291865 
L 570.803193 294.654756 
L 572.548688 308.698955 
L 574.294184 301.103672 
L 576.039679 322.959442 
L 577.785175 321.296126 
L 579.53067 303.235181 
L 581.276166 318.602652 
L 583.021661 329.765331 
L 584.767157 308.11216 
L 586.512652 299.99291 
L 588.258148 284.962193 
L 590.003643 285.926641 
L 591.749139 269.939807 
L 593.494634 283.566022 
L 595.24013 263.287652 
L 596.985625 277.601416 
" clip-path="url(#pd9b024e3fb)" style="fill: none; stroke: #048a81; stroke-width: 1.5; stroke-linecap: square"/>
   </g>
   <g id="line2d_40">
    <path d="M 455.60049 310.069282 
L 596.985625 310.069282 
" clip-path="url(#pd9b024e3fb)" style="fill: none; stroke-dasharray: 5.55,2.4; stroke-dashoffset: 0; stroke: #e85d04; stroke-width: 1.5"/>
   </g>
   <g id="patch_38">
    <path d="M 455.60049 403.537021 
L 455.60049 238.396596 
" style="fill: none; stroke: #212529; stroke-linejoin: miter; stroke-linecap: square"/>
   </g>
   <g id="patch_39">
    <path d="M 455.60049 403.537021 
L 596.985625 403.537021 
" style="fill: none; stroke: #212529; stroke-linejoin: miter; stroke-linecap: square"/>
   </g>
   <g id="text_51">
    <!-- Mean: 0.90 Å -->
    <g style="fill: #e85d04" transform="translate(542.487618 252.701117) scale(0.08 -0.08)">
     <defs>
      <path id="HelveticaNeue-3a" d="M 1242 2598 
L 1242 3309 
L 531 3309 
L 531 2598 
L 1242 2598 
z
M 531 710 
L 531 0 
L 1242 0 
L 1242 710 
L 531 710 
z
" transform="scale(0.015625)"/>
     </defs>
     <use xlink:href="#HelveticaNeue-4d"/>
     <use xlink:href="#HelveticaNeue-65" x="87.099991"/>
     <use xlink:href="#HelveticaNeue-61" x="140.799988"/>
     <use xlink:href="#HelveticaNeue-6e" x="194.499985"/>
     <use xlink:href="#HelveticaNeue-3a" x="250.099976"/>
     <use xlink:href="#HelveticaNeue-20" x="277.899963"/>
     <use xlink:href="#HelveticaNeue-30" x="305.699951"/>
     <use xlink:href="#HelveticaNeue-2e" x="361.299942"/>
     <use xlink:href="#HelveticaNeue-39" x="389.09993"/>
     <use xlink:href="#HelveticaNeue-30" x="444.699921"/>
     <use xlink:href="#HelveticaNeue-20" x="500.299911"/>
     <use xlink:href="#HelveticaNeue-c5" x="528.099899"/>
    </g>
   </g>
   <g id="text_52">
    <!-- D -->
    <g transform="translate(434.39272 240.136449) scale(0.14 -0.14)">
     <use xlink:href="#HelveticaNeue-44"/>
    </g>
   </g>
   <g id="PathCollection_1">
    <defs>
     <path id="m4905436169" d="M 0 1.936492 
C 0.513564 1.936492 1.006162 1.732451 1.369306 1.369306 
C 1.732451 1.006162 1.936492 0.513564 1.936492 0 
C 1.936492 -0.513564 1.732451 -1.006162 1.369306 -1.369306 
C 1.006162 -1.732451 0.513564 -1.936492 0 -1.936492 
C -0.513564 -1.936492 -1.006162 -1.732451 -1.369306 -1.369306 
C -1.732451 -1.006162 -1.936492 -0.513564 -1.936492 0 
C -1.936492 0.513564 -1.732451 1.006162 -1.369306 1.369306 
C -1.006162 1.732451 -0.513564 1.936492 0 1.936492 
z
" style="stroke: #ffffff; stroke-width: 0.5"/>
    </defs>
    <g clip-path="url(#pd9b024e3fb)">
     <use xlink:href="#m4905436169" x="457.345985" y="326.276034" style="fill: #90be6d; stroke: #ffffff; stroke-width: 0.5"/>
     <use xlink:href="#m4905436169" x="462.582472" y="328.880871" style="fill: #90be6d; stroke: #ffffff; stroke-width: 0.5"/>
     <use xlink:href="#m4905436169" x="469.564454" y="339.404172" style="fill: #90be6d; stroke: #ffffff; stroke-width: 0.5"/>
     <use xlink:href="#m4905436169" x="474.80094" y="332.874828" style="fill: #90be6d; stroke: #ffffff; stroke-width: 0.5"/>
     <use xlink:href="#m4905436169" x="476.546436" y="333.594333" style="fill: #90be6d; stroke: #ffffff; stroke-width: 0.5"/>
     <use xlink:href="#m4905436169" x="480.037427" y="330.736618" style="fill: #90be6d; stroke: #ffffff; stroke-width: 0.5"/>
     <use xlink:href="#m4905436169" x="481.782922" y="340.727706" style="fill: #90be6d; stroke: #ffffff; stroke-width: 0.5"/>
     <use xlink:href="#m4905436169" x="483.528418" y="331.692854" style="fill: #90be6d; stroke: #ffffff; stroke-width: 0.5"/>
     <use xlink:href="#m4905436169" x="487.019409" y="332.24426" style="fill: #90be6d; stroke: #ffffff; stroke-width: 0.5"/>
     <use xlink:href="#m4905436169" x="488.764904" y="336.200051" style="fill: #90be6d; stroke: #ffffff; stroke-width: 0.5"/>
     <use xlink:href="#m4905436169" x="490.5104" y="336.749507" style="fill: #90be6d; stroke: #ffffff; stroke-width: 0.5"/>
     <use xlink:href="#m4905436169" x="494.001391" y="323.702912" style="fill: #90be6d; stroke: #ffffff; stroke-width: 0.5"/>
     <use xlink:href="#m4905436169" x="495.746886" y="324.484634" style="fill: #90be6d; stroke: #ffffff; stroke-width: 0.5"/>
     <use xlink:href="#m4905436169" x="497.492382" y="326.035546" style="fill: #90be6d; stroke: #ffffff; stroke-width: 0.5"/>
     <use xlink:href="#m4905436169" x="502.728868" y="327.819154" style="fill: #90be6d; stroke: #ffffff; stroke-width: 0.5"/>
     <use xlink:href="#m4905436169" x="507.965355" y="328.453083" style="fill: #90be6d; stroke: #ffffff; stroke-width: 0.5"/>
     <use xlink:href="#m4905436169" x="513.201841" y="335.064027" style="fill: #90be6d; stroke: #ffffff; stroke-width: 0.5"/>
     <use xlink:href="#m4905436169" x="514.947337" y="331.553011" style="fill: #90be6d; stroke: #ffffff; stroke-width: 0.5"/>
     <use xlink:href="#m4905436169" x="521.929319" y="336.57104" style="fill: #90be6d; stroke: #ffffff; stroke-width: 0.5"/>
     <use xlink:href="#m4905436169" x="562.075715" y="330.731742" style="fill: #90be6d; stroke: #ffffff; stroke-width: 0.5"/>
     <use xlink:href="#m4905436169" x="583.021661" y="329.765331" style="fill: #90be6d; stroke: #ffffff; stroke-width: 0.5"/>
    </g>
   </g>
  </g>
 </g>
 <defs>
  <clipPath id="p8c831f8c06">
   <rect x="38.985625" y="47.128585" width="169.662162" height="101.797297"/>
  </clipPath>
  <clipPath id="pe24af7ab4e">
   <rect x="261.431571" y="15.457021" width="335.554054" height="165.140426"/>
  </clipPath>
  <clipPath id="p578e9bc9f0">
   <rect x="38.985625" y="238.396596" width="363.831081" height="165.140426"/>
  </clipPath>
  <clipPath id="pd9b024e3fb">
   <rect x="455.60049" y="238.396596" width="141.385135" height="165.140426"/>
  </clipPath>
 </defs>
</svg>
