<?xml version="1.0" encoding="utf-8" standalone="no"?>
<!DOCTYPE svg PUBLIC "-//W3C//DTD SVG 1.1//EN"
  "http://www.w3.org/Graphics/SVG/1.1/DTD/svg11.dtd">
<svg xmlns:xlink="http://www.w3.org/1999/xlink" width="857.401719pt" height="568.242187pt" viewBox="0 0 857.401719 568.242187" xmlns="http://www.w3.org/2000/svg" version="1.1">
 <metadata>
  <rdf:RDF xmlns:dc="http://purl.org/dc/elements/1.1/" xmlns:cc="http://creativecommons.org/ns#" xmlns:rdf="http://www.w3.org/1999/02/22-rdf-syntax-ns#">
   <cc:Work>
    <dc:type rdf:resource="http://purl.org/dc/dcmitype/StillImage"/>
    <dc:date>2026-01-14T14:40:57.431350</dc:date>
    <dc:format>image/svg+xml</dc:format>
    <dc:creator>
     <cc:Agent>
      <dc:title>Matplotlib v3.9.2, https://matplotlib.org/</dc:title>
     </cc:Agent>
    </dc:creator>
   </cc:Work>
  </rdf:RDF>
 </metadata>
 <defs>
  <style type="text/css">*{stroke-linejoin: round; stroke-linecap: butt}</style>
 </defs>
 <g id="figure_1">
  <g id="patch_1">
   <path d="M 0 568.242187 
L 857.401719 568.242187 
L 857.401719 0 
L 0 0 
z
" style="fill: #ffffff"/>
  </g>
  <g id="axes_1">
   <g id="patch_2">
    <path d="M 57.060719 171.795 
L 850.201719 171.795 
L 850.201719 22.0425 
L 57.060719 22.0425 
z
" style="fill: #ffffff"/>
   </g>
   <g id="patch_3">
    <path d="M 52.164787 171.795 
L 61.956651 171.795 
L 61.956651 22.0425 
L 52.164787 22.0425 
z
" clip-path="url(#p79715c89ff)" style="fill: #e0e0e0"/>
   </g>
   <g id="patch_4">
    <path d="M 61.956651 171.795 
L 71.748515 171.795 
L 71.748515 22.0425 
L 61.956651 22.0425 
z
" clip-path="url(#p79715c89ff)" style="fill: #e0e0e0"/>
   </g>
   <g id="patch_5">
    <path d="M 71.748515 171.795 
L 81.540379 171.795 
L 81.540379 22.0425 
L 71.748515 22.0425 
z
" clip-path="url(#p79715c89ff)" style="fill: #e0e0e0"/>
   </g>
   <g id="patch_6">
    <path d="M 81.540379 171.795 
L 91.332243 171.795 
L 91.332243 22.0425 
L 81.540379 22.0425 
z
" clip-path="url(#p79715c89ff)" style="fill: #e0e0e0"/>
   </g>
   <g id="patch_7">
    <path d="M 91.332243 171.795 
L 101.124108 171.795 
L 101.124108 22.0425 
L 91.332243 22.0425 
z
" clip-path="url(#p79715c89ff)" style="fill: #e0e0e0"/>
   </g>
   <g id="patch_8">
    <path d="M 101.124108 171.795 
L 110.915972 171.795 
L 110.915972 22.0425 
L 101.124108 22.0425 
z
" clip-path="url(#p79715c89ff)" style="fill: #e0e0e0"/>
   </g>
   <g id="patch_9">
    <path d="M 110.915972 171.795 
L 120.707836 171.795 
L 120.707836 22.0425 
L 110.915972 22.0425 
z
" clip-path="url(#p79715c89ff)" style="fill: #e0e0e0"/>
   </g>
   <g id="patch_10">
    <path d="M 120.707836 171.795 
L 130.4997 171.795 
L 130.4997 22.0425 
L 120.707836 22.0425 
z
" clip-path="url(#p79715c89ff)" style="fill: #e0e0e0"/>
   </g>
   <g id="patch_11">
    <path d="M 130.4997 171.795 
L 140.291564 171.795 
L 140.291564 22.0425 
L 130.4997 22.0425 
z
" clip-path="url(#p79715c89ff)" style="fill: #e0e0e0"/>
   </g>
   <g id="patch_12">
    <path d="M 140.291564 171.795 
L 150.083429 171.795 
L 150.083429 22.0425 
L 140.291564 22.0425 
z
" clip-path="url(#p79715c89ff)" style="fill: #e0e0e0"/>
   </g>
   <g id="patch_13">
    <path d="M 150.083429 171.795 
L 159.875293 171.795 
L 159.875293 22.0425 
L 150.083429 22.0425 
z
" clip-path="url(#p79715c89ff)" style="fill: #e0e0e0"/>
   </g>
   <g id="patch_14">
    <path d="M 159.875293 171.795 
L 169.667157 171.795 
L 169.667157 22.0425 
L 159.875293 22.0425 
z
" clip-path="url(#p79715c89ff)" style="fill: #e0e0e0"/>
   </g>
   <g id="patch_15">
    <path d="M 169.667157 171.795 
L 179.459021 171.795 
L 179.459021 22.0425 
L 169.667157 22.0425 
z
" clip-path="url(#p79715c89ff)" style="fill: #e0e0e0"/>
   </g>
   <g id="patch_16">
    <path d="M 179.459021 171.795 
L 189.250885 171.795 
L 189.250885 22.0425 
L 179.459021 22.0425 
z
" clip-path="url(#p79715c89ff)" style="fill: #e0e0e0"/>
   </g>
   <g id="patch_17">
    <path d="M 189.250885 171.795 
L 199.04275 171.795 
L 199.04275 22.0425 
L 189.250885 22.0425 
z
" clip-path="url(#p79715c89ff)" style="fill: #e0e0e0"/>
   </g>
   <g id="patch_18">
    <path d="M 199.04275 171.795 
L 208.834614 171.795 
L 208.834614 22.0425 
L 199.04275 22.0425 
z
" clip-path="url(#p79715c89ff)" style="fill: #e0e0e0"/>
   </g>
   <g id="patch_19">
    <path d="M 208.834614 171.795 
L 218.626478 171.795 
L 218.626478 22.0425 
L 208.834614 22.0425 
z
" clip-path="url(#p79715c89ff)" style="fill: #e0e0e0"/>
   </g>
   <g id="patch_20">
    <path d="M 218.626478 171.795 
L 228.418342 171.795 
L 228.418342 22.0425 
L 218.626478 22.0425 
z
" clip-path="url(#p79715c89ff)" style="fill: #e0e0e0"/>
   </g>
   <g id="patch_21">
    <path d="M 228.418342 171.795 
L 238.210206 171.795 
L 238.210206 22.0425 
L 228.418342 22.0425 
z
" clip-path="url(#p79715c89ff)" style="fill: #e0e0e0"/>
   </g>
   <g id="patch_22">
    <path d="M 238.210206 171.795 
L 248.002071 171.795 
L 248.002071 22.0425 
L 238.210206 22.0425 
z
" clip-path="url(#p79715c89ff)" style="fill: #e0e0e0"/>
   </g>
   <g id="patch_23">
    <path d="M 248.002071 171.795 
L 257.793935 171.795 
L 257.793935 22.0425 
L 248.002071 22.0425 
z
" clip-path="url(#p79715c89ff)" style="fill: #e0e0e0"/>
   </g>
   <g id="patch_24">
    <path d="M 257.793935 171.795 
L 267.585799 171.795 
L 267.585799 22.0425 
L 257.793935 22.0425 
z
" clip-path="url(#p79715c89ff)" style="fill: #e0e0e0"/>
   </g>
   <g id="patch_25">
    <path d="M 267.585799 171.795 
L 277.377663 171.795 
L 277.377663 22.0425 
L 267.585799 22.0425 
z
" clip-path="url(#p79715c89ff)" style="fill: #e0e0e0"/>
   </g>
   <g id="patch_26">
    <path d="M 277.377663 171.795 
L 287.169527 171.795 
L 287.169527 22.0425 
L 277.377663 22.0425 
z
" clip-path="url(#p79715c89ff)" style="fill: #e0e0e0"/>
   </g>
   <g id="patch_27">
    <path d="M 287.169527 171.795 
L 296.961392 171.795 
L 296.961392 22.0425 
L 287.169527 22.0425 
z
" clip-path="url(#p79715c89ff)" style="fill: #e0e0e0"/>
   </g>
   <g id="patch_28">
    <path d="M 296.961392 171.795 
L 306.753256 171.795 
L 306.753256 22.0425 
L 296.961392 22.0425 
z
" clip-path="url(#p79715c89ff)" style="fill: #e0e0e0"/>
   </g>
   <g id="patch_29">
    <path d="M 306.753256 171.795 
L 316.54512 171.795 
L 316.54512 22.0425 
L 306.753256 22.0425 
z
" clip-path="url(#p79715c89ff)" style="fill: #e0e0e0"/>
   </g>
   <g id="patch_30">
    <path d="M 316.54512 171.795 
L 326.336984 171.795 
L 326.336984 22.0425 
L 316.54512 22.0425 
z
" clip-path="url(#p79715c89ff)" style="fill: #e0e0e0"/>
   </g>
   <g id="patch_31">
    <path d="M 326.336984 171.795 
L 336.128848 171.795 
L 336.128848 22.0425 
L 326.336984 22.0425 
z
" clip-path="url(#p79715c89ff)" style="fill: #e0e0e0"/>
   </g>
   <g id="patch_32">
    <path d="M 336.128848 171.795 
L 345.920713 171.795 
L 345.920713 22.0425 
L 336.128848 22.0425 
z
" clip-path="url(#p79715c89ff)" style="fill: #e0e0e0"/>
   </g>
   <g id="patch_33">
    <path d="M 345.920713 171.795 
L 355.712577 171.795 
L 355.712577 22.0425 
L 345.920713 22.0425 
z
" clip-path="url(#p79715c89ff)" style="fill: #e0e0e0"/>
   </g>
   <g id="patch_34">
    <path d="M 355.712577 171.795 
L 365.504441 171.795 
L 365.504441 22.0425 
L 355.712577 22.0425 
z
" clip-path="url(#p79715c89ff)" style="fill: #e0e0e0"/>
   </g>
   <g id="patch_35">
    <path d="M 365.504441 171.795 
L 375.296305 171.795 
L 375.296305 22.0425 
L 365.504441 22.0425 
z
" clip-path="url(#p79715c89ff)" style="fill: #e0e0e0"/>
   </g>
   <g id="patch_36">
    <path d="M 375.296305 171.795 
L 385.088169 171.795 
L 385.088169 22.0425 
L 375.296305 22.0425 
z
" clip-path="url(#p79715c89ff)" style="fill: #e85d04"/>
   </g>
   <g id="patch_37">
    <path d="M 385.088169 171.795 
L 394.880034 171.795 
L 394.880034 22.0425 
L 385.088169 22.0425 
z
" clip-path="url(#p79715c89ff)" style="fill: #e85d04"/>
   </g>
   <g id="patch_38">
    <path d="M 394.880034 171.795 
L 404.671898 171.795 
L 404.671898 22.0425 
L 394.880034 22.0425 
z
" clip-path="url(#p79715c89ff)" style="fill: #e85d04"/>
   </g>
   <g id="patch_39">
    <path d="M 404.671898 171.795 
L 414.463762 171.795 
L 414.463762 22.0425 
L 404.671898 22.0425 
z
" clip-path="url(#p79715c89ff)" style="fill: #e85d04"/>
   </g>
   <g id="patch_40">
    <path d="M 414.463762 171.795 
L 424.255626 171.795 
L 424.255626 22.0425 
L 414.463762 22.0425 
z
" clip-path="url(#p79715c89ff)" style="fill: #e85d04"/>
   </g>
   <g id="patch_41">
    <path d="M 424.255626 171.795 
L 434.04749 171.795 
L 434.04749 22.0425 
L 424.255626 22.0425 
z
" clip-path="url(#p79715c89ff)" style="fill: #e0e0e0"/>
   </g>
   <g id="patch_42">
    <path d="M 434.04749 171.795 
L 443.839355 171.795 
L 443.839355 22.0425 
L 434.04749 22.0425 
z
" clip-path="url(#p79715c89ff)" style="fill: #e0e0e0"/>
   </g>
   <g id="patch_43">
    <path d="M 443.839355 171.795 
L 453.631219 171.795 
L 453.631219 22.0425 
L 443.839355 22.0425 
z
" clip-path="url(#p79715c89ff)" style="fill: #e0e0e0"/>
   </g>
   <g id="patch_44">
    <path d="M 453.631219 171.795 
L 463.423083 171.795 
L 463.423083 22.0425 
L 453.631219 22.0425 
z
" clip-path="url(#p79715c89ff)" style="fill: #e0e0e0"/>
   </g>
   <g id="patch_45">
    <path d="M 463.423083 171.795 
L 473.214947 171.795 
L 473.214947 22.0425 
L 463.423083 22.0425 
z
" clip-path="url(#p79715c89ff)" style="fill: #e0e0e0"/>
   </g>
   <g id="patch_46">
    <path d="M 473.214947 171.795 
L 483.006811 171.795 
L 483.006811 22.0425 
L 473.214947 22.0425 
z
" clip-path="url(#p79715c89ff)" style="fill: #e0e0e0"/>
   </g>
   <g id="patch_47">
    <path d="M 483.006811 171.795 
L 492.798676 171.795 
L 492.798676 22.0425 
L 483.006811 22.0425 
z
" clip-path="url(#p79715c89ff)" style="fill: #e0e0e0"/>
   </g>
   <g id="patch_48">
    <path d="M 492.798676 171.795 
L 502.59054 171.795 
L 502.59054 22.0425 
L 492.798676 22.0425 
z
" clip-path="url(#p79715c89ff)" style="fill: #e0e0e0"/>
   </g>
   <g id="patch_49">
    <path d="M 502.59054 171.795 
L 512.382404 171.795 
L 512.382404 22.0425 
L 502.59054 22.0425 
z
" clip-path="url(#p79715c89ff)" style="fill: #e0e0e0"/>
   </g>
   <g id="patch_50">
    <path d="M 512.382404 171.795 
L 522.174268 171.795 
L 522.174268 22.0425 
L 512.382404 22.0425 
z
" clip-path="url(#p79715c89ff)" style="fill: #e0e0e0"/>
   </g>
   <g id="patch_51">
    <path d="M 522.174268 171.795 
L 531.966132 171.795 
L 531.966132 22.0425 
L 522.174268 22.0425 
z
" clip-path="url(#p79715c89ff)" style="fill: #e0e0e0"/>
   </g>
   <g id="patch_52">
    <path d="M 531.966132 171.795 
L 541.757997 171.795 
L 541.757997 22.0425 
L 531.966132 22.0425 
z
" clip-path="url(#p79715c89ff)" style="fill: #e0e0e0"/>
   </g>
   <g id="patch_53">
    <path d="M 541.757997 171.795 
L 551.549861 171.795 
L 551.549861 22.0425 
L 541.757997 22.0425 
z
" clip-path="url(#p79715c89ff)" style="fill: #e0e0e0"/>
   </g>
   <g id="patch_54">
    <path d="M 551.549861 171.795 
L 561.341725 171.795 
L 561.341725 22.0425 
L 551.549861 22.0425 
z
" clip-path="url(#p79715c89ff)" style="fill: #e0e0e0"/>
   </g>
   <g id="patch_55">
    <path d="M 561.341725 171.795 
L 571.133589 171.795 
L 571.133589 22.0425 
L 561.341725 22.0425 
z
" clip-path="url(#p79715c89ff)" style="fill: #e0e0e0"/>
   </g>
   <g id="patch_56">
    <path d="M 571.133589 171.795 
L 580.925453 171.795 
L 580.925453 22.0425 
L 571.133589 22.0425 
z
" clip-path="url(#p79715c89ff)" style="fill: #e0e0e0"/>
   </g>
   <g id="patch_57">
    <path d="M 580.925453 171.795 
L 590.717318 171.795 
L 590.717318 22.0425 
L 580.925453 22.0425 
z
" clip-path="url(#p79715c89ff)" style="fill: #e0e0e0"/>
   </g>
   <g id="patch_58">
    <path d="M 590.717318 171.795 
L 600.509182 171.795 
L 600.509182 22.0425 
L 590.717318 22.0425 
z
" clip-path="url(#p79715c89ff)" style="fill: #e0e0e0"/>
   </g>
   <g id="patch_59">
    <path d="M 600.509182 171.795 
L 610.301046 171.795 
L 610.301046 22.0425 
L 600.509182 22.0425 
z
" clip-path="url(#p79715c89ff)" style="fill: #e0e0e0"/>
   </g>
   <g id="patch_60">
    <path d="M 610.301046 171.795 
L 620.09291 171.795 
L 620.09291 22.0425 
L 610.301046 22.0425 
z
" clip-path="url(#p79715c89ff)" style="fill: #e0e0e0"/>
   </g>
   <g id="patch_61">
    <path d="M 620.09291 171.795 
L 629.884774 171.795 
L 629.884774 22.0425 
L 620.09291 22.0425 
z
" clip-path="url(#p79715c89ff)" style="fill: #e0e0e0"/>
   </g>
   <g id="patch_62">
    <path d="M 629.884774 171.795 
L 639.676639 171.795 
L 639.676639 22.0425 
L 629.884774 22.0425 
z
" clip-path="url(#p79715c89ff)" style="fill: #e0e0e0"/>
   </g>
   <g id="patch_63">
    <path d="M 639.676639 171.795 
L 649.468503 171.795 
L 649.468503 22.0425 
L 639.676639 22.0425 
z
" clip-path="url(#p79715c89ff)" style="fill: #e0e0e0"/>
   </g>
   <g id="patch_64">
    <path d="M 649.468503 171.795 
L 659.260367 171.795 
L 659.260367 22.0425 
L 649.468503 22.0425 
z
" clip-path="url(#p79715c89ff)" style="fill: #e0e0e0"/>
   </g>
   <g id="patch_65">
    <path d="M 659.260367 171.795 
L 669.052231 171.795 
L 669.052231 22.0425 
L 659.260367 22.0425 
z
" clip-path="url(#p79715c89ff)" style="fill: #e0e0e0"/>
   </g>
   <g id="patch_66">
    <path d="M 669.052231 171.795 
L 678.844095 171.795 
L 678.844095 22.0425 
L 669.052231 22.0425 
z
" clip-path="url(#p79715c89ff)" style="fill: #e0e0e0"/>
   </g>
   <g id="patch_67">
    <path d="M 678.844095 171.795 
L 688.635959 171.795 
L 688.635959 22.0425 
L 678.844095 22.0425 
z
" clip-path="url(#p79715c89ff)" style="fill: #e0e0e0"/>
   </g>
   <g id="patch_68">
    <path d="M 688.635959 171.795 
L 698.427824 171.795 
L 698.427824 22.0425 
L 688.635959 22.0425 
z
" clip-path="url(#p79715c89ff)" style="fill: #e0e0e0"/>
   </g>
   <g id="patch_69">
    <path d="M 698.427824 171.795 
L 708.219688 171.795 
L 708.219688 22.0425 
L 698.427824 22.0425 
z
" clip-path="url(#p79715c89ff)" style="fill: #e0e0e0"/>
   </g>
   <g id="patch_70">
    <path d="M 708.219688 171.795 
L 718.011552 171.795 
L 718.011552 22.0425 
L 708.219688 22.0425 
z
" clip-path="url(#p79715c89ff)" style="fill: #e0e0e0"/>
   </g>
   <g id="patch_71">
    <path d="M 718.011552 171.795 
L 727.803416 171.795 
L 727.803416 22.0425 
L 718.011552 22.0425 
z
" clip-path="url(#p79715c89ff)" style="fill: #e0e0e0"/>
   </g>
   <g id="patch_72">
    <path d="M 727.803416 171.795 
L 737.59528 171.795 
L 737.59528 22.0425 
L 727.803416 22.0425 
z
" clip-path="url(#p79715c89ff)" style="fill: #e0e0e0"/>
   </g>
   <g id="patch_73">
    <path d="M 737.59528 171.795 
L 747.387145 171.795 
L 747.387145 22.0425 
L 737.59528 22.0425 
z
" clip-path="url(#p79715c89ff)" style="fill: #e0e0e0"/>
   </g>
   <g id="patch_74">
    <path d="M 747.387145 171.795 
L 757.179009 171.795 
L 757.179009 22.0425 
L 747.387145 22.0425 
z
" clip-path="url(#p79715c89ff)" style="fill: #e0e0e0"/>
   </g>
   <g id="patch_75">
    <path d="M 757.179009 171.795 
L 766.970873 171.795 
L 766.970873 22.0425 
L 757.179009 22.0425 
z
" clip-path="url(#p79715c89ff)" style="fill: #e0e0e0"/>
   </g>
   <g id="patch_76">
    <path d="M 766.970873 171.795 
L 776.762737 171.795 
L 776.762737 22.0425 
L 766.970873 22.0425 
z
" clip-path="url(#p79715c89ff)" style="fill: #e0e0e0"/>
   </g>
   <g id="patch_77">
    <path d="M 776.762737 171.795 
L 786.554601 171.795 
L 786.554601 22.0425 
L 776.762737 22.0425 
z
" clip-path="url(#p79715c89ff)" style="fill: #e0e0e0"/>
   </g>
   <g id="patch_78">
    <path d="M 786.554601 171.795 
L 796.346466 171.795 
L 796.346466 22.0425 
L 786.554601 22.0425 
z
" clip-path="url(#p79715c89ff)" style="fill: #e0e0e0"/>
   </g>
   <g id="patch_79">
    <path d="M 796.346466 171.795 
L 806.13833 171.795 
L 806.13833 22.0425 
L 796.346466 22.0425 
z
" clip-path="url(#p79715c89ff)" style="fill: #e0e0e0"/>
   </g>
   <g id="patch_80">
    <path d="M 806.13833 171.795 
L 815.930194 171.795 
L 815.930194 22.0425 
L 806.13833 22.0425 
z
" clip-path="url(#p79715c89ff)" style="fill: #e0e0e0"/>
   </g>
   <g id="patch_81">
    <path d="M 815.930194 171.795 
L 825.722058 171.795 
L 825.722058 22.0425 
L 815.930194 22.0425 
z
" clip-path="url(#p79715c89ff)" style="fill: #e0e0e0"/>
   </g>
   <g id="patch_82">
    <path d="M 825.722058 171.795 
L 835.513922 171.795 
L 835.513922 22.0425 
L 825.722058 22.0425 
z
" clip-path="url(#p79715c89ff)" style="fill: #e0e0e0"/>
   </g>
   <g id="patch_83">
    <path d="M 835.513922 171.795 
L 845.305787 171.795 
L 845.305787 22.0425 
L 835.513922 22.0425 
z
" clip-path="url(#p79715c89ff)" style="fill: #e0e0e0"/>
   </g>
   <g id="patch_84">
    <path d="M 845.305787 171.795 
L 855.097651 171.795 
L 855.097651 22.0425 
L 845.305787 22.0425 
z
" clip-path="url(#p79715c89ff)" style="fill: #e0e0e0"/>
   </g>
   <g id="matplotlib.axis_1">
    <g id="xtick_1">
     <g id="line2d_1">
      <defs>
       <path id="m18dec0bcb2" d="M 0 0 
L 0 3.5 
" style="stroke: #000000; stroke-width: 0.8"/>
      </defs>
      <g>
       <use xlink:href="#m18dec0bcb2" x="145.187497" y="171.795" style="stroke: #000000; stroke-width: 0.8"/>
      </g>
     </g>
    </g>
    <g id="xtick_2">
     <g id="line2d_2">
      <g>
       <use xlink:href="#m18dec0bcb2" x="243.106139" y="171.795" style="stroke: #000000; stroke-width: 0.8"/>
      </g>
     </g>
    </g>
    <g id="xtick_3">
     <g id="line2d_3">
      <g>
       <use xlink:href="#m18dec0bcb2" x="341.02478" y="171.795" style="stroke: #000000; stroke-width: 0.8"/>
      </g>
     </g>
    </g>
    <g id="xtick_4">
     <g id="line2d_4">
      <g>
       <use xlink:href="#m18dec0bcb2" x="438.943422" y="171.795" style="stroke: #000000; stroke-width: 0.8"/>
      </g>
     </g>
    </g>
    <g id="xtick_5">
     <g id="line2d_5">
      <g>
       <use xlink:href="#m18dec0bcb2" x="536.862064" y="171.795" style="stroke: #000000; stroke-width: 0.8"/>
      </g>
     </g>
    </g>
    <g id="xtick_6">
     <g id="line2d_6">
      <g>
       <use xlink:href="#m18dec0bcb2" x="634.780706" y="171.795" style="stroke: #000000; stroke-width: 0.8"/>
      </g>
     </g>
    </g>
    <g id="xtick_7">
     <g id="line2d_7">
      <g>
       <use xlink:href="#m18dec0bcb2" x="732.699348" y="171.795" style="stroke: #000000; stroke-width: 0.8"/>
      </g>
     </g>
    </g>
    <g id="xtick_8">
     <g id="line2d_8">
      <g>
       <use xlink:href="#m18dec0bcb2" x="830.61799" y="171.795" style="stroke: #000000; stroke-width: 0.8"/>
      </g>
     </g>
    </g>
   </g>
   <g id="matplotlib.axis_2">
    <g id="text_1">
     <!-- Secondary -->
     <g transform="translate(38.940844 123.211328) rotate(-90) scale(0.11 -0.11)">
      <defs>
       <path id="Helvetica-53" d="M 894 1481 
Q 916 1091 1078 847 
Q 1388 391 2169 391 
Q 2519 391 2806 491 
Q 3363 684 3363 1184 
Q 3363 1559 3128 1719 
Q 2891 1875 2384 1991 
L 1763 2131 
Q 1153 2269 900 2434 
Q 463 2722 463 3294 
Q 463 3913 891 4309 
Q 1319 4706 2103 4706 
Q 2825 4706 3329 4357 
Q 3834 4009 3834 3244 
L 3250 3244 
Q 3203 3613 3050 3809 
Q 2766 4169 2084 4169 
Q 1534 4169 1293 3937 
Q 1053 3706 1053 3400 
Q 1053 3063 1334 2906 
Q 1519 2806 2169 2656 
L 2813 2509 
Q 3278 2403 3531 2219 
Q 3969 1897 3969 1284 
Q 3969 522 3414 194 
Q 2859 -134 2125 -134 
Q 1269 -134 784 303 
Q 300 738 309 1481 
L 894 1481 
z
M 2150 4716 
L 2150 4716 
z
" transform="scale(0.015625)"/>
       <path id="Helvetica-65" d="M 1806 3422 
Q 2163 3422 2497 3255 
Q 2831 3088 3006 2822 
Q 3175 2569 3231 2231 
Q 3281 2000 3281 1494 
L 828 1494 
Q 844 984 1069 676 
Q 1294 369 1766 369 
Q 2206 369 2469 659 
Q 2619 828 2681 1050 
L 3234 1050 
Q 3213 866 3089 639 
Q 2966 413 2813 269 
Q 2556 19 2178 -69 
Q 1975 -119 1719 -119 
Q 1094 -119 659 336 
Q 225 791 225 1609 
Q 225 2416 662 2919 
Q 1100 3422 1806 3422 
z
M 2703 1941 
Q 2669 2306 2544 2525 
Q 2313 2931 1772 2931 
Q 1384 2931 1121 2651 
Q 859 2372 844 1941 
L 2703 1941 
z
M 1753 3428 
L 1753 3428 
z
" transform="scale(0.015625)"/>
       <path id="Helvetica-63" d="M 1703 3444 
Q 2269 3444 2623 3169 
Q 2978 2894 3050 2222 
L 2503 2222 
Q 2453 2531 2275 2736 
Q 2097 2941 1703 2941 
Q 1166 2941 934 2416 
Q 784 2075 784 1575 
Q 784 1072 996 728 
Q 1209 384 1666 384 
Q 2016 384 2220 598 
Q 2425 813 2503 1184 
L 3050 1184 
Q 2956 519 2581 211 
Q 2206 -97 1622 -97 
Q 966 -97 575 383 
Q 184 863 184 1581 
Q 184 2463 612 2953 
Q 1041 3444 1703 3444 
z
M 1616 3428 
L 1616 3428 
z
" transform="scale(0.015625)"/>
       <path id="Helvetica-6f" d="M 1741 363 
Q 2300 363 2508 786 
Q 2716 1209 2716 1728 
Q 2716 2197 2566 2491 
Q 2328 2953 1747 2953 
Q 1231 2953 997 2559 
Q 763 2166 763 1609 
Q 763 1075 997 719 
Q 1231 363 1741 363 
z
M 1763 3444 
Q 2409 3444 2856 3012 
Q 3303 2581 3303 1744 
Q 3303 934 2909 406 
Q 2516 -122 1688 -122 
Q 997 -122 590 345 
Q 184 813 184 1600 
Q 184 2444 612 2944 
Q 1041 3444 1763 3444 
z
M 1744 3428 
L 1744 3428 
z
" transform="scale(0.015625)"/>
       <path id="Helvetica-6e" d="M 413 3347 
L 947 3347 
L 947 2872 
Q 1184 3166 1450 3294 
Q 1716 3422 2041 3422 
Q 2753 3422 3003 2925 
Q 3141 2653 3141 2147 
L 3141 0 
L 2569 0 
L 2569 2109 
Q 2569 2416 2478 2603 
Q 2328 2916 1934 2916 
Q 1734 2916 1606 2875 
Q 1375 2806 1200 2600 
Q 1059 2434 1017 2257 
Q 975 2081 975 1753 
L 975 0 
L 413 0 
L 413 3347 
z
M 1734 3428 
L 1734 3428 
z
" transform="scale(0.015625)"/>
       <path id="Helvetica-64" d="M 769 1634 
Q 769 1097 997 734 
Q 1225 372 1728 372 
Q 2119 372 2370 708 
Q 2622 1044 2622 1672 
Q 2622 2306 2362 2611 
Q 2103 2916 1722 2916 
Q 1297 2916 1033 2591 
Q 769 2266 769 1634 
z
M 1616 3406 
Q 2000 3406 2259 3244 
Q 2409 3150 2600 2916 
L 2600 4606 
L 3141 4606 
L 3141 0 
L 2634 0 
L 2634 466 
Q 2438 156 2169 18 
Q 1900 -119 1553 -119 
Q 994 -119 584 351 
Q 175 822 175 1603 
Q 175 2334 548 2870 
Q 922 3406 1616 3406 
z
" transform="scale(0.015625)"/>
       <path id="Helvetica-61" d="M 844 891 
Q 844 647 1022 506 
Q 1200 366 1444 366 
Q 1741 366 2019 503 
Q 2488 731 2488 1250 
L 2488 1703 
Q 2384 1638 2221 1594 
Q 2059 1550 1903 1531 
L 1563 1488 
Q 1256 1447 1103 1359 
Q 844 1213 844 891 
z
M 2206 2028 
Q 2400 2053 2466 2191 
Q 2503 2266 2503 2406 
Q 2503 2694 2298 2823 
Q 2094 2953 1713 2953 
Q 1272 2953 1088 2716 
Q 984 2584 953 2325 
L 428 2325 
Q 444 2944 830 3186 
Q 1216 3428 1725 3428 
Q 2316 3428 2684 3203 
Q 3050 2978 3050 2503 
L 3050 575 
Q 3050 488 3086 434 
Q 3122 381 3238 381 
Q 3275 381 3322 386 
Q 3369 391 3422 400 
L 3422 -16 
Q 3291 -53 3222 -62 
Q 3153 -72 3034 -72 
Q 2744 -72 2613 134 
Q 2544 244 2516 444 
Q 2344 219 2022 53 
Q 1700 -113 1313 -113 
Q 847 -113 551 170 
Q 256 453 256 878 
Q 256 1344 547 1600 
Q 838 1856 1309 1916 
L 2206 2028 
z
M 1741 3428 
L 1741 3428 
z
" transform="scale(0.015625)"/>
       <path id="Helvetica-72" d="M 428 3347 
L 963 3347 
L 963 2769 
Q 1028 2938 1284 3180 
Q 1541 3422 1875 3422 
Q 1891 3422 1928 3419 
Q 1966 3416 2056 3406 
L 2056 2813 
Q 2006 2822 1964 2825 
Q 1922 2828 1872 2828 
Q 1447 2828 1219 2554 
Q 991 2281 991 1925 
L 991 0 
L 428 0 
L 428 3347 
z
" transform="scale(0.015625)"/>
       <path id="Helvetica-79" d="M 2503 3347 
L 3125 3347 
Q 3006 3025 2597 1878 
Q 2291 1016 2084 472 
Q 1597 -809 1397 -1090 
Q 1197 -1372 709 -1372 
Q 591 -1372 527 -1362 
Q 463 -1353 369 -1328 
L 369 -816 
Q 516 -856 581 -865 
Q 647 -875 697 -875 
Q 853 -875 926 -823 
Q 1000 -772 1050 -697 
Q 1066 -672 1162 -440 
Q 1259 -209 1303 -97 
L 66 3347 
L 703 3347 
L 1600 622 
L 2503 3347 
z
M 1597 3428 
L 1597 3428 
z
" transform="scale(0.015625)"/>
      </defs>
      <use xlink:href="#Helvetica-53"/>
      <use xlink:href="#Helvetica-65" x="66.699219"/>
      <use xlink:href="#Helvetica-63" x="122.314453"/>
      <use xlink:href="#Helvetica-6f" x="172.314453"/>
      <use xlink:href="#Helvetica-6e" x="227.929688"/>
      <use xlink:href="#Helvetica-64" x="283.544922"/>
      <use xlink:href="#Helvetica-61" x="339.160156"/>
      <use xlink:href="#Helvetica-72" x="394.775391"/>
      <use xlink:href="#Helvetica-79" x="428.076172"/>
     </g>
     <!-- Structure -->
     <g transform="translate(50.767906 119.231562) rotate(-90) scale(0.11 -0.11)">
      <defs>
       <path id="Helvetica-74" d="M 525 4281 
L 1094 4281 
L 1094 3347 
L 1628 3347 
L 1628 2888 
L 1094 2888 
L 1094 703 
Q 1094 528 1213 469 
Q 1278 434 1431 434 
Q 1472 434 1519 436 
Q 1566 438 1628 444 
L 1628 0 
Q 1531 -28 1426 -40 
Q 1322 -53 1200 -53 
Q 806 -53 665 148 
Q 525 350 525 672 
L 525 2888 
L 72 2888 
L 72 3347 
L 525 3347 
L 525 4281 
z
" transform="scale(0.015625)"/>
       <path id="Helvetica-75" d="M 975 3347 
L 975 1125 
Q 975 869 1056 706 
Q 1206 406 1616 406 
Q 2203 406 2416 931 
Q 2531 1213 2531 1703 
L 2531 3347 
L 3094 3347 
L 3094 0 
L 2563 0 
L 2569 494 
Q 2459 303 2297 172 
Q 1975 -91 1516 -91 
Q 800 -91 541 388 
Q 400 644 400 1072 
L 400 3347 
L 975 3347 
z
M 1747 3428 
L 1747 3428 
z
" transform="scale(0.015625)"/>
      </defs>
      <use xlink:href="#Helvetica-53"/>
      <use xlink:href="#Helvetica-74" x="66.699219"/>
      <use xlink:href="#Helvetica-72" x="94.482422"/>
      <use xlink:href="#Helvetica-75" x="127.783203"/>
      <use xlink:href="#Helvetica-63" x="183.398438"/>
      <use xlink:href="#Helvetica-74" x="233.398438"/>
      <use xlink:href="#Helvetica-75" x="261.181641"/>
      <use xlink:href="#Helvetica-72" x="316.796875"/>
      <use xlink:href="#Helvetica-65" x="350.097656"/>
     </g>
    </g>
   </g>
   <g id="line2d_9">
    <path d="M 380.192237 171.795 
L 380.192237 22.0425 
" clip-path="url(#p79715c89ff)" style="fill: none; stroke-dasharray: 1,1.65; stroke-dashoffset: 0; stroke: #808080; stroke-opacity: 0.7"/>
   </g>
   <g id="patch_85">
    <path d="M 57.060719 171.795 
L 57.060719 22.0425 
" style="fill: none; stroke: #000000; stroke-width: 1.2; stroke-linejoin: miter; stroke-linecap: square"/>
   </g>
   <g id="patch_86">
    <path d="M 57.060719 171.795 
L 850.201719 171.795 
" style="fill: none; stroke: #000000; stroke-width: 1.2; stroke-linejoin: miter; stroke-linecap: square"/>
   </g>
   <g id="text_2">
    <!-- α1 -->
    <g style="fill: #ffffff" transform="translate(393.941591 99.463281) scale(0.1 -0.1)">
     <defs>
      <path id="Helvetica-3b1" d="M 3347 703 
Q 3334 428 3525 434 
Q 3641 434 3700 475 
L 3700 -19 
Q 3628 -44 3513 -50 
Q 3391 -63 3309 -63 
Q 3084 -56 2956 103 
Q 2816 256 2816 475 
L 2803 475 
Q 2413 -63 1734 -63 
Q 1006 -50 647 459 
Q 281 953 281 1644 
Q 281 2350 634 2859 
Q 984 3378 1741 3391 
Q 2413 3391 2797 2847 
L 2809 2847 
L 2809 3328 
L 3347 3328 
L 3347 703 
z
M 1825 397 
Q 2075 397 2253 513 
Q 2425 622 2541 806 
Q 2766 1184 2766 1638 
Q 2766 2144 2559 2528 
Q 2350 2919 1797 2931 
Q 1306 2919 1081 2534 
Q 856 2156 856 1697 
Q 856 1209 1081 819 
Q 1306 409 1825 397 
z
" transform="scale(0.015625)"/>
      <path id="Helvetica-31" d="M 613 3169 
L 613 3600 
Q 1222 3659 1462 3798 
Q 1703 3938 1822 4456 
L 2266 4456 
L 2266 0 
L 1666 0 
L 1666 3169 
L 613 3169 
z
" transform="scale(0.015625)"/>
     </defs>
     <use xlink:href="#Helvetica-3b1"/>
     <use xlink:href="#Helvetica-31" x="61.083984"/>
    </g>
   </g>
   <g id="text_3">
    <!-- A. Secondary Structure Assignment -->
    <g transform="translate(57.060719 16.0425) scale(0.12 -0.12)">
     <defs>
      <path id="Helvetica-41" d="M 2844 1881 
L 2147 3909 
L 1406 1881 
L 2844 1881 
z
M 1822 4591 
L 2525 4591 
L 4191 0 
L 3509 0 
L 3044 1375 
L 1228 1375 
L 731 0 
L 94 0 
L 1822 4591 
z
" transform="scale(0.015625)"/>
      <path id="Helvetica-2e" d="M 547 681 
L 1200 681 
L 1200 0 
L 547 0 
L 547 681 
z
" transform="scale(0.015625)"/>
      <path id="Helvetica-20" transform="scale(0.015625)"/>
      <path id="Helvetica-73" d="M 747 1050 
Q 772 769 888 619 
Q 1100 347 1625 347 
Q 1938 347 2175 483 
Q 2413 619 2413 903 
Q 2413 1119 2222 1231 
Q 2100 1300 1741 1391 
L 1294 1503 
Q 866 1609 663 1741 
Q 300 1969 300 2372 
Q 300 2847 642 3140 
Q 984 3434 1563 3434 
Q 2319 3434 2653 2991 
Q 2863 2709 2856 2384 
L 2325 2384 
Q 2309 2575 2191 2731 
Q 1997 2953 1519 2953 
Q 1200 2953 1036 2831 
Q 872 2709 872 2509 
Q 872 2291 1088 2159 
Q 1213 2081 1456 2022 
L 1828 1931 
Q 2434 1784 2641 1647 
Q 2969 1431 2969 969 
Q 2969 522 2630 197 
Q 2291 -128 1597 -128 
Q 850 -128 539 211 
Q 228 550 206 1050 
L 747 1050 
z
M 1578 3428 
L 1578 3428 
z
" transform="scale(0.015625)"/>
      <path id="Helvetica-69" d="M 413 3331 
L 984 3331 
L 984 0 
L 413 0 
L 413 3331 
z
M 413 4591 
L 984 4591 
L 984 3953 
L 413 3953 
L 413 4591 
z
" transform="scale(0.015625)"/>
      <path id="Helvetica-67" d="M 1594 3406 
Q 1988 3406 2281 3213 
Q 2441 3103 2606 2894 
L 2606 3316 
L 3125 3316 
L 3125 272 
Q 3125 -366 2938 -734 
Q 2588 -1416 1616 -1416 
Q 1075 -1416 706 -1173 
Q 338 -931 294 -416 
L 866 -416 
Q 906 -641 1028 -763 
Q 1219 -950 1628 -950 
Q 2275 -950 2475 -494 
Q 2594 -225 2584 466 
Q 2416 209 2178 84 
Q 1941 -41 1550 -41 
Q 1006 -41 598 345 
Q 191 731 191 1622 
Q 191 2463 602 2934 
Q 1013 3406 1594 3406 
z
M 2606 1688 
Q 2606 2309 2350 2609 
Q 2094 2909 1697 2909 
Q 1103 2909 884 2353 
Q 769 2056 769 1575 
Q 769 1009 998 714 
Q 1228 419 1616 419 
Q 2222 419 2469 966 
Q 2606 1275 2606 1688 
z
M 1659 3428 
L 1659 3428 
z
" transform="scale(0.015625)"/>
      <path id="Helvetica-6d" d="M 413 3347 
L 969 3347 
L 969 2872 
Q 1169 3119 1331 3231 
Q 1609 3422 1963 3422 
Q 2363 3422 2606 3225 
Q 2744 3113 2856 2894 
Q 3044 3163 3297 3292 
Q 3550 3422 3866 3422 
Q 4541 3422 4784 2934 
Q 4916 2672 4916 2228 
L 4916 0 
L 4331 0 
L 4331 2325 
Q 4331 2659 4164 2784 
Q 3997 2909 3756 2909 
Q 3425 2909 3186 2687 
Q 2947 2466 2947 1947 
L 2947 0 
L 2375 0 
L 2375 2184 
Q 2375 2525 2294 2681 
Q 2166 2916 1816 2916 
Q 1497 2916 1236 2669 
Q 975 2422 975 1775 
L 975 0 
L 413 0 
L 413 3347 
z
" transform="scale(0.015625)"/>
     </defs>
     <use xlink:href="#Helvetica-41"/>
     <use xlink:href="#Helvetica-2e" x="66.699219"/>
     <use xlink:href="#Helvetica-20" x="94.482422"/>
     <use xlink:href="#Helvetica-53" x="122.265625"/>
     <use xlink:href="#Helvetica-65" x="188.964844"/>
     <use xlink:href="#Helvetica-63" x="244.580078"/>
     <use xlink:href="#Helvetica-6f" x="294.580078"/>
     <use xlink:href="#Helvetica-6e" x="350.195312"/>
     <use xlink:href="#Helvetica-64" x="405.810547"/>
     <use xlink:href="#Helvetica-61" x="461.425781"/>
     <use xlink:href="#Helvetica-72" x="517.041016"/>
     <use xlink:href="#Helvetica-79" x="550.341797"/>
     <use xlink:href="#Helvetica-20" x="600.341797"/>
     <use xlink:href="#Helvetica-53" x="628.125"/>
     <use xlink:href="#Helvetica-74" x="694.824219"/>
     <use xlink:href="#Helvetica-72" x="722.607422"/>
     <use xlink:href="#Helvetica-75" x="755.908203"/>
     <use xlink:href="#Helvetica-63" x="811.523438"/>
     <use xlink:href="#Helvetica-74" x="861.523438"/>
     <use xlink:href="#Helvetica-75" x="889.306641"/>
     <use xlink:href="#Helvetica-72" x="944.921875"/>
     <use xlink:href="#Helvetica-65" x="978.222656"/>
     <use xlink:href="#Helvetica-20" x="1033.837891"/>
     <use xlink:href="#Helvetica-41" x="1061.621094"/>
     <use xlink:href="#Helvetica-73" x="1128.320312"/>
     <use xlink:href="#Helvetica-73" x="1178.320312"/>
     <use xlink:href="#Helvetica-69" x="1228.320312"/>
     <use xlink:href="#Helvetica-67" x="1250.537109"/>
     <use xlink:href="#Helvetica-6e" x="1306.152344"/>
     <use xlink:href="#Helvetica-6d" x="1361.767578"/>
     <use xlink:href="#Helvetica-65" x="1445.068359"/>
     <use xlink:href="#Helvetica-6e" x="1500.683594"/>
     <use xlink:href="#Helvetica-74" x="1556.298828"/>
    </g>
   </g>
   <g id="legend_1">
    <g id="patch_87">
     <path d="M 632.743906 38.215937 
L 652.743906 38.215937 
L 652.743906 31.215937 
L 632.743906 31.215937 
z
" style="fill: #e85d04"/>
    </g>
    <g id="text_4">
     <!-- α-helix -->
     <g transform="translate(660.743906 38.215937) scale(0.1 -0.1)">
      <defs>
       <path id="Helvetica-2d" d="M 266 2072 
L 1834 2072 
L 1834 1494 
L 266 1494 
L 266 2072 
z
" transform="scale(0.015625)"/>
       <path id="Helvetica-68" d="M 413 4606 
L 975 4606 
L 975 2894 
Q 1175 3147 1334 3250 
Q 1606 3428 2013 3428 
Q 2741 3428 3000 2919 
Q 3141 2641 3141 2147 
L 3141 0 
L 2563 0 
L 2563 2109 
Q 2563 2478 2469 2650 
Q 2316 2925 1894 2925 
Q 1544 2925 1259 2684 
Q 975 2444 975 1775 
L 975 0 
L 413 0 
L 413 4606 
z
" transform="scale(0.015625)"/>
       <path id="Helvetica-6c" d="M 428 4591 
L 991 4591 
L 991 0 
L 428 0 
L 428 4591 
z
" transform="scale(0.015625)"/>
       <path id="Helvetica-78" d="M 94 3347 
L 822 3347 
L 1591 2169 
L 2369 3347 
L 3053 3331 
L 1925 1716 
L 3103 0 
L 2384 0 
L 1553 1256 
L 747 0 
L 34 0 
L 1213 1716 
L 94 3347 
z
" transform="scale(0.015625)"/>
      </defs>
      <use xlink:href="#Helvetica-3b1"/>
      <use xlink:href="#Helvetica-2d" x="61.083984"/>
      <use xlink:href="#Helvetica-68" x="94.384766"/>
      <use xlink:href="#Helvetica-65" x="150"/>
      <use xlink:href="#Helvetica-6c" x="205.615234"/>
      <use xlink:href="#Helvetica-69" x="227.832031"/>
      <use xlink:href="#Helvetica-78" x="250.048828"/>
     </g>
    </g>
    <g id="patch_88">
     <path d="M 710.747031 38.215937 
L 730.747031 38.215937 
L 730.747031 31.215937 
L 710.747031 31.215937 
z
" style="fill: #048a81"/>
    </g>
    <g id="text_5">
     <!-- β-strand -->
     <g transform="translate(738.747031 38.215937) scale(0.1 -0.1)">
      <defs>
       <path id="Helvetica-3b2" d="M 1131 -1253 
L 563 -1253 
L 563 3134 
Q 563 4606 2009 4634 
Q 2578 4634 2956 4353 
Q 3334 4063 3341 3525 
Q 3334 2681 2559 2444 
L 2559 2431 
Q 3538 2278 3553 1288 
Q 3547 703 3206 325 
Q 2853 -56 2253 -63 
Q 1888 -63 1638 44 
Q 1381 153 1131 428 
L 1131 -1253 
z
M 1141 1544 
Q 1141 1319 1184 1113 
Q 1228 916 1331 750 
Q 1441 588 1638 500 
Q 1831 397 2131 397 
Q 2534 397 2759 659 
Q 2975 909 2975 1306 
Q 2969 1778 2681 1978 
Q 2394 2163 1966 2163 
Q 1803 2156 1638 2144 
L 1638 2625 
Q 1778 2625 1906 2631 
Q 2266 2638 2516 2828 
Q 2759 3016 2766 3431 
Q 2747 4172 1978 4172 
Q 1534 4166 1338 3909 
Q 1141 3647 1141 3200 
L 1141 1544 
z
" transform="scale(0.015625)"/>
      </defs>
      <use xlink:href="#Helvetica-3b2"/>
      <use xlink:href="#Helvetica-2d" x="61.083984"/>
      <use xlink:href="#Helvetica-73" x="94.384766"/>
      <use xlink:href="#Helvetica-74" x="144.384766"/>
      <use xlink:href="#Helvetica-72" x="172.167969"/>
      <use xlink:href="#Helvetica-61" x="205.46875"/>
      <use xlink:href="#Helvetica-6e" x="261.083984"/>
      <use xlink:href="#Helvetica-64" x="316.699219"/>
     </g>
    </g>
    <g id="patch_89">
     <path d="M 795.975156 38.215937 
L 815.975156 38.215937 
L 815.975156 31.215937 
L 795.975156 31.215937 
z
" style="fill: #e0e0e0"/>
    </g>
    <g id="text_6">
     <!-- Coil -->
     <g transform="translate(823.975156 38.215937) scale(0.1 -0.1)">
      <defs>
       <path id="Helvetica-43" d="M 2422 4716 
Q 3294 4716 3775 4256 
Q 4256 3797 4309 3213 
L 3703 3213 
Q 3600 3656 3292 3915 
Q 2984 4175 2428 4175 
Q 1750 4175 1333 3698 
Q 916 3222 916 2238 
Q 916 1431 1292 929 
Q 1669 428 2416 428 
Q 3103 428 3463 956 
Q 3653 1234 3747 1688 
L 4353 1688 
Q 4272 963 3816 472 
Q 3269 -119 2341 -119 
Q 1541 -119 997 366 
Q 281 1006 281 2344 
Q 281 3359 819 4009 
Q 1400 4716 2422 4716 
z
M 2297 4716 
L 2297 4716 
z
" transform="scale(0.015625)"/>
      </defs>
      <use xlink:href="#Helvetica-43"/>
      <use xlink:href="#Helvetica-6f" x="72.216797"/>
      <use xlink:href="#Helvetica-69" x="127.832031"/>
      <use xlink:href="#Helvetica-6c" x="150.048828"/>
     </g>
    </g>
   </g>
  </g>
  <g id="axes_2">
   <g id="patch_90">
    <path d="M 57.060719 350.735 
L 850.201719 350.735 
L 850.201719 200.9825 
L 57.060719 200.9825 
z
" style="fill: #ffffff"/>
   </g>
   <g id="patch_91">
    <path d="M 57.060719 350.735 
L 174.563089 350.735 
L 174.563089 200.9825 
L 57.060719 200.9825 
z
" clip-path="url(#p30c09c18c9)" style="fill: #2e4057; opacity: 0.4; stroke: #2e4057; stroke-linejoin: miter"/>
   </g>
   <g id="patch_92">
    <path d="M 174.563089 350.735 
L 380.192237 350.735 
L 380.192237 200.9825 
L 174.563089 200.9825 
z
" clip-path="url(#p30c09c18c9)" style="fill: #f9c74f; opacity: 0.4; stroke: #f9c74f; stroke-linejoin: miter"/>
   </g>
   <g id="patch_93">
    <path d="M 380.192237 350.735 
L 850.201719 350.735 
L 850.201719 200.9825 
L 380.192237 200.9825 
z
" clip-path="url(#p30c09c18c9)" style="fill: #90be6d; opacity: 0.2; stroke: #90be6d; stroke-linejoin: miter"/>
   </g>
   <g id="matplotlib.axis_3">
    <g id="xtick_9">
     <g id="line2d_10">
      <g>
       <use xlink:href="#m18dec0bcb2" x="145.187497" y="350.735" style="stroke: #000000; stroke-width: 0.8"/>
      </g>
     </g>
    </g>
    <g id="xtick_10">
     <g id="line2d_11">
      <g>
       <use xlink:href="#m18dec0bcb2" x="243.106139" y="350.735" style="stroke: #000000; stroke-width: 0.8"/>
      </g>
     </g>
    </g>
    <g id="xtick_11">
     <g id="line2d_12">
      <g>
       <use xlink:href="#m18dec0bcb2" x="341.02478" y="350.735" style="stroke: #000000; stroke-width: 0.8"/>
      </g>
     </g>
    </g>
    <g id="xtick_12">
     <g id="line2d_13">
      <g>
       <use xlink:href="#m18dec0bcb2" x="438.943422" y="350.735" style="stroke: #000000; stroke-width: 0.8"/>
      </g>
     </g>
    </g>
    <g id="xtick_13">
     <g id="line2d_14">
      <g>
       <use xlink:href="#m18dec0bcb2" x="536.862064" y="350.735" style="stroke: #000000; stroke-width: 0.8"/>
      </g>
     </g>
    </g>
    <g id="xtick_14">
     <g id="line2d_15">
      <g>
       <use xlink:href="#m18dec0bcb2" x="634.780706" y="350.735" style="stroke: #000000; stroke-width: 0.8"/>
      </g>
     </g>
    </g>
    <g id="xtick_15">
     <g id="line2d_16">
      <g>
       <use xlink:href="#m18dec0bcb2" x="732.699348" y="350.735" style="stroke: #000000; stroke-width: 0.8"/>
      </g>
     </g>
    </g>
    <g id="xtick_16">
     <g id="line2d_17">
      <g>
       <use xlink:href="#m18dec0bcb2" x="830.61799" y="350.735" style="stroke: #000000; stroke-width: 0.8"/>
      </g>
     </g>
    </g>
   </g>
   <g id="matplotlib.axis_4">
    <g id="text_7">
     <!-- Motif -->
     <g transform="translate(39.006156 287.776562) rotate(-90) scale(0.11 -0.11)">
      <defs>
       <path id="Helvetica-4d" d="M 472 4591 
L 1363 4591 
L 2681 709 
L 3991 4591 
L 4872 4591 
L 4872 0 
L 4281 0 
L 4281 2709 
Q 4281 2850 4287 3175 
Q 4294 3500 4294 3872 
L 2984 0 
L 2369 0 
L 1050 3872 
L 1050 3731 
Q 1050 3563 1058 3217 
Q 1066 2872 1066 2709 
L 1066 0 
L 472 0 
L 472 4591 
z
" transform="scale(0.015625)"/>
       <path id="Helvetica-66" d="M 553 3856 
Q 566 4206 675 4369 
Q 872 4656 1434 4656 
Q 1488 4656 1544 4653 
Q 1600 4650 1672 4644 
L 1672 4131 
Q 1584 4138 1545 4139 
Q 1506 4141 1472 4141 
Q 1216 4141 1166 4008 
Q 1116 3875 1116 3331 
L 1672 3331 
L 1672 2888 
L 1109 2888 
L 1109 0 
L 553 0 
L 553 2888 
L 88 2888 
L 88 3331 
L 553 3331 
L 553 3856 
z
" transform="scale(0.015625)"/>
      </defs>
      <use xlink:href="#Helvetica-4d"/>
      <use xlink:href="#Helvetica-6f" x="83.300781"/>
      <use xlink:href="#Helvetica-74" x="138.916016"/>
      <use xlink:href="#Helvetica-69" x="166.699219"/>
      <use xlink:href="#Helvetica-66" x="188.916016"/>
     </g>
     <!-- Position -->
     <g transform="translate(50.767906 295.425) rotate(-90) scale(0.11 -0.11)">
      <defs>
       <path id="Helvetica-50" d="M 547 4591 
L 2613 4591 
Q 3225 4591 3600 4245 
Q 3975 3900 3975 3275 
Q 3975 2738 3640 2339 
Q 3306 1941 2613 1941 
L 1169 1941 
L 1169 0 
L 547 0 
L 547 4591 
z
M 3347 3272 
Q 3347 3778 2972 3959 
Q 2766 4056 2406 4056 
L 1169 4056 
L 1169 2466 
L 2406 2466 
Q 2825 2466 3086 2644 
Q 3347 2822 3347 3272 
z
" transform="scale(0.015625)"/>
      </defs>
      <use xlink:href="#Helvetica-50"/>
      <use xlink:href="#Helvetica-6f" x="66.699219"/>
      <use xlink:href="#Helvetica-73" x="122.314453"/>
      <use xlink:href="#Helvetica-69" x="172.314453"/>
      <use xlink:href="#Helvetica-74" x="194.53125"/>
      <use xlink:href="#Helvetica-69" x="222.314453"/>
      <use xlink:href="#Helvetica-6f" x="244.53125"/>
      <use xlink:href="#Helvetica-6e" x="300.146484"/>
     </g>
    </g>
   </g>
   <g id="line2d_18">
    <path d="M 380.192237 350.735 
L 380.192237 200.9825 
" clip-path="url(#p30c09c18c9)" style="fill: none; stroke-dasharray: 1,1.65; stroke-dashoffset: 0; stroke: #808080; stroke-opacity: 0.7"/>
   </g>
   <g id="patch_94">
    <path d="M 57.060719 350.735 
L 57.060719 200.9825 
" style="fill: none; stroke: #000000; stroke-width: 1.2; stroke-linejoin: miter; stroke-linecap: square"/>
   </g>
   <g id="patch_95">
    <path d="M 57.060719 350.735 
L 850.201719 350.735 
" style="fill: none; stroke: #000000; stroke-width: 1.2; stroke-linejoin: miter; stroke-linecap: square"/>
   </g>
   <g id="text_8">
    <!-- Motif 2 -->
    <g transform="translate(100.807998 243.062469) scale(0.1 -0.1)">
     <defs>
      <path id="Helvetica-32" d="M 200 0 
Q 231 578 439 1006 
Q 647 1434 1250 1784 
L 1850 2131 
Q 2253 2366 2416 2531 
Q 2672 2791 2672 3125 
Q 2672 3516 2437 3745 
Q 2203 3975 1813 3975 
Q 1234 3975 1013 3538 
Q 894 3303 881 2888 
L 309 2888 
Q 319 3472 525 3841 
Q 891 4491 1816 4491 
Q 2584 4491 2939 4075 
Q 3294 3659 3294 3150 
Q 3294 2613 2916 2231 
Q 2697 2009 2131 1694 
L 1703 1456 
Q 1397 1288 1222 1134 
Q 909 863 828 531 
L 3272 531 
L 3272 0 
L 200 0 
z
" transform="scale(0.015625)"/>
     </defs>
     <use xlink:href="#Helvetica-4d"/>
     <use xlink:href="#Helvetica-6f" x="83.300781"/>
     <use xlink:href="#Helvetica-74" x="138.916016"/>
     <use xlink:href="#Helvetica-69" x="166.699219"/>
     <use xlink:href="#Helvetica-66" x="188.916016"/>
     <use xlink:href="#Helvetica-20" x="216.699219"/>
     <use xlink:href="#Helvetica-32" x="244.482422"/>
    </g>
    <!-- (13 aa) -->
    <g transform="translate(99.971279 253.843094) scale(0.1 -0.1)">
     <defs>
      <path id="Helvetica-28" d="M 1894 4666 
Q 1403 3713 1256 3263 
Q 1034 2578 1034 1681 
Q 1034 775 1288 25 
Q 1444 -438 1903 -1306 
L 1525 -1306 
Q 1069 -594 959 -397 
Q 850 -200 722 138 
Q 547 600 478 1125 
Q 444 1397 444 1644 
Q 444 2569 734 3291 
Q 919 3750 1503 4666 
L 1894 4666 
z
" transform="scale(0.015625)"/>
      <path id="Helvetica-33" d="M 1663 -122 
Q 869 -122 511 314 
Q 153 750 153 1375 
L 741 1375 
Q 778 941 903 744 
Q 1122 391 1694 391 
Q 2138 391 2406 628 
Q 2675 866 2675 1241 
Q 2675 1703 2392 1887 
Q 2109 2072 1606 2072 
Q 1550 2072 1492 2070 
Q 1434 2069 1375 2066 
L 1375 2563 
Q 1463 2553 1522 2550 
Q 1581 2547 1650 2547 
Q 1966 2547 2169 2647 
Q 2525 2822 2525 3272 
Q 2525 3606 2287 3787 
Q 2050 3969 1734 3969 
Q 1172 3969 956 3594 
Q 838 3388 822 3006 
L 266 3006 
Q 266 3506 466 3856 
Q 809 4481 1675 4481 
Q 2359 4481 2734 4176 
Q 3109 3872 3109 3294 
Q 3109 2881 2888 2625 
Q 2750 2466 2531 2375 
Q 2884 2278 3082 2001 
Q 3281 1725 3281 1325 
Q 3281 684 2859 281 
Q 2438 -122 1663 -122 
z
" transform="scale(0.015625)"/>
      <path id="Helvetica-29" d="M 222 -1306 
Q 719 -338 863 106 
Q 1081 778 1081 1681 
Q 1081 2584 828 3334 
Q 672 3797 213 4666 
L 591 4666 
Q 1072 3897 1173 3717 
Q 1275 3538 1394 3222 
Q 1544 2831 1608 2450 
Q 1672 2069 1672 1716 
Q 1672 791 1378 66 
Q 1194 -400 613 -1306 
L 222 -1306 
z
" transform="scale(0.015625)"/>
     </defs>
     <use xlink:href="#Helvetica-28"/>
     <use xlink:href="#Helvetica-31" x="33.300781"/>
     <use xlink:href="#Helvetica-33" x="88.916016"/>
     <use xlink:href="#Helvetica-20" x="144.53125"/>
     <use xlink:href="#Helvetica-61" x="172.314453"/>
     <use xlink:href="#Helvetica-61" x="227.929688"/>
     <use xlink:href="#Helvetica-29" x="283.544922"/>
    </g>
   </g>
   <g id="text_9">
    <!-- Motif 1 -->
    <g transform="translate(262.373757 302.963469) scale(0.1 -0.1)">
     <use xlink:href="#Helvetica-4d"/>
     <use xlink:href="#Helvetica-6f" x="83.300781"/>
     <use xlink:href="#Helvetica-74" x="138.916016"/>
     <use xlink:href="#Helvetica-69" x="166.699219"/>
     <use xlink:href="#Helvetica-66" x="188.916016"/>
     <use xlink:href="#Helvetica-20" x="216.699219"/>
     <use xlink:href="#Helvetica-31" x="244.482422"/>
    </g>
    <!-- (21 aa) -->
    <g transform="translate(261.537038 313.744094) scale(0.1 -0.1)">
     <use xlink:href="#Helvetica-28"/>
     <use xlink:href="#Helvetica-32" x="33.300781"/>
     <use xlink:href="#Helvetica-31" x="88.916016"/>
     <use xlink:href="#Helvetica-20" x="144.53125"/>
     <use xlink:href="#Helvetica-61" x="172.314453"/>
     <use xlink:href="#Helvetica-61" x="227.929688"/>
     <use xlink:href="#Helvetica-29" x="283.544922"/>
    </g>
   </g>
   <g id="text_10">
    <!-- Variable -->
    <g transform="translate(596.853228 272.992969) scale(0.1 -0.1)">
     <defs>
      <path id="Helvetica-56" d="M 850 4591 
L 2169 681 
L 3472 4591 
L 4169 4591 
L 2494 0 
L 1834 0 
L 163 4591 
L 850 4591 
z
" transform="scale(0.015625)"/>
      <path id="Helvetica-62" d="M 369 4606 
L 916 4606 
L 916 2941 
Q 1100 3181 1356 3307 
Q 1613 3434 1913 3434 
Q 2538 3434 2927 3004 
Q 3316 2575 3316 1738 
Q 3316 944 2931 419 
Q 2547 -106 1866 -106 
Q 1484 -106 1222 78 
Q 1066 188 888 428 
L 888 0 
L 369 0 
L 369 4606 
z
M 1831 391 
Q 2288 391 2514 753 
Q 2741 1116 2741 1709 
Q 2741 2238 2514 2584 
Q 2288 2931 1847 2931 
Q 1463 2931 1173 2647 
Q 884 2363 884 1709 
Q 884 1238 1003 944 
Q 1225 391 1831 391 
z
" transform="scale(0.015625)"/>
     </defs>
     <use xlink:href="#Helvetica-56"/>
     <use xlink:href="#Helvetica-61" x="66.699219"/>
     <use xlink:href="#Helvetica-72" x="122.314453"/>
     <use xlink:href="#Helvetica-69" x="155.615234"/>
     <use xlink:href="#Helvetica-61" x="177.832031"/>
     <use xlink:href="#Helvetica-62" x="233.447266"/>
     <use xlink:href="#Helvetica-6c" x="289.0625"/>
     <use xlink:href="#Helvetica-65" x="311.279297"/>
    </g>
    <!-- region -->
    <g transform="translate(601.299322 283.685469) scale(0.1 -0.1)">
     <use xlink:href="#Helvetica-72"/>
     <use xlink:href="#Helvetica-65" x="33.300781"/>
     <use xlink:href="#Helvetica-67" x="88.916016"/>
     <use xlink:href="#Helvetica-69" x="144.53125"/>
     <use xlink:href="#Helvetica-6f" x="166.748047"/>
     <use xlink:href="#Helvetica-6e" x="222.363281"/>
    </g>
   </g>
   <g id="text_11">
    <!-- B. Estimated Anchor Motif Positions -->
    <g transform="translate(57.060719 194.9825) scale(0.12 -0.12)">
     <defs>
      <path id="Helvetica-42" d="M 2213 2650 
Q 2606 2650 2825 2759 
Q 3169 2931 3169 3378 
Q 3169 3828 2803 3984 
Q 2597 4072 2191 4072 
L 1081 4072 
L 1081 2650 
L 2213 2650 
z
M 2422 531 
Q 2994 531 3238 863 
Q 3391 1072 3391 1369 
Q 3391 1869 2944 2050 
Q 2706 2147 2316 2147 
L 1081 2147 
L 1081 531 
L 2422 531 
z
M 472 4591 
L 2444 4591 
Q 3250 4591 3591 4109 
Q 3791 3825 3791 3453 
Q 3791 3019 3544 2741 
Q 3416 2594 3175 2472 
Q 3528 2338 3703 2169 
Q 4013 1869 4013 1341 
Q 4013 897 3734 538 
Q 3319 0 2413 0 
L 472 0 
L 472 4591 
z
" transform="scale(0.015625)"/>
      <path id="Helvetica-45" d="M 547 4591 
L 3894 4591 
L 3894 4028 
L 1153 4028 
L 1153 2634 
L 3688 2634 
L 3688 2103 
L 1153 2103 
L 1153 547 
L 3941 547 
L 3941 0 
L 547 0 
L 547 4591 
z
M 2244 4591 
L 2244 4591 
z
" transform="scale(0.015625)"/>
     </defs>
     <use xlink:href="#Helvetica-42"/>
     <use xlink:href="#Helvetica-2e" x="66.699219"/>
     <use xlink:href="#Helvetica-20" x="94.482422"/>
     <use xlink:href="#Helvetica-45" x="122.265625"/>
     <use xlink:href="#Helvetica-73" x="188.964844"/>
     <use xlink:href="#Helvetica-74" x="238.964844"/>
     <use xlink:href="#Helvetica-69" x="266.748047"/>
     <use xlink:href="#Helvetica-6d" x="288.964844"/>
     <use xlink:href="#Helvetica-61" x="372.265625"/>
     <use xlink:href="#Helvetica-74" x="427.880859"/>
     <use xlink:href="#Helvetica-65" x="455.664062"/>
     <use xlink:href="#Helvetica-64" x="511.279297"/>
     <use xlink:href="#Helvetica-20" x="566.894531"/>
     <use xlink:href="#Helvetica-41" x="594.677734"/>
     <use xlink:href="#Helvetica-6e" x="661.376953"/>
     <use xlink:href="#Helvetica-63" x="716.992188"/>
     <use xlink:href="#Helvetica-68" x="766.992188"/>
     <use xlink:href="#Helvetica-6f" x="822.607422"/>
     <use xlink:href="#Helvetica-72" x="878.222656"/>
     <use xlink:href="#Helvetica-20" x="911.523438"/>
     <use xlink:href="#Helvetica-4d" x="939.306641"/>
     <use xlink:href="#Helvetica-6f" x="1022.607422"/>
     <use xlink:href="#Helvetica-74" x="1078.222656"/>
     <use xlink:href="#Helvetica-69" x="1106.005859"/>
     <use xlink:href="#Helvetica-66" x="1128.222656"/>
     <use xlink:href="#Helvetica-20" x="1156.005859"/>
     <use xlink:href="#Helvetica-50" x="1183.789062"/>
     <use xlink:href="#Helvetica-6f" x="1250.488281"/>
     <use xlink:href="#Helvetica-73" x="1306.103516"/>
     <use xlink:href="#Helvetica-69" x="1356.103516"/>
     <use xlink:href="#Helvetica-74" x="1378.320312"/>
     <use xlink:href="#Helvetica-69" x="1406.103516"/>
     <use xlink:href="#Helvetica-6f" x="1428.320312"/>
     <use xlink:href="#Helvetica-6e" x="1483.935547"/>
     <use xlink:href="#Helvetica-73" x="1539.550781"/>
    </g>
   </g>
   <g id="legend_2">
    <g id="patch_96">
     <path d="M 521.006406 217.229375 
L 541.006406 217.229375 
L 541.006406 210.229375 
L 521.006406 210.229375 
z
" style="fill: #2e4057; opacity: 0.4; stroke: #2e4057; stroke-linejoin: miter"/>
    </g>
    <g id="text_12">
     <!-- Motif 2 (13 aa) -->
     <g transform="translate(549.006406 217.229375) scale(0.1 -0.1)">
      <use xlink:href="#Helvetica-4d"/>
      <use xlink:href="#Helvetica-6f" x="83.300781"/>
      <use xlink:href="#Helvetica-74" x="138.916016"/>
      <use xlink:href="#Helvetica-69" x="166.699219"/>
      <use xlink:href="#Helvetica-66" x="188.916016"/>
      <use xlink:href="#Helvetica-20" x="216.699219"/>
      <use xlink:href="#Helvetica-32" x="244.482422"/>
      <use xlink:href="#Helvetica-20" x="300.097656"/>
      <use xlink:href="#Helvetica-28" x="327.880859"/>
      <use xlink:href="#Helvetica-31" x="361.181641"/>
      <use xlink:href="#Helvetica-33" x="416.796875"/>
      <use xlink:href="#Helvetica-20" x="472.412109"/>
      <use xlink:href="#Helvetica-61" x="500.195312"/>
      <use xlink:href="#Helvetica-61" x="555.810547"/>
      <use xlink:href="#Helvetica-29" x="611.425781"/>
     </g>
    </g>
    <g id="patch_97">
     <path d="M 633.473594 217.229375 
L 653.473594 217.229375 
L 653.473594 210.229375 
L 633.473594 210.229375 
z
" style="fill: #f9c74f; opacity: 0.4; stroke: #f9c74f; stroke-linejoin: miter"/>
    </g>
    <g id="text_13">
     <!-- Motif 1 (21 aa) -->
     <g transform="translate(661.473594 217.229375) scale(0.1 -0.1)">
      <use xlink:href="#Helvetica-4d"/>
      <use xlink:href="#Helvetica-6f" x="83.300781"/>
      <use xlink:href="#Helvetica-74" x="138.916016"/>
      <use xlink:href="#Helvetica-69" x="166.699219"/>
      <use xlink:href="#Helvetica-66" x="188.916016"/>
      <use xlink:href="#Helvetica-20" x="216.699219"/>
      <use xlink:href="#Helvetica-31" x="244.482422"/>
      <use xlink:href="#Helvetica-20" x="300.097656"/>
      <use xlink:href="#Helvetica-28" x="327.880859"/>
      <use xlink:href="#Helvetica-32" x="361.181641"/>
      <use xlink:href="#Helvetica-31" x="416.796875"/>
      <use xlink:href="#Helvetica-20" x="472.412109"/>
      <use xlink:href="#Helvetica-61" x="500.195312"/>
      <use xlink:href="#Helvetica-61" x="555.810547"/>
      <use xlink:href="#Helvetica-29" x="611.425781"/>
     </g>
    </g>
    <g id="patch_98">
     <path d="M 745.940781 217.229375 
L 765.940781 217.229375 
L 765.940781 210.229375 
L 745.940781 210.229375 
z
" style="fill: #90be6d; opacity: 0.2; stroke: #90be6d; stroke-linejoin: miter"/>
    </g>
    <g id="text_14">
     <!-- Variable region -->
     <g transform="translate(773.940781 217.229375) scale(0.1 -0.1)">
      <use xlink:href="#Helvetica-56"/>
      <use xlink:href="#Helvetica-61" x="66.699219"/>
      <use xlink:href="#Helvetica-72" x="122.314453"/>
      <use xlink:href="#Helvetica-69" x="155.615234"/>
      <use xlink:href="#Helvetica-61" x="177.832031"/>
      <use xlink:href="#Helvetica-62" x="233.447266"/>
      <use xlink:href="#Helvetica-6c" x="289.0625"/>
      <use xlink:href="#Helvetica-65" x="311.279297"/>
      <use xlink:href="#Helvetica-20" x="366.894531"/>
      <use xlink:href="#Helvetica-72" x="394.677734"/>
      <use xlink:href="#Helvetica-65" x="427.978516"/>
      <use xlink:href="#Helvetica-67" x="483.59375"/>
      <use xlink:href="#Helvetica-69" x="539.208984"/>
      <use xlink:href="#Helvetica-6f" x="561.425781"/>
      <use xlink:href="#Helvetica-6e" x="617.041016"/>
     </g>
    </g>
   </g>
  </g>
  <g id="axes_3">
   <g id="patch_99">
    <path d="M 57.060719 529.675 
L 850.201719 529.675 
L 850.201719 379.9225 
L 57.060719 379.9225 
z
" style="fill: #ffffff"/>
   </g>
   <g id="PolyCollection_1">
    <defs>
     <path id="mbd1dd7aa12" d="M 57.060719 -150.611322 
L 57.060719 -45.374119 
L 66.852583 -45.374119 
L 76.644447 -45.374119 
L 86.436311 -45.374119 
L 96.228176 -45.374119 
L 106.02004 -45.374119 
L 115.811904 -45.374119 
L 125.603768 -45.374119 
L 135.395632 -45.374119 
L 145.187497 -45.374119 
L 154.979361 -45.374119 
L 164.771225 -45.374119 
L 174.563089 -45.374119 
L 184.354953 -45.374119 
L 194.146818 -45.374119 
L 203.938682 -45.374119 
L 213.730546 -45.374119 
L 223.52241 -45.374119 
L 233.314274 -45.374119 
L 243.106139 -45.374119 
L 252.898003 -45.374119 
L 262.689867 -45.374119 
L 272.481731 -45.374119 
L 282.273595 -45.374119 
L 292.065459 -45.374119 
L 301.857324 -45.374119 
L 311.649188 -45.374119 
L 321.441052 -45.374119 
L 331.232916 -45.374119 
L 341.02478 -45.374119 
L 350.816645 -45.374119 
L 360.608509 -45.374119 
L 370.400373 -45.374119 
L 380.192237 -45.374119 
L 389.984101 -45.374119 
L 399.775966 -45.374119 
L 409.56783 -45.374119 
L 419.359694 -45.374119 
L 429.151558 -45.374119 
L 438.943422 -45.374119 
L 448.735287 -45.374119 
L 458.527151 -45.374119 
L 468.319015 -45.374119 
L 478.110879 -45.374119 
L 487.902743 -45.374119 
L 497.694608 -45.374119 
L 507.486472 -45.374119 
L 517.278336 -45.374119 
L 527.0702 -45.374119 
L 536.862064 -45.374119 
L 546.653929 -45.374119 
L 556.445793 -45.374119 
L 566.237657 -45.374119 
L 576.029521 -45.374119 
L 585.821385 -45.374119 
L 595.61325 -45.374119 
L 605.405114 -45.374119 
L 615.196978 -45.374119 
L 624.988842 -45.374119 
L 634.780706 -45.374119 
L 644.572571 -45.374119 
L 654.364435 -45.374119 
L 664.156299 -45.374119 
L 673.948163 -45.374119 
L 683.740027 -45.374119 
L 693.531892 -45.374119 
L 703.323756 -45.374119 
L 713.11562 -45.374119 
L 722.907484 -45.374119 
L 732.699348 -45.374119 
L 742.491213 -45.374119 
L 752.283077 -45.374119 
L 762.074941 -45.374119 
L 771.866805 -45.374119 
L 781.658669 -45.374119 
L 791.450534 -45.374119 
L 801.242398 -45.374119 
L 811.034262 -45.374119 
L 820.826126 -45.374119 
L 830.61799 -45.374119 
L 840.409855 -45.374119 
L 850.201719 -45.374119 
L 850.201719 -167.47088 
L 850.201719 -167.47088 
L 840.409855 -178.407434 
L 830.61799 -156.786435 
L 820.826126 -169.257261 
L 811.034262 -155.056679 
L 801.242398 -158.394416 
L 791.450534 -141.247263 
L 781.658669 -134.542346 
L 771.866805 -113.817307 
L 762.074941 -123.851292 
L 752.283077 -138.504104 
L 742.491213 -121.379541 
L 732.699348 -120.608092 
L 722.907484 -140.105243 
L 713.11562 -134.333213 
L 703.323756 -146.774143 
L 693.531892 -151.306519 
L 683.740027 -181.512756 
L 673.948163 -133.381653 
L 664.156299 -164.950043 
L 654.364435 -113.053752 
L 644.572571 -122.685575 
L 634.780706 -125.287089 
L 624.988842 -120.339963 
L 615.196978 -132.060485 
L 605.405114 -148.724693 
L 595.61325 -137.778915 
L 585.821385 -138.938933 
L 576.029521 -151.257174 
L 566.237657 -152.367236 
L 556.445793 -170.956628 
L 546.653929 -154.154043 
L 536.862064 -161.857651 
L 527.0702 -145.00094 
L 517.278336 -136.526671 
L 507.486472 -147.802852 
L 497.694608 -136.675007 
L 487.902743 -143.922747 
L 478.110879 -133.622721 
L 468.319015 -128.148794 
L 458.527151 -128.907773 
L 448.735287 -136.406181 
L 438.943422 -120.597778 
L 429.151558 -110.393508 
L 419.359694 -123.170708 
L 409.56783 -124.33051 
L 399.775966 -121.331137 
L 389.984101 -112.118595 
L 380.192237 -109.432032 
L 370.400373 -126.458357 
L 360.608509 -132.384236 
L 350.816645 -115.843737 
L 341.02478 -145.503158 
L 331.232916 -133.466573 
L 321.441052 -118.242932 
L 311.649188 -128.708977 
L 301.857324 -133.252765 
L 292.065459 -118.258664 
L 282.273595 -120.863093 
L 272.481731 -119.70405 
L 262.689867 -138.952555 
L 252.898003 -109.328565 
L 243.106139 -108.406852 
L 233.314274 -111.708682 
L 223.52241 -126.325298 
L 213.730546 -112.024955 
L 203.938682 -103.728681 
L 194.146818 -113.362076 
L 184.354953 -138.661503 
L 174.563089 -110.169407 
L 164.771225 -110.690542 
L 154.979361 -129.981923 
L 145.187497 -125.541851 
L 135.395632 -105.19829 
L 125.603768 -132.442457 
L 115.811904 -122.808142 
L 106.02004 -133.12488 
L 96.228176 -114.457381 
L 86.436311 -126.203545 
L 76.644447 -129.404368 
L 66.852583 -116.770691 
L 57.060719 -150.611322 
z
" style="stroke: #048a81; stroke-opacity: 0.3"/>
    </defs>
    <g clip-path="url(#pb85907125e)">
     <use xlink:href="#mbd1dd7aa12" x="0" y="568.242187" style="fill: #048a81; fill-opacity: 0.3; stroke: #048a81; stroke-opacity: 0.3"/>
    </g>
   </g>
   <g id="matplotlib.axis_5">
    <g id="xtick_17">
     <g id="line2d_19">
      <g>
       <use xlink:href="#m18dec0bcb2" x="145.187497" y="529.675" style="stroke: #000000; stroke-width: 0.8"/>
      </g>
     </g>
     <g id="text_15">
      <!-- 10 -->
      <g transform="translate(139.626559 543.848437) scale(0.1 -0.1)">
       <defs>
        <path id="Helvetica-30" d="M 1731 4475 
Q 2600 4475 2988 3759 
Q 3288 3206 3288 2244 
Q 3288 1331 3016 734 
Q 2622 -122 1728 -122 
Q 922 -122 528 578 
Q 200 1163 200 2147 
Q 200 2909 397 3456 
Q 766 4475 1731 4475 
z
M 1725 391 
Q 2163 391 2422 778 
Q 2681 1166 2681 2222 
Q 2681 2984 2493 3476 
Q 2306 3969 1766 3969 
Q 1269 3969 1039 3501 
Q 809 3034 809 2125 
Q 809 1441 956 1025 
Q 1181 391 1725 391 
z
" transform="scale(0.015625)"/>
       </defs>
       <use xlink:href="#Helvetica-31"/>
       <use xlink:href="#Helvetica-30" x="55.615234"/>
      </g>
     </g>
    </g>
    <g id="xtick_18">
     <g id="line2d_20">
      <g>
       <use xlink:href="#m18dec0bcb2" x="243.106139" y="529.675" style="stroke: #000000; stroke-width: 0.8"/>
      </g>
     </g>
     <g id="text_16">
      <!-- 20 -->
      <g transform="translate(237.545201 543.848437) scale(0.1 -0.1)">
       <use xlink:href="#Helvetica-32"/>
       <use xlink:href="#Helvetica-30" x="55.615234"/>
      </g>
     </g>
    </g>
    <g id="xtick_19">
     <g id="line2d_21">
      <g>
       <use xlink:href="#m18dec0bcb2" x="341.02478" y="529.675" style="stroke: #000000; stroke-width: 0.8"/>
      </g>
     </g>
     <g id="text_17">
      <!-- 30 -->
      <g transform="translate(335.463843 543.848437) scale(0.1 -0.1)">
       <use xlink:href="#Helvetica-33"/>
       <use xlink:href="#Helvetica-30" x="55.615234"/>
      </g>
     </g>
    </g>
    <g id="xtick_20">
     <g id="line2d_22">
      <g>
       <use xlink:href="#m18dec0bcb2" x="438.943422" y="529.675" style="stroke: #000000; stroke-width: 0.8"/>
      </g>
     </g>
     <g id="text_18">
      <!-- 40 -->
      <g transform="translate(433.382485 543.848437) scale(0.1 -0.1)">
       <defs>
        <path id="Helvetica-34" d="M 2116 1584 
L 2116 3613 
L 681 1584 
L 2116 1584 
z
M 2125 0 
L 2125 1094 
L 163 1094 
L 163 1644 
L 2213 4488 
L 2688 4488 
L 2688 1584 
L 3347 1584 
L 3347 1094 
L 2688 1094 
L 2688 0 
L 2125 0 
z
" transform="scale(0.015625)"/>
       </defs>
       <use xlink:href="#Helvetica-34"/>
       <use xlink:href="#Helvetica-30" x="55.615234"/>
      </g>
     </g>
    </g>
    <g id="xtick_21">
     <g id="line2d_23">
      <g>
       <use xlink:href="#m18dec0bcb2" x="536.862064" y="529.675" style="stroke: #000000; stroke-width: 0.8"/>
      </g>
     </g>
     <g id="text_19">
      <!-- 50 -->
      <g transform="translate(531.301127 543.848437) scale(0.1 -0.1)">
       <defs>
        <path id="Helvetica-35" d="M 791 1141 
Q 847 659 1238 475 
Q 1438 381 1700 381 
Q 2200 381 2440 700 
Q 2681 1019 2681 1406 
Q 2681 1875 2395 2131 
Q 2109 2388 1709 2388 
Q 1419 2388 1211 2275 
Q 1003 2163 856 1963 
L 369 1991 
L 709 4400 
L 3034 4400 
L 3034 3856 
L 1131 3856 
L 941 2613 
Q 1097 2731 1238 2791 
Q 1488 2894 1816 2894 
Q 2431 2894 2859 2497 
Q 3288 2100 3288 1491 
Q 3288 856 2895 371 
Q 2503 -113 1644 -113 
Q 1097 -113 676 195 
Q 256 503 206 1141 
L 791 1141 
z
" transform="scale(0.015625)"/>
       </defs>
       <use xlink:href="#Helvetica-35"/>
       <use xlink:href="#Helvetica-30" x="55.615234"/>
      </g>
     </g>
    </g>
    <g id="xtick_22">
     <g id="line2d_24">
      <g>
       <use xlink:href="#m18dec0bcb2" x="634.780706" y="529.675" style="stroke: #000000; stroke-width: 0.8"/>
      </g>
     </g>
     <g id="text_20">
      <!-- 60 -->
      <g transform="translate(629.219769 543.848437) scale(0.1 -0.1)">
       <defs>
        <path id="Helvetica-36" d="M 1872 4494 
Q 2622 4494 2917 4105 
Q 3213 3716 3213 3303 
L 2656 3303 
Q 2606 3569 2497 3719 
Q 2294 4000 1881 4000 
Q 1409 4000 1131 3564 
Q 853 3128 822 2316 
Q 1016 2600 1309 2741 
Q 1578 2866 1909 2866 
Q 2472 2866 2890 2506 
Q 3309 2147 3309 1434 
Q 3309 825 2912 354 
Q 2516 -116 1781 -116 
Q 1153 -116 697 361 
Q 241 838 241 1966 
Q 241 2800 444 3381 
Q 834 4494 1872 4494 
z
M 1831 384 
Q 2275 384 2495 682 
Q 2716 981 2716 1388 
Q 2716 1731 2519 2042 
Q 2322 2353 1803 2353 
Q 1441 2353 1167 2112 
Q 894 1872 894 1388 
Q 894 963 1142 673 
Q 1391 384 1831 384 
z
" transform="scale(0.015625)"/>
       </defs>
       <use xlink:href="#Helvetica-36"/>
       <use xlink:href="#Helvetica-30" x="55.615234"/>
      </g>
     </g>
    </g>
    <g id="xtick_23">
     <g id="line2d_25">
      <g>
       <use xlink:href="#m18dec0bcb2" x="732.699348" y="529.675" style="stroke: #000000; stroke-width: 0.8"/>
      </g>
     </g>
     <g id="text_21">
      <!-- 70 -->
      <g transform="translate(727.138411 543.848437) scale(0.1 -0.1)">
       <defs>
        <path id="Helvetica-37" d="M 3347 4400 
L 3347 3909 
Q 3131 3700 2773 3181 
Q 2416 2663 2141 2063 
Q 1869 1478 1728 997 
Q 1638 688 1494 0 
L 872 0 
Q 1084 1281 1809 2550 
Q 2238 3294 2709 3834 
L 234 3834 
L 234 4400 
L 3347 4400 
z
" transform="scale(0.015625)"/>
       </defs>
       <use xlink:href="#Helvetica-37"/>
       <use xlink:href="#Helvetica-30" x="55.615234"/>
      </g>
     </g>
    </g>
    <g id="xtick_24">
     <g id="line2d_26">
      <g>
       <use xlink:href="#m18dec0bcb2" x="830.61799" y="529.675" style="stroke: #000000; stroke-width: 0.8"/>
      </g>
     </g>
     <g id="text_22">
      <!-- 80 -->
      <g transform="translate(825.057053 543.848437) scale(0.1 -0.1)">
       <defs>
        <path id="Helvetica-38" d="M 1741 2600 
Q 2113 2600 2322 2808 
Q 2531 3016 2531 3303 
Q 2531 3553 2331 3762 
Q 2131 3972 1722 3972 
Q 1316 3972 1134 3762 
Q 953 3553 953 3272 
Q 953 2956 1187 2778 
Q 1422 2600 1741 2600 
z
M 1775 384 
Q 2166 384 2423 595 
Q 2681 806 2681 1225 
Q 2681 1659 2415 1884 
Q 2150 2109 1734 2109 
Q 1331 2109 1076 1879 
Q 822 1650 822 1244 
Q 822 894 1055 639 
Q 1288 384 1775 384 
z
M 975 2384 
Q 741 2484 609 2619 
Q 363 2869 363 3269 
Q 363 3769 725 4128 
Q 1088 4488 1753 4488 
Q 2397 4488 2762 4148 
Q 3128 3809 3128 3356 
Q 3128 2938 2916 2678 
Q 2797 2531 2547 2391 
Q 2825 2263 2984 2097 
Q 3281 1784 3281 1284 
Q 3281 694 2884 283 
Q 2488 -128 1763 -128 
Q 1109 -128 657 226 
Q 206 581 206 1256 
Q 206 1653 400 1942 
Q 594 2231 975 2384 
z
" transform="scale(0.015625)"/>
       </defs>
       <use xlink:href="#Helvetica-38"/>
       <use xlink:href="#Helvetica-30" x="55.615234"/>
      </g>
     </g>
    </g>
    <g id="text_23">
     <!-- Residue Position -->
     <g transform="translate(408.606844 558.540937) scale(0.12 -0.12)">
      <defs>
       <path id="Helvetica-52" d="M 2622 2488 
Q 3059 2488 3314 2663 
Q 3569 2838 3569 3294 
Q 3569 3784 3213 3963 
Q 3022 4056 2703 4056 
L 1184 4056 
L 1184 2488 
L 2622 2488 
z
M 563 4591 
L 2688 4591 
Q 3213 4591 3553 4438 
Q 4200 4144 4200 3353 
Q 4200 2941 4029 2678 
Q 3859 2416 3553 2256 
Q 3822 2147 3958 1969 
Q 4094 1791 4109 1391 
L 4131 775 
Q 4141 513 4175 384 
Q 4231 166 4375 103 
L 4375 0 
L 3613 0 
Q 3581 59 3562 153 
Q 3544 247 3531 516 
L 3494 1281 
Q 3472 1731 3159 1884 
Q 2981 1969 2600 1969 
L 1184 1969 
L 1184 0 
L 563 0 
L 563 4591 
z
" transform="scale(0.015625)"/>
      </defs>
      <use xlink:href="#Helvetica-52"/>
      <use xlink:href="#Helvetica-65" x="72.216797"/>
      <use xlink:href="#Helvetica-73" x="127.832031"/>
      <use xlink:href="#Helvetica-69" x="177.832031"/>
      <use xlink:href="#Helvetica-64" x="200.048828"/>
      <use xlink:href="#Helvetica-75" x="255.664062"/>
      <use xlink:href="#Helvetica-65" x="311.279297"/>
      <use xlink:href="#Helvetica-20" x="366.894531"/>
      <use xlink:href="#Helvetica-50" x="394.677734"/>
      <use xlink:href="#Helvetica-6f" x="461.376953"/>
      <use xlink:href="#Helvetica-73" x="516.992188"/>
      <use xlink:href="#Helvetica-69" x="566.992188"/>
      <use xlink:href="#Helvetica-74" x="589.208984"/>
      <use xlink:href="#Helvetica-69" x="616.992188"/>
      <use xlink:href="#Helvetica-6f" x="639.208984"/>
      <use xlink:href="#Helvetica-6e" x="694.824219"/>
     </g>
    </g>
   </g>
   <g id="matplotlib.axis_6">
    <g id="ytick_1">
     <g id="line2d_27">
      <defs>
       <path id="m5e4821251e" d="M 0 0 
L -3.5 0 
" style="stroke: #000000; stroke-width: 0.8"/>
      </defs>
      <g>
       <use xlink:href="#m5e4821251e" x="57.060719" y="522.868068" style="stroke: #000000; stroke-width: 0.8"/>
      </g>
     </g>
     <g id="text_24">
      <!-- 0.0 -->
      <g transform="translate(36.160719 526.454787) scale(0.1 -0.1)">
       <use xlink:href="#Helvetica-30"/>
       <use xlink:href="#Helvetica-2e" x="55.615234"/>
       <use xlink:href="#Helvetica-30" x="83.398438"/>
      </g>
     </g>
    </g>
    <g id="ytick_2">
     <g id="line2d_28">
      <g>
       <use xlink:href="#m5e4821251e" x="57.060719" y="495.170521" style="stroke: #000000; stroke-width: 0.8"/>
      </g>
     </g>
     <g id="text_25">
      <!-- 0.5 -->
      <g transform="translate(36.160719 498.757239) scale(0.1 -0.1)">
       <use xlink:href="#Helvetica-30"/>
       <use xlink:href="#Helvetica-2e" x="55.615234"/>
       <use xlink:href="#Helvetica-35" x="83.398438"/>
      </g>
     </g>
    </g>
    <g id="ytick_3">
     <g id="line2d_29">
      <g>
       <use xlink:href="#m5e4821251e" x="57.060719" y="467.472973" style="stroke: #000000; stroke-width: 0.8"/>
      </g>
     </g>
     <g id="text_26">
      <!-- 1.0 -->
      <g transform="translate(36.160719 471.059692) scale(0.1 -0.1)">
       <use xlink:href="#Helvetica-31"/>
       <use xlink:href="#Helvetica-2e" x="55.615234"/>
       <use xlink:href="#Helvetica-30" x="83.398438"/>
      </g>
     </g>
    </g>
    <g id="ytick_4">
     <g id="line2d_30">
      <g>
       <use xlink:href="#m5e4821251e" x="57.060719" y="439.775426" style="stroke: #000000; stroke-width: 0.8"/>
      </g>
     </g>
     <g id="text_27">
      <!-- 1.5 -->
      <g transform="translate(36.160719 443.362145) scale(0.1 -0.1)">
       <use xlink:href="#Helvetica-31"/>
       <use xlink:href="#Helvetica-2e" x="55.615234"/>
       <use xlink:href="#Helvetica-35" x="83.398438"/>
      </g>
     </g>
    </g>
    <g id="ytick_5">
     <g id="line2d_31">
      <g>
       <use xlink:href="#m5e4821251e" x="57.060719" y="412.077878" style="stroke: #000000; stroke-width: 0.8"/>
      </g>
     </g>
     <g id="text_28">
      <!-- 2.0 -->
      <g transform="translate(36.160719 415.664597) scale(0.1 -0.1)">
       <use xlink:href="#Helvetica-32"/>
       <use xlink:href="#Helvetica-2e" x="55.615234"/>
       <use xlink:href="#Helvetica-30" x="83.398438"/>
      </g>
     </g>
    </g>
    <g id="ytick_6">
     <g id="line2d_32">
      <g>
       <use xlink:href="#m5e4821251e" x="57.060719" y="384.380331" style="stroke: #000000; stroke-width: 0.8"/>
      </g>
     </g>
     <g id="text_29">
      <!-- 2.5 -->
      <g transform="translate(36.160719 387.96705) scale(0.1 -0.1)">
       <use xlink:href="#Helvetica-32"/>
       <use xlink:href="#Helvetica-2e" x="55.615234"/>
       <use xlink:href="#Helvetica-35" x="83.398438"/>
      </g>
     </g>
    </g>
    <g id="text_30">
     <!-- Positional -->
     <g transform="translate(15.090781 478.645547) rotate(-90) scale(0.11 -0.11)">
      <use xlink:href="#Helvetica-50"/>
      <use xlink:href="#Helvetica-6f" x="66.699219"/>
      <use xlink:href="#Helvetica-73" x="122.314453"/>
      <use xlink:href="#Helvetica-69" x="172.314453"/>
      <use xlink:href="#Helvetica-74" x="194.53125"/>
      <use xlink:href="#Helvetica-69" x="222.314453"/>
      <use xlink:href="#Helvetica-6f" x="244.53125"/>
      <use xlink:href="#Helvetica-6e" x="300.146484"/>
      <use xlink:href="#Helvetica-61" x="355.761719"/>
      <use xlink:href="#Helvetica-6c" x="411.376953"/>
     </g>
     <!-- Variance (Å) -->
     <g transform="translate(29.867906 485.364141) rotate(-90) scale(0.11 -0.11)">
      <defs>
       <path id="Helvetica-c5" d="M 2844 1881 
L 2147 3909 
L 1406 1881 
L 2844 1881 
z
M 1822 4591 
L 2525 4591 
L 4191 0 
L 3509 0 
L 3044 1375 
L 1228 1375 
L 731 0 
L 94 0 
L 1822 4591 
z
M 2191 5034 
Q 2353 5034 2468 5150 
Q 2584 5266 2584 5428 
Q 2584 5591 2468 5706 
Q 2353 5822 2191 5822 
Q 2031 5822 1915 5706 
Q 1800 5591 1800 5428 
Q 1800 5266 1915 5150 
Q 2031 5034 2191 5034 
z
M 2191 6081 
Q 2459 6081 2651 5889 
Q 2844 5697 2844 5428 
Q 2844 5159 2651 4967 
Q 2459 4775 2191 4775 
Q 1922 4775 1731 4967 
Q 1541 5159 1541 5428 
Q 1541 5697 1731 5889 
Q 1922 6081 2191 6081 
z
" transform="scale(0.015625)"/>
      </defs>
      <use xlink:href="#Helvetica-56"/>
      <use xlink:href="#Helvetica-61" x="66.699219"/>
      <use xlink:href="#Helvetica-72" x="122.314453"/>
      <use xlink:href="#Helvetica-69" x="155.615234"/>
      <use xlink:href="#Helvetica-61" x="177.832031"/>
      <use xlink:href="#Helvetica-6e" x="233.447266"/>
      <use xlink:href="#Helvetica-63" x="289.0625"/>
      <use xlink:href="#Helvetica-65" x="339.0625"/>
      <use xlink:href="#Helvetica-20" x="394.677734"/>
      <use xlink:href="#Helvetica-28" x="422.460938"/>
      <use xlink:href="#Helvetica-c5" x="455.761719"/>
      <use xlink:href="#Helvetica-29" x="522.460938"/>
     </g>
    </g>
   </g>
   <g id="line2d_33">
    <path d="M 57.060719 417.630865 
L 66.852583 451.471496 
L 76.644447 438.837819 
L 86.436311 442.038642 
L 96.228176 453.784806 
L 106.02004 435.117308 
L 115.811904 445.434046 
L 125.603768 435.799731 
L 135.395632 463.043897 
L 145.187497 442.700337 
L 154.979361 438.260265 
L 164.771225 457.551645 
L 174.563089 458.07278 
L 184.354953 429.580684 
L 194.146818 454.880112 
L 203.938682 464.513507 
L 213.730546 456.217233 
L 223.52241 441.916889 
L 233.314274 456.533506 
L 243.106139 459.835336 
L 252.898003 458.913622 
L 262.689867 429.289633 
L 272.481731 448.538138 
L 282.273595 447.379095 
L 292.065459 449.983523 
L 301.857324 434.989422 
L 311.649188 439.533211 
L 321.441052 449.999255 
L 331.232916 434.775614 
L 341.02478 422.73903 
L 350.816645 452.39845 
L 360.608509 435.857951 
L 370.400373 441.78383 
L 380.192237 458.810155 
L 389.984101 456.123593 
L 399.775966 446.911051 
L 409.56783 443.911678 
L 419.359694 445.071479 
L 429.151558 457.848679 
L 438.943422 447.64441 
L 448.735287 431.836007 
L 458.527151 439.334414 
L 468.319015 440.093394 
L 478.110879 434.619466 
L 487.902743 424.319441 
L 497.694608 431.56718 
L 507.486472 420.439336 
L 517.278336 431.715517 
L 527.0702 423.241247 
L 536.862064 406.384537 
L 546.653929 414.088144 
L 556.445793 397.28556 
L 566.237657 415.874952 
L 576.029521 416.985014 
L 585.821385 429.303254 
L 595.61325 430.463272 
L 605.405114 419.517495 
L 615.196978 436.181702 
L 624.988842 447.902224 
L 634.780706 442.955099 
L 644.572571 445.556613 
L 654.364435 455.188435 
L 664.156299 403.292144 
L 673.948163 434.860535 
L 683.740027 386.729432 
L 693.531892 416.935668 
L 703.323756 421.468045 
L 713.11562 433.908974 
L 722.907484 428.136944 
L 732.699348 447.634095 
L 742.491213 446.862647 
L 752.283077 429.738084 
L 762.074941 444.390895 
L 771.866805 454.42488 
L 781.658669 433.699841 
L 791.450534 426.994924 
L 801.242398 409.847771 
L 811.034262 413.185509 
L 820.826126 398.984926 
L 830.61799 411.455753 
L 840.409855 389.834753 
L 850.201719 400.771307 
" clip-path="url(#pb85907125e)" style="fill: none; stroke: #048a81; stroke-width: 2; stroke-linecap: square"/>
   </g>
   <g id="line2d_34">
    <path d="M 57.060719 435.533319 
L 850.201719 435.533319 
" clip-path="url(#pb85907125e)" style="fill: none; stroke-dasharray: 5.55,2.4; stroke-dashoffset: 0; stroke: #e85d04; stroke-width: 1.5"/>
   </g>
   <g id="line2d_35">
    <path d="M 380.192237 529.675 
L 380.192237 379.9225 
" clip-path="url(#pb85907125e)" style="fill: none; stroke-dasharray: 1,1.65; stroke-dashoffset: 0; stroke: #808080; stroke-opacity: 0.7"/>
   </g>
   <g id="patch_100">
    <path d="M 57.060719 529.675 
L 57.060719 379.9225 
" style="fill: none; stroke: #000000; stroke-width: 1.2; stroke-linejoin: miter; stroke-linecap: square"/>
   </g>
   <g id="patch_101">
    <path d="M 57.060719 529.675 
L 850.201719 529.675 
" style="fill: none; stroke: #000000; stroke-width: 1.2; stroke-linejoin: miter; stroke-linecap: square"/>
   </g>
   <g id="text_31">
    <!-- C. Structural Conservation (Positional Variance) -->
    <g transform="translate(57.060719 373.9225) scale(0.12 -0.12)">
     <defs>
      <path id="Helvetica-76" d="M 688 3347 
L 1581 622 
L 2516 3347 
L 3131 3347 
L 1869 0 
L 1269 0 
L 34 3347 
L 688 3347 
z
" transform="scale(0.015625)"/>
     </defs>
     <use xlink:href="#Helvetica-43"/>
     <use xlink:href="#Helvetica-2e" x="72.216797"/>
     <use xlink:href="#Helvetica-20" x="100"/>
     <use xlink:href="#Helvetica-53" x="127.783203"/>
     <use xlink:href="#Helvetica-74" x="194.482422"/>
     <use xlink:href="#Helvetica-72" x="222.265625"/>
     <use xlink:href="#Helvetica-75" x="255.566406"/>
     <use xlink:href="#Helvetica-63" x="311.181641"/>
     <use xlink:href="#Helvetica-74" x="361.181641"/>
     <use xlink:href="#Helvetica-75" x="388.964844"/>
     <use xlink:href="#Helvetica-72" x="444.580078"/>
     <use xlink:href="#Helvetica-61" x="477.880859"/>
     <use xlink:href="#Helvetica-6c" x="533.496094"/>
     <use xlink:href="#Helvetica-20" x="555.712891"/>
     <use xlink:href="#Helvetica-43" x="583.496094"/>
     <use xlink:href="#Helvetica-6f" x="655.712891"/>
     <use xlink:href="#Helvetica-6e" x="711.328125"/>
     <use xlink:href="#Helvetica-73" x="766.943359"/>
     <use xlink:href="#Helvetica-65" x="816.943359"/>
     <use xlink:href="#Helvetica-72" x="872.558594"/>
     <use xlink:href="#Helvetica-76" x="905.859375"/>
     <use xlink:href="#Helvetica-61" x="955.859375"/>
     <use xlink:href="#Helvetica-74" x="1011.474609"/>
     <use xlink:href="#Helvetica-69" x="1039.257812"/>
     <use xlink:href="#Helvetica-6f" x="1061.474609"/>
     <use xlink:href="#Helvetica-6e" x="1117.089844"/>
     <use xlink:href="#Helvetica-20" x="1172.705078"/>
     <use xlink:href="#Helvetica-28" x="1200.488281"/>
     <use xlink:href="#Helvetica-50" x="1233.789062"/>
     <use xlink:href="#Helvetica-6f" x="1300.488281"/>
     <use xlink:href="#Helvetica-73" x="1356.103516"/>
     <use xlink:href="#Helvetica-69" x="1406.103516"/>
     <use xlink:href="#Helvetica-74" x="1428.320312"/>
     <use xlink:href="#Helvetica-69" x="1456.103516"/>
     <use xlink:href="#Helvetica-6f" x="1478.320312"/>
     <use xlink:href="#Helvetica-6e" x="1533.935547"/>
     <use xlink:href="#Helvetica-61" x="1589.550781"/>
     <use xlink:href="#Helvetica-6c" x="1645.166016"/>
     <use xlink:href="#Helvetica-20" x="1667.382812"/>
     <use xlink:href="#Helvetica-56" x="1695.166016"/>
     <use xlink:href="#Helvetica-61" x="1761.865234"/>
     <use xlink:href="#Helvetica-72" x="1817.480469"/>
     <use xlink:href="#Helvetica-69" x="1850.78125"/>
     <use xlink:href="#Helvetica-61" x="1872.998047"/>
     <use xlink:href="#Helvetica-6e" x="1928.613281"/>
     <use xlink:href="#Helvetica-63" x="1984.228516"/>
     <use xlink:href="#Helvetica-65" x="2034.228516"/>
     <use xlink:href="#Helvetica-29" x="2089.84375"/>
    </g>
   </g>
   <g id="PathCollection_1">
    <defs>
     <path id="m7c814dba1c" d="M 0 2.236068 
C 0.593012 2.236068 1.161816 2.000462 1.581139 1.581139 
C 2.000462 1.161816 2.236068 0.593012 2.236068 0 
C 2.236068 -0.593012 2.000462 -1.161816 1.581139 -1.581139 
C 1.161816 -2.000462 0.593012 -2.236068 0 -2.236068 
C -0.593012 -2.236068 -1.161816 -2.000462 -1.581139 -1.581139 
C -2.000462 -1.161816 -2.236068 -0.593012 -2.236068 0 
C -2.236068 0.593012 -2.000462 1.161816 -1.581139 1.581139 
C -1.161816 2.000462 -0.593012 2.236068 0 2.236068 
z
" style="stroke: #90be6d"/>
    </defs>
    <g clip-path="url(#pb85907125e)">
     <use xlink:href="#m7c814dba1c" x="66.852583" y="451.471496" style="fill: #90be6d; stroke: #90be6d"/>
     <use xlink:href="#m7c814dba1c" x="96.228176" y="453.784806" style="fill: #90be6d; stroke: #90be6d"/>
     <use xlink:href="#m7c814dba1c" x="135.395632" y="463.043897" style="fill: #90be6d; stroke: #90be6d"/>
     <use xlink:href="#m7c814dba1c" x="164.771225" y="457.551645" style="fill: #90be6d; stroke: #90be6d"/>
     <use xlink:href="#m7c814dba1c" x="174.563089" y="458.07278" style="fill: #90be6d; stroke: #90be6d"/>
     <use xlink:href="#m7c814dba1c" x="194.146818" y="454.880112" style="fill: #90be6d; stroke: #90be6d"/>
     <use xlink:href="#m7c814dba1c" x="203.938682" y="464.513507" style="fill: #90be6d; stroke: #90be6d"/>
     <use xlink:href="#m7c814dba1c" x="213.730546" y="456.217233" style="fill: #90be6d; stroke: #90be6d"/>
     <use xlink:href="#m7c814dba1c" x="233.314274" y="456.533506" style="fill: #90be6d; stroke: #90be6d"/>
     <use xlink:href="#m7c814dba1c" x="243.106139" y="459.835336" style="fill: #90be6d; stroke: #90be6d"/>
     <use xlink:href="#m7c814dba1c" x="252.898003" y="458.913622" style="fill: #90be6d; stroke: #90be6d"/>
     <use xlink:href="#m7c814dba1c" x="272.481731" y="448.538138" style="fill: #90be6d; stroke: #90be6d"/>
     <use xlink:href="#m7c814dba1c" x="292.065459" y="449.983523" style="fill: #90be6d; stroke: #90be6d"/>
     <use xlink:href="#m7c814dba1c" x="321.441052" y="449.999255" style="fill: #90be6d; stroke: #90be6d"/>
     <use xlink:href="#m7c814dba1c" x="350.816645" y="452.39845" style="fill: #90be6d; stroke: #90be6d"/>
     <use xlink:href="#m7c814dba1c" x="380.192237" y="458.810155" style="fill: #90be6d; stroke: #90be6d"/>
     <use xlink:href="#m7c814dba1c" x="389.984101" y="456.123593" style="fill: #90be6d; stroke: #90be6d"/>
     <use xlink:href="#m7c814dba1c" x="429.151558" y="457.848679" style="fill: #90be6d; stroke: #90be6d"/>
     <use xlink:href="#m7c814dba1c" x="624.988842" y="447.902224" style="fill: #90be6d; stroke: #90be6d"/>
     <use xlink:href="#m7c814dba1c" x="654.364435" y="455.188435" style="fill: #90be6d; stroke: #90be6d"/>
     <use xlink:href="#m7c814dba1c" x="771.866805" y="454.42488" style="fill: #90be6d; stroke: #90be6d"/>
    </g>
   </g>
   <g id="legend_3">
    <g id="line2d_36">
     <path d="M 753.723594 393.039687 
L 763.723594 393.039687 
L 773.723594 393.039687 
" style="fill: none; stroke-dasharray: 5.55,2.4; stroke-dashoffset: 0; stroke: #e85d04; stroke-width: 1.5"/>
    </g>
    <g id="text_32">
     <!-- Mean: 1.58 Å -->
     <g transform="translate(781.723594 396.539687) scale(0.1 -0.1)">
      <defs>
       <path id="Helvetica-3a" d="M 709 3303 
L 1363 3303 
L 1363 2622 
L 709 2622 
L 709 3303 
z
M 709 681 
L 1363 681 
L 1363 0 
L 709 0 
L 709 681 
z
" transform="scale(0.015625)"/>
      </defs>
      <use xlink:href="#Helvetica-4d"/>
      <use xlink:href="#Helvetica-65" x="83.300781"/>
      <use xlink:href="#Helvetica-61" x="138.916016"/>
      <use xlink:href="#Helvetica-6e" x="194.53125"/>
      <use xlink:href="#Helvetica-3a" x="250.146484"/>
      <use xlink:href="#Helvetica-20" x="277.929688"/>
      <use xlink:href="#Helvetica-31" x="305.712891"/>
      <use xlink:href="#Helvetica-2e" x="361.328125"/>
      <use xlink:href="#Helvetica-35" x="389.111328"/>
      <use xlink:href="#Helvetica-38" x="444.726562"/>
      <use xlink:href="#Helvetica-20" x="500.341797"/>
      <use xlink:href="#Helvetica-c5" x="528.125"/>
     </g>
    </g>
   </g>
  </g>
 </g>
 <defs>
  <clipPath id="p79715c89ff">
   <rect x="57.060719" y="22.0425" width="793.141" height="149.7525"/>
  </clipPath>
  <clipPath id="p30c09c18c9">
   <rect x="57.060719" y="200.9825" width="793.141" height="149.7525"/>
  </clipPath>
  <clipPath id="pb85907125e">
   <rect x="57.060719" y="379.9225" width="793.141" height="149.7525"/>
  </clipPath>
 </defs>
</svg>
