<?xml version="1.0" encoding="utf-8" standalone="no"?>
<!DOCTYPE svg PUBLIC "-//W3C//DTD SVG 1.1//EN"
  "http://www.w3.org/Graphics/SVG/1.1/DTD/svg11.dtd">
<svg xmlns:xlink="http://www.w3.org/1999/xlink" width="565.047187pt" height="567.824375pt" viewBox="0 0 565.047187 567.824375" xmlns="http://www.w3.org/2000/svg" version="1.1">
 <metadata>
  <rdf:RDF xmlns:dc="http://purl.org/dc/elements/1.1/" xmlns:cc="http://creativecommons.org/ns#" xmlns:rdf="http://www.w3.org/1999/02/22-rdf-syntax-ns#">
   <cc:Work>
    <dc:type rdf:resource="http://purl.org/dc/dcmitype/StillImage"/>
    <dc:date>2026-01-14T14:40:58.013952</dc:date>
    <dc:format>image/svg+xml</dc:format>
    <dc:creator>
     <cc:Agent>
      <dc:title>Matplotlib v3.9.2, https://matplotlib.org/</dc:title>
     </cc:Agent>
    </dc:creator>
   </cc:Work>
  </rdf:RDF>
 </metadata>
 <defs>
  <style type="text/css">*{stroke-linejoin: round; stroke-linecap: butt}</style>
 </defs>
 <g id="figure_1">
  <g id="patch_1">
   <path d="M 0 567.824375 
L 565.047187 567.824375 
L 565.047187 0 
L 0 0 
z
" style="fill: #ffffff"/>
  </g>
  <g id="axes_1">
   <g id="patch_2">
    <path d="M 52.127187 528.962812 
L 557.847188 528.962812 
L 557.847188 23.242812 
L 52.127187 23.242812 
z
" style="fill: #ffffff"/>
   </g>
   <g id="PathCollection_1">
    <defs>
     <path id="m48382e5c75" d="M 0 3.535534 
C 0.937635 3.535534 1.836992 3.163008 2.5 2.5 
C 3.163008 1.836992 3.535534 0.937635 3.535534 0 
C 3.535534 -0.937635 3.163008 -1.836992 2.5 -2.5 
C 1.836992 -3.163008 0.937635 -3.535534 0 -3.535534 
C -0.937635 -3.535534 -1.836992 -3.163008 -2.5 -2.5 
C -3.163008 -1.836992 -3.535534 -0.937635 -3.535534 0 
C -3.535534 0.937635 -3.163008 1.836992 -2.5 2.5 
C -1.836992 3.163008 -0.937635 3.535534 0 3.535534 
z
" style="stroke: #888888; stroke-opacity: 0.7"/>
    </defs>
    <g clip-path="url(#pf35860dfe8)">
     <use xlink:href="#m48382e5c75" x="214.188877" y="292.029593" style="fill: #888888; fill-opacity: 0.7; stroke: #888888; stroke-opacity: 0.7"/>
     <use xlink:href="#m48382e5c75" x="169.173836" y="351.147824" style="fill: #888888; fill-opacity: 0.7; stroke: #888888; stroke-opacity: 0.7"/>
     <use xlink:href="#m48382e5c75" x="271.157513" y="331.526931" style="fill: #888888; fill-opacity: 0.7; stroke: #888888; stroke-opacity: 0.7"/>
     <use xlink:href="#m48382e5c75" x="216.446437" y="321.063275" style="fill: #888888; fill-opacity: 0.7; stroke: #888888; stroke-opacity: 0.7"/>
     <use xlink:href="#m48382e5c75" x="181.016943" y="295.190985" style="fill: #888888; fill-opacity: 0.7; stroke: #888888; stroke-opacity: 0.7"/>
     <use xlink:href="#m48382e5c75" x="176.020589" y="372.255366" style="fill: #888888; fill-opacity: 0.7; stroke: #888888; stroke-opacity: 0.7"/>
     <use xlink:href="#m48382e5c75" x="248.385378" y="287.022188" style="fill: #888888; fill-opacity: 0.7; stroke: #888888; stroke-opacity: 0.7"/>
     <use xlink:href="#m48382e5c75" x="176.905963" y="229.039804" style="fill: #888888; fill-opacity: 0.7; stroke: #888888; stroke-opacity: 0.7"/>
     <use xlink:href="#m48382e5c75" x="92.391691" y="341.020389" style="fill: #888888; fill-opacity: 0.7; stroke: #888888; stroke-opacity: 0.7"/>
     <use xlink:href="#m48382e5c75" x="216.079077" y="328.135656" style="fill: #888888; fill-opacity: 0.7; stroke: #888888; stroke-opacity: 0.7"/>
     <use xlink:href="#m48382e5c75" x="218.273982" y="342.955722" style="fill: #888888; fill-opacity: 0.7; stroke: #888888; stroke-opacity: 0.7"/>
     <use xlink:href="#m48382e5c75" x="215.563761" y="201.935649" style="fill: #888888; fill-opacity: 0.7; stroke: #888888; stroke-opacity: 0.7"/>
     <use xlink:href="#m48382e5c75" x="65.463466" y="397.751287" style="fill: #888888; fill-opacity: 0.7; stroke: #888888; stroke-opacity: 0.7"/>
     <use xlink:href="#m48382e5c75" x="262.064852" y="348.672438" style="fill: #888888; fill-opacity: 0.7; stroke: #888888; stroke-opacity: 0.7"/>
     <use xlink:href="#m48382e5c75" x="227.539846" y="350.467054" style="fill: #888888; fill-opacity: 0.7; stroke: #888888; stroke-opacity: 0.7"/>
     <use xlink:href="#m48382e5c75" x="231.955668" y="318.014917" style="fill: #888888; fill-opacity: 0.7; stroke: #888888; stroke-opacity: 0.7"/>
     <use xlink:href="#m48382e5c75" x="173.827708" y="303.61412" style="fill: #888888; fill-opacity: 0.7; stroke: #888888; stroke-opacity: 0.7"/>
     <use xlink:href="#m48382e5c75" x="200.267919" y="289.840773" style="fill: #888888; fill-opacity: 0.7; stroke: #888888; stroke-opacity: 0.7"/>
     <use xlink:href="#m48382e5c75" x="191.989331" y="68.032153" style="fill: #888888; fill-opacity: 0.7; stroke: #888888; stroke-opacity: 0.7"/>
     <use xlink:href="#m48382e5c75" x="221.396503" y="33.087773" style="fill: #888888; fill-opacity: 0.7; stroke: #888888; stroke-opacity: 0.7"/>
     <use xlink:href="#m48382e5c75" x="185.554597" y="383.698711" style="fill: #888888; fill-opacity: 0.7; stroke: #888888; stroke-opacity: 0.7"/>
     <use xlink:href="#m48382e5c75" x="267.158788" y="340.640462" style="fill: #888888; fill-opacity: 0.7; stroke: #888888; stroke-opacity: 0.7"/>
     <use xlink:href="#m48382e5c75" x="218.987372" y="352.238114" style="fill: #888888; fill-opacity: 0.7; stroke: #888888; stroke-opacity: 0.7"/>
     <use xlink:href="#m48382e5c75" x="235.529025" y="387.260005" style="fill: #888888; fill-opacity: 0.7; stroke: #888888; stroke-opacity: 0.7"/>
     <use xlink:href="#m48382e5c75" x="321.687878" y="423.393434" style="fill: #888888; fill-opacity: 0.7; stroke: #888888; stroke-opacity: 0.7"/>
     <use xlink:href="#m48382e5c75" x="237.321695" y="371.85044" style="fill: #888888; fill-opacity: 0.7; stroke: #888888; stroke-opacity: 0.7"/>
     <use xlink:href="#m48382e5c75" x="251.6353" y="349.893542" style="fill: #888888; fill-opacity: 0.7; stroke: #888888; stroke-opacity: 0.7"/>
     <use xlink:href="#m48382e5c75" x="237.356979" y="364.186359" style="fill: #888888; fill-opacity: 0.7; stroke: #888888; stroke-opacity: 0.7"/>
     <use xlink:href="#m48382e5c75" x="239.775453" y="271.167351" style="fill: #888888; fill-opacity: 0.7; stroke: #888888; stroke-opacity: 0.7"/>
     <use xlink:href="#m48382e5c75" x="91.688794" y="210.729054" style="fill: #888888; fill-opacity: 0.7; stroke: #888888; stroke-opacity: 0.7"/>
     <use xlink:href="#m48382e5c75" x="192.814536" y="362.612397" style="fill: #888888; fill-opacity: 0.7; stroke: #888888; stroke-opacity: 0.7"/>
     <use xlink:href="#m48382e5c75" x="251.23727" y="350.711579" style="fill: #888888; fill-opacity: 0.7; stroke: #888888; stroke-opacity: 0.7"/>
     <use xlink:href="#m48382e5c75" x="239.338502" y="375.825808" style="fill: #888888; fill-opacity: 0.7; stroke: #888888; stroke-opacity: 0.7"/>
     <use xlink:href="#m48382e5c75" x="251.66763" y="347.013853" style="fill: #888888; fill-opacity: 0.7; stroke: #888888; stroke-opacity: 0.7"/>
     <use xlink:href="#m48382e5c75" x="221.02764" y="354.467933" style="fill: #888888; fill-opacity: 0.7; stroke: #888888; stroke-opacity: 0.7"/>
     <use xlink:href="#m48382e5c75" x="239.930547" y="352.816739" style="fill: #888888; fill-opacity: 0.7; stroke: #888888; stroke-opacity: 0.7"/>
     <use xlink:href="#m48382e5c75" x="235.908398" y="385.788635" style="fill: #888888; fill-opacity: 0.7; stroke: #888888; stroke-opacity: 0.7"/>
     <use xlink:href="#m48382e5c75" x="260.563315" y="357.619722" style="fill: #888888; fill-opacity: 0.7; stroke: #888888; stroke-opacity: 0.7"/>
     <use xlink:href="#m48382e5c75" x="252.699447" y="309.356464" style="fill: #888888; fill-opacity: 0.7; stroke: #888888; stroke-opacity: 0.7"/>
     <use xlink:href="#m48382e5c75" x="172.051521" y="281.977971" style="fill: #888888; fill-opacity: 0.7; stroke: #888888; stroke-opacity: 0.7"/>
     <use xlink:href="#m48382e5c75" x="547.451979" y="196.878273" style="fill: #888888; fill-opacity: 0.7; stroke: #888888; stroke-opacity: 0.7"/>
     <use xlink:href="#m48382e5c75" x="58.912479" y="358.781788" style="fill: #888888; fill-opacity: 0.7; stroke: #888888; stroke-opacity: 0.7"/>
     <use xlink:href="#m48382e5c75" x="280.921904" y="455.407596" style="fill: #888888; fill-opacity: 0.7; stroke: #888888; stroke-opacity: 0.7"/>
     <use xlink:href="#m48382e5c75" x="211.52726" y="373.891086" style="fill: #888888; fill-opacity: 0.7; stroke: #888888; stroke-opacity: 0.7"/>
     <use xlink:href="#m48382e5c75" x="510.860161" y="411.862948" style="fill: #888888; fill-opacity: 0.7; stroke: #888888; stroke-opacity: 0.7"/>
     <use xlink:href="#m48382e5c75" x="277.761791" y="70.597931" style="fill: #888888; fill-opacity: 0.7; stroke: #888888; stroke-opacity: 0.7"/>
     <use xlink:href="#m48382e5c75" x="238.041767" y="222.592915" style="fill: #888888; fill-opacity: 0.7; stroke: #888888; stroke-opacity: 0.7"/>
     <use xlink:href="#m48382e5c75" x="488.425202" y="450.519906" style="fill: #888888; fill-opacity: 0.7; stroke: #888888; stroke-opacity: 0.7"/>
     <use xlink:href="#m48382e5c75" x="207.537013" y="97.191314" style="fill: #888888; fill-opacity: 0.7; stroke: #888888; stroke-opacity: 0.7"/>
     <use xlink:href="#m48382e5c75" x="273.260096" y="518.361344" style="fill: #888888; fill-opacity: 0.7; stroke: #888888; stroke-opacity: 0.7"/>
     <use xlink:href="#m48382e5c75" x="167.39958" y="81.929289" style="fill: #888888; fill-opacity: 0.7; stroke: #888888; stroke-opacity: 0.7"/>
     <use xlink:href="#m48382e5c75" x="412.445488" y="266.450751" style="fill: #888888; fill-opacity: 0.7; stroke: #888888; stroke-opacity: 0.7"/>
     <use xlink:href="#m48382e5c75" x="124.522617" y="261.264874" style="fill: #888888; fill-opacity: 0.7; stroke: #888888; stroke-opacity: 0.7"/>
     <use xlink:href="#m48382e5c75" x="229.823883" y="329.898595" style="fill: #888888; fill-opacity: 0.7; stroke: #888888; stroke-opacity: 0.7"/>
     <use xlink:href="#m48382e5c75" x="229.88442" y="298.615933" style="fill: #888888; fill-opacity: 0.7; stroke: #888888; stroke-opacity: 0.7"/>
     <use xlink:href="#m48382e5c75" x="204.450301" y="316.045302" style="fill: #888888; fill-opacity: 0.7; stroke: #888888; stroke-opacity: 0.7"/>
     <use xlink:href="#m48382e5c75" x="124.744582" y="157.447289" style="fill: #888888; fill-opacity: 0.7; stroke: #888888; stroke-opacity: 0.7"/>
     <use xlink:href="#m48382e5c75" x="54.821534" y="261.877721" style="fill: #888888; fill-opacity: 0.7; stroke: #888888; stroke-opacity: 0.7"/>
     <use xlink:href="#m48382e5c75" x="476.069958" y="317.155685" style="fill: #888888; fill-opacity: 0.7; stroke: #888888; stroke-opacity: 0.7"/>
     <use xlink:href="#m48382e5c75" x="382.741307" y="521.61713" style="fill: #888888; fill-opacity: 0.7; stroke: #888888; stroke-opacity: 0.7"/>
     <use xlink:href="#m48382e5c75" x="134.698579" y="203.053651" style="fill: #888888; fill-opacity: 0.7; stroke: #888888; stroke-opacity: 0.7"/>
     <use xlink:href="#m48382e5c75" x="197.909093" y="382.836475" style="fill: #888888; fill-opacity: 0.7; stroke: #888888; stroke-opacity: 0.7"/>
     <use xlink:href="#m48382e5c75" x="444.912905" y="193.726301" style="fill: #888888; fill-opacity: 0.7; stroke: #888888; stroke-opacity: 0.7"/>
     <use xlink:href="#m48382e5c75" x="206.49114" y="78.40098" style="fill: #888888; fill-opacity: 0.7; stroke: #888888; stroke-opacity: 0.7"/>
     <use xlink:href="#m48382e5c75" x="219.317633" y="23.941693" style="fill: #888888; fill-opacity: 0.7; stroke: #888888; stroke-opacity: 0.7"/>
     <use xlink:href="#m48382e5c75" x="152.722984" y="94.057171" style="fill: #888888; fill-opacity: 0.7; stroke: #888888; stroke-opacity: 0.7"/>
     <use xlink:href="#m48382e5c75" x="239.964974" y="25.411174" style="fill: #888888; fill-opacity: 0.7; stroke: #888888; stroke-opacity: 0.7"/>
     <use xlink:href="#m48382e5c75" x="169.16271" y="99.64911" style="fill: #888888; fill-opacity: 0.7; stroke: #888888; stroke-opacity: 0.7"/>
     <use xlink:href="#m48382e5c75" x="261.806469" y="387.73897" style="fill: #888888; fill-opacity: 0.7; stroke: #888888; stroke-opacity: 0.7"/>
     <use xlink:href="#m48382e5c75" x="205.308265" y="412.664041" style="fill: #888888; fill-opacity: 0.7; stroke: #888888; stroke-opacity: 0.7"/>
     <use xlink:href="#m48382e5c75" x="534.782555" y="357.710936" style="fill: #888888; fill-opacity: 0.7; stroke: #888888; stroke-opacity: 0.7"/>
     <use xlink:href="#m48382e5c75" x="445.064932" y="341.072957" style="fill: #888888; fill-opacity: 0.7; stroke: #888888; stroke-opacity: 0.7"/>
     <use xlink:href="#m48382e5c75" x="452.824935" y="375.13263" style="fill: #888888; fill-opacity: 0.7; stroke: #888888; stroke-opacity: 0.7"/>
     <use xlink:href="#m48382e5c75" x="194.753338" y="401.232716" style="fill: #888888; fill-opacity: 0.7; stroke: #888888; stroke-opacity: 0.7"/>
     <use xlink:href="#m48382e5c75" x="466.984558" y="435.236646" style="fill: #888888; fill-opacity: 0.7; stroke: #888888; stroke-opacity: 0.7"/>
    </g>
   </g>
   <g id="PathCollection_2"/>
   <g id="PathCollection_3">
    <defs>
     <path id="m297d97a251" d="M 0 3.535534 
C 0.937635 3.535534 1.836992 3.163008 2.5 2.5 
C 3.163008 1.836992 3.535534 0.937635 3.535534 0 
C 3.535534 -0.937635 3.163008 -1.836992 2.5 -2.5 
C 1.836992 -3.163008 0.937635 -3.535534 0 -3.535534 
C -0.937635 -3.535534 -1.836992 -3.163008 -2.5 -2.5 
C -3.163008 -1.836992 -3.535534 -0.937635 -3.535534 0 
C -3.535534 0.937635 -3.163008 1.836992 -2.5 2.5 
C -1.836992 3.163008 -0.937635 3.535534 0 3.535534 
z
" style="stroke: #e85d04; stroke-opacity: 0.7"/>
    </defs>
    <g clip-path="url(#pf35860dfe8)">
     <use xlink:href="#m297d97a251" x="223.342028" y="335.401021" style="fill: #e85d04; fill-opacity: 0.7; stroke: #e85d04; stroke-opacity: 0.7"/>
     <use xlink:href="#m297d97a251" x="225.288553" y="348.578687" style="fill: #e85d04; fill-opacity: 0.7; stroke: #e85d04; stroke-opacity: 0.7"/>
     <use xlink:href="#m297d97a251" x="228.789313" y="328.612692" style="fill: #e85d04; fill-opacity: 0.7; stroke: #e85d04; stroke-opacity: 0.7"/>
     <use xlink:href="#m297d97a251" x="211.930661" y="329.421485" style="fill: #e85d04; fill-opacity: 0.7; stroke: #e85d04; stroke-opacity: 0.7"/>
     <use xlink:href="#m297d97a251" x="207.434997" y="355.817459" style="fill: #e85d04; fill-opacity: 0.7; stroke: #e85d04; stroke-opacity: 0.7"/>
    </g>
   </g>
   <g id="patch_3">
    <path d="M 192.604965 360.389479 
L 248.796076 360.389479 
L 248.796076 318.246146 
L 192.604965 318.246146 
L 192.604965 360.389479 
z
" clip-path="url(#pf35860dfe8)" style="fill: none; stroke-dasharray: 7.4,3.2; stroke-dashoffset: 0; stroke: #e85d04; stroke-width: 2; stroke-linejoin: miter"/>
   </g>
   <g id="patch_4">
    <path d="M 94.270521 149.672812 
L 178.557187 149.672812 
L 178.557187 65.386146 
L 94.270521 65.386146 
L 94.270521 149.672812 
z
" clip-path="url(#pf35860dfe8)" style="fill: none; stroke-dasharray: 7.4,3.2; stroke-dashoffset: 0; stroke: #048a81; stroke-width: 2; stroke-linejoin: miter"/>
   </g>
   <g id="matplotlib.axis_1">
    <g id="xtick_1">
     <g id="line2d_1">
      <defs>
       <path id="mbdcf05f891" d="M 0 0 
L 0 3.5 
" style="stroke: #000000; stroke-width: 0.8"/>
      </defs>
      <g>
       <use xlink:href="#mbdcf05f891" x="94.270521" y="528.962812" style="stroke: #000000; stroke-width: 0.8"/>
      </g>
     </g>
     <g id="text_1">
      <!-- −150 -->
      <g transform="translate(83.008802 543.13625) scale(0.1 -0.1)">
       <defs>
        <path id="Helvetica-2212" d="M 3547 1894 
L 3547 1369 
L 288 1369 
L 288 1894 
L 3547 1894 
z
" transform="scale(0.015625)"/>
        <path id="Helvetica-31" d="M 613 3169 
L 613 3600 
Q 1222 3659 1462 3798 
Q 1703 3938 1822 4456 
L 2266 4456 
L 2266 0 
L 1666 0 
L 1666 3169 
L 613 3169 
z
" transform="scale(0.015625)"/>
        <path id="Helvetica-35" d="M 791 1141 
Q 847 659 1238 475 
Q 1438 381 1700 381 
Q 2200 381 2440 700 
Q 2681 1019 2681 1406 
Q 2681 1875 2395 2131 
Q 2109 2388 1709 2388 
Q 1419 2388 1211 2275 
Q 1003 2163 856 1963 
L 369 1991 
L 709 4400 
L 3034 4400 
L 3034 3856 
L 1131 3856 
L 941 2613 
Q 1097 2731 1238 2791 
Q 1488 2894 1816 2894 
Q 2431 2894 2859 2497 
Q 3288 2100 3288 1491 
Q 3288 856 2895 371 
Q 2503 -113 1644 -113 
Q 1097 -113 676 195 
Q 256 503 206 1141 
L 791 1141 
z
" transform="scale(0.015625)"/>
        <path id="Helvetica-30" d="M 1731 4475 
Q 2600 4475 2988 3759 
Q 3288 3206 3288 2244 
Q 3288 1331 3016 734 
Q 2622 -122 1728 -122 
Q 922 -122 528 578 
Q 200 1163 200 2147 
Q 200 2909 397 3456 
Q 766 4475 1731 4475 
z
M 1725 391 
Q 2163 391 2422 778 
Q 2681 1166 2681 2222 
Q 2681 2984 2493 3476 
Q 2306 3969 1766 3969 
Q 1269 3969 1039 3501 
Q 809 3034 809 2125 
Q 809 1441 956 1025 
Q 1181 391 1725 391 
z
" transform="scale(0.015625)"/>
       </defs>
       <use xlink:href="#Helvetica-2212"/>
       <use xlink:href="#Helvetica-31" x="58.398438"/>
       <use xlink:href="#Helvetica-35" x="114.013672"/>
       <use xlink:href="#Helvetica-30" x="169.628906"/>
      </g>
     </g>
    </g>
    <g id="xtick_2">
     <g id="line2d_2">
      <g>
       <use xlink:href="#mbdcf05f891" x="164.50941" y="528.962812" style="stroke: #000000; stroke-width: 0.8"/>
      </g>
     </g>
     <g id="text_2">
      <!-- −100 -->
      <g transform="translate(153.247691 543.13625) scale(0.1 -0.1)">
       <use xlink:href="#Helvetica-2212"/>
       <use xlink:href="#Helvetica-31" x="58.398438"/>
       <use xlink:href="#Helvetica-30" x="114.013672"/>
       <use xlink:href="#Helvetica-30" x="169.628906"/>
      </g>
     </g>
    </g>
    <g id="xtick_3">
     <g id="line2d_3">
      <g>
       <use xlink:href="#mbdcf05f891" x="234.748299" y="528.962812" style="stroke: #000000; stroke-width: 0.8"/>
      </g>
     </g>
     <g id="text_3">
      <!-- −50 -->
      <g transform="translate(226.267049 543.13625) scale(0.1 -0.1)">
       <use xlink:href="#Helvetica-2212"/>
       <use xlink:href="#Helvetica-35" x="58.398438"/>
       <use xlink:href="#Helvetica-30" x="114.013672"/>
      </g>
     </g>
    </g>
    <g id="xtick_4">
     <g id="line2d_4">
      <g>
       <use xlink:href="#mbdcf05f891" x="304.987188" y="528.962812" style="stroke: #000000; stroke-width: 0.8"/>
      </g>
     </g>
     <g id="text_4">
      <!-- 0 -->
      <g transform="translate(302.206719 543.13625) scale(0.1 -0.1)">
       <use xlink:href="#Helvetica-30"/>
      </g>
     </g>
    </g>
    <g id="xtick_5">
     <g id="line2d_5">
      <g>
       <use xlink:href="#mbdcf05f891" x="375.226076" y="528.962812" style="stroke: #000000; stroke-width: 0.8"/>
      </g>
     </g>
     <g id="text_5">
      <!-- 50 -->
      <g transform="translate(369.665139 543.13625) scale(0.1 -0.1)">
       <use xlink:href="#Helvetica-35"/>
       <use xlink:href="#Helvetica-30" x="55.615234"/>
      </g>
     </g>
    </g>
    <g id="xtick_6">
     <g id="line2d_6">
      <g>
       <use xlink:href="#mbdcf05f891" x="445.464965" y="528.962812" style="stroke: #000000; stroke-width: 0.8"/>
      </g>
     </g>
     <g id="text_6">
      <!-- 100 -->
      <g transform="translate(437.123559 543.13625) scale(0.1 -0.1)">
       <use xlink:href="#Helvetica-31"/>
       <use xlink:href="#Helvetica-30" x="55.615234"/>
       <use xlink:href="#Helvetica-30" x="111.230469"/>
      </g>
     </g>
    </g>
    <g id="xtick_7">
     <g id="line2d_7">
      <g>
       <use xlink:href="#mbdcf05f891" x="515.703854" y="528.962812" style="stroke: #000000; stroke-width: 0.8"/>
      </g>
     </g>
     <g id="text_7">
      <!-- 150 -->
      <g transform="translate(507.362448 543.13625) scale(0.1 -0.1)">
       <use xlink:href="#Helvetica-31"/>
       <use xlink:href="#Helvetica-35" x="55.615234"/>
       <use xlink:href="#Helvetica-30" x="111.230469"/>
      </g>
     </g>
    </g>
    <g id="text_8">
     <!-- φ (degrees) -->
     <g transform="translate(273.310938 557.969375) scale(0.12 -0.12)">
      <defs>
       <path id="Helvetica-3c6" d="M 2578 459 
Q 3141 513 3431 863 
Q 3713 1222 3713 1747 
Q 3713 2253 3419 2591 
Q 3122 2925 2578 2931 
L 2578 459 
z
M 2041 2931 
Q 1503 2925 1209 2591 
Q 909 2253 909 1747 
Q 909 1222 1197 863 
Q 1484 513 2041 459 
L 2041 2931 
z
M 2041 0 
Q 1288 44 831 494 
Q 378 934 372 1709 
Q 409 3284 2041 3391 
L 2041 4147 
L 2578 4147 
L 2578 3391 
Q 4209 3284 4250 1709 
Q 4244 934 3794 494 
Q 3347 44 2578 0 
L 2578 -1253 
L 2041 -1253 
L 2041 0 
z
" transform="scale(0.015625)"/>
       <path id="Helvetica-20" transform="scale(0.015625)"/>
       <path id="Helvetica-28" d="M 1894 4666 
Q 1403 3713 1256 3263 
Q 1034 2578 1034 1681 
Q 1034 775 1288 25 
Q 1444 -438 1903 -1306 
L 1525 -1306 
Q 1069 -594 959 -397 
Q 850 -200 722 138 
Q 547 600 478 1125 
Q 444 1397 444 1644 
Q 444 2569 734 3291 
Q 919 3750 1503 4666 
L 1894 4666 
z
" transform="scale(0.015625)"/>
       <path id="Helvetica-64" d="M 769 1634 
Q 769 1097 997 734 
Q 1225 372 1728 372 
Q 2119 372 2370 708 
Q 2622 1044 2622 1672 
Q 2622 2306 2362 2611 
Q 2103 2916 1722 2916 
Q 1297 2916 1033 2591 
Q 769 2266 769 1634 
z
M 1616 3406 
Q 2000 3406 2259 3244 
Q 2409 3150 2600 2916 
L 2600 4606 
L 3141 4606 
L 3141 0 
L 2634 0 
L 2634 466 
Q 2438 156 2169 18 
Q 1900 -119 1553 -119 
Q 994 -119 584 351 
Q 175 822 175 1603 
Q 175 2334 548 2870 
Q 922 3406 1616 3406 
z
" transform="scale(0.015625)"/>
       <path id="Helvetica-65" d="M 1806 3422 
Q 2163 3422 2497 3255 
Q 2831 3088 3006 2822 
Q 3175 2569 3231 2231 
Q 3281 2000 3281 1494 
L 828 1494 
Q 844 984 1069 676 
Q 1294 369 1766 369 
Q 2206 369 2469 659 
Q 2619 828 2681 1050 
L 3234 1050 
Q 3213 866 3089 639 
Q 2966 413 2813 269 
Q 2556 19 2178 -69 
Q 1975 -119 1719 -119 
Q 1094 -119 659 336 
Q 225 791 225 1609 
Q 225 2416 662 2919 
Q 1100 3422 1806 3422 
z
M 2703 1941 
Q 2669 2306 2544 2525 
Q 2313 2931 1772 2931 
Q 1384 2931 1121 2651 
Q 859 2372 844 1941 
L 2703 1941 
z
M 1753 3428 
L 1753 3428 
z
" transform="scale(0.015625)"/>
       <path id="Helvetica-67" d="M 1594 3406 
Q 1988 3406 2281 3213 
Q 2441 3103 2606 2894 
L 2606 3316 
L 3125 3316 
L 3125 272 
Q 3125 -366 2938 -734 
Q 2588 -1416 1616 -1416 
Q 1075 -1416 706 -1173 
Q 338 -931 294 -416 
L 866 -416 
Q 906 -641 1028 -763 
Q 1219 -950 1628 -950 
Q 2275 -950 2475 -494 
Q 2594 -225 2584 466 
Q 2416 209 2178 84 
Q 1941 -41 1550 -41 
Q 1006 -41 598 345 
Q 191 731 191 1622 
Q 191 2463 602 2934 
Q 1013 3406 1594 3406 
z
M 2606 1688 
Q 2606 2309 2350 2609 
Q 2094 2909 1697 2909 
Q 1103 2909 884 2353 
Q 769 2056 769 1575 
Q 769 1009 998 714 
Q 1228 419 1616 419 
Q 2222 419 2469 966 
Q 2606 1275 2606 1688 
z
M 1659 3428 
L 1659 3428 
z
" transform="scale(0.015625)"/>
       <path id="Helvetica-72" d="M 428 3347 
L 963 3347 
L 963 2769 
Q 1028 2938 1284 3180 
Q 1541 3422 1875 3422 
Q 1891 3422 1928 3419 
Q 1966 3416 2056 3406 
L 2056 2813 
Q 2006 2822 1964 2825 
Q 1922 2828 1872 2828 
Q 1447 2828 1219 2554 
Q 991 2281 991 1925 
L 991 0 
L 428 0 
L 428 3347 
z
" transform="scale(0.015625)"/>
       <path id="Helvetica-73" d="M 747 1050 
Q 772 769 888 619 
Q 1100 347 1625 347 
Q 1938 347 2175 483 
Q 2413 619 2413 903 
Q 2413 1119 2222 1231 
Q 2100 1300 1741 1391 
L 1294 1503 
Q 866 1609 663 1741 
Q 300 1969 300 2372 
Q 300 2847 642 3140 
Q 984 3434 1563 3434 
Q 2319 3434 2653 2991 
Q 2863 2709 2856 2384 
L 2325 2384 
Q 2309 2575 2191 2731 
Q 1997 2953 1519 2953 
Q 1200 2953 1036 2831 
Q 872 2709 872 2509 
Q 872 2291 1088 2159 
Q 1213 2081 1456 2022 
L 1828 1931 
Q 2434 1784 2641 1647 
Q 2969 1431 2969 969 
Q 2969 522 2630 197 
Q 2291 -128 1597 -128 
Q 850 -128 539 211 
Q 228 550 206 1050 
L 747 1050 
z
M 1578 3428 
L 1578 3428 
z
" transform="scale(0.015625)"/>
       <path id="Helvetica-29" d="M 222 -1306 
Q 719 -338 863 106 
Q 1081 778 1081 1681 
Q 1081 2584 828 3334 
Q 672 3797 213 4666 
L 591 4666 
Q 1072 3897 1173 3717 
Q 1275 3538 1394 3222 
Q 1544 2831 1608 2450 
Q 1672 2069 1672 1716 
Q 1672 791 1378 66 
Q 1194 -400 613 -1306 
L 222 -1306 
z
" transform="scale(0.015625)"/>
      </defs>
      <use xlink:href="#Helvetica-3c6"/>
      <use xlink:href="#Helvetica-20" x="72.216797"/>
      <use xlink:href="#Helvetica-28" x="100"/>
      <use xlink:href="#Helvetica-64" x="133.300781"/>
      <use xlink:href="#Helvetica-65" x="188.916016"/>
      <use xlink:href="#Helvetica-67" x="244.53125"/>
      <use xlink:href="#Helvetica-72" x="300.146484"/>
      <use xlink:href="#Helvetica-65" x="333.447266"/>
      <use xlink:href="#Helvetica-65" x="389.0625"/>
      <use xlink:href="#Helvetica-73" x="444.677734"/>
      <use xlink:href="#Helvetica-29" x="494.677734"/>
     </g>
    </g>
   </g>
   <g id="matplotlib.axis_2">
    <g id="ytick_1">
     <g id="line2d_8">
      <defs>
       <path id="mb7b56ba232" d="M 0 0 
L -3.5 0 
" style="stroke: #000000; stroke-width: 0.8"/>
      </defs>
      <g>
       <use xlink:href="#mb7b56ba232" x="52.127187" y="486.819479" style="stroke: #000000; stroke-width: 0.8"/>
      </g>
     </g>
     <g id="text_9">
      <!-- −150 -->
      <g transform="translate(22.60375 490.406198) scale(0.1 -0.1)">
       <use xlink:href="#Helvetica-2212"/>
       <use xlink:href="#Helvetica-31" x="58.398438"/>
       <use xlink:href="#Helvetica-35" x="114.013672"/>
       <use xlink:href="#Helvetica-30" x="169.628906"/>
      </g>
     </g>
    </g>
    <g id="ytick_2">
     <g id="line2d_9">
      <g>
       <use xlink:href="#mb7b56ba232" x="52.127187" y="416.58059" style="stroke: #000000; stroke-width: 0.8"/>
      </g>
     </g>
     <g id="text_10">
      <!-- −100 -->
      <g transform="translate(22.60375 420.167309) scale(0.1 -0.1)">
       <use xlink:href="#Helvetica-2212"/>
       <use xlink:href="#Helvetica-31" x="58.398438"/>
       <use xlink:href="#Helvetica-30" x="114.013672"/>
       <use xlink:href="#Helvetica-30" x="169.628906"/>
      </g>
     </g>
    </g>
    <g id="ytick_3">
     <g id="line2d_10">
      <g>
       <use xlink:href="#mb7b56ba232" x="52.127187" y="346.341701" style="stroke: #000000; stroke-width: 0.8"/>
      </g>
     </g>
     <g id="text_11">
      <!-- −50 -->
      <g transform="translate(28.164687 349.92842) scale(0.1 -0.1)">
       <use xlink:href="#Helvetica-2212"/>
       <use xlink:href="#Helvetica-35" x="58.398438"/>
       <use xlink:href="#Helvetica-30" x="114.013672"/>
      </g>
     </g>
    </g>
    <g id="ytick_4">
     <g id="line2d_11">
      <g>
       <use xlink:href="#mb7b56ba232" x="52.127187" y="276.102812" style="stroke: #000000; stroke-width: 0.8"/>
      </g>
     </g>
     <g id="text_12">
      <!-- 0 -->
      <g transform="translate(39.56625 279.689531) scale(0.1 -0.1)">
       <use xlink:href="#Helvetica-30"/>
      </g>
     </g>
    </g>
    <g id="ytick_5">
     <g id="line2d_12">
      <g>
       <use xlink:href="#mb7b56ba232" x="52.127187" y="205.863924" style="stroke: #000000; stroke-width: 0.8"/>
      </g>
     </g>
     <g id="text_13">
      <!-- 50 -->
      <g transform="translate(34.005312 209.450642) scale(0.1 -0.1)">
       <use xlink:href="#Helvetica-35"/>
       <use xlink:href="#Helvetica-30" x="55.615234"/>
      </g>
     </g>
    </g>
    <g id="ytick_6">
     <g id="line2d_13">
      <g>
       <use xlink:href="#mb7b56ba232" x="52.127187" y="135.625035" style="stroke: #000000; stroke-width: 0.8"/>
      </g>
     </g>
     <g id="text_14">
      <!-- 100 -->
      <g transform="translate(28.444375 139.211753) scale(0.1 -0.1)">
       <use xlink:href="#Helvetica-31"/>
       <use xlink:href="#Helvetica-30" x="55.615234"/>
       <use xlink:href="#Helvetica-30" x="111.230469"/>
      </g>
     </g>
    </g>
    <g id="ytick_7">
     <g id="line2d_14">
      <g>
       <use xlink:href="#mb7b56ba232" x="52.127187" y="65.386146" style="stroke: #000000; stroke-width: 0.8"/>
      </g>
     </g>
     <g id="text_15">
      <!-- 150 -->
      <g transform="translate(28.444375 68.972865) scale(0.1 -0.1)">
       <use xlink:href="#Helvetica-31"/>
       <use xlink:href="#Helvetica-35" x="55.615234"/>
       <use xlink:href="#Helvetica-30" x="111.230469"/>
      </g>
     </g>
    </g>
    <g id="text_16">
     <!-- ψ (degrees) -->
     <g transform="translate(15.94875 307.779062) rotate(-90) scale(0.12 -0.12)">
      <defs>
       <path id="Helvetica-3c8" d="M 447 3328 
L 1025 3328 
L 1025 1534 
Q 1025 1203 1106 997 
Q 1191 794 1325 678 
Q 1459 569 1644 525 
Q 1819 481 2022 459 
L 2022 4147 
L 2597 4147 
L 2597 459 
Q 2809 481 2994 525 
Q 3175 569 3309 678 
Q 3450 794 3525 997 
Q 3597 1203 3597 1534 
L 3597 3328 
L 4172 3328 
L 4172 1363 
Q 4166 653 3738 347 
Q 3316 31 2597 0 
L 2597 -1253 
L 2022 -1253 
L 2022 0 
Q 1319 31 897 347 
Q 453 653 447 1363 
L 447 3328 
z
" transform="scale(0.015625)"/>
      </defs>
      <use xlink:href="#Helvetica-3c8"/>
      <use xlink:href="#Helvetica-20" x="72.216797"/>
      <use xlink:href="#Helvetica-28" x="100"/>
      <use xlink:href="#Helvetica-64" x="133.300781"/>
      <use xlink:href="#Helvetica-65" x="188.916016"/>
      <use xlink:href="#Helvetica-67" x="244.53125"/>
      <use xlink:href="#Helvetica-72" x="300.146484"/>
      <use xlink:href="#Helvetica-65" x="333.447266"/>
      <use xlink:href="#Helvetica-65" x="389.0625"/>
      <use xlink:href="#Helvetica-73" x="444.677734"/>
      <use xlink:href="#Helvetica-29" x="494.677734"/>
     </g>
    </g>
   </g>
   <g id="line2d_15">
    <path d="M 52.127187 276.102812 
L 557.847188 276.102812 
" clip-path="url(#pf35860dfe8)" style="fill: none; stroke: #808080; stroke-width: 0.5; stroke-linecap: square"/>
   </g>
   <g id="line2d_16">
    <path d="M 304.987188 528.962812 
L 304.987188 23.242812 
" clip-path="url(#pf35860dfe8)" style="fill: none; stroke: #808080; stroke-width: 0.5; stroke-linecap: square"/>
   </g>
   <g id="patch_5">
    <path d="M 52.127187 528.962812 
L 52.127187 23.242812 
" style="fill: none; stroke: #000000; stroke-width: 1.2; stroke-linejoin: miter; stroke-linecap: square"/>
   </g>
   <g id="patch_6">
    <path d="M 52.127187 528.962812 
L 557.847188 528.962812 
" style="fill: none; stroke: #000000; stroke-width: 1.2; stroke-linejoin: miter; stroke-linecap: square"/>
   </g>
   <g id="text_17">
    <!-- α-helix -->
    <g style="fill: #e85d04" transform="translate(220.700521 339.317812) scale(0.1 -0.1)">
     <defs>
      <path id="Helvetica-3b1" d="M 3347 703 
Q 3334 428 3525 434 
Q 3641 434 3700 475 
L 3700 -19 
Q 3628 -44 3513 -50 
Q 3391 -63 3309 -63 
Q 3084 -56 2956 103 
Q 2816 256 2816 475 
L 2803 475 
Q 2413 -63 1734 -63 
Q 1006 -50 647 459 
Q 281 953 281 1644 
Q 281 2350 634 2859 
Q 984 3378 1741 3391 
Q 2413 3391 2797 2847 
L 2809 2847 
L 2809 3328 
L 3347 3328 
L 3347 703 
z
M 1825 397 
Q 2075 397 2253 513 
Q 2425 622 2541 806 
Q 2766 1184 2766 1638 
Q 2766 2144 2559 2528 
Q 2350 2919 1797 2931 
Q 1306 2919 1081 2534 
Q 856 2156 856 1697 
Q 856 1209 1081 819 
Q 1306 409 1825 397 
z
" transform="scale(0.015625)"/>
      <path id="Helvetica-2d" d="M 266 2072 
L 1834 2072 
L 1834 1494 
L 266 1494 
L 266 2072 
z
" transform="scale(0.015625)"/>
      <path id="Helvetica-68" d="M 413 4606 
L 975 4606 
L 975 2894 
Q 1175 3147 1334 3250 
Q 1606 3428 2013 3428 
Q 2741 3428 3000 2919 
Q 3141 2641 3141 2147 
L 3141 0 
L 2563 0 
L 2563 2109 
Q 2563 2478 2469 2650 
Q 2316 2925 1894 2925 
Q 1544 2925 1259 2684 
Q 975 2444 975 1775 
L 975 0 
L 413 0 
L 413 4606 
z
" transform="scale(0.015625)"/>
      <path id="Helvetica-6c" d="M 428 4591 
L 991 4591 
L 991 0 
L 428 0 
L 428 4591 
z
" transform="scale(0.015625)"/>
      <path id="Helvetica-69" d="M 413 3331 
L 984 3331 
L 984 0 
L 413 0 
L 413 3331 
z
M 413 4591 
L 984 4591 
L 984 3953 
L 413 3953 
L 413 4591 
z
" transform="scale(0.015625)"/>
      <path id="Helvetica-78" d="M 94 3347 
L 822 3347 
L 1591 2169 
L 2369 3347 
L 3053 3331 
L 1925 1716 
L 3103 0 
L 2384 0 
L 1553 1256 
L 747 0 
L 34 0 
L 1213 1716 
L 94 3347 
z
" transform="scale(0.015625)"/>
     </defs>
     <use xlink:href="#Helvetica-3b1"/>
     <use xlink:href="#Helvetica-2d" x="61.083984"/>
     <use xlink:href="#Helvetica-68" x="94.384766"/>
     <use xlink:href="#Helvetica-65" x="150"/>
     <use xlink:href="#Helvetica-6c" x="205.615234"/>
     <use xlink:href="#Helvetica-69" x="227.832031"/>
     <use xlink:href="#Helvetica-78" x="250.048828"/>
    </g>
   </g>
   <g id="text_18">
    <!-- β-sheet -->
    <g style="fill: #048a81" transform="translate(136.413854 107.529479) scale(0.1 -0.1)">
     <defs>
      <path id="Helvetica-3b2" d="M 1131 -1253 
L 563 -1253 
L 563 3134 
Q 563 4606 2009 4634 
Q 2578 4634 2956 4353 
Q 3334 4063 3341 3525 
Q 3334 2681 2559 2444 
L 2559 2431 
Q 3538 2278 3553 1288 
Q 3547 703 3206 325 
Q 2853 -56 2253 -63 
Q 1888 -63 1638 44 
Q 1381 153 1131 428 
L 1131 -1253 
z
M 1141 1544 
Q 1141 1319 1184 1113 
Q 1228 916 1331 750 
Q 1441 588 1638 500 
Q 1831 397 2131 397 
Q 2534 397 2759 659 
Q 2975 909 2975 1306 
Q 2969 1778 2681 1978 
Q 2394 2163 1966 2163 
Q 1803 2156 1638 2144 
L 1638 2625 
Q 1778 2625 1906 2631 
Q 2266 2638 2516 2828 
Q 2759 3016 2766 3431 
Q 2747 4172 1978 4172 
Q 1534 4166 1338 3909 
Q 1141 3647 1141 3200 
L 1141 1544 
z
" transform="scale(0.015625)"/>
      <path id="Helvetica-74" d="M 525 4281 
L 1094 4281 
L 1094 3347 
L 1628 3347 
L 1628 2888 
L 1094 2888 
L 1094 703 
Q 1094 528 1213 469 
Q 1278 434 1431 434 
Q 1472 434 1519 436 
Q 1566 438 1628 444 
L 1628 0 
Q 1531 -28 1426 -40 
Q 1322 -53 1200 -53 
Q 806 -53 665 148 
Q 525 350 525 672 
L 525 2888 
L 72 2888 
L 72 3347 
L 525 3347 
L 525 4281 
z
" transform="scale(0.015625)"/>
     </defs>
     <use xlink:href="#Helvetica-3b2"/>
     <use xlink:href="#Helvetica-2d" x="61.083984"/>
     <use xlink:href="#Helvetica-73" x="94.384766"/>
     <use xlink:href="#Helvetica-68" x="144.384766"/>
     <use xlink:href="#Helvetica-65" x="200"/>
     <use xlink:href="#Helvetica-65" x="255.615234"/>
     <use xlink:href="#Helvetica-74" x="311.230469"/>
    </g>
   </g>
   <g id="text_19">
    <!-- Ramachandran Plot of uTP Consensus Structure -->
    <g transform="translate(153.252344 17.242812) scale(0.14 -0.14)">
     <defs>
      <path id="Helvetica-52" d="M 2622 2488 
Q 3059 2488 3314 2663 
Q 3569 2838 3569 3294 
Q 3569 3784 3213 3963 
Q 3022 4056 2703 4056 
L 1184 4056 
L 1184 2488 
L 2622 2488 
z
M 563 4591 
L 2688 4591 
Q 3213 4591 3553 4438 
Q 4200 4144 4200 3353 
Q 4200 2941 4029 2678 
Q 3859 2416 3553 2256 
Q 3822 2147 3958 1969 
Q 4094 1791 4109 1391 
L 4131 775 
Q 4141 513 4175 384 
Q 4231 166 4375 103 
L 4375 0 
L 3613 0 
Q 3581 59 3562 153 
Q 3544 247 3531 516 
L 3494 1281 
Q 3472 1731 3159 1884 
Q 2981 1969 2600 1969 
L 1184 1969 
L 1184 0 
L 563 0 
L 563 4591 
z
" transform="scale(0.015625)"/>
      <path id="Helvetica-61" d="M 844 891 
Q 844 647 1022 506 
Q 1200 366 1444 366 
Q 1741 366 2019 503 
Q 2488 731 2488 1250 
L 2488 1703 
Q 2384 1638 2221 1594 
Q 2059 1550 1903 1531 
L 1563 1488 
Q 1256 1447 1103 1359 
Q 844 1213 844 891 
z
M 2206 2028 
Q 2400 2053 2466 2191 
Q 2503 2266 2503 2406 
Q 2503 2694 2298 2823 
Q 2094 2953 1713 2953 
Q 1272 2953 1088 2716 
Q 984 2584 953 2325 
L 428 2325 
Q 444 2944 830 3186 
Q 1216 3428 1725 3428 
Q 2316 3428 2684 3203 
Q 3050 2978 3050 2503 
L 3050 575 
Q 3050 488 3086 434 
Q 3122 381 3238 381 
Q 3275 381 3322 386 
Q 3369 391 3422 400 
L 3422 -16 
Q 3291 -53 3222 -62 
Q 3153 -72 3034 -72 
Q 2744 -72 2613 134 
Q 2544 244 2516 444 
Q 2344 219 2022 53 
Q 1700 -113 1313 -113 
Q 847 -113 551 170 
Q 256 453 256 878 
Q 256 1344 547 1600 
Q 838 1856 1309 1916 
L 2206 2028 
z
M 1741 3428 
L 1741 3428 
z
" transform="scale(0.015625)"/>
      <path id="Helvetica-6d" d="M 413 3347 
L 969 3347 
L 969 2872 
Q 1169 3119 1331 3231 
Q 1609 3422 1963 3422 
Q 2363 3422 2606 3225 
Q 2744 3113 2856 2894 
Q 3044 3163 3297 3292 
Q 3550 3422 3866 3422 
Q 4541 3422 4784 2934 
Q 4916 2672 4916 2228 
L 4916 0 
L 4331 0 
L 4331 2325 
Q 4331 2659 4164 2784 
Q 3997 2909 3756 2909 
Q 3425 2909 3186 2687 
Q 2947 2466 2947 1947 
L 2947 0 
L 2375 0 
L 2375 2184 
Q 2375 2525 2294 2681 
Q 2166 2916 1816 2916 
Q 1497 2916 1236 2669 
Q 975 2422 975 1775 
L 975 0 
L 413 0 
L 413 3347 
z
" transform="scale(0.015625)"/>
      <path id="Helvetica-63" d="M 1703 3444 
Q 2269 3444 2623 3169 
Q 2978 2894 3050 2222 
L 2503 2222 
Q 2453 2531 2275 2736 
Q 2097 2941 1703 2941 
Q 1166 2941 934 2416 
Q 784 2075 784 1575 
Q 784 1072 996 728 
Q 1209 384 1666 384 
Q 2016 384 2220 598 
Q 2425 813 2503 1184 
L 3050 1184 
Q 2956 519 2581 211 
Q 2206 -97 1622 -97 
Q 966 -97 575 383 
Q 184 863 184 1581 
Q 184 2463 612 2953 
Q 1041 3444 1703 3444 
z
M 1616 3428 
L 1616 3428 
z
" transform="scale(0.015625)"/>
      <path id="Helvetica-6e" d="M 413 3347 
L 947 3347 
L 947 2872 
Q 1184 3166 1450 3294 
Q 1716 3422 2041 3422 
Q 2753 3422 3003 2925 
Q 3141 2653 3141 2147 
L 3141 0 
L 2569 0 
L 2569 2109 
Q 2569 2416 2478 2603 
Q 2328 2916 1934 2916 
Q 1734 2916 1606 2875 
Q 1375 2806 1200 2600 
Q 1059 2434 1017 2257 
Q 975 2081 975 1753 
L 975 0 
L 413 0 
L 413 3347 
z
M 1734 3428 
L 1734 3428 
z
" transform="scale(0.015625)"/>
      <path id="Helvetica-50" d="M 547 4591 
L 2613 4591 
Q 3225 4591 3600 4245 
Q 3975 3900 3975 3275 
Q 3975 2738 3640 2339 
Q 3306 1941 2613 1941 
L 1169 1941 
L 1169 0 
L 547 0 
L 547 4591 
z
M 3347 3272 
Q 3347 3778 2972 3959 
Q 2766 4056 2406 4056 
L 1169 4056 
L 1169 2466 
L 2406 2466 
Q 2825 2466 3086 2644 
Q 3347 2822 3347 3272 
z
" transform="scale(0.015625)"/>
      <path id="Helvetica-6f" d="M 1741 363 
Q 2300 363 2508 786 
Q 2716 1209 2716 1728 
Q 2716 2197 2566 2491 
Q 2328 2953 1747 2953 
Q 1231 2953 997 2559 
Q 763 2166 763 1609 
Q 763 1075 997 719 
Q 1231 363 1741 363 
z
M 1763 3444 
Q 2409 3444 2856 3012 
Q 3303 2581 3303 1744 
Q 3303 934 2909 406 
Q 2516 -122 1688 -122 
Q 997 -122 590 345 
Q 184 813 184 1600 
Q 184 2444 612 2944 
Q 1041 3444 1763 3444 
z
M 1744 3428 
L 1744 3428 
z
" transform="scale(0.015625)"/>
      <path id="Helvetica-66" d="M 553 3856 
Q 566 4206 675 4369 
Q 872 4656 1434 4656 
Q 1488 4656 1544 4653 
Q 1600 4650 1672 4644 
L 1672 4131 
Q 1584 4138 1545 4139 
Q 1506 4141 1472 4141 
Q 1216 4141 1166 4008 
Q 1116 3875 1116 3331 
L 1672 3331 
L 1672 2888 
L 1109 2888 
L 1109 0 
L 553 0 
L 553 2888 
L 88 2888 
L 88 3331 
L 553 3331 
L 553 3856 
z
" transform="scale(0.015625)"/>
      <path id="Helvetica-75" d="M 975 3347 
L 975 1125 
Q 975 869 1056 706 
Q 1206 406 1616 406 
Q 2203 406 2416 931 
Q 2531 1213 2531 1703 
L 2531 3347 
L 3094 3347 
L 3094 0 
L 2563 0 
L 2569 494 
Q 2459 303 2297 172 
Q 1975 -91 1516 -91 
Q 800 -91 541 388 
Q 400 644 400 1072 
L 400 3347 
L 975 3347 
z
M 1747 3428 
L 1747 3428 
z
" transform="scale(0.015625)"/>
      <path id="Helvetica-54" d="M 3828 4591 
L 3828 4044 
L 2281 4044 
L 2281 0 
L 1650 0 
L 1650 4044 
L 103 4044 
L 103 4591 
L 3828 4591 
z
" transform="scale(0.015625)"/>
      <path id="Helvetica-43" d="M 2422 4716 
Q 3294 4716 3775 4256 
Q 4256 3797 4309 3213 
L 3703 3213 
Q 3600 3656 3292 3915 
Q 2984 4175 2428 4175 
Q 1750 4175 1333 3698 
Q 916 3222 916 2238 
Q 916 1431 1292 929 
Q 1669 428 2416 428 
Q 3103 428 3463 956 
Q 3653 1234 3747 1688 
L 4353 1688 
Q 4272 963 3816 472 
Q 3269 -119 2341 -119 
Q 1541 -119 997 366 
Q 281 1006 281 2344 
Q 281 3359 819 4009 
Q 1400 4716 2422 4716 
z
M 2297 4716 
L 2297 4716 
z
" transform="scale(0.015625)"/>
      <path id="Helvetica-53" d="M 894 1481 
Q 916 1091 1078 847 
Q 1388 391 2169 391 
Q 2519 391 2806 491 
Q 3363 684 3363 1184 
Q 3363 1559 3128 1719 
Q 2891 1875 2384 1991 
L 1763 2131 
Q 1153 2269 900 2434 
Q 463 2722 463 3294 
Q 463 3913 891 4309 
Q 1319 4706 2103 4706 
Q 2825 4706 3329 4357 
Q 3834 4009 3834 3244 
L 3250 3244 
Q 3203 3613 3050 3809 
Q 2766 4169 2084 4169 
Q 1534 4169 1293 3937 
Q 1053 3706 1053 3400 
Q 1053 3063 1334 2906 
Q 1519 2806 2169 2656 
L 2813 2509 
Q 3278 2403 3531 2219 
Q 3969 1897 3969 1284 
Q 3969 522 3414 194 
Q 2859 -134 2125 -134 
Q 1269 -134 784 303 
Q 300 738 309 1481 
L 894 1481 
z
M 2150 4716 
L 2150 4716 
z
" transform="scale(0.015625)"/>
     </defs>
     <use xlink:href="#Helvetica-52"/>
     <use xlink:href="#Helvetica-61" x="72.216797"/>
     <use xlink:href="#Helvetica-6d" x="127.832031"/>
     <use xlink:href="#Helvetica-61" x="211.132812"/>
     <use xlink:href="#Helvetica-63" x="266.748047"/>
     <use xlink:href="#Helvetica-68" x="316.748047"/>
     <use xlink:href="#Helvetica-61" x="372.363281"/>
     <use xlink:href="#Helvetica-6e" x="427.978516"/>
     <use xlink:href="#Helvetica-64" x="483.59375"/>
     <use xlink:href="#Helvetica-72" x="539.208984"/>
     <use xlink:href="#Helvetica-61" x="572.509766"/>
     <use xlink:href="#Helvetica-6e" x="628.125"/>
     <use xlink:href="#Helvetica-20" x="683.740234"/>
     <use xlink:href="#Helvetica-50" x="711.523438"/>
     <use xlink:href="#Helvetica-6c" x="778.222656"/>
     <use xlink:href="#Helvetica-6f" x="800.439453"/>
     <use xlink:href="#Helvetica-74" x="856.054688"/>
     <use xlink:href="#Helvetica-20" x="883.837891"/>
     <use xlink:href="#Helvetica-6f" x="911.621094"/>
     <use xlink:href="#Helvetica-66" x="967.236328"/>
     <use xlink:href="#Helvetica-20" x="995.019531"/>
     <use xlink:href="#Helvetica-75" x="1022.802734"/>
     <use xlink:href="#Helvetica-54" x="1078.417969"/>
     <use xlink:href="#Helvetica-50" x="1139.501953"/>
     <use xlink:href="#Helvetica-20" x="1206.201172"/>
     <use xlink:href="#Helvetica-43" x="1233.984375"/>
     <use xlink:href="#Helvetica-6f" x="1306.201172"/>
     <use xlink:href="#Helvetica-6e" x="1361.816406"/>
     <use xlink:href="#Helvetica-73" x="1417.431641"/>
     <use xlink:href="#Helvetica-65" x="1467.431641"/>
     <use xlink:href="#Helvetica-6e" x="1523.046875"/>
     <use xlink:href="#Helvetica-73" x="1578.662109"/>
     <use xlink:href="#Helvetica-75" x="1628.662109"/>
     <use xlink:href="#Helvetica-73" x="1684.277344"/>
     <use xlink:href="#Helvetica-20" x="1734.277344"/>
     <use xlink:href="#Helvetica-53" x="1762.060547"/>
     <use xlink:href="#Helvetica-74" x="1828.759766"/>
     <use xlink:href="#Helvetica-72" x="1856.542969"/>
     <use xlink:href="#Helvetica-75" x="1889.84375"/>
     <use xlink:href="#Helvetica-63" x="1945.458984"/>
     <use xlink:href="#Helvetica-74" x="1995.458984"/>
     <use xlink:href="#Helvetica-75" x="2023.242188"/>
     <use xlink:href="#Helvetica-72" x="2078.857422"/>
     <use xlink:href="#Helvetica-65" x="2112.158203"/>
    </g>
   </g>
   <g id="legend_1">
    <g id="PathCollection_4">
     <g>
      <use xlink:href="#m48382e5c75" x="501.38625" y="486.737812" style="fill: #888888; fill-opacity: 0.7; stroke: #888888; stroke-opacity: 0.7"/>
     </g>
    </g>
    <g id="text_20">
     <!-- Coil -->
     <g transform="translate(519.38625 489.362812) scale(0.1 -0.1)">
      <use xlink:href="#Helvetica-43"/>
      <use xlink:href="#Helvetica-6f" x="72.216797"/>
      <use xlink:href="#Helvetica-69" x="127.832031"/>
      <use xlink:href="#Helvetica-6c" x="150.048828"/>
     </g>
    </g>
    <g id="PathCollection_5">
     <defs>
      <path id="m013aee2814" d="M 0 3.535534 
C 0.937635 3.535534 1.836992 3.163008 2.5 2.5 
C 3.163008 1.836992 3.535534 0.937635 3.535534 0 
C 3.535534 -0.937635 3.163008 -1.836992 2.5 -2.5 
C 1.836992 -3.163008 0.937635 -3.535534 0 -3.535534 
C -0.937635 -3.535534 -1.836992 -3.163008 -2.5 -2.5 
C -3.163008 -1.836992 -3.535534 -0.937635 -3.535534 0 
C -3.535534 0.937635 -3.163008 1.836992 -2.5 2.5 
C -1.836992 3.163008 -0.937635 3.535534 0 3.535534 
z
" style="stroke: #048a81; stroke-opacity: 0.7"/>
     </defs>
     <g>
      <use xlink:href="#m013aee2814" x="501.38625" y="500.995625" style="fill: #048a81; fill-opacity: 0.7; stroke: #048a81; stroke-opacity: 0.7"/>
     </g>
    </g>
    <g id="text_21">
     <!-- Strand -->
     <g transform="translate(519.38625 503.620625) scale(0.1 -0.1)">
      <use xlink:href="#Helvetica-53"/>
      <use xlink:href="#Helvetica-74" x="66.699219"/>
      <use xlink:href="#Helvetica-72" x="94.482422"/>
      <use xlink:href="#Helvetica-61" x="127.783203"/>
      <use xlink:href="#Helvetica-6e" x="183.398438"/>
      <use xlink:href="#Helvetica-64" x="239.013672"/>
     </g>
    </g>
    <g id="PathCollection_6">
     <g>
      <use xlink:href="#m297d97a251" x="501.38625" y="515.253437" style="fill: #e85d04; fill-opacity: 0.7; stroke: #e85d04; stroke-opacity: 0.7"/>
     </g>
    </g>
    <g id="text_22">
     <!-- Helix -->
     <g transform="translate(519.38625 517.878437) scale(0.1 -0.1)">
      <defs>
       <path id="Helvetica-48" d="M 503 4591 
L 1131 4591 
L 1131 2694 
L 3519 2694 
L 3519 4591 
L 4147 4591 
L 4147 0 
L 3519 0 
L 3519 2147 
L 1131 2147 
L 1131 0 
L 503 0 
L 503 4591 
z
" transform="scale(0.015625)"/>
      </defs>
      <use xlink:href="#Helvetica-48"/>
      <use xlink:href="#Helvetica-65" x="72.216797"/>
      <use xlink:href="#Helvetica-6c" x="127.832031"/>
      <use xlink:href="#Helvetica-69" x="150.048828"/>
      <use xlink:href="#Helvetica-78" x="172.265625"/>
     </g>
    </g>
   </g>
  </g>
 </g>
 <defs>
  <clipPath id="pf35860dfe8">
   <rect x="52.127187" y="23.242812" width="505.72" height="505.72"/>
  </clipPath>
 </defs>
</svg>
