<?xml version="1.0" encoding="utf-8" standalone="no"?>
<!DOCTYPE svg PUBLIC "-//W3C//DTD SVG 1.1//EN"
  "http://www.w3.org/Graphics/SVG/1.1/DTD/svg11.dtd">
<svg xmlns:xlink="http://www.w3.org/1999/xlink" width="849.822433pt" height="258.995625pt" viewBox="0 0 849.822433 258.995625" xmlns="http://www.w3.org/2000/svg" version="1.1">
 <metadata>
  <rdf:RDF xmlns:dc="http://purl.org/dc/elements/1.1/" xmlns:cc="http://creativecommons.org/ns#" xmlns:rdf="http://www.w3.org/1999/02/22-rdf-syntax-ns#">
   <cc:Work>
    <dc:type rdf:resource="http://purl.org/dc/dcmitype/StillImage"/>
    <dc:date>2026-01-13T16:23:48.554441</dc:date>
    <dc:format>image/svg+xml</dc:format>
    <dc:creator>
     <cc:Agent>
      <dc:title>Matplotlib v3.9.2, https://matplotlib.org/</dc:title>
     </cc:Agent>
    </dc:creator>
   </cc:Work>
  </rdf:RDF>
 </metadata>
 <defs>
  <style type="text/css">*{stroke-linejoin: round; stroke-linecap: butt}</style>
 </defs>
 <g id="figure_1">
  <g id="patch_1">
   <path d="M 0 258.995625 
L 849.822433 258.995625 
L 849.822433 0 
L 0 0 
z
" style="fill: #ffffff"/>
  </g>
  <g id="axes_1">
   <g id="patch_2">
    <path d="M 43.642188 222.28 
L 273.822433 222.28 
L 273.822433 62.16 
L 43.642188 62.16 
z
" style="fill: #ffffff"/>
   </g>
   <g id="PolyCollection_1">
    <defs>
     <path id="m3ac899f3cb" d="M 43.642188 -119.92175 
L 43.642188 -43.993807 
L 46.483919 -43.993807 
L 49.32565 -43.993807 
L 52.167382 -43.993807 
L 55.009113 -43.993807 
L 57.850845 -43.993807 
L 60.692576 -43.993807 
L 63.534307 -43.993807 
L 66.376039 -43.993807 
L 69.21777 -43.993807 
L 72.059502 -43.993807 
L 74.901233 -43.993807 
L 77.742965 -43.993807 
L 80.584696 -43.993807 
L 83.426427 -43.993807 
L 86.268159 -43.993807 
L 89.10989 -43.993807 
L 91.951622 -43.993807 
L 94.793353 -43.993807 
L 97.635084 -43.993807 
L 100.476816 -43.993807 
L 103.318547 -43.993807 
L 106.160279 -43.993807 
L 109.00201 -43.993807 
L 111.843742 -43.993807 
L 114.685473 -43.993807 
L 117.527204 -43.993807 
L 120.368936 -43.993807 
L 123.210667 -43.993807 
L 126.052399 -43.993807 
L 128.89413 -43.993807 
L 131.735862 -43.993807 
L 134.577593 -43.993807 
L 137.419324 -43.993807 
L 140.261056 -43.993807 
L 143.102787 -43.993807 
L 145.944519 -43.993807 
L 148.78625 -43.993807 
L 151.627981 -43.993807 
L 154.469713 -43.993807 
L 157.311444 -43.993807 
L 160.153176 -43.993807 
L 162.994907 -43.993807 
L 165.836639 -43.993807 
L 168.67837 -43.993807 
L 171.520101 -43.993807 
L 174.361833 -43.993807 
L 177.203564 -43.993807 
L 180.045296 -43.993807 
L 182.887027 -43.993807 
L 185.728759 -43.993807 
L 188.57049 -43.993807 
L 191.412221 -43.993807 
L 194.253953 -43.993807 
L 197.095684 -43.993807 
L 199.937416 -43.993807 
L 202.779147 -43.993807 
L 205.620878 -43.993807 
L 208.46261 -43.993807 
L 211.304341 -43.993807 
L 214.146073 -43.993807 
L 216.987804 -43.993807 
L 219.829536 -43.993807 
L 222.671267 -43.993807 
L 225.512998 -43.993807 
L 228.35473 -43.993807 
L 231.196461 -43.993807 
L 234.038193 -43.993807 
L 236.879924 -43.993807 
L 239.721656 -43.993807 
L 242.563387 -43.993807 
L 245.405118 -43.993807 
L 248.24685 -43.993807 
L 251.088581 -43.993807 
L 253.930313 -43.993807 
L 256.772044 -43.993807 
L 259.613775 -43.993807 
L 262.455507 -43.993807 
L 265.297238 -43.993807 
L 268.13897 -43.993807 
L 270.980701 -43.993807 
L 273.822433 -43.993807 
L 273.822433 -122.902686 
L 273.822433 -122.902686 
L 270.980701 -122.216991 
L 268.13897 -122.508775 
L 265.297238 -151.521569 
L 262.455507 -121.593326 
L 259.613775 -135.099806 
L 256.772044 -115.991014 
L 253.930313 -132.391819 
L 251.088581 -107.455996 
L 248.24685 -110.403105 
L 245.405118 -127.303382 
L 242.563387 -107.840075 
L 239.721656 -106.362755 
L 236.879924 -126.296425 
L 234.038193 -112.519237 
L 231.196461 -114.597928 
L 228.35473 -135.600083 
L 225.512998 -189.557443 
L 222.671267 -116.598543 
L 219.829536 -158.905848 
L 216.987804 -96.802384 
L 214.146073 -116.360922 
L 211.304341 -106.718269 
L 208.46261 -102.869479 
L 205.620878 -118.114155 
L 202.779147 -120.371629 
L 199.937416 -136.962626 
L 197.095684 -107.331566 
L 194.253953 -103.695016 
L 191.412221 -103.640113 
L 188.57049 -137.429361 
L 185.728759 -124.879103 
L 182.887027 -133.431522 
L 180.045296 -138.963828 
L 177.203564 -117.858541 
L 174.361833 -129.029789 
L 171.520101 -122.255652 
L 168.67837 -101.613284 
L 165.836639 -115.741435 
L 162.994907 -104.136222 
L 160.153176 -107.657811 
L 157.311444 -114.835236 
L 154.469713 -99.559633 
L 151.627981 -74.766206 
L 148.78625 -99.555465 
L 145.944519 -98.640376 
L 143.102787 -96.323856 
L 140.261056 -93.533046 
L 137.419324 -84.681606 
L 134.577593 -120.88737 
L 131.735862 -131.075028 
L 128.89413 -95.819624 
L 126.052399 -109.91349 
L 123.210667 -121.58104 
L 120.368936 -84.703066 
L 117.527204 -103.275984 
L 114.685473 -96.29586 
L 111.843742 -97.373718 
L 109.00201 -84.482368 
L 106.160279 -104.323383 
L 103.318547 -113.91767 
L 100.476816 -95.719524 
L 97.635084 -90.351016 
L 94.793353 -107.113383 
L 91.951622 -117.954919 
L 89.10989 -92.140485 
L 86.268159 -84.808262 
L 83.426427 -97.010664 
L 80.584696 -110.648209 
L 77.742965 -101.736212 
L 74.901233 -95.672844 
L 72.059502 -110.305194 
L 69.21777 -106.412665 
L 66.376039 -86.803662 
L 63.534307 -114.36438 
L 60.692576 -105.63127 
L 57.850845 -114.070655 
L 55.009113 -97.514313 
L 52.167382 -100.843976 
L 49.32565 -112.743207 
L 46.483919 -101.162912 
L 43.642188 -119.92175 
z
" style="stroke: #e94f37; stroke-opacity: 0.3"/>
    </defs>
    <g clip-path="url(#p84a38b4867)">
     <use xlink:href="#m3ac899f3cb" x="0" y="258.995625" style="fill: #e94f37; fill-opacity: 0.3; stroke: #e94f37; stroke-opacity: 0.3"/>
    </g>
   </g>
   <g id="matplotlib.axis_1">
    <g id="xtick_1">
     <g id="line2d_1">
      <defs>
       <path id="m3b0479e196" d="M 0 0 
L 0 3.5 
" style="stroke: #000000; stroke-width: 0.8"/>
      </defs>
      <g>
       <use xlink:href="#m3b0479e196" x="97.635084" y="222.28" style="stroke: #000000; stroke-width: 0.8"/>
      </g>
     </g>
     <g id="text_1">
      <!-- 20 -->
      <g transform="translate(92.074147 236.453438) scale(0.1 -0.1)">
       <defs>
        <path id="Helvetica-32" d="M 200 0 
Q 231 578 439 1006 
Q 647 1434 1250 1784 
L 1850 2131 
Q 2253 2366 2416 2531 
Q 2672 2791 2672 3125 
Q 2672 3516 2437 3745 
Q 2203 3975 1813 3975 
Q 1234 3975 1013 3538 
Q 894 3303 881 2888 
L 309 2888 
Q 319 3472 525 3841 
Q 891 4491 1816 4491 
Q 2584 4491 2939 4075 
Q 3294 3659 3294 3150 
Q 3294 2613 2916 2231 
Q 2697 2009 2131 1694 
L 1703 1456 
Q 1397 1288 1222 1134 
Q 909 863 828 531 
L 3272 531 
L 3272 0 
L 200 0 
z
" transform="scale(0.015625)"/>
        <path id="Helvetica-30" d="M 1731 4475 
Q 2600 4475 2988 3759 
Q 3288 3206 3288 2244 
Q 3288 1331 3016 734 
Q 2622 -122 1728 -122 
Q 922 -122 528 578 
Q 200 1163 200 2147 
Q 200 2909 397 3456 
Q 766 4475 1731 4475 
z
M 1725 391 
Q 2163 391 2422 778 
Q 2681 1166 2681 2222 
Q 2681 2984 2493 3476 
Q 2306 3969 1766 3969 
Q 1269 3969 1039 3501 
Q 809 3034 809 2125 
Q 809 1441 956 1025 
Q 1181 391 1725 391 
z
" transform="scale(0.015625)"/>
       </defs>
       <use xlink:href="#Helvetica-32"/>
       <use xlink:href="#Helvetica-30" x="55.615234"/>
      </g>
     </g>
    </g>
    <g id="xtick_2">
     <g id="line2d_2">
      <g>
       <use xlink:href="#m3b0479e196" x="154.469713" y="222.28" style="stroke: #000000; stroke-width: 0.8"/>
      </g>
     </g>
     <g id="text_2">
      <!-- 40 -->
      <g transform="translate(148.908775 236.453438) scale(0.1 -0.1)">
       <defs>
        <path id="Helvetica-34" d="M 2116 1584 
L 2116 3613 
L 681 1584 
L 2116 1584 
z
M 2125 0 
L 2125 1094 
L 163 1094 
L 163 1644 
L 2213 4488 
L 2688 4488 
L 2688 1584 
L 3347 1584 
L 3347 1094 
L 2688 1094 
L 2688 0 
L 2125 0 
z
" transform="scale(0.015625)"/>
       </defs>
       <use xlink:href="#Helvetica-34"/>
       <use xlink:href="#Helvetica-30" x="55.615234"/>
      </g>
     </g>
    </g>
    <g id="xtick_3">
     <g id="line2d_3">
      <g>
       <use xlink:href="#m3b0479e196" x="211.304341" y="222.28" style="stroke: #000000; stroke-width: 0.8"/>
      </g>
     </g>
     <g id="text_3">
      <!-- 60 -->
      <g transform="translate(205.743404 236.453438) scale(0.1 -0.1)">
       <defs>
        <path id="Helvetica-36" d="M 1872 4494 
Q 2622 4494 2917 4105 
Q 3213 3716 3213 3303 
L 2656 3303 
Q 2606 3569 2497 3719 
Q 2294 4000 1881 4000 
Q 1409 4000 1131 3564 
Q 853 3128 822 2316 
Q 1016 2600 1309 2741 
Q 1578 2866 1909 2866 
Q 2472 2866 2890 2506 
Q 3309 2147 3309 1434 
Q 3309 825 2912 354 
Q 2516 -116 1781 -116 
Q 1153 -116 697 361 
Q 241 838 241 1966 
Q 241 2800 444 3381 
Q 834 4494 1872 4494 
z
M 1831 384 
Q 2275 384 2495 682 
Q 2716 981 2716 1388 
Q 2716 1731 2519 2042 
Q 2322 2353 1803 2353 
Q 1441 2353 1167 2112 
Q 894 1872 894 1388 
Q 894 963 1142 673 
Q 1391 384 1831 384 
z
" transform="scale(0.015625)"/>
       </defs>
       <use xlink:href="#Helvetica-36"/>
       <use xlink:href="#Helvetica-30" x="55.615234"/>
      </g>
     </g>
    </g>
    <g id="xtick_4">
     <g id="line2d_4">
      <g>
       <use xlink:href="#m3b0479e196" x="268.13897" y="222.28" style="stroke: #000000; stroke-width: 0.8"/>
      </g>
     </g>
     <g id="text_4">
      <!-- 80 -->
      <g transform="translate(262.578032 236.453438) scale(0.1 -0.1)">
       <defs>
        <path id="Helvetica-38" d="M 1741 2600 
Q 2113 2600 2322 2808 
Q 2531 3016 2531 3303 
Q 2531 3553 2331 3762 
Q 2131 3972 1722 3972 
Q 1316 3972 1134 3762 
Q 953 3553 953 3272 
Q 953 2956 1187 2778 
Q 1422 2600 1741 2600 
z
M 1775 384 
Q 2166 384 2423 595 
Q 2681 806 2681 1225 
Q 2681 1659 2415 1884 
Q 2150 2109 1734 2109 
Q 1331 2109 1076 1879 
Q 822 1650 822 1244 
Q 822 894 1055 639 
Q 1288 384 1775 384 
z
M 975 2384 
Q 741 2484 609 2619 
Q 363 2869 363 3269 
Q 363 3769 725 4128 
Q 1088 4488 1753 4488 
Q 2397 4488 2762 4148 
Q 3128 3809 3128 3356 
Q 3128 2938 2916 2678 
Q 2797 2531 2547 2391 
Q 2825 2263 2984 2097 
Q 3281 1784 3281 1284 
Q 3281 694 2884 283 
Q 2488 -128 1763 -128 
Q 1109 -128 657 226 
Q 206 581 206 1256 
Q 206 1653 400 1942 
Q 594 2231 975 2384 
z
" transform="scale(0.015625)"/>
       </defs>
       <use xlink:href="#Helvetica-38"/>
       <use xlink:href="#Helvetica-30" x="55.615234"/>
      </g>
     </g>
    </g>
    <g id="text_5">
     <!-- Residue Position -->
     <g transform="translate(121.211998 249.71125) scale(0.1 -0.1)">
      <defs>
       <path id="Helvetica-52" d="M 2622 2488 
Q 3059 2488 3314 2663 
Q 3569 2838 3569 3294 
Q 3569 3784 3213 3963 
Q 3022 4056 2703 4056 
L 1184 4056 
L 1184 2488 
L 2622 2488 
z
M 563 4591 
L 2688 4591 
Q 3213 4591 3553 4438 
Q 4200 4144 4200 3353 
Q 4200 2941 4029 2678 
Q 3859 2416 3553 2256 
Q 3822 2147 3958 1969 
Q 4094 1791 4109 1391 
L 4131 775 
Q 4141 513 4175 384 
Q 4231 166 4375 103 
L 4375 0 
L 3613 0 
Q 3581 59 3562 153 
Q 3544 247 3531 516 
L 3494 1281 
Q 3472 1731 3159 1884 
Q 2981 1969 2600 1969 
L 1184 1969 
L 1184 0 
L 563 0 
L 563 4591 
z
" transform="scale(0.015625)"/>
       <path id="Helvetica-65" d="M 1806 3422 
Q 2163 3422 2497 3255 
Q 2831 3088 3006 2822 
Q 3175 2569 3231 2231 
Q 3281 2000 3281 1494 
L 828 1494 
Q 844 984 1069 676 
Q 1294 369 1766 369 
Q 2206 369 2469 659 
Q 2619 828 2681 1050 
L 3234 1050 
Q 3213 866 3089 639 
Q 2966 413 2813 269 
Q 2556 19 2178 -69 
Q 1975 -119 1719 -119 
Q 1094 -119 659 336 
Q 225 791 225 1609 
Q 225 2416 662 2919 
Q 1100 3422 1806 3422 
z
M 2703 1941 
Q 2669 2306 2544 2525 
Q 2313 2931 1772 2931 
Q 1384 2931 1121 2651 
Q 859 2372 844 1941 
L 2703 1941 
z
M 1753 3428 
L 1753 3428 
z
" transform="scale(0.015625)"/>
       <path id="Helvetica-73" d="M 747 1050 
Q 772 769 888 619 
Q 1100 347 1625 347 
Q 1938 347 2175 483 
Q 2413 619 2413 903 
Q 2413 1119 2222 1231 
Q 2100 1300 1741 1391 
L 1294 1503 
Q 866 1609 663 1741 
Q 300 1969 300 2372 
Q 300 2847 642 3140 
Q 984 3434 1563 3434 
Q 2319 3434 2653 2991 
Q 2863 2709 2856 2384 
L 2325 2384 
Q 2309 2575 2191 2731 
Q 1997 2953 1519 2953 
Q 1200 2953 1036 2831 
Q 872 2709 872 2509 
Q 872 2291 1088 2159 
Q 1213 2081 1456 2022 
L 1828 1931 
Q 2434 1784 2641 1647 
Q 2969 1431 2969 969 
Q 2969 522 2630 197 
Q 2291 -128 1597 -128 
Q 850 -128 539 211 
Q 228 550 206 1050 
L 747 1050 
z
M 1578 3428 
L 1578 3428 
z
" transform="scale(0.015625)"/>
       <path id="Helvetica-69" d="M 413 3331 
L 984 3331 
L 984 0 
L 413 0 
L 413 3331 
z
M 413 4591 
L 984 4591 
L 984 3953 
L 413 3953 
L 413 4591 
z
" transform="scale(0.015625)"/>
       <path id="Helvetica-64" d="M 769 1634 
Q 769 1097 997 734 
Q 1225 372 1728 372 
Q 2119 372 2370 708 
Q 2622 1044 2622 1672 
Q 2622 2306 2362 2611 
Q 2103 2916 1722 2916 
Q 1297 2916 1033 2591 
Q 769 2266 769 1634 
z
M 1616 3406 
Q 2000 3406 2259 3244 
Q 2409 3150 2600 2916 
L 2600 4606 
L 3141 4606 
L 3141 0 
L 2634 0 
L 2634 466 
Q 2438 156 2169 18 
Q 1900 -119 1553 -119 
Q 994 -119 584 351 
Q 175 822 175 1603 
Q 175 2334 548 2870 
Q 922 3406 1616 3406 
z
" transform="scale(0.015625)"/>
       <path id="Helvetica-75" d="M 975 3347 
L 975 1125 
Q 975 869 1056 706 
Q 1206 406 1616 406 
Q 2203 406 2416 931 
Q 2531 1213 2531 1703 
L 2531 3347 
L 3094 3347 
L 3094 0 
L 2563 0 
L 2569 494 
Q 2459 303 2297 172 
Q 1975 -91 1516 -91 
Q 800 -91 541 388 
Q 400 644 400 1072 
L 400 3347 
L 975 3347 
z
M 1747 3428 
L 1747 3428 
z
" transform="scale(0.015625)"/>
       <path id="Helvetica-20" transform="scale(0.015625)"/>
       <path id="Helvetica-50" d="M 547 4591 
L 2613 4591 
Q 3225 4591 3600 4245 
Q 3975 3900 3975 3275 
Q 3975 2738 3640 2339 
Q 3306 1941 2613 1941 
L 1169 1941 
L 1169 0 
L 547 0 
L 547 4591 
z
M 3347 3272 
Q 3347 3778 2972 3959 
Q 2766 4056 2406 4056 
L 1169 4056 
L 1169 2466 
L 2406 2466 
Q 2825 2466 3086 2644 
Q 3347 2822 3347 3272 
z
" transform="scale(0.015625)"/>
       <path id="Helvetica-6f" d="M 1741 363 
Q 2300 363 2508 786 
Q 2716 1209 2716 1728 
Q 2716 2197 2566 2491 
Q 2328 2953 1747 2953 
Q 1231 2953 997 2559 
Q 763 2166 763 1609 
Q 763 1075 997 719 
Q 1231 363 1741 363 
z
M 1763 3444 
Q 2409 3444 2856 3012 
Q 3303 2581 3303 1744 
Q 3303 934 2909 406 
Q 2516 -122 1688 -122 
Q 997 -122 590 345 
Q 184 813 184 1600 
Q 184 2444 612 2944 
Q 1041 3444 1763 3444 
z
M 1744 3428 
L 1744 3428 
z
" transform="scale(0.015625)"/>
       <path id="Helvetica-74" d="M 525 4281 
L 1094 4281 
L 1094 3347 
L 1628 3347 
L 1628 2888 
L 1094 2888 
L 1094 703 
Q 1094 528 1213 469 
Q 1278 434 1431 434 
Q 1472 434 1519 436 
Q 1566 438 1628 444 
L 1628 0 
Q 1531 -28 1426 -40 
Q 1322 -53 1200 -53 
Q 806 -53 665 148 
Q 525 350 525 672 
L 525 2888 
L 72 2888 
L 72 3347 
L 525 3347 
L 525 4281 
z
" transform="scale(0.015625)"/>
       <path id="Helvetica-6e" d="M 413 3347 
L 947 3347 
L 947 2872 
Q 1184 3166 1450 3294 
Q 1716 3422 2041 3422 
Q 2753 3422 3003 2925 
Q 3141 2653 3141 2147 
L 3141 0 
L 2569 0 
L 2569 2109 
Q 2569 2416 2478 2603 
Q 2328 2916 1934 2916 
Q 1734 2916 1606 2875 
Q 1375 2806 1200 2600 
Q 1059 2434 1017 2257 
Q 975 2081 975 1753 
L 975 0 
L 413 0 
L 413 3347 
z
M 1734 3428 
L 1734 3428 
z
" transform="scale(0.015625)"/>
      </defs>
      <use xlink:href="#Helvetica-52"/>
      <use xlink:href="#Helvetica-65" x="72.216797"/>
      <use xlink:href="#Helvetica-73" x="127.832031"/>
      <use xlink:href="#Helvetica-69" x="177.832031"/>
      <use xlink:href="#Helvetica-64" x="200.048828"/>
      <use xlink:href="#Helvetica-75" x="255.664062"/>
      <use xlink:href="#Helvetica-65" x="311.279297"/>
      <use xlink:href="#Helvetica-20" x="366.894531"/>
      <use xlink:href="#Helvetica-50" x="394.677734"/>
      <use xlink:href="#Helvetica-6f" x="461.376953"/>
      <use xlink:href="#Helvetica-73" x="516.992188"/>
      <use xlink:href="#Helvetica-69" x="566.992188"/>
      <use xlink:href="#Helvetica-74" x="589.208984"/>
      <use xlink:href="#Helvetica-69" x="616.992188"/>
      <use xlink:href="#Helvetica-6f" x="639.208984"/>
      <use xlink:href="#Helvetica-6e" x="694.824219"/>
     </g>
    </g>
   </g>
   <g id="matplotlib.axis_2">
    <g id="ytick_1">
     <g id="line2d_5">
      <defs>
       <path id="m74b5a9035d" d="M 0 0 
L -3.5 0 
" style="stroke: #000000; stroke-width: 0.8"/>
      </defs>
      <g>
       <use xlink:href="#m74b5a9035d" x="43.642188" y="215.001818" style="stroke: #000000; stroke-width: 0.8"/>
      </g>
     </g>
     <g id="text_6">
      <!-- 0.0 -->
      <g transform="translate(22.742188 218.588537) scale(0.1 -0.1)">
       <defs>
        <path id="Helvetica-2e" d="M 547 681 
L 1200 681 
L 1200 0 
L 547 0 
L 547 681 
z
" transform="scale(0.015625)"/>
       </defs>
       <use xlink:href="#Helvetica-30"/>
       <use xlink:href="#Helvetica-2e" x="55.615234"/>
       <use xlink:href="#Helvetica-30" x="83.398438"/>
      </g>
     </g>
    </g>
    <g id="ytick_2">
     <g id="line2d_6">
      <g>
       <use xlink:href="#m74b5a9035d" x="43.642188" y="175.271572" style="stroke: #000000; stroke-width: 0.8"/>
      </g>
     </g>
     <g id="text_7">
      <!-- 0.5 -->
      <g transform="translate(22.742188 178.858291) scale(0.1 -0.1)">
       <defs>
        <path id="Helvetica-35" d="M 791 1141 
Q 847 659 1238 475 
Q 1438 381 1700 381 
Q 2200 381 2440 700 
Q 2681 1019 2681 1406 
Q 2681 1875 2395 2131 
Q 2109 2388 1709 2388 
Q 1419 2388 1211 2275 
Q 1003 2163 856 1963 
L 369 1991 
L 709 4400 
L 3034 4400 
L 3034 3856 
L 1131 3856 
L 941 2613 
Q 1097 2731 1238 2791 
Q 1488 2894 1816 2894 
Q 2431 2894 2859 2497 
Q 3288 2100 3288 1491 
Q 3288 856 2895 371 
Q 2503 -113 1644 -113 
Q 1097 -113 676 195 
Q 256 503 206 1141 
L 791 1141 
z
" transform="scale(0.015625)"/>
       </defs>
       <use xlink:href="#Helvetica-30"/>
       <use xlink:href="#Helvetica-2e" x="55.615234"/>
       <use xlink:href="#Helvetica-35" x="83.398438"/>
      </g>
     </g>
    </g>
    <g id="ytick_3">
     <g id="line2d_7">
      <g>
       <use xlink:href="#m74b5a9035d" x="43.642188" y="135.541327" style="stroke: #000000; stroke-width: 0.8"/>
      </g>
     </g>
     <g id="text_8">
      <!-- 1.0 -->
      <g transform="translate(22.742188 139.128046) scale(0.1 -0.1)">
       <defs>
        <path id="Helvetica-31" d="M 613 3169 
L 613 3600 
Q 1222 3659 1462 3798 
Q 1703 3938 1822 4456 
L 2266 4456 
L 2266 0 
L 1666 0 
L 1666 3169 
L 613 3169 
z
" transform="scale(0.015625)"/>
       </defs>
       <use xlink:href="#Helvetica-31"/>
       <use xlink:href="#Helvetica-2e" x="55.615234"/>
       <use xlink:href="#Helvetica-30" x="83.398438"/>
      </g>
     </g>
    </g>
    <g id="ytick_4">
     <g id="line2d_8">
      <g>
       <use xlink:href="#m74b5a9035d" x="43.642188" y="95.811081" style="stroke: #000000; stroke-width: 0.8"/>
      </g>
     </g>
     <g id="text_9">
      <!-- 1.5 -->
      <g transform="translate(22.742188 99.3978) scale(0.1 -0.1)">
       <use xlink:href="#Helvetica-31"/>
       <use xlink:href="#Helvetica-2e" x="55.615234"/>
       <use xlink:href="#Helvetica-35" x="83.398438"/>
      </g>
     </g>
    </g>
    <g id="text_10">
     <!-- X Std Dev (Å) -->
     <g transform="translate(16.657813 172.783281) rotate(-90) scale(0.1 -0.1)">
      <defs>
       <path id="Helvetica-58" d="M 881 0 
L 131 0 
L 1775 2353 
L 234 4591 
L 1013 4591 
L 2184 2834 
L 3347 4591 
L 4088 4591 
L 2547 2353 
L 4163 0 
L 3391 0 
L 2153 1888 
L 881 0 
z
" transform="scale(0.015625)"/>
       <path id="Helvetica-53" d="M 894 1481 
Q 916 1091 1078 847 
Q 1388 391 2169 391 
Q 2519 391 2806 491 
Q 3363 684 3363 1184 
Q 3363 1559 3128 1719 
Q 2891 1875 2384 1991 
L 1763 2131 
Q 1153 2269 900 2434 
Q 463 2722 463 3294 
Q 463 3913 891 4309 
Q 1319 4706 2103 4706 
Q 2825 4706 3329 4357 
Q 3834 4009 3834 3244 
L 3250 3244 
Q 3203 3613 3050 3809 
Q 2766 4169 2084 4169 
Q 1534 4169 1293 3937 
Q 1053 3706 1053 3400 
Q 1053 3063 1334 2906 
Q 1519 2806 2169 2656 
L 2813 2509 
Q 3278 2403 3531 2219 
Q 3969 1897 3969 1284 
Q 3969 522 3414 194 
Q 2859 -134 2125 -134 
Q 1269 -134 784 303 
Q 300 738 309 1481 
L 894 1481 
z
M 2150 4716 
L 2150 4716 
z
" transform="scale(0.015625)"/>
       <path id="Helvetica-44" d="M 2250 531 
Q 2566 531 2769 597 
Q 3131 719 3363 1066 
Q 3547 1344 3628 1778 
Q 3675 2038 3675 2259 
Q 3675 3113 3336 3584 
Q 2997 4056 2244 4056 
L 1141 4056 
L 1141 531 
L 2250 531 
z
M 516 4591 
L 2375 4591 
Q 3322 4591 3844 3919 
Q 4309 3313 4309 2366 
Q 4309 1634 4034 1044 
Q 3550 0 2369 0 
L 516 0 
L 516 4591 
z
" transform="scale(0.015625)"/>
       <path id="Helvetica-76" d="M 688 3347 
L 1581 622 
L 2516 3347 
L 3131 3347 
L 1869 0 
L 1269 0 
L 34 3347 
L 688 3347 
z
" transform="scale(0.015625)"/>
       <path id="Helvetica-28" d="M 1894 4666 
Q 1403 3713 1256 3263 
Q 1034 2578 1034 1681 
Q 1034 775 1288 25 
Q 1444 -438 1903 -1306 
L 1525 -1306 
Q 1069 -594 959 -397 
Q 850 -200 722 138 
Q 547 600 478 1125 
Q 444 1397 444 1644 
Q 444 2569 734 3291 
Q 919 3750 1503 4666 
L 1894 4666 
z
" transform="scale(0.015625)"/>
       <path id="Helvetica-c5" d="M 2844 1881 
L 2147 3909 
L 1406 1881 
L 2844 1881 
z
M 1822 4591 
L 2525 4591 
L 4191 0 
L 3509 0 
L 3044 1375 
L 1228 1375 
L 731 0 
L 94 0 
L 1822 4591 
z
M 2191 5034 
Q 2353 5034 2468 5150 
Q 2584 5266 2584 5428 
Q 2584 5591 2468 5706 
Q 2353 5822 2191 5822 
Q 2031 5822 1915 5706 
Q 1800 5591 1800 5428 
Q 1800 5266 1915 5150 
Q 2031 5034 2191 5034 
z
M 2191 6081 
Q 2459 6081 2651 5889 
Q 2844 5697 2844 5428 
Q 2844 5159 2651 4967 
Q 2459 4775 2191 4775 
Q 1922 4775 1731 4967 
Q 1541 5159 1541 5428 
Q 1541 5697 1731 5889 
Q 1922 6081 2191 6081 
z
" transform="scale(0.015625)"/>
       <path id="Helvetica-29" d="M 222 -1306 
Q 719 -338 863 106 
Q 1081 778 1081 1681 
Q 1081 2584 828 3334 
Q 672 3797 213 4666 
L 591 4666 
Q 1072 3897 1173 3717 
Q 1275 3538 1394 3222 
Q 1544 2831 1608 2450 
Q 1672 2069 1672 1716 
Q 1672 791 1378 66 
Q 1194 -400 613 -1306 
L 222 -1306 
z
" transform="scale(0.015625)"/>
      </defs>
      <use xlink:href="#Helvetica-58"/>
      <use xlink:href="#Helvetica-20" x="66.699219"/>
      <use xlink:href="#Helvetica-53" x="94.482422"/>
      <use xlink:href="#Helvetica-74" x="161.181641"/>
      <use xlink:href="#Helvetica-64" x="188.964844"/>
      <use xlink:href="#Helvetica-20" x="244.580078"/>
      <use xlink:href="#Helvetica-44" x="272.363281"/>
      <use xlink:href="#Helvetica-65" x="344.580078"/>
      <use xlink:href="#Helvetica-76" x="400.195312"/>
      <use xlink:href="#Helvetica-20" x="450.195312"/>
      <use xlink:href="#Helvetica-28" x="477.978516"/>
      <use xlink:href="#Helvetica-c5" x="511.279297"/>
      <use xlink:href="#Helvetica-29" x="577.978516"/>
     </g>
    </g>
   </g>
   <g id="line2d_9">
    <path d="M 43.642188 139.073875 
L 46.483919 157.832713 
L 49.32565 146.252418 
L 52.167382 158.151649 
L 55.009113 161.481312 
L 57.850845 144.92497 
L 60.692576 153.364355 
L 63.534307 144.631245 
L 66.376039 172.191963 
L 69.21777 152.58296 
L 72.059502 148.690431 
L 74.901233 163.322781 
L 77.742965 157.259413 
L 80.584696 148.347416 
L 83.426427 161.984961 
L 86.268159 174.187363 
L 89.10989 166.85514 
L 91.951622 141.040706 
L 94.793353 151.882242 
L 97.635084 168.644609 
L 100.476816 163.276101 
L 103.318547 145.077955 
L 106.160279 154.672242 
L 109.00201 174.513257 
L 111.843742 161.621907 
L 114.685473 162.699765 
L 117.527204 155.719641 
L 120.368936 174.292559 
L 123.210667 137.414585 
L 126.052399 149.082135 
L 128.89413 163.176001 
L 131.735862 127.920597 
L 134.577593 138.108255 
L 137.419324 174.314019 
L 140.261056 165.462579 
L 143.102787 162.671769 
L 145.944519 160.355249 
L 148.78625 159.44016 
L 151.627981 184.229419 
L 154.469713 159.435992 
L 157.311444 144.160389 
L 160.153176 151.337814 
L 162.994907 154.859403 
L 165.836639 143.25419 
L 168.67837 157.382341 
L 171.520101 136.739973 
L 174.361833 129.965836 
L 177.203564 141.137084 
L 180.045296 120.031797 
L 182.887027 125.564103 
L 185.728759 134.116522 
L 188.57049 121.566264 
L 191.412221 155.355512 
L 194.253953 155.300609 
L 197.095684 151.664059 
L 199.937416 122.032999 
L 202.779147 138.623996 
L 205.620878 140.88147 
L 208.46261 156.126146 
L 211.304341 152.277356 
L 214.146073 142.634703 
L 216.987804 162.193241 
L 219.829536 100.089777 
L 222.671267 142.397082 
L 225.512998 69.438182 
L 228.35473 123.395542 
L 231.196461 144.397697 
L 234.038193 146.476388 
L 236.879924 132.6992 
L 239.721656 152.63287 
L 242.563387 151.15555 
L 245.405118 131.692243 
L 248.24685 148.59252 
L 251.088581 151.539629 
L 253.930313 126.603806 
L 256.772044 143.004611 
L 259.613775 123.895819 
L 262.455507 137.402299 
L 265.297238 107.474056 
L 268.13897 136.48685 
L 270.980701 136.778634 
L 273.822433 136.092939 
" clip-path="url(#p84a38b4867)" style="fill: none; stroke: #e94f37; stroke-width: 1.5; stroke-linecap: square"/>
   </g>
   <g id="patch_3">
    <path d="M 43.642188 222.28 
L 43.642188 62.16 
" style="fill: none; stroke: #000000; stroke-width: 1.2; stroke-linejoin: miter; stroke-linecap: square"/>
   </g>
   <g id="patch_4">
    <path d="M 43.642188 222.28 
L 273.822433 222.28 
" style="fill: none; stroke: #000000; stroke-width: 1.2; stroke-linejoin: miter; stroke-linecap: square"/>
   </g>
   <g id="text_11">
    <!-- X Dimension -->
    <g transform="translate(124.71981 56.16) scale(0.12 -0.12)">
     <defs>
      <path id="Helvetica-6d" d="M 413 3347 
L 969 3347 
L 969 2872 
Q 1169 3119 1331 3231 
Q 1609 3422 1963 3422 
Q 2363 3422 2606 3225 
Q 2744 3113 2856 2894 
Q 3044 3163 3297 3292 
Q 3550 3422 3866 3422 
Q 4541 3422 4784 2934 
Q 4916 2672 4916 2228 
L 4916 0 
L 4331 0 
L 4331 2325 
Q 4331 2659 4164 2784 
Q 3997 2909 3756 2909 
Q 3425 2909 3186 2687 
Q 2947 2466 2947 1947 
L 2947 0 
L 2375 0 
L 2375 2184 
Q 2375 2525 2294 2681 
Q 2166 2916 1816 2916 
Q 1497 2916 1236 2669 
Q 975 2422 975 1775 
L 975 0 
L 413 0 
L 413 3347 
z
" transform="scale(0.015625)"/>
     </defs>
     <use xlink:href="#Helvetica-58"/>
     <use xlink:href="#Helvetica-20" x="66.699219"/>
     <use xlink:href="#Helvetica-44" x="94.482422"/>
     <use xlink:href="#Helvetica-69" x="166.699219"/>
     <use xlink:href="#Helvetica-6d" x="188.916016"/>
     <use xlink:href="#Helvetica-65" x="272.216797"/>
     <use xlink:href="#Helvetica-6e" x="327.832031"/>
     <use xlink:href="#Helvetica-73" x="383.447266"/>
     <use xlink:href="#Helvetica-69" x="433.447266"/>
     <use xlink:href="#Helvetica-6f" x="455.664062"/>
     <use xlink:href="#Helvetica-6e" x="511.279297"/>
    </g>
   </g>
  </g>
  <g id="axes_2">
   <g id="patch_5">
    <path d="M 328.042188 222.28 
L 558.222433 222.28 
L 558.222433 62.16 
L 328.042188 62.16 
z
" style="fill: #ffffff"/>
   </g>
   <g id="PolyCollection_2">
    <defs>
     <path id="mc771edc41d" d="M 328.042188 -132.804524 
L 328.042188 -43.993807 
L 330.883919 -43.993807 
L 333.72565 -43.993807 
L 336.567382 -43.993807 
L 339.409113 -43.993807 
L 342.250845 -43.993807 
L 345.092576 -43.993807 
L 347.934307 -43.993807 
L 350.776039 -43.993807 
L 353.61777 -43.993807 
L 356.459502 -43.993807 
L 359.301233 -43.993807 
L 362.142965 -43.993807 
L 364.984696 -43.993807 
L 367.826427 -43.993807 
L 370.668159 -43.993807 
L 373.50989 -43.993807 
L 376.351622 -43.993807 
L 379.193353 -43.993807 
L 382.035084 -43.993807 
L 384.876816 -43.993807 
L 387.718547 -43.993807 
L 390.560279 -43.993807 
L 393.40201 -43.993807 
L 396.243742 -43.993807 
L 399.085473 -43.993807 
L 401.927204 -43.993807 
L 404.768936 -43.993807 
L 407.610667 -43.993807 
L 410.452399 -43.993807 
L 413.29413 -43.993807 
L 416.135862 -43.993807 
L 418.977593 -43.993807 
L 421.819324 -43.993807 
L 424.661056 -43.993807 
L 427.502787 -43.993807 
L 430.344519 -43.993807 
L 433.18625 -43.993807 
L 436.027981 -43.993807 
L 438.869713 -43.993807 
L 441.711444 -43.993807 
L 444.553176 -43.993807 
L 447.394907 -43.993807 
L 450.236639 -43.993807 
L 453.07837 -43.993807 
L 455.920101 -43.993807 
L 458.761833 -43.993807 
L 461.603564 -43.993807 
L 464.445296 -43.993807 
L 467.287027 -43.993807 
L 470.128759 -43.993807 
L 472.97049 -43.993807 
L 475.812221 -43.993807 
L 478.653953 -43.993807 
L 481.495684 -43.993807 
L 484.337416 -43.993807 
L 487.179147 -43.993807 
L 490.020878 -43.993807 
L 492.86261 -43.993807 
L 495.704341 -43.993807 
L 498.546073 -43.993807 
L 501.387804 -43.993807 
L 504.229536 -43.993807 
L 507.071267 -43.993807 
L 509.912998 -43.993807 
L 512.75473 -43.993807 
L 515.596461 -43.993807 
L 518.438193 -43.993807 
L 521.279924 -43.993807 
L 524.121656 -43.993807 
L 526.963387 -43.993807 
L 529.805118 -43.993807 
L 532.64685 -43.993807 
L 535.488581 -43.993807 
L 538.330313 -43.993807 
L 541.172044 -43.993807 
L 544.013775 -43.993807 
L 546.855507 -43.993807 
L 549.697238 -43.993807 
L 552.53897 -43.993807 
L 555.380701 -43.993807 
L 558.222433 -43.993807 
L 558.222433 -189.557443 
L 558.222433 -189.557443 
L 555.380701 -153.027603 
L 552.53897 -146.412767 
L 549.697238 -137.673714 
L 546.855507 -133.120365 
L 544.013775 -167.922702 
L 541.172044 -132.322116 
L 538.330313 -114.889118 
L 535.488581 -101.272689 
L 532.64685 -110.479235 
L 529.805118 -128.535528 
L 526.963387 -107.164259 
L 524.121656 -96.445753 
L 521.279924 -120.837837 
L 518.438193 -105.935965 
L 515.596461 -130.383062 
L 512.75473 -124.222171 
L 509.912998 -142.447926 
L 507.071267 -118.209522 
L 504.229536 -131.614495 
L 501.387804 -96.121399 
L 498.546073 -98.720816 
L 495.704341 -121.231484 
L 492.86261 -116.76128 
L 490.020878 -116.968885 
L 487.179147 -139.653786 
L 484.337416 -108.35238 
L 481.495684 -140.069748 
L 478.653953 -154.958866 
L 475.812221 -164.994304 
L 472.97049 -172.791764 
L 470.128759 -141.724309 
L 467.287027 -149.179758 
L 464.445296 -130.226659 
L 461.603564 -142.398959 
L 458.761833 -115.028101 
L 455.920101 -119.057604 
L 453.07837 -118.435258 
L 450.236639 -130.627909 
L 447.394907 -117.732512 
L 444.553176 -107.374662 
L 441.711444 -128.163076 
L 438.869713 -118.614277 
L 436.027981 -97.835269 
L 433.18625 -120.493394 
L 430.344519 -122.700428 
L 427.502787 -111.79018 
L 424.661056 -101.013951 
L 421.819324 -106.286652 
L 418.977593 -109.684298 
L 416.135862 -107.486191 
L 413.29413 -94.750676 
L 410.452399 -104.398815 
L 407.610667 -106.006505 
L 404.768936 -98.455558 
L 401.927204 -120.746397 
L 399.085473 -134.923332 
L 396.243742 -122.369303 
L 393.40201 -126.631126 
L 390.560279 -117.88975 
L 387.718547 -136.783304 
L 384.876816 -114.803808 
L 382.035084 -110.149162 
L 379.193353 -99.579264 
L 376.351622 -115.590436 
L 373.50989 -106.790513 
L 370.668159 -98.165337 
L 367.826427 -113.778042 
L 364.984696 -134.924083 
L 362.142965 -101.016611 
L 359.301233 -100.882961 
L 356.459502 -124.662458 
L 353.61777 -116.184407 
L 350.776039 -91.776273 
L 347.934307 -128.601163 
L 345.092576 -114.899158 
L 342.250845 -130.054457 
L 339.409113 -108.113647 
L 336.567382 -108.13608 
L 333.72565 -124.553445 
L 330.883919 -106.407518 
L 328.042188 -132.804524 
z
" style="stroke: #28a745; stroke-opacity: 0.3"/>
    </defs>
    <g clip-path="url(#p28a5e93097)">
     <use xlink:href="#mc771edc41d" x="0" y="258.995625" style="fill: #28a745; fill-opacity: 0.3; stroke: #28a745; stroke-opacity: 0.3"/>
    </g>
   </g>
   <g id="matplotlib.axis_3">
    <g id="xtick_5">
     <g id="line2d_10">
      <g>
       <use xlink:href="#m3b0479e196" x="382.035084" y="222.28" style="stroke: #000000; stroke-width: 0.8"/>
      </g>
     </g>
     <g id="text_12">
      <!-- 20 -->
      <g transform="translate(376.474147 236.453438) scale(0.1 -0.1)">
       <use xlink:href="#Helvetica-32"/>
       <use xlink:href="#Helvetica-30" x="55.615234"/>
      </g>
     </g>
    </g>
    <g id="xtick_6">
     <g id="line2d_11">
      <g>
       <use xlink:href="#m3b0479e196" x="438.869713" y="222.28" style="stroke: #000000; stroke-width: 0.8"/>
      </g>
     </g>
     <g id="text_13">
      <!-- 40 -->
      <g transform="translate(433.308775 236.453438) scale(0.1 -0.1)">
       <use xlink:href="#Helvetica-34"/>
       <use xlink:href="#Helvetica-30" x="55.615234"/>
      </g>
     </g>
    </g>
    <g id="xtick_7">
     <g id="line2d_12">
      <g>
       <use xlink:href="#m3b0479e196" x="495.704341" y="222.28" style="stroke: #000000; stroke-width: 0.8"/>
      </g>
     </g>
     <g id="text_14">
      <!-- 60 -->
      <g transform="translate(490.143404 236.453438) scale(0.1 -0.1)">
       <use xlink:href="#Helvetica-36"/>
       <use xlink:href="#Helvetica-30" x="55.615234"/>
      </g>
     </g>
    </g>
    <g id="xtick_8">
     <g id="line2d_13">
      <g>
       <use xlink:href="#m3b0479e196" x="552.53897" y="222.28" style="stroke: #000000; stroke-width: 0.8"/>
      </g>
     </g>
     <g id="text_15">
      <!-- 80 -->
      <g transform="translate(546.978032 236.453438) scale(0.1 -0.1)">
       <use xlink:href="#Helvetica-38"/>
       <use xlink:href="#Helvetica-30" x="55.615234"/>
      </g>
     </g>
    </g>
    <g id="text_16">
     <!-- Residue Position -->
     <g transform="translate(405.611998 249.71125) scale(0.1 -0.1)">
      <use xlink:href="#Helvetica-52"/>
      <use xlink:href="#Helvetica-65" x="72.216797"/>
      <use xlink:href="#Helvetica-73" x="127.832031"/>
      <use xlink:href="#Helvetica-69" x="177.832031"/>
      <use xlink:href="#Helvetica-64" x="200.048828"/>
      <use xlink:href="#Helvetica-75" x="255.664062"/>
      <use xlink:href="#Helvetica-65" x="311.279297"/>
      <use xlink:href="#Helvetica-20" x="366.894531"/>
      <use xlink:href="#Helvetica-50" x="394.677734"/>
      <use xlink:href="#Helvetica-6f" x="461.376953"/>
      <use xlink:href="#Helvetica-73" x="516.992188"/>
      <use xlink:href="#Helvetica-69" x="566.992188"/>
      <use xlink:href="#Helvetica-74" x="589.208984"/>
      <use xlink:href="#Helvetica-69" x="616.992188"/>
      <use xlink:href="#Helvetica-6f" x="639.208984"/>
      <use xlink:href="#Helvetica-6e" x="694.824219"/>
     </g>
    </g>
   </g>
   <g id="matplotlib.axis_4">
    <g id="ytick_5">
     <g id="line2d_14">
      <g>
       <use xlink:href="#m74b5a9035d" x="328.042188" y="215.001818" style="stroke: #000000; stroke-width: 0.8"/>
      </g>
     </g>
     <g id="text_17">
      <!-- 0.00 -->
      <g transform="translate(301.58125 218.588537) scale(0.1 -0.1)">
       <use xlink:href="#Helvetica-30"/>
       <use xlink:href="#Helvetica-2e" x="55.615234"/>
       <use xlink:href="#Helvetica-30" x="83.398438"/>
       <use xlink:href="#Helvetica-30" x="139.013672"/>
      </g>
     </g>
    </g>
    <g id="ytick_6">
     <g id="line2d_15">
      <g>
       <use xlink:href="#m74b5a9035d" x="328.042188" y="194.268491" style="stroke: #000000; stroke-width: 0.8"/>
      </g>
     </g>
     <g id="text_18">
      <!-- 0.25 -->
      <g transform="translate(301.58125 197.85521) scale(0.1 -0.1)">
       <use xlink:href="#Helvetica-30"/>
       <use xlink:href="#Helvetica-2e" x="55.615234"/>
       <use xlink:href="#Helvetica-32" x="83.398438"/>
       <use xlink:href="#Helvetica-35" x="139.013672"/>
      </g>
     </g>
    </g>
    <g id="ytick_7">
     <g id="line2d_16">
      <g>
       <use xlink:href="#m74b5a9035d" x="328.042188" y="173.535164" style="stroke: #000000; stroke-width: 0.8"/>
      </g>
     </g>
     <g id="text_19">
      <!-- 0.50 -->
      <g transform="translate(301.58125 177.121883) scale(0.1 -0.1)">
       <use xlink:href="#Helvetica-30"/>
       <use xlink:href="#Helvetica-2e" x="55.615234"/>
       <use xlink:href="#Helvetica-35" x="83.398438"/>
       <use xlink:href="#Helvetica-30" x="139.013672"/>
      </g>
     </g>
    </g>
    <g id="ytick_8">
     <g id="line2d_17">
      <g>
       <use xlink:href="#m74b5a9035d" x="328.042188" y="152.801837" style="stroke: #000000; stroke-width: 0.8"/>
      </g>
     </g>
     <g id="text_20">
      <!-- 0.75 -->
      <g transform="translate(301.58125 156.388555) scale(0.1 -0.1)">
       <defs>
        <path id="Helvetica-37" d="M 3347 4400 
L 3347 3909 
Q 3131 3700 2773 3181 
Q 2416 2663 2141 2063 
Q 1869 1478 1728 997 
Q 1638 688 1494 0 
L 872 0 
Q 1084 1281 1809 2550 
Q 2238 3294 2709 3834 
L 234 3834 
L 234 4400 
L 3347 4400 
z
" transform="scale(0.015625)"/>
       </defs>
       <use xlink:href="#Helvetica-30"/>
       <use xlink:href="#Helvetica-2e" x="55.615234"/>
       <use xlink:href="#Helvetica-37" x="83.398438"/>
       <use xlink:href="#Helvetica-35" x="139.013672"/>
      </g>
     </g>
    </g>
    <g id="ytick_9">
     <g id="line2d_18">
      <g>
       <use xlink:href="#m74b5a9035d" x="328.042188" y="132.068509" style="stroke: #000000; stroke-width: 0.8"/>
      </g>
     </g>
     <g id="text_21">
      <!-- 1.00 -->
      <g transform="translate(301.58125 135.655228) scale(0.1 -0.1)">
       <use xlink:href="#Helvetica-31"/>
       <use xlink:href="#Helvetica-2e" x="55.615234"/>
       <use xlink:href="#Helvetica-30" x="83.398438"/>
       <use xlink:href="#Helvetica-30" x="139.013672"/>
      </g>
     </g>
    </g>
    <g id="ytick_10">
     <g id="line2d_19">
      <g>
       <use xlink:href="#m74b5a9035d" x="328.042188" y="111.335182" style="stroke: #000000; stroke-width: 0.8"/>
      </g>
     </g>
     <g id="text_22">
      <!-- 1.25 -->
      <g transform="translate(301.58125 114.921901) scale(0.1 -0.1)">
       <use xlink:href="#Helvetica-31"/>
       <use xlink:href="#Helvetica-2e" x="55.615234"/>
       <use xlink:href="#Helvetica-32" x="83.398438"/>
       <use xlink:href="#Helvetica-35" x="139.013672"/>
      </g>
     </g>
    </g>
    <g id="ytick_11">
     <g id="line2d_20">
      <g>
       <use xlink:href="#m74b5a9035d" x="328.042188" y="90.601855" style="stroke: #000000; stroke-width: 0.8"/>
      </g>
     </g>
     <g id="text_23">
      <!-- 1.50 -->
      <g transform="translate(301.58125 94.188574) scale(0.1 -0.1)">
       <use xlink:href="#Helvetica-31"/>
       <use xlink:href="#Helvetica-2e" x="55.615234"/>
       <use xlink:href="#Helvetica-35" x="83.398438"/>
       <use xlink:href="#Helvetica-30" x="139.013672"/>
      </g>
     </g>
    </g>
    <g id="ytick_12">
     <g id="line2d_21">
      <g>
       <use xlink:href="#m74b5a9035d" x="328.042188" y="69.868528" style="stroke: #000000; stroke-width: 0.8"/>
      </g>
     </g>
     <g id="text_24">
      <!-- 1.75 -->
      <g transform="translate(301.58125 73.455247) scale(0.1 -0.1)">
       <use xlink:href="#Helvetica-31"/>
       <use xlink:href="#Helvetica-2e" x="55.615234"/>
       <use xlink:href="#Helvetica-37" x="83.398438"/>
       <use xlink:href="#Helvetica-35" x="139.013672"/>
      </g>
     </g>
    </g>
    <g id="text_25">
     <!-- Y Std Dev (Å) -->
     <g transform="translate(295.496875 172.783281) rotate(-90) scale(0.1 -0.1)">
      <defs>
       <path id="Helvetica-59" d="M 131 4591 
L 856 4591 
L 2175 2384 
L 3494 4591 
L 4222 4591 
L 2488 1850 
L 2488 0 
L 1866 0 
L 1866 1850 
L 131 4591 
z
M 2184 4591 
L 2184 4591 
z
" transform="scale(0.015625)"/>
      </defs>
      <use xlink:href="#Helvetica-59"/>
      <use xlink:href="#Helvetica-20" x="66.699219"/>
      <use xlink:href="#Helvetica-53" x="94.482422"/>
      <use xlink:href="#Helvetica-74" x="161.181641"/>
      <use xlink:href="#Helvetica-64" x="188.964844"/>
      <use xlink:href="#Helvetica-20" x="244.580078"/>
      <use xlink:href="#Helvetica-44" x="272.363281"/>
      <use xlink:href="#Helvetica-65" x="344.580078"/>
      <use xlink:href="#Helvetica-76" x="400.195312"/>
      <use xlink:href="#Helvetica-20" x="450.195312"/>
      <use xlink:href="#Helvetica-28" x="477.978516"/>
      <use xlink:href="#Helvetica-c5" x="511.279297"/>
      <use xlink:href="#Helvetica-29" x="577.978516"/>
     </g>
    </g>
   </g>
   <g id="line2d_22">
    <path d="M 328.042188 126.191101 
L 330.883919 152.588107 
L 333.72565 134.44218 
L 336.567382 150.859545 
L 339.409113 150.881978 
L 342.250845 128.941168 
L 345.092576 144.096467 
L 347.934307 130.394462 
L 350.776039 167.219352 
L 353.61777 142.811218 
L 356.459502 134.333167 
L 359.301233 158.112664 
L 362.142965 157.979014 
L 364.984696 124.071542 
L 367.826427 145.217583 
L 370.668159 160.830288 
L 373.50989 152.205112 
L 376.351622 143.405189 
L 379.193353 159.416361 
L 382.035084 148.846463 
L 384.876816 144.191817 
L 387.718547 122.212321 
L 390.560279 141.105875 
L 393.40201 132.364499 
L 396.243742 136.626322 
L 399.085473 124.072293 
L 401.927204 138.249228 
L 404.768936 160.540067 
L 407.610667 152.98912 
L 410.452399 154.59681 
L 413.29413 164.244949 
L 416.135862 151.509434 
L 418.977593 149.311327 
L 421.819324 152.708973 
L 424.661056 157.981674 
L 427.502787 147.205445 
L 430.344519 136.295197 
L 433.18625 138.502231 
L 436.027981 161.160356 
L 438.869713 140.381348 
L 441.711444 130.832549 
L 444.553176 151.620963 
L 447.394907 141.263113 
L 450.236639 128.367716 
L 453.07837 140.560367 
L 455.920101 139.938021 
L 458.761833 143.967524 
L 461.603564 116.596666 
L 464.445296 128.768966 
L 467.287027 109.815867 
L 470.128759 117.271316 
L 472.97049 86.203861 
L 475.812221 94.001321 
L 478.653953 104.036759 
L 481.495684 118.925877 
L 484.337416 150.643245 
L 487.179147 119.341839 
L 490.020878 142.02674 
L 492.86261 142.234345 
L 495.704341 137.764141 
L 498.546073 160.274809 
L 501.387804 162.874226 
L 504.229536 127.38113 
L 507.071267 140.786103 
L 509.912998 116.547699 
L 512.75473 134.773454 
L 515.596461 128.612563 
L 518.438193 153.05966 
L 521.279924 138.157788 
L 524.121656 162.549872 
L 526.963387 151.831366 
L 529.805118 130.460097 
L 532.64685 148.51639 
L 535.488581 157.722936 
L 538.330313 144.106507 
L 541.172044 126.673509 
L 544.013775 91.072923 
L 546.855507 125.87526 
L 549.697238 121.321911 
L 552.53897 112.582858 
L 555.380701 105.968022 
L 558.222433 69.438182 
" clip-path="url(#p28a5e93097)" style="fill: none; stroke: #28a745; stroke-width: 1.5; stroke-linecap: square"/>
   </g>
   <g id="patch_6">
    <path d="M 328.042188 222.28 
L 328.042188 62.16 
" style="fill: none; stroke: #000000; stroke-width: 1.2; stroke-linejoin: miter; stroke-linecap: square"/>
   </g>
   <g id="patch_7">
    <path d="M 328.042188 222.28 
L 558.222433 222.28 
" style="fill: none; stroke: #000000; stroke-width: 1.2; stroke-linejoin: miter; stroke-linecap: square"/>
   </g>
   <g id="text_26">
    <!-- Y Dimension -->
    <g transform="translate(409.11981 56.16) scale(0.12 -0.12)">
     <use xlink:href="#Helvetica-59"/>
     <use xlink:href="#Helvetica-20" x="66.699219"/>
     <use xlink:href="#Helvetica-44" x="94.482422"/>
     <use xlink:href="#Helvetica-69" x="166.699219"/>
     <use xlink:href="#Helvetica-6d" x="188.916016"/>
     <use xlink:href="#Helvetica-65" x="272.216797"/>
     <use xlink:href="#Helvetica-6e" x="327.832031"/>
     <use xlink:href="#Helvetica-73" x="383.447266"/>
     <use xlink:href="#Helvetica-69" x="433.447266"/>
     <use xlink:href="#Helvetica-6f" x="455.664062"/>
     <use xlink:href="#Helvetica-6e" x="511.279297"/>
    </g>
   </g>
  </g>
  <g id="axes_3">
   <g id="patch_8">
    <path d="M 612.442187 222.28 
L 842.622433 222.28 
L 842.622433 62.16 
L 612.442187 62.16 
z
" style="fill: #ffffff"/>
   </g>
   <g id="PolyCollection_3">
    <defs>
     <path id="m584b68577a" d="M 612.442187 -147.403009 
L 612.442187 -43.993807 
L 615.283919 -43.993807 
L 618.12565 -43.993807 
L 620.967382 -43.993807 
L 623.809113 -43.993807 
L 626.650845 -43.993807 
L 629.492576 -43.993807 
L 632.334307 -43.993807 
L 635.176039 -43.993807 
L 638.01777 -43.993807 
L 640.859502 -43.993807 
L 643.701233 -43.993807 
L 646.542965 -43.993807 
L 649.384696 -43.993807 
L 652.226427 -43.993807 
L 655.068159 -43.993807 
L 657.90989 -43.993807 
L 660.751622 -43.993807 
L 663.593353 -43.993807 
L 666.435084 -43.993807 
L 669.276816 -43.993807 
L 672.118547 -43.993807 
L 674.960279 -43.993807 
L 677.80201 -43.993807 
L 680.643742 -43.993807 
L 683.485473 -43.993807 
L 686.327204 -43.993807 
L 689.168936 -43.993807 
L 692.010667 -43.993807 
L 694.852399 -43.993807 
L 697.69413 -43.993807 
L 700.535862 -43.993807 
L 703.377593 -43.993807 
L 706.219324 -43.993807 
L 709.061056 -43.993807 
L 711.902787 -43.993807 
L 714.744519 -43.993807 
L 717.58625 -43.993807 
L 720.427981 -43.993807 
L 723.269713 -43.993807 
L 726.111444 -43.993807 
L 728.953176 -43.993807 
L 731.794907 -43.993807 
L 734.636639 -43.993807 
L 737.47837 -43.993807 
L 740.320101 -43.993807 
L 743.161833 -43.993807 
L 746.003564 -43.993807 
L 748.845296 -43.993807 
L 751.687027 -43.993807 
L 754.528759 -43.993807 
L 757.37049 -43.993807 
L 760.212221 -43.993807 
L 763.053953 -43.993807 
L 765.895684 -43.993807 
L 768.737416 -43.993807 
L 771.579147 -43.993807 
L 774.420878 -43.993807 
L 777.26261 -43.993807 
L 780.104341 -43.993807 
L 782.946073 -43.993807 
L 785.787804 -43.993807 
L 788.629536 -43.993807 
L 791.471267 -43.993807 
L 794.312998 -43.993807 
L 797.15473 -43.993807 
L 799.996461 -43.993807 
L 802.838193 -43.993807 
L 805.679924 -43.993807 
L 808.521656 -43.993807 
L 811.363387 -43.993807 
L 814.205118 -43.993807 
L 817.04685 -43.993807 
L 819.888581 -43.993807 
L 822.730313 -43.993807 
L 825.572044 -43.993807 
L 828.413775 -43.993807 
L 831.255507 -43.993807 
L 834.097238 -43.993807 
L 836.93897 -43.993807 
L 839.780701 -43.993807 
L 842.622433 -43.993807 
L 842.622433 -117.895038 
L 842.622433 -117.895038 
L 839.780701 -189.557443 
L 836.93897 -147.213893 
L 834.097238 -158.334827 
L 831.255507 -155.821879 
L 828.413775 -109.150616 
L 825.572044 -128.722146 
L 822.730313 -109.553128 
L 819.888581 -97.301119 
L 817.04685 -111.785641 
L 814.205118 -112.906787 
L 811.363387 -111.322349 
L 808.521656 -119.612764 
L 805.679924 -126.786247 
L 802.838193 -137.891814 
L 799.996461 -144.931955 
L 797.15473 -142.014985 
L 794.312998 -137.789625 
L 791.471267 -122.298516 
L 788.629536 -144.103559 
L 785.787804 -111.281242 
L 782.946073 -112.6503 
L 780.104341 -107.842186 
L 777.26261 -103.472575 
L 774.420878 -118.509856 
L 771.579147 -136.001497 
L 768.737416 -118.833031 
L 765.895684 -121.728341 
L 763.053953 -138.674642 
L 760.212221 -128.652036 
L 757.37049 -140.340287 
L 754.528759 -143.388395 
L 751.687027 -147.299305 
L 748.845296 -114.729202 
L 746.003564 -98.828788 
L 743.161833 -147.097997 
L 740.320101 -123.992982 
L 737.47837 -156.486324 
L 734.636639 -110.008011 
L 731.794907 -121.458448 
L 728.953176 -129.043034 
L 726.111444 -121.737542 
L 723.269713 -105.351938 
L 720.427981 -118.590929 
L 717.58625 -110.069019 
L 714.744519 -111.383382 
L 711.902787 -117.282138 
L 709.061056 -107.827365 
L 706.219324 -103.374075 
L 703.377593 -107.195409 
L 700.535862 -112.505088 
L 697.69413 -119.150359 
L 694.852399 -162.902893 
L 692.010667 -127.752382 
L 689.168936 -128.583214 
L 686.327204 -120.591512 
L 683.485473 -121.986715 
L 680.643742 -95.659604 
L 677.80201 -108.590801 
L 674.960279 -98.478817 
L 672.118547 -119.570454 
L 669.276816 -79.256169 
L 666.435084 -90.850748 
L 663.593353 -93.406709 
L 660.751622 -104.125562 
L 657.90989 -103.160962 
L 655.068159 -97.785382 
L 652.226427 -93.363825 
L 649.384696 -124.121392 
L 646.542965 -94.348976 
L 643.701233 -102.549146 
L 640.859502 -113.017909 
L 638.01777 -114.470823 
L 635.176039 -105.275757 
L 632.334307 -110.737179 
L 629.492576 -109.480046 
L 626.650845 -111.218877 
L 623.809113 -102.965186 
L 620.967382 -127.8618 
L 618.12565 -108.823756 
L 615.283919 -107.11074 
L 612.442187 -147.403009 
z
" style="stroke: #2e86ab; stroke-opacity: 0.3"/>
    </defs>
    <g clip-path="url(#p366626766f)">
     <use xlink:href="#m584b68577a" x="0" y="258.995625" style="fill: #2e86ab; fill-opacity: 0.3; stroke: #2e86ab; stroke-opacity: 0.3"/>
    </g>
   </g>
   <g id="matplotlib.axis_5">
    <g id="xtick_9">
     <g id="line2d_23">
      <g>
       <use xlink:href="#m3b0479e196" x="666.435084" y="222.28" style="stroke: #000000; stroke-width: 0.8"/>
      </g>
     </g>
     <g id="text_27">
      <!-- 20 -->
      <g transform="translate(660.874147 236.453438) scale(0.1 -0.1)">
       <use xlink:href="#Helvetica-32"/>
       <use xlink:href="#Helvetica-30" x="55.615234"/>
      </g>
     </g>
    </g>
    <g id="xtick_10">
     <g id="line2d_24">
      <g>
       <use xlink:href="#m3b0479e196" x="723.269713" y="222.28" style="stroke: #000000; stroke-width: 0.8"/>
      </g>
     </g>
     <g id="text_28">
      <!-- 40 -->
      <g transform="translate(717.708775 236.453438) scale(0.1 -0.1)">
       <use xlink:href="#Helvetica-34"/>
       <use xlink:href="#Helvetica-30" x="55.615234"/>
      </g>
     </g>
    </g>
    <g id="xtick_11">
     <g id="line2d_25">
      <g>
       <use xlink:href="#m3b0479e196" x="780.104341" y="222.28" style="stroke: #000000; stroke-width: 0.8"/>
      </g>
     </g>
     <g id="text_29">
      <!-- 60 -->
      <g transform="translate(774.543404 236.453438) scale(0.1 -0.1)">
       <use xlink:href="#Helvetica-36"/>
       <use xlink:href="#Helvetica-30" x="55.615234"/>
      </g>
     </g>
    </g>
    <g id="xtick_12">
     <g id="line2d_26">
      <g>
       <use xlink:href="#m3b0479e196" x="836.93897" y="222.28" style="stroke: #000000; stroke-width: 0.8"/>
      </g>
     </g>
     <g id="text_30">
      <!-- 80 -->
      <g transform="translate(831.378032 236.453438) scale(0.1 -0.1)">
       <use xlink:href="#Helvetica-38"/>
       <use xlink:href="#Helvetica-30" x="55.615234"/>
      </g>
     </g>
    </g>
    <g id="text_31">
     <!-- Residue Position -->
     <g transform="translate(690.011998 249.71125) scale(0.1 -0.1)">
      <use xlink:href="#Helvetica-52"/>
      <use xlink:href="#Helvetica-65" x="72.216797"/>
      <use xlink:href="#Helvetica-73" x="127.832031"/>
      <use xlink:href="#Helvetica-69" x="177.832031"/>
      <use xlink:href="#Helvetica-64" x="200.048828"/>
      <use xlink:href="#Helvetica-75" x="255.664062"/>
      <use xlink:href="#Helvetica-65" x="311.279297"/>
      <use xlink:href="#Helvetica-20" x="366.894531"/>
      <use xlink:href="#Helvetica-50" x="394.677734"/>
      <use xlink:href="#Helvetica-6f" x="461.376953"/>
      <use xlink:href="#Helvetica-73" x="516.992188"/>
      <use xlink:href="#Helvetica-69" x="566.992188"/>
      <use xlink:href="#Helvetica-74" x="589.208984"/>
      <use xlink:href="#Helvetica-69" x="616.992188"/>
      <use xlink:href="#Helvetica-6f" x="639.208984"/>
      <use xlink:href="#Helvetica-6e" x="694.824219"/>
     </g>
    </g>
   </g>
   <g id="matplotlib.axis_6">
    <g id="ytick_13">
     <g id="line2d_27">
      <g>
       <use xlink:href="#m74b5a9035d" x="612.442187" y="215.001818" style="stroke: #000000; stroke-width: 0.8"/>
      </g>
     </g>
     <g id="text_32">
      <!-- 0.00 -->
      <g transform="translate(585.98125 218.588537) scale(0.1 -0.1)">
       <use xlink:href="#Helvetica-30"/>
       <use xlink:href="#Helvetica-2e" x="55.615234"/>
       <use xlink:href="#Helvetica-30" x="83.398438"/>
       <use xlink:href="#Helvetica-30" x="139.013672"/>
      </g>
     </g>
    </g>
    <g id="ytick_14">
     <g id="line2d_28">
      <g>
       <use xlink:href="#m74b5a9035d" x="612.442187" y="194.231737" style="stroke: #000000; stroke-width: 0.8"/>
      </g>
     </g>
     <g id="text_33">
      <!-- 0.25 -->
      <g transform="translate(585.98125 197.818456) scale(0.1 -0.1)">
       <use xlink:href="#Helvetica-30"/>
       <use xlink:href="#Helvetica-2e" x="55.615234"/>
       <use xlink:href="#Helvetica-32" x="83.398438"/>
       <use xlink:href="#Helvetica-35" x="139.013672"/>
      </g>
     </g>
    </g>
    <g id="ytick_15">
     <g id="line2d_29">
      <g>
       <use xlink:href="#m74b5a9035d" x="612.442187" y="173.461657" style="stroke: #000000; stroke-width: 0.8"/>
      </g>
     </g>
     <g id="text_34">
      <!-- 0.50 -->
      <g transform="translate(585.98125 177.048376) scale(0.1 -0.1)">
       <use xlink:href="#Helvetica-30"/>
       <use xlink:href="#Helvetica-2e" x="55.615234"/>
       <use xlink:href="#Helvetica-35" x="83.398438"/>
       <use xlink:href="#Helvetica-30" x="139.013672"/>
      </g>
     </g>
    </g>
    <g id="ytick_16">
     <g id="line2d_30">
      <g>
       <use xlink:href="#m74b5a9035d" x="612.442187" y="152.691576" style="stroke: #000000; stroke-width: 0.8"/>
      </g>
     </g>
     <g id="text_35">
      <!-- 0.75 -->
      <g transform="translate(585.98125 156.278295) scale(0.1 -0.1)">
       <use xlink:href="#Helvetica-30"/>
       <use xlink:href="#Helvetica-2e" x="55.615234"/>
       <use xlink:href="#Helvetica-37" x="83.398438"/>
       <use xlink:href="#Helvetica-35" x="139.013672"/>
      </g>
     </g>
    </g>
    <g id="ytick_17">
     <g id="line2d_31">
      <g>
       <use xlink:href="#m74b5a9035d" x="612.442187" y="131.921495" style="stroke: #000000; stroke-width: 0.8"/>
      </g>
     </g>
     <g id="text_36">
      <!-- 1.00 -->
      <g transform="translate(585.98125 135.508214) scale(0.1 -0.1)">
       <use xlink:href="#Helvetica-31"/>
       <use xlink:href="#Helvetica-2e" x="55.615234"/>
       <use xlink:href="#Helvetica-30" x="83.398438"/>
       <use xlink:href="#Helvetica-30" x="139.013672"/>
      </g>
     </g>
    </g>
    <g id="ytick_18">
     <g id="line2d_32">
      <g>
       <use xlink:href="#m74b5a9035d" x="612.442187" y="111.151415" style="stroke: #000000; stroke-width: 0.8"/>
      </g>
     </g>
     <g id="text_37">
      <!-- 1.25 -->
      <g transform="translate(585.98125 114.738133) scale(0.1 -0.1)">
       <use xlink:href="#Helvetica-31"/>
       <use xlink:href="#Helvetica-2e" x="55.615234"/>
       <use xlink:href="#Helvetica-32" x="83.398438"/>
       <use xlink:href="#Helvetica-35" x="139.013672"/>
      </g>
     </g>
    </g>
    <g id="ytick_19">
     <g id="line2d_33">
      <g>
       <use xlink:href="#m74b5a9035d" x="612.442187" y="90.381334" style="stroke: #000000; stroke-width: 0.8"/>
      </g>
     </g>
     <g id="text_38">
      <!-- 1.50 -->
      <g transform="translate(585.98125 93.968053) scale(0.1 -0.1)">
       <use xlink:href="#Helvetica-31"/>
       <use xlink:href="#Helvetica-2e" x="55.615234"/>
       <use xlink:href="#Helvetica-35" x="83.398438"/>
       <use xlink:href="#Helvetica-30" x="139.013672"/>
      </g>
     </g>
    </g>
    <g id="ytick_20">
     <g id="line2d_34">
      <g>
       <use xlink:href="#m74b5a9035d" x="612.442187" y="69.611253" style="stroke: #000000; stroke-width: 0.8"/>
      </g>
     </g>
     <g id="text_39">
      <!-- 1.75 -->
      <g transform="translate(585.98125 73.197972) scale(0.1 -0.1)">
       <use xlink:href="#Helvetica-31"/>
       <use xlink:href="#Helvetica-2e" x="55.615234"/>
       <use xlink:href="#Helvetica-37" x="83.398438"/>
       <use xlink:href="#Helvetica-35" x="139.013672"/>
      </g>
     </g>
    </g>
    <g id="text_40">
     <!-- Z Std Dev (Å) -->
     <g transform="translate(579.896875 172.502031) rotate(-90) scale(0.1 -0.1)">
      <defs>
       <path id="Helvetica-5a" d="M 147 516 
L 2963 4044 
L 353 4044 
L 353 4591 
L 3763 4591 
L 3763 4056 
L 931 547 
L 3763 547 
L 3763 0 
L 147 0 
L 147 516 
z
M 2059 4591 
L 2059 4591 
z
" transform="scale(0.015625)"/>
      </defs>
      <use xlink:href="#Helvetica-5a"/>
      <use xlink:href="#Helvetica-20" x="61.083984"/>
      <use xlink:href="#Helvetica-53" x="88.867188"/>
      <use xlink:href="#Helvetica-74" x="155.566406"/>
      <use xlink:href="#Helvetica-64" x="183.349609"/>
      <use xlink:href="#Helvetica-20" x="238.964844"/>
      <use xlink:href="#Helvetica-44" x="266.748047"/>
      <use xlink:href="#Helvetica-65" x="338.964844"/>
      <use xlink:href="#Helvetica-76" x="394.580078"/>
      <use xlink:href="#Helvetica-20" x="444.580078"/>
      <use xlink:href="#Helvetica-28" x="472.363281"/>
      <use xlink:href="#Helvetica-c5" x="505.664062"/>
      <use xlink:href="#Helvetica-29" x="572.363281"/>
     </g>
    </g>
   </g>
   <g id="line2d_35">
    <path d="M 612.442187 111.592616 
L 615.283919 151.884885 
L 618.12565 150.171869 
L 620.967382 131.133825 
L 623.809113 156.030439 
L 626.650845 147.776748 
L 629.492576 149.515579 
L 632.334307 148.258446 
L 635.176039 153.719868 
L 638.01777 144.524802 
L 640.859502 145.977716 
L 643.701233 156.446479 
L 646.542965 164.646649 
L 649.384696 134.874233 
L 652.226427 165.6318 
L 655.068159 161.210243 
L 657.90989 155.834663 
L 660.751622 154.870063 
L 663.593353 165.588916 
L 666.435084 168.144877 
L 669.276816 179.739456 
L 672.118547 139.425171 
L 674.960279 160.516808 
L 677.80201 150.404824 
L 680.643742 163.336021 
L 683.485473 137.00891 
L 686.327204 138.404113 
L 689.168936 130.412411 
L 692.010667 131.243243 
L 694.852399 96.092732 
L 697.69413 139.845266 
L 700.535862 146.490537 
L 703.377593 151.800216 
L 706.219324 155.62155 
L 709.061056 151.16826 
L 711.902787 141.713487 
L 714.744519 147.612243 
L 717.58625 148.926606 
L 720.427981 140.404696 
L 723.269713 153.643687 
L 726.111444 137.258083 
L 728.953176 129.952591 
L 731.794907 137.537177 
L 734.636639 148.987614 
L 737.47837 102.509301 
L 740.320101 135.002643 
L 743.161833 111.897628 
L 746.003564 160.166837 
L 748.845296 144.266423 
L 751.687027 111.69632 
L 754.528759 115.60723 
L 757.37049 118.655338 
L 760.212221 130.343589 
L 763.053953 120.320983 
L 765.895684 137.267284 
L 768.737416 140.162594 
L 771.579147 122.994128 
L 774.420878 140.485769 
L 777.26261 155.52305 
L 780.104341 151.153439 
L 782.946073 146.345325 
L 785.787804 147.714383 
L 788.629536 114.892066 
L 791.471267 136.697109 
L 794.312998 121.206 
L 797.15473 116.98064 
L 799.996461 114.06367 
L 802.838193 121.103811 
L 805.679924 132.209378 
L 808.521656 139.382861 
L 811.363387 147.673276 
L 814.205118 146.088838 
L 817.04685 147.209984 
L 819.888581 161.694506 
L 822.730313 149.442497 
L 825.572044 130.273479 
L 828.413775 149.845009 
L 831.255507 103.173746 
L 834.097238 100.660798 
L 836.93897 111.781732 
L 839.780701 69.438182 
L 842.622433 141.100587 
" clip-path="url(#p366626766f)" style="fill: none; stroke: #2e86ab; stroke-width: 1.5; stroke-linecap: square"/>
   </g>
   <g id="patch_9">
    <path d="M 612.442187 222.28 
L 612.442187 62.16 
" style="fill: none; stroke: #000000; stroke-width: 1.2; stroke-linejoin: miter; stroke-linecap: square"/>
   </g>
   <g id="patch_10">
    <path d="M 612.442187 222.28 
L 842.622433 222.28 
" style="fill: none; stroke: #000000; stroke-width: 1.2; stroke-linejoin: miter; stroke-linecap: square"/>
   </g>
   <g id="text_41">
    <!-- Z Dimension -->
    <g transform="translate(693.85731 56.16) scale(0.12 -0.12)">
     <use xlink:href="#Helvetica-5a"/>
     <use xlink:href="#Helvetica-20" x="61.083984"/>
     <use xlink:href="#Helvetica-44" x="88.867188"/>
     <use xlink:href="#Helvetica-69" x="161.083984"/>
     <use xlink:href="#Helvetica-6d" x="183.300781"/>
     <use xlink:href="#Helvetica-65" x="266.601562"/>
     <use xlink:href="#Helvetica-6e" x="322.216797"/>
     <use xlink:href="#Helvetica-73" x="377.832031"/>
     <use xlink:href="#Helvetica-69" x="427.832031"/>
     <use xlink:href="#Helvetica-6f" x="450.048828"/>
     <use xlink:href="#Helvetica-6e" x="505.664062"/>
    </g>
   </g>
  </g>
  <g id="text_42">
   <!-- Positional Variance by Dimension -->
   <g transform="translate(317.824219 17.275625) scale(0.14 -0.14)">
    <defs>
     <path id="Helvetica-61" d="M 844 891 
Q 844 647 1022 506 
Q 1200 366 1444 366 
Q 1741 366 2019 503 
Q 2488 731 2488 1250 
L 2488 1703 
Q 2384 1638 2221 1594 
Q 2059 1550 1903 1531 
L 1563 1488 
Q 1256 1447 1103 1359 
Q 844 1213 844 891 
z
M 2206 2028 
Q 2400 2053 2466 2191 
Q 2503 2266 2503 2406 
Q 2503 2694 2298 2823 
Q 2094 2953 1713 2953 
Q 1272 2953 1088 2716 
Q 984 2584 953 2325 
L 428 2325 
Q 444 2944 830 3186 
Q 1216 3428 1725 3428 
Q 2316 3428 2684 3203 
Q 3050 2978 3050 2503 
L 3050 575 
Q 3050 488 3086 434 
Q 3122 381 3238 381 
Q 3275 381 3322 386 
Q 3369 391 3422 400 
L 3422 -16 
Q 3291 -53 3222 -62 
Q 3153 -72 3034 -72 
Q 2744 -72 2613 134 
Q 2544 244 2516 444 
Q 2344 219 2022 53 
Q 1700 -113 1313 -113 
Q 847 -113 551 170 
Q 256 453 256 878 
Q 256 1344 547 1600 
Q 838 1856 1309 1916 
L 2206 2028 
z
M 1741 3428 
L 1741 3428 
z
" transform="scale(0.015625)"/>
     <path id="Helvetica-6c" d="M 428 4591 
L 991 4591 
L 991 0 
L 428 0 
L 428 4591 
z
" transform="scale(0.015625)"/>
     <path id="Helvetica-56" d="M 850 4591 
L 2169 681 
L 3472 4591 
L 4169 4591 
L 2494 0 
L 1834 0 
L 163 4591 
L 850 4591 
z
" transform="scale(0.015625)"/>
     <path id="Helvetica-72" d="M 428 3347 
L 963 3347 
L 963 2769 
Q 1028 2938 1284 3180 
Q 1541 3422 1875 3422 
Q 1891 3422 1928 3419 
Q 1966 3416 2056 3406 
L 2056 2813 
Q 2006 2822 1964 2825 
Q 1922 2828 1872 2828 
Q 1447 2828 1219 2554 
Q 991 2281 991 1925 
L 991 0 
L 428 0 
L 428 3347 
z
" transform="scale(0.015625)"/>
     <path id="Helvetica-63" d="M 1703 3444 
Q 2269 3444 2623 3169 
Q 2978 2894 3050 2222 
L 2503 2222 
Q 2453 2531 2275 2736 
Q 2097 2941 1703 2941 
Q 1166 2941 934 2416 
Q 784 2075 784 1575 
Q 784 1072 996 728 
Q 1209 384 1666 384 
Q 2016 384 2220 598 
Q 2425 813 2503 1184 
L 3050 1184 
Q 2956 519 2581 211 
Q 2206 -97 1622 -97 
Q 966 -97 575 383 
Q 184 863 184 1581 
Q 184 2463 612 2953 
Q 1041 3444 1703 3444 
z
M 1616 3428 
L 1616 3428 
z
" transform="scale(0.015625)"/>
     <path id="Helvetica-62" d="M 369 4606 
L 916 4606 
L 916 2941 
Q 1100 3181 1356 3307 
Q 1613 3434 1913 3434 
Q 2538 3434 2927 3004 
Q 3316 2575 3316 1738 
Q 3316 944 2931 419 
Q 2547 -106 1866 -106 
Q 1484 -106 1222 78 
Q 1066 188 888 428 
L 888 0 
L 369 0 
L 369 4606 
z
M 1831 391 
Q 2288 391 2514 753 
Q 2741 1116 2741 1709 
Q 2741 2238 2514 2584 
Q 2288 2931 1847 2931 
Q 1463 2931 1173 2647 
Q 884 2363 884 1709 
Q 884 1238 1003 944 
Q 1225 391 1831 391 
z
" transform="scale(0.015625)"/>
     <path id="Helvetica-79" d="M 2503 3347 
L 3125 3347 
Q 3006 3025 2597 1878 
Q 2291 1016 2084 472 
Q 1597 -809 1397 -1090 
Q 1197 -1372 709 -1372 
Q 591 -1372 527 -1362 
Q 463 -1353 369 -1328 
L 369 -816 
Q 516 -856 581 -865 
Q 647 -875 697 -875 
Q 853 -875 926 -823 
Q 1000 -772 1050 -697 
Q 1066 -672 1162 -440 
Q 1259 -209 1303 -97 
L 66 3347 
L 703 3347 
L 1600 622 
L 2503 3347 
z
M 1597 3428 
L 1597 3428 
z
" transform="scale(0.015625)"/>
    </defs>
    <use xlink:href="#Helvetica-50"/>
    <use xlink:href="#Helvetica-6f" x="66.699219"/>
    <use xlink:href="#Helvetica-73" x="122.314453"/>
    <use xlink:href="#Helvetica-69" x="172.314453"/>
    <use xlink:href="#Helvetica-74" x="194.53125"/>
    <use xlink:href="#Helvetica-69" x="222.314453"/>
    <use xlink:href="#Helvetica-6f" x="244.53125"/>
    <use xlink:href="#Helvetica-6e" x="300.146484"/>
    <use xlink:href="#Helvetica-61" x="355.761719"/>
    <use xlink:href="#Helvetica-6c" x="411.376953"/>
    <use xlink:href="#Helvetica-20" x="433.59375"/>
    <use xlink:href="#Helvetica-56" x="461.376953"/>
    <use xlink:href="#Helvetica-61" x="528.076172"/>
    <use xlink:href="#Helvetica-72" x="583.691406"/>
    <use xlink:href="#Helvetica-69" x="616.992188"/>
    <use xlink:href="#Helvetica-61" x="639.208984"/>
    <use xlink:href="#Helvetica-6e" x="694.824219"/>
    <use xlink:href="#Helvetica-63" x="750.439453"/>
    <use xlink:href="#Helvetica-65" x="800.439453"/>
    <use xlink:href="#Helvetica-20" x="856.054688"/>
    <use xlink:href="#Helvetica-62" x="883.837891"/>
    <use xlink:href="#Helvetica-79" x="939.453125"/>
    <use xlink:href="#Helvetica-20" x="989.453125"/>
    <use xlink:href="#Helvetica-44" x="1017.236328"/>
    <use xlink:href="#Helvetica-69" x="1089.453125"/>
    <use xlink:href="#Helvetica-6d" x="1111.669922"/>
    <use xlink:href="#Helvetica-65" x="1194.970703"/>
    <use xlink:href="#Helvetica-6e" x="1250.585938"/>
    <use xlink:href="#Helvetica-73" x="1306.201172"/>
    <use xlink:href="#Helvetica-69" x="1356.201172"/>
    <use xlink:href="#Helvetica-6f" x="1378.417969"/>
    <use xlink:href="#Helvetica-6e" x="1434.033203"/>
   </g>
  </g>
 </g>
 <defs>
  <clipPath id="p84a38b4867">
   <rect x="43.642188" y="62.16" width="230.180245" height="160.12"/>
  </clipPath>
  <clipPath id="p28a5e93097">
   <rect x="328.042188" y="62.16" width="230.180245" height="160.12"/>
  </clipPath>
  <clipPath id="p366626766f">
   <rect x="612.442187" y="62.16" width="230.180245" height="160.12"/>
  </clipPath>
 </defs>
</svg>
