<?xml version="1.0" encoding="utf-8" standalone="no"?>
<!DOCTYPE svg PUBLIC "-//W3C//DTD SVG 1.1//EN"
  "http://www.w3.org/Graphics/SVG/1.1/DTD/svg11.dtd">
<svg xmlns:xlink="http://www.w3.org/1999/xlink" width="1072.46125pt" height="567.693437pt" viewBox="0 0 1072.46125 567.693437" xmlns="http://www.w3.org/2000/svg" version="1.1">
 <metadata>
  <rdf:RDF xmlns:dc="http://purl.org/dc/elements/1.1/" xmlns:cc="http://creativecommons.org/ns#" xmlns:rdf="http://www.w3.org/1999/02/22-rdf-syntax-ns#">
   <cc:Work>
    <dc:type rdf:resource="http://purl.org/dc/dcmitype/StillImage"/>
    <dc:date>2026-01-12T18:11:58.970764</dc:date>
    <dc:format>image/svg+xml</dc:format>
    <dc:creator>
     <cc:Agent>
      <dc:title>Matplotlib v3.9.2, https://matplotlib.org/</dc:title>
     </cc:Agent>
    </dc:creator>
   </cc:Work>
  </rdf:RDF>
 </metadata>
 <defs>
  <style type="text/css">*{stroke-linejoin: round; stroke-linecap: butt}</style>
 </defs>
 <g id="figure_1">
  <g id="patch_1">
   <path d="M 0 567.693437 
L 1072.46125 567.693437 
L 1072.46125 0 
L 0 0 
z
" style="fill: #ffffff"/>
  </g>
  <g id="axes_1">
   <g id="patch_2">
    <path d="M 43.78125 540.048125 
L 1065.26125 540.048125 
L 1065.26125 22.318125 
L 43.78125 22.318125 
z
" style="fill: #ffffff"/>
   </g>
   <g id="matplotlib.axis_1">
    <g id="xtick_1">
     <g id="text_1">
      <!-- 618 -->
      <g transform="translate(50.268338 556.591875) rotate(-90) scale(0.05 -0.05)">
       <defs>
        <path id="DejaVuSans-36" d="M 2113 2584 
Q 1688 2584 1439 2293 
Q 1191 2003 1191 1497 
Q 1191 994 1439 701 
Q 1688 409 2113 409 
Q 2538 409 2786 701 
Q 3034 994 3034 1497 
Q 3034 2003 2786 2293 
Q 2538 2584 2113 2584 
z
M 3366 4563 
L 3366 3988 
Q 3128 4100 2886 4159 
Q 2644 4219 2406 4219 
Q 1781 4219 1451 3797 
Q 1122 3375 1075 2522 
Q 1259 2794 1537 2939 
Q 1816 3084 2150 3084 
Q 2853 3084 3261 2657 
Q 3669 2231 3669 1497 
Q 3669 778 3244 343 
Q 2819 -91 2113 -91 
Q 1303 -91 875 529 
Q 447 1150 447 2328 
Q 447 3434 972 4092 
Q 1497 4750 2381 4750 
Q 2619 4750 2861 4703 
Q 3103 4656 3366 4563 
z
" transform="scale(0.015625)"/>
        <path id="DejaVuSans-31" d="M 794 531 
L 1825 531 
L 1825 4091 
L 703 3866 
L 703 4441 
L 1819 4666 
L 2450 4666 
L 2450 531 
L 3481 531 
L 3481 0 
L 794 0 
L 794 531 
z
" transform="scale(0.015625)"/>
        <path id="DejaVuSans-38" d="M 2034 2216 
Q 1584 2216 1326 1975 
Q 1069 1734 1069 1313 
Q 1069 891 1326 650 
Q 1584 409 2034 409 
Q 2484 409 2743 651 
Q 3003 894 3003 1313 
Q 3003 1734 2745 1975 
Q 2488 2216 2034 2216 
z
M 1403 2484 
Q 997 2584 770 2862 
Q 544 3141 544 3541 
Q 544 4100 942 4425 
Q 1341 4750 2034 4750 
Q 2731 4750 3128 4425 
Q 3525 4100 3525 3541 
Q 3525 3141 3298 2862 
Q 3072 2584 2669 2484 
Q 3125 2378 3379 2068 
Q 3634 1759 3634 1313 
Q 3634 634 3220 271 
Q 2806 -91 2034 -91 
Q 1263 -91 848 271 
Q 434 634 434 1313 
Q 434 1759 690 2068 
Q 947 2378 1403 2484 
z
M 1172 3481 
Q 1172 3119 1398 2916 
Q 1625 2713 2034 2713 
Q 2441 2713 2670 2916 
Q 2900 3119 2900 3481 
Q 2900 3844 2670 4047 
Q 2441 4250 2034 4250 
Q 1625 4250 1398 4047 
Q 1172 3844 1172 3481 
z
" transform="scale(0.015625)"/>
       </defs>
       <use xlink:href="#DejaVuSans-36"/>
       <use xlink:href="#DejaVuSans-31" x="63.623047"/>
       <use xlink:href="#DejaVuSans-38" x="127.246094"/>
      </g>
     </g>
    </g>
    <g id="xtick_2">
     <g id="text_2">
      <!-- 607 -->
      <g transform="translate(60.483138 556.591875) rotate(-90) scale(0.05 -0.05)">
       <defs>
        <path id="DejaVuSans-30" d="M 2034 4250 
Q 1547 4250 1301 3770 
Q 1056 3291 1056 2328 
Q 1056 1369 1301 889 
Q 1547 409 2034 409 
Q 2525 409 2770 889 
Q 3016 1369 3016 2328 
Q 3016 3291 2770 3770 
Q 2525 4250 2034 4250 
z
M 2034 4750 
Q 2819 4750 3233 4129 
Q 3647 3509 3647 2328 
Q 3647 1150 3233 529 
Q 2819 -91 2034 -91 
Q 1250 -91 836 529 
Q 422 1150 422 2328 
Q 422 3509 836 4129 
Q 1250 4750 2034 4750 
z
" transform="scale(0.015625)"/>
        <path id="DejaVuSans-37" d="M 525 4666 
L 3525 4666 
L 3525 4397 
L 1831 0 
L 1172 0 
L 2766 4134 
L 525 4134 
L 525 4666 
z
" transform="scale(0.015625)"/>
       </defs>
       <use xlink:href="#DejaVuSans-36"/>
       <use xlink:href="#DejaVuSans-30" x="63.623047"/>
       <use xlink:href="#DejaVuSans-37" x="127.246094"/>
      </g>
     </g>
    </g>
    <g id="xtick_3">
     <g id="text_3">
      <!-- (3) -->
      <g transform="translate(70.697938 554.130937) rotate(-90) scale(0.05 -0.05)">
       <defs>
        <path id="DejaVuSans-28" d="M 1984 4856 
Q 1566 4138 1362 3434 
Q 1159 2731 1159 2009 
Q 1159 1288 1364 580 
Q 1569 -128 1984 -844 
L 1484 -844 
Q 1016 -109 783 600 
Q 550 1309 550 2009 
Q 550 2706 781 3412 
Q 1013 4119 1484 4856 
L 1984 4856 
z
" transform="scale(0.015625)"/>
        <path id="DejaVuSans-33" d="M 2597 2516 
Q 3050 2419 3304 2112 
Q 3559 1806 3559 1356 
Q 3559 666 3084 287 
Q 2609 -91 1734 -91 
Q 1441 -91 1130 -33 
Q 819 25 488 141 
L 488 750 
Q 750 597 1062 519 
Q 1375 441 1716 441 
Q 2309 441 2620 675 
Q 2931 909 2931 1356 
Q 2931 1769 2642 2001 
Q 2353 2234 1838 2234 
L 1294 2234 
L 1294 2753 
L 1863 2753 
Q 2328 2753 2575 2939 
Q 2822 3125 2822 3475 
Q 2822 3834 2567 4026 
Q 2313 4219 1838 4219 
Q 1578 4219 1281 4162 
Q 984 4106 628 3988 
L 628 4550 
Q 988 4650 1302 4700 
Q 1616 4750 1894 4750 
Q 2613 4750 3031 4423 
Q 3450 4097 3450 3541 
Q 3450 3153 3228 2886 
Q 3006 2619 2597 2516 
z
" transform="scale(0.015625)"/>
        <path id="DejaVuSans-29" d="M 513 4856 
L 1013 4856 
Q 1481 4119 1714 3412 
Q 1947 2706 1947 2009 
Q 1947 1309 1714 600 
Q 1481 -109 1013 -844 
L 513 -844 
Q 928 -128 1133 580 
Q 1338 1288 1338 2009 
Q 1338 2731 1133 3434 
Q 928 4138 513 4856 
z
" transform="scale(0.015625)"/>
       </defs>
       <use xlink:href="#DejaVuSans-28"/>
       <use xlink:href="#DejaVuSans-33" x="39.013672"/>
       <use xlink:href="#DejaVuSans-29" x="102.636719"/>
      </g>
     </g>
    </g>
    <g id="xtick_4">
     <g id="text_4">
      <!-- (2) -->
      <g transform="translate(80.912738 554.130937) rotate(-90) scale(0.05 -0.05)">
       <defs>
        <path id="DejaVuSans-32" d="M 1228 531 
L 3431 531 
L 3431 0 
L 469 0 
L 469 531 
Q 828 903 1448 1529 
Q 2069 2156 2228 2338 
Q 2531 2678 2651 2914 
Q 2772 3150 2772 3378 
Q 2772 3750 2511 3984 
Q 2250 4219 1831 4219 
Q 1534 4219 1204 4116 
Q 875 4013 500 3803 
L 500 4441 
Q 881 4594 1212 4672 
Q 1544 4750 1819 4750 
Q 2544 4750 2975 4387 
Q 3406 4025 3406 3419 
Q 3406 3131 3298 2873 
Q 3191 2616 2906 2266 
Q 2828 2175 2409 1742 
Q 1991 1309 1228 531 
z
" transform="scale(0.015625)"/>
       </defs>
       <use xlink:href="#DejaVuSans-28"/>
       <use xlink:href="#DejaVuSans-32" x="39.013672"/>
       <use xlink:href="#DejaVuSans-29" x="102.636719"/>
      </g>
     </g>
    </g>
    <g id="xtick_5">
     <g id="text_5">
      <!-- 608 -->
      <g transform="translate(91.127538 556.591875) rotate(-90) scale(0.05 -0.05)">
       <use xlink:href="#DejaVuSans-36"/>
       <use xlink:href="#DejaVuSans-30" x="63.623047"/>
       <use xlink:href="#DejaVuSans-38" x="127.246094"/>
      </g>
     </g>
    </g>
    <g id="xtick_6">
     <g id="text_6">
      <!-- (2) -->
      <g transform="translate(101.342337 554.130937) rotate(-90) scale(0.05 -0.05)">
       <use xlink:href="#DejaVuSans-28"/>
       <use xlink:href="#DejaVuSans-32" x="39.013672"/>
       <use xlink:href="#DejaVuSans-29" x="102.636719"/>
      </g>
     </g>
    </g>
    <g id="xtick_7">
     <g id="text_7">
      <!-- 446 -->
      <g transform="translate(111.557137 556.591875) rotate(-90) scale(0.05 -0.05)">
       <defs>
        <path id="DejaVuSans-34" d="M 2419 4116 
L 825 1625 
L 2419 1625 
L 2419 4116 
z
M 2253 4666 
L 3047 4666 
L 3047 1625 
L 3713 1625 
L 3713 1100 
L 3047 1100 
L 3047 0 
L 2419 0 
L 2419 1100 
L 313 1100 
L 313 1709 
L 2253 4666 
z
" transform="scale(0.015625)"/>
       </defs>
       <use xlink:href="#DejaVuSans-34"/>
       <use xlink:href="#DejaVuSans-34" x="63.623047"/>
       <use xlink:href="#DejaVuSans-36" x="127.246094"/>
      </g>
     </g>
    </g>
    <g id="xtick_8">
     <g id="text_8">
      <!-- (2) -->
      <g transform="translate(121.771937 554.130937) rotate(-90) scale(0.05 -0.05)">
       <use xlink:href="#DejaVuSans-28"/>
       <use xlink:href="#DejaVuSans-32" x="39.013672"/>
       <use xlink:href="#DejaVuSans-29" x="102.636719"/>
      </g>
     </g>
    </g>
    <g id="xtick_9">
     <g id="text_9">
      <!-- (3) -->
      <g transform="translate(131.986738 554.130937) rotate(-90) scale(0.05 -0.05)">
       <use xlink:href="#DejaVuSans-28"/>
       <use xlink:href="#DejaVuSans-33" x="39.013672"/>
       <use xlink:href="#DejaVuSans-29" x="102.636719"/>
      </g>
     </g>
    </g>
    <g id="xtick_10">
     <g id="text_10">
      <!-- 431 -->
      <g transform="translate(142.201538 556.591875) rotate(-90) scale(0.05 -0.05)">
       <use xlink:href="#DejaVuSans-34"/>
       <use xlink:href="#DejaVuSans-33" x="63.623047"/>
       <use xlink:href="#DejaVuSans-31" x="127.246094"/>
      </g>
     </g>
    </g>
    <g id="xtick_11">
     <g id="text_11">
      <!-- 658 -->
      <g transform="translate(152.416337 556.591875) rotate(-90) scale(0.05 -0.05)">
       <defs>
        <path id="DejaVuSans-35" d="M 691 4666 
L 3169 4666 
L 3169 4134 
L 1269 4134 
L 1269 2991 
Q 1406 3038 1543 3061 
Q 1681 3084 1819 3084 
Q 2600 3084 3056 2656 
Q 3513 2228 3513 1497 
Q 3513 744 3044 326 
Q 2575 -91 1722 -91 
Q 1428 -91 1123 -41 
Q 819 9 494 109 
L 494 744 
Q 775 591 1075 516 
Q 1375 441 1709 441 
Q 2250 441 2565 725 
Q 2881 1009 2881 1497 
Q 2881 1984 2565 2268 
Q 2250 2553 1709 2553 
Q 1456 2553 1204 2497 
Q 953 2441 691 2322 
L 691 4666 
z
" transform="scale(0.015625)"/>
       </defs>
       <use xlink:href="#DejaVuSans-36"/>
       <use xlink:href="#DejaVuSans-35" x="63.623047"/>
       <use xlink:href="#DejaVuSans-38" x="127.246094"/>
      </g>
     </g>
    </g>
    <g id="xtick_12">
     <g id="text_12">
      <!-- (2) -->
      <g transform="translate(162.631137 554.130937) rotate(-90) scale(0.05 -0.05)">
       <use xlink:href="#DejaVuSans-28"/>
       <use xlink:href="#DejaVuSans-32" x="39.013672"/>
       <use xlink:href="#DejaVuSans-29" x="102.636719"/>
      </g>
     </g>
    </g>
    <g id="xtick_13">
     <g id="text_13">
      <!-- 655 -->
      <g transform="translate(172.845937 556.591875) rotate(-90) scale(0.05 -0.05)">
       <use xlink:href="#DejaVuSans-36"/>
       <use xlink:href="#DejaVuSans-35" x="63.623047"/>
       <use xlink:href="#DejaVuSans-35" x="127.246094"/>
      </g>
     </g>
    </g>
    <g id="xtick_14">
     <g id="text_14">
      <!-- (3) -->
      <g transform="translate(183.060737 554.130937) rotate(-90) scale(0.05 -0.05)">
       <use xlink:href="#DejaVuSans-28"/>
       <use xlink:href="#DejaVuSans-33" x="39.013672"/>
       <use xlink:href="#DejaVuSans-29" x="102.636719"/>
      </g>
     </g>
    </g>
    <g id="xtick_15">
     <g id="text_15">
      <!-- (3) -->
      <g transform="translate(193.275537 554.130937) rotate(-90) scale(0.05 -0.05)">
       <use xlink:href="#DejaVuSans-28"/>
       <use xlink:href="#DejaVuSans-33" x="39.013672"/>
       <use xlink:href="#DejaVuSans-29" x="102.636719"/>
      </g>
     </g>
    </g>
    <g id="xtick_16">
     <g id="text_16">
      <!-- 413 -->
      <g transform="translate(203.490337 556.591875) rotate(-90) scale(0.05 -0.05)">
       <use xlink:href="#DejaVuSans-34"/>
       <use xlink:href="#DejaVuSans-31" x="63.623047"/>
       <use xlink:href="#DejaVuSans-33" x="127.246094"/>
      </g>
     </g>
    </g>
    <g id="xtick_17">
     <g id="text_17">
      <!-- (7) -->
      <g transform="translate(213.705137 554.130937) rotate(-90) scale(0.05 -0.05)">
       <use xlink:href="#DejaVuSans-28"/>
       <use xlink:href="#DejaVuSans-37" x="39.013672"/>
       <use xlink:href="#DejaVuSans-29" x="102.636719"/>
      </g>
     </g>
    </g>
    <g id="xtick_18">
     <g id="text_18">
      <!-- 678 -->
      <g transform="translate(223.919937 556.591875) rotate(-90) scale(0.05 -0.05)">
       <use xlink:href="#DejaVuSans-36"/>
       <use xlink:href="#DejaVuSans-37" x="63.623047"/>
       <use xlink:href="#DejaVuSans-38" x="127.246094"/>
      </g>
     </g>
    </g>
    <g id="xtick_19">
     <g id="text_19">
      <!-- 426 -->
      <g transform="translate(234.134737 556.591875) rotate(-90) scale(0.05 -0.05)">
       <use xlink:href="#DejaVuSans-34"/>
       <use xlink:href="#DejaVuSans-32" x="63.623047"/>
       <use xlink:href="#DejaVuSans-36" x="127.246094"/>
      </g>
     </g>
    </g>
    <g id="xtick_20">
     <g id="text_20">
      <!-- 674 -->
      <g transform="translate(244.349537 556.591875) rotate(-90) scale(0.05 -0.05)">
       <use xlink:href="#DejaVuSans-36"/>
       <use xlink:href="#DejaVuSans-37" x="63.623047"/>
       <use xlink:href="#DejaVuSans-34" x="127.246094"/>
      </g>
     </g>
    </g>
    <g id="xtick_21">
     <g id="text_21">
      <!-- (2) -->
      <g transform="translate(254.564337 554.130937) rotate(-90) scale(0.05 -0.05)">
       <use xlink:href="#DejaVuSans-28"/>
       <use xlink:href="#DejaVuSans-32" x="39.013672"/>
       <use xlink:href="#DejaVuSans-29" x="102.636719"/>
      </g>
     </g>
    </g>
    <g id="xtick_22">
     <g id="text_22">
      <!-- (2) -->
      <g transform="translate(264.779137 554.130937) rotate(-90) scale(0.05 -0.05)">
       <use xlink:href="#DejaVuSans-28"/>
       <use xlink:href="#DejaVuSans-32" x="39.013672"/>
       <use xlink:href="#DejaVuSans-29" x="102.636719"/>
      </g>
     </g>
    </g>
    <g id="xtick_23">
     <g id="text_23">
      <!-- (2) -->
      <g transform="translate(274.993938 554.130937) rotate(-90) scale(0.05 -0.05)">
       <use xlink:href="#DejaVuSans-28"/>
       <use xlink:href="#DejaVuSans-32" x="39.013672"/>
       <use xlink:href="#DejaVuSans-29" x="102.636719"/>
      </g>
     </g>
    </g>
    <g id="xtick_24">
     <g id="text_24">
      <!-- (2) -->
      <g transform="translate(285.208737 554.130937) rotate(-90) scale(0.05 -0.05)">
       <use xlink:href="#DejaVuSans-28"/>
       <use xlink:href="#DejaVuSans-32" x="39.013672"/>
       <use xlink:href="#DejaVuSans-29" x="102.636719"/>
      </g>
     </g>
    </g>
    <g id="xtick_25">
     <g id="text_25">
      <!-- 496 -->
      <g transform="translate(295.423538 556.591875) rotate(-90) scale(0.05 -0.05)">
       <defs>
        <path id="DejaVuSans-39" d="M 703 97 
L 703 672 
Q 941 559 1184 500 
Q 1428 441 1663 441 
Q 2288 441 2617 861 
Q 2947 1281 2994 2138 
Q 2813 1869 2534 1725 
Q 2256 1581 1919 1581 
Q 1219 1581 811 2004 
Q 403 2428 403 3163 
Q 403 3881 828 4315 
Q 1253 4750 1959 4750 
Q 2769 4750 3195 4129 
Q 3622 3509 3622 2328 
Q 3622 1225 3098 567 
Q 2575 -91 1691 -91 
Q 1453 -91 1209 -44 
Q 966 3 703 97 
z
M 1959 2075 
Q 2384 2075 2632 2365 
Q 2881 2656 2881 3163 
Q 2881 3666 2632 3958 
Q 2384 4250 1959 4250 
Q 1534 4250 1286 3958 
Q 1038 3666 1038 3163 
Q 1038 2656 1286 2365 
Q 1534 2075 1959 2075 
z
" transform="scale(0.015625)"/>
       </defs>
       <use xlink:href="#DejaVuSans-34"/>
       <use xlink:href="#DejaVuSans-39" x="63.623047"/>
       <use xlink:href="#DejaVuSans-36" x="127.246094"/>
      </g>
     </g>
    </g>
    <g id="xtick_26">
     <g id="text_26">
      <!-- (2) -->
      <g transform="translate(305.638337 554.130937) rotate(-90) scale(0.05 -0.05)">
       <use xlink:href="#DejaVuSans-28"/>
       <use xlink:href="#DejaVuSans-32" x="39.013672"/>
       <use xlink:href="#DejaVuSans-29" x="102.636719"/>
      </g>
     </g>
    </g>
    <g id="xtick_27">
     <g id="text_27">
      <!-- (2) -->
      <g transform="translate(315.853137 554.130937) rotate(-90) scale(0.05 -0.05)">
       <use xlink:href="#DejaVuSans-28"/>
       <use xlink:href="#DejaVuSans-32" x="39.013672"/>
       <use xlink:href="#DejaVuSans-29" x="102.636719"/>
      </g>
     </g>
    </g>
    <g id="xtick_28">
     <g id="text_28">
      <!-- 398 -->
      <g transform="translate(326.067937 556.591875) rotate(-90) scale(0.05 -0.05)">
       <use xlink:href="#DejaVuSans-33"/>
       <use xlink:href="#DejaVuSans-39" x="63.623047"/>
       <use xlink:href="#DejaVuSans-38" x="127.246094"/>
      </g>
     </g>
    </g>
    <g id="xtick_29">
     <g id="text_29">
      <!-- (2) -->
      <g transform="translate(336.282737 554.130937) rotate(-90) scale(0.05 -0.05)">
       <use xlink:href="#DejaVuSans-28"/>
       <use xlink:href="#DejaVuSans-32" x="39.013672"/>
       <use xlink:href="#DejaVuSans-29" x="102.636719"/>
      </g>
     </g>
    </g>
    <g id="xtick_30">
     <g id="text_30">
      <!-- 689 -->
      <g transform="translate(346.497537 556.591875) rotate(-90) scale(0.05 -0.05)">
       <use xlink:href="#DejaVuSans-36"/>
       <use xlink:href="#DejaVuSans-38" x="63.623047"/>
       <use xlink:href="#DejaVuSans-39" x="127.246094"/>
      </g>
     </g>
    </g>
    <g id="xtick_31">
     <g id="text_31">
      <!-- (4) -->
      <g transform="translate(356.712337 554.130937) rotate(-90) scale(0.05 -0.05)">
       <use xlink:href="#DejaVuSans-28"/>
       <use xlink:href="#DejaVuSans-34" x="39.013672"/>
       <use xlink:href="#DejaVuSans-29" x="102.636719"/>
      </g>
     </g>
    </g>
    <g id="xtick_32">
     <g id="text_32">
      <!-- 553 -->
      <g transform="translate(366.927137 556.591875) rotate(-90) scale(0.05 -0.05)">
       <use xlink:href="#DejaVuSans-35"/>
       <use xlink:href="#DejaVuSans-35" x="63.623047"/>
       <use xlink:href="#DejaVuSans-33" x="127.246094"/>
      </g>
     </g>
    </g>
    <g id="xtick_33">
     <g id="text_33">
      <!-- (4) -->
      <g transform="translate(377.141937 554.130937) rotate(-90) scale(0.05 -0.05)">
       <use xlink:href="#DejaVuSans-28"/>
       <use xlink:href="#DejaVuSans-34" x="39.013672"/>
       <use xlink:href="#DejaVuSans-29" x="102.636719"/>
      </g>
     </g>
    </g>
    <g id="xtick_34">
     <g id="text_34">
      <!-- 533 -->
      <g transform="translate(387.356737 556.591875) rotate(-90) scale(0.05 -0.05)">
       <use xlink:href="#DejaVuSans-35"/>
       <use xlink:href="#DejaVuSans-33" x="63.623047"/>
       <use xlink:href="#DejaVuSans-33" x="127.246094"/>
      </g>
     </g>
    </g>
    <g id="xtick_35">
     <g id="text_35">
      <!-- (2) -->
      <g transform="translate(397.571537 554.130937) rotate(-90) scale(0.05 -0.05)">
       <use xlink:href="#DejaVuSans-28"/>
       <use xlink:href="#DejaVuSans-32" x="39.013672"/>
       <use xlink:href="#DejaVuSans-29" x="102.636719"/>
      </g>
     </g>
    </g>
    <g id="xtick_36">
     <g id="text_36">
      <!-- (2) -->
      <g transform="translate(407.786337 554.130937) rotate(-90) scale(0.05 -0.05)">
       <use xlink:href="#DejaVuSans-28"/>
       <use xlink:href="#DejaVuSans-32" x="39.013672"/>
       <use xlink:href="#DejaVuSans-29" x="102.636719"/>
      </g>
     </g>
    </g>
    <g id="xtick_37">
     <g id="text_37">
      <!-- 666 -->
      <g transform="translate(418.001137 556.591875) rotate(-90) scale(0.05 -0.05)">
       <use xlink:href="#DejaVuSans-36"/>
       <use xlink:href="#DejaVuSans-36" x="63.623047"/>
       <use xlink:href="#DejaVuSans-36" x="127.246094"/>
      </g>
     </g>
    </g>
    <g id="xtick_38">
     <g id="text_38">
      <!-- 447 -->
      <g transform="translate(428.215937 556.591875) rotate(-90) scale(0.05 -0.05)">
       <use xlink:href="#DejaVuSans-34"/>
       <use xlink:href="#DejaVuSans-34" x="63.623047"/>
       <use xlink:href="#DejaVuSans-37" x="127.246094"/>
      </g>
     </g>
    </g>
    <g id="xtick_39">
     <g id="text_39">
      <!-- (3) -->
      <g transform="translate(438.430737 554.130937) rotate(-90) scale(0.05 -0.05)">
       <use xlink:href="#DejaVuSans-28"/>
       <use xlink:href="#DejaVuSans-33" x="39.013672"/>
       <use xlink:href="#DejaVuSans-29" x="102.636719"/>
      </g>
     </g>
    </g>
    <g id="xtick_40">
     <g id="text_40">
      <!-- (3) -->
      <g transform="translate(448.645537 554.130937) rotate(-90) scale(0.05 -0.05)">
       <use xlink:href="#DejaVuSans-28"/>
       <use xlink:href="#DejaVuSans-33" x="39.013672"/>
       <use xlink:href="#DejaVuSans-29" x="102.636719"/>
      </g>
     </g>
    </g>
    <g id="xtick_41">
     <g id="text_41">
      <!-- (3) -->
      <g transform="translate(458.860337 554.130937) rotate(-90) scale(0.05 -0.05)">
       <use xlink:href="#DejaVuSans-28"/>
       <use xlink:href="#DejaVuSans-33" x="39.013672"/>
       <use xlink:href="#DejaVuSans-29" x="102.636719"/>
      </g>
     </g>
    </g>
    <g id="xtick_42">
     <g id="text_42">
      <!-- (2) -->
      <g transform="translate(469.075137 554.130937) rotate(-90) scale(0.05 -0.05)">
       <use xlink:href="#DejaVuSans-28"/>
       <use xlink:href="#DejaVuSans-32" x="39.013672"/>
       <use xlink:href="#DejaVuSans-29" x="102.636719"/>
      </g>
     </g>
    </g>
    <g id="xtick_43">
     <g id="text_43">
      <!-- (2) -->
      <g transform="translate(479.289937 554.130937) rotate(-90) scale(0.05 -0.05)">
       <use xlink:href="#DejaVuSans-28"/>
       <use xlink:href="#DejaVuSans-32" x="39.013672"/>
       <use xlink:href="#DejaVuSans-29" x="102.636719"/>
      </g>
     </g>
    </g>
    <g id="xtick_44">
     <g id="text_44">
      <!-- (2) -->
      <g transform="translate(489.504737 554.130937) rotate(-90) scale(0.05 -0.05)">
       <use xlink:href="#DejaVuSans-28"/>
       <use xlink:href="#DejaVuSans-32" x="39.013672"/>
       <use xlink:href="#DejaVuSans-29" x="102.636719"/>
      </g>
     </g>
    </g>
    <g id="xtick_45">
     <g id="text_45">
      <!-- (2) -->
      <g transform="translate(499.719537 554.130937) rotate(-90) scale(0.05 -0.05)">
       <use xlink:href="#DejaVuSans-28"/>
       <use xlink:href="#DejaVuSans-32" x="39.013672"/>
       <use xlink:href="#DejaVuSans-29" x="102.636719"/>
      </g>
     </g>
    </g>
    <g id="xtick_46">
     <g id="text_46">
      <!-- (4) -->
      <g transform="translate(509.934337 554.130937) rotate(-90) scale(0.05 -0.05)">
       <use xlink:href="#DejaVuSans-28"/>
       <use xlink:href="#DejaVuSans-34" x="39.013672"/>
       <use xlink:href="#DejaVuSans-29" x="102.636719"/>
      </g>
     </g>
    </g>
    <g id="xtick_47">
     <g id="text_47">
      <!-- (2) -->
      <g transform="translate(520.149138 554.130937) rotate(-90) scale(0.05 -0.05)">
       <use xlink:href="#DejaVuSans-28"/>
       <use xlink:href="#DejaVuSans-32" x="39.013672"/>
       <use xlink:href="#DejaVuSans-29" x="102.636719"/>
      </g>
     </g>
    </g>
    <g id="xtick_48">
     <g id="text_48">
      <!-- (3) -->
      <g transform="translate(530.363938 554.130937) rotate(-90) scale(0.05 -0.05)">
       <use xlink:href="#DejaVuSans-28"/>
       <use xlink:href="#DejaVuSans-33" x="39.013672"/>
       <use xlink:href="#DejaVuSans-29" x="102.636719"/>
      </g>
     </g>
    </g>
    <g id="xtick_49">
     <g id="text_49">
      <!-- (2) -->
      <g transform="translate(540.578738 554.130937) rotate(-90) scale(0.05 -0.05)">
       <use xlink:href="#DejaVuSans-28"/>
       <use xlink:href="#DejaVuSans-32" x="39.013672"/>
       <use xlink:href="#DejaVuSans-29" x="102.636719"/>
      </g>
     </g>
    </g>
    <g id="xtick_50">
     <g id="text_50">
      <!-- 403 -->
      <g transform="translate(550.793538 556.591875) rotate(-90) scale(0.05 -0.05)">
       <use xlink:href="#DejaVuSans-34"/>
       <use xlink:href="#DejaVuSans-30" x="63.623047"/>
       <use xlink:href="#DejaVuSans-33" x="127.246094"/>
      </g>
     </g>
    </g>
    <g id="xtick_51">
     <g id="text_51">
      <!-- (3) -->
      <g transform="translate(561.008338 554.130937) rotate(-90) scale(0.05 -0.05)">
       <use xlink:href="#DejaVuSans-28"/>
       <use xlink:href="#DejaVuSans-33" x="39.013672"/>
       <use xlink:href="#DejaVuSans-29" x="102.636719"/>
      </g>
     </g>
    </g>
    <g id="xtick_52">
     <g id="text_52">
      <!-- (2) -->
      <g transform="translate(571.223138 554.130937) rotate(-90) scale(0.05 -0.05)">
       <use xlink:href="#DejaVuSans-28"/>
       <use xlink:href="#DejaVuSans-32" x="39.013672"/>
       <use xlink:href="#DejaVuSans-29" x="102.636719"/>
      </g>
     </g>
    </g>
    <g id="xtick_53">
     <g id="text_53">
      <!-- 630 -->
      <g transform="translate(581.437937 556.591875) rotate(-90) scale(0.05 -0.05)">
       <use xlink:href="#DejaVuSans-36"/>
       <use xlink:href="#DejaVuSans-33" x="63.623047"/>
       <use xlink:href="#DejaVuSans-30" x="127.246094"/>
      </g>
     </g>
    </g>
    <g id="xtick_54">
     <g id="text_54">
      <!-- (2) -->
      <g transform="translate(591.652738 554.130937) rotate(-90) scale(0.05 -0.05)">
       <use xlink:href="#DejaVuSans-28"/>
       <use xlink:href="#DejaVuSans-32" x="39.013672"/>
       <use xlink:href="#DejaVuSans-29" x="102.636719"/>
      </g>
     </g>
    </g>
    <g id="xtick_55">
     <g id="text_55">
      <!-- (4) -->
      <g transform="translate(601.867538 554.130937) rotate(-90) scale(0.05 -0.05)">
       <use xlink:href="#DejaVuSans-28"/>
       <use xlink:href="#DejaVuSans-34" x="39.013672"/>
       <use xlink:href="#DejaVuSans-29" x="102.636719"/>
      </g>
     </g>
    </g>
    <g id="xtick_56">
     <g id="text_56">
      <!-- (2) -->
      <g transform="translate(612.082337 554.130937) rotate(-90) scale(0.05 -0.05)">
       <use xlink:href="#DejaVuSans-28"/>
       <use xlink:href="#DejaVuSans-32" x="39.013672"/>
       <use xlink:href="#DejaVuSans-29" x="102.636719"/>
      </g>
     </g>
    </g>
    <g id="xtick_57">
     <g id="text_57">
      <!-- (3) -->
      <g transform="translate(622.297137 554.130937) rotate(-90) scale(0.05 -0.05)">
       <use xlink:href="#DejaVuSans-28"/>
       <use xlink:href="#DejaVuSans-33" x="39.013672"/>
       <use xlink:href="#DejaVuSans-29" x="102.636719"/>
      </g>
     </g>
    </g>
    <g id="xtick_58">
     <g id="text_58">
      <!-- (4) -->
      <g transform="translate(632.511938 554.130937) rotate(-90) scale(0.05 -0.05)">
       <use xlink:href="#DejaVuSans-28"/>
       <use xlink:href="#DejaVuSans-34" x="39.013672"/>
       <use xlink:href="#DejaVuSans-29" x="102.636719"/>
      </g>
     </g>
    </g>
    <g id="xtick_59">
     <g id="text_59">
      <!-- (3) -->
      <g transform="translate(642.726738 554.130937) rotate(-90) scale(0.05 -0.05)">
       <use xlink:href="#DejaVuSans-28"/>
       <use xlink:href="#DejaVuSans-33" x="39.013672"/>
       <use xlink:href="#DejaVuSans-29" x="102.636719"/>
      </g>
     </g>
    </g>
    <g id="xtick_60">
     <g id="text_60">
      <!-- (6) -->
      <g transform="translate(652.941537 554.130937) rotate(-90) scale(0.05 -0.05)">
       <use xlink:href="#DejaVuSans-28"/>
       <use xlink:href="#DejaVuSans-36" x="39.013672"/>
       <use xlink:href="#DejaVuSans-29" x="102.636719"/>
      </g>
     </g>
    </g>
    <g id="xtick_61">
     <g id="text_61">
      <!-- (5) -->
      <g transform="translate(663.156338 554.130937) rotate(-90) scale(0.05 -0.05)">
       <use xlink:href="#DejaVuSans-28"/>
       <use xlink:href="#DejaVuSans-35" x="39.013672"/>
       <use xlink:href="#DejaVuSans-29" x="102.636719"/>
      </g>
     </g>
    </g>
    <g id="xtick_62">
     <g id="text_62">
      <!-- (2) -->
      <g transform="translate(673.371138 554.130937) rotate(-90) scale(0.05 -0.05)">
       <use xlink:href="#DejaVuSans-28"/>
       <use xlink:href="#DejaVuSans-32" x="39.013672"/>
       <use xlink:href="#DejaVuSans-29" x="102.636719"/>
      </g>
     </g>
    </g>
    <g id="xtick_63">
     <g id="text_63">
      <!-- (2) -->
      <g transform="translate(683.585938 554.130937) rotate(-90) scale(0.05 -0.05)">
       <use xlink:href="#DejaVuSans-28"/>
       <use xlink:href="#DejaVuSans-32" x="39.013672"/>
       <use xlink:href="#DejaVuSans-29" x="102.636719"/>
      </g>
     </g>
    </g>
    <g id="xtick_64">
     <g id="text_64">
      <!-- (3) -->
      <g transform="translate(693.800737 554.130937) rotate(-90) scale(0.05 -0.05)">
       <use xlink:href="#DejaVuSans-28"/>
       <use xlink:href="#DejaVuSans-33" x="39.013672"/>
       <use xlink:href="#DejaVuSans-29" x="102.636719"/>
      </g>
     </g>
    </g>
    <g id="xtick_65">
     <g id="text_65">
      <!-- (4) -->
      <g transform="translate(704.015538 554.130937) rotate(-90) scale(0.05 -0.05)">
       <use xlink:href="#DejaVuSans-28"/>
       <use xlink:href="#DejaVuSans-34" x="39.013672"/>
       <use xlink:href="#DejaVuSans-29" x="102.636719"/>
      </g>
     </g>
    </g>
    <g id="xtick_66">
     <g id="text_66">
      <!-- (3) -->
      <g transform="translate(714.230338 554.130937) rotate(-90) scale(0.05 -0.05)">
       <use xlink:href="#DejaVuSans-28"/>
       <use xlink:href="#DejaVuSans-33" x="39.013672"/>
       <use xlink:href="#DejaVuSans-29" x="102.636719"/>
      </g>
     </g>
    </g>
    <g id="xtick_67">
     <g id="text_67">
      <!-- (7) -->
      <g transform="translate(724.445137 554.130937) rotate(-90) scale(0.05 -0.05)">
       <use xlink:href="#DejaVuSans-28"/>
       <use xlink:href="#DejaVuSans-37" x="39.013672"/>
       <use xlink:href="#DejaVuSans-29" x="102.636719"/>
      </g>
     </g>
    </g>
    <g id="xtick_68">
     <g id="text_68">
      <!-- 427 -->
      <g transform="translate(734.659937 556.591875) rotate(-90) scale(0.05 -0.05)">
       <use xlink:href="#DejaVuSans-34"/>
       <use xlink:href="#DejaVuSans-32" x="63.623047"/>
       <use xlink:href="#DejaVuSans-37" x="127.246094"/>
      </g>
     </g>
    </g>
    <g id="xtick_69">
     <g id="text_69">
      <!-- (4) -->
      <g transform="translate(744.874738 554.130937) rotate(-90) scale(0.05 -0.05)">
       <use xlink:href="#DejaVuSans-28"/>
       <use xlink:href="#DejaVuSans-34" x="39.013672"/>
       <use xlink:href="#DejaVuSans-29" x="102.636719"/>
      </g>
     </g>
    </g>
    <g id="xtick_70">
     <g id="text_70">
      <!-- (6) -->
      <g transform="translate(755.089538 554.130937) rotate(-90) scale(0.05 -0.05)">
       <use xlink:href="#DejaVuSans-28"/>
       <use xlink:href="#DejaVuSans-36" x="39.013672"/>
       <use xlink:href="#DejaVuSans-29" x="102.636719"/>
      </g>
     </g>
    </g>
    <g id="xtick_71">
     <g id="text_71">
      <!-- (2) -->
      <g transform="translate(765.304337 554.130937) rotate(-90) scale(0.05 -0.05)">
       <use xlink:href="#DejaVuSans-28"/>
       <use xlink:href="#DejaVuSans-32" x="39.013672"/>
       <use xlink:href="#DejaVuSans-29" x="102.636719"/>
      </g>
     </g>
    </g>
    <g id="xtick_72">
     <g id="text_72">
      <!-- (2) -->
      <g transform="translate(775.519138 554.130937) rotate(-90) scale(0.05 -0.05)">
       <use xlink:href="#DejaVuSans-28"/>
       <use xlink:href="#DejaVuSans-32" x="39.013672"/>
       <use xlink:href="#DejaVuSans-29" x="102.636719"/>
      </g>
     </g>
    </g>
    <g id="xtick_73">
     <g id="text_73">
      <!-- (2) -->
      <g transform="translate(785.733938 554.130937) rotate(-90) scale(0.05 -0.05)">
       <use xlink:href="#DejaVuSans-28"/>
       <use xlink:href="#DejaVuSans-32" x="39.013672"/>
       <use xlink:href="#DejaVuSans-29" x="102.636719"/>
      </g>
     </g>
    </g>
    <g id="xtick_74">
     <g id="text_74">
      <!-- (2) -->
      <g transform="translate(795.948737 554.130937) rotate(-90) scale(0.05 -0.05)">
       <use xlink:href="#DejaVuSans-28"/>
       <use xlink:href="#DejaVuSans-32" x="39.013672"/>
       <use xlink:href="#DejaVuSans-29" x="102.636719"/>
      </g>
     </g>
    </g>
    <g id="xtick_75">
     <g id="text_75">
      <!-- (5) -->
      <g transform="translate(806.163537 554.130937) rotate(-90) scale(0.05 -0.05)">
       <use xlink:href="#DejaVuSans-28"/>
       <use xlink:href="#DejaVuSans-35" x="39.013672"/>
       <use xlink:href="#DejaVuSans-29" x="102.636719"/>
      </g>
     </g>
    </g>
    <g id="xtick_76">
     <g id="text_76">
      <!-- (2) -->
      <g transform="translate(816.378338 554.130937) rotate(-90) scale(0.05 -0.05)">
       <use xlink:href="#DejaVuSans-28"/>
       <use xlink:href="#DejaVuSans-32" x="39.013672"/>
       <use xlink:href="#DejaVuSans-29" x="102.636719"/>
      </g>
     </g>
    </g>
    <g id="xtick_77">
     <g id="text_77">
      <!-- (2) -->
      <g transform="translate(826.593138 554.130937) rotate(-90) scale(0.05 -0.05)">
       <use xlink:href="#DejaVuSans-28"/>
       <use xlink:href="#DejaVuSans-32" x="39.013672"/>
       <use xlink:href="#DejaVuSans-29" x="102.636719"/>
      </g>
     </g>
    </g>
    <g id="xtick_78">
     <g id="text_78">
      <!-- (2) -->
      <g transform="translate(836.807937 554.130937) rotate(-90) scale(0.05 -0.05)">
       <use xlink:href="#DejaVuSans-28"/>
       <use xlink:href="#DejaVuSans-32" x="39.013672"/>
       <use xlink:href="#DejaVuSans-29" x="102.636719"/>
      </g>
     </g>
    </g>
    <g id="xtick_79">
     <g id="text_79">
      <!-- (4) -->
      <g transform="translate(847.022737 554.130937) rotate(-90) scale(0.05 -0.05)">
       <use xlink:href="#DejaVuSans-28"/>
       <use xlink:href="#DejaVuSans-34" x="39.013672"/>
       <use xlink:href="#DejaVuSans-29" x="102.636719"/>
      </g>
     </g>
    </g>
    <g id="xtick_80">
     <g id="text_80">
      <!-- (2) -->
      <g transform="translate(857.237538 554.130937) rotate(-90) scale(0.05 -0.05)">
       <use xlink:href="#DejaVuSans-28"/>
       <use xlink:href="#DejaVuSans-32" x="39.013672"/>
       <use xlink:href="#DejaVuSans-29" x="102.636719"/>
      </g>
     </g>
    </g>
    <g id="xtick_81">
     <g id="text_81">
      <!-- (5) -->
      <g transform="translate(867.452337 554.130937) rotate(-90) scale(0.05 -0.05)">
       <use xlink:href="#DejaVuSans-28"/>
       <use xlink:href="#DejaVuSans-35" x="39.013672"/>
       <use xlink:href="#DejaVuSans-29" x="102.636719"/>
      </g>
     </g>
    </g>
    <g id="xtick_82">
     <g id="text_82">
      <!-- (5) -->
      <g transform="translate(877.667137 554.130937) rotate(-90) scale(0.05 -0.05)">
       <use xlink:href="#DejaVuSans-28"/>
       <use xlink:href="#DejaVuSans-35" x="39.013672"/>
       <use xlink:href="#DejaVuSans-29" x="102.636719"/>
      </g>
     </g>
    </g>
    <g id="xtick_83">
     <g id="text_83">
      <!-- (5) -->
      <g transform="translate(887.881938 554.130937) rotate(-90) scale(0.05 -0.05)">
       <use xlink:href="#DejaVuSans-28"/>
       <use xlink:href="#DejaVuSans-35" x="39.013672"/>
       <use xlink:href="#DejaVuSans-29" x="102.636719"/>
      </g>
     </g>
    </g>
    <g id="xtick_84">
     <g id="text_84">
      <!-- (4) -->
      <g transform="translate(898.096738 554.130937) rotate(-90) scale(0.05 -0.05)">
       <use xlink:href="#DejaVuSans-28"/>
       <use xlink:href="#DejaVuSans-34" x="39.013672"/>
       <use xlink:href="#DejaVuSans-29" x="102.636719"/>
      </g>
     </g>
    </g>
    <g id="xtick_85">
     <g id="text_85">
      <!-- (15) -->
      <g transform="translate(908.311537 557.312187) rotate(-90) scale(0.05 -0.05)">
       <use xlink:href="#DejaVuSans-28"/>
       <use xlink:href="#DejaVuSans-31" x="39.013672"/>
       <use xlink:href="#DejaVuSans-35" x="102.636719"/>
       <use xlink:href="#DejaVuSans-29" x="166.259766"/>
      </g>
     </g>
    </g>
    <g id="xtick_86">
     <g id="text_86">
      <!-- (4) -->
      <g transform="translate(918.526337 554.130937) rotate(-90) scale(0.05 -0.05)">
       <use xlink:href="#DejaVuSans-28"/>
       <use xlink:href="#DejaVuSans-34" x="39.013672"/>
       <use xlink:href="#DejaVuSans-29" x="102.636719"/>
      </g>
     </g>
    </g>
    <g id="xtick_87">
     <g id="text_87">
      <!-- 399 -->
      <g transform="translate(928.741138 556.591875) rotate(-90) scale(0.05 -0.05)">
       <use xlink:href="#DejaVuSans-33"/>
       <use xlink:href="#DejaVuSans-39" x="63.623047"/>
       <use xlink:href="#DejaVuSans-39" x="127.246094"/>
      </g>
     </g>
    </g>
    <g id="xtick_88">
     <g id="text_88">
      <!-- (3) -->
      <g transform="translate(938.955938 554.130937) rotate(-90) scale(0.05 -0.05)">
       <use xlink:href="#DejaVuSans-28"/>
       <use xlink:href="#DejaVuSans-33" x="39.013672"/>
       <use xlink:href="#DejaVuSans-29" x="102.636719"/>
      </g>
     </g>
    </g>
    <g id="xtick_89">
     <g id="text_89">
      <!-- (4) -->
      <g transform="translate(949.170737 554.130937) rotate(-90) scale(0.05 -0.05)">
       <use xlink:href="#DejaVuSans-28"/>
       <use xlink:href="#DejaVuSans-34" x="39.013672"/>
       <use xlink:href="#DejaVuSans-29" x="102.636719"/>
      </g>
     </g>
    </g>
    <g id="xtick_90">
     <g id="text_90">
      <!-- (4) -->
      <g transform="translate(959.385537 554.130937) rotate(-90) scale(0.05 -0.05)">
       <use xlink:href="#DejaVuSans-28"/>
       <use xlink:href="#DejaVuSans-34" x="39.013672"/>
       <use xlink:href="#DejaVuSans-29" x="102.636719"/>
      </g>
     </g>
    </g>
    <g id="xtick_91">
     <g id="text_91">
      <!-- (4) -->
      <g transform="translate(969.600338 554.130937) rotate(-90) scale(0.05 -0.05)">
       <use xlink:href="#DejaVuSans-28"/>
       <use xlink:href="#DejaVuSans-34" x="39.013672"/>
       <use xlink:href="#DejaVuSans-29" x="102.636719"/>
      </g>
     </g>
    </g>
    <g id="xtick_92">
     <g id="text_92">
      <!-- (3) -->
      <g transform="translate(979.815137 554.130937) rotate(-90) scale(0.05 -0.05)">
       <use xlink:href="#DejaVuSans-28"/>
       <use xlink:href="#DejaVuSans-33" x="39.013672"/>
       <use xlink:href="#DejaVuSans-29" x="102.636719"/>
      </g>
     </g>
    </g>
    <g id="xtick_93">
     <g id="text_93">
      <!-- (6) -->
      <g transform="translate(990.029937 554.130937) rotate(-90) scale(0.05 -0.05)">
       <use xlink:href="#DejaVuSans-28"/>
       <use xlink:href="#DejaVuSans-36" x="39.013672"/>
       <use xlink:href="#DejaVuSans-29" x="102.636719"/>
      </g>
     </g>
    </g>
    <g id="xtick_94">
     <g id="text_94">
      <!-- (3) -->
      <g transform="translate(1000.244738 554.130937) rotate(-90) scale(0.05 -0.05)">
       <use xlink:href="#DejaVuSans-28"/>
       <use xlink:href="#DejaVuSans-33" x="39.013672"/>
       <use xlink:href="#DejaVuSans-29" x="102.636719"/>
      </g>
     </g>
    </g>
    <g id="xtick_95">
     <g id="text_95">
      <!-- (2) -->
      <g transform="translate(1010.459538 554.130937) rotate(-90) scale(0.05 -0.05)">
       <use xlink:href="#DejaVuSans-28"/>
       <use xlink:href="#DejaVuSans-32" x="39.013672"/>
       <use xlink:href="#DejaVuSans-29" x="102.636719"/>
      </g>
     </g>
    </g>
    <g id="xtick_96">
     <g id="text_96">
      <!-- (2) -->
      <g transform="translate(1020.674337 554.130937) rotate(-90) scale(0.05 -0.05)">
       <use xlink:href="#DejaVuSans-28"/>
       <use xlink:href="#DejaVuSans-32" x="39.013672"/>
       <use xlink:href="#DejaVuSans-29" x="102.636719"/>
      </g>
     </g>
    </g>
    <g id="xtick_97">
     <g id="text_97">
      <!-- (5) -->
      <g transform="translate(1030.889138 554.130937) rotate(-90) scale(0.05 -0.05)">
       <use xlink:href="#DejaVuSans-28"/>
       <use xlink:href="#DejaVuSans-35" x="39.013672"/>
       <use xlink:href="#DejaVuSans-29" x="102.636719"/>
      </g>
     </g>
    </g>
    <g id="xtick_98">
     <g id="text_98">
      <!-- 410 -->
      <g transform="translate(1041.103938 556.591875) rotate(-90) scale(0.05 -0.05)">
       <use xlink:href="#DejaVuSans-34"/>
       <use xlink:href="#DejaVuSans-31" x="63.623047"/>
       <use xlink:href="#DejaVuSans-30" x="127.246094"/>
      </g>
     </g>
    </g>
    <g id="xtick_99">
     <g id="text_99">
      <!-- (16) -->
      <g transform="translate(1051.318737 557.312187) rotate(-90) scale(0.05 -0.05)">
       <use xlink:href="#DejaVuSans-28"/>
       <use xlink:href="#DejaVuSans-31" x="39.013672"/>
       <use xlink:href="#DejaVuSans-36" x="102.636719"/>
       <use xlink:href="#DejaVuSans-29" x="166.259766"/>
      </g>
     </g>
    </g>
    <g id="xtick_100">
     <g id="text_100">
      <!-- (407) -->
      <g transform="translate(1061.533537 560.493437) rotate(-90) scale(0.05 -0.05)">
       <use xlink:href="#DejaVuSans-28"/>
       <use xlink:href="#DejaVuSans-34" x="39.013672"/>
       <use xlink:href="#DejaVuSans-30" x="102.636719"/>
       <use xlink:href="#DejaVuSans-37" x="166.259766"/>
       <use xlink:href="#DejaVuSans-29" x="229.882812"/>
      </g>
     </g>
    </g>
   </g>
   <g id="matplotlib.axis_2">
    <g id="ytick_1">
     <g id="line2d_1">
      <defs>
       <path id="m751446dbf9" d="M 0 0 
L -3.5 0 
" style="stroke: #000000; stroke-width: 0.8"/>
      </defs>
      <g>
       <use xlink:href="#m751446dbf9" x="43.78125" y="540.048125" style="stroke: #000000; stroke-width: 0.8"/>
      </g>
     </g>
     <g id="text_101">
      <!-- 0.0 -->
      <g transform="translate(20.878125 543.847344) scale(0.1 -0.1)">
       <defs>
        <path id="DejaVuSans-2e" d="M 684 794 
L 1344 794 
L 1344 0 
L 684 0 
L 684 794 
z
" transform="scale(0.015625)"/>
       </defs>
       <use xlink:href="#DejaVuSans-30"/>
       <use xlink:href="#DejaVuSans-2e" x="63.623047"/>
       <use xlink:href="#DejaVuSans-30" x="95.410156"/>
      </g>
     </g>
    </g>
    <g id="ytick_2">
     <g id="line2d_2">
      <g>
       <use xlink:href="#m751446dbf9" x="43.78125" y="438.717272" style="stroke: #000000; stroke-width: 0.8"/>
      </g>
     </g>
     <g id="text_102">
      <!-- 0.2 -->
      <g transform="translate(20.878125 442.516491) scale(0.1 -0.1)">
       <use xlink:href="#DejaVuSans-30"/>
       <use xlink:href="#DejaVuSans-2e" x="63.623047"/>
       <use xlink:href="#DejaVuSans-32" x="95.410156"/>
      </g>
     </g>
    </g>
    <g id="ytick_3">
     <g id="line2d_3">
      <g>
       <use xlink:href="#m751446dbf9" x="43.78125" y="337.386419" style="stroke: #000000; stroke-width: 0.8"/>
      </g>
     </g>
     <g id="text_103">
      <!-- 0.4 -->
      <g transform="translate(20.878125 341.185638) scale(0.1 -0.1)">
       <use xlink:href="#DejaVuSans-30"/>
       <use xlink:href="#DejaVuSans-2e" x="63.623047"/>
       <use xlink:href="#DejaVuSans-34" x="95.410156"/>
      </g>
     </g>
    </g>
    <g id="ytick_4">
     <g id="line2d_4">
      <g>
       <use xlink:href="#m751446dbf9" x="43.78125" y="236.055566" style="stroke: #000000; stroke-width: 0.8"/>
      </g>
     </g>
     <g id="text_104">
      <!-- 0.6 -->
      <g transform="translate(20.878125 239.854785) scale(0.1 -0.1)">
       <use xlink:href="#DejaVuSans-30"/>
       <use xlink:href="#DejaVuSans-2e" x="63.623047"/>
       <use xlink:href="#DejaVuSans-36" x="95.410156"/>
      </g>
     </g>
    </g>
    <g id="ytick_5">
     <g id="line2d_5">
      <g>
       <use xlink:href="#m751446dbf9" x="43.78125" y="134.724713" style="stroke: #000000; stroke-width: 0.8"/>
      </g>
     </g>
     <g id="text_105">
      <!-- 0.8 -->
      <g transform="translate(20.878125 138.523931) scale(0.1 -0.1)">
       <use xlink:href="#DejaVuSans-30"/>
       <use xlink:href="#DejaVuSans-2e" x="63.623047"/>
       <use xlink:href="#DejaVuSans-38" x="95.410156"/>
      </g>
     </g>
    </g>
    <g id="ytick_6">
     <g id="line2d_6">
      <g>
       <use xlink:href="#m751446dbf9" x="43.78125" y="33.39386" style="stroke: #000000; stroke-width: 0.8"/>
      </g>
     </g>
     <g id="text_106">
      <!-- 1.0 -->
      <g transform="translate(20.878125 37.193078) scale(0.1 -0.1)">
       <use xlink:href="#DejaVuSans-31"/>
       <use xlink:href="#DejaVuSans-2e" x="63.623047"/>
       <use xlink:href="#DejaVuSans-30" x="95.410156"/>
      </g>
     </g>
    </g>
    <g id="text_107">
     <!-- Distance -->
     <g transform="translate(14.798438 303.045625) rotate(-90) scale(0.1 -0.1)">
      <defs>
       <path id="DejaVuSans-44" d="M 1259 4147 
L 1259 519 
L 2022 519 
Q 2988 519 3436 956 
Q 3884 1394 3884 2338 
Q 3884 3275 3436 3711 
Q 2988 4147 2022 4147 
L 1259 4147 
z
M 628 4666 
L 1925 4666 
Q 3281 4666 3915 4102 
Q 4550 3538 4550 2338 
Q 4550 1131 3912 565 
Q 3275 0 1925 0 
L 628 0 
L 628 4666 
z
" transform="scale(0.015625)"/>
       <path id="DejaVuSans-69" d="M 603 3500 
L 1178 3500 
L 1178 0 
L 603 0 
L 603 3500 
z
M 603 4863 
L 1178 4863 
L 1178 4134 
L 603 4134 
L 603 4863 
z
" transform="scale(0.015625)"/>
       <path id="DejaVuSans-73" d="M 2834 3397 
L 2834 2853 
Q 2591 2978 2328 3040 
Q 2066 3103 1784 3103 
Q 1356 3103 1142 2972 
Q 928 2841 928 2578 
Q 928 2378 1081 2264 
Q 1234 2150 1697 2047 
L 1894 2003 
Q 2506 1872 2764 1633 
Q 3022 1394 3022 966 
Q 3022 478 2636 193 
Q 2250 -91 1575 -91 
Q 1294 -91 989 -36 
Q 684 19 347 128 
L 347 722 
Q 666 556 975 473 
Q 1284 391 1588 391 
Q 1994 391 2212 530 
Q 2431 669 2431 922 
Q 2431 1156 2273 1281 
Q 2116 1406 1581 1522 
L 1381 1569 
Q 847 1681 609 1914 
Q 372 2147 372 2553 
Q 372 3047 722 3315 
Q 1072 3584 1716 3584 
Q 2034 3584 2315 3537 
Q 2597 3491 2834 3397 
z
" transform="scale(0.015625)"/>
       <path id="DejaVuSans-74" d="M 1172 4494 
L 1172 3500 
L 2356 3500 
L 2356 3053 
L 1172 3053 
L 1172 1153 
Q 1172 725 1289 603 
Q 1406 481 1766 481 
L 2356 481 
L 2356 0 
L 1766 0 
Q 1100 0 847 248 
Q 594 497 594 1153 
L 594 3053 
L 172 3053 
L 172 3500 
L 594 3500 
L 594 4494 
L 1172 4494 
z
" transform="scale(0.015625)"/>
       <path id="DejaVuSans-61" d="M 2194 1759 
Q 1497 1759 1228 1600 
Q 959 1441 959 1056 
Q 959 750 1161 570 
Q 1363 391 1709 391 
Q 2188 391 2477 730 
Q 2766 1069 2766 1631 
L 2766 1759 
L 2194 1759 
z
M 3341 1997 
L 3341 0 
L 2766 0 
L 2766 531 
Q 2569 213 2275 61 
Q 1981 -91 1556 -91 
Q 1019 -91 701 211 
Q 384 513 384 1019 
Q 384 1609 779 1909 
Q 1175 2209 1959 2209 
L 2766 2209 
L 2766 2266 
Q 2766 2663 2505 2880 
Q 2244 3097 1772 3097 
Q 1472 3097 1187 3025 
Q 903 2953 641 2809 
L 641 3341 
Q 956 3463 1253 3523 
Q 1550 3584 1831 3584 
Q 2591 3584 2966 3190 
Q 3341 2797 3341 1997 
z
" transform="scale(0.015625)"/>
       <path id="DejaVuSans-6e" d="M 3513 2113 
L 3513 0 
L 2938 0 
L 2938 2094 
Q 2938 2591 2744 2837 
Q 2550 3084 2163 3084 
Q 1697 3084 1428 2787 
Q 1159 2491 1159 1978 
L 1159 0 
L 581 0 
L 581 3500 
L 1159 3500 
L 1159 2956 
Q 1366 3272 1645 3428 
Q 1925 3584 2291 3584 
Q 2894 3584 3203 3211 
Q 3513 2838 3513 2113 
z
" transform="scale(0.015625)"/>
       <path id="DejaVuSans-63" d="M 3122 3366 
L 3122 2828 
Q 2878 2963 2633 3030 
Q 2388 3097 2138 3097 
Q 1578 3097 1268 2742 
Q 959 2388 959 1747 
Q 959 1106 1268 751 
Q 1578 397 2138 397 
Q 2388 397 2633 464 
Q 2878 531 3122 666 
L 3122 134 
Q 2881 22 2623 -34 
Q 2366 -91 2075 -91 
Q 1284 -91 818 406 
Q 353 903 353 1747 
Q 353 2603 823 3093 
Q 1294 3584 2113 3584 
Q 2378 3584 2631 3529 
Q 2884 3475 3122 3366 
z
" transform="scale(0.015625)"/>
       <path id="DejaVuSans-65" d="M 3597 1894 
L 3597 1613 
L 953 1613 
Q 991 1019 1311 708 
Q 1631 397 2203 397 
Q 2534 397 2845 478 
Q 3156 559 3463 722 
L 3463 178 
Q 3153 47 2828 -22 
Q 2503 -91 2169 -91 
Q 1331 -91 842 396 
Q 353 884 353 1716 
Q 353 2575 817 3079 
Q 1281 3584 2069 3584 
Q 2775 3584 3186 3129 
Q 3597 2675 3597 1894 
z
M 3022 2063 
Q 3016 2534 2758 2815 
Q 2500 3097 2075 3097 
Q 1594 3097 1305 2825 
Q 1016 2553 972 2059 
L 3022 2063 
z
" transform="scale(0.015625)"/>
      </defs>
      <use xlink:href="#DejaVuSans-44"/>
      <use xlink:href="#DejaVuSans-69" x="77.001953"/>
      <use xlink:href="#DejaVuSans-73" x="104.785156"/>
      <use xlink:href="#DejaVuSans-74" x="156.884766"/>
      <use xlink:href="#DejaVuSans-61" x="196.09375"/>
      <use xlink:href="#DejaVuSans-6e" x="257.373047"/>
      <use xlink:href="#DejaVuSans-63" x="320.751953"/>
      <use xlink:href="#DejaVuSans-65" x="375.732422"/>
     </g>
    </g>
   </g>
   <g id="LineCollection_1">
    <path d="M 110.17745 540.048125 
L 110.17745 67.038146 
L 120.39225 67.038146 
L 120.39225 540.048125 
" clip-path="url(#pdb271f58c5)" style="fill: none; stroke: #1f77b4; stroke-width: 1.5"/>
    <path d="M 140.82185 540.048125 
L 140.82185 60.68437 
L 151.03665 60.68437 
L 151.03665 540.048125 
" clip-path="url(#pdb271f58c5)" style="fill: none; stroke: #1f77b4; stroke-width: 1.5"/>
    <path d="M 181.68105 540.048125 
L 181.68105 69.898472 
L 191.89585 69.898472 
L 191.89585 540.048125 
" clip-path="url(#pdb271f58c5)" style="fill: none; stroke: #1f77b4; stroke-width: 1.5"/>
    <path d="M 202.11065 540.048125 
L 202.11065 66.909587 
L 212.32545 66.909587 
L 212.32545 540.048125 
" clip-path="url(#pdb271f58c5)" style="fill: none; stroke: #1f77b4; stroke-width: 1.5"/>
    <path d="M 186.78845 69.898472 
L 186.78845 63.606471 
L 207.21805 63.606471 
L 207.21805 66.909587 
" clip-path="url(#pdb271f58c5)" style="fill: none; stroke: #1f77b4; stroke-width: 1.5"/>
    <path d="M 242.96985 540.048125 
L 242.96985 63.271102 
L 253.18465 63.271102 
L 253.18465 540.048125 
" clip-path="url(#pdb271f58c5)" style="fill: none; stroke: #1f77b4; stroke-width: 1.5"/>
    <path d="M 273.61425 540.048125 
L 273.61425 62.053127 
L 283.82905 62.053127 
L 283.82905 540.048125 
" clip-path="url(#pdb271f58c5)" style="fill: none; stroke: #1f77b4; stroke-width: 1.5"/>
    <path d="M 294.04385 540.048125 
L 294.04385 66.045522 
L 304.25865 66.045522 
L 304.25865 540.048125 
" clip-path="url(#pdb271f58c5)" style="fill: none; stroke: #1f77b4; stroke-width: 1.5"/>
    <path d="M 324.68825 540.048125 
L 324.68825 71.191182 
L 334.90305 71.191182 
L 334.90305 540.048125 
" clip-path="url(#pdb271f58c5)" style="fill: none; stroke: #1f77b4; stroke-width: 1.5"/>
    <path d="M 314.47345 540.048125 
L 314.47345 64.794604 
L 329.79565 64.794604 
L 329.79565 71.191182 
" clip-path="url(#pdb271f58c5)" style="fill: none; stroke: #1f77b4; stroke-width: 1.5"/>
    <path d="M 345.11785 540.048125 
L 345.11785 65.801238 
L 355.33265 65.801238 
L 355.33265 540.048125 
" clip-path="url(#pdb271f58c5)" style="fill: none; stroke: #1f77b4; stroke-width: 1.5"/>
    <path d="M 365.54745 540.048125 
L 365.54745 65.290196 
L 375.76225 65.290196 
L 375.76225 540.048125 
" clip-path="url(#pdb271f58c5)" style="fill: none; stroke: #1f77b4; stroke-width: 1.5"/>
    <path d="M 396.19185 540.048125 
L 396.19185 66.741487 
L 406.40665 66.741487 
L 406.40665 540.048125 
" clip-path="url(#pdb271f58c5)" style="fill: none; stroke: #1f77b4; stroke-width: 1.5"/>
    <path d="M 385.97705 540.048125 
L 385.97705 63.51419 
L 401.29925 63.51419 
L 401.29925 66.741487 
" clip-path="url(#pdb271f58c5)" style="fill: none; stroke: #1f77b4; stroke-width: 1.5"/>
    <path d="M 437.05105 540.048125 
L 437.05105 68.365136 
L 447.26585 68.365136 
L 447.26585 540.048125 
" clip-path="url(#pdb271f58c5)" style="fill: none; stroke: #1f77b4; stroke-width: 1.5"/>
    <path d="M 426.83625 540.048125 
L 426.83625 64.576337 
L 442.15845 64.576337 
L 442.15845 68.365136 
" clip-path="url(#pdb271f58c5)" style="fill: none; stroke: #1f77b4; stroke-width: 1.5"/>
    <path d="M 416.62145 540.048125 
L 416.62145 63.542293 
L 434.49735 63.542293 
L 434.49735 64.576337 
" clip-path="url(#pdb271f58c5)" style="fill: none; stroke: #1f77b4; stroke-width: 1.5"/>
    <path d="M 467.69545 540.048125 
L 467.69545 67.749309 
L 477.91025 67.749309 
L 477.91025 540.048125 
" clip-path="url(#pdb271f58c5)" style="fill: none; stroke: #1f77b4; stroke-width: 1.5"/>
    <path d="M 488.12505 540.048125 
L 488.12505 67.182828 
L 498.33985 67.182828 
L 498.33985 540.048125 
" clip-path="url(#pdb271f58c5)" style="fill: none; stroke: #1f77b4; stroke-width: 1.5"/>
    <path d="M 472.80285 67.749309 
L 472.80285 63.069557 
L 493.23245 63.069557 
L 493.23245 67.182828 
" clip-path="url(#pdb271f58c5)" style="fill: none; stroke: #1f77b4; stroke-width: 1.5"/>
    <path d="M 518.76945 540.048125 
L 518.76945 65.974516 
L 528.98425 65.974516 
L 528.98425 540.048125 
" clip-path="url(#pdb271f58c5)" style="fill: none; stroke: #1f77b4; stroke-width: 1.5"/>
    <path d="M 508.55465 540.048125 
L 508.55465 63.224567 
L 523.87685 63.224567 
L 523.87685 65.974516 
" clip-path="url(#pdb271f58c5)" style="fill: none; stroke: #1f77b4; stroke-width: 1.5"/>
    <path d="M 549.41385 540.048125 
L 549.41385 66.117723 
L 559.62865 66.117723 
L 559.62865 540.048125 
" clip-path="url(#pdb271f58c5)" style="fill: none; stroke: #1f77b4; stroke-width: 1.5"/>
    <path d="M 539.19905 540.048125 
L 539.19905 63.946445 
L 554.52125 63.946445 
L 554.52125 66.117723 
" clip-path="url(#pdb271f58c5)" style="fill: none; stroke: #1f77b4; stroke-width: 1.5"/>
    <path d="M 580.05825 540.048125 
L 580.05825 70.889553 
L 590.27305 70.889553 
L 590.27305 540.048125 
" clip-path="url(#pdb271f58c5)" style="fill: none; stroke: #1f77b4; stroke-width: 1.5"/>
    <path d="M 610.70265 540.048125 
L 610.70265 66.303869 
L 620.91745 66.303869 
L 620.91745 540.048125 
" clip-path="url(#pdb271f58c5)" style="fill: none; stroke: #1f77b4; stroke-width: 1.5"/>
    <path d="M 651.56185 540.048125 
L 651.56185 67.459704 
L 661.77665 67.459704 
L 661.77665 540.048125 
" clip-path="url(#pdb271f58c5)" style="fill: none; stroke: #1f77b4; stroke-width: 1.5"/>
    <path d="M 641.34705 540.048125 
L 641.34705 65.780286 
L 656.66925 65.780286 
L 656.66925 67.459704 
" clip-path="url(#pdb271f58c5)" style="fill: none; stroke: #1f77b4; stroke-width: 1.5"/>
    <path d="M 671.99145 540.048125 
L 671.99145 70.231556 
L 682.20625 70.231556 
L 682.20625 540.048125 
" clip-path="url(#pdb271f58c5)" style="fill: none; stroke: #1f77b4; stroke-width: 1.5"/>
    <path d="M 712.85065 540.048125 
L 712.85065 70.699315 
L 723.06545 70.699315 
L 723.06545 540.048125 
" clip-path="url(#pdb271f58c5)" style="fill: none; stroke: #1f77b4; stroke-width: 1.5"/>
    <path d="M 702.63585 540.048125 
L 702.63585 69.621899 
L 717.95805 69.621899 
L 717.95805 70.699315 
" clip-path="url(#pdb271f58c5)" style="fill: none; stroke: #1f77b4; stroke-width: 1.5"/>
    <path d="M 733.28025 540.048125 
L 733.28025 68.676093 
L 743.49505 68.676093 
L 743.49505 540.048125 
" clip-path="url(#pdb271f58c5)" style="fill: none; stroke: #1f77b4; stroke-width: 1.5"/>
    <path d="M 784.35425 540.048125 
L 784.35425 71.753716 
L 794.56905 71.753716 
L 794.56905 540.048125 
" clip-path="url(#pdb271f58c5)" style="fill: none; stroke: #1f77b4; stroke-width: 1.5"/>
    <path d="M 774.13945 540.048125 
L 774.13945 70.539248 
L 789.46165 70.539248 
L 789.46165 71.753716 
" clip-path="url(#pdb271f58c5)" style="fill: none; stroke: #1f77b4; stroke-width: 1.5"/>
    <path d="M 763.92465 540.048125 
L 763.92465 69.348026 
L 781.80055 69.348026 
L 781.80055 70.539248 
" clip-path="url(#pdb271f58c5)" style="fill: none; stroke: #1f77b4; stroke-width: 1.5"/>
    <path d="M 753.70985 540.048125 
L 753.70985 68.393343 
L 772.8626 68.393343 
L 772.8626 69.348026 
" clip-path="url(#pdb271f58c5)" style="fill: none; stroke: #1f77b4; stroke-width: 1.5"/>
    <path d="M 814.99865 540.048125 
L 814.99865 70.672669 
L 825.21345 70.672669 
L 825.21345 540.048125 
" clip-path="url(#pdb271f58c5)" style="fill: none; stroke: #1f77b4; stroke-width: 1.5"/>
    <path d="M 835.42825 540.048125 
L 835.42825 71.643366 
L 845.64305 71.643366 
L 845.64305 540.048125 
" clip-path="url(#pdb271f58c5)" style="fill: none; stroke: #1f77b4; stroke-width: 1.5"/>
    <path d="M 855.85785 540.048125 
L 855.85785 70.457446 
L 866.07265 70.457446 
L 866.07265 540.048125 
" clip-path="url(#pdb271f58c5)" style="fill: none; stroke: #1f77b4; stroke-width: 1.5"/>
    <path d="M 840.53565 71.643366 
L 840.53565 68.860203 
L 860.96525 68.860203 
L 860.96525 70.457446 
" clip-path="url(#pdb271f58c5)" style="fill: none; stroke: #1f77b4; stroke-width: 1.5"/>
    <path d="M 906.93185 540.048125 
L 906.93185 69.392112 
L 917.14665 69.392112 
L 917.14665 540.048125 
" clip-path="url(#pdb271f58c5)" style="fill: none; stroke: #1f77b4; stroke-width: 1.5"/>
    <path d="M 927.36145 540.048125 
L 927.36145 71.270451 
L 937.57625 71.270451 
L 937.57625 540.048125 
" clip-path="url(#pdb271f58c5)" style="fill: none; stroke: #1f77b4; stroke-width: 1.5"/>
    <path d="M 1049.93905 540.048125 
L 1049.93905 71.377502 
L 1060.15385 71.377502 
L 1060.15385 540.048125 
" clip-path="url(#pdb271f58c5)" style="fill: none; stroke: #1f77b4; stroke-width: 1.5"/>
    <path d="M 1039.72425 540.048125 
L 1039.72425 70.829369 
L 1055.04645 70.829369 
L 1055.04645 71.377502 
" clip-path="url(#pdb271f58c5)" style="fill: none; stroke: #1f77b4; stroke-width: 1.5"/>
    <path d="M 1029.50945 540.048125 
L 1029.50945 70.477271 
L 1047.38535 70.477271 
L 1047.38535 70.829369 
" clip-path="url(#pdb271f58c5)" style="fill: none; stroke: #1f77b4; stroke-width: 1.5"/>
    <path d="M 1019.29465 540.048125 
L 1019.29465 70.354296 
L 1038.4474 70.354296 
L 1038.4474 70.477271 
" clip-path="url(#pdb271f58c5)" style="fill: none; stroke: #1f77b4; stroke-width: 1.5"/>
    <path d="M 1009.07985 540.048125 
L 1009.07985 70.164922 
L 1028.871025 70.164922 
L 1028.871025 70.354296 
" clip-path="url(#pdb271f58c5)" style="fill: none; stroke: #1f77b4; stroke-width: 1.5"/>
    <path d="M 998.86505 540.048125 
L 998.86505 69.963216 
L 1018.975437 69.963216 
L 1018.975437 70.164922 
" clip-path="url(#pdb271f58c5)" style="fill: none; stroke: #1f77b4; stroke-width: 1.5"/>
    <path d="M 988.65025 540.048125 
L 988.65025 69.646268 
L 1008.920244 69.646268 
L 1008.920244 69.963216 
" clip-path="url(#pdb271f58c5)" style="fill: none; stroke: #1f77b4; stroke-width: 1.5"/>
    <path d="M 978.43545 540.048125 
L 978.43545 69.557568 
L 998.785247 69.557568 
L 998.785247 69.646268 
" clip-path="url(#pdb271f58c5)" style="fill: none; stroke: #1f77b4; stroke-width: 1.5"/>
    <path d="M 968.22065 540.048125 
L 968.22065 69.421402 
L 988.610348 69.421402 
L 988.610348 69.557568 
" clip-path="url(#pdb271f58c5)" style="fill: none; stroke: #1f77b4; stroke-width: 1.5"/>
    <path d="M 958.00585 540.048125 
L 958.00585 69.323998 
L 978.415499 69.323998 
L 978.415499 69.421402 
" clip-path="url(#pdb271f58c5)" style="fill: none; stroke: #1f77b4; stroke-width: 1.5"/>
    <path d="M 947.79105 540.048125 
L 947.79105 69.00029 
L 968.210675 69.00029 
L 968.210675 69.323998 
" clip-path="url(#pdb271f58c5)" style="fill: none; stroke: #1f77b4; stroke-width: 1.5"/>
    <path d="M 932.46885 71.270451 
L 932.46885 68.903347 
L 958.000862 68.903347 
L 958.000862 69.00029 
" clip-path="url(#pdb271f58c5)" style="fill: none; stroke: #1f77b4; stroke-width: 1.5"/>
    <path d="M 912.03925 69.392112 
L 912.03925 68.672763 
L 945.234856 68.672763 
L 945.234856 68.903347 
" clip-path="url(#pdb271f58c5)" style="fill: none; stroke: #1f77b4; stroke-width: 1.5"/>
    <path d="M 896.71705 540.048125 
L 896.71705 68.093921 
L 928.637053 68.093921 
L 928.637053 68.672763 
" clip-path="url(#pdb271f58c5)" style="fill: none; stroke: #1f77b4; stroke-width: 1.5"/>
    <path d="M 886.50225 540.048125 
L 886.50225 67.662019 
L 912.677052 67.662019 
L 912.677052 68.093921 
" clip-path="url(#pdb271f58c5)" style="fill: none; stroke: #1f77b4; stroke-width: 1.5"/>
    <path d="M 876.28745 540.048125 
L 876.28745 67.560604 
L 899.589651 67.560604 
L 899.589651 67.662019 
" clip-path="url(#pdb271f58c5)" style="fill: none; stroke: #1f77b4; stroke-width: 1.5"/>
    <path d="M 850.75045 68.860203 
L 850.75045 67.404694 
L 887.93855 67.404694 
L 887.93855 67.560604 
" clip-path="url(#pdb271f58c5)" style="fill: none; stroke: #1f77b4; stroke-width: 1.5"/>
    <path d="M 820.10605 70.672669 
L 820.10605 67.171556 
L 869.3445 67.171556 
L 869.3445 67.404694 
" clip-path="url(#pdb271f58c5)" style="fill: none; stroke: #1f77b4; stroke-width: 1.5"/>
    <path d="M 804.78385 540.048125 
L 804.78385 66.628175 
L 844.725275 66.628175 
L 844.725275 67.171556 
" clip-path="url(#pdb271f58c5)" style="fill: none; stroke: #1f77b4; stroke-width: 1.5"/>
    <path d="M 763.286225 68.393343 
L 763.286225 66.52728 
L 824.754563 66.52728 
L 824.754563 66.628175 
" clip-path="url(#pdb271f58c5)" style="fill: none; stroke: #1f77b4; stroke-width: 1.5"/>
    <path d="M 738.38765 68.676093 
L 738.38765 66.433031 
L 794.020394 66.433031 
L 794.020394 66.52728 
" clip-path="url(#pdb271f58c5)" style="fill: none; stroke: #1f77b4; stroke-width: 1.5"/>
    <path d="M 710.29695 69.621899 
L 710.29695 66.394446 
L 766.204022 66.394446 
L 766.204022 66.433031 
" clip-path="url(#pdb271f58c5)" style="fill: none; stroke: #1f77b4; stroke-width: 1.5"/>
    <path d="M 692.42105 540.048125 
L 692.42105 65.340224 
L 738.250486 65.340224 
L 738.250486 66.394446 
" clip-path="url(#pdb271f58c5)" style="fill: none; stroke: #1f77b4; stroke-width: 1.5"/>
    <path d="M 677.09885 70.231556 
L 677.09885 65.027963 
L 715.335768 65.027963 
L 715.335768 65.340224 
" clip-path="url(#pdb271f58c5)" style="fill: none; stroke: #1f77b4; stroke-width: 1.5"/>
    <path d="M 649.00815 65.780286 
L 649.00815 65.004991 
L 696.217309 65.004991 
L 696.217309 65.027963 
" clip-path="url(#pdb271f58c5)" style="fill: none; stroke: #1f77b4; stroke-width: 1.5"/>
    <path d="M 631.13225 540.048125 
L 631.13225 64.479901 
L 672.612729 64.479901 
L 672.612729 65.004991 
" clip-path="url(#pdb271f58c5)" style="fill: none; stroke: #1f77b4; stroke-width: 1.5"/>
    <path d="M 615.81005 66.303869 
L 615.81005 64.238587 
L 651.87249 64.238587 
L 651.87249 64.479901 
" clip-path="url(#pdb271f58c5)" style="fill: none; stroke: #1f77b4; stroke-width: 1.5"/>
    <path d="M 600.48785 540.048125 
L 600.48785 64.181898 
L 633.84127 64.181898 
L 633.84127 64.238587 
" clip-path="url(#pdb271f58c5)" style="fill: none; stroke: #1f77b4; stroke-width: 1.5"/>
    <path d="M 585.16565 70.889553 
L 585.16565 63.600624 
L 617.16456 63.600624 
L 617.16456 64.181898 
" clip-path="url(#pdb271f58c5)" style="fill: none; stroke: #1f77b4; stroke-width: 1.5"/>
    <path d="M 569.84345 540.048125 
L 569.84345 63.543306 
L 601.165105 63.543306 
L 601.165105 63.600624 
" clip-path="url(#pdb271f58c5)" style="fill: none; stroke: #1f77b4; stroke-width: 1.5"/>
    <path d="M 546.86015 63.946445 
L 546.86015 63.091851 
L 585.504277 63.091851 
L 585.504277 63.543306 
" clip-path="url(#pdb271f58c5)" style="fill: none; stroke: #1f77b4; stroke-width: 1.5"/>
    <path d="M 516.21575 63.224567 
L 516.21575 62.497912 
L 566.182214 62.497912 
L 566.182214 63.091851 
" clip-path="url(#pdb271f58c5)" style="fill: none; stroke: #1f77b4; stroke-width: 1.5"/>
    <path d="M 483.01765 63.069557 
L 483.01765 62.438209 
L 541.198982 62.438209 
L 541.198982 62.497912 
" clip-path="url(#pdb271f58c5)" style="fill: none; stroke: #1f77b4; stroke-width: 1.5"/>
    <path d="M 457.48065 540.048125 
L 457.48065 62.264168 
L 512.108316 62.264168 
L 512.108316 62.438209 
" clip-path="url(#pdb271f58c5)" style="fill: none; stroke: #1f77b4; stroke-width: 1.5"/>
    <path d="M 425.5594 63.542293 
L 425.5594 62.178335 
L 484.794483 62.178335 
L 484.794483 62.264168 
" clip-path="url(#pdb271f58c5)" style="fill: none; stroke: #1f77b4; stroke-width: 1.5"/>
    <path d="M 393.63815 63.51419 
L 393.63815 62.029461 
L 455.176941 62.029461 
L 455.176941 62.178335 
" clip-path="url(#pdb271f58c5)" style="fill: none; stroke: #1f77b4; stroke-width: 1.5"/>
    <path d="M 370.65485 65.290196 
L 370.65485 61.699336 
L 424.407546 61.699336 
L 424.407546 62.029461 
" clip-path="url(#pdb271f58c5)" style="fill: none; stroke: #1f77b4; stroke-width: 1.5"/>
    <path d="M 350.22525 65.801238 
L 350.22525 61.674877 
L 397.531198 61.674877 
L 397.531198 61.699336 
" clip-path="url(#pdb271f58c5)" style="fill: none; stroke: #1f77b4; stroke-width: 1.5"/>
    <path d="M 322.13455 64.794604 
L 322.13455 61.501354 
L 373.878224 61.501354 
L 373.878224 61.674877 
" clip-path="url(#pdb271f58c5)" style="fill: none; stroke: #1f77b4; stroke-width: 1.5"/>
    <path d="M 299.15125 66.045522 
L 299.15125 61.320016 
L 348.006387 61.320016 
L 348.006387 61.501354 
" clip-path="url(#pdb271f58c5)" style="fill: none; stroke: #1f77b4; stroke-width: 1.5"/>
    <path d="M 278.72165 62.053127 
L 278.72165 61.112749 
L 323.578818 61.112749 
L 323.578818 61.320016 
" clip-path="url(#pdb271f58c5)" style="fill: none; stroke: #1f77b4; stroke-width: 1.5"/>
    <path d="M 263.39945 540.048125 
L 263.39945 60.894861 
L 301.150234 60.894861 
L 301.150234 61.112749 
" clip-path="url(#pdb271f58c5)" style="fill: none; stroke: #1f77b4; stroke-width: 1.5"/>
    <path d="M 248.07725 63.271102 
L 248.07725 59.440402 
L 282.274842 59.440402 
L 282.274842 60.894861 
" clip-path="url(#pdb271f58c5)" style="fill: none; stroke: #1f77b4; stroke-width: 1.5"/>
    <path d="M 232.75505 540.048125 
L 232.75505 59.150804 
L 265.176046 59.150804 
L 265.176046 59.440402 
" clip-path="url(#pdb271f58c5)" style="fill: none; stroke: #1f77b4; stroke-width: 1.5"/>
    <path d="M 222.54025 540.048125 
L 222.54025 58.401817 
L 248.965548 58.401817 
L 248.965548 59.150804 
" clip-path="url(#pdb271f58c5)" style="fill: none; stroke: #1f77b4; stroke-width: 1.5"/>
    <path d="M 197.00325 63.606471 
L 197.00325 57.95959 
L 235.752899 57.95959 
L 235.752899 58.401817 
" clip-path="url(#pdb271f58c5)" style="fill: none; stroke: #1f77b4; stroke-width: 1.5"/>
    <path d="M 171.46625 540.048125 
L 171.46625 57.658738 
L 216.378075 57.658738 
L 216.378075 57.95959 
" clip-path="url(#pdb271f58c5)" style="fill: none; stroke: #1f77b4; stroke-width: 1.5"/>
    <path d="M 161.25145 540.048125 
L 161.25145 57.588606 
L 193.922162 57.588606 
L 193.922162 57.658738 
" clip-path="url(#pdb271f58c5)" style="fill: none; stroke: #1f77b4; stroke-width: 1.5"/>
    <path d="M 145.92925 60.68437 
L 145.92925 57.432209 
L 177.586806 57.432209 
L 177.586806 57.588606 
" clip-path="url(#pdb271f58c5)" style="fill: none; stroke: #1f77b4; stroke-width: 1.5"/>
    <path d="M 130.60705 540.048125 
L 130.60705 57.130811 
L 161.758028 57.130811 
L 161.758028 57.432209 
" clip-path="url(#pdb271f58c5)" style="fill: none; stroke: #1f77b4; stroke-width: 1.5"/>
    <path d="M 115.28485 67.038146 
L 115.28485 56.633397 
L 146.182539 56.633397 
L 146.182539 57.130811 
" clip-path="url(#pdb271f58c5)" style="fill: none; stroke: #1f77b4; stroke-width: 1.5"/>
    <path d="M 99.96265 540.048125 
L 99.96265 55.446599 
L 130.733695 55.446599 
L 130.733695 56.633397 
" clip-path="url(#pdb271f58c5)" style="fill: none; stroke: #1f77b4; stroke-width: 1.5"/>
    <path d="M 89.74785 540.048125 
L 89.74785 53.195518 
L 115.348172 53.195518 
L 115.348172 55.446599 
" clip-path="url(#pdb271f58c5)" style="fill: none; stroke: #1f77b4; stroke-width: 1.5"/>
    <path d="M 79.53305 540.048125 
L 79.53305 52.766596 
L 102.548011 52.766596 
L 102.548011 53.195518 
" clip-path="url(#pdb271f58c5)" style="fill: none; stroke: #1f77b4; stroke-width: 1.5"/>
    <path d="M 69.31825 540.048125 
L 69.31825 52.505154 
L 91.040531 52.505154 
L 91.040531 52.766596 
" clip-path="url(#pdb271f58c5)" style="fill: none; stroke: #1f77b4; stroke-width: 1.5"/>
    <path d="M 59.10345 540.048125 
L 59.10345 48.562468 
L 80.17939 48.562468 
L 80.17939 52.505154 
" clip-path="url(#pdb271f58c5)" style="fill: none; stroke: #1f77b4; stroke-width: 1.5"/>
    <path d="M 48.88865 540.048125 
L 48.88865 46.971935 
L 69.64142 46.971935 
L 69.64142 48.562468 
" clip-path="url(#pdb271f58c5)" style="fill: none; stroke: #1f77b4; stroke-width: 1.5"/>
   </g>
   <g id="patch_3">
    <path d="M 43.78125 540.048125 
L 43.78125 22.318125 
" style="fill: none; stroke: #000000; stroke-width: 0.8; stroke-linejoin: miter; stroke-linecap: square"/>
   </g>
   <g id="patch_4">
    <path d="M 1065.26125 540.048125 
L 1065.26125 22.318125 
" style="fill: none; stroke: #000000; stroke-width: 0.8; stroke-linejoin: miter; stroke-linecap: square"/>
   </g>
   <g id="patch_5">
    <path d="M 43.78125 540.048125 
L 1065.26125 540.048125 
" style="fill: none; stroke: #000000; stroke-width: 0.8; stroke-linejoin: miter; stroke-linecap: square"/>
   </g>
   <g id="patch_6">
    <path d="M 43.78125 22.318125 
L 1065.26125 22.318125 
" style="fill: none; stroke: #000000; stroke-width: 0.8; stroke-linejoin: miter; stroke-linecap: square"/>
   </g>
   <g id="text_108">
    <!-- Hierarchical Clustering Dendrogram (truncated to 100 leaves) -->
    <g transform="translate(368.210938 16.318125) scale(0.12 -0.12)">
     <defs>
      <path id="DejaVuSans-48" d="M 628 4666 
L 1259 4666 
L 1259 2753 
L 3553 2753 
L 3553 4666 
L 4184 4666 
L 4184 0 
L 3553 0 
L 3553 2222 
L 1259 2222 
L 1259 0 
L 628 0 
L 628 4666 
z
" transform="scale(0.015625)"/>
      <path id="DejaVuSans-72" d="M 2631 2963 
Q 2534 3019 2420 3045 
Q 2306 3072 2169 3072 
Q 1681 3072 1420 2755 
Q 1159 2438 1159 1844 
L 1159 0 
L 581 0 
L 581 3500 
L 1159 3500 
L 1159 2956 
Q 1341 3275 1631 3429 
Q 1922 3584 2338 3584 
Q 2397 3584 2469 3576 
Q 2541 3569 2628 3553 
L 2631 2963 
z
" transform="scale(0.015625)"/>
      <path id="DejaVuSans-68" d="M 3513 2113 
L 3513 0 
L 2938 0 
L 2938 2094 
Q 2938 2591 2744 2837 
Q 2550 3084 2163 3084 
Q 1697 3084 1428 2787 
Q 1159 2491 1159 1978 
L 1159 0 
L 581 0 
L 581 4863 
L 1159 4863 
L 1159 2956 
Q 1366 3272 1645 3428 
Q 1925 3584 2291 3584 
Q 2894 3584 3203 3211 
Q 3513 2838 3513 2113 
z
" transform="scale(0.015625)"/>
      <path id="DejaVuSans-6c" d="M 603 4863 
L 1178 4863 
L 1178 0 
L 603 0 
L 603 4863 
z
" transform="scale(0.015625)"/>
      <path id="DejaVuSans-20" transform="scale(0.015625)"/>
      <path id="DejaVuSans-43" d="M 4122 4306 
L 4122 3641 
Q 3803 3938 3442 4084 
Q 3081 4231 2675 4231 
Q 1875 4231 1450 3742 
Q 1025 3253 1025 2328 
Q 1025 1406 1450 917 
Q 1875 428 2675 428 
Q 3081 428 3442 575 
Q 3803 722 4122 1019 
L 4122 359 
Q 3791 134 3420 21 
Q 3050 -91 2638 -91 
Q 1578 -91 968 557 
Q 359 1206 359 2328 
Q 359 3453 968 4101 
Q 1578 4750 2638 4750 
Q 3056 4750 3426 4639 
Q 3797 4528 4122 4306 
z
" transform="scale(0.015625)"/>
      <path id="DejaVuSans-75" d="M 544 1381 
L 544 3500 
L 1119 3500 
L 1119 1403 
Q 1119 906 1312 657 
Q 1506 409 1894 409 
Q 2359 409 2629 706 
Q 2900 1003 2900 1516 
L 2900 3500 
L 3475 3500 
L 3475 0 
L 2900 0 
L 2900 538 
Q 2691 219 2414 64 
Q 2138 -91 1772 -91 
Q 1169 -91 856 284 
Q 544 659 544 1381 
z
M 1991 3584 
L 1991 3584 
z
" transform="scale(0.015625)"/>
      <path id="DejaVuSans-67" d="M 2906 1791 
Q 2906 2416 2648 2759 
Q 2391 3103 1925 3103 
Q 1463 3103 1205 2759 
Q 947 2416 947 1791 
Q 947 1169 1205 825 
Q 1463 481 1925 481 
Q 2391 481 2648 825 
Q 2906 1169 2906 1791 
z
M 3481 434 
Q 3481 -459 3084 -895 
Q 2688 -1331 1869 -1331 
Q 1566 -1331 1297 -1286 
Q 1028 -1241 775 -1147 
L 775 -588 
Q 1028 -725 1275 -790 
Q 1522 -856 1778 -856 
Q 2344 -856 2625 -561 
Q 2906 -266 2906 331 
L 2906 616 
Q 2728 306 2450 153 
Q 2172 0 1784 0 
Q 1141 0 747 490 
Q 353 981 353 1791 
Q 353 2603 747 3093 
Q 1141 3584 1784 3584 
Q 2172 3584 2450 3431 
Q 2728 3278 2906 2969 
L 2906 3500 
L 3481 3500 
L 3481 434 
z
" transform="scale(0.015625)"/>
      <path id="DejaVuSans-64" d="M 2906 2969 
L 2906 4863 
L 3481 4863 
L 3481 0 
L 2906 0 
L 2906 525 
Q 2725 213 2448 61 
Q 2172 -91 1784 -91 
Q 1150 -91 751 415 
Q 353 922 353 1747 
Q 353 2572 751 3078 
Q 1150 3584 1784 3584 
Q 2172 3584 2448 3432 
Q 2725 3281 2906 2969 
z
M 947 1747 
Q 947 1113 1208 752 
Q 1469 391 1925 391 
Q 2381 391 2643 752 
Q 2906 1113 2906 1747 
Q 2906 2381 2643 2742 
Q 2381 3103 1925 3103 
Q 1469 3103 1208 2742 
Q 947 2381 947 1747 
z
" transform="scale(0.015625)"/>
      <path id="DejaVuSans-6f" d="M 1959 3097 
Q 1497 3097 1228 2736 
Q 959 2375 959 1747 
Q 959 1119 1226 758 
Q 1494 397 1959 397 
Q 2419 397 2687 759 
Q 2956 1122 2956 1747 
Q 2956 2369 2687 2733 
Q 2419 3097 1959 3097 
z
M 1959 3584 
Q 2709 3584 3137 3096 
Q 3566 2609 3566 1747 
Q 3566 888 3137 398 
Q 2709 -91 1959 -91 
Q 1206 -91 779 398 
Q 353 888 353 1747 
Q 353 2609 779 3096 
Q 1206 3584 1959 3584 
z
" transform="scale(0.015625)"/>
      <path id="DejaVuSans-6d" d="M 3328 2828 
Q 3544 3216 3844 3400 
Q 4144 3584 4550 3584 
Q 5097 3584 5394 3201 
Q 5691 2819 5691 2113 
L 5691 0 
L 5113 0 
L 5113 2094 
Q 5113 2597 4934 2840 
Q 4756 3084 4391 3084 
Q 3944 3084 3684 2787 
Q 3425 2491 3425 1978 
L 3425 0 
L 2847 0 
L 2847 2094 
Q 2847 2600 2669 2842 
Q 2491 3084 2119 3084 
Q 1678 3084 1418 2786 
Q 1159 2488 1159 1978 
L 1159 0 
L 581 0 
L 581 3500 
L 1159 3500 
L 1159 2956 
Q 1356 3278 1631 3431 
Q 1906 3584 2284 3584 
Q 2666 3584 2933 3390 
Q 3200 3197 3328 2828 
z
" transform="scale(0.015625)"/>
      <path id="DejaVuSans-76" d="M 191 3500 
L 800 3500 
L 1894 563 
L 2988 3500 
L 3597 3500 
L 2284 0 
L 1503 0 
L 191 3500 
z
" transform="scale(0.015625)"/>
     </defs>
     <use xlink:href="#DejaVuSans-48"/>
     <use xlink:href="#DejaVuSans-69" x="75.195312"/>
     <use xlink:href="#DejaVuSans-65" x="102.978516"/>
     <use xlink:href="#DejaVuSans-72" x="164.501953"/>
     <use xlink:href="#DejaVuSans-61" x="205.615234"/>
     <use xlink:href="#DejaVuSans-72" x="266.894531"/>
     <use xlink:href="#DejaVuSans-63" x="305.757812"/>
     <use xlink:href="#DejaVuSans-68" x="360.738281"/>
     <use xlink:href="#DejaVuSans-69" x="424.117188"/>
     <use xlink:href="#DejaVuSans-63" x="451.900391"/>
     <use xlink:href="#DejaVuSans-61" x="506.880859"/>
     <use xlink:href="#DejaVuSans-6c" x="568.160156"/>
     <use xlink:href="#DejaVuSans-20" x="595.943359"/>
     <use xlink:href="#DejaVuSans-43" x="627.730469"/>
     <use xlink:href="#DejaVuSans-6c" x="697.554688"/>
     <use xlink:href="#DejaVuSans-75" x="725.337891"/>
     <use xlink:href="#DejaVuSans-73" x="788.716797"/>
     <use xlink:href="#DejaVuSans-74" x="840.816406"/>
     <use xlink:href="#DejaVuSans-65" x="880.025391"/>
     <use xlink:href="#DejaVuSans-72" x="941.548828"/>
     <use xlink:href="#DejaVuSans-69" x="982.662109"/>
     <use xlink:href="#DejaVuSans-6e" x="1010.445312"/>
     <use xlink:href="#DejaVuSans-67" x="1073.824219"/>
     <use xlink:href="#DejaVuSans-20" x="1137.300781"/>
     <use xlink:href="#DejaVuSans-44" x="1169.087891"/>
     <use xlink:href="#DejaVuSans-65" x="1246.089844"/>
     <use xlink:href="#DejaVuSans-6e" x="1307.613281"/>
     <use xlink:href="#DejaVuSans-64" x="1370.992188"/>
     <use xlink:href="#DejaVuSans-72" x="1434.46875"/>
     <use xlink:href="#DejaVuSans-6f" x="1473.332031"/>
     <use xlink:href="#DejaVuSans-67" x="1534.513672"/>
     <use xlink:href="#DejaVuSans-72" x="1597.990234"/>
     <use xlink:href="#DejaVuSans-61" x="1639.103516"/>
     <use xlink:href="#DejaVuSans-6d" x="1700.382812"/>
     <use xlink:href="#DejaVuSans-20" x="1797.794922"/>
     <use xlink:href="#DejaVuSans-28" x="1829.582031"/>
     <use xlink:href="#DejaVuSans-74" x="1868.595703"/>
     <use xlink:href="#DejaVuSans-72" x="1907.804688"/>
     <use xlink:href="#DejaVuSans-75" x="1948.917969"/>
     <use xlink:href="#DejaVuSans-6e" x="2012.296875"/>
     <use xlink:href="#DejaVuSans-63" x="2075.675781"/>
     <use xlink:href="#DejaVuSans-61" x="2130.65625"/>
     <use xlink:href="#DejaVuSans-74" x="2191.935547"/>
     <use xlink:href="#DejaVuSans-65" x="2231.144531"/>
     <use xlink:href="#DejaVuSans-64" x="2292.667969"/>
     <use xlink:href="#DejaVuSans-20" x="2356.144531"/>
     <use xlink:href="#DejaVuSans-74" x="2387.931641"/>
     <use xlink:href="#DejaVuSans-6f" x="2427.140625"/>
     <use xlink:href="#DejaVuSans-20" x="2488.322266"/>
     <use xlink:href="#DejaVuSans-31" x="2520.109375"/>
     <use xlink:href="#DejaVuSans-30" x="2583.732422"/>
     <use xlink:href="#DejaVuSans-30" x="2647.355469"/>
     <use xlink:href="#DejaVuSans-20" x="2710.978516"/>
     <use xlink:href="#DejaVuSans-6c" x="2742.765625"/>
     <use xlink:href="#DejaVuSans-65" x="2770.548828"/>
     <use xlink:href="#DejaVuSans-61" x="2832.072266"/>
     <use xlink:href="#DejaVuSans-76" x="2893.351562"/>
     <use xlink:href="#DejaVuSans-65" x="2952.53125"/>
     <use xlink:href="#DejaVuSans-73" x="3014.054688"/>
     <use xlink:href="#DejaVuSans-29" x="3066.154297"/>
    </g>
   </g>
  </g>
 </g>
 <defs>
  <clipPath id="pdb271f58c5">
   <rect x="43.78125" y="22.318125" width="1021.48" height="517.73"/>
  </clipPath>
 </defs>
</svg>
