<?xml version="1.0" encoding="utf-8" standalone="no"?>
<!DOCTYPE svg PUBLIC "-//W3C//DTD SVG 1.1//EN"
  "http://www.w3.org/Graphics/SVG/1.1/DTD/svg11.dtd">
<svg xmlns:xlink="http://www.w3.org/1999/xlink" width="566.678437pt" height="566.889687pt" viewBox="0 0 566.678437 566.889687" xmlns="http://www.w3.org/2000/svg" version="1.1">
 <metadata>
  <rdf:RDF xmlns:dc="http://purl.org/dc/elements/1.1/" xmlns:cc="http://creativecommons.org/ns#" xmlns:rdf="http://www.w3.org/1999/02/22-rdf-syntax-ns#">
   <cc:Work>
    <dc:type rdf:resource="http://purl.org/dc/dcmitype/StillImage"/>
    <dc:date>2026-01-12T10:22:48.095083</dc:date>
    <dc:format>image/svg+xml</dc:format>
    <dc:creator>
     <cc:Agent>
      <dc:title>Matplotlib v3.9.2, https://matplotlib.org/</dc:title>
     </cc:Agent>
    </dc:creator>
   </cc:Work>
  </rdf:RDF>
 </metadata>
 <defs>
  <style type="text/css">*{stroke-linejoin: round; stroke-linecap: butt}</style>
 </defs>
 <g id="figure_1">
  <g id="patch_1">
   <path d="M 0 566.889687 
L 566.678437 566.889687 
L 566.678437 0 
L 0 0 
z
" style="fill: #ffffff"/>
  </g>
  <g id="axes_1">
   <g id="patch_2">
    <path d="M 47.016875 526.097812 
L 551.526875 526.097812 
L 551.526875 23.837812 
L 47.016875 23.837812 
z
" style="fill: #ffffff"/>
   </g>
   <g id="matplotlib.axis_1">
    <g id="xtick_1">
     <g id="line2d_1">
      <path d="M 47.016875 526.097812 
L 47.016875 23.837812 
" clip-path="url(#pa07e20740a)" style="fill: none; stroke: #cccccc; stroke-width: 0.8; stroke-linecap: round"/>
     </g>
     <g id="text_1">
      <!-- 0.0 -->
      <g style="fill: #262626" transform="translate(39.065313 541.99625) scale(0.1 -0.1)">
       <defs>
        <path id="DejaVuSans-30" d="M 2034 4250 
Q 1547 4250 1301 3770 
Q 1056 3291 1056 2328 
Q 1056 1369 1301 889 
Q 1547 409 2034 409 
Q 2525 409 2770 889 
Q 3016 1369 3016 2328 
Q 3016 3291 2770 3770 
Q 2525 4250 2034 4250 
z
M 2034 4750 
Q 2819 4750 3233 4129 
Q 3647 3509 3647 2328 
Q 3647 1150 3233 529 
Q 2819 -91 2034 -91 
Q 1250 -91 836 529 
Q 422 1150 422 2328 
Q 422 3509 836 4129 
Q 1250 4750 2034 4750 
z
" transform="scale(0.015625)"/>
        <path id="DejaVuSans-2e" d="M 684 794 
L 1344 794 
L 1344 0 
L 684 0 
L 684 794 
z
" transform="scale(0.015625)"/>
       </defs>
       <use xlink:href="#DejaVuSans-30"/>
       <use xlink:href="#DejaVuSans-2e" x="63.623047"/>
       <use xlink:href="#DejaVuSans-30" x="95.410156"/>
      </g>
     </g>
    </g>
    <g id="xtick_2">
     <g id="line2d_2">
      <path d="M 147.918875 526.097812 
L 147.918875 23.837812 
" clip-path="url(#pa07e20740a)" style="fill: none; stroke: #cccccc; stroke-width: 0.8; stroke-linecap: round"/>
     </g>
     <g id="text_2">
      <!-- 0.2 -->
      <g style="fill: #262626" transform="translate(139.967313 541.99625) scale(0.1 -0.1)">
       <defs>
        <path id="DejaVuSans-32" d="M 1228 531 
L 3431 531 
L 3431 0 
L 469 0 
L 469 531 
Q 828 903 1448 1529 
Q 2069 2156 2228 2338 
Q 2531 2678 2651 2914 
Q 2772 3150 2772 3378 
Q 2772 3750 2511 3984 
Q 2250 4219 1831 4219 
Q 1534 4219 1204 4116 
Q 875 4013 500 3803 
L 500 4441 
Q 881 4594 1212 4672 
Q 1544 4750 1819 4750 
Q 2544 4750 2975 4387 
Q 3406 4025 3406 3419 
Q 3406 3131 3298 2873 
Q 3191 2616 2906 2266 
Q 2828 2175 2409 1742 
Q 1991 1309 1228 531 
z
" transform="scale(0.015625)"/>
       </defs>
       <use xlink:href="#DejaVuSans-30"/>
       <use xlink:href="#DejaVuSans-2e" x="63.623047"/>
       <use xlink:href="#DejaVuSans-32" x="95.410156"/>
      </g>
     </g>
    </g>
    <g id="xtick_3">
     <g id="line2d_3">
      <path d="M 248.820875 526.097812 
L 248.820875 23.837812 
" clip-path="url(#pa07e20740a)" style="fill: none; stroke: #cccccc; stroke-width: 0.8; stroke-linecap: round"/>
     </g>
     <g id="text_3">
      <!-- 0.4 -->
      <g style="fill: #262626" transform="translate(240.869313 541.99625) scale(0.1 -0.1)">
       <defs>
        <path id="DejaVuSans-34" d="M 2419 4116 
L 825 1625 
L 2419 1625 
L 2419 4116 
z
M 2253 4666 
L 3047 4666 
L 3047 1625 
L 3713 1625 
L 3713 1100 
L 3047 1100 
L 3047 0 
L 2419 0 
L 2419 1100 
L 313 1100 
L 313 1709 
L 2253 4666 
z
" transform="scale(0.015625)"/>
       </defs>
       <use xlink:href="#DejaVuSans-30"/>
       <use xlink:href="#DejaVuSans-2e" x="63.623047"/>
       <use xlink:href="#DejaVuSans-34" x="95.410156"/>
      </g>
     </g>
    </g>
    <g id="xtick_4">
     <g id="line2d_4">
      <path d="M 349.722875 526.097812 
L 349.722875 23.837812 
" clip-path="url(#pa07e20740a)" style="fill: none; stroke: #cccccc; stroke-width: 0.8; stroke-linecap: round"/>
     </g>
     <g id="text_4">
      <!-- 0.6 -->
      <g style="fill: #262626" transform="translate(341.771313 541.99625) scale(0.1 -0.1)">
       <defs>
        <path id="DejaVuSans-36" d="M 2113 2584 
Q 1688 2584 1439 2293 
Q 1191 2003 1191 1497 
Q 1191 994 1439 701 
Q 1688 409 2113 409 
Q 2538 409 2786 701 
Q 3034 994 3034 1497 
Q 3034 2003 2786 2293 
Q 2538 2584 2113 2584 
z
M 3366 4563 
L 3366 3988 
Q 3128 4100 2886 4159 
Q 2644 4219 2406 4219 
Q 1781 4219 1451 3797 
Q 1122 3375 1075 2522 
Q 1259 2794 1537 2939 
Q 1816 3084 2150 3084 
Q 2853 3084 3261 2657 
Q 3669 2231 3669 1497 
Q 3669 778 3244 343 
Q 2819 -91 2113 -91 
Q 1303 -91 875 529 
Q 447 1150 447 2328 
Q 447 3434 972 4092 
Q 1497 4750 2381 4750 
Q 2619 4750 2861 4703 
Q 3103 4656 3366 4563 
z
" transform="scale(0.015625)"/>
       </defs>
       <use xlink:href="#DejaVuSans-30"/>
       <use xlink:href="#DejaVuSans-2e" x="63.623047"/>
       <use xlink:href="#DejaVuSans-36" x="95.410156"/>
      </g>
     </g>
    </g>
    <g id="xtick_5">
     <g id="line2d_5">
      <path d="M 450.624875 526.097812 
L 450.624875 23.837812 
" clip-path="url(#pa07e20740a)" style="fill: none; stroke: #cccccc; stroke-width: 0.8; stroke-linecap: round"/>
     </g>
     <g id="text_5">
      <!-- 0.8 -->
      <g style="fill: #262626" transform="translate(442.673313 541.99625) scale(0.1 -0.1)">
       <defs>
        <path id="DejaVuSans-38" d="M 2034 2216 
Q 1584 2216 1326 1975 
Q 1069 1734 1069 1313 
Q 1069 891 1326 650 
Q 1584 409 2034 409 
Q 2484 409 2743 651 
Q 3003 894 3003 1313 
Q 3003 1734 2745 1975 
Q 2488 2216 2034 2216 
z
M 1403 2484 
Q 997 2584 770 2862 
Q 544 3141 544 3541 
Q 544 4100 942 4425 
Q 1341 4750 2034 4750 
Q 2731 4750 3128 4425 
Q 3525 4100 3525 3541 
Q 3525 3141 3298 2862 
Q 3072 2584 2669 2484 
Q 3125 2378 3379 2068 
Q 3634 1759 3634 1313 
Q 3634 634 3220 271 
Q 2806 -91 2034 -91 
Q 1263 -91 848 271 
Q 434 634 434 1313 
Q 434 1759 690 2068 
Q 947 2378 1403 2484 
z
M 1172 3481 
Q 1172 3119 1398 2916 
Q 1625 2713 2034 2713 
Q 2441 2713 2670 2916 
Q 2900 3119 2900 3481 
Q 2900 3844 2670 4047 
Q 2441 4250 2034 4250 
Q 1625 4250 1398 4047 
Q 1172 3844 1172 3481 
z
" transform="scale(0.015625)"/>
       </defs>
       <use xlink:href="#DejaVuSans-30"/>
       <use xlink:href="#DejaVuSans-2e" x="63.623047"/>
       <use xlink:href="#DejaVuSans-38" x="95.410156"/>
      </g>
     </g>
    </g>
    <g id="xtick_6">
     <g id="line2d_6">
      <path d="M 551.526875 526.097812 
L 551.526875 23.837812 
" clip-path="url(#pa07e20740a)" style="fill: none; stroke: #cccccc; stroke-width: 0.8; stroke-linecap: round"/>
     </g>
     <g id="text_6">
      <!-- 1.0 -->
      <g style="fill: #262626" transform="translate(543.575312 541.99625) scale(0.1 -0.1)">
       <defs>
        <path id="DejaVuSans-31" d="M 794 531 
L 1825 531 
L 1825 4091 
L 703 3866 
L 703 4441 
L 1819 4666 
L 2450 4666 
L 2450 531 
L 3481 531 
L 3481 0 
L 794 0 
L 794 531 
z
" transform="scale(0.015625)"/>
       </defs>
       <use xlink:href="#DejaVuSans-31"/>
       <use xlink:href="#DejaVuSans-2e" x="63.623047"/>
       <use xlink:href="#DejaVuSans-30" x="95.410156"/>
      </g>
     </g>
    </g>
    <g id="text_7">
     <!-- False Positive Rate -->
     <g style="fill: #262626" transform="translate(243.512188 557.194062) scale(0.12 -0.12)">
      <defs>
       <path id="DejaVuSans-46" d="M 628 4666 
L 3309 4666 
L 3309 4134 
L 1259 4134 
L 1259 2759 
L 3109 2759 
L 3109 2228 
L 1259 2228 
L 1259 0 
L 628 0 
L 628 4666 
z
" transform="scale(0.015625)"/>
       <path id="DejaVuSans-61" d="M 2194 1759 
Q 1497 1759 1228 1600 
Q 959 1441 959 1056 
Q 959 750 1161 570 
Q 1363 391 1709 391 
Q 2188 391 2477 730 
Q 2766 1069 2766 1631 
L 2766 1759 
L 2194 1759 
z
M 3341 1997 
L 3341 0 
L 2766 0 
L 2766 531 
Q 2569 213 2275 61 
Q 1981 -91 1556 -91 
Q 1019 -91 701 211 
Q 384 513 384 1019 
Q 384 1609 779 1909 
Q 1175 2209 1959 2209 
L 2766 2209 
L 2766 2266 
Q 2766 2663 2505 2880 
Q 2244 3097 1772 3097 
Q 1472 3097 1187 3025 
Q 903 2953 641 2809 
L 641 3341 
Q 956 3463 1253 3523 
Q 1550 3584 1831 3584 
Q 2591 3584 2966 3190 
Q 3341 2797 3341 1997 
z
" transform="scale(0.015625)"/>
       <path id="DejaVuSans-6c" d="M 603 4863 
L 1178 4863 
L 1178 0 
L 603 0 
L 603 4863 
z
" transform="scale(0.015625)"/>
       <path id="DejaVuSans-73" d="M 2834 3397 
L 2834 2853 
Q 2591 2978 2328 3040 
Q 2066 3103 1784 3103 
Q 1356 3103 1142 2972 
Q 928 2841 928 2578 
Q 928 2378 1081 2264 
Q 1234 2150 1697 2047 
L 1894 2003 
Q 2506 1872 2764 1633 
Q 3022 1394 3022 966 
Q 3022 478 2636 193 
Q 2250 -91 1575 -91 
Q 1294 -91 989 -36 
Q 684 19 347 128 
L 347 722 
Q 666 556 975 473 
Q 1284 391 1588 391 
Q 1994 391 2212 530 
Q 2431 669 2431 922 
Q 2431 1156 2273 1281 
Q 2116 1406 1581 1522 
L 1381 1569 
Q 847 1681 609 1914 
Q 372 2147 372 2553 
Q 372 3047 722 3315 
Q 1072 3584 1716 3584 
Q 2034 3584 2315 3537 
Q 2597 3491 2834 3397 
z
" transform="scale(0.015625)"/>
       <path id="DejaVuSans-65" d="M 3597 1894 
L 3597 1613 
L 953 1613 
Q 991 1019 1311 708 
Q 1631 397 2203 397 
Q 2534 397 2845 478 
Q 3156 559 3463 722 
L 3463 178 
Q 3153 47 2828 -22 
Q 2503 -91 2169 -91 
Q 1331 -91 842 396 
Q 353 884 353 1716 
Q 353 2575 817 3079 
Q 1281 3584 2069 3584 
Q 2775 3584 3186 3129 
Q 3597 2675 3597 1894 
z
M 3022 2063 
Q 3016 2534 2758 2815 
Q 2500 3097 2075 3097 
Q 1594 3097 1305 2825 
Q 1016 2553 972 2059 
L 3022 2063 
z
" transform="scale(0.015625)"/>
       <path id="DejaVuSans-20" transform="scale(0.015625)"/>
       <path id="DejaVuSans-50" d="M 1259 4147 
L 1259 2394 
L 2053 2394 
Q 2494 2394 2734 2622 
Q 2975 2850 2975 3272 
Q 2975 3691 2734 3919 
Q 2494 4147 2053 4147 
L 1259 4147 
z
M 628 4666 
L 2053 4666 
Q 2838 4666 3239 4311 
Q 3641 3956 3641 3272 
Q 3641 2581 3239 2228 
Q 2838 1875 2053 1875 
L 1259 1875 
L 1259 0 
L 628 0 
L 628 4666 
z
" transform="scale(0.015625)"/>
       <path id="DejaVuSans-6f" d="M 1959 3097 
Q 1497 3097 1228 2736 
Q 959 2375 959 1747 
Q 959 1119 1226 758 
Q 1494 397 1959 397 
Q 2419 397 2687 759 
Q 2956 1122 2956 1747 
Q 2956 2369 2687 2733 
Q 2419 3097 1959 3097 
z
M 1959 3584 
Q 2709 3584 3137 3096 
Q 3566 2609 3566 1747 
Q 3566 888 3137 398 
Q 2709 -91 1959 -91 
Q 1206 -91 779 398 
Q 353 888 353 1747 
Q 353 2609 779 3096 
Q 1206 3584 1959 3584 
z
" transform="scale(0.015625)"/>
       <path id="DejaVuSans-69" d="M 603 3500 
L 1178 3500 
L 1178 0 
L 603 0 
L 603 3500 
z
M 603 4863 
L 1178 4863 
L 1178 4134 
L 603 4134 
L 603 4863 
z
" transform="scale(0.015625)"/>
       <path id="DejaVuSans-74" d="M 1172 4494 
L 1172 3500 
L 2356 3500 
L 2356 3053 
L 1172 3053 
L 1172 1153 
Q 1172 725 1289 603 
Q 1406 481 1766 481 
L 2356 481 
L 2356 0 
L 1766 0 
Q 1100 0 847 248 
Q 594 497 594 1153 
L 594 3053 
L 172 3053 
L 172 3500 
L 594 3500 
L 594 4494 
L 1172 4494 
z
" transform="scale(0.015625)"/>
       <path id="DejaVuSans-76" d="M 191 3500 
L 800 3500 
L 1894 563 
L 2988 3500 
L 3597 3500 
L 2284 0 
L 1503 0 
L 191 3500 
z
" transform="scale(0.015625)"/>
       <path id="DejaVuSans-52" d="M 2841 2188 
Q 3044 2119 3236 1894 
Q 3428 1669 3622 1275 
L 4263 0 
L 3584 0 
L 2988 1197 
Q 2756 1666 2539 1819 
Q 2322 1972 1947 1972 
L 1259 1972 
L 1259 0 
L 628 0 
L 628 4666 
L 2053 4666 
Q 2853 4666 3247 4331 
Q 3641 3997 3641 3322 
Q 3641 2881 3436 2590 
Q 3231 2300 2841 2188 
z
M 1259 4147 
L 1259 2491 
L 2053 2491 
Q 2509 2491 2742 2702 
Q 2975 2913 2975 3322 
Q 2975 3731 2742 3939 
Q 2509 4147 2053 4147 
L 1259 4147 
z
" transform="scale(0.015625)"/>
      </defs>
      <use xlink:href="#DejaVuSans-46"/>
      <use xlink:href="#DejaVuSans-61" x="48.394531"/>
      <use xlink:href="#DejaVuSans-6c" x="109.673828"/>
      <use xlink:href="#DejaVuSans-73" x="137.457031"/>
      <use xlink:href="#DejaVuSans-65" x="189.556641"/>
      <use xlink:href="#DejaVuSans-20" x="251.080078"/>
      <use xlink:href="#DejaVuSans-50" x="282.867188"/>
      <use xlink:href="#DejaVuSans-6f" x="339.544922"/>
      <use xlink:href="#DejaVuSans-73" x="400.726562"/>
      <use xlink:href="#DejaVuSans-69" x="452.826172"/>
      <use xlink:href="#DejaVuSans-74" x="480.609375"/>
      <use xlink:href="#DejaVuSans-69" x="519.818359"/>
      <use xlink:href="#DejaVuSans-76" x="547.601562"/>
      <use xlink:href="#DejaVuSans-65" x="606.78125"/>
      <use xlink:href="#DejaVuSans-20" x="668.304688"/>
      <use xlink:href="#DejaVuSans-52" x="700.091797"/>
      <use xlink:href="#DejaVuSans-61" x="767.324219"/>
      <use xlink:href="#DejaVuSans-74" x="828.603516"/>
      <use xlink:href="#DejaVuSans-65" x="867.8125"/>
     </g>
    </g>
   </g>
   <g id="matplotlib.axis_2">
    <g id="ytick_1">
     <g id="line2d_7">
      <path d="M 47.016875 526.097812 
L 551.526875 526.097812 
" clip-path="url(#pa07e20740a)" style="fill: none; stroke: #cccccc; stroke-width: 0.8; stroke-linecap: round"/>
     </g>
     <g id="text_8">
      <!-- 0.0 -->
      <g style="fill: #262626" transform="translate(22.81375 529.897031) scale(0.1 -0.1)">
       <use xlink:href="#DejaVuSans-30"/>
       <use xlink:href="#DejaVuSans-2e" x="63.623047"/>
       <use xlink:href="#DejaVuSans-30" x="95.410156"/>
      </g>
     </g>
    </g>
    <g id="ytick_2">
     <g id="line2d_8">
      <path d="M 47.016875 430.429241 
L 551.526875 430.429241 
" clip-path="url(#pa07e20740a)" style="fill: none; stroke: #cccccc; stroke-width: 0.8; stroke-linecap: round"/>
     </g>
     <g id="text_9">
      <!-- 0.2 -->
      <g style="fill: #262626" transform="translate(22.81375 434.22846) scale(0.1 -0.1)">
       <use xlink:href="#DejaVuSans-30"/>
       <use xlink:href="#DejaVuSans-2e" x="63.623047"/>
       <use xlink:href="#DejaVuSans-32" x="95.410156"/>
      </g>
     </g>
    </g>
    <g id="ytick_3">
     <g id="line2d_9">
      <path d="M 47.016875 334.76067 
L 551.526875 334.76067 
" clip-path="url(#pa07e20740a)" style="fill: none; stroke: #cccccc; stroke-width: 0.8; stroke-linecap: round"/>
     </g>
     <g id="text_10">
      <!-- 0.4 -->
      <g style="fill: #262626" transform="translate(22.81375 338.559888) scale(0.1 -0.1)">
       <use xlink:href="#DejaVuSans-30"/>
       <use xlink:href="#DejaVuSans-2e" x="63.623047"/>
       <use xlink:href="#DejaVuSans-34" x="95.410156"/>
      </g>
     </g>
    </g>
    <g id="ytick_4">
     <g id="line2d_10">
      <path d="M 47.016875 239.092098 
L 551.526875 239.092098 
" clip-path="url(#pa07e20740a)" style="fill: none; stroke: #cccccc; stroke-width: 0.8; stroke-linecap: round"/>
     </g>
     <g id="text_11">
      <!-- 0.6 -->
      <g style="fill: #262626" transform="translate(22.81375 242.891317) scale(0.1 -0.1)">
       <use xlink:href="#DejaVuSans-30"/>
       <use xlink:href="#DejaVuSans-2e" x="63.623047"/>
       <use xlink:href="#DejaVuSans-36" x="95.410156"/>
      </g>
     </g>
    </g>
    <g id="ytick_5">
     <g id="line2d_11">
      <path d="M 47.016875 143.423527 
L 551.526875 143.423527 
" clip-path="url(#pa07e20740a)" style="fill: none; stroke: #cccccc; stroke-width: 0.8; stroke-linecap: round"/>
     </g>
     <g id="text_12">
      <!-- 0.8 -->
      <g style="fill: #262626" transform="translate(22.81375 147.222746) scale(0.1 -0.1)">
       <use xlink:href="#DejaVuSans-30"/>
       <use xlink:href="#DejaVuSans-2e" x="63.623047"/>
       <use xlink:href="#DejaVuSans-38" x="95.410156"/>
      </g>
     </g>
    </g>
    <g id="ytick_6">
     <g id="line2d_12">
      <path d="M 47.016875 47.754955 
L 551.526875 47.754955 
" clip-path="url(#pa07e20740a)" style="fill: none; stroke: #cccccc; stroke-width: 0.8; stroke-linecap: round"/>
     </g>
     <g id="text_13">
      <!-- 1.0 -->
      <g style="fill: #262626" transform="translate(22.81375 51.554174) scale(0.1 -0.1)">
       <use xlink:href="#DejaVuSans-31"/>
       <use xlink:href="#DejaVuSans-2e" x="63.623047"/>
       <use xlink:href="#DejaVuSans-30" x="95.410156"/>
      </g>
     </g>
    </g>
    <g id="text_14">
     <!-- True Positive Rate -->
     <g style="fill: #262626" transform="translate(16.318125 328.403437) rotate(-90) scale(0.12 -0.12)">
      <defs>
       <path id="DejaVuSans-54" d="M -19 4666 
L 3928 4666 
L 3928 4134 
L 2272 4134 
L 2272 0 
L 1638 0 
L 1638 4134 
L -19 4134 
L -19 4666 
z
" transform="scale(0.015625)"/>
       <path id="DejaVuSans-72" d="M 2631 2963 
Q 2534 3019 2420 3045 
Q 2306 3072 2169 3072 
Q 1681 3072 1420 2755 
Q 1159 2438 1159 1844 
L 1159 0 
L 581 0 
L 581 3500 
L 1159 3500 
L 1159 2956 
Q 1341 3275 1631 3429 
Q 1922 3584 2338 3584 
Q 2397 3584 2469 3576 
Q 2541 3569 2628 3553 
L 2631 2963 
z
" transform="scale(0.015625)"/>
       <path id="DejaVuSans-75" d="M 544 1381 
L 544 3500 
L 1119 3500 
L 1119 1403 
Q 1119 906 1312 657 
Q 1506 409 1894 409 
Q 2359 409 2629 706 
Q 2900 1003 2900 1516 
L 2900 3500 
L 3475 3500 
L 3475 0 
L 2900 0 
L 2900 538 
Q 2691 219 2414 64 
Q 2138 -91 1772 -91 
Q 1169 -91 856 284 
Q 544 659 544 1381 
z
M 1991 3584 
L 1991 3584 
z
" transform="scale(0.015625)"/>
      </defs>
      <use xlink:href="#DejaVuSans-54"/>
      <use xlink:href="#DejaVuSans-72" x="46.333984"/>
      <use xlink:href="#DejaVuSans-75" x="87.447266"/>
      <use xlink:href="#DejaVuSans-65" x="150.826172"/>
      <use xlink:href="#DejaVuSans-20" x="212.349609"/>
      <use xlink:href="#DejaVuSans-50" x="244.136719"/>
      <use xlink:href="#DejaVuSans-6f" x="300.814453"/>
      <use xlink:href="#DejaVuSans-73" x="361.996094"/>
      <use xlink:href="#DejaVuSans-69" x="414.095703"/>
      <use xlink:href="#DejaVuSans-74" x="441.878906"/>
      <use xlink:href="#DejaVuSans-69" x="481.087891"/>
      <use xlink:href="#DejaVuSans-76" x="508.871094"/>
      <use xlink:href="#DejaVuSans-65" x="568.050781"/>
      <use xlink:href="#DejaVuSans-20" x="629.574219"/>
      <use xlink:href="#DejaVuSans-52" x="661.361328"/>
      <use xlink:href="#DejaVuSans-61" x="728.59375"/>
      <use xlink:href="#DejaVuSans-74" x="789.873047"/>
      <use xlink:href="#DejaVuSans-65" x="829.082031"/>
     </g>
    </g>
   </g>
   <g id="line2d_13">
    <path d="M 47.016875 526.097812 
L 47.028492 526.097812 
L 47.133044 523.021653 
L 47.179511 523.021653 
L 47.272447 520.458186 
L 47.365382 520.458186 
L 47.469934 512.255093 
L 47.504784 512.255093 
L 47.609336 507.12816 
L 47.620953 507.12816 
L 47.713889 504.564694 
L 47.737122 504.564694 
L 47.841674 497.386987 
L 47.911376 497.386987 
L 47.957843 494.310827 
L 48.050778 494.310827 
L 48.143714 491.234667 
L 48.178564 491.234667 
L 48.283116 487.133121 
L 48.364434 487.133121 
L 48.468986 484.056961 
L 48.515454 484.056961 
L 48.620006 480.468108 
L 48.631623 480.468108 
L 48.701324 476.366562 
L 48.759409 476.366562 
L 48.852344 473.290402 
L 48.887195 473.290402 
L 48.991747 468.163469 
L 49.01498 468.163469 
L 49.084682 466.112695 
L 49.177617 466.112695 
L 49.247318 462.523842 
L 49.35187 462.523842 
L 49.456422 457.396909 
L 49.50289 457.396909 
L 49.526124 456.371522 
L 49.584208 456.371522 
L 49.746845 456.371522 
L 49.83978 454.320749 
L 49.87463 454.320749 
L 49.967566 446.117656 
L 50.002416 446.117656 
L 50.106968 440.47803 
L 50.130202 440.47803 
L 50.199903 438.427257 
L 50.246371 438.427257 
L 50.350923 435.351097 
L 50.36254 435.351097 
L 50.455475 431.24955 
L 50.490326 431.24955 
L 50.594878 425.609924 
L 50.606495 425.609924 
L 50.687813 423.046457 
L 50.73428 423.046457 
L 50.769131 422.021071 
L 50.850449 422.021071 
L 50.862066 420.995684 
L 50.966618 420.995684 
L 51.07117 417.919524 
L 51.082787 417.919524 
L 51.164105 410.741818 
L 51.22219 410.741818 
L 51.326742 405.614885 
L 51.349976 405.614885 
L 51.431294 404.076805 
L 51.512612 404.076805 
L 51.605547 403.051418 
L 51.628781 403.051418 
L 51.733333 401.000645 
L 51.768184 401.000645 
L 51.872736 397.924485 
L 51.884353 397.924485 
L 51.988905 391.772166 
L 52.023755 391.772166 
L 52.116691 388.696006 
L 52.163158 388.696006 
L 52.26771 385.107153 
L 52.279327 385.107153 
L 52.360645 382.030993 
L 52.430347 382.030993 
L 52.476814 381.005606 
L 52.546516 381.005606 
L 52.651068 377.416753 
L 52.674301 377.416753 
L 52.778853 373.315206 
L 52.79047 373.315206 
L 52.895022 369.21366 
L 52.953107 369.21366 
L 52.953107 368.700967 
L 53.080893 368.700967 
L 53.185445 366.650193 
L 53.197062 366.650193 
L 53.27838 364.59942 
L 53.324847 364.59942 
L 53.394549 363.06134 
L 53.499101 363.06134 
L 53.580419 360.497874 
L 53.626887 360.497874 
L 53.708205 357.421714 
L 53.824374 357.421714 
L 53.882458 355.370941 
L 53.98701 355.370941 
L 54.091562 350.244008 
L 54.126413 350.244008 
L 54.126413 349.731314 
L 54.242582 349.731314 
L 54.254199 348.705928 
L 54.428452 348.705928 
L 54.533004 345.117074 
L 54.567855 345.117074 
L 54.625939 342.553608 
L 54.718874 342.553608 
L 54.823426 338.452061 
L 54.84666 338.452061 
L 54.939595 334.350515 
L 54.962829 334.350515 
L 55.067381 332.299742 
L 55.090615 332.299742 
L 55.18355 330.248969 
L 55.264868 330.248969 
L 55.346187 328.710889 
L 55.415888 328.710889 
L 55.508823 325.122035 
L 55.578524 325.122035 
L 55.683076 321.533182 
L 55.70631 321.533182 
L 55.764395 319.482409 
L 55.880564 319.482409 
L 55.973499 315.893556 
L 55.996732 315.893556 
L 56.078051 313.842783 
L 56.112901 313.842783 
L 56.19422 311.279316 
L 56.252304 311.279316 
L 56.333622 308.71585 
L 56.426557 308.71585 
L 56.531109 306.152383 
L 56.554343 306.152383 
L 56.577577 304.614303 
L 56.670512 304.614303 
L 56.682129 303.588916 
L 56.995785 303.588916 
L 57.05387 302.050837 
L 57.321058 302.050837 
L 57.402376 300.512757 
L 57.437227 300.512757 
L 57.530162 298.461983 
L 57.623097 298.461983 
L 57.692799 296.923903 
L 57.774117 296.923903 
L 57.774117 295.898517 
L 57.91352 295.898517 
L 58.018072 294.360437 
L 58.029689 294.360437 
L 58.134241 292.309664 
L 58.157474 292.309664 
L 58.227176 291.284277 
L 58.296877 291.284277 
L 58.296877 289.746197 
L 58.413046 289.746197 
L 58.505981 287.182731 
L 58.529215 287.182731 
L 58.598916 283.593877 
L 58.668618 283.593877 
L 58.680235 282.568491 
L 58.854488 282.568491 
L 58.912572 281.543104 
L 59.017124 281.543104 
L 59.11006 278.979638 
L 59.202995 278.979638 
L 59.202995 278.466944 
L 59.354014 278.466944 
L 59.423716 276.416171 
L 59.563118 276.416171 
L 59.621203 274.365398 
L 59.714138 274.365398 
L 59.772222 272.827318 
L 59.795456 272.827318 
L 59.876774 272.827318 
L 59.876774 272.314625 
L 60.016177 272.314625 
L 60.120729 270.776545 
L 60.167197 270.776545 
L 60.202047 269.751158 
L 60.283366 269.751158 
L 60.376301 267.700385 
L 60.411151 267.700385 
L 60.515703 265.649612 
L 60.550554 265.649612 
L 60.597022 263.598838 
L 60.713191 263.598838 
L 60.806126 261.035372 
L 60.945528 261.035372 
L 61.01523 260.009985 
L 61.119782 260.009985 
L 61.2011 258.471905 
L 61.270801 258.471905 
L 61.363737 255.908439 
L 61.398587 255.908439 
L 61.491522 254.370359 
L 61.53799 254.370359 
L 61.619308 253.344972 
L 61.944581 253.344972 
L 61.991049 252.319586 
L 62.072367 252.319586 
L 62.072367 251.806892 
L 62.362789 251.806892 
L 62.432491 250.268812 
L 62.513809 250.268812 
L 62.513809 249.756119 
L 62.850699 249.756119 
L 62.897166 248.730732 
L 62.978485 248.730732 
L 62.978485 248.218039 
L 63.10627 248.218039 
L 63.175972 246.679959 
L 63.234056 246.679959 
L 63.338608 245.141879 
L 63.350225 245.141879 
L 63.454777 244.116493 
L 63.570946 244.116493 
L 63.605797 242.065719 
L 63.687115 242.065719 
L 63.791667 241.040333 
L 63.803284 241.040333 
L 63.849751 239.502253 
L 63.942687 239.502253 
L 63.942687 238.98956 
L 64.30281 238.98956 
L 64.360895 236.938786 
L 64.477064 236.938786 
L 64.535148 235.9134 
L 64.593233 235.9134 
L 64.616466 234.888013 
L 64.79072 234.888013 
L 64.872038 233.862626 
L 64.97659 233.862626 
L 65.011441 232.83724 
L 65.139226 232.83724 
L 65.232162 231.811853 
L 65.267012 231.811853 
L 65.278629 230.786467 
L 65.429649 230.786467 
L 65.510967 228.223 
L 65.65037 228.223 
L 65.743305 226.68492 
L 65.801389 226.68492 
L 65.801389 226.172227 
L 65.917558 226.172227 
L 65.917558 225.14684 
L 66.056961 225.14684 
L 66.126662 223.096067 
L 66.196364 223.096067 
L 66.196364 222.583374 
L 66.300916 222.583374 
L 66.312533 222.583374 
L 66.405468 220.5326 
L 66.463552 220.5326 
L 66.463552 220.019907 
L 66.591338 220.019907 
L 66.591338 219.507214 
L 66.730741 219.507214 
L 66.730741 218.994521 
L 66.904994 218.994521 
L 66.904994 218.481827 
L 67.044397 218.481827 
L 67.148949 216.943747 
L 67.230267 216.943747 
L 67.230267 216.431054 
L 67.346436 216.431054 
L 67.346436 215.918361 
L 67.520689 215.918361 
L 67.520689 215.405667 
L 68.554593 215.405667 
L 68.635911 214.380281 
L 68.693995 214.380281 
L 68.798547 213.354894 
L 68.821781 213.354894 
L 68.903099 211.816814 
L 68.93795 211.816814 
L 68.996035 209.766041 
L 69.205139 209.766041 
L 69.205139 209.253348 
L 69.379392 209.253348 
L 69.483944 208.227961 
L 69.495561 208.227961 
L 69.507178 206.689881 
L 69.925386 206.689881 
L 69.925386 206.177188 
L 70.041555 206.177188 
L 70.088022 205.151801 
L 70.204191 205.151801 
L 70.204191 204.639108 
L 70.448146 204.639108 
L 70.50623 203.613721 
L 70.645633 203.613721 
L 70.645633 203.101028 
L 71.307796 203.101028 
L 71.307796 202.588335 
L 71.540134 202.588335 
L 71.540134 202.075641 
L 71.656303 202.075641 
L 71.656303 201.562948 
L 71.772472 201.562948 
L 71.772472 201.050255 
L 72.00481 201.050255 
L 72.00481 200.537561 
L 72.318466 200.537561 
L 72.318466 200.024868 
L 72.457868 200.024868 
L 72.52757 198.999481 
L 72.666972 198.999481 
L 72.748291 197.461402 
L 73.085181 197.461402 
L 73.108414 196.436015 
L 73.352369 196.436015 
L 73.352369 195.923322 
L 73.515006 195.923322 
L 73.515006 195.410628 
L 73.654408 195.410628 
L 73.654408 194.897935 
L 73.979681 194.897935 
L 73.979681 194.385242 
L 74.24687 194.385242 
L 74.304954 193.359855 
L 74.374656 193.359855 
L 74.374656 192.847162 
L 74.61861 192.847162 
L 74.699928 191.821775 
L 75.176221 191.821775 
L 75.176221 191.309082 
L 75.396942 191.309082 
L 75.44341 190.283695 
L 75.524728 190.283695 
L 75.559578 188.745615 
L 75.722215 188.745615 
L 75.733832 187.720229 
L 76.093956 187.720229 
L 76.15204 186.182149 
L 76.244975 186.182149 
L 76.314676 185.156762 
L 76.558631 185.156762 
L 76.651566 184.131376 
L 76.779352 184.131376 
L 76.802586 183.105989 
L 77.104625 183.105989 
L 77.104625 182.593296 
L 77.278878 182.593296 
L 77.278878 182.080602 
L 77.813256 182.080602 
L 77.813256 181.567909 
L 77.929424 181.567909 
L 78.033976 180.542522 
L 78.219847 180.542522 
L 78.219847 180.029829 
L 78.452185 180.029829 
L 78.452185 179.517136 
L 78.847159 179.517136 
L 78.870393 178.491749 
L 78.986562 178.491749 
L 79.079497 176.953669 
L 79.311835 176.953669 
L 79.335068 175.928283 
L 80.090166 175.928283 
L 80.171485 174.902896 
L 80.229569 174.902896 
L 80.229569 174.390203 
L 80.496758 174.390203 
L 80.496758 173.877509 
L 80.682628 173.877509 
L 80.682628 173.364816 
L 80.810414 173.364816 
L 80.810414 172.852123 
L 81.007901 172.852123 
L 81.042751 170.801349 
L 81.867551 170.801349 
L 81.890785 169.775963 
L 81.995337 169.775963 
L 81.995337 169.26327 
L 82.216058 169.26327 
L 82.216058 168.750576 
L 82.564564 168.750576 
L 82.564564 167.72519 
L 82.901454 167.72519 
L 82.982772 165.674416 
L 83.133792 165.674416 
L 83.133792 165.161723 
L 83.575234 165.161723 
L 83.575234 164.64903 
L 84.063143 164.64903 
L 84.063143 164.136336 
L 84.678839 164.136336 
L 84.678839 163.623643 
L 84.89956 163.623643 
L 84.89956 163.11095 
L 85.050579 163.11095 
L 85.108664 161.57287 
L 85.410703 161.57287 
L 85.410703 161.060177 
L 86.31682 161.060177 
L 86.31682 160.547483 
L 86.781496 160.547483 
L 86.781496 160.03479 
L 86.955749 160.03479 
L 86.955749 159.522097 
L 87.362341 159.522097 
L 87.362341 159.009403 
L 87.583062 159.009403 
L 87.583062 158.49671 
L 87.827016 158.49671 
L 87.873484 157.471323 
L 88.477562 157.471323 
L 88.477562 156.95863 
L 88.7099 156.95863 
L 88.756368 155.933244 
L 89.139725 155.933244 
L 89.19781 154.907857 
L 90.115544 154.907857 
L 90.115544 154.395164 
L 90.371116 154.395164 
L 90.371116 153.88247 
L 90.522135 153.88247 
L 90.522135 153.369777 
L 91.28885 153.369777 
L 91.28885 152.857084 
L 92.752579 152.857084 
L 92.752579 152.34439 
L 92.857131 152.34439 
L 93.391508 152.34439 
L 93.391508 151.831697 
L 93.542527 151.831697 
L 93.542527 151.319004 
L 93.705164 151.319004 
L 93.798099 150.293617 
L 93.856183 150.293617 
L 93.856183 149.780924 
L 94.01882 149.780924 
L 94.01882 149.268231 
L 94.855236 149.268231 
L 94.87847 148.242844 
L 96.586153 148.242844 
L 96.586153 147.730151 
L 96.830108 147.730151 
L 96.841725 146.704764 
L 97.004361 146.704764 
L 97.004361 146.192071 
L 97.318017 146.192071 
L 97.318017 145.679377 
L 97.515504 145.679377 
L 97.515504 145.166684 
L 98.305453 145.166684 
L 98.305453 144.653991 
L 98.746895 144.653991 
L 98.816596 143.628604 
L 99.676246 143.628604 
L 99.676246 143.115911 
L 100.199006 143.115911 
L 100.280325 142.090524 
L 101.94154 142.090524 
L 101.94154 141.577831 
L 102.417833 141.577831 
L 102.417833 141.065138 
L 103.196164 141.065138 
L 103.196164 140.552444 
L 105.461458 140.552444 
L 105.461458 140.039751 
L 105.763498 140.039751 
L 105.763498 139.527058 
L 106.402427 139.527058 
L 106.506979 138.501671 
L 108.377298 138.501671 
L 108.377298 137.988978 
L 109.67839 137.988978 
L 109.67839 137.476284 
L 110.317319 137.476284 
L 110.317319 136.963591 
L 110.642592 136.963591 
L 110.642592 136.450898 
L 111.072417 136.450898 
L 111.072417 135.938204 
L 112.245723 135.938204 
L 112.245723 135.425511 
L 113.221542 135.425511 
L 113.221542 134.912818 
L 114.116043 134.912818 
L 114.185744 133.887431 
L 114.673654 133.887431 
L 114.673654 133.374738 
L 114.789823 133.374738 
L 114.789823 132.862045 
L 114.952459 132.862045 
L 114.952459 132.349351 
L 115.742408 132.349351 
L 115.742408 131.836658 
L 116.857629 131.836658 
L 116.857629 131.323965 
L 117.031883 131.323965 
L 117.031883 130.811271 
L 117.299071 130.811271 
L 117.310688 129.785885 
L 117.705662 129.785885 
L 117.705662 129.273191 
L 117.821831 129.273191 
L 117.821831 128.760498 
L 118.402676 128.760498 
L 118.414293 127.735112 
L 119.006754 127.735112 
L 119.006754 127.222418 
L 119.529514 127.222418 
L 119.529514 126.709725 
L 119.680534 126.709725 
L 119.680534 126.197032 
L 119.982573 126.197032 
L 119.982573 125.684338 
L 121.922594 125.684338 
L 121.922594 125.171645 
L 122.329185 125.171645 
L 122.329185 124.658952 
L 122.561523 124.658952 
L 122.654458 123.633565 
L 123.037816 123.633565 
L 123.037816 123.120872 
L 123.188835 123.120872 
L 123.188835 122.608178 
L 125.279876 122.608178 
L 125.279876 122.095485 
L 126.290546 122.095485 
L 126.290546 121.582792 
L 126.615819 121.582792 
L 126.615819 121.070099 
L 126.859773 121.070099 
L 126.859773 120.557405 
L 127.045644 120.557405 
L 127.045644 119.532019 
L 129.357405 119.532019 
L 129.357405 119.019325 
L 130.902452 119.019325 
L 130.914069 117.993939 
L 131.204491 117.993939 
L 131.204491 117.481245 
L 132.006056 117.481245 
L 132.006056 116.968552 
L 132.912174 116.968552 
L 132.993492 115.943165 
L 133.272298 115.943165 
L 133.272298 115.430472 
L 133.574337 115.430472 
L 133.574337 114.917779 
L 134.724409 114.917779 
L 134.724409 114.405086 
L 135.537592 114.405086 
L 135.537592 113.892392 
L 136.013884 113.892392 
L 136.013884 113.379699 
L 136.188138 113.379699 
L 136.188138 112.867006 
L 138.685769 112.867006 
L 138.685769 112.354312 
L 138.929724 112.354312 
L 138.929724 111.841619 
L 139.568653 111.841619 
L 139.568653 111.328926 
L 139.870692 111.328926 
L 139.870692 110.816232 
L 140.044946 110.816232 
L 140.079796 109.790846 
L 140.486388 109.790846 
L 140.486388 109.278152 
L 140.637407 109.278152 
L 140.637407 108.765459 
L 140.834894 108.765459 
L 140.834894 108.252766 
L 140.869745 108.252766 
L 140.974297 108.252766 
L 140.997531 107.227379 
L 141.694544 107.227379 
L 141.694544 106.714686 
L 142.728448 106.714686 
L 142.728448 106.201993 
L 143.146656 106.201993 
L 143.146656 105.689299 
L 145.795307 105.689299 
L 145.795307 105.176606 
L 147.967666 105.176606 
L 147.967666 104.663913 
L 148.281322 104.663913 
L 148.281322 104.151219 
L 148.536894 104.151219 
L 148.536894 103.638526 
L 149.884453 103.638526 
L 149.884453 103.125833 
L 151.452734 103.125833 
L 151.452734 102.613139 
L 152.428552 102.613139 
L 152.428552 102.100446 
L 156.296977 102.100446 
L 156.296977 101.587753 
L 158.562271 101.587753 
L 158.562271 101.075059 
L 159.480006 101.075059 
L 159.584558 100.049673 
L 159.596175 100.049673 
L 159.596175 99.53698 
L 160.409357 99.53698 
L 160.409357 99.024286 
L 160.595227 99.024286 
L 160.595227 98.511593 
L 163.813107 98.511593 
L 163.813107 97.9989 
L 165.323303 97.9989 
L 165.323303 97.486206 
L 167.844168 97.486206 
L 167.844168 96.973513 
L 168.483097 96.973513 
L 168.483097 96.46082 
L 169.168494 96.46082 
L 169.168494 95.948126 
L 170.457969 95.948126 
L 170.457969 95.435433 
L 171.062047 95.435433 
L 171.062047 94.92274 
L 172.119184 94.92274 
L 172.119184 94.410046 
L 172.665178 94.410046 
L 172.665178 93.897353 
L 174.698134 93.897353 
L 174.698134 93.38466 
L 174.872388 93.38466 
L 174.872388 92.871967 
L 175.139576 92.871967 
L 175.139576 92.359273 
L 175.662336 92.359273 
L 175.662336 91.84658 
L 177.300318 91.84658 
L 177.300318 91.333887 
L 178.090267 91.333887 
L 178.090267 90.821193 
L 180.192924 90.821193 
L 180.192924 90.3085 
L 181.563717 90.3085 
L 181.563717 89.795807 
L 183.155232 89.795807 
L 183.155232 89.283113 
L 183.410803 89.283113 
L 183.410803 88.77042 
L 184.305304 88.77042 
L 184.305304 88.257727 
L 184.979084 88.257727 
L 184.979084 87.745033 
L 187.19791 87.745033 
L 187.19791 87.23234 
L 187.72067 87.23234 
L 187.72067 86.719647 
L 189.637457 86.719647 
L 189.637457 86.206954 
L 190.148601 86.206954 
L 190.148601 85.69426 
L 190.241536 85.69426 
L 190.775913 85.69426 
L 190.775913 85.181567 
L 192.193174 85.181567 
L 192.193174 84.668874 
L 194.121578 84.668874 
L 194.121578 84.15618 
L 194.470084 84.15618 
L 194.470084 83.643487 
L 196.816697 83.643487 
L 196.816697 83.130794 
L 199.94164 83.130794 
L 199.94164 82.6181 
L 200.754823 82.6181 
L 200.754823 82.105407 
L 201.765493 82.105407 
L 201.765493 81.592714 
L 201.96298 81.592714 
L 201.96298 81.08002 
L 202.172084 81.08002 
L 202.172084 80.567327 
L 203.124669 80.567327 
L 203.124669 80.054634 
L 205.73847 80.054634 
L 205.831405 79.029247 
L 205.92434 79.029247 
L 205.92434 78.516554 
L 207.109263 78.516554 
L 207.109263 78.003861 
L 208.398738 78.003861 
L 208.398738 77.491167 
L 212.673754 77.491167 
L 212.673754 76.978474 
L 215.310789 76.978474 
L 215.310789 76.465781 
L 215.612828 76.465781 
L 215.612828 75.953087 
L 217.355361 75.953087 
L 217.355361 75.440394 
L 219.109512 75.440394 
L 219.109512 74.927701 
L 226.695343 74.927701 
L 226.695343 74.415007 
L 230.70317 74.415007 
L 230.70317 73.902314 
L 231.260781 73.902314 
L 231.260781 73.389621 
L 237.847559 73.389621 
L 237.847559 72.876927 
L 242.680186 72.876927 
L 242.680186 72.364234 
L 244.782843 72.364234 
L 244.782843 71.851541 
L 250.10338 71.851541 
L 250.10338 71.338848 
L 253.263174 71.338848 
L 253.263174 70.826154 
L 253.54198 70.826154 
L 253.54198 70.313461 
L 255.400683 70.313461 
L 255.400683 69.800768 
L 256.771476 69.800768 
L 256.771476 69.288074 
L 257.921548 69.288074 
L 257.921548 68.775381 
L 258.490776 68.775381 
L 258.490776 68.262688 
L 259.733783 68.262688 
L 259.733783 67.749994 
L 265.879119 67.749994 
L 265.879119 67.237301 
L 267.912075 67.237301 
L 267.912075 66.724608 
L 270.258687 66.724608 
L 270.258687 66.211914 
L 271.710799 66.211914 
L 271.768883 65.186528 
L 274.893827 65.186528 
L 274.998379 64.161141 
L 277.379842 64.161141 
L 277.379842 63.648448 
L 277.7632 63.648448 
L 277.7632 63.135755 
L 284.582315 63.135755 
L 284.582315 62.623061 
L 299.579723 62.623061 
L 299.579723 62.110368 
L 304.958344 62.110368 
L 304.958344 61.597675 
L 306.445306 61.597675 
L 306.445306 61.084981 
L 312.451239 61.084981 
L 312.451239 60.572288 
L 317.876327 60.572288 
L 317.876327 60.059595 
L 321.245226 60.059595 
L 321.245226 59.546901 
L 326.751633 59.546901 
L 326.751633 59.034208 
L 334.953159 59.034208 
L 334.953159 58.521515 
L 336.25425 58.521515 
L 336.25425 58.008822 
L 338.542778 58.008822 
L 338.542778 57.496128 
L 348.022162 57.496128 
L 348.022162 56.983435 
L 358.500599 56.983435 
L 358.500599 56.470742 
L 363.100888 56.470742 
L 363.100888 55.958048 
L 372.557038 55.958048 
L 372.557038 55.445355 
L 372.591888 55.445355 
L 373.927831 55.445355 
L 373.927831 54.932662 
L 381.339408 54.932662 
L 381.339408 54.419968 
L 392.921449 54.419968 
L 392.921449 53.907275 
L 405.955602 53.907275 
L 405.955602 53.394582 
L 419.675151 53.394582 
L 419.675151 52.881888 
L 420.918159 52.881888 
L 420.918159 52.369195 
L 427.946379 52.369195 
L 427.946379 51.856502 
L 439.540037 51.856502 
L 439.540037 51.343809 
L 440.434537 51.343809 
L 440.434537 50.831115 
L 450.076558 50.831115 
L 450.076558 50.318422 
L 460.462059 50.318422 
L 460.462059 49.805729 
L 490.968017 49.805729 
L 490.968017 49.293035 
L 491.072569 49.293035 
L 502.375805 49.293035 
L 502.375805 48.780342 
L 512.041059 48.780342 
L 512.041059 48.267649 
L 536.517851 48.267649 
L 536.517851 47.754955 
L 551.526875 47.754955 
L 551.526875 47.754955 
" clip-path="url(#pa07e20740a)" style="fill: none; stroke: #e74c3c; stroke-width: 2; stroke-linecap: round"/>
   </g>
   <g id="line2d_14">
    <path d="M 47.016875 526.097812 
L 551.526875 47.754955 
" clip-path="url(#pa07e20740a)" style="fill: none; stroke-dasharray: 3.7,1.6; stroke-dashoffset: 0; stroke: #1a1a1a"/>
   </g>
   <g id="patch_3">
    <path d="M 47.016875 526.097812 
L 47.016875 23.837812 
" style="fill: none; stroke: #cccccc; stroke-linejoin: miter; stroke-linecap: square"/>
   </g>
   <g id="patch_4">
    <path d="M 551.526875 526.097812 
L 551.526875 23.837812 
" style="fill: none; stroke: #cccccc; stroke-linejoin: miter; stroke-linecap: square"/>
   </g>
   <g id="patch_5">
    <path d="M 47.016875 526.097812 
L 551.526875 526.097812 
" style="fill: none; stroke: #cccccc; stroke-linejoin: miter; stroke-linecap: square"/>
   </g>
   <g id="patch_6">
    <path d="M 47.016875 23.837812 
L 551.526875 23.837812 
" style="fill: none; stroke: #cccccc; stroke-linejoin: miter; stroke-linecap: square"/>
   </g>
   <g id="text_15">
    <!-- ROC Curve - Full Proteome -->
    <g style="fill: #262626" transform="translate(206.404844 17.837812) scale(0.14 -0.14)">
     <defs>
      <path id="DejaVuSans-4f" d="M 2522 4238 
Q 1834 4238 1429 3725 
Q 1025 3213 1025 2328 
Q 1025 1447 1429 934 
Q 1834 422 2522 422 
Q 3209 422 3611 934 
Q 4013 1447 4013 2328 
Q 4013 3213 3611 3725 
Q 3209 4238 2522 4238 
z
M 2522 4750 
Q 3503 4750 4090 4092 
Q 4678 3434 4678 2328 
Q 4678 1225 4090 567 
Q 3503 -91 2522 -91 
Q 1538 -91 948 565 
Q 359 1222 359 2328 
Q 359 3434 948 4092 
Q 1538 4750 2522 4750 
z
" transform="scale(0.015625)"/>
      <path id="DejaVuSans-43" d="M 4122 4306 
L 4122 3641 
Q 3803 3938 3442 4084 
Q 3081 4231 2675 4231 
Q 1875 4231 1450 3742 
Q 1025 3253 1025 2328 
Q 1025 1406 1450 917 
Q 1875 428 2675 428 
Q 3081 428 3442 575 
Q 3803 722 4122 1019 
L 4122 359 
Q 3791 134 3420 21 
Q 3050 -91 2638 -91 
Q 1578 -91 968 557 
Q 359 1206 359 2328 
Q 359 3453 968 4101 
Q 1578 4750 2638 4750 
Q 3056 4750 3426 4639 
Q 3797 4528 4122 4306 
z
" transform="scale(0.015625)"/>
      <path id="DejaVuSans-2d" d="M 313 2009 
L 1997 2009 
L 1997 1497 
L 313 1497 
L 313 2009 
z
" transform="scale(0.015625)"/>
      <path id="DejaVuSans-6d" d="M 3328 2828 
Q 3544 3216 3844 3400 
Q 4144 3584 4550 3584 
Q 5097 3584 5394 3201 
Q 5691 2819 5691 2113 
L 5691 0 
L 5113 0 
L 5113 2094 
Q 5113 2597 4934 2840 
Q 4756 3084 4391 3084 
Q 3944 3084 3684 2787 
Q 3425 2491 3425 1978 
L 3425 0 
L 2847 0 
L 2847 2094 
Q 2847 2600 2669 2842 
Q 2491 3084 2119 3084 
Q 1678 3084 1418 2786 
Q 1159 2488 1159 1978 
L 1159 0 
L 581 0 
L 581 3500 
L 1159 3500 
L 1159 2956 
Q 1356 3278 1631 3431 
Q 1906 3584 2284 3584 
Q 2666 3584 2933 3390 
Q 3200 3197 3328 2828 
z
" transform="scale(0.015625)"/>
     </defs>
     <use xlink:href="#DejaVuSans-52"/>
     <use xlink:href="#DejaVuSans-4f" x="69.482422"/>
     <use xlink:href="#DejaVuSans-43" x="148.193359"/>
     <use xlink:href="#DejaVuSans-20" x="218.017578"/>
     <use xlink:href="#DejaVuSans-43" x="249.804688"/>
     <use xlink:href="#DejaVuSans-75" x="319.628906"/>
     <use xlink:href="#DejaVuSans-72" x="383.007812"/>
     <use xlink:href="#DejaVuSans-76" x="424.121094"/>
     <use xlink:href="#DejaVuSans-65" x="483.300781"/>
     <use xlink:href="#DejaVuSans-20" x="544.824219"/>
     <use xlink:href="#DejaVuSans-2d" x="576.611328"/>
     <use xlink:href="#DejaVuSans-20" x="612.695312"/>
     <use xlink:href="#DejaVuSans-46" x="644.482422"/>
     <use xlink:href="#DejaVuSans-75" x="696.501953"/>
     <use xlink:href="#DejaVuSans-6c" x="759.880859"/>
     <use xlink:href="#DejaVuSans-6c" x="787.664062"/>
     <use xlink:href="#DejaVuSans-20" x="815.447266"/>
     <use xlink:href="#DejaVuSans-50" x="847.234375"/>
     <use xlink:href="#DejaVuSans-72" x="905.787109"/>
     <use xlink:href="#DejaVuSans-6f" x="944.650391"/>
     <use xlink:href="#DejaVuSans-74" x="1005.832031"/>
     <use xlink:href="#DejaVuSans-65" x="1045.041016"/>
     <use xlink:href="#DejaVuSans-6f" x="1106.564453"/>
     <use xlink:href="#DejaVuSans-6d" x="1167.746094"/>
     <use xlink:href="#DejaVuSans-65" x="1265.158203"/>
    </g>
   </g>
   <g id="legend_1">
    <g id="patch_7">
     <path d="M 402.005 521.097812 
L 544.526875 521.097812 
Q 546.526875 521.097812 546.526875 519.097812 
L 546.526875 490.741562 
Q 546.526875 488.741562 544.526875 488.741562 
L 402.005 488.741562 
Q 400.005 488.741562 400.005 490.741562 
L 400.005 519.097812 
Q 400.005 521.097812 402.005 521.097812 
z
" style="fill: #ffffff; opacity: 0.8; stroke: #cccccc; stroke-width: 0.8; stroke-linejoin: miter"/>
    </g>
    <g id="line2d_15">
     <path d="M 404.005 496.84 
L 414.005 496.84 
L 424.005 496.84 
" style="fill: none; stroke: #e74c3c; stroke-width: 2; stroke-linecap: round"/>
    </g>
    <g id="text_16">
     <!-- ROC (AUC = 0.920) -->
     <g style="fill: #262626" transform="translate(432.005 500.34) scale(0.1 -0.1)">
      <defs>
       <path id="DejaVuSans-28" d="M 1984 4856 
Q 1566 4138 1362 3434 
Q 1159 2731 1159 2009 
Q 1159 1288 1364 580 
Q 1569 -128 1984 -844 
L 1484 -844 
Q 1016 -109 783 600 
Q 550 1309 550 2009 
Q 550 2706 781 3412 
Q 1013 4119 1484 4856 
L 1984 4856 
z
" transform="scale(0.015625)"/>
       <path id="DejaVuSans-41" d="M 2188 4044 
L 1331 1722 
L 3047 1722 
L 2188 4044 
z
M 1831 4666 
L 2547 4666 
L 4325 0 
L 3669 0 
L 3244 1197 
L 1141 1197 
L 716 0 
L 50 0 
L 1831 4666 
z
" transform="scale(0.015625)"/>
       <path id="DejaVuSans-55" d="M 556 4666 
L 1191 4666 
L 1191 1831 
Q 1191 1081 1462 751 
Q 1734 422 2344 422 
Q 2950 422 3222 751 
Q 3494 1081 3494 1831 
L 3494 4666 
L 4128 4666 
L 4128 1753 
Q 4128 841 3676 375 
Q 3225 -91 2344 -91 
Q 1459 -91 1007 375 
Q 556 841 556 1753 
L 556 4666 
z
" transform="scale(0.015625)"/>
       <path id="DejaVuSans-3d" d="M 678 2906 
L 4684 2906 
L 4684 2381 
L 678 2381 
L 678 2906 
z
M 678 1631 
L 4684 1631 
L 4684 1100 
L 678 1100 
L 678 1631 
z
" transform="scale(0.015625)"/>
       <path id="DejaVuSans-39" d="M 703 97 
L 703 672 
Q 941 559 1184 500 
Q 1428 441 1663 441 
Q 2288 441 2617 861 
Q 2947 1281 2994 2138 
Q 2813 1869 2534 1725 
Q 2256 1581 1919 1581 
Q 1219 1581 811 2004 
Q 403 2428 403 3163 
Q 403 3881 828 4315 
Q 1253 4750 1959 4750 
Q 2769 4750 3195 4129 
Q 3622 3509 3622 2328 
Q 3622 1225 3098 567 
Q 2575 -91 1691 -91 
Q 1453 -91 1209 -44 
Q 966 3 703 97 
z
M 1959 2075 
Q 2384 2075 2632 2365 
Q 2881 2656 2881 3163 
Q 2881 3666 2632 3958 
Q 2384 4250 1959 4250 
Q 1534 4250 1286 3958 
Q 1038 3666 1038 3163 
Q 1038 2656 1286 2365 
Q 1534 2075 1959 2075 
z
" transform="scale(0.015625)"/>
       <path id="DejaVuSans-29" d="M 513 4856 
L 1013 4856 
Q 1481 4119 1714 3412 
Q 1947 2706 1947 2009 
Q 1947 1309 1714 600 
Q 1481 -109 1013 -844 
L 513 -844 
Q 928 -128 1133 580 
Q 1338 1288 1338 2009 
Q 1338 2731 1133 3434 
Q 928 4138 513 4856 
z
" transform="scale(0.015625)"/>
      </defs>
      <use xlink:href="#DejaVuSans-52"/>
      <use xlink:href="#DejaVuSans-4f" x="69.482422"/>
      <use xlink:href="#DejaVuSans-43" x="148.193359"/>
      <use xlink:href="#DejaVuSans-20" x="218.017578"/>
      <use xlink:href="#DejaVuSans-28" x="249.804688"/>
      <use xlink:href="#DejaVuSans-41" x="288.818359"/>
      <use xlink:href="#DejaVuSans-55" x="357.226562"/>
      <use xlink:href="#DejaVuSans-43" x="430.419922"/>
      <use xlink:href="#DejaVuSans-20" x="500.244141"/>
      <use xlink:href="#DejaVuSans-3d" x="532.03125"/>
      <use xlink:href="#DejaVuSans-20" x="615.820312"/>
      <use xlink:href="#DejaVuSans-30" x="647.607422"/>
      <use xlink:href="#DejaVuSans-2e" x="711.230469"/>
      <use xlink:href="#DejaVuSans-39" x="743.017578"/>
      <use xlink:href="#DejaVuSans-32" x="806.640625"/>
      <use xlink:href="#DejaVuSans-30" x="870.263672"/>
      <use xlink:href="#DejaVuSans-29" x="933.886719"/>
     </g>
    </g>
    <g id="line2d_16">
     <path d="M 404.005 511.518125 
L 414.005 511.518125 
L 424.005 511.518125 
" style="fill: none; stroke-dasharray: 3.7,1.6; stroke-dashoffset: 0; stroke: #1a1a1a"/>
    </g>
    <g id="text_17">
     <!-- Random (AUC = 0.50) -->
     <g style="fill: #262626" transform="translate(432.005 515.018125) scale(0.1 -0.1)">
      <defs>
       <path id="DejaVuSans-6e" d="M 3513 2113 
L 3513 0 
L 2938 0 
L 2938 2094 
Q 2938 2591 2744 2837 
Q 2550 3084 2163 3084 
Q 1697 3084 1428 2787 
Q 1159 2491 1159 1978 
L 1159 0 
L 581 0 
L 581 3500 
L 1159 3500 
L 1159 2956 
Q 1366 3272 1645 3428 
Q 1925 3584 2291 3584 
Q 2894 3584 3203 3211 
Q 3513 2838 3513 2113 
z
" transform="scale(0.015625)"/>
       <path id="DejaVuSans-64" d="M 2906 2969 
L 2906 4863 
L 3481 4863 
L 3481 0 
L 2906 0 
L 2906 525 
Q 2725 213 2448 61 
Q 2172 -91 1784 -91 
Q 1150 -91 751 415 
Q 353 922 353 1747 
Q 353 2572 751 3078 
Q 1150 3584 1784 3584 
Q 2172 3584 2448 3432 
Q 2725 3281 2906 2969 
z
M 947 1747 
Q 947 1113 1208 752 
Q 1469 391 1925 391 
Q 2381 391 2643 752 
Q 2906 1113 2906 1747 
Q 2906 2381 2643 2742 
Q 2381 3103 1925 3103 
Q 1469 3103 1208 2742 
Q 947 2381 947 1747 
z
" transform="scale(0.015625)"/>
       <path id="DejaVuSans-35" d="M 691 4666 
L 3169 4666 
L 3169 4134 
L 1269 4134 
L 1269 2991 
Q 1406 3038 1543 3061 
Q 1681 3084 1819 3084 
Q 2600 3084 3056 2656 
Q 3513 2228 3513 1497 
Q 3513 744 3044 326 
Q 2575 -91 1722 -91 
Q 1428 -91 1123 -41 
Q 819 9 494 109 
L 494 744 
Q 775 591 1075 516 
Q 1375 441 1709 441 
Q 2250 441 2565 725 
Q 2881 1009 2881 1497 
Q 2881 1984 2565 2268 
Q 2250 2553 1709 2553 
Q 1456 2553 1204 2497 
Q 953 2441 691 2322 
L 691 4666 
z
" transform="scale(0.015625)"/>
      </defs>
      <use xlink:href="#DejaVuSans-52"/>
      <use xlink:href="#DejaVuSans-61" x="67.232422"/>
      <use xlink:href="#DejaVuSans-6e" x="128.511719"/>
      <use xlink:href="#DejaVuSans-64" x="191.890625"/>
      <use xlink:href="#DejaVuSans-6f" x="255.367188"/>
      <use xlink:href="#DejaVuSans-6d" x="316.548828"/>
      <use xlink:href="#DejaVuSans-20" x="413.960938"/>
      <use xlink:href="#DejaVuSans-28" x="445.748047"/>
      <use xlink:href="#DejaVuSans-41" x="484.761719"/>
      <use xlink:href="#DejaVuSans-55" x="553.169922"/>
      <use xlink:href="#DejaVuSans-43" x="626.363281"/>
      <use xlink:href="#DejaVuSans-20" x="696.1875"/>
      <use xlink:href="#DejaVuSans-3d" x="727.974609"/>
      <use xlink:href="#DejaVuSans-20" x="811.763672"/>
      <use xlink:href="#DejaVuSans-30" x="843.550781"/>
      <use xlink:href="#DejaVuSans-2e" x="907.173828"/>
      <use xlink:href="#DejaVuSans-35" x="938.960938"/>
      <use xlink:href="#DejaVuSans-30" x="1002.583984"/>
      <use xlink:href="#DejaVuSans-29" x="1066.207031"/>
     </g>
    </g>
   </g>
  </g>
 </g>
 <defs>
  <clipPath id="pa07e20740a">
   <rect x="47.016875" y="23.837812" width="504.51" height="502.26"/>
  </clipPath>
 </defs>
</svg>
