<?xml version="1.0" encoding="utf-8" standalone="no"?>
<!DOCTYPE svg PUBLIC "-//W3C//DTD SVG 1.1//EN"
  "http://www.w3.org/Graphics/SVG/1.1/DTD/svg11.dtd">
<svg xmlns:xlink="http://www.w3.org/1999/xlink" width="1072.32625pt" height="352.199222pt" viewBox="0 0 1072.32625 352.199222" xmlns="http://www.w3.org/2000/svg" version="1.1">
 <metadata>
  <rdf:RDF xmlns:dc="http://purl.org/dc/elements/1.1/" xmlns:cc="http://creativecommons.org/ns#" xmlns:rdf="http://www.w3.org/1999/02/22-rdf-syntax-ns#">
   <cc:Work>
    <dc:type rdf:resource="http://purl.org/dc/dcmitype/StillImage"/>
    <dc:date>2026-01-12T14:30:29.667329</dc:date>
    <dc:format>image/svg+xml</dc:format>
    <dc:creator>
     <cc:Agent>
      <dc:title>Matplotlib v3.9.2, https://matplotlib.org/</dc:title>
     </cc:Agent>
    </dc:creator>
   </cc:Work>
  </rdf:RDF>
 </metadata>
 <defs>
  <style type="text/css">*{stroke-linejoin: round; stroke-linecap: butt}</style>
 </defs>
 <g id="figure_1">
  <g id="patch_1">
   <path d="M 0 352.199222 
L 1072.32625 352.199222 
L 1072.32625 0 
L 0 0 
z
" style="fill: #ffffff"/>
  </g>
  <g id="axes_1">
   <g id="patch_2">
    <path d="M 43.78125 300.529374 
L 352.32625 300.529374 
L 352.32625 22.318125 
L 43.78125 22.318125 
z
" style="fill: #ffffff"/>
   </g>
   <g id="patch_3">
    <path d="M 57.806023 300.529374 
L 137.947581 300.529374 
L 137.947581 64.488404 
L 57.806023 64.488404 
z
" clip-path="url(#p86299fb588)" style="fill: #2ecc71"/>
   </g>
   <g id="patch_4">
    <path d="M 157.982971 300.529374 
L 238.124529 300.529374 
L 238.124529 56.703745 
L 157.982971 56.703745 
z
" clip-path="url(#p86299fb588)" style="fill: #3498db"/>
   </g>
   <g id="patch_5">
    <path d="M 258.159919 300.529374 
L 338.301477 300.529374 
L 338.301477 129.210272 
L 258.159919 129.210272 
z
" clip-path="url(#p86299fb588)" style="fill: #9b59b6"/>
   </g>
   <g id="matplotlib.axis_1">
    <g id="xtick_1">
     <g id="line2d_1">
      <defs>
       <path id="ma12c8d0779" d="M 0 0 
L 0 3.5 
" style="stroke: #000000; stroke-width: 0.8"/>
      </defs>
      <g>
       <use xlink:href="#ma12c8d0779" x="97.876802" y="300.529374" style="stroke: #000000; stroke-width: 0.8"/>
      </g>
     </g>
     <g id="text_1">
      <!-- Terminal Motif -->
      <g transform="translate(29.334343 333.09057) rotate(-15) scale(0.1 -0.1)">
       <defs>
        <path id="DejaVuSans-54" d="M -19 4666 
L 3928 4666 
L 3928 4134 
L 2272 4134 
L 2272 0 
L 1638 0 
L 1638 4134 
L -19 4134 
L -19 4666 
z
" transform="scale(0.015625)"/>
        <path id="DejaVuSans-65" d="M 3597 1894 
L 3597 1613 
L 953 1613 
Q 991 1019 1311 708 
Q 1631 397 2203 397 
Q 2534 397 2845 478 
Q 3156 559 3463 722 
L 3463 178 
Q 3153 47 2828 -22 
Q 2503 -91 2169 -91 
Q 1331 -91 842 396 
Q 353 884 353 1716 
Q 353 2575 817 3079 
Q 1281 3584 2069 3584 
Q 2775 3584 3186 3129 
Q 3597 2675 3597 1894 
z
M 3022 2063 
Q 3016 2534 2758 2815 
Q 2500 3097 2075 3097 
Q 1594 3097 1305 2825 
Q 1016 2553 972 2059 
L 3022 2063 
z
" transform="scale(0.015625)"/>
        <path id="DejaVuSans-72" d="M 2631 2963 
Q 2534 3019 2420 3045 
Q 2306 3072 2169 3072 
Q 1681 3072 1420 2755 
Q 1159 2438 1159 1844 
L 1159 0 
L 581 0 
L 581 3500 
L 1159 3500 
L 1159 2956 
Q 1341 3275 1631 3429 
Q 1922 3584 2338 3584 
Q 2397 3584 2469 3576 
Q 2541 3569 2628 3553 
L 2631 2963 
z
" transform="scale(0.015625)"/>
        <path id="DejaVuSans-6d" d="M 3328 2828 
Q 3544 3216 3844 3400 
Q 4144 3584 4550 3584 
Q 5097 3584 5394 3201 
Q 5691 2819 5691 2113 
L 5691 0 
L 5113 0 
L 5113 2094 
Q 5113 2597 4934 2840 
Q 4756 3084 4391 3084 
Q 3944 3084 3684 2787 
Q 3425 2491 3425 1978 
L 3425 0 
L 2847 0 
L 2847 2094 
Q 2847 2600 2669 2842 
Q 2491 3084 2119 3084 
Q 1678 3084 1418 2786 
Q 1159 2488 1159 1978 
L 1159 0 
L 581 0 
L 581 3500 
L 1159 3500 
L 1159 2956 
Q 1356 3278 1631 3431 
Q 1906 3584 2284 3584 
Q 2666 3584 2933 3390 
Q 3200 3197 3328 2828 
z
" transform="scale(0.015625)"/>
        <path id="DejaVuSans-69" d="M 603 3500 
L 1178 3500 
L 1178 0 
L 603 0 
L 603 3500 
z
M 603 4863 
L 1178 4863 
L 1178 4134 
L 603 4134 
L 603 4863 
z
" transform="scale(0.015625)"/>
        <path id="DejaVuSans-6e" d="M 3513 2113 
L 3513 0 
L 2938 0 
L 2938 2094 
Q 2938 2591 2744 2837 
Q 2550 3084 2163 3084 
Q 1697 3084 1428 2787 
Q 1159 2491 1159 1978 
L 1159 0 
L 581 0 
L 581 3500 
L 1159 3500 
L 1159 2956 
Q 1366 3272 1645 3428 
Q 1925 3584 2291 3584 
Q 2894 3584 3203 3211 
Q 3513 2838 3513 2113 
z
" transform="scale(0.015625)"/>
        <path id="DejaVuSans-61" d="M 2194 1759 
Q 1497 1759 1228 1600 
Q 959 1441 959 1056 
Q 959 750 1161 570 
Q 1363 391 1709 391 
Q 2188 391 2477 730 
Q 2766 1069 2766 1631 
L 2766 1759 
L 2194 1759 
z
M 3341 1997 
L 3341 0 
L 2766 0 
L 2766 531 
Q 2569 213 2275 61 
Q 1981 -91 1556 -91 
Q 1019 -91 701 211 
Q 384 513 384 1019 
Q 384 1609 779 1909 
Q 1175 2209 1959 2209 
L 2766 2209 
L 2766 2266 
Q 2766 2663 2505 2880 
Q 2244 3097 1772 3097 
Q 1472 3097 1187 3025 
Q 903 2953 641 2809 
L 641 3341 
Q 956 3463 1253 3523 
Q 1550 3584 1831 3584 
Q 2591 3584 2966 3190 
Q 3341 2797 3341 1997 
z
" transform="scale(0.015625)"/>
        <path id="DejaVuSans-6c" d="M 603 4863 
L 1178 4863 
L 1178 0 
L 603 0 
L 603 4863 
z
" transform="scale(0.015625)"/>
        <path id="DejaVuSans-20" transform="scale(0.015625)"/>
        <path id="DejaVuSans-4d" d="M 628 4666 
L 1569 4666 
L 2759 1491 
L 3956 4666 
L 4897 4666 
L 4897 0 
L 4281 0 
L 4281 4097 
L 3078 897 
L 2444 897 
L 1241 4097 
L 1241 0 
L 628 0 
L 628 4666 
z
" transform="scale(0.015625)"/>
        <path id="DejaVuSans-6f" d="M 1959 3097 
Q 1497 3097 1228 2736 
Q 959 2375 959 1747 
Q 959 1119 1226 758 
Q 1494 397 1959 397 
Q 2419 397 2687 759 
Q 2956 1122 2956 1747 
Q 2956 2369 2687 2733 
Q 2419 3097 1959 3097 
z
M 1959 3584 
Q 2709 3584 3137 3096 
Q 3566 2609 3566 1747 
Q 3566 888 3137 398 
Q 2709 -91 1959 -91 
Q 1206 -91 779 398 
Q 353 888 353 1747 
Q 353 2609 779 3096 
Q 1206 3584 1959 3584 
z
" transform="scale(0.015625)"/>
        <path id="DejaVuSans-74" d="M 1172 4494 
L 1172 3500 
L 2356 3500 
L 2356 3053 
L 1172 3053 
L 1172 1153 
Q 1172 725 1289 603 
Q 1406 481 1766 481 
L 2356 481 
L 2356 0 
L 1766 0 
Q 1100 0 847 248 
Q 594 497 594 1153 
L 594 3053 
L 172 3053 
L 172 3500 
L 594 3500 
L 594 4494 
L 1172 4494 
z
" transform="scale(0.015625)"/>
        <path id="DejaVuSans-66" d="M 2375 4863 
L 2375 4384 
L 1825 4384 
Q 1516 4384 1395 4259 
Q 1275 4134 1275 3809 
L 1275 3500 
L 2222 3500 
L 2222 3053 
L 1275 3053 
L 1275 0 
L 697 0 
L 697 3053 
L 147 3053 
L 147 3500 
L 697 3500 
L 697 3744 
Q 697 4328 969 4595 
Q 1241 4863 1831 4863 
L 2375 4863 
z
" transform="scale(0.015625)"/>
       </defs>
       <use xlink:href="#DejaVuSans-54"/>
       <use xlink:href="#DejaVuSans-65" x="44.083984"/>
       <use xlink:href="#DejaVuSans-72" x="105.607422"/>
       <use xlink:href="#DejaVuSans-6d" x="144.970703"/>
       <use xlink:href="#DejaVuSans-69" x="242.382812"/>
       <use xlink:href="#DejaVuSans-6e" x="270.166016"/>
       <use xlink:href="#DejaVuSans-61" x="333.544922"/>
       <use xlink:href="#DejaVuSans-6c" x="394.824219"/>
       <use xlink:href="#DejaVuSans-20" x="422.607422"/>
       <use xlink:href="#DejaVuSans-4d" x="454.394531"/>
       <use xlink:href="#DejaVuSans-6f" x="540.673828"/>
       <use xlink:href="#DejaVuSans-74" x="601.855469"/>
       <use xlink:href="#DejaVuSans-69" x="641.064453"/>
       <use xlink:href="#DejaVuSans-66" x="668.847656"/>
      </g>
     </g>
    </g>
    <g id="xtick_2">
     <g id="line2d_2">
      <g>
       <use xlink:href="#ma12c8d0779" x="198.05375" y="300.529374" style="stroke: #000000; stroke-width: 0.8"/>
      </g>
     </g>
     <g id="text_2">
      <!-- Fine-Grained (MIN≥5) -->
      <g transform="translate(92.564628 342.990399) rotate(-15) scale(0.1 -0.1)">
       <defs>
        <path id="DejaVuSans-46" d="M 628 4666 
L 3309 4666 
L 3309 4134 
L 1259 4134 
L 1259 2759 
L 3109 2759 
L 3109 2228 
L 1259 2228 
L 1259 0 
L 628 0 
L 628 4666 
z
" transform="scale(0.015625)"/>
        <path id="DejaVuSans-2d" d="M 313 2009 
L 1997 2009 
L 1997 1497 
L 313 1497 
L 313 2009 
z
" transform="scale(0.015625)"/>
        <path id="DejaVuSans-47" d="M 3809 666 
L 3809 1919 
L 2778 1919 
L 2778 2438 
L 4434 2438 
L 4434 434 
Q 4069 175 3628 42 
Q 3188 -91 2688 -91 
Q 1594 -91 976 548 
Q 359 1188 359 2328 
Q 359 3472 976 4111 
Q 1594 4750 2688 4750 
Q 3144 4750 3555 4637 
Q 3966 4525 4313 4306 
L 4313 3634 
Q 3963 3931 3569 4081 
Q 3175 4231 2741 4231 
Q 1884 4231 1454 3753 
Q 1025 3275 1025 2328 
Q 1025 1384 1454 906 
Q 1884 428 2741 428 
Q 3075 428 3337 486 
Q 3600 544 3809 666 
z
" transform="scale(0.015625)"/>
        <path id="DejaVuSans-64" d="M 2906 2969 
L 2906 4863 
L 3481 4863 
L 3481 0 
L 2906 0 
L 2906 525 
Q 2725 213 2448 61 
Q 2172 -91 1784 -91 
Q 1150 -91 751 415 
Q 353 922 353 1747 
Q 353 2572 751 3078 
Q 1150 3584 1784 3584 
Q 2172 3584 2448 3432 
Q 2725 3281 2906 2969 
z
M 947 1747 
Q 947 1113 1208 752 
Q 1469 391 1925 391 
Q 2381 391 2643 752 
Q 2906 1113 2906 1747 
Q 2906 2381 2643 2742 
Q 2381 3103 1925 3103 
Q 1469 3103 1208 2742 
Q 947 2381 947 1747 
z
" transform="scale(0.015625)"/>
        <path id="DejaVuSans-28" d="M 1984 4856 
Q 1566 4138 1362 3434 
Q 1159 2731 1159 2009 
Q 1159 1288 1364 580 
Q 1569 -128 1984 -844 
L 1484 -844 
Q 1016 -109 783 600 
Q 550 1309 550 2009 
Q 550 2706 781 3412 
Q 1013 4119 1484 4856 
L 1984 4856 
z
" transform="scale(0.015625)"/>
        <path id="DejaVuSans-49" d="M 628 4666 
L 1259 4666 
L 1259 0 
L 628 0 
L 628 4666 
z
" transform="scale(0.015625)"/>
        <path id="DejaVuSans-4e" d="M 628 4666 
L 1478 4666 
L 3547 763 
L 3547 4666 
L 4159 4666 
L 4159 0 
L 3309 0 
L 1241 3903 
L 1241 0 
L 628 0 
L 628 4666 
z
" transform="scale(0.015625)"/>
        <path id="DejaVuSans-2265" d="M 678 3175 
L 678 3725 
L 4684 2578 
L 4684 2047 
L 678 897 
L 678 1453 
L 3681 2309 
L 678 3175 
z
M 4684 531 
L 4684 0 
L 678 0 
L 678 531 
L 4684 531 
z
" transform="scale(0.015625)"/>
        <path id="DejaVuSans-35" d="M 691 4666 
L 3169 4666 
L 3169 4134 
L 1269 4134 
L 1269 2991 
Q 1406 3038 1543 3061 
Q 1681 3084 1819 3084 
Q 2600 3084 3056 2656 
Q 3513 2228 3513 1497 
Q 3513 744 3044 326 
Q 2575 -91 1722 -91 
Q 1428 -91 1123 -41 
Q 819 9 494 109 
L 494 744 
Q 775 591 1075 516 
Q 1375 441 1709 441 
Q 2250 441 2565 725 
Q 2881 1009 2881 1497 
Q 2881 1984 2565 2268 
Q 2250 2553 1709 2553 
Q 1456 2553 1204 2497 
Q 953 2441 691 2322 
L 691 4666 
z
" transform="scale(0.015625)"/>
        <path id="DejaVuSans-29" d="M 513 4856 
L 1013 4856 
Q 1481 4119 1714 3412 
Q 1947 2706 1947 2009 
Q 1947 1309 1714 600 
Q 1481 -109 1013 -844 
L 513 -844 
Q 928 -128 1133 580 
Q 1338 1288 1338 2009 
Q 1338 2731 1133 3434 
Q 928 4138 513 4856 
z
" transform="scale(0.015625)"/>
       </defs>
       <use xlink:href="#DejaVuSans-46"/>
       <use xlink:href="#DejaVuSans-69" x="50.269531"/>
       <use xlink:href="#DejaVuSans-6e" x="78.052734"/>
       <use xlink:href="#DejaVuSans-65" x="141.431641"/>
       <use xlink:href="#DejaVuSans-2d" x="202.955078"/>
       <use xlink:href="#DejaVuSans-47" x="242.664062"/>
       <use xlink:href="#DejaVuSans-72" x="320.154297"/>
       <use xlink:href="#DejaVuSans-61" x="361.267578"/>
       <use xlink:href="#DejaVuSans-69" x="422.546875"/>
       <use xlink:href="#DejaVuSans-6e" x="450.330078"/>
       <use xlink:href="#DejaVuSans-65" x="513.708984"/>
       <use xlink:href="#DejaVuSans-64" x="575.232422"/>
       <use xlink:href="#DejaVuSans-20" x="638.708984"/>
       <use xlink:href="#DejaVuSans-28" x="670.496094"/>
       <use xlink:href="#DejaVuSans-4d" x="709.509766"/>
       <use xlink:href="#DejaVuSans-49" x="795.789062"/>
       <use xlink:href="#DejaVuSans-4e" x="825.28125"/>
       <use xlink:href="#DejaVuSans-2265" x="900.085938"/>
       <use xlink:href="#DejaVuSans-35" x="983.875"/>
       <use xlink:href="#DejaVuSans-29" x="1047.498047"/>
      </g>
     </g>
    </g>
    <g id="xtick_3">
     <g id="line2d_3">
      <g>
       <use xlink:href="#ma12c8d0779" x="298.230698" y="300.529374" style="stroke: #000000; stroke-width: 0.8"/>
      </g>
     </g>
     <g id="text_3">
      <!-- Original (MIN≥10) -->
      <g transform="translate(210.491972 338.234194) rotate(-15) scale(0.1 -0.1)">
       <defs>
        <path id="DejaVuSans-4f" d="M 2522 4238 
Q 1834 4238 1429 3725 
Q 1025 3213 1025 2328 
Q 1025 1447 1429 934 
Q 1834 422 2522 422 
Q 3209 422 3611 934 
Q 4013 1447 4013 2328 
Q 4013 3213 3611 3725 
Q 3209 4238 2522 4238 
z
M 2522 4750 
Q 3503 4750 4090 4092 
Q 4678 3434 4678 2328 
Q 4678 1225 4090 567 
Q 3503 -91 2522 -91 
Q 1538 -91 948 565 
Q 359 1222 359 2328 
Q 359 3434 948 4092 
Q 1538 4750 2522 4750 
z
" transform="scale(0.015625)"/>
        <path id="DejaVuSans-67" d="M 2906 1791 
Q 2906 2416 2648 2759 
Q 2391 3103 1925 3103 
Q 1463 3103 1205 2759 
Q 947 2416 947 1791 
Q 947 1169 1205 825 
Q 1463 481 1925 481 
Q 2391 481 2648 825 
Q 2906 1169 2906 1791 
z
M 3481 434 
Q 3481 -459 3084 -895 
Q 2688 -1331 1869 -1331 
Q 1566 -1331 1297 -1286 
Q 1028 -1241 775 -1147 
L 775 -588 
Q 1028 -725 1275 -790 
Q 1522 -856 1778 -856 
Q 2344 -856 2625 -561 
Q 2906 -266 2906 331 
L 2906 616 
Q 2728 306 2450 153 
Q 2172 0 1784 0 
Q 1141 0 747 490 
Q 353 981 353 1791 
Q 353 2603 747 3093 
Q 1141 3584 1784 3584 
Q 2172 3584 2450 3431 
Q 2728 3278 2906 2969 
L 2906 3500 
L 3481 3500 
L 3481 434 
z
" transform="scale(0.015625)"/>
        <path id="DejaVuSans-31" d="M 794 531 
L 1825 531 
L 1825 4091 
L 703 3866 
L 703 4441 
L 1819 4666 
L 2450 4666 
L 2450 531 
L 3481 531 
L 3481 0 
L 794 0 
L 794 531 
z
" transform="scale(0.015625)"/>
        <path id="DejaVuSans-30" d="M 2034 4250 
Q 1547 4250 1301 3770 
Q 1056 3291 1056 2328 
Q 1056 1369 1301 889 
Q 1547 409 2034 409 
Q 2525 409 2770 889 
Q 3016 1369 3016 2328 
Q 3016 3291 2770 3770 
Q 2525 4250 2034 4250 
z
M 2034 4750 
Q 2819 4750 3233 4129 
Q 3647 3509 3647 2328 
Q 3647 1150 3233 529 
Q 2819 -91 2034 -91 
Q 1250 -91 836 529 
Q 422 1150 422 2328 
Q 422 3509 836 4129 
Q 1250 4750 2034 4750 
z
" transform="scale(0.015625)"/>
       </defs>
       <use xlink:href="#DejaVuSans-4f"/>
       <use xlink:href="#DejaVuSans-72" x="78.710938"/>
       <use xlink:href="#DejaVuSans-69" x="119.824219"/>
       <use xlink:href="#DejaVuSans-67" x="147.607422"/>
       <use xlink:href="#DejaVuSans-69" x="211.083984"/>
       <use xlink:href="#DejaVuSans-6e" x="238.867188"/>
       <use xlink:href="#DejaVuSans-61" x="302.246094"/>
       <use xlink:href="#DejaVuSans-6c" x="363.525391"/>
       <use xlink:href="#DejaVuSans-20" x="391.308594"/>
       <use xlink:href="#DejaVuSans-28" x="423.095703"/>
       <use xlink:href="#DejaVuSans-4d" x="462.109375"/>
       <use xlink:href="#DejaVuSans-49" x="548.388672"/>
       <use xlink:href="#DejaVuSans-4e" x="577.880859"/>
       <use xlink:href="#DejaVuSans-2265" x="652.685547"/>
       <use xlink:href="#DejaVuSans-31" x="736.474609"/>
       <use xlink:href="#DejaVuSans-30" x="800.097656"/>
       <use xlink:href="#DejaVuSans-29" x="863.720703"/>
      </g>
     </g>
    </g>
   </g>
   <g id="matplotlib.axis_2">
    <g id="ytick_1">
     <g id="line2d_4">
      <defs>
       <path id="maf05da47be" d="M 0 0 
L -3.5 0 
" style="stroke: #000000; stroke-width: 0.8"/>
      </defs>
      <g>
       <use xlink:href="#maf05da47be" x="43.78125" y="300.529374" style="stroke: #000000; stroke-width: 0.8"/>
      </g>
     </g>
     <g id="text_4">
      <!-- 0.0 -->
      <g transform="translate(20.878125 304.328592) scale(0.1 -0.1)">
       <defs>
        <path id="DejaVuSans-2e" d="M 684 794 
L 1344 794 
L 1344 0 
L 684 0 
L 684 794 
z
" transform="scale(0.015625)"/>
       </defs>
       <use xlink:href="#DejaVuSans-30"/>
       <use xlink:href="#DejaVuSans-2e" x="63.623047"/>
       <use xlink:href="#DejaVuSans-30" x="95.410156"/>
      </g>
     </g>
    </g>
    <g id="ytick_2">
     <g id="line2d_5">
      <g>
       <use xlink:href="#maf05da47be" x="43.78125" y="254.160832" style="stroke: #000000; stroke-width: 0.8"/>
      </g>
     </g>
     <g id="text_5">
      <!-- 0.1 -->
      <g transform="translate(20.878125 257.960051) scale(0.1 -0.1)">
       <use xlink:href="#DejaVuSans-30"/>
       <use xlink:href="#DejaVuSans-2e" x="63.623047"/>
       <use xlink:href="#DejaVuSans-31" x="95.410156"/>
      </g>
     </g>
    </g>
    <g id="ytick_3">
     <g id="line2d_6">
      <g>
       <use xlink:href="#maf05da47be" x="43.78125" y="207.792291" style="stroke: #000000; stroke-width: 0.8"/>
      </g>
     </g>
     <g id="text_6">
      <!-- 0.2 -->
      <g transform="translate(20.878125 211.591509) scale(0.1 -0.1)">
       <defs>
        <path id="DejaVuSans-32" d="M 1228 531 
L 3431 531 
L 3431 0 
L 469 0 
L 469 531 
Q 828 903 1448 1529 
Q 2069 2156 2228 2338 
Q 2531 2678 2651 2914 
Q 2772 3150 2772 3378 
Q 2772 3750 2511 3984 
Q 2250 4219 1831 4219 
Q 1534 4219 1204 4116 
Q 875 4013 500 3803 
L 500 4441 
Q 881 4594 1212 4672 
Q 1544 4750 1819 4750 
Q 2544 4750 2975 4387 
Q 3406 4025 3406 3419 
Q 3406 3131 3298 2873 
Q 3191 2616 2906 2266 
Q 2828 2175 2409 1742 
Q 1991 1309 1228 531 
z
" transform="scale(0.015625)"/>
       </defs>
       <use xlink:href="#DejaVuSans-30"/>
       <use xlink:href="#DejaVuSans-2e" x="63.623047"/>
       <use xlink:href="#DejaVuSans-32" x="95.410156"/>
      </g>
     </g>
    </g>
    <g id="ytick_4">
     <g id="line2d_7">
      <g>
       <use xlink:href="#maf05da47be" x="43.78125" y="161.423749" style="stroke: #000000; stroke-width: 0.8"/>
      </g>
     </g>
     <g id="text_7">
      <!-- 0.3 -->
      <g transform="translate(20.878125 165.222968) scale(0.1 -0.1)">
       <defs>
        <path id="DejaVuSans-33" d="M 2597 2516 
Q 3050 2419 3304 2112 
Q 3559 1806 3559 1356 
Q 3559 666 3084 287 
Q 2609 -91 1734 -91 
Q 1441 -91 1130 -33 
Q 819 25 488 141 
L 488 750 
Q 750 597 1062 519 
Q 1375 441 1716 441 
Q 2309 441 2620 675 
Q 2931 909 2931 1356 
Q 2931 1769 2642 2001 
Q 2353 2234 1838 2234 
L 1294 2234 
L 1294 2753 
L 1863 2753 
Q 2328 2753 2575 2939 
Q 2822 3125 2822 3475 
Q 2822 3834 2567 4026 
Q 2313 4219 1838 4219 
Q 1578 4219 1281 4162 
Q 984 4106 628 3988 
L 628 4550 
Q 988 4650 1302 4700 
Q 1616 4750 1894 4750 
Q 2613 4750 3031 4423 
Q 3450 4097 3450 3541 
Q 3450 3153 3228 2886 
Q 3006 2619 2597 2516 
z
" transform="scale(0.015625)"/>
       </defs>
       <use xlink:href="#DejaVuSans-30"/>
       <use xlink:href="#DejaVuSans-2e" x="63.623047"/>
       <use xlink:href="#DejaVuSans-33" x="95.410156"/>
      </g>
     </g>
    </g>
    <g id="ytick_5">
     <g id="line2d_8">
      <g>
       <use xlink:href="#maf05da47be" x="43.78125" y="115.055208" style="stroke: #000000; stroke-width: 0.8"/>
      </g>
     </g>
     <g id="text_8">
      <!-- 0.4 -->
      <g transform="translate(20.878125 118.854427) scale(0.1 -0.1)">
       <defs>
        <path id="DejaVuSans-34" d="M 2419 4116 
L 825 1625 
L 2419 1625 
L 2419 4116 
z
M 2253 4666 
L 3047 4666 
L 3047 1625 
L 3713 1625 
L 3713 1100 
L 3047 1100 
L 3047 0 
L 2419 0 
L 2419 1100 
L 313 1100 
L 313 1709 
L 2253 4666 
z
" transform="scale(0.015625)"/>
       </defs>
       <use xlink:href="#DejaVuSans-30"/>
       <use xlink:href="#DejaVuSans-2e" x="63.623047"/>
       <use xlink:href="#DejaVuSans-34" x="95.410156"/>
      </g>
     </g>
    </g>
    <g id="ytick_6">
     <g id="line2d_9">
      <g>
       <use xlink:href="#maf05da47be" x="43.78125" y="68.686666" style="stroke: #000000; stroke-width: 0.8"/>
      </g>
     </g>
     <g id="text_9">
      <!-- 0.5 -->
      <g transform="translate(20.878125 72.485885) scale(0.1 -0.1)">
       <use xlink:href="#DejaVuSans-30"/>
       <use xlink:href="#DejaVuSans-2e" x="63.623047"/>
       <use xlink:href="#DejaVuSans-35" x="95.410156"/>
      </g>
     </g>
    </g>
    <g id="ytick_7">
     <g id="line2d_10">
      <g>
       <use xlink:href="#maf05da47be" x="43.78125" y="22.318125" style="stroke: #000000; stroke-width: 0.8"/>
      </g>
     </g>
     <g id="text_10">
      <!-- 0.6 -->
      <g transform="translate(20.878125 26.117344) scale(0.1 -0.1)">
       <defs>
        <path id="DejaVuSans-36" d="M 2113 2584 
Q 1688 2584 1439 2293 
Q 1191 2003 1191 1497 
Q 1191 994 1439 701 
Q 1688 409 2113 409 
Q 2538 409 2786 701 
Q 3034 994 3034 1497 
Q 3034 2003 2786 2293 
Q 2538 2584 2113 2584 
z
M 3366 4563 
L 3366 3988 
Q 3128 4100 2886 4159 
Q 2644 4219 2406 4219 
Q 1781 4219 1451 3797 
Q 1122 3375 1075 2522 
Q 1259 2794 1537 2939 
Q 1816 3084 2150 3084 
Q 2853 3084 3261 2657 
Q 3669 2231 3669 1497 
Q 3669 778 3244 343 
Q 2819 -91 2113 -91 
Q 1303 -91 875 529 
Q 447 1150 447 2328 
Q 447 3434 972 4092 
Q 1497 4750 2381 4750 
Q 2619 4750 2861 4703 
Q 3103 4656 3366 4563 
z
" transform="scale(0.015625)"/>
       </defs>
       <use xlink:href="#DejaVuSans-30"/>
       <use xlink:href="#DejaVuSans-2e" x="63.623047"/>
       <use xlink:href="#DejaVuSans-36" x="95.410156"/>
      </g>
     </g>
    </g>
    <g id="text_11">
     <!-- Balanced Accuracy -->
     <g transform="translate(14.798438 208.957343) rotate(-90) scale(0.1 -0.1)">
      <defs>
       <path id="DejaVuSans-42" d="M 1259 2228 
L 1259 519 
L 2272 519 
Q 2781 519 3026 730 
Q 3272 941 3272 1375 
Q 3272 1813 3026 2020 
Q 2781 2228 2272 2228 
L 1259 2228 
z
M 1259 4147 
L 1259 2741 
L 2194 2741 
Q 2656 2741 2882 2914 
Q 3109 3088 3109 3444 
Q 3109 3797 2882 3972 
Q 2656 4147 2194 4147 
L 1259 4147 
z
M 628 4666 
L 2241 4666 
Q 2963 4666 3353 4366 
Q 3744 4066 3744 3513 
Q 3744 3084 3544 2831 
Q 3344 2578 2956 2516 
Q 3422 2416 3680 2098 
Q 3938 1781 3938 1306 
Q 3938 681 3513 340 
Q 3088 0 2303 0 
L 628 0 
L 628 4666 
z
" transform="scale(0.015625)"/>
       <path id="DejaVuSans-63" d="M 3122 3366 
L 3122 2828 
Q 2878 2963 2633 3030 
Q 2388 3097 2138 3097 
Q 1578 3097 1268 2742 
Q 959 2388 959 1747 
Q 959 1106 1268 751 
Q 1578 397 2138 397 
Q 2388 397 2633 464 
Q 2878 531 3122 666 
L 3122 134 
Q 2881 22 2623 -34 
Q 2366 -91 2075 -91 
Q 1284 -91 818 406 
Q 353 903 353 1747 
Q 353 2603 823 3093 
Q 1294 3584 2113 3584 
Q 2378 3584 2631 3529 
Q 2884 3475 3122 3366 
z
" transform="scale(0.015625)"/>
       <path id="DejaVuSans-41" d="M 2188 4044 
L 1331 1722 
L 3047 1722 
L 2188 4044 
z
M 1831 4666 
L 2547 4666 
L 4325 0 
L 3669 0 
L 3244 1197 
L 1141 1197 
L 716 0 
L 50 0 
L 1831 4666 
z
" transform="scale(0.015625)"/>
       <path id="DejaVuSans-75" d="M 544 1381 
L 544 3500 
L 1119 3500 
L 1119 1403 
Q 1119 906 1312 657 
Q 1506 409 1894 409 
Q 2359 409 2629 706 
Q 2900 1003 2900 1516 
L 2900 3500 
L 3475 3500 
L 3475 0 
L 2900 0 
L 2900 538 
Q 2691 219 2414 64 
Q 2138 -91 1772 -91 
Q 1169 -91 856 284 
Q 544 659 544 1381 
z
M 1991 3584 
L 1991 3584 
z
" transform="scale(0.015625)"/>
       <path id="DejaVuSans-79" d="M 2059 -325 
Q 1816 -950 1584 -1140 
Q 1353 -1331 966 -1331 
L 506 -1331 
L 506 -850 
L 844 -850 
Q 1081 -850 1212 -737 
Q 1344 -625 1503 -206 
L 1606 56 
L 191 3500 
L 800 3500 
L 1894 763 
L 2988 3500 
L 3597 3500 
L 2059 -325 
z
" transform="scale(0.015625)"/>
      </defs>
      <use xlink:href="#DejaVuSans-42"/>
      <use xlink:href="#DejaVuSans-61" x="68.603516"/>
      <use xlink:href="#DejaVuSans-6c" x="129.882812"/>
      <use xlink:href="#DejaVuSans-61" x="157.666016"/>
      <use xlink:href="#DejaVuSans-6e" x="218.945312"/>
      <use xlink:href="#DejaVuSans-63" x="282.324219"/>
      <use xlink:href="#DejaVuSans-65" x="337.304688"/>
      <use xlink:href="#DejaVuSans-64" x="398.828125"/>
      <use xlink:href="#DejaVuSans-20" x="462.304688"/>
      <use xlink:href="#DejaVuSans-41" x="494.091797"/>
      <use xlink:href="#DejaVuSans-63" x="560.75"/>
      <use xlink:href="#DejaVuSans-63" x="615.730469"/>
      <use xlink:href="#DejaVuSans-75" x="670.710938"/>
      <use xlink:href="#DejaVuSans-72" x="734.089844"/>
      <use xlink:href="#DejaVuSans-61" x="775.203125"/>
      <use xlink:href="#DejaVuSans-63" x="836.482422"/>
      <use xlink:href="#DejaVuSans-79" x="891.462891"/>
     </g>
    </g>
   </g>
   <g id="LineCollection_1">
    <path d="M 97.876802 108.59603 
L 97.876802 20.380778 
" clip-path="url(#p86299fb588)" style="fill: none; stroke: #000000; stroke-width: 1.5"/>
    <path d="M 198.05375 79.159993 
L 198.05375 34.247497 
" clip-path="url(#p86299fb588)" style="fill: none; stroke: #000000; stroke-width: 1.5"/>
    <path d="M 298.230698 165.642319 
L 298.230698 92.778225 
" clip-path="url(#p86299fb588)" style="fill: none; stroke: #000000; stroke-width: 1.5"/>
   </g>
   <g id="line2d_11">
    <defs>
     <path id="mf662209f5f" d="M 5 0 
L -5 -0 
" style="stroke: #000000"/>
    </defs>
    <g clip-path="url(#p86299fb588)">
     <use xlink:href="#mf662209f5f" x="97.876802" y="108.59603" style="stroke: #000000"/>
     <use xlink:href="#mf662209f5f" x="198.05375" y="79.159993" style="stroke: #000000"/>
     <use xlink:href="#mf662209f5f" x="298.230698" y="165.642319" style="stroke: #000000"/>
    </g>
   </g>
   <g id="line2d_12">
    <g clip-path="url(#p86299fb588)">
     <use xlink:href="#mf662209f5f" x="97.876802" y="20.380778" style="stroke: #000000"/>
     <use xlink:href="#mf662209f5f" x="198.05375" y="34.247497" style="stroke: #000000"/>
     <use xlink:href="#mf662209f5f" x="298.230698" y="92.778225" style="stroke: #000000"/>
    </g>
   </g>
   <g id="patch_6">
    <path d="M 43.78125 300.529374 
L 43.78125 22.318125 
" style="fill: none; stroke: #000000; stroke-width: 0.8; stroke-linejoin: miter; stroke-linecap: square"/>
   </g>
   <g id="patch_7">
    <path d="M 352.32625 300.529374 
L 352.32625 22.318125 
" style="fill: none; stroke: #000000; stroke-width: 0.8; stroke-linejoin: miter; stroke-linecap: square"/>
   </g>
   <g id="patch_8">
    <path d="M 43.78125 300.529374 
L 352.32625 300.529374 
" style="fill: none; stroke: #000000; stroke-width: 0.8; stroke-linejoin: miter; stroke-linecap: square"/>
   </g>
   <g id="patch_9">
    <path d="M 43.78125 22.318125 
L 352.32625 22.318125 
" style="fill: none; stroke: #000000; stroke-width: 0.8; stroke-linejoin: miter; stroke-linecap: square"/>
   </g>
   <g id="text_12">
    <!-- Classification Performance by Strategy -->
    <g transform="translate(81.545938 16.318125) scale(0.12 -0.12)">
     <defs>
      <path id="DejaVuSans-43" d="M 4122 4306 
L 4122 3641 
Q 3803 3938 3442 4084 
Q 3081 4231 2675 4231 
Q 1875 4231 1450 3742 
Q 1025 3253 1025 2328 
Q 1025 1406 1450 917 
Q 1875 428 2675 428 
Q 3081 428 3442 575 
Q 3803 722 4122 1019 
L 4122 359 
Q 3791 134 3420 21 
Q 3050 -91 2638 -91 
Q 1578 -91 968 557 
Q 359 1206 359 2328 
Q 359 3453 968 4101 
Q 1578 4750 2638 4750 
Q 3056 4750 3426 4639 
Q 3797 4528 4122 4306 
z
" transform="scale(0.015625)"/>
      <path id="DejaVuSans-73" d="M 2834 3397 
L 2834 2853 
Q 2591 2978 2328 3040 
Q 2066 3103 1784 3103 
Q 1356 3103 1142 2972 
Q 928 2841 928 2578 
Q 928 2378 1081 2264 
Q 1234 2150 1697 2047 
L 1894 2003 
Q 2506 1872 2764 1633 
Q 3022 1394 3022 966 
Q 3022 478 2636 193 
Q 2250 -91 1575 -91 
Q 1294 -91 989 -36 
Q 684 19 347 128 
L 347 722 
Q 666 556 975 473 
Q 1284 391 1588 391 
Q 1994 391 2212 530 
Q 2431 669 2431 922 
Q 2431 1156 2273 1281 
Q 2116 1406 1581 1522 
L 1381 1569 
Q 847 1681 609 1914 
Q 372 2147 372 2553 
Q 372 3047 722 3315 
Q 1072 3584 1716 3584 
Q 2034 3584 2315 3537 
Q 2597 3491 2834 3397 
z
" transform="scale(0.015625)"/>
      <path id="DejaVuSans-50" d="M 1259 4147 
L 1259 2394 
L 2053 2394 
Q 2494 2394 2734 2622 
Q 2975 2850 2975 3272 
Q 2975 3691 2734 3919 
Q 2494 4147 2053 4147 
L 1259 4147 
z
M 628 4666 
L 2053 4666 
Q 2838 4666 3239 4311 
Q 3641 3956 3641 3272 
Q 3641 2581 3239 2228 
Q 2838 1875 2053 1875 
L 1259 1875 
L 1259 0 
L 628 0 
L 628 4666 
z
" transform="scale(0.015625)"/>
      <path id="DejaVuSans-62" d="M 3116 1747 
Q 3116 2381 2855 2742 
Q 2594 3103 2138 3103 
Q 1681 3103 1420 2742 
Q 1159 2381 1159 1747 
Q 1159 1113 1420 752 
Q 1681 391 2138 391 
Q 2594 391 2855 752 
Q 3116 1113 3116 1747 
z
M 1159 2969 
Q 1341 3281 1617 3432 
Q 1894 3584 2278 3584 
Q 2916 3584 3314 3078 
Q 3713 2572 3713 1747 
Q 3713 922 3314 415 
Q 2916 -91 2278 -91 
Q 1894 -91 1617 61 
Q 1341 213 1159 525 
L 1159 0 
L 581 0 
L 581 4863 
L 1159 4863 
L 1159 2969 
z
" transform="scale(0.015625)"/>
      <path id="DejaVuSans-53" d="M 3425 4513 
L 3425 3897 
Q 3066 4069 2747 4153 
Q 2428 4238 2131 4238 
Q 1616 4238 1336 4038 
Q 1056 3838 1056 3469 
Q 1056 3159 1242 3001 
Q 1428 2844 1947 2747 
L 2328 2669 
Q 3034 2534 3370 2195 
Q 3706 1856 3706 1288 
Q 3706 609 3251 259 
Q 2797 -91 1919 -91 
Q 1588 -91 1214 -16 
Q 841 59 441 206 
L 441 856 
Q 825 641 1194 531 
Q 1563 422 1919 422 
Q 2459 422 2753 634 
Q 3047 847 3047 1241 
Q 3047 1584 2836 1778 
Q 2625 1972 2144 2069 
L 1759 2144 
Q 1053 2284 737 2584 
Q 422 2884 422 3419 
Q 422 4038 858 4394 
Q 1294 4750 2059 4750 
Q 2388 4750 2728 4690 
Q 3069 4631 3425 4513 
z
" transform="scale(0.015625)"/>
     </defs>
     <use xlink:href="#DejaVuSans-43"/>
     <use xlink:href="#DejaVuSans-6c" x="69.824219"/>
     <use xlink:href="#DejaVuSans-61" x="97.607422"/>
     <use xlink:href="#DejaVuSans-73" x="158.886719"/>
     <use xlink:href="#DejaVuSans-73" x="210.986328"/>
     <use xlink:href="#DejaVuSans-69" x="263.085938"/>
     <use xlink:href="#DejaVuSans-66" x="290.869141"/>
     <use xlink:href="#DejaVuSans-69" x="326.074219"/>
     <use xlink:href="#DejaVuSans-63" x="353.857422"/>
     <use xlink:href="#DejaVuSans-61" x="408.837891"/>
     <use xlink:href="#DejaVuSans-74" x="470.117188"/>
     <use xlink:href="#DejaVuSans-69" x="509.326172"/>
     <use xlink:href="#DejaVuSans-6f" x="537.109375"/>
     <use xlink:href="#DejaVuSans-6e" x="598.291016"/>
     <use xlink:href="#DejaVuSans-20" x="661.669922"/>
     <use xlink:href="#DejaVuSans-50" x="693.457031"/>
     <use xlink:href="#DejaVuSans-65" x="750.134766"/>
     <use xlink:href="#DejaVuSans-72" x="811.658203"/>
     <use xlink:href="#DejaVuSans-66" x="852.771484"/>
     <use xlink:href="#DejaVuSans-6f" x="887.976562"/>
     <use xlink:href="#DejaVuSans-72" x="949.158203"/>
     <use xlink:href="#DejaVuSans-6d" x="988.521484"/>
     <use xlink:href="#DejaVuSans-61" x="1085.933594"/>
     <use xlink:href="#DejaVuSans-6e" x="1147.212891"/>
     <use xlink:href="#DejaVuSans-63" x="1210.591797"/>
     <use xlink:href="#DejaVuSans-65" x="1265.572266"/>
     <use xlink:href="#DejaVuSans-20" x="1327.095703"/>
     <use xlink:href="#DejaVuSans-62" x="1358.882812"/>
     <use xlink:href="#DejaVuSans-79" x="1422.359375"/>
     <use xlink:href="#DejaVuSans-20" x="1481.539062"/>
     <use xlink:href="#DejaVuSans-53" x="1513.326172"/>
     <use xlink:href="#DejaVuSans-74" x="1576.802734"/>
     <use xlink:href="#DejaVuSans-72" x="1616.011719"/>
     <use xlink:href="#DejaVuSans-61" x="1657.125"/>
     <use xlink:href="#DejaVuSans-74" x="1718.404297"/>
     <use xlink:href="#DejaVuSans-65" x="1757.613281"/>
     <use xlink:href="#DejaVuSans-67" x="1819.136719"/>
     <use xlink:href="#DejaVuSans-79" x="1882.613281"/>
    </g>
   </g>
   <g id="PathCollection_1">
    <defs>
     <path id="m0bb360df51" d="M 7.071068 0 
L -7.071068 -0 
" style="stroke: #ff0000; stroke-width: 1.5"/>
    </defs>
    <g clip-path="url(#p86299fb588)">
     <use xlink:href="#m0bb360df51" x="97.876802" y="184.60802" style="fill: #ff0000; stroke: #ff0000; stroke-width: 1.5"/>
     <use xlink:href="#m0bb360df51" x="198.05375" y="242.568697" style="fill: #ff0000; stroke: #ff0000; stroke-width: 1.5"/>
     <use xlink:href="#m0bb360df51" x="298.230698" y="184.60802" style="fill: #ff0000; stroke: #ff0000; stroke-width: 1.5"/>
    </g>
   </g>
   <g id="legend_1">
    <g id="patch_10">
     <path d="M 248.929375 44.99625 
L 345.32625 44.99625 
Q 347.32625 44.99625 347.32625 42.99625 
L 347.32625 29.318125 
Q 347.32625 27.318125 345.32625 27.318125 
L 248.929375 27.318125 
Q 246.929375 27.318125 246.929375 29.318125 
L 246.929375 42.99625 
Q 246.929375 44.99625 248.929375 44.99625 
z
" style="fill: #ffffff; opacity: 0.8; stroke: #cccccc; stroke-linejoin: miter"/>
    </g>
    <g id="PathCollection_2">
     <g>
      <use xlink:href="#m0bb360df51" x="260.929375" y="36.291562" style="fill: #ff0000; stroke: #ff0000; stroke-width: 1.5"/>
     </g>
    </g>
    <g id="text_13">
     <!-- Chance level -->
     <g transform="translate(278.929375 38.916562) scale(0.1 -0.1)">
      <defs>
       <path id="DejaVuSans-68" d="M 3513 2113 
L 3513 0 
L 2938 0 
L 2938 2094 
Q 2938 2591 2744 2837 
Q 2550 3084 2163 3084 
Q 1697 3084 1428 2787 
Q 1159 2491 1159 1978 
L 1159 0 
L 581 0 
L 581 4863 
L 1159 4863 
L 1159 2956 
Q 1366 3272 1645 3428 
Q 1925 3584 2291 3584 
Q 2894 3584 3203 3211 
Q 3513 2838 3513 2113 
z
" transform="scale(0.015625)"/>
       <path id="DejaVuSans-76" d="M 191 3500 
L 800 3500 
L 1894 563 
L 2988 3500 
L 3597 3500 
L 2284 0 
L 1503 0 
L 191 3500 
z
" transform="scale(0.015625)"/>
      </defs>
      <use xlink:href="#DejaVuSans-43"/>
      <use xlink:href="#DejaVuSans-68" x="69.824219"/>
      <use xlink:href="#DejaVuSans-61" x="133.203125"/>
      <use xlink:href="#DejaVuSans-6e" x="194.482422"/>
      <use xlink:href="#DejaVuSans-63" x="257.861328"/>
      <use xlink:href="#DejaVuSans-65" x="312.841797"/>
      <use xlink:href="#DejaVuSans-20" x="374.365234"/>
      <use xlink:href="#DejaVuSans-6c" x="406.152344"/>
      <use xlink:href="#DejaVuSans-65" x="433.935547"/>
      <use xlink:href="#DejaVuSans-76" x="495.458984"/>
      <use xlink:href="#DejaVuSans-65" x="554.638672"/>
      <use xlink:href="#DejaVuSans-6c" x="616.162109"/>
     </g>
    </g>
   </g>
  </g>
  <g id="axes_2">
   <g id="patch_11">
    <path d="M 400.18125 300.529374 
L 708.72625 300.529374 
L 708.72625 22.318125 
L 400.18125 22.318125 
z
" style="fill: #ffffff"/>
   </g>
   <g id="matplotlib.axis_3">
    <g id="xtick_4">
     <g id="line2d_13">
      <g>
       <use xlink:href="#ma12c8d0779" x="418.048426" y="300.529374" style="stroke: #000000; stroke-width: 0.8"/>
      </g>
     </g>
     <g id="text_14">
      <!-- 110 -->
      <g transform="translate(408.504676 315.127811) scale(0.1 -0.1)">
       <use xlink:href="#DejaVuSans-31"/>
       <use xlink:href="#DejaVuSans-31" x="63.623047"/>
       <use xlink:href="#DejaVuSans-30" x="127.246094"/>
      </g>
     </g>
    </g>
    <g id="xtick_5">
     <g id="line2d_14">
      <g>
       <use xlink:href="#ma12c8d0779" x="456.472461" y="300.529374" style="stroke: #000000; stroke-width: 0.8"/>
      </g>
     </g>
     <g id="text_15">
      <!-- 120 -->
      <g transform="translate(446.928711 315.127811) scale(0.1 -0.1)">
       <use xlink:href="#DejaVuSans-31"/>
       <use xlink:href="#DejaVuSans-32" x="63.623047"/>
       <use xlink:href="#DejaVuSans-30" x="127.246094"/>
      </g>
     </g>
    </g>
    <g id="xtick_6">
     <g id="line2d_15">
      <g>
       <use xlink:href="#ma12c8d0779" x="494.896496" y="300.529374" style="stroke: #000000; stroke-width: 0.8"/>
      </g>
     </g>
     <g id="text_16">
      <!-- 130 -->
      <g transform="translate(485.352746 315.127811) scale(0.1 -0.1)">
       <use xlink:href="#DejaVuSans-31"/>
       <use xlink:href="#DejaVuSans-33" x="63.623047"/>
       <use xlink:href="#DejaVuSans-30" x="127.246094"/>
      </g>
     </g>
    </g>
    <g id="xtick_7">
     <g id="line2d_16">
      <g>
       <use xlink:href="#ma12c8d0779" x="533.320531" y="300.529374" style="stroke: #000000; stroke-width: 0.8"/>
      </g>
     </g>
     <g id="text_17">
      <!-- 140 -->
      <g transform="translate(523.776781 315.127811) scale(0.1 -0.1)">
       <use xlink:href="#DejaVuSans-31"/>
       <use xlink:href="#DejaVuSans-34" x="63.623047"/>
       <use xlink:href="#DejaVuSans-30" x="127.246094"/>
      </g>
     </g>
    </g>
    <g id="xtick_8">
     <g id="line2d_17">
      <g>
       <use xlink:href="#ma12c8d0779" x="571.744566" y="300.529374" style="stroke: #000000; stroke-width: 0.8"/>
      </g>
     </g>
     <g id="text_18">
      <!-- 150 -->
      <g transform="translate(562.200816 315.127811) scale(0.1 -0.1)">
       <use xlink:href="#DejaVuSans-31"/>
       <use xlink:href="#DejaVuSans-35" x="63.623047"/>
       <use xlink:href="#DejaVuSans-30" x="127.246094"/>
      </g>
     </g>
    </g>
    <g id="xtick_9">
     <g id="line2d_18">
      <g>
       <use xlink:href="#ma12c8d0779" x="610.168601" y="300.529374" style="stroke: #000000; stroke-width: 0.8"/>
      </g>
     </g>
     <g id="text_19">
      <!-- 160 -->
      <g transform="translate(600.624851 315.127811) scale(0.1 -0.1)">
       <use xlink:href="#DejaVuSans-31"/>
       <use xlink:href="#DejaVuSans-36" x="63.623047"/>
       <use xlink:href="#DejaVuSans-30" x="127.246094"/>
      </g>
     </g>
    </g>
    <g id="xtick_10">
     <g id="line2d_19">
      <g>
       <use xlink:href="#ma12c8d0779" x="648.592635" y="300.529374" style="stroke: #000000; stroke-width: 0.8"/>
      </g>
     </g>
     <g id="text_20">
      <!-- 170 -->
      <g transform="translate(639.048885 315.127811) scale(0.1 -0.1)">
       <defs>
        <path id="DejaVuSans-37" d="M 525 4666 
L 3525 4666 
L 3525 4397 
L 1831 0 
L 1172 0 
L 2766 4134 
L 525 4134 
L 525 4666 
z
" transform="scale(0.015625)"/>
       </defs>
       <use xlink:href="#DejaVuSans-31"/>
       <use xlink:href="#DejaVuSans-37" x="63.623047"/>
       <use xlink:href="#DejaVuSans-30" x="127.246094"/>
      </g>
     </g>
    </g>
    <g id="xtick_11">
     <g id="line2d_20">
      <g>
       <use xlink:href="#ma12c8d0779" x="687.01667" y="300.529374" style="stroke: #000000; stroke-width: 0.8"/>
      </g>
     </g>
     <g id="text_21">
      <!-- 180 -->
      <g transform="translate(677.47292 315.127811) scale(0.1 -0.1)">
       <defs>
        <path id="DejaVuSans-38" d="M 2034 2216 
Q 1584 2216 1326 1975 
Q 1069 1734 1069 1313 
Q 1069 891 1326 650 
Q 1584 409 2034 409 
Q 2484 409 2743 651 
Q 3003 894 3003 1313 
Q 3003 1734 2745 1975 
Q 2488 2216 2034 2216 
z
M 1403 2484 
Q 997 2584 770 2862 
Q 544 3141 544 3541 
Q 544 4100 942 4425 
Q 1341 4750 2034 4750 
Q 2731 4750 3128 4425 
Q 3525 4100 3525 3541 
Q 3525 3141 3298 2862 
Q 3072 2584 2669 2484 
Q 3125 2378 3379 2068 
Q 3634 1759 3634 1313 
Q 3634 634 3220 271 
Q 2806 -91 2034 -91 
Q 1263 -91 848 271 
Q 434 634 434 1313 
Q 434 1759 690 2068 
Q 947 2378 1403 2484 
z
M 1172 3481 
Q 1172 3119 1398 2916 
Q 1625 2713 2034 2713 
Q 2441 2713 2670 2916 
Q 2900 3119 2900 3481 
Q 2900 3844 2670 4047 
Q 2441 4250 2034 4250 
Q 1625 4250 1398 4047 
Q 1172 3844 1172 3481 
z
" transform="scale(0.015625)"/>
       </defs>
       <use xlink:href="#DejaVuSans-31"/>
       <use xlink:href="#DejaVuSans-38" x="63.623047"/>
       <use xlink:href="#DejaVuSans-30" x="127.246094"/>
      </g>
     </g>
    </g>
    <g id="text_22">
     <!-- Number of Samples -->
     <g transform="translate(505.017031 328.805936) scale(0.1 -0.1)">
      <defs>
       <path id="DejaVuSans-70" d="M 1159 525 
L 1159 -1331 
L 581 -1331 
L 581 3500 
L 1159 3500 
L 1159 2969 
Q 1341 3281 1617 3432 
Q 1894 3584 2278 3584 
Q 2916 3584 3314 3078 
Q 3713 2572 3713 1747 
Q 3713 922 3314 415 
Q 2916 -91 2278 -91 
Q 1894 -91 1617 61 
Q 1341 213 1159 525 
z
M 3116 1747 
Q 3116 2381 2855 2742 
Q 2594 3103 2138 3103 
Q 1681 3103 1420 2742 
Q 1159 2381 1159 1747 
Q 1159 1113 1420 752 
Q 1681 391 2138 391 
Q 2594 391 2855 752 
Q 3116 1113 3116 1747 
z
" transform="scale(0.015625)"/>
      </defs>
      <use xlink:href="#DejaVuSans-4e"/>
      <use xlink:href="#DejaVuSans-75" x="74.804688"/>
      <use xlink:href="#DejaVuSans-6d" x="138.183594"/>
      <use xlink:href="#DejaVuSans-62" x="235.595703"/>
      <use xlink:href="#DejaVuSans-65" x="299.072266"/>
      <use xlink:href="#DejaVuSans-72" x="360.595703"/>
      <use xlink:href="#DejaVuSans-20" x="401.708984"/>
      <use xlink:href="#DejaVuSans-6f" x="433.496094"/>
      <use xlink:href="#DejaVuSans-66" x="494.677734"/>
      <use xlink:href="#DejaVuSans-20" x="529.882812"/>
      <use xlink:href="#DejaVuSans-53" x="561.669922"/>
      <use xlink:href="#DejaVuSans-61" x="625.146484"/>
      <use xlink:href="#DejaVuSans-6d" x="686.425781"/>
      <use xlink:href="#DejaVuSans-70" x="783.837891"/>
      <use xlink:href="#DejaVuSans-6c" x="847.314453"/>
      <use xlink:href="#DejaVuSans-65" x="875.097656"/>
      <use xlink:href="#DejaVuSans-73" x="936.621094"/>
     </g>
    </g>
   </g>
   <g id="matplotlib.axis_4">
    <g id="ytick_8">
     <g id="line2d_21">
      <g>
       <use xlink:href="#maf05da47be" x="400.18125" y="287.883408" style="stroke: #000000; stroke-width: 0.8"/>
      </g>
     </g>
     <g id="text_23">
      <!-- 1.0 -->
      <g transform="translate(377.278125 291.682626) scale(0.1 -0.1)">
       <use xlink:href="#DejaVuSans-31"/>
       <use xlink:href="#DejaVuSans-2e" x="63.623047"/>
       <use xlink:href="#DejaVuSans-30" x="95.410156"/>
      </g>
     </g>
    </g>
    <g id="ytick_9">
     <g id="line2d_22">
      <g>
       <use xlink:href="#maf05da47be" x="400.18125" y="248.447853" style="stroke: #000000; stroke-width: 0.8"/>
      </g>
     </g>
     <g id="text_24">
      <!-- 1.5 -->
      <g transform="translate(377.278125 252.247072) scale(0.1 -0.1)">
       <use xlink:href="#DejaVuSans-31"/>
       <use xlink:href="#DejaVuSans-2e" x="63.623047"/>
       <use xlink:href="#DejaVuSans-35" x="95.410156"/>
      </g>
     </g>
    </g>
    <g id="ytick_10">
     <g id="line2d_23">
      <g>
       <use xlink:href="#maf05da47be" x="400.18125" y="209.012299" style="stroke: #000000; stroke-width: 0.8"/>
      </g>
     </g>
     <g id="text_25">
      <!-- 2.0 -->
      <g transform="translate(377.278125 212.811518) scale(0.1 -0.1)">
       <use xlink:href="#DejaVuSans-32"/>
       <use xlink:href="#DejaVuSans-2e" x="63.623047"/>
       <use xlink:href="#DejaVuSans-30" x="95.410156"/>
      </g>
     </g>
    </g>
    <g id="ytick_11">
     <g id="line2d_24">
      <g>
       <use xlink:href="#maf05da47be" x="400.18125" y="169.576745" style="stroke: #000000; stroke-width: 0.8"/>
      </g>
     </g>
     <g id="text_26">
      <!-- 2.5 -->
      <g transform="translate(377.278125 173.375964) scale(0.1 -0.1)">
       <use xlink:href="#DejaVuSans-32"/>
       <use xlink:href="#DejaVuSans-2e" x="63.623047"/>
       <use xlink:href="#DejaVuSans-35" x="95.410156"/>
      </g>
     </g>
    </g>
    <g id="ytick_12">
     <g id="line2d_25">
      <g>
       <use xlink:href="#maf05da47be" x="400.18125" y="130.141191" style="stroke: #000000; stroke-width: 0.8"/>
      </g>
     </g>
     <g id="text_27">
      <!-- 3.0 -->
      <g transform="translate(377.278125 133.94041) scale(0.1 -0.1)">
       <use xlink:href="#DejaVuSans-33"/>
       <use xlink:href="#DejaVuSans-2e" x="63.623047"/>
       <use xlink:href="#DejaVuSans-30" x="95.410156"/>
      </g>
     </g>
    </g>
    <g id="ytick_13">
     <g id="line2d_26">
      <g>
       <use xlink:href="#maf05da47be" x="400.18125" y="90.705637" style="stroke: #000000; stroke-width: 0.8"/>
      </g>
     </g>
     <g id="text_28">
      <!-- 3.5 -->
      <g transform="translate(377.278125 94.504855) scale(0.1 -0.1)">
       <use xlink:href="#DejaVuSans-33"/>
       <use xlink:href="#DejaVuSans-2e" x="63.623047"/>
       <use xlink:href="#DejaVuSans-35" x="95.410156"/>
      </g>
     </g>
    </g>
    <g id="ytick_14">
     <g id="line2d_27">
      <g>
       <use xlink:href="#maf05da47be" x="400.18125" y="51.270082" style="stroke: #000000; stroke-width: 0.8"/>
      </g>
     </g>
     <g id="text_29">
      <!-- 4.0 -->
      <g transform="translate(377.278125 55.069301) scale(0.1 -0.1)">
       <use xlink:href="#DejaVuSans-34"/>
       <use xlink:href="#DejaVuSans-2e" x="63.623047"/>
       <use xlink:href="#DejaVuSans-30" x="95.410156"/>
      </g>
     </g>
    </g>
    <g id="text_30">
     <!-- Performance vs Chance (×) -->
     <g transform="translate(371.198438 230.247187) rotate(-90) scale(0.1 -0.1)">
      <defs>
       <path id="DejaVuSans-d7" d="M 4488 3438 
L 3059 2003 
L 4488 575 
L 4116 197 
L 2681 1631 
L 1247 197 
L 878 575 
L 2303 2003 
L 878 3438 
L 1247 3816 
L 2681 2381 
L 4116 3816 
L 4488 3438 
z
" transform="scale(0.015625)"/>
      </defs>
      <use xlink:href="#DejaVuSans-50"/>
      <use xlink:href="#DejaVuSans-65" x="56.677734"/>
      <use xlink:href="#DejaVuSans-72" x="118.201172"/>
      <use xlink:href="#DejaVuSans-66" x="159.314453"/>
      <use xlink:href="#DejaVuSans-6f" x="194.519531"/>
      <use xlink:href="#DejaVuSans-72" x="255.701172"/>
      <use xlink:href="#DejaVuSans-6d" x="295.064453"/>
      <use xlink:href="#DejaVuSans-61" x="392.476562"/>
      <use xlink:href="#DejaVuSans-6e" x="453.755859"/>
      <use xlink:href="#DejaVuSans-63" x="517.134766"/>
      <use xlink:href="#DejaVuSans-65" x="572.115234"/>
      <use xlink:href="#DejaVuSans-20" x="633.638672"/>
      <use xlink:href="#DejaVuSans-76" x="665.425781"/>
      <use xlink:href="#DejaVuSans-73" x="724.605469"/>
      <use xlink:href="#DejaVuSans-20" x="776.705078"/>
      <use xlink:href="#DejaVuSans-43" x="808.492188"/>
      <use xlink:href="#DejaVuSans-68" x="878.316406"/>
      <use xlink:href="#DejaVuSans-61" x="941.695312"/>
      <use xlink:href="#DejaVuSans-6e" x="1002.974609"/>
      <use xlink:href="#DejaVuSans-63" x="1066.353516"/>
      <use xlink:href="#DejaVuSans-65" x="1121.333984"/>
      <use xlink:href="#DejaVuSans-20" x="1182.857422"/>
      <use xlink:href="#DejaVuSans-28" x="1214.644531"/>
      <use xlink:href="#DejaVuSans-d7" x="1253.658203"/>
      <use xlink:href="#DejaVuSans-29" x="1337.447266"/>
     </g>
    </g>
   </g>
   <g id="line2d_28">
    <path d="M 400.18125 287.883408 
L 708.72625 287.883408 
" clip-path="url(#p21af6c5e08)" style="fill: none; stroke-dasharray: 5.55,2.4; stroke-dashoffset: 0; stroke: #ff0000; stroke-width: 1.5"/>
   </g>
   <g id="patch_12">
    <path d="M 400.18125 300.529374 
L 400.18125 22.318125 
" style="fill: none; stroke: #000000; stroke-width: 0.8; stroke-linejoin: miter; stroke-linecap: square"/>
   </g>
   <g id="patch_13">
    <path d="M 708.72625 300.529374 
L 708.72625 22.318125 
" style="fill: none; stroke: #000000; stroke-width: 0.8; stroke-linejoin: miter; stroke-linecap: square"/>
   </g>
   <g id="patch_14">
    <path d="M 400.18125 300.529374 
L 708.72625 300.529374 
" style="fill: none; stroke: #000000; stroke-width: 0.8; stroke-linejoin: miter; stroke-linecap: square"/>
   </g>
   <g id="patch_15">
    <path d="M 400.18125 22.318125 
L 708.72625 22.318125 
" style="fill: none; stroke: #000000; stroke-width: 0.8; stroke-linejoin: miter; stroke-linecap: square"/>
   </g>
   <g id="text_31">
    <!-- Sample Size vs Performance -->
    <g transform="translate(469.222813 16.318125) scale(0.12 -0.12)">
     <defs>
      <path id="DejaVuSans-7a" d="M 353 3500 
L 3084 3500 
L 3084 2975 
L 922 459 
L 3084 459 
L 3084 0 
L 275 0 
L 275 525 
L 2438 3041 
L 353 3041 
L 353 3500 
z
" transform="scale(0.015625)"/>
     </defs>
     <use xlink:href="#DejaVuSans-53"/>
     <use xlink:href="#DejaVuSans-61" x="63.476562"/>
     <use xlink:href="#DejaVuSans-6d" x="124.755859"/>
     <use xlink:href="#DejaVuSans-70" x="222.167969"/>
     <use xlink:href="#DejaVuSans-6c" x="285.644531"/>
     <use xlink:href="#DejaVuSans-65" x="313.427734"/>
     <use xlink:href="#DejaVuSans-20" x="374.951172"/>
     <use xlink:href="#DejaVuSans-53" x="406.738281"/>
     <use xlink:href="#DejaVuSans-69" x="470.214844"/>
     <use xlink:href="#DejaVuSans-7a" x="497.998047"/>
     <use xlink:href="#DejaVuSans-65" x="550.488281"/>
     <use xlink:href="#DejaVuSans-20" x="612.011719"/>
     <use xlink:href="#DejaVuSans-76" x="643.798828"/>
     <use xlink:href="#DejaVuSans-73" x="702.978516"/>
     <use xlink:href="#DejaVuSans-20" x="755.078125"/>
     <use xlink:href="#DejaVuSans-50" x="786.865234"/>
     <use xlink:href="#DejaVuSans-65" x="843.542969"/>
     <use xlink:href="#DejaVuSans-72" x="905.066406"/>
     <use xlink:href="#DejaVuSans-66" x="946.179688"/>
     <use xlink:href="#DejaVuSans-6f" x="981.384766"/>
     <use xlink:href="#DejaVuSans-72" x="1042.566406"/>
     <use xlink:href="#DejaVuSans-6d" x="1081.929688"/>
     <use xlink:href="#DejaVuSans-61" x="1179.341797"/>
     <use xlink:href="#DejaVuSans-6e" x="1240.621094"/>
     <use xlink:href="#DejaVuSans-63" x="1304"/>
     <use xlink:href="#DejaVuSans-65" x="1358.980469"/>
    </g>
   </g>
   <g id="PathCollection_3">
    <defs>
     <path id="m26ae1f0d7e" d="M 0 7.071068 
C 1.875269 7.071068 3.673985 6.326016 5 5 
C 6.326016 3.673985 7.071068 1.875269 7.071068 0 
C 7.071068 -1.875269 6.326016 -3.673985 5 -5 
C 3.673985 -6.326016 1.875269 -7.071068 0 -7.071068 
C -1.875269 -7.071068 -3.673985 -6.326016 -5 -5 
C -6.326016 -3.673985 -7.071068 -1.875269 -7.071068 0 
C -7.071068 1.875269 -6.326016 3.673985 -5 5 
C -3.673985 6.326016 -1.875269 7.071068 0 7.071068 
z
" style="stroke: #2ecc71"/>
    </defs>
    <g clip-path="url(#p21af6c5e08)">
     <use xlink:href="#m26ae1f0d7e" x="694.701477" y="206.155866" style="fill: #2ecc71; stroke: #2ecc71"/>
    </g>
   </g>
   <g id="PathCollection_4">
    <defs>
     <path id="m7847fb1e0b" d="M 0 7.071068 
C 1.875269 7.071068 3.673985 6.326016 5 5 
C 6.326016 3.673985 7.071068 1.875269 7.071068 0 
C 7.071068 -1.875269 6.326016 -3.673985 5 -5 
C 3.673985 -6.326016 1.875269 -7.071068 0 -7.071068 
C -1.875269 -7.071068 -3.673985 -6.326016 -5 -5 
C -6.326016 -3.673985 -7.071068 -1.875269 -7.071068 0 
C -7.071068 1.875269 -6.326016 3.673985 -5 5 
C -3.673985 6.326016 -1.875269 7.071068 0 7.071068 
z
" style="stroke: #3498db"/>
    </defs>
    <g clip-path="url(#p21af6c5e08)">
     <use xlink:href="#m7847fb1e0b" x="514.108513" y="34.964091" style="fill: #3498db; stroke: #3498db"/>
    </g>
   </g>
   <g id="PathCollection_5">
    <defs>
     <path id="mc3f540cbc7" d="M 0 7.071068 
C 1.875269 7.071068 3.673985 6.326016 5 5 
C 6.326016 3.673985 7.071068 1.875269 7.071068 0 
C 7.071068 -1.875269 6.326016 -3.673985 5 -5 
C 3.673985 -6.326016 1.875269 -7.071068 0 -7.071068 
C -1.875269 -7.071068 -3.673985 -6.326016 -5 -5 
C -6.326016 -3.673985 -7.071068 -1.875269 -7.071068 0 
C -7.071068 1.875269 -6.326016 3.673985 -5 5 
C -3.673985 6.326016 -1.875269 7.071068 0 7.071068 
z
" style="stroke: #9b59b6"/>
    </defs>
    <g clip-path="url(#p21af6c5e08)">
     <use xlink:href="#mc3f540cbc7" x="414.206023" y="250.191631" style="fill: #9b59b6; stroke: #9b59b6"/>
    </g>
   </g>
   <g id="legend_2">
    <g id="patch_16">
     <path d="M 561.073125 89.030625 
L 701.72625 89.030625 
Q 703.72625 89.030625 703.72625 87.030625 
L 703.72625 29.318125 
Q 703.72625 27.318125 701.72625 27.318125 
L 561.073125 27.318125 
Q 559.073125 27.318125 559.073125 29.318125 
L 559.073125 87.030625 
Q 559.073125 89.030625 561.073125 89.030625 
z
" style="fill: #ffffff; opacity: 0.8; stroke: #cccccc; stroke-linejoin: miter"/>
    </g>
    <g id="PathCollection_6">
     <g>
      <use xlink:href="#m26ae1f0d7e" x="573.073125" y="36.291562" style="fill: #2ecc71; stroke: #2ecc71"/>
     </g>
    </g>
    <g id="text_32">
     <!-- Terminal Motif -->
     <g transform="translate(591.073125 38.916562) scale(0.1 -0.1)">
      <use xlink:href="#DejaVuSans-54"/>
      <use xlink:href="#DejaVuSans-65" x="44.083984"/>
      <use xlink:href="#DejaVuSans-72" x="105.607422"/>
      <use xlink:href="#DejaVuSans-6d" x="144.970703"/>
      <use xlink:href="#DejaVuSans-69" x="242.382812"/>
      <use xlink:href="#DejaVuSans-6e" x="270.166016"/>
      <use xlink:href="#DejaVuSans-61" x="333.544922"/>
      <use xlink:href="#DejaVuSans-6c" x="394.824219"/>
      <use xlink:href="#DejaVuSans-20" x="422.607422"/>
      <use xlink:href="#DejaVuSans-4d" x="454.394531"/>
      <use xlink:href="#DejaVuSans-6f" x="540.673828"/>
      <use xlink:href="#DejaVuSans-74" x="601.855469"/>
      <use xlink:href="#DejaVuSans-69" x="641.064453"/>
      <use xlink:href="#DejaVuSans-66" x="668.847656"/>
     </g>
    </g>
    <g id="PathCollection_7">
     <g>
      <use xlink:href="#m7847fb1e0b" x="573.073125" y="50.969687" style="fill: #3498db; stroke: #3498db"/>
     </g>
    </g>
    <g id="text_33">
     <!-- Fine-Grained (MIN≥5) -->
     <g transform="translate(591.073125 53.594687) scale(0.1 -0.1)">
      <use xlink:href="#DejaVuSans-46"/>
      <use xlink:href="#DejaVuSans-69" x="50.269531"/>
      <use xlink:href="#DejaVuSans-6e" x="78.052734"/>
      <use xlink:href="#DejaVuSans-65" x="141.431641"/>
      <use xlink:href="#DejaVuSans-2d" x="202.955078"/>
      <use xlink:href="#DejaVuSans-47" x="242.664062"/>
      <use xlink:href="#DejaVuSans-72" x="320.154297"/>
      <use xlink:href="#DejaVuSans-61" x="361.267578"/>
      <use xlink:href="#DejaVuSans-69" x="422.546875"/>
      <use xlink:href="#DejaVuSans-6e" x="450.330078"/>
      <use xlink:href="#DejaVuSans-65" x="513.708984"/>
      <use xlink:href="#DejaVuSans-64" x="575.232422"/>
      <use xlink:href="#DejaVuSans-20" x="638.708984"/>
      <use xlink:href="#DejaVuSans-28" x="670.496094"/>
      <use xlink:href="#DejaVuSans-4d" x="709.509766"/>
      <use xlink:href="#DejaVuSans-49" x="795.789062"/>
      <use xlink:href="#DejaVuSans-4e" x="825.28125"/>
      <use xlink:href="#DejaVuSans-2265" x="900.085938"/>
      <use xlink:href="#DejaVuSans-35" x="983.875"/>
      <use xlink:href="#DejaVuSans-29" x="1047.498047"/>
     </g>
    </g>
    <g id="PathCollection_8">
     <g>
      <use xlink:href="#mc3f540cbc7" x="573.073125" y="65.647812" style="fill: #9b59b6; stroke: #9b59b6"/>
     </g>
    </g>
    <g id="text_34">
     <!-- Original (MIN≥10) -->
     <g transform="translate(591.073125 68.272812) scale(0.1 -0.1)">
      <use xlink:href="#DejaVuSans-4f"/>
      <use xlink:href="#DejaVuSans-72" x="78.710938"/>
      <use xlink:href="#DejaVuSans-69" x="119.824219"/>
      <use xlink:href="#DejaVuSans-67" x="147.607422"/>
      <use xlink:href="#DejaVuSans-69" x="211.083984"/>
      <use xlink:href="#DejaVuSans-6e" x="238.867188"/>
      <use xlink:href="#DejaVuSans-61" x="302.246094"/>
      <use xlink:href="#DejaVuSans-6c" x="363.525391"/>
      <use xlink:href="#DejaVuSans-20" x="391.308594"/>
      <use xlink:href="#DejaVuSans-28" x="423.095703"/>
      <use xlink:href="#DejaVuSans-4d" x="462.109375"/>
      <use xlink:href="#DejaVuSans-49" x="548.388672"/>
      <use xlink:href="#DejaVuSans-4e" x="577.880859"/>
      <use xlink:href="#DejaVuSans-2265" x="652.685547"/>
      <use xlink:href="#DejaVuSans-31" x="736.474609"/>
      <use xlink:href="#DejaVuSans-30" x="800.097656"/>
      <use xlink:href="#DejaVuSans-29" x="863.720703"/>
     </g>
    </g>
    <g id="line2d_29">
     <path d="M 563.073125 79.450937 
L 573.073125 79.450937 
L 583.073125 79.450937 
" style="fill: none; stroke-dasharray: 5.55,2.4; stroke-dashoffset: 0; stroke: #ff0000; stroke-width: 1.5"/>
    </g>
    <g id="text_35">
     <!-- Chance (1.0×) -->
     <g transform="translate(591.073125 82.950937) scale(0.1 -0.1)">
      <use xlink:href="#DejaVuSans-43"/>
      <use xlink:href="#DejaVuSans-68" x="69.824219"/>
      <use xlink:href="#DejaVuSans-61" x="133.203125"/>
      <use xlink:href="#DejaVuSans-6e" x="194.482422"/>
      <use xlink:href="#DejaVuSans-63" x="257.861328"/>
      <use xlink:href="#DejaVuSans-65" x="312.841797"/>
      <use xlink:href="#DejaVuSans-20" x="374.365234"/>
      <use xlink:href="#DejaVuSans-28" x="406.152344"/>
      <use xlink:href="#DejaVuSans-31" x="445.166016"/>
      <use xlink:href="#DejaVuSans-2e" x="508.789062"/>
      <use xlink:href="#DejaVuSans-30" x="540.576172"/>
      <use xlink:href="#DejaVuSans-d7" x="604.199219"/>
      <use xlink:href="#DejaVuSans-29" x="687.988281"/>
     </g>
    </g>
   </g>
  </g>
  <g id="axes_3">
   <g id="patch_17">
    <path d="M 756.58125 300.529374 
L 1065.12625 300.529374 
L 1065.12625 22.318125 
L 756.58125 22.318125 
z
" style="fill: #ffffff"/>
   </g>
   <g id="patch_18">
    <path d="M 770.606023 300.529374 
L 788.767599 300.529374 
L 788.767599 35.56628 
L 770.606023 35.56628 
z
" clip-path="url(#pe2033c45d1)" style="fill: #1f77b4; opacity: 0.7"/>
   </g>
   <g id="patch_19">
    <path d="M 790.785552 300.529374 
L 808.947128 300.529374 
L 808.947128 224.390553 
L 790.785552 224.390553 
z
" clip-path="url(#pe2033c45d1)" style="fill: #1f77b4; opacity: 0.7"/>
   </g>
   <g id="patch_20">
    <path d="M 810.965081 300.529374 
L 829.126657 300.529374 
L 829.126657 136.069522 
L 810.965081 136.069522 
z
" clip-path="url(#pe2033c45d1)" style="fill: #1f77b4; opacity: 0.7"/>
   </g>
   <g id="patch_21">
    <path d="M 831.14461 300.529374 
L 849.306186 300.529374 
L 849.306186 251.800529 
L 831.14461 251.800529 
z
" clip-path="url(#pe2033c45d1)" style="fill: #1f77b4; opacity: 0.7"/>
   </g>
   <g id="patch_22">
    <path d="M 871.503668 300.529374 
L 889.665244 300.529374 
L 889.665244 169.570603 
L 871.503668 169.570603 
z
" clip-path="url(#pe2033c45d1)" style="fill: #ff7f0e; opacity: 0.7"/>
   </g>
   <g id="patch_23">
    <path d="M 891.683197 300.529374 
L 909.844774 300.529374 
L 909.844774 212.208342 
L 891.683197 212.208342 
z
" clip-path="url(#pe2033c45d1)" style="fill: #ff7f0e; opacity: 0.7"/>
   </g>
   <g id="patch_24">
    <path d="M 911.862726 300.529374 
L 930.024303 300.529374 
L 930.024303 242.66387 
L 911.862726 242.66387 
z
" clip-path="url(#pe2033c45d1)" style="fill: #ff7f0e; opacity: 0.7"/>
   </g>
   <g id="patch_25">
    <path d="M 932.042256 300.529374 
L 950.203832 300.529374 
L 950.203832 273.119398 
L 932.042256 273.119398 
z
" clip-path="url(#pe2033c45d1)" style="fill: #ff7f0e; opacity: 0.7"/>
   </g>
   <g id="patch_26">
    <path d="M 952.221785 300.529374 
L 970.383361 300.529374 
L 970.383361 245.709423 
L 952.221785 245.709423 
z
" clip-path="url(#pe2033c45d1)" style="fill: #ff7f0e; opacity: 0.7"/>
   </g>
   <g id="patch_27">
    <path d="M 972.401314 300.529374 
L 990.56289 300.529374 
L 990.56289 282.256057 
L 972.401314 282.256057 
z
" clip-path="url(#pe2033c45d1)" style="fill: #ff7f0e; opacity: 0.7"/>
   </g>
   <g id="patch_28">
    <path d="M 992.580843 300.529374 
L 1010.742419 300.529374 
L 1010.742419 282.256057 
L 992.580843 282.256057 
z
" clip-path="url(#pe2033c45d1)" style="fill: #ff7f0e; opacity: 0.7"/>
   </g>
   <g id="patch_29">
    <path d="M 1012.760372 300.529374 
L 1030.921948 300.529374 
L 1030.921948 285.30161 
L 1012.760372 285.30161 
z
" clip-path="url(#pe2033c45d1)" style="fill: #ff7f0e; opacity: 0.7"/>
   </g>
   <g id="patch_30">
    <path d="M 972.401314 300.529374 
L 990.56289 300.529374 
L 990.56289 169.570603 
L 972.401314 169.570603 
z
" clip-path="url(#pe2033c45d1)" style="fill: #2ca02c; opacity: 0.7"/>
   </g>
   <g id="patch_31">
    <path d="M 992.580843 300.529374 
L 1010.742419 300.529374 
L 1010.742419 212.208342 
L 992.580843 212.208342 
z
" clip-path="url(#pe2033c45d1)" style="fill: #2ca02c; opacity: 0.7"/>
   </g>
   <g id="patch_32">
    <path d="M 1012.760372 300.529374 
L 1030.921948 300.529374 
L 1030.921948 242.66387 
L 1012.760372 242.66387 
z
" clip-path="url(#pe2033c45d1)" style="fill: #2ca02c; opacity: 0.7"/>
   </g>
   <g id="patch_33">
    <path d="M 1032.939901 300.529374 
L 1051.101477 300.529374 
L 1051.101477 245.709423 
L 1032.939901 245.709423 
z
" clip-path="url(#pe2033c45d1)" style="fill: #2ca02c; opacity: 0.7"/>
   </g>
   <g id="matplotlib.axis_5">
    <g id="xtick_12">
     <g id="line2d_30">
      <g>
       <use xlink:href="#ma12c8d0779" x="809.956104" y="300.529374" style="stroke: #000000; stroke-width: 0.8"/>
      </g>
     </g>
     <g id="text_36">
      <!-- Terminal -->
      <g transform="translate(788.826417 315.127811) scale(0.1 -0.1)">
       <use xlink:href="#DejaVuSans-54"/>
       <use xlink:href="#DejaVuSans-65" x="44.083984"/>
       <use xlink:href="#DejaVuSans-72" x="105.607422"/>
       <use xlink:href="#DejaVuSans-6d" x="144.970703"/>
       <use xlink:href="#DejaVuSans-69" x="242.382812"/>
       <use xlink:href="#DejaVuSans-6e" x="270.166016"/>
       <use xlink:href="#DejaVuSans-61" x="333.544922"/>
       <use xlink:href="#DejaVuSans-6c" x="394.824219"/>
      </g>
     </g>
    </g>
    <g id="xtick_13">
     <g id="line2d_31">
      <g>
       <use xlink:href="#ma12c8d0779" x="910.85375" y="300.529374" style="stroke: #000000; stroke-width: 0.8"/>
      </g>
     </g>
     <g id="text_37">
      <!-- Fine-Grained -->
      <g transform="translate(878.918594 315.127811) scale(0.1 -0.1)">
       <use xlink:href="#DejaVuSans-46"/>
       <use xlink:href="#DejaVuSans-69" x="50.269531"/>
       <use xlink:href="#DejaVuSans-6e" x="78.052734"/>
       <use xlink:href="#DejaVuSans-65" x="141.431641"/>
       <use xlink:href="#DejaVuSans-2d" x="202.955078"/>
       <use xlink:href="#DejaVuSans-47" x="242.664062"/>
       <use xlink:href="#DejaVuSans-72" x="320.154297"/>
       <use xlink:href="#DejaVuSans-61" x="361.267578"/>
       <use xlink:href="#DejaVuSans-69" x="422.546875"/>
       <use xlink:href="#DejaVuSans-6e" x="450.330078"/>
       <use xlink:href="#DejaVuSans-65" x="513.708984"/>
       <use xlink:href="#DejaVuSans-64" x="575.232422"/>
      </g>
     </g>
    </g>
    <g id="xtick_14">
     <g id="line2d_32">
      <g>
       <use xlink:href="#ma12c8d0779" x="1011.751396" y="300.529374" style="stroke: #000000; stroke-width: 0.8"/>
      </g>
     </g>
     <g id="text_38">
      <!-- Original -->
      <g transform="translate(992.185771 315.127811) scale(0.1 -0.1)">
       <use xlink:href="#DejaVuSans-4f"/>
       <use xlink:href="#DejaVuSans-72" x="78.710938"/>
       <use xlink:href="#DejaVuSans-69" x="119.824219"/>
       <use xlink:href="#DejaVuSans-67" x="147.607422"/>
       <use xlink:href="#DejaVuSans-69" x="211.083984"/>
       <use xlink:href="#DejaVuSans-6e" x="238.867188"/>
       <use xlink:href="#DejaVuSans-61" x="302.246094"/>
       <use xlink:href="#DejaVuSans-6c" x="363.525391"/>
      </g>
     </g>
    </g>
    <g id="text_39">
     <!-- Strategy -->
     <g transform="translate(889.429531 328.805936) scale(0.1 -0.1)">
      <use xlink:href="#DejaVuSans-53"/>
      <use xlink:href="#DejaVuSans-74" x="63.476562"/>
      <use xlink:href="#DejaVuSans-72" x="102.685547"/>
      <use xlink:href="#DejaVuSans-61" x="143.798828"/>
      <use xlink:href="#DejaVuSans-74" x="205.078125"/>
      <use xlink:href="#DejaVuSans-65" x="244.287109"/>
      <use xlink:href="#DejaVuSans-67" x="305.810547"/>
      <use xlink:href="#DejaVuSans-79" x="369.287109"/>
     </g>
    </g>
   </g>
   <g id="matplotlib.axis_6">
    <g id="ytick_15">
     <g id="line2d_33">
      <g>
       <use xlink:href="#maf05da47be" x="756.58125" y="300.529374" style="stroke: #000000; stroke-width: 0.8"/>
      </g>
     </g>
     <g id="text_40">
      <!-- 0 -->
      <g transform="translate(743.21875 304.328592) scale(0.1 -0.1)">
       <use xlink:href="#DejaVuSans-30"/>
      </g>
     </g>
    </g>
    <g id="ytick_16">
     <g id="line2d_34">
      <g>
       <use xlink:href="#maf05da47be" x="756.58125" y="239.618317" style="stroke: #000000; stroke-width: 0.8"/>
      </g>
     </g>
     <g id="text_41">
      <!-- 20 -->
      <g transform="translate(736.85625 243.417536) scale(0.1 -0.1)">
       <use xlink:href="#DejaVuSans-32"/>
       <use xlink:href="#DejaVuSans-30" x="63.623047"/>
      </g>
     </g>
    </g>
    <g id="ytick_17">
     <g id="line2d_35">
      <g>
       <use xlink:href="#maf05da47be" x="756.58125" y="178.707261" style="stroke: #000000; stroke-width: 0.8"/>
      </g>
     </g>
     <g id="text_42">
      <!-- 40 -->
      <g transform="translate(736.85625 182.50648) scale(0.1 -0.1)">
       <use xlink:href="#DejaVuSans-34"/>
       <use xlink:href="#DejaVuSans-30" x="63.623047"/>
      </g>
     </g>
    </g>
    <g id="ytick_18">
     <g id="line2d_36">
      <g>
       <use xlink:href="#maf05da47be" x="756.58125" y="117.796205" style="stroke: #000000; stroke-width: 0.8"/>
      </g>
     </g>
     <g id="text_43">
      <!-- 60 -->
      <g transform="translate(736.85625 121.595424) scale(0.1 -0.1)">
       <use xlink:href="#DejaVuSans-36"/>
       <use xlink:href="#DejaVuSans-30" x="63.623047"/>
      </g>
     </g>
    </g>
    <g id="ytick_19">
     <g id="line2d_37">
      <g>
       <use xlink:href="#maf05da47be" x="756.58125" y="56.885149" style="stroke: #000000; stroke-width: 0.8"/>
      </g>
     </g>
     <g id="text_44">
      <!-- 80 -->
      <g transform="translate(736.85625 60.684368) scale(0.1 -0.1)">
       <use xlink:href="#DejaVuSans-38"/>
       <use xlink:href="#DejaVuSans-30" x="63.623047"/>
      </g>
     </g>
    </g>
    <g id="text_45">
     <!-- Samples per Class -->
     <g transform="translate(730.776562 207.415156) rotate(-90) scale(0.1 -0.1)">
      <use xlink:href="#DejaVuSans-53"/>
      <use xlink:href="#DejaVuSans-61" x="63.476562"/>
      <use xlink:href="#DejaVuSans-6d" x="124.755859"/>
      <use xlink:href="#DejaVuSans-70" x="222.167969"/>
      <use xlink:href="#DejaVuSans-6c" x="285.644531"/>
      <use xlink:href="#DejaVuSans-65" x="313.427734"/>
      <use xlink:href="#DejaVuSans-73" x="374.951172"/>
      <use xlink:href="#DejaVuSans-20" x="427.050781"/>
      <use xlink:href="#DejaVuSans-70" x="458.837891"/>
      <use xlink:href="#DejaVuSans-65" x="522.314453"/>
      <use xlink:href="#DejaVuSans-72" x="583.837891"/>
      <use xlink:href="#DejaVuSans-20" x="624.951172"/>
      <use xlink:href="#DejaVuSans-43" x="656.738281"/>
      <use xlink:href="#DejaVuSans-6c" x="726.5625"/>
      <use xlink:href="#DejaVuSans-61" x="754.345703"/>
      <use xlink:href="#DejaVuSans-73" x="815.625"/>
      <use xlink:href="#DejaVuSans-73" x="867.724609"/>
     </g>
    </g>
   </g>
   <g id="patch_34">
    <path d="M 756.58125 300.529374 
L 756.58125 22.318125 
" style="fill: none; stroke: #000000; stroke-width: 0.8; stroke-linejoin: miter; stroke-linecap: square"/>
   </g>
   <g id="patch_35">
    <path d="M 1065.12625 300.529374 
L 1065.12625 22.318125 
" style="fill: none; stroke: #000000; stroke-width: 0.8; stroke-linejoin: miter; stroke-linecap: square"/>
   </g>
   <g id="patch_36">
    <path d="M 756.58125 300.529374 
L 1065.12625 300.529374 
" style="fill: none; stroke: #000000; stroke-width: 0.8; stroke-linejoin: miter; stroke-linecap: square"/>
   </g>
   <g id="patch_37">
    <path d="M 756.58125 22.318125 
L 1065.12625 22.318125 
" style="fill: none; stroke: #000000; stroke-width: 0.8; stroke-linejoin: miter; stroke-linecap: square"/>
   </g>
   <g id="text_46">
    <!-- Class Balance by Strategy -->
    <g transform="translate(832.348438 16.318125) scale(0.12 -0.12)">
     <use xlink:href="#DejaVuSans-43"/>
     <use xlink:href="#DejaVuSans-6c" x="69.824219"/>
     <use xlink:href="#DejaVuSans-61" x="97.607422"/>
     <use xlink:href="#DejaVuSans-73" x="158.886719"/>
     <use xlink:href="#DejaVuSans-73" x="210.986328"/>
     <use xlink:href="#DejaVuSans-20" x="263.085938"/>
     <use xlink:href="#DejaVuSans-42" x="294.873047"/>
     <use xlink:href="#DejaVuSans-61" x="363.476562"/>
     <use xlink:href="#DejaVuSans-6c" x="424.755859"/>
     <use xlink:href="#DejaVuSans-61" x="452.539062"/>
     <use xlink:href="#DejaVuSans-6e" x="513.818359"/>
     <use xlink:href="#DejaVuSans-63" x="577.197266"/>
     <use xlink:href="#DejaVuSans-65" x="632.177734"/>
     <use xlink:href="#DejaVuSans-20" x="693.701172"/>
     <use xlink:href="#DejaVuSans-62" x="725.488281"/>
     <use xlink:href="#DejaVuSans-79" x="788.964844"/>
     <use xlink:href="#DejaVuSans-20" x="848.144531"/>
     <use xlink:href="#DejaVuSans-53" x="879.931641"/>
     <use xlink:href="#DejaVuSans-74" x="943.408203"/>
     <use xlink:href="#DejaVuSans-72" x="982.617188"/>
     <use xlink:href="#DejaVuSans-61" x="1023.730469"/>
     <use xlink:href="#DejaVuSans-74" x="1085.009766"/>
     <use xlink:href="#DejaVuSans-65" x="1124.21875"/>
     <use xlink:href="#DejaVuSans-67" x="1185.742188"/>
     <use xlink:href="#DejaVuSans-79" x="1249.21875"/>
    </g>
   </g>
  </g>
 </g>
 <defs>
  <clipPath id="p86299fb588">
   <rect x="43.78125" y="22.318125" width="308.545" height="278.211249"/>
  </clipPath>
  <clipPath id="p21af6c5e08">
   <rect x="400.18125" y="22.318125" width="308.545" height="278.211249"/>
  </clipPath>
  <clipPath id="pe2033c45d1">
   <rect x="756.58125" y="22.318125" width="308.545" height="278.211249"/>
  </clipPath>
 </defs>
</svg>
