<?xml version="1.0" encoding="utf-8" standalone="no"?>
<!DOCTYPE svg PUBLIC "-//W3C//DTD SVG 1.1//EN"
  "http://www.w3.org/Graphics/SVG/1.1/DTD/svg11.dtd">
<svg xmlns:xlink="http://www.w3.org/1999/xlink" width="998.2725pt" height="426.126562pt" viewBox="0 0 998.2725 426.126562" xmlns="http://www.w3.org/2000/svg" version="1.1">
 <metadata>
  <rdf:RDF xmlns:dc="http://purl.org/dc/elements/1.1/" xmlns:cc="http://creativecommons.org/ns#" xmlns:rdf="http://www.w3.org/1999/02/22-rdf-syntax-ns#">
   <cc:Work>
    <dc:type rdf:resource="http://purl.org/dc/dcmitype/StillImage"/>
    <dc:date>2026-01-12T10:05:09.471655</dc:date>
    <dc:format>image/svg+xml</dc:format>
    <dc:creator>
     <cc:Agent>
      <dc:title>Matplotlib v3.9.2, https://matplotlib.org/</dc:title>
     </cc:Agent>
    </dc:creator>
   </cc:Work>
  </rdf:RDF>
 </metadata>
 <defs>
  <style type="text/css">*{stroke-linejoin: round; stroke-linecap: butt}</style>
 </defs>
 <g id="figure_1">
  <g id="patch_1">
   <path d="M 0 426.126562 
L 998.2725 426.126562 
L 998.2725 0 
L 0 0 
z
" style="fill: #ffffff"/>
  </g>
  <g id="axes_1">
   <g id="patch_2">
    <path d="M 93.3125 386.22 
L 532.233841 386.22 
L 532.233841 67.872 
L 93.3125 67.872 
z
" style="fill: #ffffff"/>
   </g>
   <g id="matplotlib.axis_1">
    <g id="xtick_1">
     <g id="line2d_1">
      <path d="M 137.204634 386.22 
L 137.204634 67.872 
" clip-path="url(#p5b5e137bda)" style="fill: none; stroke: #cccccc; stroke-width: 0.8; stroke-linecap: round"/>
     </g>
     <g id="text_1">
      <!-- −0.4 -->
      <g style="fill: #262626" transform="translate(127.334322 401.677812) scale(0.1 -0.1)">
       <defs>
        <path id="ArialMT-2212" d="M 3381 1997 
L 356 1997 
L 356 2522 
L 3381 2522 
L 3381 1997 
z
" transform="scale(0.015625)"/>
        <path id="ArialMT-30" d="M 266 2259 
Q 266 3072 433 3567 
Q 600 4063 929 4331 
Q 1259 4600 1759 4600 
Q 2128 4600 2406 4451 
Q 2684 4303 2865 4023 
Q 3047 3744 3150 3342 
Q 3253 2941 3253 2259 
Q 3253 1453 3087 958 
Q 2922 463 2592 192 
Q 2263 -78 1759 -78 
Q 1097 -78 719 397 
Q 266 969 266 2259 
z
M 844 2259 
Q 844 1131 1108 757 
Q 1372 384 1759 384 
Q 2147 384 2411 759 
Q 2675 1134 2675 2259 
Q 2675 3391 2411 3762 
Q 2147 4134 1753 4134 
Q 1366 4134 1134 3806 
Q 844 3388 844 2259 
z
" transform="scale(0.015625)"/>
        <path id="ArialMT-2e" d="M 581 0 
L 581 641 
L 1222 641 
L 1222 0 
L 581 0 
z
" transform="scale(0.015625)"/>
        <path id="ArialMT-34" d="M 2069 0 
L 2069 1097 
L 81 1097 
L 81 1613 
L 2172 4581 
L 2631 4581 
L 2631 1613 
L 3250 1613 
L 3250 1097 
L 2631 1097 
L 2631 0 
L 2069 0 
z
M 2069 1613 
L 2069 3678 
L 634 1613 
L 2069 1613 
z
" transform="scale(0.015625)"/>
       </defs>
       <use xlink:href="#ArialMT-2212"/>
       <use xlink:href="#ArialMT-30" x="58.398438"/>
       <use xlink:href="#ArialMT-2e" x="114.013672"/>
       <use xlink:href="#ArialMT-34" x="141.796875"/>
      </g>
     </g>
    </g>
    <g id="xtick_2">
     <g id="line2d_2">
      <path d="M 224.988902 386.22 
L 224.988902 67.872 
" clip-path="url(#p5b5e137bda)" style="fill: none; stroke: #cccccc; stroke-width: 0.8; stroke-linecap: round"/>
     </g>
     <g id="text_2">
      <!-- −0.2 -->
      <g style="fill: #262626" transform="translate(215.11859 401.677812) scale(0.1 -0.1)">
       <defs>
        <path id="ArialMT-32" d="M 3222 541 
L 3222 0 
L 194 0 
Q 188 203 259 391 
Q 375 700 629 1000 
Q 884 1300 1366 1694 
Q 2113 2306 2375 2664 
Q 2638 3022 2638 3341 
Q 2638 3675 2398 3904 
Q 2159 4134 1775 4134 
Q 1369 4134 1125 3890 
Q 881 3647 878 3216 
L 300 3275 
Q 359 3922 746 4261 
Q 1134 4600 1788 4600 
Q 2447 4600 2831 4234 
Q 3216 3869 3216 3328 
Q 3216 3053 3103 2787 
Q 2991 2522 2730 2228 
Q 2469 1934 1863 1422 
Q 1356 997 1212 845 
Q 1069 694 975 541 
L 3222 541 
z
" transform="scale(0.015625)"/>
       </defs>
       <use xlink:href="#ArialMT-2212"/>
       <use xlink:href="#ArialMT-30" x="58.398438"/>
       <use xlink:href="#ArialMT-2e" x="114.013672"/>
       <use xlink:href="#ArialMT-32" x="141.796875"/>
      </g>
     </g>
    </g>
    <g id="xtick_3">
     <g id="line2d_3">
      <path d="M 312.77317 386.22 
L 312.77317 67.872 
" clip-path="url(#p5b5e137bda)" style="fill: none; stroke: #cccccc; stroke-width: 0.8; stroke-linecap: round"/>
     </g>
     <g id="text_3">
      <!-- 0.0 -->
      <g style="fill: #262626" transform="translate(305.82317 401.677812) scale(0.1 -0.1)">
       <use xlink:href="#ArialMT-30"/>
       <use xlink:href="#ArialMT-2e" x="55.615234"/>
       <use xlink:href="#ArialMT-30" x="83.398438"/>
      </g>
     </g>
    </g>
    <g id="xtick_4">
     <g id="line2d_4">
      <path d="M 400.557438 386.22 
L 400.557438 67.872 
" clip-path="url(#p5b5e137bda)" style="fill: none; stroke: #cccccc; stroke-width: 0.8; stroke-linecap: round"/>
     </g>
     <g id="text_4">
      <!-- 0.2 -->
      <g style="fill: #262626" transform="translate(393.607438 401.677812) scale(0.1 -0.1)">
       <use xlink:href="#ArialMT-30"/>
       <use xlink:href="#ArialMT-2e" x="55.615234"/>
       <use xlink:href="#ArialMT-32" x="83.398438"/>
      </g>
     </g>
    </g>
    <g id="xtick_5">
     <g id="line2d_5">
      <path d="M 488.341706 386.22 
L 488.341706 67.872 
" clip-path="url(#p5b5e137bda)" style="fill: none; stroke: #cccccc; stroke-width: 0.8; stroke-linecap: round"/>
     </g>
     <g id="text_5">
      <!-- 0.4 -->
      <g style="fill: #262626" transform="translate(481.391706 401.677812) scale(0.1 -0.1)">
       <use xlink:href="#ArialMT-30"/>
       <use xlink:href="#ArialMT-2e" x="55.615234"/>
       <use xlink:href="#ArialMT-34" x="83.398438"/>
      </g>
     </g>
    </g>
    <g id="text_6">
     <!-- Point-Biserial Correlation (r) -->
     <g style="fill: #262626" transform="translate(238.75567 416.400937) scale(0.12 -0.12)">
      <defs>
       <path id="ArialMT-50" d="M 494 0 
L 494 4581 
L 2222 4581 
Q 2678 4581 2919 4538 
Q 3256 4481 3484 4323 
Q 3713 4166 3852 3881 
Q 3991 3597 3991 3256 
Q 3991 2672 3619 2267 
Q 3247 1863 2275 1863 
L 1100 1863 
L 1100 0 
L 494 0 
z
M 1100 2403 
L 2284 2403 
Q 2872 2403 3119 2622 
Q 3366 2841 3366 3238 
Q 3366 3525 3220 3729 
Q 3075 3934 2838 4000 
Q 2684 4041 2272 4041 
L 1100 4041 
L 1100 2403 
z
" transform="scale(0.015625)"/>
       <path id="ArialMT-6f" d="M 213 1659 
Q 213 2581 725 3025 
Q 1153 3394 1769 3394 
Q 2453 3394 2887 2945 
Q 3322 2497 3322 1706 
Q 3322 1066 3130 698 
Q 2938 331 2570 128 
Q 2203 -75 1769 -75 
Q 1072 -75 642 372 
Q 213 819 213 1659 
z
M 791 1659 
Q 791 1022 1069 705 
Q 1347 388 1769 388 
Q 2188 388 2466 706 
Q 2744 1025 2744 1678 
Q 2744 2294 2464 2611 
Q 2184 2928 1769 2928 
Q 1347 2928 1069 2612 
Q 791 2297 791 1659 
z
" transform="scale(0.015625)"/>
       <path id="ArialMT-69" d="M 425 3934 
L 425 4581 
L 988 4581 
L 988 3934 
L 425 3934 
z
M 425 0 
L 425 3319 
L 988 3319 
L 988 0 
L 425 0 
z
" transform="scale(0.015625)"/>
       <path id="ArialMT-6e" d="M 422 0 
L 422 3319 
L 928 3319 
L 928 2847 
Q 1294 3394 1984 3394 
Q 2284 3394 2536 3286 
Q 2788 3178 2913 3003 
Q 3038 2828 3088 2588 
Q 3119 2431 3119 2041 
L 3119 0 
L 2556 0 
L 2556 2019 
Q 2556 2363 2490 2533 
Q 2425 2703 2258 2804 
Q 2091 2906 1866 2906 
Q 1506 2906 1245 2678 
Q 984 2450 984 1813 
L 984 0 
L 422 0 
z
" transform="scale(0.015625)"/>
       <path id="ArialMT-74" d="M 1650 503 
L 1731 6 
Q 1494 -44 1306 -44 
Q 1000 -44 831 53 
Q 663 150 594 308 
Q 525 466 525 972 
L 525 2881 
L 113 2881 
L 113 3319 
L 525 3319 
L 525 4141 
L 1084 4478 
L 1084 3319 
L 1650 3319 
L 1650 2881 
L 1084 2881 
L 1084 941 
Q 1084 700 1114 631 
Q 1144 563 1211 522 
Q 1278 481 1403 481 
Q 1497 481 1650 503 
z
" transform="scale(0.015625)"/>
       <path id="ArialMT-2d" d="M 203 1375 
L 203 1941 
L 1931 1941 
L 1931 1375 
L 203 1375 
z
" transform="scale(0.015625)"/>
       <path id="ArialMT-42" d="M 469 0 
L 469 4581 
L 2188 4581 
Q 2713 4581 3030 4442 
Q 3347 4303 3526 4014 
Q 3706 3725 3706 3409 
Q 3706 3116 3547 2856 
Q 3388 2597 3066 2438 
Q 3481 2316 3704 2022 
Q 3928 1728 3928 1328 
Q 3928 1006 3792 729 
Q 3656 453 3456 303 
Q 3256 153 2954 76 
Q 2653 0 2216 0 
L 469 0 
z
M 1075 2656 
L 2066 2656 
Q 2469 2656 2644 2709 
Q 2875 2778 2992 2937 
Q 3109 3097 3109 3338 
Q 3109 3566 3000 3739 
Q 2891 3913 2687 3977 
Q 2484 4041 1991 4041 
L 1075 4041 
L 1075 2656 
z
M 1075 541 
L 2216 541 
Q 2509 541 2628 563 
Q 2838 600 2978 687 
Q 3119 775 3209 942 
Q 3300 1109 3300 1328 
Q 3300 1584 3169 1773 
Q 3038 1963 2805 2039 
Q 2572 2116 2134 2116 
L 1075 2116 
L 1075 541 
z
" transform="scale(0.015625)"/>
       <path id="ArialMT-73" d="M 197 991 
L 753 1078 
Q 800 744 1014 566 
Q 1228 388 1613 388 
Q 2000 388 2187 545 
Q 2375 703 2375 916 
Q 2375 1106 2209 1216 
Q 2094 1291 1634 1406 
Q 1016 1563 777 1677 
Q 538 1791 414 1992 
Q 291 2194 291 2438 
Q 291 2659 392 2848 
Q 494 3038 669 3163 
Q 800 3259 1026 3326 
Q 1253 3394 1513 3394 
Q 1903 3394 2198 3281 
Q 2494 3169 2634 2976 
Q 2775 2784 2828 2463 
L 2278 2388 
Q 2241 2644 2061 2787 
Q 1881 2931 1553 2931 
Q 1166 2931 1000 2803 
Q 834 2675 834 2503 
Q 834 2394 903 2306 
Q 972 2216 1119 2156 
Q 1203 2125 1616 2013 
Q 2213 1853 2448 1751 
Q 2684 1650 2818 1456 
Q 2953 1263 2953 975 
Q 2953 694 2789 445 
Q 2625 197 2315 61 
Q 2006 -75 1616 -75 
Q 969 -75 630 194 
Q 291 463 197 991 
z
" transform="scale(0.015625)"/>
       <path id="ArialMT-65" d="M 2694 1069 
L 3275 997 
Q 3138 488 2766 206 
Q 2394 -75 1816 -75 
Q 1088 -75 661 373 
Q 234 822 234 1631 
Q 234 2469 665 2931 
Q 1097 3394 1784 3394 
Q 2450 3394 2872 2941 
Q 3294 2488 3294 1666 
Q 3294 1616 3291 1516 
L 816 1516 
Q 847 969 1125 678 
Q 1403 388 1819 388 
Q 2128 388 2347 550 
Q 2566 713 2694 1069 
z
M 847 1978 
L 2700 1978 
Q 2663 2397 2488 2606 
Q 2219 2931 1791 2931 
Q 1403 2931 1139 2672 
Q 875 2413 847 1978 
z
" transform="scale(0.015625)"/>
       <path id="ArialMT-72" d="M 416 0 
L 416 3319 
L 922 3319 
L 922 2816 
Q 1116 3169 1280 3281 
Q 1444 3394 1641 3394 
Q 1925 3394 2219 3213 
L 2025 2691 
Q 1819 2813 1613 2813 
Q 1428 2813 1281 2702 
Q 1134 2591 1072 2394 
Q 978 2094 978 1738 
L 978 0 
L 416 0 
z
" transform="scale(0.015625)"/>
       <path id="ArialMT-61" d="M 2588 409 
Q 2275 144 1986 34 
Q 1697 -75 1366 -75 
Q 819 -75 525 192 
Q 231 459 231 875 
Q 231 1119 342 1320 
Q 453 1522 633 1644 
Q 813 1766 1038 1828 
Q 1203 1872 1538 1913 
Q 2219 1994 2541 2106 
Q 2544 2222 2544 2253 
Q 2544 2597 2384 2738 
Q 2169 2928 1744 2928 
Q 1347 2928 1158 2789 
Q 969 2650 878 2297 
L 328 2372 
Q 403 2725 575 2942 
Q 747 3159 1072 3276 
Q 1397 3394 1825 3394 
Q 2250 3394 2515 3294 
Q 2781 3194 2906 3042 
Q 3031 2891 3081 2659 
Q 3109 2516 3109 2141 
L 3109 1391 
Q 3109 606 3145 398 
Q 3181 191 3288 0 
L 2700 0 
Q 2613 175 2588 409 
z
M 2541 1666 
Q 2234 1541 1622 1453 
Q 1275 1403 1131 1340 
Q 988 1278 909 1158 
Q 831 1038 831 891 
Q 831 666 1001 516 
Q 1172 366 1500 366 
Q 1825 366 2078 508 
Q 2331 650 2450 897 
Q 2541 1088 2541 1459 
L 2541 1666 
z
" transform="scale(0.015625)"/>
       <path id="ArialMT-6c" d="M 409 0 
L 409 4581 
L 972 4581 
L 972 0 
L 409 0 
z
" transform="scale(0.015625)"/>
       <path id="ArialMT-20" transform="scale(0.015625)"/>
       <path id="ArialMT-43" d="M 3763 1606 
L 4369 1453 
Q 4178 706 3683 314 
Q 3188 -78 2472 -78 
Q 1731 -78 1267 223 
Q 803 525 561 1097 
Q 319 1669 319 2325 
Q 319 3041 592 3573 
Q 866 4106 1370 4382 
Q 1875 4659 2481 4659 
Q 3169 4659 3637 4309 
Q 4106 3959 4291 3325 
L 3694 3184 
Q 3534 3684 3231 3912 
Q 2928 4141 2469 4141 
Q 1941 4141 1586 3887 
Q 1231 3634 1087 3207 
Q 944 2781 944 2328 
Q 944 1744 1114 1308 
Q 1284 872 1643 656 
Q 2003 441 2422 441 
Q 2931 441 3284 734 
Q 3638 1028 3763 1606 
z
" transform="scale(0.015625)"/>
       <path id="ArialMT-28" d="M 1497 -1347 
Q 1031 -759 709 28 
Q 388 816 388 1659 
Q 388 2403 628 3084 
Q 909 3875 1497 4659 
L 1900 4659 
Q 1522 4009 1400 3731 
Q 1209 3300 1100 2831 
Q 966 2247 966 1656 
Q 966 153 1900 -1347 
L 1497 -1347 
z
" transform="scale(0.015625)"/>
       <path id="ArialMT-29" d="M 791 -1347 
L 388 -1347 
Q 1322 153 1322 1656 
Q 1322 2244 1188 2822 
Q 1081 3291 891 3722 
Q 769 4003 388 4659 
L 791 4659 
Q 1378 3875 1659 3084 
Q 1900 2403 1900 1659 
Q 1900 816 1576 28 
Q 1253 -759 791 -1347 
z
" transform="scale(0.015625)"/>
      </defs>
      <use xlink:href="#ArialMT-50"/>
      <use xlink:href="#ArialMT-6f" x="66.699219"/>
      <use xlink:href="#ArialMT-69" x="122.314453"/>
      <use xlink:href="#ArialMT-6e" x="144.53125"/>
      <use xlink:href="#ArialMT-74" x="200.146484"/>
      <use xlink:href="#ArialMT-2d" x="227.929688"/>
      <use xlink:href="#ArialMT-42" x="261.230469"/>
      <use xlink:href="#ArialMT-69" x="327.929688"/>
      <use xlink:href="#ArialMT-73" x="350.146484"/>
      <use xlink:href="#ArialMT-65" x="400.146484"/>
      <use xlink:href="#ArialMT-72" x="455.761719"/>
      <use xlink:href="#ArialMT-69" x="489.0625"/>
      <use xlink:href="#ArialMT-61" x="511.279297"/>
      <use xlink:href="#ArialMT-6c" x="566.894531"/>
      <use xlink:href="#ArialMT-20" x="589.111328"/>
      <use xlink:href="#ArialMT-43" x="616.894531"/>
      <use xlink:href="#ArialMT-6f" x="689.111328"/>
      <use xlink:href="#ArialMT-72" x="744.726562"/>
      <use xlink:href="#ArialMT-72" x="778.027344"/>
      <use xlink:href="#ArialMT-65" x="811.328125"/>
      <use xlink:href="#ArialMT-6c" x="866.943359"/>
      <use xlink:href="#ArialMT-61" x="889.160156"/>
      <use xlink:href="#ArialMT-74" x="944.775391"/>
      <use xlink:href="#ArialMT-69" x="972.558594"/>
      <use xlink:href="#ArialMT-6f" x="994.775391"/>
      <use xlink:href="#ArialMT-6e" x="1050.390625"/>
      <use xlink:href="#ArialMT-20" x="1106.005859"/>
      <use xlink:href="#ArialMT-28" x="1133.789062"/>
      <use xlink:href="#ArialMT-72" x="1167.089844"/>
      <use xlink:href="#ArialMT-29" x="1200.390625"/>
     </g>
    </g>
   </g>
   <g id="matplotlib.axis_2">
    <g id="ytick_1">
     <g id="line2d_6">
      <path d="M 93.3125 356.908238 
L 532.233841 356.908238 
" clip-path="url(#p5b5e137bda)" style="fill: none; stroke: #cccccc; stroke-width: 0.8; stroke-linecap: round"/>
     </g>
     <g id="text_7">
      <!-- length -->
      <g style="fill: #262626" transform="translate(57.76875 360.487144) scale(0.1 -0.1)">
       <defs>
        <path id="ArialMT-67" d="M 319 -275 
L 866 -356 
Q 900 -609 1056 -725 
Q 1266 -881 1628 -881 
Q 2019 -881 2231 -725 
Q 2444 -569 2519 -288 
Q 2563 -116 2559 434 
Q 2191 0 1641 0 
Q 956 0 581 494 
Q 206 988 206 1678 
Q 206 2153 378 2554 
Q 550 2956 876 3175 
Q 1203 3394 1644 3394 
Q 2231 3394 2613 2919 
L 2613 3319 
L 3131 3319 
L 3131 450 
Q 3131 -325 2973 -648 
Q 2816 -972 2473 -1159 
Q 2131 -1347 1631 -1347 
Q 1038 -1347 672 -1080 
Q 306 -813 319 -275 
z
M 784 1719 
Q 784 1066 1043 766 
Q 1303 466 1694 466 
Q 2081 466 2343 764 
Q 2606 1063 2606 1700 
Q 2606 2309 2336 2618 
Q 2066 2928 1684 2928 
Q 1309 2928 1046 2623 
Q 784 2319 784 1719 
z
" transform="scale(0.015625)"/>
        <path id="ArialMT-68" d="M 422 0 
L 422 4581 
L 984 4581 
L 984 2938 
Q 1378 3394 1978 3394 
Q 2347 3394 2619 3248 
Q 2891 3103 3008 2847 
Q 3125 2591 3125 2103 
L 3125 0 
L 2563 0 
L 2563 2103 
Q 2563 2525 2380 2717 
Q 2197 2909 1863 2909 
Q 1613 2909 1392 2779 
Q 1172 2650 1078 2428 
Q 984 2206 984 1816 
L 984 0 
L 422 0 
z
" transform="scale(0.015625)"/>
       </defs>
       <use xlink:href="#ArialMT-6c"/>
       <use xlink:href="#ArialMT-65" x="22.216797"/>
       <use xlink:href="#ArialMT-6e" x="77.832031"/>
       <use xlink:href="#ArialMT-67" x="133.447266"/>
       <use xlink:href="#ArialMT-74" x="189.0625"/>
       <use xlink:href="#ArialMT-68" x="216.845703"/>
      </g>
     </g>
    </g>
    <g id="ytick_2">
     <g id="line2d_7">
      <path d="M 93.3125 319.804741 
L 532.233841 319.804741 
" clip-path="url(#p5b5e137bda)" style="fill: none; stroke: #cccccc; stroke-width: 0.8; stroke-linecap: round"/>
     </g>
     <g id="text_8">
      <!-- molecular_weight -->
      <g style="fill: #262626" transform="translate(7.2 323.383648) scale(0.1 -0.1)">
       <defs>
        <path id="ArialMT-6d" d="M 422 0 
L 422 3319 
L 925 3319 
L 925 2853 
Q 1081 3097 1340 3245 
Q 1600 3394 1931 3394 
Q 2300 3394 2536 3241 
Q 2772 3088 2869 2813 
Q 3263 3394 3894 3394 
Q 4388 3394 4653 3120 
Q 4919 2847 4919 2278 
L 4919 0 
L 4359 0 
L 4359 2091 
Q 4359 2428 4304 2576 
Q 4250 2725 4106 2815 
Q 3963 2906 3769 2906 
Q 3419 2906 3187 2673 
Q 2956 2441 2956 1928 
L 2956 0 
L 2394 0 
L 2394 2156 
Q 2394 2531 2256 2718 
Q 2119 2906 1806 2906 
Q 1569 2906 1367 2781 
Q 1166 2656 1075 2415 
Q 984 2175 984 1722 
L 984 0 
L 422 0 
z
" transform="scale(0.015625)"/>
        <path id="ArialMT-63" d="M 2588 1216 
L 3141 1144 
Q 3050 572 2676 248 
Q 2303 -75 1759 -75 
Q 1078 -75 664 370 
Q 250 816 250 1647 
Q 250 2184 428 2587 
Q 606 2991 970 3192 
Q 1334 3394 1763 3394 
Q 2303 3394 2647 3120 
Q 2991 2847 3088 2344 
L 2541 2259 
Q 2463 2594 2264 2762 
Q 2066 2931 1784 2931 
Q 1359 2931 1093 2626 
Q 828 2322 828 1663 
Q 828 994 1084 691 
Q 1341 388 1753 388 
Q 2084 388 2306 591 
Q 2528 794 2588 1216 
z
" transform="scale(0.015625)"/>
        <path id="ArialMT-75" d="M 2597 0 
L 2597 488 
Q 2209 -75 1544 -75 
Q 1250 -75 995 37 
Q 741 150 617 320 
Q 494 491 444 738 
Q 409 903 409 1263 
L 409 3319 
L 972 3319 
L 972 1478 
Q 972 1038 1006 884 
Q 1059 663 1231 536 
Q 1403 409 1656 409 
Q 1909 409 2131 539 
Q 2353 669 2445 892 
Q 2538 1116 2538 1541 
L 2538 3319 
L 3100 3319 
L 3100 0 
L 2597 0 
z
" transform="scale(0.015625)"/>
        <path id="ArialMT-5f" d="M -97 -1272 
L -97 -866 
L 3631 -866 
L 3631 -1272 
L -97 -1272 
z
" transform="scale(0.015625)"/>
        <path id="ArialMT-77" d="M 1034 0 
L 19 3319 
L 600 3319 
L 1128 1403 
L 1325 691 
Q 1338 744 1497 1375 
L 2025 3319 
L 2603 3319 
L 3100 1394 
L 3266 759 
L 3456 1400 
L 4025 3319 
L 4572 3319 
L 3534 0 
L 2950 0 
L 2422 1988 
L 2294 2553 
L 1622 0 
L 1034 0 
z
" transform="scale(0.015625)"/>
       </defs>
       <use xlink:href="#ArialMT-6d"/>
       <use xlink:href="#ArialMT-6f" x="83.300781"/>
       <use xlink:href="#ArialMT-6c" x="138.916016"/>
       <use xlink:href="#ArialMT-65" x="161.132812"/>
       <use xlink:href="#ArialMT-63" x="216.748047"/>
       <use xlink:href="#ArialMT-75" x="266.748047"/>
       <use xlink:href="#ArialMT-6c" x="322.363281"/>
       <use xlink:href="#ArialMT-61" x="344.580078"/>
       <use xlink:href="#ArialMT-72" x="400.195312"/>
       <use xlink:href="#ArialMT-5f" x="433.496094"/>
       <use xlink:href="#ArialMT-77" x="489.111328"/>
       <use xlink:href="#ArialMT-65" x="561.328125"/>
       <use xlink:href="#ArialMT-69" x="616.943359"/>
       <use xlink:href="#ArialMT-67" x="639.160156"/>
       <use xlink:href="#ArialMT-68" x="694.775391"/>
       <use xlink:href="#ArialMT-74" x="750.390625"/>
      </g>
     </g>
    </g>
    <g id="ytick_3">
     <g id="line2d_8">
      <path d="M 93.3125 282.701245 
L 532.233841 282.701245 
" clip-path="url(#p5b5e137bda)" style="fill: none; stroke: #cccccc; stroke-width: 0.8; stroke-linecap: round"/>
     </g>
     <g id="text_9">
      <!-- isoelectric_point -->
      <g style="fill: #262626" transform="translate(13.3125 286.280151) scale(0.1 -0.1)">
       <defs>
        <path id="ArialMT-70" d="M 422 -1272 
L 422 3319 
L 934 3319 
L 934 2888 
Q 1116 3141 1344 3267 
Q 1572 3394 1897 3394 
Q 2322 3394 2647 3175 
Q 2972 2956 3137 2557 
Q 3303 2159 3303 1684 
Q 3303 1175 3120 767 
Q 2938 359 2589 142 
Q 2241 -75 1856 -75 
Q 1575 -75 1351 44 
Q 1128 163 984 344 
L 984 -1272 
L 422 -1272 
z
M 931 1641 
Q 931 1000 1190 694 
Q 1450 388 1819 388 
Q 2194 388 2461 705 
Q 2728 1022 2728 1688 
Q 2728 2322 2467 2637 
Q 2206 2953 1844 2953 
Q 1484 2953 1207 2617 
Q 931 2281 931 1641 
z
" transform="scale(0.015625)"/>
       </defs>
       <use xlink:href="#ArialMT-69"/>
       <use xlink:href="#ArialMT-73" x="22.216797"/>
       <use xlink:href="#ArialMT-6f" x="72.216797"/>
       <use xlink:href="#ArialMT-65" x="127.832031"/>
       <use xlink:href="#ArialMT-6c" x="183.447266"/>
       <use xlink:href="#ArialMT-65" x="205.664062"/>
       <use xlink:href="#ArialMT-63" x="261.279297"/>
       <use xlink:href="#ArialMT-74" x="311.279297"/>
       <use xlink:href="#ArialMT-72" x="339.0625"/>
       <use xlink:href="#ArialMT-69" x="372.363281"/>
       <use xlink:href="#ArialMT-63" x="394.580078"/>
       <use xlink:href="#ArialMT-5f" x="444.580078"/>
       <use xlink:href="#ArialMT-70" x="500.195312"/>
       <use xlink:href="#ArialMT-6f" x="555.810547"/>
       <use xlink:href="#ArialMT-69" x="611.425781"/>
       <use xlink:href="#ArialMT-6e" x="633.642578"/>
       <use xlink:href="#ArialMT-74" x="689.257812"/>
      </g>
     </g>
    </g>
    <g id="ytick_4">
     <g id="line2d_9">
      <path d="M 93.3125 245.597748 
L 532.233841 245.597748 
" clip-path="url(#p5b5e137bda)" style="fill: none; stroke: #cccccc; stroke-width: 0.8; stroke-linecap: round"/>
     </g>
     <g id="text_10">
      <!-- gravy -->
      <g style="fill: #262626" transform="translate(60.560938 249.118061) scale(0.1 -0.1)">
       <defs>
        <path id="ArialMT-76" d="M 1344 0 
L 81 3319 
L 675 3319 
L 1388 1331 
Q 1503 1009 1600 663 
Q 1675 925 1809 1294 
L 2547 3319 
L 3125 3319 
L 1869 0 
L 1344 0 
z
" transform="scale(0.015625)"/>
        <path id="ArialMT-79" d="M 397 -1278 
L 334 -750 
Q 519 -800 656 -800 
Q 844 -800 956 -737 
Q 1069 -675 1141 -563 
Q 1194 -478 1313 -144 
Q 1328 -97 1363 -6 
L 103 3319 
L 709 3319 
L 1400 1397 
Q 1534 1031 1641 628 
Q 1738 1016 1872 1384 
L 2581 3319 
L 3144 3319 
L 1881 -56 
Q 1678 -603 1566 -809 
Q 1416 -1088 1222 -1217 
Q 1028 -1347 759 -1347 
Q 597 -1347 397 -1278 
z
" transform="scale(0.015625)"/>
       </defs>
       <use xlink:href="#ArialMT-67"/>
       <use xlink:href="#ArialMT-72" x="55.615234"/>
       <use xlink:href="#ArialMT-61" x="88.916016"/>
       <use xlink:href="#ArialMT-76" x="144.53125"/>
       <use xlink:href="#ArialMT-79" x="194.53125"/>
      </g>
     </g>
    </g>
    <g id="ytick_5">
     <g id="line2d_10">
      <path d="M 93.3125 208.494252 
L 532.233841 208.494252 
" clip-path="url(#p5b5e137bda)" style="fill: none; stroke: #cccccc; stroke-width: 0.8; stroke-linecap: round"/>
     </g>
     <g id="text_11">
      <!-- instability_index -->
      <g style="fill: #262626" transform="translate(14.420312 212.073158) scale(0.1 -0.1)">
       <defs>
        <path id="ArialMT-62" d="M 941 0 
L 419 0 
L 419 4581 
L 981 4581 
L 981 2947 
Q 1338 3394 1891 3394 
Q 2197 3394 2470 3270 
Q 2744 3147 2920 2923 
Q 3097 2700 3197 2384 
Q 3297 2069 3297 1709 
Q 3297 856 2875 390 
Q 2453 -75 1863 -75 
Q 1275 -75 941 416 
L 941 0 
z
M 934 1684 
Q 934 1088 1097 822 
Q 1363 388 1816 388 
Q 2184 388 2453 708 
Q 2722 1028 2722 1663 
Q 2722 2313 2464 2622 
Q 2206 2931 1841 2931 
Q 1472 2931 1203 2611 
Q 934 2291 934 1684 
z
" transform="scale(0.015625)"/>
        <path id="ArialMT-64" d="M 2575 0 
L 2575 419 
Q 2259 -75 1647 -75 
Q 1250 -75 917 144 
Q 584 363 401 755 
Q 219 1147 219 1656 
Q 219 2153 384 2558 
Q 550 2963 881 3178 
Q 1213 3394 1622 3394 
Q 1922 3394 2156 3267 
Q 2391 3141 2538 2938 
L 2538 4581 
L 3097 4581 
L 3097 0 
L 2575 0 
z
M 797 1656 
Q 797 1019 1065 703 
Q 1334 388 1700 388 
Q 2069 388 2326 689 
Q 2584 991 2584 1609 
Q 2584 2291 2321 2609 
Q 2059 2928 1675 2928 
Q 1300 2928 1048 2622 
Q 797 2316 797 1656 
z
" transform="scale(0.015625)"/>
        <path id="ArialMT-78" d="M 47 0 
L 1259 1725 
L 138 3319 
L 841 3319 
L 1350 2541 
Q 1494 2319 1581 2169 
Q 1719 2375 1834 2534 
L 2394 3319 
L 3066 3319 
L 1919 1756 
L 3153 0 
L 2463 0 
L 1781 1031 
L 1600 1309 
L 728 0 
L 47 0 
z
" transform="scale(0.015625)"/>
       </defs>
       <use xlink:href="#ArialMT-69"/>
       <use xlink:href="#ArialMT-6e" x="22.216797"/>
       <use xlink:href="#ArialMT-73" x="77.832031"/>
       <use xlink:href="#ArialMT-74" x="127.832031"/>
       <use xlink:href="#ArialMT-61" x="155.615234"/>
       <use xlink:href="#ArialMT-62" x="211.230469"/>
       <use xlink:href="#ArialMT-69" x="266.845703"/>
       <use xlink:href="#ArialMT-6c" x="289.0625"/>
       <use xlink:href="#ArialMT-69" x="311.279297"/>
       <use xlink:href="#ArialMT-74" x="333.496094"/>
       <use xlink:href="#ArialMT-79" x="361.279297"/>
       <use xlink:href="#ArialMT-5f" x="411.279297"/>
       <use xlink:href="#ArialMT-69" x="466.894531"/>
       <use xlink:href="#ArialMT-6e" x="489.111328"/>
       <use xlink:href="#ArialMT-64" x="544.726562"/>
       <use xlink:href="#ArialMT-65" x="600.341797"/>
       <use xlink:href="#ArialMT-78" x="655.957031"/>
      </g>
     </g>
    </g>
    <g id="ytick_6">
     <g id="line2d_11">
      <path d="M 93.3125 171.390755 
L 532.233841 171.390755 
" clip-path="url(#p5b5e137bda)" style="fill: none; stroke: #cccccc; stroke-width: 0.8; stroke-linecap: round"/>
     </g>
     <g id="text_12">
      <!-- fraction_helix -->
      <g style="fill: #262626" transform="translate(26.095312 175.030599) scale(0.1 -0.1)">
       <defs>
        <path id="ArialMT-66" d="M 556 0 
L 556 2881 
L 59 2881 
L 59 3319 
L 556 3319 
L 556 3672 
Q 556 4006 616 4169 
Q 697 4388 901 4523 
Q 1106 4659 1475 4659 
Q 1713 4659 2000 4603 
L 1916 4113 
Q 1741 4144 1584 4144 
Q 1328 4144 1222 4034 
Q 1116 3925 1116 3625 
L 1116 3319 
L 1763 3319 
L 1763 2881 
L 1116 2881 
L 1116 0 
L 556 0 
z
" transform="scale(0.015625)"/>
       </defs>
       <use xlink:href="#ArialMT-66"/>
       <use xlink:href="#ArialMT-72" x="27.783203"/>
       <use xlink:href="#ArialMT-61" x="61.083984"/>
       <use xlink:href="#ArialMT-63" x="116.699219"/>
       <use xlink:href="#ArialMT-74" x="166.699219"/>
       <use xlink:href="#ArialMT-69" x="194.482422"/>
       <use xlink:href="#ArialMT-6f" x="216.699219"/>
       <use xlink:href="#ArialMT-6e" x="272.314453"/>
       <use xlink:href="#ArialMT-5f" x="327.929688"/>
       <use xlink:href="#ArialMT-68" x="383.544922"/>
       <use xlink:href="#ArialMT-65" x="439.160156"/>
       <use xlink:href="#ArialMT-6c" x="494.775391"/>
       <use xlink:href="#ArialMT-69" x="516.992188"/>
       <use xlink:href="#ArialMT-78" x="539.208984"/>
      </g>
     </g>
    </g>
    <g id="ytick_7">
     <g id="line2d_12">
      <path d="M 93.3125 134.287259 
L 532.233841 134.287259 
" clip-path="url(#p5b5e137bda)" style="fill: none; stroke: #cccccc; stroke-width: 0.8; stroke-linecap: round"/>
     </g>
     <g id="text_13">
      <!-- fraction_sheet -->
      <g style="fill: #262626" transform="translate(22.2 137.927102) scale(0.1 -0.1)">
       <use xlink:href="#ArialMT-66"/>
       <use xlink:href="#ArialMT-72" x="27.783203"/>
       <use xlink:href="#ArialMT-61" x="61.083984"/>
       <use xlink:href="#ArialMT-63" x="116.699219"/>
       <use xlink:href="#ArialMT-74" x="166.699219"/>
       <use xlink:href="#ArialMT-69" x="194.482422"/>
       <use xlink:href="#ArialMT-6f" x="216.699219"/>
       <use xlink:href="#ArialMT-6e" x="272.314453"/>
       <use xlink:href="#ArialMT-5f" x="327.929688"/>
       <use xlink:href="#ArialMT-73" x="383.544922"/>
       <use xlink:href="#ArialMT-68" x="433.544922"/>
       <use xlink:href="#ArialMT-65" x="489.160156"/>
       <use xlink:href="#ArialMT-65" x="544.775391"/>
       <use xlink:href="#ArialMT-74" x="600.390625"/>
      </g>
     </g>
    </g>
    <g id="ytick_8">
     <g id="line2d_13">
      <path d="M 93.3125 97.183762 
L 532.233841 97.183762 
" clip-path="url(#p5b5e137bda)" style="fill: none; stroke: #cccccc; stroke-width: 0.8; stroke-linecap: round"/>
     </g>
     <g id="text_14">
      <!-- fraction_coil -->
      <g style="fill: #262626" transform="translate(31.65625 100.823606) scale(0.1 -0.1)">
       <use xlink:href="#ArialMT-66"/>
       <use xlink:href="#ArialMT-72" x="27.783203"/>
       <use xlink:href="#ArialMT-61" x="61.083984"/>
       <use xlink:href="#ArialMT-63" x="116.699219"/>
       <use xlink:href="#ArialMT-74" x="166.699219"/>
       <use xlink:href="#ArialMT-69" x="194.482422"/>
       <use xlink:href="#ArialMT-6f" x="216.699219"/>
       <use xlink:href="#ArialMT-6e" x="272.314453"/>
       <use xlink:href="#ArialMT-5f" x="327.929688"/>
       <use xlink:href="#ArialMT-63" x="383.544922"/>
       <use xlink:href="#ArialMT-6f" x="433.544922"/>
       <use xlink:href="#ArialMT-69" x="489.160156"/>
       <use xlink:href="#ArialMT-6c" x="511.376953"/>
      </g>
     </g>
    </g>
   </g>
   <g id="patch_3">
    <path d="M 312.77317 371.749636 
L 311.052588 371.749636 
L 311.052588 342.066839 
L 312.77317 342.066839 
z
" clip-path="url(#p5b5e137bda)" style="fill: #56b4e9; stroke: #000000; stroke-width: 0.5; stroke-linejoin: miter"/>
   </g>
   <g id="patch_4">
    <path d="M 312.77317 334.64614 
L 317.358185 334.64614 
L 317.358185 304.963343 
L 312.77317 304.963343 
z
" clip-path="url(#p5b5e137bda)" style="fill: #e69f00; stroke: #000000; stroke-width: 0.5; stroke-linejoin: miter"/>
   </g>
   <g id="patch_5">
    <path d="M 312.77317 297.542643 
L 134.566413 297.542643 
L 134.566413 267.859846 
L 312.77317 267.859846 
z
" clip-path="url(#p5b5e137bda)" style="fill: #56b4e9; stroke: #000000; stroke-width: 0.5; stroke-linejoin: miter"/>
   </g>
   <g id="patch_6">
    <path d="M 312.77317 260.439147 
L 408.339371 260.439147 
L 408.339371 230.75635 
L 312.77317 230.75635 
z
" clip-path="url(#p5b5e137bda)" style="fill: #e69f00; stroke: #000000; stroke-width: 0.5; stroke-linejoin: miter"/>
   </g>
   <g id="patch_7">
    <path d="M 312.77317 223.33565 
L 149.366264 223.33565 
L 149.366264 193.652853 
L 312.77317 193.652853 
z
" clip-path="url(#p5b5e137bda)" style="fill: #56b4e9; stroke: #000000; stroke-width: 0.5; stroke-linejoin: miter"/>
   </g>
   <g id="patch_8">
    <path d="M 312.77317 186.232154 
L 353.026427 186.232154 
L 353.026427 156.549357 
L 312.77317 156.549357 
z
" clip-path="url(#p5b5e137bda)" style="fill: #e69f00; stroke: #000000; stroke-width: 0.5; stroke-linejoin: miter"/>
   </g>
   <g id="patch_9">
    <path d="M 312.77317 149.128657 
L 265.58323 149.128657 
L 265.58323 119.44586 
L 312.77317 119.44586 
z
" clip-path="url(#p5b5e137bda)" style="fill: #56b4e9; stroke: #000000; stroke-width: 0.5; stroke-linejoin: miter"/>
   </g>
   <g id="patch_10">
    <path d="M 312.77317 112.025161 
L 516.258105 112.025161 
L 516.258105 82.342364 
L 312.77317 82.342364 
z
" clip-path="url(#p5b5e137bda)" style="fill: #e69f00; stroke: #000000; stroke-width: 0.5; stroke-linejoin: miter"/>
   </g>
   <g id="line2d_14">
    <path d="M 312.77317 386.22 
L 312.77317 67.872 
" clip-path="url(#p5b5e137bda)" style="fill: none; stroke: #000000; stroke-width: 0.5; stroke-linecap: round"/>
   </g>
   <g id="patch_11">
    <path d="M 93.3125 386.22 
L 93.3125 67.872 
" style="fill: none; stroke: #cccccc; stroke-linejoin: miter; stroke-linecap: square"/>
   </g>
   <g id="patch_12">
    <path d="M 532.233841 386.22 
L 532.233841 67.872 
" style="fill: none; stroke: #cccccc; stroke-linejoin: miter; stroke-linecap: square"/>
   </g>
   <g id="patch_13">
    <path d="M 93.3125 386.22 
L 532.233841 386.22 
" style="fill: none; stroke: #cccccc; stroke-linejoin: miter; stroke-linecap: square"/>
   </g>
   <g id="patch_14">
    <path d="M 93.3125 67.872 
L 532.233841 67.872 
" style="fill: none; stroke: #cccccc; stroke-linejoin: miter; stroke-linecap: square"/>
   </g>
   <g id="text_15">
    <!-- ** -->
    <g style="fill: #262626" transform="translate(292.932911 360.018863) scale(0.12 -0.12)">
     <defs>
      <path id="Arial-BoldMT-2a" d="M 766 2475 
L 294 2841 
Q 519 3094 763 3325 
Q 859 3419 884 3444 
Q 806 3456 438 3547 
Q 172 3613 88 3644 
L 272 4194 
Q 681 4028 1003 3828 
Q 928 4338 928 4659 
L 1484 4659 
Q 1484 4431 1400 3822 
Q 1463 3847 1669 3944 
Q 1950 4072 2188 4163 
L 2353 3597 
Q 2006 3519 1550 3444 
L 1925 3022 
Q 2038 2894 2103 2813 
L 1625 2497 
L 1203 3194 
Q 1013 2856 766 2475 
z
" transform="scale(0.015625)"/>
     </defs>
     <use xlink:href="#Arial-BoldMT-2a"/>
     <use xlink:href="#Arial-BoldMT-2a" x="38.916016"/>
    </g>
   </g>
   <g id="text_16">
    <!-- *** -->
    <g style="fill: #262626" transform="translate(326.136612 322.915366) scale(0.12 -0.12)">
     <use xlink:href="#Arial-BoldMT-2a"/>
     <use xlink:href="#Arial-BoldMT-2a" x="38.916016"/>
     <use xlink:href="#Arial-BoldMT-2a" x="77.832031"/>
    </g>
   </g>
   <g id="text_17">
    <!-- *** -->
    <g style="fill: #262626" transform="translate(111.776112 285.81187) scale(0.12 -0.12)">
     <use xlink:href="#Arial-BoldMT-2a"/>
     <use xlink:href="#Arial-BoldMT-2a" x="38.916016"/>
     <use xlink:href="#Arial-BoldMT-2a" x="77.832031"/>
    </g>
   </g>
   <g id="text_18">
    <!-- *** -->
    <g style="fill: #262626" transform="translate(417.117798 248.708373) scale(0.12 -0.12)">
     <use xlink:href="#Arial-BoldMT-2a"/>
     <use xlink:href="#Arial-BoldMT-2a" x="38.916016"/>
     <use xlink:href="#Arial-BoldMT-2a" x="77.832031"/>
    </g>
   </g>
   <g id="text_19">
    <!-- *** -->
    <g style="fill: #262626" transform="translate(126.575962 211.604877) scale(0.12 -0.12)">
     <use xlink:href="#Arial-BoldMT-2a"/>
     <use xlink:href="#Arial-BoldMT-2a" x="38.916016"/>
     <use xlink:href="#Arial-BoldMT-2a" x="77.832031"/>
    </g>
   </g>
   <g id="text_20">
    <!-- *** -->
    <g style="fill: #262626" transform="translate(361.804854 174.50138) scale(0.12 -0.12)">
     <use xlink:href="#Arial-BoldMT-2a"/>
     <use xlink:href="#Arial-BoldMT-2a" x="38.916016"/>
     <use xlink:href="#Arial-BoldMT-2a" x="77.832031"/>
    </g>
   </g>
   <g id="text_21">
    <!-- ** -->
    <g style="fill: #262626" transform="translate(247.463553 137.397884) scale(0.12 -0.12)">
     <use xlink:href="#Arial-BoldMT-2a"/>
     <use xlink:href="#Arial-BoldMT-2a" x="38.916016"/>
    </g>
   </g>
   <g id="text_22">
    <!-- *** -->
    <g style="fill: #262626" transform="translate(525.036532 100.294387) scale(0.12 -0.12)">
     <use xlink:href="#Arial-BoldMT-2a"/>
     <use xlink:href="#Arial-BoldMT-2a" x="38.916016"/>
     <use xlink:href="#Arial-BoldMT-2a" x="77.832031"/>
    </g>
   </g>
   <g id="text_23">
    <!-- Correlation with uTP Label -->
    <g style="fill: #262626" transform="translate(230.414889 61.872) scale(0.14 -0.14)">
     <defs>
      <path id="ArialMT-54" d="M 1659 0 
L 1659 4041 
L 150 4041 
L 150 4581 
L 3781 4581 
L 3781 4041 
L 2266 4041 
L 2266 0 
L 1659 0 
z
" transform="scale(0.015625)"/>
      <path id="ArialMT-4c" d="M 469 0 
L 469 4581 
L 1075 4581 
L 1075 541 
L 3331 541 
L 3331 0 
L 469 0 
z
" transform="scale(0.015625)"/>
     </defs>
     <use xlink:href="#ArialMT-43"/>
     <use xlink:href="#ArialMT-6f" x="72.216797"/>
     <use xlink:href="#ArialMT-72" x="127.832031"/>
     <use xlink:href="#ArialMT-72" x="161.132812"/>
     <use xlink:href="#ArialMT-65" x="194.433594"/>
     <use xlink:href="#ArialMT-6c" x="250.048828"/>
     <use xlink:href="#ArialMT-61" x="272.265625"/>
     <use xlink:href="#ArialMT-74" x="327.880859"/>
     <use xlink:href="#ArialMT-69" x="355.664062"/>
     <use xlink:href="#ArialMT-6f" x="377.880859"/>
     <use xlink:href="#ArialMT-6e" x="433.496094"/>
     <use xlink:href="#ArialMT-20" x="489.111328"/>
     <use xlink:href="#ArialMT-77" x="516.894531"/>
     <use xlink:href="#ArialMT-69" x="589.111328"/>
     <use xlink:href="#ArialMT-74" x="611.328125"/>
     <use xlink:href="#ArialMT-68" x="639.111328"/>
     <use xlink:href="#ArialMT-20" x="694.726562"/>
     <use xlink:href="#ArialMT-75" x="722.509766"/>
     <use xlink:href="#ArialMT-54" x="778.125"/>
     <use xlink:href="#ArialMT-50" x="839.208984"/>
     <use xlink:href="#ArialMT-20" x="904.158203"/>
     <use xlink:href="#ArialMT-4c" x="931.941406"/>
     <use xlink:href="#ArialMT-61" x="987.556641"/>
     <use xlink:href="#ArialMT-62" x="1043.171875"/>
     <use xlink:href="#ArialMT-65" x="1098.787109"/>
     <use xlink:href="#ArialMT-6c" x="1154.402344"/>
    </g>
   </g>
  </g>
  <g id="axes_2">
   <g id="patch_15">
    <path d="M 552.151159 386.22 
L 991.0725 386.22 
L 991.0725 67.872 
L 552.151159 67.872 
z
" style="fill: #ffffff"/>
   </g>
   <g id="matplotlib.axis_3">
    <g id="xtick_6">
     <g id="line2d_15">
      <path d="M 601.715603 386.22 
L 601.715603 67.872 
" clip-path="url(#pd0073b1fca)" style="fill: none; stroke: #cccccc; stroke-width: 0.8; stroke-linecap: round"/>
     </g>
     <g id="text_24">
      <!-- −0.75 -->
      <g style="fill: #262626" transform="translate(589.064821 401.677812) scale(0.1 -0.1)">
       <defs>
        <path id="ArialMT-37" d="M 303 3981 
L 303 4522 
L 3269 4522 
L 3269 4084 
Q 2831 3619 2401 2847 
Q 1972 2075 1738 1259 
Q 1569 684 1522 0 
L 944 0 
Q 953 541 1156 1306 
Q 1359 2072 1739 2783 
Q 2119 3494 2547 3981 
L 303 3981 
z
" transform="scale(0.015625)"/>
        <path id="ArialMT-35" d="M 266 1200 
L 856 1250 
Q 922 819 1161 601 
Q 1400 384 1738 384 
Q 2144 384 2425 690 
Q 2706 997 2706 1503 
Q 2706 1984 2436 2262 
Q 2166 2541 1728 2541 
Q 1456 2541 1237 2417 
Q 1019 2294 894 2097 
L 366 2166 
L 809 4519 
L 3088 4519 
L 3088 3981 
L 1259 3981 
L 1013 2750 
Q 1425 3038 1878 3038 
Q 2478 3038 2890 2622 
Q 3303 2206 3303 1553 
Q 3303 931 2941 478 
Q 2500 -78 1738 -78 
Q 1113 -78 717 272 
Q 322 622 266 1200 
z
" transform="scale(0.015625)"/>
       </defs>
       <use xlink:href="#ArialMT-2212"/>
       <use xlink:href="#ArialMT-30" x="58.398438"/>
       <use xlink:href="#ArialMT-2e" x="114.013672"/>
       <use xlink:href="#ArialMT-37" x="141.796875"/>
       <use xlink:href="#ArialMT-35" x="197.412109"/>
      </g>
     </g>
    </g>
    <g id="xtick_7">
     <g id="line2d_16">
      <path d="M 652.920869 386.22 
L 652.920869 67.872 
" clip-path="url(#pd0073b1fca)" style="fill: none; stroke: #cccccc; stroke-width: 0.8; stroke-linecap: round"/>
     </g>
     <g id="text_25">
      <!-- −0.50 -->
      <g style="fill: #262626" transform="translate(640.270087 401.677812) scale(0.1 -0.1)">
       <use xlink:href="#ArialMT-2212"/>
       <use xlink:href="#ArialMT-30" x="58.398438"/>
       <use xlink:href="#ArialMT-2e" x="114.013672"/>
       <use xlink:href="#ArialMT-35" x="141.796875"/>
       <use xlink:href="#ArialMT-30" x="197.412109"/>
      </g>
     </g>
    </g>
    <g id="xtick_8">
     <g id="line2d_17">
      <path d="M 704.126135 386.22 
L 704.126135 67.872 
" clip-path="url(#pd0073b1fca)" style="fill: none; stroke: #cccccc; stroke-width: 0.8; stroke-linecap: round"/>
     </g>
     <g id="text_26">
      <!-- −0.25 -->
      <g style="fill: #262626" transform="translate(691.475354 401.677812) scale(0.1 -0.1)">
       <use xlink:href="#ArialMT-2212"/>
       <use xlink:href="#ArialMT-30" x="58.398438"/>
       <use xlink:href="#ArialMT-2e" x="114.013672"/>
       <use xlink:href="#ArialMT-32" x="141.796875"/>
       <use xlink:href="#ArialMT-35" x="197.412109"/>
      </g>
     </g>
    </g>
    <g id="xtick_9">
     <g id="line2d_18">
      <path d="M 755.331401 386.22 
L 755.331401 67.872 
" clip-path="url(#pd0073b1fca)" style="fill: none; stroke: #cccccc; stroke-width: 0.8; stroke-linecap: round"/>
     </g>
     <g id="text_27">
      <!-- 0.00 -->
      <g style="fill: #262626" transform="translate(745.600932 401.677812) scale(0.1 -0.1)">
       <use xlink:href="#ArialMT-30"/>
       <use xlink:href="#ArialMT-2e" x="55.615234"/>
       <use xlink:href="#ArialMT-30" x="83.398438"/>
       <use xlink:href="#ArialMT-30" x="139.013672"/>
      </g>
     </g>
    </g>
    <g id="xtick_10">
     <g id="line2d_19">
      <path d="M 806.536667 386.22 
L 806.536667 67.872 
" clip-path="url(#pd0073b1fca)" style="fill: none; stroke: #cccccc; stroke-width: 0.8; stroke-linecap: round"/>
     </g>
     <g id="text_28">
      <!-- 0.25 -->
      <g style="fill: #262626" transform="translate(796.806198 401.677812) scale(0.1 -0.1)">
       <use xlink:href="#ArialMT-30"/>
       <use xlink:href="#ArialMT-2e" x="55.615234"/>
       <use xlink:href="#ArialMT-32" x="83.398438"/>
       <use xlink:href="#ArialMT-35" x="139.013672"/>
      </g>
     </g>
    </g>
    <g id="xtick_11">
     <g id="line2d_20">
      <path d="M 857.741933 386.22 
L 857.741933 67.872 
" clip-path="url(#pd0073b1fca)" style="fill: none; stroke: #cccccc; stroke-width: 0.8; stroke-linecap: round"/>
     </g>
     <g id="text_29">
      <!-- 0.50 -->
      <g style="fill: #262626" transform="translate(848.011465 401.677812) scale(0.1 -0.1)">
       <use xlink:href="#ArialMT-30"/>
       <use xlink:href="#ArialMT-2e" x="55.615234"/>
       <use xlink:href="#ArialMT-35" x="83.398438"/>
       <use xlink:href="#ArialMT-30" x="139.013672"/>
      </g>
     </g>
    </g>
    <g id="xtick_12">
     <g id="line2d_21">
      <path d="M 908.9472 386.22 
L 908.9472 67.872 
" clip-path="url(#pd0073b1fca)" style="fill: none; stroke: #cccccc; stroke-width: 0.8; stroke-linecap: round"/>
     </g>
     <g id="text_30">
      <!-- 0.75 -->
      <g style="fill: #262626" transform="translate(899.216731 401.677812) scale(0.1 -0.1)">
       <use xlink:href="#ArialMT-30"/>
       <use xlink:href="#ArialMT-2e" x="55.615234"/>
       <use xlink:href="#ArialMT-37" x="83.398438"/>
       <use xlink:href="#ArialMT-35" x="139.013672"/>
      </g>
     </g>
    </g>
    <g id="xtick_13">
     <g id="line2d_22">
      <path d="M 960.152466 386.22 
L 960.152466 67.872 
" clip-path="url(#pd0073b1fca)" style="fill: none; stroke: #cccccc; stroke-width: 0.8; stroke-linecap: round"/>
     </g>
     <g id="text_31">
      <!-- 1.00 -->
      <g style="fill: #262626" transform="translate(950.421997 401.677812) scale(0.1 -0.1)">
       <defs>
        <path id="ArialMT-31" d="M 2384 0 
L 1822 0 
L 1822 3584 
Q 1619 3391 1289 3197 
Q 959 3003 697 2906 
L 697 3450 
Q 1169 3672 1522 3987 
Q 1875 4303 2022 4600 
L 2384 4600 
L 2384 0 
z
" transform="scale(0.015625)"/>
       </defs>
       <use xlink:href="#ArialMT-31"/>
       <use xlink:href="#ArialMT-2e" x="55.615234"/>
       <use xlink:href="#ArialMT-30" x="83.398438"/>
       <use xlink:href="#ArialMT-30" x="139.013672"/>
      </g>
     </g>
    </g>
    <g id="text_32">
     <!-- Cohen's d (effect size) -->
     <g style="fill: #262626" transform="translate(712.21558 416.400937) scale(0.12 -0.12)">
      <defs>
       <path id="ArialMT-27" d="M 425 2959 
L 281 3816 
L 281 4581 
L 922 4581 
L 922 3816 
L 772 2959 
L 425 2959 
z
" transform="scale(0.015625)"/>
       <path id="ArialMT-7a" d="M 125 0 
L 125 456 
L 2238 2881 
Q 1878 2863 1603 2863 
L 250 2863 
L 250 3319 
L 2963 3319 
L 2963 2947 
L 1166 841 
L 819 456 
Q 1197 484 1528 484 
L 3063 484 
L 3063 0 
L 125 0 
z
" transform="scale(0.015625)"/>
      </defs>
      <use xlink:href="#ArialMT-43"/>
      <use xlink:href="#ArialMT-6f" x="72.216797"/>
      <use xlink:href="#ArialMT-68" x="127.832031"/>
      <use xlink:href="#ArialMT-65" x="183.447266"/>
      <use xlink:href="#ArialMT-6e" x="239.0625"/>
      <use xlink:href="#ArialMT-27" x="294.677734"/>
      <use xlink:href="#ArialMT-73" x="313.769531"/>
      <use xlink:href="#ArialMT-20" x="363.769531"/>
      <use xlink:href="#ArialMT-64" x="391.552734"/>
      <use xlink:href="#ArialMT-20" x="447.167969"/>
      <use xlink:href="#ArialMT-28" x="474.951172"/>
      <use xlink:href="#ArialMT-65" x="508.251953"/>
      <use xlink:href="#ArialMT-66" x="563.867188"/>
      <use xlink:href="#ArialMT-66" x="589.900391"/>
      <use xlink:href="#ArialMT-65" x="617.683594"/>
      <use xlink:href="#ArialMT-63" x="673.298828"/>
      <use xlink:href="#ArialMT-74" x="723.298828"/>
      <use xlink:href="#ArialMT-20" x="751.082031"/>
      <use xlink:href="#ArialMT-73" x="778.865234"/>
      <use xlink:href="#ArialMT-69" x="828.865234"/>
      <use xlink:href="#ArialMT-7a" x="851.082031"/>
      <use xlink:href="#ArialMT-65" x="901.082031"/>
      <use xlink:href="#ArialMT-29" x="956.697266"/>
     </g>
    </g>
   </g>
   <g id="matplotlib.axis_4">
    <g id="ytick_9">
     <g id="line2d_23">
      <path d="M 552.151159 356.908238 
L 991.0725 356.908238 
" clip-path="url(#pd0073b1fca)" style="fill: none; stroke: #cccccc; stroke-width: 0.8; stroke-linecap: round"/>
     </g>
    </g>
    <g id="ytick_10">
     <g id="line2d_24">
      <path d="M 552.151159 319.804741 
L 991.0725 319.804741 
" clip-path="url(#pd0073b1fca)" style="fill: none; stroke: #cccccc; stroke-width: 0.8; stroke-linecap: round"/>
     </g>
    </g>
    <g id="ytick_11">
     <g id="line2d_25">
      <path d="M 552.151159 282.701245 
L 991.0725 282.701245 
" clip-path="url(#pd0073b1fca)" style="fill: none; stroke: #cccccc; stroke-width: 0.8; stroke-linecap: round"/>
     </g>
    </g>
    <g id="ytick_12">
     <g id="line2d_26">
      <path d="M 552.151159 245.597748 
L 991.0725 245.597748 
" clip-path="url(#pd0073b1fca)" style="fill: none; stroke: #cccccc; stroke-width: 0.8; stroke-linecap: round"/>
     </g>
    </g>
    <g id="ytick_13">
     <g id="line2d_27">
      <path d="M 552.151159 208.494252 
L 991.0725 208.494252 
" clip-path="url(#pd0073b1fca)" style="fill: none; stroke: #cccccc; stroke-width: 0.8; stroke-linecap: round"/>
     </g>
    </g>
    <g id="ytick_14">
     <g id="line2d_28">
      <path d="M 552.151159 171.390755 
L 991.0725 171.390755 
" clip-path="url(#pd0073b1fca)" style="fill: none; stroke: #cccccc; stroke-width: 0.8; stroke-linecap: round"/>
     </g>
    </g>
    <g id="ytick_15">
     <g id="line2d_29">
      <path d="M 552.151159 134.287259 
L 991.0725 134.287259 
" clip-path="url(#pd0073b1fca)" style="fill: none; stroke: #cccccc; stroke-width: 0.8; stroke-linecap: round"/>
     </g>
    </g>
    <g id="ytick_16">
     <g id="line2d_30">
      <path d="M 552.151159 97.183762 
L 991.0725 97.183762 
" clip-path="url(#pd0073b1fca)" style="fill: none; stroke: #cccccc; stroke-width: 0.8; stroke-linecap: round"/>
     </g>
    </g>
   </g>
   <g id="patch_16">
    <path d="M 755.331401 371.749636 
L 753.714687 371.749636 
L 753.714687 342.066839 
L 755.331401 342.066839 
z
" clip-path="url(#pd0073b1fca)" style="fill: #56b4e9; stroke: #000000; stroke-width: 0.5; stroke-linejoin: miter"/>
   </g>
   <g id="patch_17">
    <path d="M 755.331401 334.64614 
L 759.639828 334.64614 
L 759.639828 304.963343 
L 755.331401 304.963343 
z
" clip-path="url(#pd0073b1fca)" style="fill: #e69f00; stroke: #000000; stroke-width: 0.5; stroke-linejoin: miter"/>
   </g>
   <g id="patch_18">
    <path d="M 755.331401 297.542643 
L 572.102129 297.542643 
L 572.102129 267.859846 
L 755.331401 267.859846 
z
" clip-path="url(#pd0073b1fca)" style="fill: #56b4e9; stroke: #000000; stroke-width: 0.5; stroke-linejoin: miter"/>
   </g>
   <g id="patch_19">
    <path d="M 755.331401 260.439147 
L 847.334989 260.439147 
L 847.334989 230.75635 
L 755.331401 230.75635 
z
" clip-path="url(#pd0073b1fca)" style="fill: #e69f00; stroke: #000000; stroke-width: 0.5; stroke-linejoin: miter"/>
   </g>
   <g id="patch_20">
    <path d="M 755.331401 223.33565 
L 589.898218 223.33565 
L 589.898218 193.652853 
L 755.331401 193.652853 
z
" clip-path="url(#pd0073b1fca)" style="fill: #56b4e9; stroke: #000000; stroke-width: 0.5; stroke-linejoin: miter"/>
   </g>
   <g id="patch_21">
    <path d="M 755.331401 186.232154 
L 793.314414 186.232154 
L 793.314414 156.549357 
L 755.331401 156.549357 
z
" clip-path="url(#pd0073b1fca)" style="fill: #e69f00; stroke: #000000; stroke-width: 0.5; stroke-linejoin: miter"/>
   </g>
   <g id="patch_22">
    <path d="M 755.331401 149.128657 
L 710.732065 149.128657 
L 710.732065 119.44586 
L 755.331401 119.44586 
z
" clip-path="url(#pd0073b1fca)" style="fill: #56b4e9; stroke: #000000; stroke-width: 0.5; stroke-linejoin: miter"/>
   </g>
   <g id="patch_23">
    <path d="M 755.331401 112.025161 
L 971.12153 112.025161 
L 971.12153 82.342364 
L 755.331401 82.342364 
z
" clip-path="url(#pd0073b1fca)" style="fill: #e69f00; stroke: #000000; stroke-width: 0.5; stroke-linejoin: miter"/>
   </g>
   <g id="line2d_31">
    <path d="M 796.295614 386.22 
L 796.295614 67.872 
" clip-path="url(#pd0073b1fca)" style="fill: none; stroke-dasharray: 4.44,1.92; stroke-dashoffset: 0; stroke: #808080; stroke-opacity: 0.5; stroke-width: 1.2"/>
   </g>
   <g id="line2d_32">
    <path d="M 714.367188 386.22 
L 714.367188 67.872 
" clip-path="url(#pd0073b1fca)" style="fill: none; stroke-dasharray: 4.44,1.92; stroke-dashoffset: 0; stroke: #808080; stroke-opacity: 0.5; stroke-width: 1.2"/>
   </g>
   <g id="line2d_33">
    <path d="M 857.741933 386.22 
L 857.741933 67.872 
" clip-path="url(#pd0073b1fca)" style="fill: none; stroke-dasharray: 4.44,1.92; stroke-dashoffset: 0; stroke: #808080; stroke-opacity: 0.5; stroke-width: 1.2"/>
   </g>
   <g id="line2d_34">
    <path d="M 652.920869 386.22 
L 652.920869 67.872 
" clip-path="url(#pd0073b1fca)" style="fill: none; stroke-dasharray: 4.44,1.92; stroke-dashoffset: 0; stroke: #808080; stroke-opacity: 0.5; stroke-width: 1.2"/>
   </g>
   <g id="line2d_35">
    <path d="M 919.188253 386.22 
L 919.188253 67.872 
" clip-path="url(#pd0073b1fca)" style="fill: none; stroke-dasharray: 4.44,1.92; stroke-dashoffset: 0; stroke: #808080; stroke-opacity: 0.5; stroke-width: 1.2"/>
   </g>
   <g id="line2d_36">
    <path d="M 591.474549 386.22 
L 591.474549 67.872 
" clip-path="url(#pd0073b1fca)" style="fill: none; stroke-dasharray: 4.44,1.92; stroke-dashoffset: 0; stroke: #808080; stroke-opacity: 0.5; stroke-width: 1.2"/>
   </g>
   <g id="line2d_37">
    <path d="M 755.331401 386.22 
L 755.331401 67.872 
" clip-path="url(#pd0073b1fca)" style="fill: none; stroke: #000000; stroke-width: 0.5; stroke-linecap: round"/>
   </g>
   <g id="patch_24">
    <path d="M 552.151159 386.22 
L 552.151159 67.872 
" style="fill: none; stroke: #cccccc; stroke-linejoin: miter; stroke-linecap: square"/>
   </g>
   <g id="patch_25">
    <path d="M 991.0725 386.22 
L 991.0725 67.872 
" style="fill: none; stroke: #cccccc; stroke-linejoin: miter; stroke-linecap: square"/>
   </g>
   <g id="patch_26">
    <path d="M 552.151159 386.22 
L 991.0725 386.22 
" style="fill: none; stroke: #cccccc; stroke-linejoin: miter; stroke-linecap: square"/>
   </g>
   <g id="patch_27">
    <path d="M 552.151159 67.872 
L 991.0725 67.872 
" style="fill: none; stroke: #cccccc; stroke-linejoin: miter; stroke-linecap: square"/>
   </g>
   <g id="text_33">
    <!-- Effect Size (uTP - Control) -->
    <g style="fill: #262626" transform="translate(690.171205 61.872) scale(0.14 -0.14)">
     <defs>
      <path id="ArialMT-45" d="M 506 0 
L 506 4581 
L 3819 4581 
L 3819 4041 
L 1113 4041 
L 1113 2638 
L 3647 2638 
L 3647 2100 
L 1113 2100 
L 1113 541 
L 3925 541 
L 3925 0 
L 506 0 
z
" transform="scale(0.015625)"/>
      <path id="ArialMT-53" d="M 288 1472 
L 859 1522 
Q 900 1178 1048 958 
Q 1197 738 1509 602 
Q 1822 466 2213 466 
Q 2559 466 2825 569 
Q 3091 672 3220 851 
Q 3350 1031 3350 1244 
Q 3350 1459 3225 1620 
Q 3100 1781 2813 1891 
Q 2628 1963 1997 2114 
Q 1366 2266 1113 2400 
Q 784 2572 623 2826 
Q 463 3081 463 3397 
Q 463 3744 659 4045 
Q 856 4347 1234 4503 
Q 1613 4659 2075 4659 
Q 2584 4659 2973 4495 
Q 3363 4331 3572 4012 
Q 3781 3694 3797 3291 
L 3216 3247 
Q 3169 3681 2898 3903 
Q 2628 4125 2100 4125 
Q 1550 4125 1298 3923 
Q 1047 3722 1047 3438 
Q 1047 3191 1225 3031 
Q 1400 2872 2139 2705 
Q 2878 2538 3153 2413 
Q 3553 2228 3743 1945 
Q 3934 1663 3934 1294 
Q 3934 928 3725 604 
Q 3516 281 3123 101 
Q 2731 -78 2241 -78 
Q 1619 -78 1198 103 
Q 778 284 539 648 
Q 300 1013 288 1472 
z
" transform="scale(0.015625)"/>
     </defs>
     <use xlink:href="#ArialMT-45"/>
     <use xlink:href="#ArialMT-66" x="66.699219"/>
     <use xlink:href="#ArialMT-66" x="92.732422"/>
     <use xlink:href="#ArialMT-65" x="120.515625"/>
     <use xlink:href="#ArialMT-63" x="176.130859"/>
     <use xlink:href="#ArialMT-74" x="226.130859"/>
     <use xlink:href="#ArialMT-20" x="253.914062"/>
     <use xlink:href="#ArialMT-53" x="281.697266"/>
     <use xlink:href="#ArialMT-69" x="348.396484"/>
     <use xlink:href="#ArialMT-7a" x="370.613281"/>
     <use xlink:href="#ArialMT-65" x="420.613281"/>
     <use xlink:href="#ArialMT-20" x="476.228516"/>
     <use xlink:href="#ArialMT-28" x="504.011719"/>
     <use xlink:href="#ArialMT-75" x="537.3125"/>
     <use xlink:href="#ArialMT-54" x="592.927734"/>
     <use xlink:href="#ArialMT-50" x="654.011719"/>
     <use xlink:href="#ArialMT-20" x="718.960938"/>
     <use xlink:href="#ArialMT-2d" x="746.744141"/>
     <use xlink:href="#ArialMT-20" x="780.044922"/>
     <use xlink:href="#ArialMT-43" x="807.828125"/>
     <use xlink:href="#ArialMT-6f" x="880.044922"/>
     <use xlink:href="#ArialMT-6e" x="935.660156"/>
     <use xlink:href="#ArialMT-74" x="991.275391"/>
     <use xlink:href="#ArialMT-72" x="1019.058594"/>
     <use xlink:href="#ArialMT-6f" x="1052.359375"/>
     <use xlink:href="#ArialMT-6c" x="1107.974609"/>
     <use xlink:href="#ArialMT-29" x="1130.191406"/>
    </g>
   </g>
  </g>
  <g id="text_34">
   <!-- Statistical Summary: Property Differences -->
   <g style="fill: #262626" transform="translate(369.54 17.391562) scale(0.14 -0.14)">
    <defs>
     <path id="ArialMT-3a" d="M 578 2678 
L 578 3319 
L 1219 3319 
L 1219 2678 
L 578 2678 
z
M 578 0 
L 578 641 
L 1219 641 
L 1219 0 
L 578 0 
z
" transform="scale(0.015625)"/>
     <path id="ArialMT-44" d="M 494 0 
L 494 4581 
L 2072 4581 
Q 2606 4581 2888 4516 
Q 3281 4425 3559 4188 
Q 3922 3881 4101 3404 
Q 4281 2928 4281 2316 
Q 4281 1794 4159 1391 
Q 4038 988 3847 723 
Q 3656 459 3429 307 
Q 3203 156 2883 78 
Q 2563 0 2147 0 
L 494 0 
z
M 1100 541 
L 2078 541 
Q 2531 541 2789 625 
Q 3047 709 3200 863 
Q 3416 1078 3536 1442 
Q 3656 1806 3656 2325 
Q 3656 3044 3420 3430 
Q 3184 3816 2847 3947 
Q 2603 4041 2063 4041 
L 1100 4041 
L 1100 541 
z
" transform="scale(0.015625)"/>
    </defs>
    <use xlink:href="#ArialMT-53"/>
    <use xlink:href="#ArialMT-74" x="66.699219"/>
    <use xlink:href="#ArialMT-61" x="94.482422"/>
    <use xlink:href="#ArialMT-74" x="150.097656"/>
    <use xlink:href="#ArialMT-69" x="177.880859"/>
    <use xlink:href="#ArialMT-73" x="200.097656"/>
    <use xlink:href="#ArialMT-74" x="250.097656"/>
    <use xlink:href="#ArialMT-69" x="277.880859"/>
    <use xlink:href="#ArialMT-63" x="300.097656"/>
    <use xlink:href="#ArialMT-61" x="350.097656"/>
    <use xlink:href="#ArialMT-6c" x="405.712891"/>
    <use xlink:href="#ArialMT-20" x="427.929688"/>
    <use xlink:href="#ArialMT-53" x="455.712891"/>
    <use xlink:href="#ArialMT-75" x="522.412109"/>
    <use xlink:href="#ArialMT-6d" x="578.027344"/>
    <use xlink:href="#ArialMT-6d" x="661.328125"/>
    <use xlink:href="#ArialMT-61" x="744.628906"/>
    <use xlink:href="#ArialMT-72" x="800.244141"/>
    <use xlink:href="#ArialMT-79" x="833.544922"/>
    <use xlink:href="#ArialMT-3a" x="883.544922"/>
    <use xlink:href="#ArialMT-20" x="911.328125"/>
    <use xlink:href="#ArialMT-50" x="939.111328"/>
    <use xlink:href="#ArialMT-72" x="1005.810547"/>
    <use xlink:href="#ArialMT-6f" x="1039.111328"/>
    <use xlink:href="#ArialMT-70" x="1094.726562"/>
    <use xlink:href="#ArialMT-65" x="1150.341797"/>
    <use xlink:href="#ArialMT-72" x="1205.957031"/>
    <use xlink:href="#ArialMT-74" x="1239.257812"/>
    <use xlink:href="#ArialMT-79" x="1267.041016"/>
    <use xlink:href="#ArialMT-20" x="1317.041016"/>
    <use xlink:href="#ArialMT-44" x="1344.824219"/>
    <use xlink:href="#ArialMT-69" x="1417.041016"/>
    <use xlink:href="#ArialMT-66" x="1439.257812"/>
    <use xlink:href="#ArialMT-66" x="1465.291016"/>
    <use xlink:href="#ArialMT-65" x="1493.074219"/>
    <use xlink:href="#ArialMT-72" x="1548.689453"/>
    <use xlink:href="#ArialMT-65" x="1581.990234"/>
    <use xlink:href="#ArialMT-6e" x="1637.605469"/>
    <use xlink:href="#ArialMT-63" x="1693.220703"/>
    <use xlink:href="#ArialMT-65" x="1743.220703"/>
    <use xlink:href="#ArialMT-73" x="1798.835938"/>
   </g>
   <!-- (Positive = higher in uTP, Negative = higher in Control) -->
   <g style="fill: #262626" transform="translate(330.221875 32.568) scale(0.14 -0.14)">
    <defs>
     <path id="ArialMT-3d" d="M 3381 2694 
L 356 2694 
L 356 3219 
L 3381 3219 
L 3381 2694 
z
M 3381 1303 
L 356 1303 
L 356 1828 
L 3381 1828 
L 3381 1303 
z
" transform="scale(0.015625)"/>
     <path id="ArialMT-2c" d="M 569 0 
L 569 641 
L 1209 641 
L 1209 0 
Q 1209 -353 1084 -570 
Q 959 -788 688 -906 
L 531 -666 
Q 709 -588 793 -436 
Q 878 -284 888 0 
L 569 0 
z
" transform="scale(0.015625)"/>
     <path id="ArialMT-4e" d="M 488 0 
L 488 4581 
L 1109 4581 
L 3516 984 
L 3516 4581 
L 4097 4581 
L 4097 0 
L 3475 0 
L 1069 3600 
L 1069 0 
L 488 0 
z
" transform="scale(0.015625)"/>
    </defs>
    <use xlink:href="#ArialMT-28"/>
    <use xlink:href="#ArialMT-50" x="33.300781"/>
    <use xlink:href="#ArialMT-6f" x="100"/>
    <use xlink:href="#ArialMT-73" x="155.615234"/>
    <use xlink:href="#ArialMT-69" x="205.615234"/>
    <use xlink:href="#ArialMT-74" x="227.832031"/>
    <use xlink:href="#ArialMT-69" x="255.615234"/>
    <use xlink:href="#ArialMT-76" x="277.832031"/>
    <use xlink:href="#ArialMT-65" x="327.832031"/>
    <use xlink:href="#ArialMT-20" x="383.447266"/>
    <use xlink:href="#ArialMT-3d" x="411.230469"/>
    <use xlink:href="#ArialMT-20" x="469.628906"/>
    <use xlink:href="#ArialMT-68" x="497.412109"/>
    <use xlink:href="#ArialMT-69" x="553.027344"/>
    <use xlink:href="#ArialMT-67" x="575.244141"/>
    <use xlink:href="#ArialMT-68" x="630.859375"/>
    <use xlink:href="#ArialMT-65" x="686.474609"/>
    <use xlink:href="#ArialMT-72" x="742.089844"/>
    <use xlink:href="#ArialMT-20" x="775.390625"/>
    <use xlink:href="#ArialMT-69" x="803.173828"/>
    <use xlink:href="#ArialMT-6e" x="825.390625"/>
    <use xlink:href="#ArialMT-20" x="881.005859"/>
    <use xlink:href="#ArialMT-75" x="908.789062"/>
    <use xlink:href="#ArialMT-54" x="964.404297"/>
    <use xlink:href="#ArialMT-50" x="1025.488281"/>
    <use xlink:href="#ArialMT-2c" x="1079.3125"/>
    <use xlink:href="#ArialMT-20" x="1107.095703"/>
    <use xlink:href="#ArialMT-4e" x="1134.878906"/>
    <use xlink:href="#ArialMT-65" x="1207.095703"/>
    <use xlink:href="#ArialMT-67" x="1262.710938"/>
    <use xlink:href="#ArialMT-61" x="1318.326172"/>
    <use xlink:href="#ArialMT-74" x="1373.941406"/>
    <use xlink:href="#ArialMT-69" x="1401.724609"/>
    <use xlink:href="#ArialMT-76" x="1423.941406"/>
    <use xlink:href="#ArialMT-65" x="1473.941406"/>
    <use xlink:href="#ArialMT-20" x="1529.556641"/>
    <use xlink:href="#ArialMT-3d" x="1557.339844"/>
    <use xlink:href="#ArialMT-20" x="1615.738281"/>
    <use xlink:href="#ArialMT-68" x="1643.521484"/>
    <use xlink:href="#ArialMT-69" x="1699.136719"/>
    <use xlink:href="#ArialMT-67" x="1721.353516"/>
    <use xlink:href="#ArialMT-68" x="1776.96875"/>
    <use xlink:href="#ArialMT-65" x="1832.583984"/>
    <use xlink:href="#ArialMT-72" x="1888.199219"/>
    <use xlink:href="#ArialMT-20" x="1921.5"/>
    <use xlink:href="#ArialMT-69" x="1949.283203"/>
    <use xlink:href="#ArialMT-6e" x="1971.5"/>
    <use xlink:href="#ArialMT-20" x="2027.115234"/>
    <use xlink:href="#ArialMT-43" x="2054.898438"/>
    <use xlink:href="#ArialMT-6f" x="2127.115234"/>
    <use xlink:href="#ArialMT-6e" x="2182.730469"/>
    <use xlink:href="#ArialMT-74" x="2238.345703"/>
    <use xlink:href="#ArialMT-72" x="2266.128906"/>
    <use xlink:href="#ArialMT-6f" x="2299.429688"/>
    <use xlink:href="#ArialMT-6c" x="2355.044922"/>
    <use xlink:href="#ArialMT-29" x="2377.261719"/>
   </g>
  </g>
 </g>
 <defs>
  <clipPath id="p5b5e137bda">
   <rect x="93.3125" y="67.872" width="438.921341" height="318.348"/>
  </clipPath>
  <clipPath id="pd0073b1fca">
   <rect x="552.151159" y="67.872" width="438.921341" height="318.348"/>
  </clipPath>
 </defs>
</svg>
