<?xml version="1.0" encoding="utf-8" standalone="no"?>
<!DOCTYPE svg PUBLIC "-//W3C//DTD SVG 1.1//EN"
  "http://www.w3.org/Graphics/SVG/1.1/DTD/svg11.dtd">
<svg xmlns:xlink="http://www.w3.org/1999/xlink" width="1000.315625pt" height="351.802255pt" viewBox="0 0 1000.315625 351.802255" xmlns="http://www.w3.org/2000/svg" version="1.1">
 <metadata>
  <rdf:RDF xmlns:dc="http://purl.org/dc/elements/1.1/" xmlns:cc="http://creativecommons.org/ns#" xmlns:rdf="http://www.w3.org/1999/02/22-rdf-syntax-ns#">
   <cc:Work>
    <dc:type rdf:resource="http://purl.org/dc/dcmitype/StillImage"/>
    <dc:date>2026-01-12T14:01:27.562014</dc:date>
    <dc:format>image/svg+xml</dc:format>
    <dc:creator>
     <cc:Agent>
      <dc:title>Matplotlib v3.9.2, https://matplotlib.org/</dc:title>
     </cc:Agent>
    </dc:creator>
   </cc:Work>
  </rdf:RDF>
 </metadata>
 <defs>
  <style type="text/css">*{stroke-linejoin: round; stroke-linecap: butt}</style>
 </defs>
 <g id="figure_1">
  <g id="patch_1">
   <path d="M 0 351.802255 
L 1000.315625 351.802255 
L 1000.315625 0 
L 0 0 
z
" style="fill: #ffffff"/>
  </g>
  <g id="axes_1">
   <g id="patch_2">
    <path d="M 46.965625 270.884492 
L 494.538125 270.884492 
L 494.538125 22.318125 
L 46.965625 22.318125 
z
" style="fill: #ffffff"/>
   </g>
   <g id="matplotlib.axis_1">
    <g id="xtick_1">
     <g id="line2d_1">
      <defs>
       <path id="m988213fc43" d="M 0 0 
L 0 3.5 
" style="stroke: #000000; stroke-width: 0.8"/>
      </defs>
      <g>
       <use xlink:href="#m988213fc43" x="102.912188" y="270.884492" style="stroke: #000000; stroke-width: 0.8"/>
      </g>
     </g>
     <g id="text_1">
      <!-- 2+1+3+4 -->
      <g transform="translate(86.977426 319.029268) rotate(-45) scale(0.1 -0.1)">
       <defs>
        <path id="DejaVuSans-32" d="M 1228 531 
L 3431 531 
L 3431 0 
L 469 0 
L 469 531 
Q 828 903 1448 1529 
Q 2069 2156 2228 2338 
Q 2531 2678 2651 2914 
Q 2772 3150 2772 3378 
Q 2772 3750 2511 3984 
Q 2250 4219 1831 4219 
Q 1534 4219 1204 4116 
Q 875 4013 500 3803 
L 500 4441 
Q 881 4594 1212 4672 
Q 1544 4750 1819 4750 
Q 2544 4750 2975 4387 
Q 3406 4025 3406 3419 
Q 3406 3131 3298 2873 
Q 3191 2616 2906 2266 
Q 2828 2175 2409 1742 
Q 1991 1309 1228 531 
z
" transform="scale(0.015625)"/>
        <path id="DejaVuSans-2b" d="M 2944 4013 
L 2944 2272 
L 4684 2272 
L 4684 1741 
L 2944 1741 
L 2944 0 
L 2419 0 
L 2419 1741 
L 678 1741 
L 678 2272 
L 2419 2272 
L 2419 4013 
L 2944 4013 
z
" transform="scale(0.015625)"/>
        <path id="DejaVuSans-31" d="M 794 531 
L 1825 531 
L 1825 4091 
L 703 3866 
L 703 4441 
L 1819 4666 
L 2450 4666 
L 2450 531 
L 3481 531 
L 3481 0 
L 794 0 
L 794 531 
z
" transform="scale(0.015625)"/>
        <path id="DejaVuSans-33" d="M 2597 2516 
Q 3050 2419 3304 2112 
Q 3559 1806 3559 1356 
Q 3559 666 3084 287 
Q 2609 -91 1734 -91 
Q 1441 -91 1130 -33 
Q 819 25 488 141 
L 488 750 
Q 750 597 1062 519 
Q 1375 441 1716 441 
Q 2309 441 2620 675 
Q 2931 909 2931 1356 
Q 2931 1769 2642 2001 
Q 2353 2234 1838 2234 
L 1294 2234 
L 1294 2753 
L 1863 2753 
Q 2328 2753 2575 2939 
Q 2822 3125 2822 3475 
Q 2822 3834 2567 4026 
Q 2313 4219 1838 4219 
Q 1578 4219 1281 4162 
Q 984 4106 628 3988 
L 628 4550 
Q 988 4650 1302 4700 
Q 1616 4750 1894 4750 
Q 2613 4750 3031 4423 
Q 3450 4097 3450 3541 
Q 3450 3153 3228 2886 
Q 3006 2619 2597 2516 
z
" transform="scale(0.015625)"/>
        <path id="DejaVuSans-34" d="M 2419 4116 
L 825 1625 
L 2419 1625 
L 2419 4116 
z
M 2253 4666 
L 3047 4666 
L 3047 1625 
L 3713 1625 
L 3713 1100 
L 3047 1100 
L 3047 0 
L 2419 0 
L 2419 1100 
L 313 1100 
L 313 1709 
L 2253 4666 
z
" transform="scale(0.015625)"/>
       </defs>
       <use xlink:href="#DejaVuSans-32"/>
       <use xlink:href="#DejaVuSans-2b" x="63.623047"/>
       <use xlink:href="#DejaVuSans-31" x="147.412109"/>
       <use xlink:href="#DejaVuSans-2b" x="211.035156"/>
       <use xlink:href="#DejaVuSans-33" x="294.824219"/>
       <use xlink:href="#DejaVuSans-2b" x="358.447266"/>
       <use xlink:href="#DejaVuSans-34" x="442.236328"/>
      </g>
     </g>
    </g>
    <g id="xtick_2">
     <g id="line2d_2">
      <g>
       <use xlink:href="#m988213fc43" x="214.805313" y="270.884492" style="stroke: #000000; stroke-width: 0.8"/>
      </g>
     </g>
     <g id="text_2">
      <!-- 2+1+6+3+4 -->
      <g transform="translate(193.6584 329.453569) rotate(-45) scale(0.1 -0.1)">
       <defs>
        <path id="DejaVuSans-36" d="M 2113 2584 
Q 1688 2584 1439 2293 
Q 1191 2003 1191 1497 
Q 1191 994 1439 701 
Q 1688 409 2113 409 
Q 2538 409 2786 701 
Q 3034 994 3034 1497 
Q 3034 2003 2786 2293 
Q 2538 2584 2113 2584 
z
M 3366 4563 
L 3366 3988 
Q 3128 4100 2886 4159 
Q 2644 4219 2406 4219 
Q 1781 4219 1451 3797 
Q 1122 3375 1075 2522 
Q 1259 2794 1537 2939 
Q 1816 3084 2150 3084 
Q 2853 3084 3261 2657 
Q 3669 2231 3669 1497 
Q 3669 778 3244 343 
Q 2819 -91 2113 -91 
Q 1303 -91 875 529 
Q 447 1150 447 2328 
Q 447 3434 972 4092 
Q 1497 4750 2381 4750 
Q 2619 4750 2861 4703 
Q 3103 4656 3366 4563 
z
" transform="scale(0.015625)"/>
       </defs>
       <use xlink:href="#DejaVuSans-32"/>
       <use xlink:href="#DejaVuSans-2b" x="63.623047"/>
       <use xlink:href="#DejaVuSans-31" x="147.412109"/>
       <use xlink:href="#DejaVuSans-2b" x="211.035156"/>
       <use xlink:href="#DejaVuSans-36" x="294.824219"/>
       <use xlink:href="#DejaVuSans-2b" x="358.447266"/>
       <use xlink:href="#DejaVuSans-33" x="442.236328"/>
       <use xlink:href="#DejaVuSans-2b" x="505.859375"/>
       <use xlink:href="#DejaVuSans-34" x="589.648438"/>
      </g>
     </g>
    </g>
    <g id="xtick_3">
     <g id="line2d_3">
      <g>
       <use xlink:href="#m988213fc43" x="326.698438" y="270.884492" style="stroke: #000000; stroke-width: 0.8"/>
      </g>
     </g>
     <g id="text_3">
      <!-- 2+1+3+5 -->
      <g transform="translate(310.763676 319.029268) rotate(-45) scale(0.1 -0.1)">
       <defs>
        <path id="DejaVuSans-35" d="M 691 4666 
L 3169 4666 
L 3169 4134 
L 1269 4134 
L 1269 2991 
Q 1406 3038 1543 3061 
Q 1681 3084 1819 3084 
Q 2600 3084 3056 2656 
Q 3513 2228 3513 1497 
Q 3513 744 3044 326 
Q 2575 -91 1722 -91 
Q 1428 -91 1123 -41 
Q 819 9 494 109 
L 494 744 
Q 775 591 1075 516 
Q 1375 441 1709 441 
Q 2250 441 2565 725 
Q 2881 1009 2881 1497 
Q 2881 1984 2565 2268 
Q 2250 2553 1709 2553 
Q 1456 2553 1204 2497 
Q 953 2441 691 2322 
L 691 4666 
z
" transform="scale(0.015625)"/>
       </defs>
       <use xlink:href="#DejaVuSans-32"/>
       <use xlink:href="#DejaVuSans-2b" x="63.623047"/>
       <use xlink:href="#DejaVuSans-31" x="147.412109"/>
       <use xlink:href="#DejaVuSans-2b" x="211.035156"/>
       <use xlink:href="#DejaVuSans-33" x="294.824219"/>
       <use xlink:href="#DejaVuSans-2b" x="358.447266"/>
       <use xlink:href="#DejaVuSans-35" x="442.236328"/>
      </g>
     </g>
    </g>
    <g id="xtick_4">
     <g id="line2d_4">
      <g>
       <use xlink:href="#m988213fc43" x="438.591563" y="270.884492" style="stroke: #000000; stroke-width: 0.8"/>
      </g>
     </g>
     <g id="text_4">
      <!-- 2+1+3+5+7 -->
      <g transform="translate(417.44465 329.453569) rotate(-45) scale(0.1 -0.1)">
       <defs>
        <path id="DejaVuSans-37" d="M 525 4666 
L 3525 4666 
L 3525 4397 
L 1831 0 
L 1172 0 
L 2766 4134 
L 525 4134 
L 525 4666 
z
" transform="scale(0.015625)"/>
       </defs>
       <use xlink:href="#DejaVuSans-32"/>
       <use xlink:href="#DejaVuSans-2b" x="63.623047"/>
       <use xlink:href="#DejaVuSans-31" x="147.412109"/>
       <use xlink:href="#DejaVuSans-2b" x="211.035156"/>
       <use xlink:href="#DejaVuSans-33" x="294.824219"/>
       <use xlink:href="#DejaVuSans-2b" x="358.447266"/>
       <use xlink:href="#DejaVuSans-35" x="442.236328"/>
       <use xlink:href="#DejaVuSans-2b" x="505.859375"/>
       <use xlink:href="#DejaVuSans-37" x="589.648438"/>
      </g>
     </g>
    </g>
    <g id="text_5">
     <!-- uTP Variant -->
     <g transform="translate(242.190938 342.522567) scale(0.1 -0.1)">
      <defs>
       <path id="DejaVuSans-75" d="M 544 1381 
L 544 3500 
L 1119 3500 
L 1119 1403 
Q 1119 906 1312 657 
Q 1506 409 1894 409 
Q 2359 409 2629 706 
Q 2900 1003 2900 1516 
L 2900 3500 
L 3475 3500 
L 3475 0 
L 2900 0 
L 2900 538 
Q 2691 219 2414 64 
Q 2138 -91 1772 -91 
Q 1169 -91 856 284 
Q 544 659 544 1381 
z
M 1991 3584 
L 1991 3584 
z
" transform="scale(0.015625)"/>
       <path id="DejaVuSans-54" d="M -19 4666 
L 3928 4666 
L 3928 4134 
L 2272 4134 
L 2272 0 
L 1638 0 
L 1638 4134 
L -19 4134 
L -19 4666 
z
" transform="scale(0.015625)"/>
       <path id="DejaVuSans-50" d="M 1259 4147 
L 1259 2394 
L 2053 2394 
Q 2494 2394 2734 2622 
Q 2975 2850 2975 3272 
Q 2975 3691 2734 3919 
Q 2494 4147 2053 4147 
L 1259 4147 
z
M 628 4666 
L 2053 4666 
Q 2838 4666 3239 4311 
Q 3641 3956 3641 3272 
Q 3641 2581 3239 2228 
Q 2838 1875 2053 1875 
L 1259 1875 
L 1259 0 
L 628 0 
L 628 4666 
z
" transform="scale(0.015625)"/>
       <path id="DejaVuSans-20" transform="scale(0.015625)"/>
       <path id="DejaVuSans-56" d="M 1831 0 
L 50 4666 
L 709 4666 
L 2188 738 
L 3669 4666 
L 4325 4666 
L 2547 0 
L 1831 0 
z
" transform="scale(0.015625)"/>
       <path id="DejaVuSans-61" d="M 2194 1759 
Q 1497 1759 1228 1600 
Q 959 1441 959 1056 
Q 959 750 1161 570 
Q 1363 391 1709 391 
Q 2188 391 2477 730 
Q 2766 1069 2766 1631 
L 2766 1759 
L 2194 1759 
z
M 3341 1997 
L 3341 0 
L 2766 0 
L 2766 531 
Q 2569 213 2275 61 
Q 1981 -91 1556 -91 
Q 1019 -91 701 211 
Q 384 513 384 1019 
Q 384 1609 779 1909 
Q 1175 2209 1959 2209 
L 2766 2209 
L 2766 2266 
Q 2766 2663 2505 2880 
Q 2244 3097 1772 3097 
Q 1472 3097 1187 3025 
Q 903 2953 641 2809 
L 641 3341 
Q 956 3463 1253 3523 
Q 1550 3584 1831 3584 
Q 2591 3584 2966 3190 
Q 3341 2797 3341 1997 
z
" transform="scale(0.015625)"/>
       <path id="DejaVuSans-72" d="M 2631 2963 
Q 2534 3019 2420 3045 
Q 2306 3072 2169 3072 
Q 1681 3072 1420 2755 
Q 1159 2438 1159 1844 
L 1159 0 
L 581 0 
L 581 3500 
L 1159 3500 
L 1159 2956 
Q 1341 3275 1631 3429 
Q 1922 3584 2338 3584 
Q 2397 3584 2469 3576 
Q 2541 3569 2628 3553 
L 2631 2963 
z
" transform="scale(0.015625)"/>
       <path id="DejaVuSans-69" d="M 603 3500 
L 1178 3500 
L 1178 0 
L 603 0 
L 603 3500 
z
M 603 4863 
L 1178 4863 
L 1178 4134 
L 603 4134 
L 603 4863 
z
" transform="scale(0.015625)"/>
       <path id="DejaVuSans-6e" d="M 3513 2113 
L 3513 0 
L 2938 0 
L 2938 2094 
Q 2938 2591 2744 2837 
Q 2550 3084 2163 3084 
Q 1697 3084 1428 2787 
Q 1159 2491 1159 1978 
L 1159 0 
L 581 0 
L 581 3500 
L 1159 3500 
L 1159 2956 
Q 1366 3272 1645 3428 
Q 1925 3584 2291 3584 
Q 2894 3584 3203 3211 
Q 3513 2838 3513 2113 
z
" transform="scale(0.015625)"/>
       <path id="DejaVuSans-74" d="M 1172 4494 
L 1172 3500 
L 2356 3500 
L 2356 3053 
L 1172 3053 
L 1172 1153 
Q 1172 725 1289 603 
Q 1406 481 1766 481 
L 2356 481 
L 2356 0 
L 1766 0 
Q 1100 0 847 248 
Q 594 497 594 1153 
L 594 3053 
L 172 3053 
L 172 3500 
L 594 3500 
L 594 4494 
L 1172 4494 
z
" transform="scale(0.015625)"/>
      </defs>
      <use xlink:href="#DejaVuSans-75"/>
      <use xlink:href="#DejaVuSans-54" x="63.378906"/>
      <use xlink:href="#DejaVuSans-50" x="124.462891"/>
      <use xlink:href="#DejaVuSans-20" x="184.765625"/>
      <use xlink:href="#DejaVuSans-56" x="216.552734"/>
      <use xlink:href="#DejaVuSans-61" x="277.210938"/>
      <use xlink:href="#DejaVuSans-72" x="338.490234"/>
      <use xlink:href="#DejaVuSans-69" x="379.603516"/>
      <use xlink:href="#DejaVuSans-61" x="407.386719"/>
      <use xlink:href="#DejaVuSans-6e" x="468.666016"/>
      <use xlink:href="#DejaVuSans-74" x="532.044922"/>
     </g>
    </g>
   </g>
   <g id="matplotlib.axis_2">
    <g id="ytick_1">
     <g id="line2d_5">
      <defs>
       <path id="m7d82f9dd0d" d="M 0 0 
L -3.5 0 
" style="stroke: #000000; stroke-width: 0.8"/>
      </defs>
      <g>
       <use xlink:href="#m7d82f9dd0d" x="46.965625" y="228.751986" style="stroke: #000000; stroke-width: 0.8"/>
      </g>
     </g>
     <g id="text_6">
      <!-- 100 -->
      <g transform="translate(20.878125 232.551205) scale(0.1 -0.1)">
       <defs>
        <path id="DejaVuSans-30" d="M 2034 4250 
Q 1547 4250 1301 3770 
Q 1056 3291 1056 2328 
Q 1056 1369 1301 889 
Q 1547 409 2034 409 
Q 2525 409 2770 889 
Q 3016 1369 3016 2328 
Q 3016 3291 2770 3770 
Q 2525 4250 2034 4250 
z
M 2034 4750 
Q 2819 4750 3233 4129 
Q 3647 3509 3647 2328 
Q 3647 1150 3233 529 
Q 2819 -91 2034 -91 
Q 1250 -91 836 529 
Q 422 1150 422 2328 
Q 422 3509 836 4129 
Q 1250 4750 2034 4750 
z
" transform="scale(0.015625)"/>
       </defs>
       <use xlink:href="#DejaVuSans-31"/>
       <use xlink:href="#DejaVuSans-30" x="63.623047"/>
       <use xlink:href="#DejaVuSans-30" x="127.246094"/>
      </g>
     </g>
    </g>
    <g id="ytick_2">
     <g id="line2d_6">
      <g>
       <use xlink:href="#m7d82f9dd0d" x="46.965625" y="184.703365" style="stroke: #000000; stroke-width: 0.8"/>
      </g>
     </g>
     <g id="text_7">
      <!-- 200 -->
      <g transform="translate(20.878125 188.502584) scale(0.1 -0.1)">
       <use xlink:href="#DejaVuSans-32"/>
       <use xlink:href="#DejaVuSans-30" x="63.623047"/>
       <use xlink:href="#DejaVuSans-30" x="127.246094"/>
      </g>
     </g>
    </g>
    <g id="ytick_3">
     <g id="line2d_7">
      <g>
       <use xlink:href="#m7d82f9dd0d" x="46.965625" y="140.654745" style="stroke: #000000; stroke-width: 0.8"/>
      </g>
     </g>
     <g id="text_8">
      <!-- 300 -->
      <g transform="translate(20.878125 144.453963) scale(0.1 -0.1)">
       <use xlink:href="#DejaVuSans-33"/>
       <use xlink:href="#DejaVuSans-30" x="63.623047"/>
       <use xlink:href="#DejaVuSans-30" x="127.246094"/>
      </g>
     </g>
    </g>
    <g id="ytick_4">
     <g id="line2d_8">
      <g>
       <use xlink:href="#m7d82f9dd0d" x="46.965625" y="96.606124" style="stroke: #000000; stroke-width: 0.8"/>
      </g>
     </g>
     <g id="text_9">
      <!-- 400 -->
      <g transform="translate(20.878125 100.405343) scale(0.1 -0.1)">
       <use xlink:href="#DejaVuSans-34"/>
       <use xlink:href="#DejaVuSans-30" x="63.623047"/>
       <use xlink:href="#DejaVuSans-30" x="127.246094"/>
      </g>
     </g>
    </g>
    <g id="ytick_5">
     <g id="line2d_9">
      <g>
       <use xlink:href="#m7d82f9dd0d" x="46.965625" y="52.557503" style="stroke: #000000; stroke-width: 0.8"/>
      </g>
     </g>
     <g id="text_10">
      <!-- 500 -->
      <g transform="translate(20.878125 56.356722) scale(0.1 -0.1)">
       <use xlink:href="#DejaVuSans-35"/>
       <use xlink:href="#DejaVuSans-30" x="63.623047"/>
       <use xlink:href="#DejaVuSans-30" x="127.246094"/>
      </g>
     </g>
    </g>
    <g id="text_11">
     <!-- Mature Domain Length (aa) -->
     <g transform="translate(14.798438 215.573183) rotate(-90) scale(0.1 -0.1)">
      <defs>
       <path id="DejaVuSans-4d" d="M 628 4666 
L 1569 4666 
L 2759 1491 
L 3956 4666 
L 4897 4666 
L 4897 0 
L 4281 0 
L 4281 4097 
L 3078 897 
L 2444 897 
L 1241 4097 
L 1241 0 
L 628 0 
L 628 4666 
z
" transform="scale(0.015625)"/>
       <path id="DejaVuSans-65" d="M 3597 1894 
L 3597 1613 
L 953 1613 
Q 991 1019 1311 708 
Q 1631 397 2203 397 
Q 2534 397 2845 478 
Q 3156 559 3463 722 
L 3463 178 
Q 3153 47 2828 -22 
Q 2503 -91 2169 -91 
Q 1331 -91 842 396 
Q 353 884 353 1716 
Q 353 2575 817 3079 
Q 1281 3584 2069 3584 
Q 2775 3584 3186 3129 
Q 3597 2675 3597 1894 
z
M 3022 2063 
Q 3016 2534 2758 2815 
Q 2500 3097 2075 3097 
Q 1594 3097 1305 2825 
Q 1016 2553 972 2059 
L 3022 2063 
z
" transform="scale(0.015625)"/>
       <path id="DejaVuSans-44" d="M 1259 4147 
L 1259 519 
L 2022 519 
Q 2988 519 3436 956 
Q 3884 1394 3884 2338 
Q 3884 3275 3436 3711 
Q 2988 4147 2022 4147 
L 1259 4147 
z
M 628 4666 
L 1925 4666 
Q 3281 4666 3915 4102 
Q 4550 3538 4550 2338 
Q 4550 1131 3912 565 
Q 3275 0 1925 0 
L 628 0 
L 628 4666 
z
" transform="scale(0.015625)"/>
       <path id="DejaVuSans-6f" d="M 1959 3097 
Q 1497 3097 1228 2736 
Q 959 2375 959 1747 
Q 959 1119 1226 758 
Q 1494 397 1959 397 
Q 2419 397 2687 759 
Q 2956 1122 2956 1747 
Q 2956 2369 2687 2733 
Q 2419 3097 1959 3097 
z
M 1959 3584 
Q 2709 3584 3137 3096 
Q 3566 2609 3566 1747 
Q 3566 888 3137 398 
Q 2709 -91 1959 -91 
Q 1206 -91 779 398 
Q 353 888 353 1747 
Q 353 2609 779 3096 
Q 1206 3584 1959 3584 
z
" transform="scale(0.015625)"/>
       <path id="DejaVuSans-6d" d="M 3328 2828 
Q 3544 3216 3844 3400 
Q 4144 3584 4550 3584 
Q 5097 3584 5394 3201 
Q 5691 2819 5691 2113 
L 5691 0 
L 5113 0 
L 5113 2094 
Q 5113 2597 4934 2840 
Q 4756 3084 4391 3084 
Q 3944 3084 3684 2787 
Q 3425 2491 3425 1978 
L 3425 0 
L 2847 0 
L 2847 2094 
Q 2847 2600 2669 2842 
Q 2491 3084 2119 3084 
Q 1678 3084 1418 2786 
Q 1159 2488 1159 1978 
L 1159 0 
L 581 0 
L 581 3500 
L 1159 3500 
L 1159 2956 
Q 1356 3278 1631 3431 
Q 1906 3584 2284 3584 
Q 2666 3584 2933 3390 
Q 3200 3197 3328 2828 
z
" transform="scale(0.015625)"/>
       <path id="DejaVuSans-4c" d="M 628 4666 
L 1259 4666 
L 1259 531 
L 3531 531 
L 3531 0 
L 628 0 
L 628 4666 
z
" transform="scale(0.015625)"/>
       <path id="DejaVuSans-67" d="M 2906 1791 
Q 2906 2416 2648 2759 
Q 2391 3103 1925 3103 
Q 1463 3103 1205 2759 
Q 947 2416 947 1791 
Q 947 1169 1205 825 
Q 1463 481 1925 481 
Q 2391 481 2648 825 
Q 2906 1169 2906 1791 
z
M 3481 434 
Q 3481 -459 3084 -895 
Q 2688 -1331 1869 -1331 
Q 1566 -1331 1297 -1286 
Q 1028 -1241 775 -1147 
L 775 -588 
Q 1028 -725 1275 -790 
Q 1522 -856 1778 -856 
Q 2344 -856 2625 -561 
Q 2906 -266 2906 331 
L 2906 616 
Q 2728 306 2450 153 
Q 2172 0 1784 0 
Q 1141 0 747 490 
Q 353 981 353 1791 
Q 353 2603 747 3093 
Q 1141 3584 1784 3584 
Q 2172 3584 2450 3431 
Q 2728 3278 2906 2969 
L 2906 3500 
L 3481 3500 
L 3481 434 
z
" transform="scale(0.015625)"/>
       <path id="DejaVuSans-68" d="M 3513 2113 
L 3513 0 
L 2938 0 
L 2938 2094 
Q 2938 2591 2744 2837 
Q 2550 3084 2163 3084 
Q 1697 3084 1428 2787 
Q 1159 2491 1159 1978 
L 1159 0 
L 581 0 
L 581 4863 
L 1159 4863 
L 1159 2956 
Q 1366 3272 1645 3428 
Q 1925 3584 2291 3584 
Q 2894 3584 3203 3211 
Q 3513 2838 3513 2113 
z
" transform="scale(0.015625)"/>
       <path id="DejaVuSans-28" d="M 1984 4856 
Q 1566 4138 1362 3434 
Q 1159 2731 1159 2009 
Q 1159 1288 1364 580 
Q 1569 -128 1984 -844 
L 1484 -844 
Q 1016 -109 783 600 
Q 550 1309 550 2009 
Q 550 2706 781 3412 
Q 1013 4119 1484 4856 
L 1984 4856 
z
" transform="scale(0.015625)"/>
       <path id="DejaVuSans-29" d="M 513 4856 
L 1013 4856 
Q 1481 4119 1714 3412 
Q 1947 2706 1947 2009 
Q 1947 1309 1714 600 
Q 1481 -109 1013 -844 
L 513 -844 
Q 928 -128 1133 580 
Q 1338 1288 1338 2009 
Q 1338 2731 1133 3434 
Q 928 4138 513 4856 
z
" transform="scale(0.015625)"/>
      </defs>
      <use xlink:href="#DejaVuSans-4d"/>
      <use xlink:href="#DejaVuSans-61" x="86.279297"/>
      <use xlink:href="#DejaVuSans-74" x="147.558594"/>
      <use xlink:href="#DejaVuSans-75" x="186.767578"/>
      <use xlink:href="#DejaVuSans-72" x="250.146484"/>
      <use xlink:href="#DejaVuSans-65" x="289.009766"/>
      <use xlink:href="#DejaVuSans-20" x="350.533203"/>
      <use xlink:href="#DejaVuSans-44" x="382.320312"/>
      <use xlink:href="#DejaVuSans-6f" x="459.322266"/>
      <use xlink:href="#DejaVuSans-6d" x="520.503906"/>
      <use xlink:href="#DejaVuSans-61" x="617.916016"/>
      <use xlink:href="#DejaVuSans-69" x="679.195312"/>
      <use xlink:href="#DejaVuSans-6e" x="706.978516"/>
      <use xlink:href="#DejaVuSans-20" x="770.357422"/>
      <use xlink:href="#DejaVuSans-4c" x="802.144531"/>
      <use xlink:href="#DejaVuSans-65" x="856.107422"/>
      <use xlink:href="#DejaVuSans-6e" x="917.630859"/>
      <use xlink:href="#DejaVuSans-67" x="981.009766"/>
      <use xlink:href="#DejaVuSans-74" x="1044.486328"/>
      <use xlink:href="#DejaVuSans-68" x="1083.695312"/>
      <use xlink:href="#DejaVuSans-20" x="1147.074219"/>
      <use xlink:href="#DejaVuSans-28" x="1178.861328"/>
      <use xlink:href="#DejaVuSans-61" x="1217.875"/>
      <use xlink:href="#DejaVuSans-61" x="1279.154297"/>
      <use xlink:href="#DejaVuSans-29" x="1340.433594"/>
     </g>
    </g>
   </g>
   <g id="patch_3">
    <path d="M 58.154938 248.023258 
L 147.669438 248.023258 
L 147.669438 211.242659 
L 58.154938 211.242659 
L 58.154938 248.023258 
z
" clip-path="url(#pd1bbd63a25)" style="fill: #3274a1; stroke: #3f3f3f; stroke-linejoin: miter"/>
   </g>
   <g id="line2d_10">
    <path d="M 102.912188 248.023258 
L 102.912188 255.621645 
" clip-path="url(#pd1bbd63a25)" style="fill: none; stroke: #3f3f3f"/>
   </g>
   <g id="line2d_11">
    <path d="M 102.912188 211.242659 
L 102.912188 160.476624 
" clip-path="url(#pd1bbd63a25)" style="fill: none; stroke: #3f3f3f"/>
   </g>
   <g id="line2d_12">
    <path d="M 80.533563 255.621645 
L 125.290813 255.621645 
" clip-path="url(#pd1bbd63a25)" style="fill: none; stroke: #3f3f3f; stroke-linecap: square"/>
   </g>
   <g id="line2d_13">
    <path d="M 80.533563 160.476624 
L 125.290813 160.476624 
" clip-path="url(#pd1bbd63a25)" style="fill: none; stroke: #3f3f3f; stroke-linecap: square"/>
   </g>
   <g id="line2d_14"/>
   <g id="patch_4">
    <path d="M 170.048063 245.930948 
L 259.562563 245.930948 
L 259.562563 231.394903 
L 170.048063 231.394903 
L 170.048063 245.930948 
z
" clip-path="url(#pd1bbd63a25)" style="fill: #3274a1; stroke: #3f3f3f; stroke-linejoin: miter"/>
   </g>
   <g id="line2d_15">
    <path d="M 214.805313 245.930948 
L 214.805313 259.586021 
" clip-path="url(#pd1bbd63a25)" style="fill: none; stroke: #3f3f3f"/>
   </g>
   <g id="line2d_16">
    <path d="M 214.805313 231.394903 
L 214.805313 209.811079 
" clip-path="url(#pd1bbd63a25)" style="fill: none; stroke: #3f3f3f"/>
   </g>
   <g id="line2d_17">
    <path d="M 192.426688 259.586021 
L 237.183938 259.586021 
" clip-path="url(#pd1bbd63a25)" style="fill: none; stroke: #3f3f3f; stroke-linecap: square"/>
   </g>
   <g id="line2d_18">
    <path d="M 192.426688 209.811079 
L 237.183938 209.811079 
" clip-path="url(#pd1bbd63a25)" style="fill: none; stroke: #3f3f3f; stroke-linecap: square"/>
   </g>
   <g id="line2d_19">
    <defs>
     <path id="m95d2ab7006" d="M 0 3 
C 0.795609 3 1.55874 2.683901 2.12132 2.12132 
C 2.683901 1.55874 3 0.795609 3 0 
C 3 -0.795609 2.683901 -1.55874 2.12132 -2.12132 
C 1.55874 -2.683901 0.795609 -3 0 -3 
C -0.795609 -3 -1.55874 -2.683901 -2.12132 -2.12132 
C -2.683901 -1.55874 -3 -0.795609 -3 0 
C -3 0.795609 -2.683901 1.55874 -2.12132 2.12132 
C -1.55874 2.683901 -0.795609 3 0 3 
z
" style="stroke: #3f3f3f"/>
    </defs>
    <g clip-path="url(#pd1bbd63a25)">
     <use xlink:href="#m95d2ab7006" x="214.805313" y="178.977045" style="fill-opacity: 0; stroke: #3f3f3f"/>
    </g>
   </g>
   <g id="patch_5">
    <path d="M 281.941188 239.323655 
L 371.455688 239.323655 
L 371.455688 213.775455 
L 281.941188 213.775455 
L 281.941188 239.323655 
z
" clip-path="url(#pd1bbd63a25)" style="fill: #3274a1; stroke: #3f3f3f; stroke-linejoin: miter"/>
   </g>
   <g id="line2d_20">
    <path d="M 326.698438 239.323655 
L 326.698438 257.38359 
" clip-path="url(#pd1bbd63a25)" style="fill: none; stroke: #3f3f3f"/>
   </g>
   <g id="line2d_21">
    <path d="M 326.698438 213.775455 
L 326.698438 210.251565 
" clip-path="url(#pd1bbd63a25)" style="fill: none; stroke: #3f3f3f"/>
   </g>
   <g id="line2d_22">
    <path d="M 304.319813 257.38359 
L 349.077063 257.38359 
" clip-path="url(#pd1bbd63a25)" style="fill: none; stroke: #3f3f3f; stroke-linecap: square"/>
   </g>
   <g id="line2d_23">
    <path d="M 304.319813 210.251565 
L 349.077063 210.251565 
" clip-path="url(#pd1bbd63a25)" style="fill: none; stroke: #3f3f3f; stroke-linecap: square"/>
   </g>
   <g id="line2d_24">
    <g clip-path="url(#pd1bbd63a25)">
     <use xlink:href="#m95d2ab7006" x="326.698438" y="124.797241" style="fill-opacity: 0; stroke: #3f3f3f"/>
     <use xlink:href="#m95d2ab7006" x="326.698438" y="147.262038" style="fill-opacity: 0; stroke: #3f3f3f"/>
     <use xlink:href="#m95d2ab7006" x="326.698438" y="33.616596" style="fill-opacity: 0; stroke: #3f3f3f"/>
    </g>
   </g>
   <g id="patch_6">
    <path d="M 393.834313 235.028915 
L 483.348813 235.028915 
L 483.348813 212.784361 
L 393.834313 212.784361 
L 393.834313 235.028915 
z
" clip-path="url(#pd1bbd63a25)" style="fill: #3274a1; stroke: #3f3f3f; stroke-linejoin: miter"/>
   </g>
   <g id="line2d_25">
    <path d="M 438.591563 235.028915 
L 438.591563 244.169003 
" clip-path="url(#pd1bbd63a25)" style="fill: none; stroke: #3f3f3f"/>
   </g>
   <g id="line2d_26">
    <path d="M 438.591563 212.784361 
L 438.591563 186.024824 
" clip-path="url(#pd1bbd63a25)" style="fill: none; stroke: #3f3f3f"/>
   </g>
   <g id="line2d_27">
    <path d="M 416.212938 244.169003 
L 460.970188 244.169003 
" clip-path="url(#pd1bbd63a25)" style="fill: none; stroke: #3f3f3f; stroke-linecap: square"/>
   </g>
   <g id="line2d_28">
    <path d="M 416.212938 186.024824 
L 460.970188 186.024824 
" clip-path="url(#pd1bbd63a25)" style="fill: none; stroke: #3f3f3f; stroke-linecap: square"/>
   </g>
   <g id="line2d_29">
    <g clip-path="url(#pd1bbd63a25)">
     <use xlink:href="#m95d2ab7006" x="438.591563" y="178.096072" style="fill-opacity: 0; stroke: #3f3f3f"/>
     <use xlink:href="#m95d2ab7006" x="438.591563" y="151.6669" style="fill-opacity: 0; stroke: #3f3f3f"/>
    </g>
   </g>
   <g id="line2d_30">
    <path d="M 58.154938 241.526086 
L 147.669438 241.526086 
" clip-path="url(#pd1bbd63a25)" style="fill: none; stroke: #3f3f3f"/>
   </g>
   <g id="line2d_31">
    <path d="M 170.048063 239.323655 
L 259.562563 239.323655 
" clip-path="url(#pd1bbd63a25)" style="fill: none; stroke: #3f3f3f"/>
   </g>
   <g id="line2d_32">
    <path d="M 281.941188 218.620803 
L 371.455688 218.620803 
" clip-path="url(#pd1bbd63a25)" style="fill: none; stroke: #3f3f3f"/>
   </g>
   <g id="line2d_33">
    <path d="M 393.834313 216.638615 
L 483.348813 216.638615 
" clip-path="url(#pd1bbd63a25)" style="fill: none; stroke: #3f3f3f"/>
   </g>
   <g id="patch_7">
    <path d="M 46.965625 270.884492 
L 46.965625 22.318125 
" style="fill: none; stroke: #000000; stroke-width: 0.8; stroke-linejoin: miter; stroke-linecap: square"/>
   </g>
   <g id="patch_8">
    <path d="M 494.538125 270.884492 
L 494.538125 22.318125 
" style="fill: none; stroke: #000000; stroke-width: 0.8; stroke-linejoin: miter; stroke-linecap: square"/>
   </g>
   <g id="patch_9">
    <path d="M 46.965625 270.884492 
L 494.538125 270.884492 
" style="fill: none; stroke: #000000; stroke-width: 0.8; stroke-linejoin: miter; stroke-linecap: square"/>
   </g>
   <g id="patch_10">
    <path d="M 46.965625 22.318125 
L 494.538125 22.318125 
" style="fill: none; stroke: #000000; stroke-width: 0.8; stroke-linejoin: miter; stroke-linecap: square"/>
   </g>
   <g id="text_12">
    <!-- Mature Domain Length by Variant -->
    <g transform="translate(169.472813 16.318125) scale(0.12 -0.12)">
     <defs>
      <path id="DejaVuSans-62" d="M 3116 1747 
Q 3116 2381 2855 2742 
Q 2594 3103 2138 3103 
Q 1681 3103 1420 2742 
Q 1159 2381 1159 1747 
Q 1159 1113 1420 752 
Q 1681 391 2138 391 
Q 2594 391 2855 752 
Q 3116 1113 3116 1747 
z
M 1159 2969 
Q 1341 3281 1617 3432 
Q 1894 3584 2278 3584 
Q 2916 3584 3314 3078 
Q 3713 2572 3713 1747 
Q 3713 922 3314 415 
Q 2916 -91 2278 -91 
Q 1894 -91 1617 61 
Q 1341 213 1159 525 
L 1159 0 
L 581 0 
L 581 4863 
L 1159 4863 
L 1159 2969 
z
" transform="scale(0.015625)"/>
      <path id="DejaVuSans-79" d="M 2059 -325 
Q 1816 -950 1584 -1140 
Q 1353 -1331 966 -1331 
L 506 -1331 
L 506 -850 
L 844 -850 
Q 1081 -850 1212 -737 
Q 1344 -625 1503 -206 
L 1606 56 
L 191 3500 
L 800 3500 
L 1894 763 
L 2988 3500 
L 3597 3500 
L 2059 -325 
z
" transform="scale(0.015625)"/>
     </defs>
     <use xlink:href="#DejaVuSans-4d"/>
     <use xlink:href="#DejaVuSans-61" x="86.279297"/>
     <use xlink:href="#DejaVuSans-74" x="147.558594"/>
     <use xlink:href="#DejaVuSans-75" x="186.767578"/>
     <use xlink:href="#DejaVuSans-72" x="250.146484"/>
     <use xlink:href="#DejaVuSans-65" x="289.009766"/>
     <use xlink:href="#DejaVuSans-20" x="350.533203"/>
     <use xlink:href="#DejaVuSans-44" x="382.320312"/>
     <use xlink:href="#DejaVuSans-6f" x="459.322266"/>
     <use xlink:href="#DejaVuSans-6d" x="520.503906"/>
     <use xlink:href="#DejaVuSans-61" x="617.916016"/>
     <use xlink:href="#DejaVuSans-69" x="679.195312"/>
     <use xlink:href="#DejaVuSans-6e" x="706.978516"/>
     <use xlink:href="#DejaVuSans-20" x="770.357422"/>
     <use xlink:href="#DejaVuSans-4c" x="802.144531"/>
     <use xlink:href="#DejaVuSans-65" x="856.107422"/>
     <use xlink:href="#DejaVuSans-6e" x="917.630859"/>
     <use xlink:href="#DejaVuSans-67" x="981.009766"/>
     <use xlink:href="#DejaVuSans-74" x="1044.486328"/>
     <use xlink:href="#DejaVuSans-68" x="1083.695312"/>
     <use xlink:href="#DejaVuSans-20" x="1147.074219"/>
     <use xlink:href="#DejaVuSans-62" x="1178.861328"/>
     <use xlink:href="#DejaVuSans-79" x="1242.337891"/>
     <use xlink:href="#DejaVuSans-20" x="1301.517578"/>
     <use xlink:href="#DejaVuSans-56" x="1333.304688"/>
     <use xlink:href="#DejaVuSans-61" x="1393.962891"/>
     <use xlink:href="#DejaVuSans-72" x="1455.242188"/>
     <use xlink:href="#DejaVuSans-69" x="1496.355469"/>
     <use xlink:href="#DejaVuSans-61" x="1524.138672"/>
     <use xlink:href="#DejaVuSans-6e" x="1585.417969"/>
     <use xlink:href="#DejaVuSans-74" x="1648.796875"/>
    </g>
   </g>
  </g>
  <g id="axes_2">
   <g id="patch_11">
    <path d="M 545.543125 270.884492 
L 993.115625 270.884492 
L 993.115625 22.318125 
L 545.543125 22.318125 
z
" style="fill: #ffffff"/>
   </g>
   <g id="matplotlib.axis_3">
    <g id="xtick_5">
     <g id="line2d_34">
      <g>
       <use xlink:href="#m988213fc43" x="601.489688" y="270.884492" style="stroke: #000000; stroke-width: 0.8"/>
      </g>
     </g>
     <g id="text_13">
      <!-- 2+1+3+4 -->
      <g transform="translate(585.554926 319.029268) rotate(-45) scale(0.1 -0.1)">
       <use xlink:href="#DejaVuSans-32"/>
       <use xlink:href="#DejaVuSans-2b" x="63.623047"/>
       <use xlink:href="#DejaVuSans-31" x="147.412109"/>
       <use xlink:href="#DejaVuSans-2b" x="211.035156"/>
       <use xlink:href="#DejaVuSans-33" x="294.824219"/>
       <use xlink:href="#DejaVuSans-2b" x="358.447266"/>
       <use xlink:href="#DejaVuSans-34" x="442.236328"/>
      </g>
     </g>
    </g>
    <g id="xtick_6">
     <g id="line2d_35">
      <g>
       <use xlink:href="#m988213fc43" x="713.382812" y="270.884492" style="stroke: #000000; stroke-width: 0.8"/>
      </g>
     </g>
     <g id="text_14">
      <!-- 2+1+6+3+4 -->
      <g transform="translate(692.2359 329.453569) rotate(-45) scale(0.1 -0.1)">
       <use xlink:href="#DejaVuSans-32"/>
       <use xlink:href="#DejaVuSans-2b" x="63.623047"/>
       <use xlink:href="#DejaVuSans-31" x="147.412109"/>
       <use xlink:href="#DejaVuSans-2b" x="211.035156"/>
       <use xlink:href="#DejaVuSans-36" x="294.824219"/>
       <use xlink:href="#DejaVuSans-2b" x="358.447266"/>
       <use xlink:href="#DejaVuSans-33" x="442.236328"/>
       <use xlink:href="#DejaVuSans-2b" x="505.859375"/>
       <use xlink:href="#DejaVuSans-34" x="589.648438"/>
      </g>
     </g>
    </g>
    <g id="xtick_7">
     <g id="line2d_36">
      <g>
       <use xlink:href="#m988213fc43" x="825.275938" y="270.884492" style="stroke: #000000; stroke-width: 0.8"/>
      </g>
     </g>
     <g id="text_15">
      <!-- 2+1+3+5 -->
      <g transform="translate(809.341176 319.029268) rotate(-45) scale(0.1 -0.1)">
       <use xlink:href="#DejaVuSans-32"/>
       <use xlink:href="#DejaVuSans-2b" x="63.623047"/>
       <use xlink:href="#DejaVuSans-31" x="147.412109"/>
       <use xlink:href="#DejaVuSans-2b" x="211.035156"/>
       <use xlink:href="#DejaVuSans-33" x="294.824219"/>
       <use xlink:href="#DejaVuSans-2b" x="358.447266"/>
       <use xlink:href="#DejaVuSans-35" x="442.236328"/>
      </g>
     </g>
    </g>
    <g id="xtick_8">
     <g id="line2d_37">
      <g>
       <use xlink:href="#m988213fc43" x="937.169063" y="270.884492" style="stroke: #000000; stroke-width: 0.8"/>
      </g>
     </g>
     <g id="text_16">
      <!-- 2+1+3+5+7 -->
      <g transform="translate(916.02215 329.453569) rotate(-45) scale(0.1 -0.1)">
       <use xlink:href="#DejaVuSans-32"/>
       <use xlink:href="#DejaVuSans-2b" x="63.623047"/>
       <use xlink:href="#DejaVuSans-31" x="147.412109"/>
       <use xlink:href="#DejaVuSans-2b" x="211.035156"/>
       <use xlink:href="#DejaVuSans-33" x="294.824219"/>
       <use xlink:href="#DejaVuSans-2b" x="358.447266"/>
       <use xlink:href="#DejaVuSans-35" x="442.236328"/>
       <use xlink:href="#DejaVuSans-2b" x="505.859375"/>
       <use xlink:href="#DejaVuSans-37" x="589.648438"/>
      </g>
     </g>
    </g>
    <g id="text_17">
     <!-- uTP Variant -->
     <g transform="translate(740.768438 342.522567) scale(0.1 -0.1)">
      <use xlink:href="#DejaVuSans-75"/>
      <use xlink:href="#DejaVuSans-54" x="63.378906"/>
      <use xlink:href="#DejaVuSans-50" x="124.462891"/>
      <use xlink:href="#DejaVuSans-20" x="184.765625"/>
      <use xlink:href="#DejaVuSans-56" x="216.552734"/>
      <use xlink:href="#DejaVuSans-61" x="277.210938"/>
      <use xlink:href="#DejaVuSans-72" x="338.490234"/>
      <use xlink:href="#DejaVuSans-69" x="379.603516"/>
      <use xlink:href="#DejaVuSans-61" x="407.386719"/>
      <use xlink:href="#DejaVuSans-6e" x="468.666016"/>
      <use xlink:href="#DejaVuSans-74" x="532.044922"/>
     </g>
    </g>
   </g>
   <g id="matplotlib.axis_4">
    <g id="ytick_6">
     <g id="line2d_38">
      <g>
       <use xlink:href="#m7d82f9dd0d" x="545.543125" y="264.923881" style="stroke: #000000; stroke-width: 0.8"/>
      </g>
     </g>
     <g id="text_18">
      <!-- 80 -->
      <g transform="translate(525.818125 268.7231) scale(0.1 -0.1)">
       <defs>
        <path id="DejaVuSans-38" d="M 2034 2216 
Q 1584 2216 1326 1975 
Q 1069 1734 1069 1313 
Q 1069 891 1326 650 
Q 1584 409 2034 409 
Q 2484 409 2743 651 
Q 3003 894 3003 1313 
Q 3003 1734 2745 1975 
Q 2488 2216 2034 2216 
z
M 1403 2484 
Q 997 2584 770 2862 
Q 544 3141 544 3541 
Q 544 4100 942 4425 
Q 1341 4750 2034 4750 
Q 2731 4750 3128 4425 
Q 3525 4100 3525 3541 
Q 3525 3141 3298 2862 
Q 3072 2584 2669 2484 
Q 3125 2378 3379 2068 
Q 3634 1759 3634 1313 
Q 3634 634 3220 271 
Q 2806 -91 2034 -91 
Q 1263 -91 848 271 
Q 434 634 434 1313 
Q 434 1759 690 2068 
Q 947 2378 1403 2484 
z
M 1172 3481 
Q 1172 3119 1398 2916 
Q 1625 2713 2034 2713 
Q 2441 2713 2670 2916 
Q 2900 3119 2900 3481 
Q 2900 3844 2670 4047 
Q 2441 4250 2034 4250 
Q 1625 4250 1398 4047 
Q 1172 3844 1172 3481 
z
" transform="scale(0.015625)"/>
       </defs>
       <use xlink:href="#DejaVuSans-38"/>
       <use xlink:href="#DejaVuSans-30" x="63.623047"/>
      </g>
     </g>
    </g>
    <g id="ytick_7">
     <g id="line2d_39">
      <g>
       <use xlink:href="#m7d82f9dd0d" x="545.543125" y="229.338145" style="stroke: #000000; stroke-width: 0.8"/>
      </g>
     </g>
     <g id="text_19">
      <!-- 100 -->
      <g transform="translate(519.455625 233.137364) scale(0.1 -0.1)">
       <use xlink:href="#DejaVuSans-31"/>
       <use xlink:href="#DejaVuSans-30" x="63.623047"/>
       <use xlink:href="#DejaVuSans-30" x="127.246094"/>
      </g>
     </g>
    </g>
    <g id="ytick_8">
     <g id="line2d_40">
      <g>
       <use xlink:href="#m7d82f9dd0d" x="545.543125" y="193.752409" style="stroke: #000000; stroke-width: 0.8"/>
      </g>
     </g>
     <g id="text_20">
      <!-- 120 -->
      <g transform="translate(519.455625 197.551628) scale(0.1 -0.1)">
       <use xlink:href="#DejaVuSans-31"/>
       <use xlink:href="#DejaVuSans-32" x="63.623047"/>
       <use xlink:href="#DejaVuSans-30" x="127.246094"/>
      </g>
     </g>
    </g>
    <g id="ytick_9">
     <g id="line2d_41">
      <g>
       <use xlink:href="#m7d82f9dd0d" x="545.543125" y="158.166673" style="stroke: #000000; stroke-width: 0.8"/>
      </g>
     </g>
     <g id="text_21">
      <!-- 140 -->
      <g transform="translate(519.455625 161.965891) scale(0.1 -0.1)">
       <use xlink:href="#DejaVuSans-31"/>
       <use xlink:href="#DejaVuSans-34" x="63.623047"/>
       <use xlink:href="#DejaVuSans-30" x="127.246094"/>
      </g>
     </g>
    </g>
    <g id="ytick_10">
     <g id="line2d_42">
      <g>
       <use xlink:href="#m7d82f9dd0d" x="545.543125" y="122.580937" style="stroke: #000000; stroke-width: 0.8"/>
      </g>
     </g>
     <g id="text_22">
      <!-- 160 -->
      <g transform="translate(519.455625 126.380155) scale(0.1 -0.1)">
       <use xlink:href="#DejaVuSans-31"/>
       <use xlink:href="#DejaVuSans-36" x="63.623047"/>
       <use xlink:href="#DejaVuSans-30" x="127.246094"/>
      </g>
     </g>
    </g>
    <g id="ytick_11">
     <g id="line2d_43">
      <g>
       <use xlink:href="#m7d82f9dd0d" x="545.543125" y="86.9952" style="stroke: #000000; stroke-width: 0.8"/>
      </g>
     </g>
     <g id="text_23">
      <!-- 180 -->
      <g transform="translate(519.455625 90.794419) scale(0.1 -0.1)">
       <use xlink:href="#DejaVuSans-31"/>
       <use xlink:href="#DejaVuSans-38" x="63.623047"/>
       <use xlink:href="#DejaVuSans-30" x="127.246094"/>
      </g>
     </g>
    </g>
    <g id="ytick_12">
     <g id="line2d_44">
      <g>
       <use xlink:href="#m7d82f9dd0d" x="545.543125" y="51.409464" style="stroke: #000000; stroke-width: 0.8"/>
      </g>
     </g>
     <g id="text_24">
      <!-- 200 -->
      <g transform="translate(519.455625 55.208683) scale(0.1 -0.1)">
       <use xlink:href="#DejaVuSans-32"/>
       <use xlink:href="#DejaVuSans-30" x="63.623047"/>
       <use xlink:href="#DejaVuSans-30" x="127.246094"/>
      </g>
     </g>
    </g>
    <g id="text_25">
     <!-- uTP Region Length (aa) -->
     <g transform="translate(513.375938 204.999746) rotate(-90) scale(0.1 -0.1)">
      <defs>
       <path id="DejaVuSans-52" d="M 2841 2188 
Q 3044 2119 3236 1894 
Q 3428 1669 3622 1275 
L 4263 0 
L 3584 0 
L 2988 1197 
Q 2756 1666 2539 1819 
Q 2322 1972 1947 1972 
L 1259 1972 
L 1259 0 
L 628 0 
L 628 4666 
L 2053 4666 
Q 2853 4666 3247 4331 
Q 3641 3997 3641 3322 
Q 3641 2881 3436 2590 
Q 3231 2300 2841 2188 
z
M 1259 4147 
L 1259 2491 
L 2053 2491 
Q 2509 2491 2742 2702 
Q 2975 2913 2975 3322 
Q 2975 3731 2742 3939 
Q 2509 4147 2053 4147 
L 1259 4147 
z
" transform="scale(0.015625)"/>
      </defs>
      <use xlink:href="#DejaVuSans-75"/>
      <use xlink:href="#DejaVuSans-54" x="63.378906"/>
      <use xlink:href="#DejaVuSans-50" x="124.462891"/>
      <use xlink:href="#DejaVuSans-20" x="184.765625"/>
      <use xlink:href="#DejaVuSans-52" x="216.552734"/>
      <use xlink:href="#DejaVuSans-65" x="281.535156"/>
      <use xlink:href="#DejaVuSans-67" x="343.058594"/>
      <use xlink:href="#DejaVuSans-69" x="406.535156"/>
      <use xlink:href="#DejaVuSans-6f" x="434.318359"/>
      <use xlink:href="#DejaVuSans-6e" x="495.5"/>
      <use xlink:href="#DejaVuSans-20" x="558.878906"/>
      <use xlink:href="#DejaVuSans-4c" x="590.666016"/>
      <use xlink:href="#DejaVuSans-65" x="644.628906"/>
      <use xlink:href="#DejaVuSans-6e" x="706.152344"/>
      <use xlink:href="#DejaVuSans-67" x="769.53125"/>
      <use xlink:href="#DejaVuSans-74" x="833.007812"/>
      <use xlink:href="#DejaVuSans-68" x="872.216797"/>
      <use xlink:href="#DejaVuSans-20" x="935.595703"/>
      <use xlink:href="#DejaVuSans-28" x="967.382812"/>
      <use xlink:href="#DejaVuSans-61" x="1006.396484"/>
      <use xlink:href="#DejaVuSans-61" x="1067.675781"/>
      <use xlink:href="#DejaVuSans-29" x="1128.955078"/>
     </g>
    </g>
   </g>
   <g id="patch_12">
    <path d="M 556.732438 177.294006 
L 646.246938 177.294006 
L 646.246938 106.567355 
L 556.732438 106.567355 
L 556.732438 177.294006 
z
" clip-path="url(#pa33576862b)" style="fill: #3274a1; stroke: #3f3f3f; stroke-linejoin: miter"/>
   </g>
   <g id="line2d_45">
    <path d="M 601.489688 177.294006 
L 601.489688 199.090269 
" clip-path="url(#pa33576862b)" style="fill: none; stroke: #3f3f3f"/>
   </g>
   <g id="line2d_46">
    <path d="M 601.489688 106.567355 
L 601.489688 33.616596 
" clip-path="url(#pa33576862b)" style="fill: none; stroke: #3f3f3f"/>
   </g>
   <g id="line2d_47">
    <path d="M 579.111063 199.090269 
L 623.868313 199.090269 
" clip-path="url(#pa33576862b)" style="fill: none; stroke: #3f3f3f; stroke-linecap: square"/>
   </g>
   <g id="line2d_48">
    <path d="M 579.111063 33.616596 
L 623.868313 33.616596 
" clip-path="url(#pa33576862b)" style="fill: none; stroke: #3f3f3f; stroke-linecap: square"/>
   </g>
   <g id="line2d_49"/>
   <g id="patch_13">
    <path d="M 668.625563 165.28382 
L 758.140063 165.28382 
L 758.140063 143.932378 
L 668.625563 143.932378 
L 668.625563 165.28382 
z
" clip-path="url(#pa33576862b)" style="fill: #3274a1; stroke: #3f3f3f; stroke-linejoin: miter"/>
   </g>
   <g id="line2d_50">
    <path d="M 713.382812 165.28382 
L 713.382812 195.531696 
" clip-path="url(#pa33576862b)" style="fill: none; stroke: #3f3f3f"/>
   </g>
   <g id="line2d_51">
    <path d="M 713.382812 143.932378 
L 713.382812 131.477371 
" clip-path="url(#pa33576862b)" style="fill: none; stroke: #3f3f3f"/>
   </g>
   <g id="line2d_52">
    <path d="M 691.004188 195.531696 
L 735.761438 195.531696 
" clip-path="url(#pa33576862b)" style="fill: none; stroke: #3f3f3f; stroke-linecap: square"/>
   </g>
   <g id="line2d_53">
    <path d="M 691.004188 131.477371 
L 735.761438 131.477371 
" clip-path="url(#pa33576862b)" style="fill: none; stroke: #3f3f3f; stroke-linecap: square"/>
   </g>
   <g id="line2d_54">
    <g clip-path="url(#pa33576862b)">
     <use xlink:href="#m95d2ab7006" x="713.382812" y="97.670921" style="fill-opacity: 0; stroke: #3f3f3f"/>
     <use xlink:href="#m95d2ab7006" x="713.382812" y="94.112348" style="fill-opacity: 0; stroke: #3f3f3f"/>
    </g>
   </g>
   <g id="patch_14">
    <path d="M 780.518688 234.676005 
L 870.033188 234.676005 
L 870.033188 187.524905 
L 780.518688 187.524905 
L 780.518688 234.676005 
z
" clip-path="url(#pa33576862b)" style="fill: #3274a1; stroke: #3f3f3f; stroke-linejoin: miter"/>
   </g>
   <g id="line2d_55">
    <path d="M 825.275938 234.676005 
L 825.275938 259.586021 
" clip-path="url(#pa33576862b)" style="fill: none; stroke: #3f3f3f"/>
   </g>
   <g id="line2d_56">
    <path d="M 825.275938 187.524905 
L 825.275938 145.711665 
" clip-path="url(#pa33576862b)" style="fill: none; stroke: #3f3f3f"/>
   </g>
   <g id="line2d_57">
    <path d="M 802.897312 259.586021 
L 847.654563 259.586021 
" clip-path="url(#pa33576862b)" style="fill: none; stroke: #3f3f3f; stroke-linecap: square"/>
   </g>
   <g id="line2d_58">
    <path d="M 802.897312 145.711665 
L 847.654563 145.711665 
" clip-path="url(#pa33576862b)" style="fill: none; stroke: #3f3f3f; stroke-linecap: square"/>
   </g>
   <g id="line2d_59">
    <g clip-path="url(#pa33576862b)">
     <use xlink:href="#m95d2ab7006" x="825.275938" y="33.616596" style="fill-opacity: 0; stroke: #3f3f3f"/>
     <use xlink:href="#m95d2ab7006" x="825.275938" y="111.905216" style="fill-opacity: 0; stroke: #3f3f3f"/>
    </g>
   </g>
   <g id="patch_15">
    <path d="M 892.411812 193.307587 
L 981.926312 193.307587 
L 981.926312 147.935774 
L 892.411812 147.935774 
L 892.411812 193.307587 
z
" clip-path="url(#pa33576862b)" style="fill: #3274a1; stroke: #3f3f3f; stroke-linejoin: miter"/>
   </g>
   <g id="line2d_60">
    <path d="M 937.169063 193.307587 
L 937.169063 243.572439 
" clip-path="url(#pa33576862b)" style="fill: none; stroke: #3f3f3f"/>
   </g>
   <g id="line2d_61">
    <path d="M 937.169063 147.935774 
L 937.169063 110.125929 
" clip-path="url(#pa33576862b)" style="fill: none; stroke: #3f3f3f"/>
   </g>
   <g id="line2d_62">
    <path d="M 914.790438 243.572439 
L 959.547688 243.572439 
" clip-path="url(#pa33576862b)" style="fill: none; stroke: #3f3f3f; stroke-linecap: square"/>
   </g>
   <g id="line2d_63">
    <path d="M 914.790438 110.125929 
L 959.547688 110.125929 
" clip-path="url(#pa33576862b)" style="fill: none; stroke: #3f3f3f; stroke-linecap: square"/>
   </g>
   <g id="line2d_64"/>
   <g id="line2d_65">
    <path d="M 556.732438 143.042735 
L 646.246938 143.042735 
" clip-path="url(#pa33576862b)" style="fill: none; stroke: #3f3f3f"/>
   </g>
   <g id="line2d_66">
    <path d="M 668.625563 156.387386 
L 758.140063 156.387386 
" clip-path="url(#pa33576862b)" style="fill: none; stroke: #3f3f3f"/>
   </g>
   <g id="line2d_67">
    <path d="M 780.518688 213.324564 
L 870.033188 213.324564 
" clip-path="url(#pa33576862b)" style="fill: none; stroke: #3f3f3f"/>
   </g>
   <g id="line2d_68">
    <path d="M 892.411812 179.518114 
L 981.926312 179.518114 
" clip-path="url(#pa33576862b)" style="fill: none; stroke: #3f3f3f"/>
   </g>
   <g id="patch_16">
    <path d="M 545.543125 270.884492 
L 545.543125 22.318125 
" style="fill: none; stroke: #000000; stroke-width: 0.8; stroke-linejoin: miter; stroke-linecap: square"/>
   </g>
   <g id="patch_17">
    <path d="M 993.115625 270.884492 
L 993.115625 22.318125 
" style="fill: none; stroke: #000000; stroke-width: 0.8; stroke-linejoin: miter; stroke-linecap: square"/>
   </g>
   <g id="patch_18">
    <path d="M 545.543125 270.884492 
L 993.115625 270.884492 
" style="fill: none; stroke: #000000; stroke-width: 0.8; stroke-linejoin: miter; stroke-linecap: square"/>
   </g>
   <g id="patch_19">
    <path d="M 545.543125 22.318125 
L 993.115625 22.318125 
" style="fill: none; stroke: #000000; stroke-width: 0.8; stroke-linejoin: miter; stroke-linecap: square"/>
   </g>
   <g id="text_26">
    <!-- uTP Region Length by Variant -->
    <g transform="translate(680.738438 16.318125) scale(0.12 -0.12)">
     <use xlink:href="#DejaVuSans-75"/>
     <use xlink:href="#DejaVuSans-54" x="63.378906"/>
     <use xlink:href="#DejaVuSans-50" x="124.462891"/>
     <use xlink:href="#DejaVuSans-20" x="184.765625"/>
     <use xlink:href="#DejaVuSans-52" x="216.552734"/>
     <use xlink:href="#DejaVuSans-65" x="281.535156"/>
     <use xlink:href="#DejaVuSans-67" x="343.058594"/>
     <use xlink:href="#DejaVuSans-69" x="406.535156"/>
     <use xlink:href="#DejaVuSans-6f" x="434.318359"/>
     <use xlink:href="#DejaVuSans-6e" x="495.5"/>
     <use xlink:href="#DejaVuSans-20" x="558.878906"/>
     <use xlink:href="#DejaVuSans-4c" x="590.666016"/>
     <use xlink:href="#DejaVuSans-65" x="644.628906"/>
     <use xlink:href="#DejaVuSans-6e" x="706.152344"/>
     <use xlink:href="#DejaVuSans-67" x="769.53125"/>
     <use xlink:href="#DejaVuSans-74" x="833.007812"/>
     <use xlink:href="#DejaVuSans-68" x="872.216797"/>
     <use xlink:href="#DejaVuSans-20" x="935.595703"/>
     <use xlink:href="#DejaVuSans-62" x="967.382812"/>
     <use xlink:href="#DejaVuSans-79" x="1030.859375"/>
     <use xlink:href="#DejaVuSans-20" x="1090.039062"/>
     <use xlink:href="#DejaVuSans-56" x="1121.826172"/>
     <use xlink:href="#DejaVuSans-61" x="1182.484375"/>
     <use xlink:href="#DejaVuSans-72" x="1243.763672"/>
     <use xlink:href="#DejaVuSans-69" x="1284.876953"/>
     <use xlink:href="#DejaVuSans-61" x="1312.660156"/>
     <use xlink:href="#DejaVuSans-6e" x="1373.939453"/>
     <use xlink:href="#DejaVuSans-74" x="1437.318359"/>
    </g>
   </g>
  </g>
 </g>
 <defs>
  <clipPath id="pd1bbd63a25">
   <rect x="46.965625" y="22.318125" width="447.5725" height="248.566367"/>
  </clipPath>
  <clipPath id="pa33576862b">
   <rect x="545.543125" y="22.318125" width="447.5725" height="248.566367"/>
  </clipPath>
 </defs>
</svg>
